<?xml version="1.0" encoding="utf-8"?>
<!-- Generator: Adobe Illustrator 15.0.0, SVG Export Plug-In . SVG Version: 6.00 Build 0)  -->
<!DOCTYPE svg PUBLIC "-//W3C//DTD SVG 1.1//EN" "http://www.w3.org/Graphics/SVG/1.1/DTD/svg11.dtd">
<svg version="1.1" id="Layer_1" xmlns="http://www.w3.org/2000/svg" xmlns:xlink="http://www.w3.org/1999/xlink" x="0px" y="0px"
	 width="980px" height="600px" viewBox="0 0 980 600" enable-background="new 0 0 980 600" xml:space="preserve">
<path fill="#DDDDDD" d="M960,0H20C8.954,0,0,8.954,0,20v580h980V20C980,8.954,971.046,0,960,0z"/>
<circle fill="#D66483" cx="30" cy="30" r="10"/>
<circle fill="#FFCC66" cx="60" cy="30" r="10"/>
<circle fill="#349CA5" cx="90" cy="30" r="10"/>
<rect x="10" y="60" fill="#F5F5F5" width="960" height="540"/>
<rect x="10" y="60" fill="#373C46" width="960" height="80"/>
<g>
	<path fill="#FFFFFF" d="M91.081,111.865v-1.519h-0.055c-0.407,0.658-0.984,1.151-1.729,1.479c-0.748,0.329-1.546,0.493-2.397,0.493
		c-1.989,0-3.636-0.715-4.94-2.144c-1.306-1.429-1.958-3.148-1.958-5.155c0-2.004,0.643-3.718,1.932-5.139
		c1.286-1.42,2.925-2.131,4.912-2.131c1.812,0,3.225,0.595,4.237,1.785v-9.775h4.847v22.107H91.081z M90.401,102.849
		c-0.558-0.595-1.319-0.892-2.276-0.892c-0.961,0-1.719,0.297-2.276,0.892c-0.561,0.595-0.84,1.328-0.84,2.198
		c0,0.888,0.279,1.621,0.84,2.197c0.558,0.577,1.315,0.866,2.276,0.866c0.958,0,1.718-0.289,2.276-0.866
		c0.559-0.577,0.84-1.31,0.84-2.197C91.241,104.176,90.959,103.443,90.401,102.849"/>
	<path fill="#FFFFFF" d="M100.336,99.718c1.589-1.313,3.537-1.971,5.845-1.971s4.257,0.657,5.847,1.971
		c1.59,1.316,2.382,3.09,2.382,5.328c0,2.236-0.792,4.008-2.382,5.313c-1.589,1.305-3.538,1.957-5.847,1.957
		c-2.29,0-4.235-0.652-5.832-1.957c-1.599-1.305-2.399-3.077-2.399-5.313C97.951,102.808,98.746,101.034,100.336,99.718
		 M108.459,102.849c-0.56-0.595-1.319-0.892-2.278-0.892s-1.718,0.297-2.276,0.892c-0.562,0.595-0.84,1.328-0.84,2.198
		c0,0.888,0.278,1.621,0.84,2.197c0.558,0.577,1.317,0.866,2.276,0.866s1.718-0.289,2.278-0.866c0.559-0.577,0.839-1.31,0.839-2.197
		C109.298,104.176,109.019,103.443,108.459,102.849"/>
	<path fill="#FFFFFF" d="M121.443,98.2v1.758h0.053c0.995-1.473,2.451-2.211,4.368-2.211c1.759,0,3.053,0.501,3.889,1.505
		c0.834,1.002,1.251,2.393,1.251,4.168v8.442h-4.847v-6.659v-0.413v-0.479c0-0.08-0.003-0.23-0.013-0.453
		c-0.01-0.222-0.027-0.387-0.053-0.493c-0.026-0.106-0.066-0.257-0.12-0.453c-0.053-0.195-0.114-0.336-0.188-0.427
		c-0.069-0.088-0.164-0.199-0.277-0.333c-0.117-0.132-0.243-0.229-0.386-0.293c-0.144-0.061-0.312-0.12-0.508-0.173
		c-0.194-0.054-0.408-0.08-0.638-0.08c-1.687,0-2.531,1.057-2.531,3.17v7.084h-4.848V98.2H121.443z"/>
	<path fill="#FFFFFF" d="M144.481,111.865v-1.519h-0.051c-0.409,0.658-0.986,1.151-1.732,1.479
		c-0.744,0.329-1.544,0.493-2.396,0.493c-1.989,0-3.636-0.715-4.941-2.144c-1.304-1.429-1.958-3.148-1.958-5.155
		c0-2.004,0.644-3.718,1.932-5.139c1.287-1.42,2.926-2.131,4.913-2.131c1.811,0,3.224,0.595,4.235,1.785v-9.775h4.851v22.107
		H144.481z M143.803,102.849c-0.558-0.595-1.318-0.892-2.276-0.892s-1.718,0.297-2.277,0.892c-0.56,0.595-0.839,1.328-0.839,2.198
		c0,0.888,0.28,1.621,0.839,2.197c0.559,0.577,1.319,0.866,2.277,0.866s1.718-0.289,2.276-0.866c0.559-0.577,0.84-1.31,0.84-2.197
		C144.644,104.176,144.362,103.443,143.803,102.849"/>
	<path fill="#FFFFFF" d="M166.404,105.338v0.507h-10.201c0,2.024,1.011,3.037,3.035,3.037c1.048,0,1.82-0.417,2.317-1.251h4.661
		c-0.372,1.527-1.207,2.69-2.505,3.488c-1.295,0.8-2.777,1.2-4.446,1.2c-2.345,0-4.25-0.64-5.714-1.919
		c-1.463-1.278-2.196-3.063-2.196-5.353c0-2.256,0.696-4.036,2.09-5.341c1.393-1.306,3.218-1.958,5.474-1.958
		c2.36,0,4.198,0.68,5.513,2.037C165.748,101.144,166.404,102.995,166.404,105.338 M156.283,103.048h5.618
		c-0.124-0.64-0.443-1.158-0.958-1.559c-0.516-0.4-1.11-0.599-1.785-0.599c-0.728,0-1.354,0.185-1.877,0.558
		C156.755,101.822,156.423,102.355,156.283,103.048"/>
	<path fill="#FFFFFF" d="M110.504,89.181c-0.542-0.039-1.163-0.478-1.377-0.977l-1.599-3.706c-0.212-0.499-0.469-0.469-0.568,0.065
		l-1.858,10.112c-0.098,0.534,0.204,0.75,0.675,0.478l8.845-5.116c0.47-0.273,0.412-0.527-0.13-0.566L110.504,89.181z"/>
</g>
<rect x="80" y="203" fill="#DDDDDD" width="618" height="56"/>
<rect x="80" y="259" fill="#FFFFFF" width="618" height="260"/>
<rect x="734" y="203" fill="#DDDDDD" width="200" height="56"/>
<rect x="734" y="262" fill="#DDDDDD" width="200" height="56"/>
<rect x="734" y="357" fill="#349CA5" width="200" height="56"/>
<rect x="734" y="452" fill="#DDDDDD" width="200" height="56"/>
<rect x="734" y="508" fill="#EDEDED" width="200" height="92"/>
<rect x="734" y="318" fill="#EDEDED" width="200" height="35"/>
<rect x="734" y="413" fill="#FFFFFF" width="200" height="35"/>
<rect x="864" y="80" fill="#252930" width="70" height="40"/>
<rect x="869" y="85" fill="#999999" width="30" height="30"/>
<polygon fill="#FFFFFF" points="921.985,98 916,103.985 910.015,98 "/>
<polygon fill="#999999" points="917.985,230 912,235.985 906.015,230 "/>
<polygon fill="#999999" points="906.014,295 912,289.015 917.984,295 "/>
<polygon fill="#FFFFFF" points="906.014,390 912,384.015 917.984,390 "/>
<polygon fill="#999999" points="906.014,485 912,479.015 917.984,485 "/>
<rect x="470" y="211" fill="#F5F5F5" width="220" height="40"/>
<rect x="88" y="211" fill="#4189C7" width="103" height="40"/>
<rect x="751" y="282" fill="#999999" width="100" height="16"/>
<rect x="751" y="332" fill="#B3B3B3" width="100" height="8"/>
<rect x="487" y="227" fill="#B3B3B3" width="119" height="8"/>
<rect x="751" y="427" fill="#808080" width="100" height="8"/>
<rect x="751" y="522" fill="#B3B3B3" width="100" height="8"/>
<rect x="80" y="578" fill="#B3B3B3" width="159" height="8"/>
<rect x="557" y="578" fill="#B3B3B3" width="49" height="8"/>
<rect x="646" y="578" fill="#B3B3B3" width="49" height="8"/>
<rect x="751" y="557" fill="#B3B3B3" width="100" height="8"/>
<rect x="751" y="592" fill="#B3B3B3" width="100" height="8"/>
<rect x="751" y="225" fill="#999999" width="118" height="16"/>
<rect x="80" y="541" fill="#999999" width="232" height="16"/>
<rect x="633" y="541" fill="#999999" width="63" height="16"/>
<rect x="546" y="541" fill="#999999" width="63" height="16"/>
<rect x="751" y="473" fill="#999999" width="118" height="16"/>
<rect x="751" y="377" fill="#FFFFFF" width="133" height="16"/>
<circle fill="#8D81CD" cx="149" cy="480" r="10"/>
<circle fill="#8D81CD" cx="212" cy="423" r="10"/>
<circle fill="#8D81CD" cx="322" cy="385" r="10"/>
<circle fill="#8D81CD" cx="389" cy="441" r="10"/>
<circle fill="#8D81CD" cx="470" cy="342" r="10"/>
<circle fill="#8D81CD" cx="557" cy="367" r="10"/>
<circle fill="#8D81CD" cx="651" cy="357" r="10"/>
<polyline fill="none" stroke="#8D81CD" stroke-width="4" stroke-miterlimit="10" points="149,480 212,423 322,385 389,441 470,342 
	557,367 651,357 "/>
</svg>
