<?xml version="1.0" encoding="utf-8"?>
<!-- Generator: Adobe Illustrator 15.0.0, SVG Export Plug-In . SVG Version: 6.00 Build 0)  -->
<!DOCTYPE svg PUBLIC "-//W3C//DTD SVG 1.1//EN" "http://www.w3.org/Graphics/SVG/1.1/DTD/svg11.dtd">
<svg version="1.1" id="Layer_1" xmlns="http://www.w3.org/2000/svg" xmlns:xlink="http://www.w3.org/1999/xlink" x="0px" y="0px"
	 width="123.666px" height="100.326px" viewBox="0 0 123.666 100.326" enable-background="new 0 0 123.666 100.326"
	 xml:space="preserve">
<g>
	<path fill="#0D6D6D" d="M101.244,21.671c-12.383,0-22.422,10.141-22.422,22.524c0,3.135,0.646,5.934,1.808,8.932L99.217,99.1
		c0.389,0.726,1.146,1.226,2.027,1.226s1.638-0.5,2.026-1.226l18.551-45.973c1.186-2.998,1.846-5.826,1.846-8.994
		C123.666,31.75,113.627,21.671,101.244,21.671z M101.244,52.026c-5.602,0-10.142-4.54-10.142-10.141
		c0-5.601,4.54-10.142,10.142-10.142c5.601,0,10.141,4.541,10.141,10.142C111.385,47.486,106.845,52.026,101.244,52.026z"/>
	<path fill="#0D6D6D" d="M22.422,21.671C10.039,21.671,0,31.812,0,44.196c0,3.135,0.646,5.934,1.808,8.932L20.396,99.1
		c0.389,0.726,1.145,1.226,2.026,1.226s1.638-0.5,2.026-1.226L43,53.127c1.185-2.998,1.846-5.826,1.846-8.994
		C44.845,31.75,34.806,21.671,22.422,21.671z M22.422,52.026c-5.601,0-10.141-4.54-10.141-10.141c0-5.601,4.54-10.142,10.141-10.142
		c5.602,0,10.142,4.541,10.142,10.142C32.564,47.486,28.024,52.026,22.422,52.026z"/>
	<path fill="#349CA5" d="M61.065,0c-15.795,0-28.6,12.936-28.6,28.73c0,4,0.823,7.569,2.306,11.394L58.48,98.762
		c0.496,0.926,1.46,1.564,2.584,1.564s2.089-0.638,2.584-1.564l23.662-58.638c1.512-3.824,2.354-7.432,2.354-11.472
		C89.665,12.856,76.86,0,61.065,0z M61.065,38.718c-7.144,0-12.936-5.792-12.936-12.935c0-7.144,5.792-12.936,12.936-12.936
		S74,18.639,74,25.783C74,32.927,68.209,38.718,61.065,38.718z"/>
</g>
</svg>
