<?xml version="1.0" encoding="utf-8"?>
<!-- Generator: Adobe Illustrator 15.0.0, SVG Export Plug-In . SVG Version: 6.00 Build 0)  -->
<!DOCTYPE svg PUBLIC "-//W3C//DTD SVG 1.1//EN" "http://www.w3.org/Graphics/SVG/1.1/DTD/svg11.dtd">
<svg version="1.1" id="Layer_1" xmlns="http://www.w3.org/2000/svg" xmlns:xlink="http://www.w3.org/1999/xlink" x="0px" y="0px"
	 width="508.5px" height="405.495px" viewBox="0 0 508.5 405.495" enable-background="new 0 0 508.5 405.495" xml:space="preserve">
<path opacity="0.06" enable-background="new    " d="M505.996,340.973c0,7.585-6.149,13.732-13.733,13.732H22.596
	c-7.583,0-13.733-6.147-13.733-13.732V36.101c0-7.585,6.149-13.733,13.733-13.733h469.667c7.584,0,13.733,6.148,13.733,13.733
	V340.973z"/>
<g>
	<g>
		<path fill="#FFFFFF" d="M486.77,18.248H14.356c-5.301,0-9.613,4.312-9.613,9.613V335.48c0,5.3,4.312,9.612,9.613,9.612H486.77
			c5.301,0,9.613-4.312,9.613-9.612V27.861C496.383,22.561,492.07,18.248,486.77,18.248z"/>
		<path fill="#CCCCCC" d="M486.77,15.501H14.356c-6.814,0-12.36,5.545-12.36,12.36V335.48c0,6.815,5.545,12.359,12.36,12.359H486.77
			c6.816,0,12.36-5.544,12.36-12.359V27.861C499.13,21.047,493.586,15.501,486.77,15.501z M496.383,335.48
			c0,5.3-4.312,9.612-9.613,9.612H14.356c-5.301,0-9.613-4.312-9.613-9.612V27.861c0-5.301,4.312-9.613,9.613-9.613H486.77
			c5.301,0,9.613,4.312,9.613,9.613V335.48z"/>
	</g>
	<path fill="#CCCCCC" d="M488.082,15.501H13.043c-6.1,0-11.047,4.919-11.047,10.986v5.493v5.493V48.46h11.047h475.039h11.048V37.474
		v-5.493v-5.493C499.13,20.42,494.184,15.501,488.082,15.501z"/>
	<g>
		<circle fill="#EC1B52" cx="18.651" cy="31.981" r="5.727"/>
		<circle fill="#FFCC33" cx="36.979" cy="31.981" r="5.727"/>
		<circle fill="#51C197" cx="55.305" cy="31.981" r="5.727"/>
	</g>
</g>
<path opacity="0.06" d="M233.494,5.995H97.984c-21.247,0-38.542,17.294-38.542,38.542v322.404c0,21.258,17.295,38.553,38.542,38.553
	h135.51c21.258,0,38.543-17.295,38.543-38.553V44.538C272.037,23.29,254.752,5.995,233.494,5.995z"/>
<g>
	<g>
		<path fill="#666666" d="M209.219,114.532h4.666v6.098c-0.758,0.248-1.468,0.422-2.139,0.521c-0.667,0.098-1.348,0.146-2.045,0.146
			c-1.776,0-3.133-0.52-4.069-1.565c-0.938-1.043-1.403-2.544-1.403-4.494c0-1.899,0.544-3.38,1.629-4.44
			c1.086-1.061,2.594-1.594,4.52-1.594c1.207,0,2.371,0.243,3.492,0.723l-0.83,1.996c-0.858-0.428-1.75-0.644-2.678-0.644
			c-1.078,0-1.942,0.362-2.592,1.086c-0.65,0.723-0.974,1.697-0.974,2.921c0,1.277,0.259,2.253,0.783,2.926
			c0.523,0.673,1.285,1.007,2.281,1.007c0.52,0,1.05-0.054,1.585-0.16v-2.454h-2.229L209.219,114.532L209.219,114.532z"/>
		<path fill="#666666" d="M220.565,121.3c-1.448,0-2.581-0.399-3.396-1.199c-0.817-0.799-1.225-1.931-1.225-3.397
			c0-1.508,0.374-2.67,1.128-3.495c0.755-0.825,1.798-1.235,3.127-1.235c1.271,0,2.26,0.363,2.966,1.086
			c0.711,0.723,1.062,1.725,1.062,3.003v1.189h-5.802c0.027,0.699,0.233,1.242,0.618,1.633c0.386,0.39,0.929,0.587,1.627,0.587
			c0.542,0,1.054-0.056,1.537-0.169c0.481-0.113,0.987-0.292,1.513-0.541v1.9c-0.429,0.213-0.888,0.374-1.376,0.48
			C221.86,121.25,221.266,121.3,220.565,121.3z M220.219,113.722c-0.52,0-0.928,0.167-1.223,0.495
			c-0.296,0.33-0.465,0.797-0.507,1.402h3.444c-0.011-0.605-0.169-1.072-0.475-1.402
			C221.151,113.888,220.739,113.722,220.219,113.722z"/>
		<path fill="#666666" d="M234.534,121.139h-2.454v-5.253c0-0.65-0.115-1.135-0.346-1.459c-0.231-0.325-0.598-0.485-1.103-0.485
			c-0.687,0-1.183,0.23-1.489,0.689c-0.306,0.459-0.458,1.218-0.458,2.277v4.232h-2.455v-8.996h1.875l0.33,1.151h0.137
			c0.273-0.432,0.652-0.762,1.129-0.984c0.479-0.223,1.027-0.335,1.637-0.335c1.047,0,1.84,0.284,2.381,0.85
			c0.54,0.563,0.814,1.381,0.814,2.446L234.534,121.139L234.534,121.139z"/>
		<path fill="#666666" d="M241.131,121.3c-1.448,0-2.58-0.399-3.396-1.199c-0.817-0.799-1.225-1.931-1.225-3.397
			c0-1.508,0.375-2.67,1.129-3.495c0.753-0.825,1.797-1.235,3.125-1.235c1.271,0,2.26,0.363,2.969,1.086
			c0.708,0.723,1.061,1.725,1.061,3.003v1.189h-5.802c0.028,0.699,0.233,1.242,0.618,1.633c0.386,0.39,0.929,0.587,1.627,0.587
			c0.543,0,1.055-0.056,1.537-0.169s0.987-0.292,1.514-0.541v1.9c-0.429,0.213-0.888,0.374-1.376,0.48
			C242.426,121.25,241.835,121.3,241.131,121.3z M240.785,113.722c-0.52,0-0.928,0.167-1.224,0.495
			c-0.295,0.33-0.464,0.797-0.506,1.402h3.444c-0.01-0.605-0.169-1.072-0.476-1.402
			C241.717,113.888,241.305,113.722,240.785,113.722z"/>
		<path fill="#666666" d="M251.818,111.974c0.333,0,0.608,0.025,0.829,0.072l-0.187,2.303c-0.2-0.053-0.438-0.082-0.723-0.082
			c-0.781,0-1.394,0.2-1.83,0.602c-0.437,0.402-0.658,0.966-0.658,1.688v4.579h-2.454v-8.996h1.86l0.363,1.514h0.121
			c0.279-0.504,0.656-0.909,1.129-1.219C250.744,112.126,251.259,111.974,251.818,111.974z"/>
		<path fill="#666666" d="M259.993,121.139l-0.475-1.223h-0.064c-0.414,0.52-0.838,0.882-1.277,1.082
			c-0.437,0.201-1.005,0.302-1.709,0.302c-0.863,0-1.545-0.248-2.04-0.74c-0.493-0.492-0.743-1.196-0.743-2.108
			c0-0.953,0.333-1.657,1-2.109c0.668-0.453,1.676-0.707,3.022-0.755l1.562-0.048v-0.393c0-0.912-0.467-1.368-1.403-1.368
			c-0.716,0-1.563,0.216-2.534,0.653l-0.814-1.658c1.035-0.543,2.185-0.814,3.445-0.814c1.207,0,2.133,0.262,2.776,0.789
			c0.644,0.526,0.966,1.325,0.966,2.398v5.993H259.993L259.993,121.139z M259.268,116.973l-0.947,0.031
			c-0.715,0.021-1.245,0.149-1.594,0.385c-0.349,0.237-0.523,0.597-0.523,1.078c0,0.692,0.397,1.038,1.191,1.038
			c0.568,0,1.021-0.162,1.361-0.489c0.341-0.326,0.512-0.763,0.512-1.304V116.973L259.268,116.973z"/>
		<path fill="#666666" d="M266.688,121.139h-2.454V108.62h2.454V121.139z"/>
		<path fill="#666666" d="M280.682,117.873c0,1.061-0.384,1.899-1.148,2.51c-0.766,0.61-1.826,0.917-3.188,0.917
			c-1.256,0-2.367-0.236-3.332-0.709v-2.317c0.793,0.354,1.464,0.601,2.015,0.749c0.553,0.147,1.054,0.217,1.51,0.217
			c0.548,0,0.969-0.104,1.261-0.313c0.293-0.209,0.438-0.521,0.438-0.935c0-0.231-0.064-0.434-0.194-0.613
			c-0.129-0.181-0.318-0.355-0.567-0.52c-0.251-0.167-0.758-0.431-1.523-0.797c-0.719-0.338-1.258-0.661-1.617-0.974
			c-0.361-0.312-0.648-0.673-0.861-1.086c-0.215-0.414-0.322-0.895-0.322-1.45c0-1.041,0.354-1.86,1.059-2.454
			c0.707-0.594,1.681-0.892,2.925-0.892c0.61,0,1.195,0.074,1.75,0.218c0.554,0.143,1.135,0.349,1.742,0.61l-0.805,1.939
			c-0.627-0.259-1.146-0.436-1.557-0.541c-0.41-0.104-0.815-0.151-1.213-0.151c-0.473,0-0.832,0.11-1.086,0.328
			c-0.254,0.22-0.377,0.507-0.377,0.861c0,0.22,0.05,0.414,0.151,0.578c0.103,0.162,0.265,0.32,0.487,0.475s0.748,0.428,1.58,0.825
			c1.1,0.526,1.853,1.055,2.261,1.581C280.475,116.458,280.682,117.104,280.682,117.873z"/>
		<path fill="#666666" d="M286.411,119.345c0.428,0,0.943-0.094,1.545-0.282v1.827c-0.612,0.272-1.363,0.41-2.255,0.41
			c-0.981,0-1.696-0.248-2.145-0.743c-0.449-0.495-0.67-1.242-0.67-2.234v-4.337h-1.175v-1.038l1.352-0.822l0.708-1.899h1.57v1.917
			h2.519v1.843h-2.519v4.337c0,0.349,0.098,0.604,0.295,0.771C285.831,119.263,286.089,119.345,286.411,119.345z"/>
		<path fill="#666666" d="M297.948,116.625c0,1.465-0.385,2.61-1.158,3.438c-0.774,0.828-1.85,1.238-3.229,1.238
			c-0.863,0-1.628-0.189-2.285-0.566c-0.658-0.377-1.17-0.923-1.52-1.632c-0.354-0.709-0.532-1.533-0.532-2.478
			c0-1.47,0.383-2.613,1.15-3.428c0.769-0.816,1.847-1.224,3.234-1.224c0.864,0,1.626,0.189,2.283,0.563
			c0.659,0.375,1.169,0.915,1.521,1.618C297.77,114.859,297.948,115.681,297.948,116.625z M291.729,116.625
			c0,0.891,0.144,1.565,0.436,2.021c0.293,0.456,0.771,0.684,1.43,0.684c0.656,0,1.123-0.225,1.41-0.678
			c0.287-0.452,0.429-1.128,0.429-2.027c0-0.889-0.142-1.558-0.432-2.003c-0.29-0.444-0.768-0.667-1.424-0.667
			s-1.126,0.223-1.415,0.664C291.873,115.062,291.729,115.728,291.729,116.625z"/>
		<path fill="#666666" d="M304.998,111.974c0.332,0,0.608,0.025,0.829,0.072l-0.185,2.303c-0.2-0.053-0.44-0.082-0.725-0.082
			c-0.783,0-1.395,0.2-1.829,0.602c-0.438,0.402-0.657,0.966-0.657,1.688v4.579h-2.454v-8.996h1.858l0.365,1.514h0.12
			c0.279-0.504,0.656-0.909,1.13-1.219C303.923,112.126,304.44,111.974,304.998,111.974z"/>
		<path fill="#666666" d="M311.532,121.3c-1.449,0-2.58-0.399-3.396-1.199c-0.815-0.799-1.225-1.931-1.225-3.397
			c0-1.508,0.375-2.67,1.129-3.495s1.799-1.235,3.125-1.235c1.274,0,2.261,0.363,2.969,1.086c0.711,0.723,1.062,1.725,1.062,3.003
			v1.189h-5.803c0.028,0.699,0.233,1.242,0.619,1.633c0.385,0.39,0.929,0.587,1.627,0.587c0.542,0,1.054-0.056,1.536-0.169
			c0.48-0.113,0.988-0.292,1.514-0.541v1.9c-0.43,0.213-0.888,0.374-1.376,0.48C312.826,121.25,312.235,121.3,311.532,121.3z
			 M311.187,113.722c-0.521,0-0.93,0.167-1.225,0.495c-0.295,0.33-0.464,0.797-0.507,1.402h3.445
			c-0.012-0.605-0.169-1.072-0.477-1.402C312.118,113.888,311.707,113.722,311.187,113.722z"/>
	</g>
	<rect x="204.646" y="150.086" fill="#E6E6E6" width="79.651" height="8.24"/>
	<rect x="204.646" y="136.353" fill="#E6E6E6" width="90.637" height="8.24"/>
	<g>
		<g>
			<g>
				<defs>
					<rect id="SVGID_1_" x="49.463" y="102.021" width="131.837" height="98.877"/>
				</defs>
				<clipPath id="SVGID_2_">
					<use xlink:href="#SVGID_1_"  overflow="visible"/>
				</clipPath>
				<g clip-path="url(#SVGID_2_)">
					<rect x="18.168" y="42.606" fill="#EDEFF0" width="224.102" height="204.935"/>
					<g>
						<path fill="#FFFFFF" d="M56.69,199.342c0.199-0.034,0.382-0.066,0.558-0.091l-0.012-0.064
							C57.064,199.236,56.88,199.289,56.69,199.342z"/>
						<path fill="#FFFFFF" d="M35.002,229.704c-0.035,0.021-0.07,0.037-0.104,0.057c-0.051,0.233-0.102,0.467-0.153,0.697
							C34.833,230.197,34.92,229.945,35.002,229.704z"/>
						<path fill="#FFFFFF" d="M50.339,203.056c0.703,1.604,1.3,3.111,1.821,4.501c-0.379-1.514-0.815-3.102-1.315-4.726
							C50.674,202.904,50.505,202.98,50.339,203.056z"/>
						<path fill="#FFFFFF" d="M49.612,201.446c0.229-0.104,0.461-0.207,0.694-0.307c-0.002-0.004-0.003-0.009-0.004-0.013
							c-0.246,0.067-0.493,0.135-0.743,0.203C49.577,201.371,49.595,201.41,49.612,201.446z"/>
						<polygon fill="#FFFFFF" points="13.624,107.755 37.717,102.924 37.368,101.19 30.852,102.497 30.183,98.243 37.176,96.946 
							36.853,95.205 23.066,97.76 23.39,99.5 28.443,98.562 29.117,102.845 13.275,106.021 						"/>
						<path fill="#DDDDDD" d="M217.746,226.08l0.264-0.149c0.724-0.218,7.606-1.95,42.984-1.95v-4.128
							c-34.53,0-42.623,1.663-44.286,2.166l-13.725,2.562l-0.154-0.861l7.97-1.574l14.57-2.5l21.777-4.888l-0.904-4.029
							l-1.171,0.262v-8.532l-2.783-14.798l4.573-0.882l-0.335-1.738l-4.562,0.878l-3.769-20.051l7.644-1.507l-0.456-2.317
							l-7.626,1.503l-3.9-20.751l11.98-2.319l-0.448-2.316l-11.965,2.317l-1.686-8.961l15.114-2.797l-0.321-1.742l-15.12,2.8
							l-1.7-9.047l16.282-3.292l6.126-12.891l-11.763,2.065c-0.048,0.011-5.008,0.821-8.613,0.019
							c-2.097-0.464-3.419-0.496-4.391-0.346l-1.458-7.097l16.585-2.936c2.146,1.639,3.574,2.724,3.83,2.919l2.142-2.816
							c-0.23-0.176-17.315-13.167-27.894-21.543c1.245-0.604,3.28-1.101,5.168-1.288l20.914,1.335l0.112-1.768l-21.055-1.343
							l-0.072,0.008c-0.926,0.086-4.493,0.509-6.55,1.879c-3.005-2.394-5.305-4.287-6.25-5.184
							c-2.364-2.259-3.405-4.796-3.855-6.375l7.035-5.235l33.708-16.367l-3.093-6.367l-21.778,10.574l-1.264-6.383l-1.737,0.343
							l1.351,6.839l-7.882,3.829l-2.057-9.263l-1.729,0.383l0.453,2.047l-21.351,4.39l-1.354-6.802l-1.735,0.347l2.76,13.862
							l-13.701,2.421l-4.042-16.664l-1.719,0.419l4.017,16.555l-5.127,0.904l-3.848-17.854l-1.731,0.372l1.258,5.829l-9.241,1.807
							l-1.289-7.19l-1.743,0.313l1.296,7.221l-3.009,0.589l-1.858-8.932l-1.732,0.36l1.853,8.912l-4.104,0.804l-2.11-10.077
							l-1.732,0.364l2.105,10.054l-9.418,1.845l-2.552-12.261l-1.732,0.363l2.549,12.239l-9.353,1.829l-3.06-15.427H95.371
							l3.901,20.142l-20.403,3.995l-4.396-23.124l-1.739,0.329l4.397,23.135l-7.126,1.398l-2.251-5.434l-1.372-4.72l-9.092,0.939
							l-3.627-16.252l-6.906,1.542l4.902,21.962l1.019,5.353l-16.689,3.268L30.047,40.08l-1.74,0.326l2.391,12.682l-17.434,3.76
							l0.372,1.731l17.389-3.75l2.021,10.716l-19.742,3.315l0.292,1.746l19.777-3.32L35.206,77l-21.913,3.951l0.314,1.741
							l21.926-3.954l1.852,9.813L13.259,93.93l0.386,1.729l24.068-5.364l3.364,17.843c-13.805,2.416-24.754-0.121-24.865-0.146
							l-0.411,1.722c0.314,0.077,5.392,1.258,13.011,1.258c3.686,0,7.971-0.284,12.594-1.097l2.468,13.092l-1.086,0.212l0.046,0.24
							l-23.202,8.237h-6.181v3.538h6.791l23.261-8.26l5.098,26.817l-32.802,5.835l0.006,0.028c-0.708-0.411-1.107-0.657-1.139-0.675
							l-1.252,1.997c0.113,0.074,1.266,0.789,3.231,1.869l-0.147,0.349c0.079,0.031,5.909,2.564,13.995,9.45l-9.65-0.145
							c-0.521-0.622-1.039-1.233-1.54-1.829c-2.669-3.164-4.976-5.898-5.999-7.603l-3.539,2.125c1.08,1.801,3.158,4.314,5.61,7.223
							l-1.897-0.029l-0.054,3.538l4.965,0.077c4.281,5.132,8.862,10.937,10.686,15.571c1.153,2.935,2.047,6.132,2.68,9.467
							c-0.854-0.307-1.526-0.675-2.049-1.061c-0.656-0.484-1.114-1.011-1.434-1.51l0.411-0.067
							c-2.855-17.329-10.495-21.871-10.819-22.057l-1.023,1.793l-1.049,1.781c0.056,0.03,4.808,3.051,7.683,13.83l-6.734-12.152
							l-3.61,2.001l8.293,14.963l0.226-0.123c0.335,0.987,0.969,2.856,1.769,5.228c-0.686-0.22-1.343-0.478-1.961-0.754
							c-0.376-1.231-0.662-2.229-0.81-2.806c-0.695-2.701-2.979-6.059-3.075-6.2l-1.46,0.999c0.022,0.031,2.203,3.237,2.822,5.639
							c0.085,0.333,0.202,0.761,0.348,1.264c-1.644-0.939-2.692-1.781-2.718-1.801l-1.117,1.371c0.136,0.11,1.921,1.55,4.551,2.819
							c1.196,3.841,3.057,9.24,4.607,12.238c1.256,2.425,2.526,6.832,3.453,10.046c0.299,1.036,0.532,1.832,0.722,2.457
							c-0.695,0.566-1.38,1.178-2.046,1.849c-7.638,7.638-8.942,17.445-8.993,17.862l4.094,0.518
							c0.013-0.088,1.21-8.857,7.816-15.462c0.038-0.04,0.083-0.08,0.121-0.118c-1.875,7.68-3.968,14.614-3.998,14.72l2.457,0.745
							l-3.87,0.878l1.174,5.18l23.287-5.29l0.174,0.88l1.738-0.346l-0.186-0.925l2.407-0.545c2.15,0.709,3.565,0.888,3.66,0.901
							l0.212-1.756c-0.006-0.001-0.028-0.003-0.065-0.009l10.291-2.335l0.986,4.622l3.46-0.736l-0.9-4.234
							c3.441,1.409,6.431,1.912,8.938,1.912c3.002,0,5.313-0.715,6.896-1.45c2.457-0.119,5.032-0.46,7.685-1.071
							c2.729-0.63,9.01-1.889,16.979-3.438l0.216,1.106l-35.31,6.995l0.802,4.05l35.299-6.993l0.197,1.011l-6.641,1.326l0.461,2.312
							l6.632-1.322l0.1,0.506l3.473-0.678l-0.102-0.523l19.074-3.806l1.231,6.369l2.317-0.449l-1.236-6.381l20.255-4.045
							l2.157,10.88l2.315-0.458l-2.159-10.884l19.768-3.948l3.071,15.236l1.735-0.35l-3.072-15.233l20.225-4.038l3.524,19.655
							l2.322-0.419l-3.533-19.699l5.155-1.031l35.278-0.732l-0.047-2.359l-35.385,0.736l-0.104,0.002l-5.315,1.061l-0.087-0.498
							l13.873-2.592L217.746,226.08z M242.712,202.683v6.7l-19.339,3.119l-3.69-20.488l20.287-3.909L242.712,202.683z
							 M36.785,218.097c1.245-3.162,3.353-8.985,4.378-14.565c2.231-0.557,4.507-1.155,6.659-1.731
							c0.077,0.158,0.148,0.314,0.221,0.475c-1.104,0.66-2.094,1.448-2.848,2.393c-2.938,3.676-6.952,15.293-8.449,19.824
							c-0.283,0.096-0.567,0.199-0.852,0.306c0.142-0.787,0.271-1.556,0.384-2.304C36.5,221.049,36.667,219.579,36.785,218.097z
							 M36.495,204.649c0.897-0.203,1.826-0.424,2.771-0.653c-0.581,2.869-1.435,5.792-2.278,8.33
							C36.964,209.761,36.799,207.187,36.495,204.649z M39.665,188.325c3.167,4.195,5.542,8.208,7.367,11.85
							c-0.026,0.01-0.052,0.016-0.078,0.024c-2.022,0.535-3.83,0.912-5.449,1.159c0.159-1.236,0.251-2.443,0.251-3.583
							C41.757,194.274,40.829,191.026,39.665,188.325z M46.576,205.771c0.577-0.72,1.337-1.341,2.196-1.874
							c1.516,3.475,2.541,6.492,3.334,8.836c0.221,0.656,0.423,1.249,0.612,1.783c0.32,0.909,0.721,2.356,1.185,4.028
							c0.657,2.363,1.445,5.201,2.423,8.127c-1.651-1.078-3.318-1.958-4.951-2.476c-3.38-1.07-7.877-1.424-12.56-0.299
							C40.507,218.875,44.062,208.92,46.576,205.771z M63.109,112.29l-3.434,0.617l-1.105-6.309
							c1.085-0.209,2.205-0.426,3.362-0.649L63.109,112.29z M62.194,80.476l17.476-3.58l0.882,4.642
							c-6.558,1.217-12.084,2.23-14.229,2.599c-2.161,0.372-3.436-0.258-3.786-1.868L62.194,80.476z M63.43,114.032l0.92,4.953
							l-11.99,2.331l-1.093-5.096L63.43,114.032z M63.978,97.588c0.028-1.604-0.148-3.712-0.73-6.441
							c0.599,0.106,1.249,0.167,1.957,0.167c0.714,0,1.485-0.062,2.313-0.202c2.136-0.368,7.432-1.339,13.759-2.511l2.225,11.389
							c-1.146,0.22-2.284,0.439-3.41,0.657l-1.561-9.626l-1.746,0.282l1.568,9.68c-4.68,0.904-9.146,1.765-13.269,2.559
							L63.978,97.588z M83.839,101.724l1.189,6.089l-12.917,2.666l-0.536-2.776l-1.737,0.334l0.54,2.799l-3.797,0.783l-1.174-6.336
							C71.02,104.201,77.276,102.993,83.839,101.724z M212.304,108.328l-2.984-13.935l3.094-0.602l2.965,13.919L212.304,108.328z
							 M218.481,108.892c0.638,2.045,1.238,5.039,0.604,6.189c-0.371,0.557-2.648,1.266-5.693,1.937l-0.796-6.945L218.481,108.892z
							 M208.476,145.313l-9.405,1.821l-3.712-19.449l9.183-1.859L208.476,145.313z M206.278,125.478l9.506-1.92l1.683,8.808
							l-9.447,1.746L206.278,125.478z M96.983,213.731L92.95,193.79l8.547-1.688l3.925,20.092L96.983,213.731z M105.761,213.931
							l1.732,8.872l-8.354,1.603l-1.807-8.941L105.761,213.931z M60.351,196.614l-3.881-20.413l17.467-2.826l0.194-1.038l22.61-4.59
							l4.08,20.881L60.351,196.614z M81.991,204.518l-19.292,3.68l-1.367-6.416l-0.321-1.687l19.338-3.817L81.991,204.518z
							 M57.581,200.993l0.277,1.467l3.151,14.791c-1.607-2.35-4.085-6.82-7.655-15.313C54.98,201.457,56.518,201.162,57.581,200.993
							z M56.69,199.342c0.19-0.054,0.374-0.106,0.545-0.156l0.012,0.064C57.072,199.276,56.889,199.309,56.69,199.342z
							 M176.491,100.78l2.816,14.174l-9.417,1.893l-2.83-14.232L176.491,100.78z M175.942,88.775l4.869-0.968l1.585,8.215
							l-4.854,0.944L175.942,88.775z M104.567,154.546l0.892,5.242l-6.412,1.328l-2.722-13.934l18.578-3.758l0.658-0.104
							l1.687,8.708L104.567,154.546z M106.306,164.785l-6.485,0.292l-0.434-2.224l6.368-1.315L106.306,164.785z M88.833,108.833
							l13.202-2.724l1.013,5.35l-13.201,2.566L88.833,108.833z M89.017,128.219l-4.455,0.786l-0.699-4.157l4.334-0.826
							L89.017,128.219z M103.708,114.931l1.056,5.575l-13.129,2.662l-1.11-5.673L103.708,114.931z M132.095,130.944l-0.846-4.53
							l3.794-0.765l0.917,4.625L132.095,130.944z M136.304,132.009l0.808,4.071l-3.899,0.848l-0.793-4.247L136.304,132.009z
							 M120.291,134.777l0.945,4.066l-4.019,0.633l-0.781-4.036L120.291,134.777z M116.101,133.699l-0.791-4.087l3.611-0.727
							l0.967,4.162L116.101,133.699z M120.657,128.541l8.857-1.778l0.837,4.482l-8.716,1.505L120.657,128.541z M130.677,132.981
							l0.791,4.242l-8.48,1.344l-0.95-4.091L130.677,132.981z M114.972,127.877l-0.458-2.375l19.806-3.504l0.379,1.914
							L114.972,127.877z M129.681,121.024l-2.225-10.708l4.377-0.852l2.144,10.801L129.681,121.024z M127.938,121.331l-13.762,2.433
							l-0.628-3.24l13.646-2.772L127.938,121.331z M113.212,118.79l-1.064-5.496l3.57-0.696l1.089,5.464L113.212,118.79z
							 M112.19,125.915l0.471,2.426l-19.258,3.866l-0.561-2.87L112.19,125.915z M107.41,124.965l-0.583-3.071l4.41-0.896l0.617,3.18
							L107.41,124.965z M106.498,120.152l-1.054-5.556l4.388-0.854l1.067,5.519L106.498,120.152z M104.786,111.12l-1.018-5.37
							l4.343-0.896l1.049,5.414L104.786,111.12z M105.094,122.246l0.574,3.028l-13.167,2.33l-0.526-2.696L105.094,122.246z
							 M92.857,147.882l1.795,9.18l-18.889,4.023l-1.744-9.39L92.857,147.882z M75.892,162.868l19.097-4.066l1.297,6.63
							l-21.692,4.403L75.892,162.868z M95.648,143.706l-1.909-9.76l19.255-3.865l1.892,9.763l-0.611,0.094L95.648,143.706z
							 M117.583,153.765l0.657,3.388l-11.047,2.283l-0.593-3.487L117.583,153.765z M118.576,158.886l0.715,3.7l-10.837,2.099
							l-0.37,0.018l-0.599-3.526L118.576,158.886z M117.892,142.955l4.148-0.658l2.071,8.898l4.232,3.864l-7.793,1.611
							L117.892,142.955z M129.485,156.632l0.588,3.868l-8.464,1.639l-0.722-3.734L129.485,156.632z M125.709,150.257l-1.917-8.24
							l9.726-1.537l4.284-0.932l3.715,18.738l-9.705,1.876l-0.764-5.031L125.709,150.257z M159.954,131.242l-8.881,1.8l-11.656,2.54
							l-0.787-3.974l20.659-3.566L159.954,131.242z M159.577,120.724l8.924-1.796l2.022,10.176l-8.835,1.789L159.577,120.724z
							 M138.287,129.873l-0.93-4.687l20.485-4.113l1.086,5.234L138.287,129.873z M140.105,139.048l9.098-1.975l1.577,8.744
							l-8.989,1.741L140.105,139.048z M151.096,147.555l1.545,8.572l-8.81,1.706l-1.693-8.545L151.096,147.555z M152.518,145.479
							l-1.582-8.784l0.865-0.19l8.819-1.784l1.563,8.886L152.518,145.479z M162.489,145.349l1.51,8.581l-9.621,1.86l-1.546-8.571
							L162.489,145.349z M162.353,134.372l19.995-4.047l1.724,9.011l-10.208,2.048l2.049,10.241l-10.173,1.972L162.353,134.372z
							 M184.404,141.072l1.641,8.586l-8.398,1.628l-1.702-8.516L184.404,141.072z M186.469,151.981l1.771,10.232l-20.282,4.006
							l-1.813-10.304L186.469,151.981z M188.542,163.959l1.794,10.351l-20.243,4.047l-1.83-10.394L188.542,163.959z
							 M188.205,151.643l9.572-1.854l3.981,20.859l-4.243,0.836l-0.118,0.022l-5.365,2.248L188.205,151.643z M187.783,149.323
							l-3.701-19.352l9.544-1.934l3.709,19.433L187.783,149.323z M183.403,126.499l-2.017-10.156l20.446-4.106l2.017,10.125
							L183.403,126.499z M181.67,126.85l-9.412,1.905l-2.024-10.171l9.416-1.891L181.67,126.85z M168.156,117.195l-8.939,1.797
							l-2.961-14.277l9.07-1.765L168.156,117.195z M157.481,119.338l-20.469,4.109l-2.863-14.437l20.367-3.961L157.481,119.338z
							 M133.46,105.541l-1.126-5.678l20.435-4.027l1.065,5.741L133.46,105.541z M131.991,98.128l-1.094-5.504
							c7.923-1.533,15.015-2.906,20.537-3.977l1.011,5.451L131.991,98.128z M131.145,105.994l-4.407,0.858l-1.164-5.601l4.447-0.92
							L131.145,105.994z M125.719,110.653l1.115,5.367l-8.295,1.687l-1.085-5.448L125.719,110.653z M116.762,108.794l-1.097-5.499
							l8.176-1.688l1.16,5.581L116.762,108.794z M115.319,101.559l-1.137-5.699c2.754-0.534,5.474-1.059,8.14-1.574l1.16,5.587
							L115.319,101.559z M115.025,109.128l-3.551,0.693l-1.055-5.445l3.512-0.724L115.025,109.128z M110.085,102.64l-1.116-5.772
							c1.163-0.226,2.321-0.45,3.477-0.672l1.142,5.722L110.085,102.64z M108.631,95.129l-1.25-6.448l3.428-0.684l1.29,6.462
							C110.947,94.683,109.791,94.904,108.631,95.129z M107.774,103.116l-4.334,0.896l-1.112-5.863
							c1.443-0.279,2.884-0.556,4.323-0.833L107.774,103.116z M101.998,96.414L100.783,90l4.285-0.855l1.245,6.437
							C104.879,95.857,103.439,96.134,101.998,96.414z M101.706,104.37l-13.211,2.724l-1.179-6.04
							c4.352-0.84,8.808-1.701,13.275-2.564L101.706,104.37z M87.857,122.288l-4.29,0.816l-0.692-4.114l4.179-0.813L87.857,122.288z
							 M73.41,117.222l-0.964-5.006l12.923-2.665l1.005,5.153L73.41,117.222z M82.123,125.175l0.696,4.14l-6.849,1.212l-0.776-4.036
							L82.123,125.175z M74.858,124.756l-0.78-4.056l7.06-1.373l0.69,4.105L74.858,124.756z M73.121,125.085l-3.901,0.74
							l-0.749-4.036l3.871-0.751L73.121,125.085z M73.456,126.824l0.771,4.013l-3.949,0.699l-0.736-3.968L73.456,126.824z
							 M89.355,129.957l2.825,14.455l-18.805,3.806l-2.774-14.944L89.355,129.957z M100.279,167.417l8.369-0.373l0.086-0.008
							l11.006-2.131l3.899,20.134l-19.231,3.508L100.279,167.417z M122.056,164.455l19.917-3.858l4.138,20.857l-1.273-0.283
							l-18.877,3.448L122.056,164.455z M144.291,160.149l20.117-3.897l3.951,22.451l-18.223,3.644l-1.509-0.335L144.291,160.149z
							 M150.109,184.759l18.687-3.737l3.685,18.28l-19.674,3.789l-3.679-18.549L150.109,184.759z M170.531,180.675l20.251-4.05
							l3.908,18.397l-20.471,3.941L170.531,180.675z M192.485,176.124l5.606-2.347l15.514-3.058l4.013,19.89l-21.187,4.078
							L192.485,176.124z M203.495,170.309l-2.296-12.031l9.554-1.682l2.38,11.811L203.495,170.309z M200.867,156.54l-1.352-7.085
							l9.428-1.827l1.458,7.237L200.867,156.54z M203.568,111.89l7.29-1.464l0.797,6.955c-2.125,0.421-4.485,0.807-6.773,1.114
							L203.568,111.89z M210.572,108.676l-7.354,1.476l-2.791-14.031l7.156-1.394L210.572,108.676z M201.489,110.5l-20.449,4.106
							l-2.813-14.165l20.465-3.98L201.489,110.5z M183.226,90.982l-0.679-3.519l3.358-0.667l0.708,3.58L183.226,90.982z
							 M186.959,92.114l0.577,2.908l-3.404,0.663l-0.571-2.967L186.959,92.114z M189.273,94.686l-1.632-8.236l8.714-1.73
							l1.647,8.269L189.273,94.686z M175.603,87.039L172.388,70.6l20.429-3.663l3.194,16.048L175.603,87.039z M175.807,97.304
							l-4.774,0.931l-2.425-12.456l4.74-1.041L175.807,97.304z M169.298,98.571l-2.952,0.574l-2.626-12.295l3.16-0.693
							L169.298,98.571z M164.61,99.482l-9.039,1.759l-2.399-12.93c3.989-0.772,6.999-1.353,8.69-1.685L164.61,99.482z
							 M152.848,86.574L150.701,75l8.313-1.699l2.479,11.599C159.794,85.227,156.804,85.806,152.848,86.574z M151.111,86.91
							c-5.526,1.068-12.625,2.444-20.557,3.979l-2.244-11.308l20.656-4.226L151.111,86.91z M128.581,93.072l1.098,5.522
							l-4.465,0.921l-1.157-5.568C125.589,93.652,127.098,93.359,128.581,93.072z M123.698,92.213l-1.353-6.52l4.594-0.917
							l1.3,6.561C126.749,91.625,125.234,91.92,123.698,92.213z M121.984,83.964l-0.614-2.96l4.632-0.948l0.592,2.99L121.984,83.964
							z M121.96,92.552c-2.66,0.512-5.375,1.038-8.125,1.572l-1.291-6.472l8.064-1.612L121.96,92.552z M107.045,86.943l-0.589-3.042
							c4.867-0.912,8.319-1.562,8.788-1.649l4.391-0.895l0.614,2.952L107.045,86.943z M113.909,75.304
							c-0.164,0.03-0.973,0.185-2.262,0.426l-3.459-16.46l6.484-1.269l3.506,16.433L113.909,75.304z M109.907,76.055
							c-1.345,0.254-2.969,0.558-4.796,0.9l-3.188-16.46l4.528-0.887L109.907,76.055z M104.731,87.404l-4.278,0.856l-0.591-3.122
							c1.486-0.279,2.919-0.546,4.274-0.801L104.731,87.404z M100.261,96.749c-2.375,0.46-4.744,0.917-7.099,1.372l-1.241-6.352
							l7.126-1.424L100.261,96.749z M91.583,90.033L90.951,86.8c2.424-0.452,4.844-0.904,7.172-1.339l0.597,3.144L91.583,90.033z
							 M91.427,98.455c-1.493,0.291-2.978,0.579-4.451,0.862l-1.233-6.314l4.446-0.887L91.427,98.455z M85.402,91.266l-0.646-3.311
							c1.461-0.271,2.954-0.546,4.456-0.829l0.637,3.25L85.402,91.266z M70.713,112.577l0.959,4.986l-3.849,0.749l-0.918-4.95
							L70.713,112.577z M67.134,133.983l2.771,14.932l-17.935,3.63l-2.735-14.383L67.134,133.983z M70.551,152.399l1.842,9.925
							l-1.48,7.957l-13.912,2.25c-0.412,0-0.823-0.008-1.235-0.02l-3.134-16.488L70.551,152.399z M52.922,176.491l3.981,20.951
							c-1.288,0.369-3.19,0.907-5.424,1.523c-2.287-6.467-5.604-13.229-10.392-18.51c-1.37-1.513-2.71-2.906-4.021-4.206
							L52.922,176.491z M52.16,207.559c-0.519-1.392-1.118-2.896-1.821-4.5c0.167-0.078,0.335-0.153,0.505-0.226
							C51.344,204.457,51.781,206.045,52.16,207.559z M50.306,201.143c-0.232,0.097-0.464,0.201-0.694,0.309
							c-0.019-0.039-0.036-0.081-0.054-0.118c0.25-0.07,0.498-0.138,0.743-0.201C50.303,201.133,50.304,201.138,50.306,201.143z
							 M56.304,220.549c-0.075-0.826-0.564-5.78-2.104-12.274c2.575,5.601,5.354,10.729,7.58,12.597l2.623,12.315
							c-1.73-1.562-3.613-3.229-5.559-4.721C57.823,225.708,56.987,222.942,56.304,220.549z M63.065,209.928l19.27-3.675
							l1.951,9.788L65.11,219.53L63.065,209.928z M82.084,195.932l9.128-1.801l4.028,19.917l-9.212,1.677L82.084,195.932z
							 M95.59,215.783l1.812,8.956l-9.226,1.771l-1.802-9.05L95.59,215.783z M107.833,224.539l1.823,9.329l-19.307,3.541
							l-1.827-9.166L107.833,224.539z M104.86,190.862l19.229-3.508l3.97,20.5l-19.158,3.689L104.86,190.862z M126.409,186.932
							l18.383-3.354l1.82,0.405l3.878,19.553l-20.113,3.872L126.409,186.932z M150.833,205.271l1.514,7.62l-20.043,4.474
							l-1.591-8.217L150.833,205.271z M152.688,214.625l2.217,11.174l-20.29,3.505l-1.975-10.203L152.688,214.625z M153.15,204.823
							l19.682-3.79l4.171,20.687l-19.774,3.661L153.15,204.823z M174.569,200.701l9.833-1.896l3.954,20.812l-9.613,1.783
							L174.569,200.701z M186.137,198.472l8.92-1.716l4.416,20.802l-9.379,1.739L186.137,198.472z M199.204,207.764l-2.409-11.342
							l21.151-4.074l3.681,20.436l-9.205,1.483c-0.312-1.052-0.799-2.881-1.202-5.197c-0.233-1.345-0.837-2.275-1.801-2.767
							c-1.548-0.789-3.395-0.069-3.895,0.156L199.204,207.764z M239.645,186.371l-20.292,3.907l-4.015-19.899l20.541-4.048
							L239.645,186.371z M231.541,143.248l3.904,20.76l-20.571,4.056l-4.192-20.775L231.541,143.248z M231.106,140.93l-20.892,4.049
							l-1.846-9.133l21.05-3.897L231.106,140.93z M230.975,110.088c4.266,0.948,9.732,0.057,9.98,0.018l5.029-0.884l-2.428,5.101
							l-13.977,2.832l-1.514-7.381C228.627,109.714,229.493,109.76,230.975,110.088z M227.395,121.205l1.694,9.007l-9.882,1.83
							l-1.688-8.838L227.395,121.205z M226.112,117.852l-20.527,4.155l-0.356-1.783c1.333-0.185,3.9-0.559,6.515-1.063
							c7.009-1.344,8.427-2.382,8.892-3.224c0.998-1.808,0.214-5.254-0.333-7.129l3.994,0.18L226.112,117.852z M240.569,94.8
							l-15.031,2.657l-1.395-6.8l8.464-1.965C235.537,90.946,238.3,93.064,240.569,94.8z M230.8,87.292l-6.984,1.624l-1.36-8.1
							C225.145,82.919,228.016,85.144,230.8,87.292z M220.836,92.149l3.09,15.049l-4.222-0.188l-0.057-0.161l-2.532,0.509
							l-2.967-13.91L220.836,92.149z M210.382,71.014c1.157,1.105,4.148,3.543,7.938,6.548l1.866,11.114l-20.451,3.977
							l-5.178-26.025l5.114-0.917l6.118-1.921C206.458,65.796,207.781,68.532,210.382,71.014z M204.072,56.905l-6.094,1.916
							l-4.803,0.861l-0.79-3.973l17.427-3.077L204.072,56.905z M212.363,44.21l1.312,5.902l-0.135,0.064l-21.501,3.797l-1.066-5.362
							L212.363,44.21z M190.644,56.018l0.792,3.977l-20.472,3.673l-0.866-4.021L190.644,56.018z M170.649,70.919L173.009,83
							l-9.66,2.119l-2.603-12.172L170.649,70.919z M169.225,63.99l-9.842,2.015l-1.863-10.389l9.496-1.873L169.225,63.99z
							 M165.775,47.99l0.866,4.02l-9.437,1.859l-0.726-4.058L165.775,47.99z M157.648,66.355l-8.319,1.703l-2.178-10.402
							l8.629-1.701L157.648,66.355z M154.741,50.151l0.728,4.061l-8.679,1.711l-0.849-4.05L154.741,50.151z M144.206,52.214
							l3.392,16.198l-9.421,1.929l-3.391-16.281L144.206,52.214z M133.049,54.4l3.394,16.294l-9.507,1.944l-3.255-16.405
							L133.049,54.4z M124.623,73.111l-4.713,0.965l-3.501-16.421l4.956-0.969L124.623,73.111z M118.339,41.426l2.682,13.527
							l-8.814,1.728l-2.885-15.252L118.339,41.426L118.339,41.426z M107.522,41.426l2.947,15.593l-2.647,0.52l-3.385-16.11
							L107.522,41.426L107.522,41.426z M98.23,41.426h4.4l3.458,16.451l-4.501,0.881L98.23,41.426z M85.311,63.748l0.792,3.772
							l1.732-0.367l-0.788-3.748l12.56-2.459l3.183,16.443c-6.071,1.137-13.708,2.564-20.501,3.825l-3.092-16.271L85.311,63.748z
							 M77.463,65.285l0.868,4.569l-6.925,1.409l-0.902-4.615L77.463,65.285z M78.662,71.592l0.676,3.566l-17.473,3.579
							l-0.684-3.581L78.662,71.592z M69.672,71.617l-8.822,1.799l-0.894-4.702l8.811-1.726L69.672,71.617z M66.737,61.664
							l1.497,3.625l-8.611,1.687l-0.817-4.292L66.737,61.664z M65.097,56.702l0.949,3.267l-7.592,0.976l-0.774-3.478L65.097,56.702z
							 M36.316,73.342l16.693-3.271l1.921,10.087l-16.686,3.417L36.316,73.342z M38.574,85.316l16.688-3.417l0.314,1.653
							c0.034,0.184,0.124,0.602,0.309,1.15c0.077,3.081,0.767,9.56,4.866,14.887l0.858,4.626
							c-8.621,1.661-15.365,2.955-18.794,3.608L38.574,85.316z M43.143,109.559c2.719-0.517,7.521-1.44,13.691-2.625l1.101,6.289
							l-13.637,2.455L43.143,109.559z M44.627,117.418l4.897-0.885l1.098,5.122l-5.013,0.975L44.627,117.418z M46.919,125.981
							l18.077-3.519l1.814,9.779l-17.905,4.182L46.919,125.981z M49.04,156.071l3.079,16.205
							c-13.4-1.317-26.498-7.388-33.076-10.866L49.04,156.071z M27.859,168.187c0.684,0.287,1.384,0.571,2.102,0.852
							c3.352,1.314,7.305,2.666,11.579,3.74l-8.288-0.126C31.333,170.939,29.524,169.458,27.859,168.187z M34.481,176.209
							c1.709,1.629,3.48,3.431,5.293,5.432c4.543,5.009,7.732,11.529,9.952,17.807c-0.313,0.084-0.627,0.171-0.949,0.257
							c-1.984-4.013-4.622-8.475-8.237-13.153c-4.116-5.333-8.626-8.527-12.384-10.441L34.481,176.209z M23.952,176.235
							c2.648,0.964,6.233,2.716,9.903,5.838c0.652,0.787,6.133,7.662,6.133,15.699c0,1.201-0.111,2.49-0.304,3.819
							c-1.349,0.142-2.546,0.18-3.606,0.142c-0.684-4.133-1.746-8.107-3.163-11.71C31.232,185.742,27.66,180.833,23.952,176.235z
							 M35.002,229.704c-0.082,0.244-0.169,0.493-0.258,0.754c0.051-0.23,0.103-0.464,0.153-0.697
							C34.932,229.741,34.966,229.722,35.002,229.704z M32.415,220.265c-0.826-4.641-2.226-9.908-3.487-14.213
							c0.939-0.091,2.138-0.28,3.513-0.542C33.001,210.404,33.009,215.448,32.415,220.265z M28.601,201.32
							c0.974,0.731,2.14,1.282,3.495,1.647c0.042,0.262,0.081,0.526,0.118,0.787c-1.547,0.299-2.856,0.5-3.803,0.566
							c-0.572-1.9-1.091-3.53-1.48-4.725C27.333,200.178,27.87,200.772,28.601,201.32z M22.145,205.069
							c0.627,0.225,1.284,0.428,1.96,0.594c0.097,0.292,0.199,0.593,0.3,0.89c0.464,2.371,0.785,4.777,0.761,6.84
							C24.112,210.909,23.012,207.747,22.145,205.069z M23.814,197.201l0.416-0.231c0.134,0.665,0.261,1.347,0.379,2.062
							l0.258-0.042c0.351,1.059,0.964,2.947,1.68,5.3c-0.279-0.025-0.555-0.064-0.831-0.107
							C25.093,201.438,24.356,198.92,23.814,197.201z M26.104,206.022c0.324,0.035,0.653,0.067,0.984,0.08
							c1.097,3.722,2.324,8.23,3.181,12.397c-1.354-4.086-2.863-8.58-4.149-12.394C26.115,206.079,26.11,206.05,26.104,206.022z
							 M29.758,225.957c-0.847-2.942-1.975-6.852-3.16-9.492c0.176-0.74,0.275-1.566,0.312-2.45
							c1.641,4.904,3.278,9.841,4.322,13.112c-0.317,0.203-0.634,0.418-0.948,0.638C30.113,227.188,29.932,226.557,29.758,225.957z
							 M29.979,248.618c0.15-0.51,0.362-1.23,0.614-2.111c0.675-1.498,1.468-3.48,2.277-5.614l2.39,6.526L29.979,248.618z
							 M37.002,247.023l-3.18-8.68c0.507-1.379,1.002-2.766,1.466-4.074c3.062,5.202,6.812,8.63,10.104,10.85L37.002,247.023z
							 M36.068,232.042c0.453-1.304,0.845-2.454,1.148-3.34c2.444-0.943,4.889-1.349,7.146-1.38l3.416,17.194
							C43.862,242.189,39.42,238.343,36.068,232.042z M49.515,244.185l-3.339-16.8c1.444,0.112,2.777,0.374,3.95,0.748
							c2.866,0.908,6.148,3.428,9.182,6.054c1.245,2.58,2.692,4.942,4.386,6.782L49.515,244.185z M65.729,240.502
							c-0.755-0.71-1.466-1.547-2.136-2.482c0.787,0.709,1.545,1.381,2.261,1.98l0.094,0.449L65.729,240.502z M65.479,221.261
							l19.153-3.485l1.804,9.065l-18.993,3.645L65.479,221.261z M70.687,243.409l0.51-0.093c2.156,0.92,4.701,1.648,7.543,2.076
							C76.462,245.292,73.771,244.746,70.687,243.409z M74.726,240.27c-2.177-0.715-3.979-1.646-5.305-2.685
							c-0.18-0.141-0.369-0.294-0.561-0.452l-1.048-4.916l18.971-3.638l1.823,9.146L74.726,240.27z M93.189,240.665
							c-4.452,1.027-8.619,1.228-12.269,0.867l29.187-5.351l0.198,1.011C102.306,238.748,95.983,240.019,93.189,240.665z
							 M109.238,213.28l19.157-3.689l1.222,6.305l-19.159,3.624L109.238,213.28z M110.797,221.253l19.156-3.622l2.34,12.086
							l-19.157,3.512L110.797,221.253z M113.587,235.542l19.153-3.511l0.161,0.831c-6.646,1.259-13.229,2.517-19.123,3.656
							L113.587,235.542z M114.571,240.575c5.884-1.135,12.468-2.393,19.118-3.653l0.187,0.966l-19.09,3.779L114.571,240.575z
							 M115.772,246.724l-0.198-1.005l19.083-3.78l0.189,0.975L115.772,246.724z M135.219,232.424l-0.155-0.803l20.3-3.509
							l0.097,0.499C149.223,229.783,142.229,231.1,135.219,232.424z M136.188,237.428l-0.182-0.945
							c7.015-1.329,14.017-2.646,20.26-3.815l0.15,0.754L136.188,237.428z M137.161,242.451l-0.188-0.971l20.245-4.012l0.187,0.941
							L137.161,242.451z M157.783,228.18l-0.096-0.482l19.783-3.664l0.091,0.456C175.674,224.843,167.918,226.281,157.783,228.18z
							 M158.586,232.23c10.332-1.934,18.171-3.393,19.793-3.691l0.121,0.614l-9.465,1.769l-10.304,2.038L158.586,232.23z
							 M159.719,237.946l-0.187-0.936l10.282-2.036l9.502-1.772l0.16,0.802L159.719,237.946z M179.296,224.154l-0.086-0.438
							l20.538-3.805l0.035,0.204L179.296,224.154z M180.114,228.201l20.398-4.025l0.149,0.837l-20.422,3.812L180.114,228.201z
							 M181.214,233.655l-0.155-0.776l20.334-3.8l0.096,0.53L181.214,233.655z M201.192,217.137l-1.623-7.643l6.413-1.321
							l0.11-0.024l0.095-0.047c0.411-0.2,1.647-0.624,2.432-0.219c0.436,0.224,0.723,0.724,0.858,1.487
							c0.402,2.33,0.884,4.166,1.209,5.28L201.192,217.137z M202.043,219.35l10.1-2.648l26.646-4.298l-14.171,3.181l-14.543,2.494
							l-7.978,1.575L202.043,219.35z"/>
					</g>
				</g>
			</g>
		</g>
	</g>
	<g>
		<ellipse opacity="0.1" enable-background="new    " cx="115.2" cy="156.629" rx="17.867" ry="6.056"/>
		<g>
			<path fill="#BC1348" d="M135.73,112.613c0-11.243-9.112-20.207-20.35-20.207s-20.349,8.867-20.349,20.108
				c0,5.285,2.031,10.085,5.333,13.454h-0.032c0,0,13.958,14.455,13.958,30.927l-0.017,0.232h2.383
				c0-16,13.818-31.159,13.818-31.159h-0.03C133.72,122.597,135.73,117.871,135.73,112.613z M115.382,116.899
				c-2.675,0-4.846-2.169-4.846-4.843c0-2.677,2.171-4.844,4.846-4.844c2.675,0,4.843,2.167,4.843,4.844
				C120.226,114.73,118.058,116.899,115.382,116.899z"/>
			<path fill="none" d="M102.096,123.594c-0.01,0-0.014,0.001-0.014,0.001h0.017C102.096,123.595,102.096,123.594,102.096,123.594"
				/>
			<path fill="#EC1B52" d="M132.341,112.915c0-9.367-7.593-16.967-16.959-16.967s-16.959,7.677-16.959,17.042
				c0,3.977,1.379,7.706,3.672,10.595c0.021,0,0.064,0.015,0.129,0.091c0.058,0.067,0.117-0.158,0.176-0.09
				c2.014,2.421,12.982,15.857,12.982,21.751h0.309c0-5.894,11-19.725,12.75-21.874c0.019-0.024,0.038,0.089,0.058,0.066
				c0.115-0.144,0.184-0.087,0.184-0.087h-0.018C130.96,120.073,132.341,116.889,132.341,112.915z M115.382,116.899
				c-2.675,0-4.846-2.169-4.846-4.843c0-2.677,2.171-4.844,4.846-4.844c2.675,0,4.843,2.167,4.843,4.844
				C120.226,114.73,118.058,116.899,115.382,116.899z"/>
			<path fill="#BC1348" d="M115.201,104.302c-4.282,0-7.753,3.468-7.753,7.754c0,4.279,3.469,7.753,7.753,7.753
				c4.28,0,7.752-3.471,7.752-7.753C122.954,107.77,119.481,104.302,115.201,104.302z M115.201,116.899
				c-2.677,0-4.845-2.169-4.845-4.843c0-2.677,2.168-4.844,4.845-4.844c2.675,0,4.843,2.167,4.843,4.844
				C120.044,114.73,117.876,116.899,115.201,116.899z"/>
		</g>
	</g>
	<path fill="#999999" d="M259.578,187.165c0,1.517-1.231,2.747-2.747,2.747h-49.438c-1.517,0-2.747-1.23-2.747-2.747v-10.986
		c0-1.517,1.229-2.747,2.747-2.747h49.438c1.516,0,2.747,1.229,2.747,2.747V187.165z"/>
	<path fill="#999999" d="M322.749,187.165c0,1.517-1.23,2.747-2.746,2.747h-49.438c-1.518,0-2.747-1.23-2.747-2.747v-10.986
		c0-1.517,1.229-2.747,2.747-2.747h49.438c1.516,0,2.746,1.229,2.746,2.747V187.165z"/>
</g>
<rect x="352.785" y="102.021" fill="#E6E6E6" width="98.877" height="98.877"/>
<rect x="352.785" y="228.364" fill="#E6E6E6" width="98.877" height="98.878"/>
<rect x="201.4" y="228.364" fill="#999999" width="129.412" height="98.878"/>
<rect x="50.015" y="228.364" fill="#E6E6E6" width="131.285" height="98.878"/>
<g>
	<g id="XMLID_1_">
		<g id="XMLID_2_">
			<rect x="74.912" y="53.736" fill="#FFFFFF" width="170.553" height="294.367"/>
			<path fill="#FFFFFF" d="M227.943,2.329c19.964,0,36.213,16.25,36.213,36.214v322.404c0,19.964-16.249,36.214-36.213,36.214
				H92.434c-19.964,0-36.203-16.25-36.203-36.214V38.542c0-19.964,16.239-36.214,36.203-36.214H227.943z M157.265,32.705h24.539
				c2.897,0,5.258-2.618,5.258-5.837c0-3.229-2.36-5.847-5.258-5.847h-24.539c-2.899,0-5.248,2.618-5.248,5.847
				C152.017,30.087,154.366,32.705,157.265,32.705z M160.193,387.617c7.4,0,13.435-6.023,13.435-13.434
				c0-7.399-6.034-13.434-13.435-13.434c-7.411,0-13.434,6.034-13.434,13.434C146.759,381.593,152.783,387.617,160.193,387.617z
				 M138.583,32.509c3.22,0,5.838-2.619,5.838-5.848c0-3.219-2.618-5.837-5.838-5.837c-3.229,0-5.847,2.618-5.847,5.837
				C132.735,29.89,135.354,32.509,138.583,32.509z M247.793,350.431V51.397H72.583v299.034H247.793z"/>
			<path fill="#CCCCCC" d="M152.017,26.868c0-3.229,2.349-5.847,5.248-5.847h24.539c2.897,0,5.258,2.618,5.258,5.847
				c0,3.219-2.36,5.837-5.258,5.837h-24.539C154.366,32.705,152.017,30.087,152.017,26.868z M157.265,23.36
				c-1.605,0-2.919,1.572-2.919,3.508c0,1.926,1.313,3.498,2.919,3.498h24.539c1.604,0,2.918-1.572,2.918-3.498
				c0-1.936-1.314-3.508-2.918-3.508H157.265z"/>
			<path fill="#CCCCCC" d="M146.759,374.183c0-7.399,6.023-13.434,13.434-13.434c7.4,0,13.435,6.034,13.435,13.434
				c0,7.41-6.034,13.434-13.435,13.434C152.783,387.617,146.759,381.593,146.759,374.183z M160.193,361.919
				c-6.769,0-12.264,5.505-12.264,12.264c0,6.77,5.495,12.265,12.264,12.265c6.758,0,12.264-5.495,12.264-12.265
				C172.458,367.425,166.951,361.919,160.193,361.919z"/>
			<path fill="#CCCCCC" d="M142.082,26.661c0-1.925-1.573-3.499-3.499-3.499c-1.935,0-3.507,1.573-3.507,3.499
				c0,1.935,1.573,3.508,3.507,3.508C140.509,30.169,142.082,28.596,142.082,26.661z M144.42,26.661
				c0,3.229-2.618,5.848-5.838,5.848c-3.229,0-5.847-2.619-5.847-5.848c0-3.219,2.619-5.837,5.847-5.837
				C141.803,20.824,144.42,23.442,144.42,26.661z"/>
			<path fill="#CCCCCC" d="M72.583,51.397h175.21v299.034H72.583V51.397z M74.912,348.103h170.553V53.736H74.912V348.103z"/>
			<path fill="#CCCCCC" d="M92.434,399.5c-21.248,0-38.542-17.295-38.542-38.553V38.542C53.891,17.294,71.186,0,92.434,0h135.509
				c21.258,0,38.542,17.294,38.542,38.542v322.404c0,21.258-17.284,38.553-38.542,38.553H92.434L92.434,399.5z M56.23,360.947
				c0,19.964,16.239,36.214,36.203,36.214h135.509c19.964,0,36.213-16.25,36.213-36.214V38.542
				c0-19.964-16.249-36.214-36.213-36.214H92.434c-19.964,0-36.203,16.25-36.203,36.214V360.947z"/>
		</g>
	</g>
	<g>
		<path fill="#666666" d="M99.476,80.838h5.317v6.949c-0.864,0.283-1.673,0.481-2.438,0.594c-0.76,0.112-1.536,0.167-2.331,0.167
			c-2.024,0-3.57-0.593-4.637-1.784c-1.068-1.189-1.599-2.898-1.599-5.121c0-2.165,0.621-3.852,1.856-5.06
			c1.238-1.209,2.956-1.816,5.151-1.816c1.375,0,2.702,0.277,3.979,0.824l-0.946,2.274c-0.979-0.487-1.995-0.733-3.052-0.733
			c-1.229,0-2.212,0.412-2.954,1.237c-0.741,0.824-1.11,1.934-1.11,3.329c0,1.455,0.295,2.567,0.893,3.334
			c0.596,0.767,1.464,1.148,2.6,1.148c0.592,0,1.196-0.061,1.806-0.182v-2.796h-2.541L99.476,80.838L99.476,80.838z"/>
		<path fill="#666666" d="M112.405,88.552c-1.65,0-2.94-0.456-3.869-1.366c-0.931-0.911-1.396-2.201-1.396-3.872
			c0-1.718,0.426-3.042,1.286-3.982c0.86-0.94,2.049-1.408,3.563-1.408c1.449,0,2.576,0.414,3.38,1.238
			c0.81,0.824,1.211,1.965,1.211,3.422v1.355h-6.611c0.031,0.796,0.266,1.415,0.704,1.861c0.44,0.445,1.059,0.67,1.854,0.67
			c0.617,0,1.201-0.064,1.751-0.192c0.548-0.129,1.125-0.334,1.724-0.616v2.166c-0.489,0.243-1.012,0.426-1.568,0.548
			C113.881,88.495,113.205,88.552,112.405,88.552z M112.011,79.915c-0.593,0-1.057,0.189-1.394,0.563
			c-0.338,0.376-0.531,0.908-0.578,1.598h3.924c-0.013-0.69-0.192-1.222-0.541-1.598C113.073,80.104,112.604,79.915,112.011,79.915z
			"/>
		<path fill="#666666" d="M128.324,88.368h-2.797v-5.986c0-0.741-0.131-1.293-0.394-1.663c-0.263-0.37-0.681-0.553-1.256-0.553
			c-0.782,0-1.348,0.262-1.696,0.785c-0.348,0.523-0.522,1.388-0.522,2.596v4.823h-2.797V78.118h2.137l0.376,1.312h0.156
			c0.311-0.493,0.743-0.868,1.287-1.122c0.545-0.254,1.17-0.382,1.865-0.382c1.193,0,2.097,0.323,2.713,0.968
			c0.615,0.642,0.928,1.574,0.928,2.788L128.324,88.368L128.324,88.368z"/>
		<path fill="#666666" d="M135.841,88.552c-1.65,0-2.94-0.456-3.869-1.366c-0.931-0.911-1.396-2.201-1.396-3.872
			c0-1.718,0.428-3.042,1.287-3.982c0.858-0.94,2.047-1.408,3.561-1.408c1.449,0,2.575,0.414,3.383,1.238
			c0.807,0.824,1.209,1.965,1.209,3.422v1.355h-6.612c0.033,0.796,0.266,1.415,0.705,1.861c0.44,0.445,1.059,0.67,1.854,0.67
			c0.618,0,1.202-0.064,1.751-0.192c0.548-0.129,1.125-0.334,1.725-0.616v2.166c-0.489,0.243-1.012,0.426-1.568,0.548
			C137.318,88.495,136.644,88.552,135.841,88.552z M135.447,79.915c-0.593,0-1.057,0.189-1.396,0.563
			c-0.336,0.376-0.529,0.908-0.576,1.598h3.925c-0.012-0.69-0.192-1.222-0.543-1.598C136.509,80.104,136.041,79.915,135.447,79.915z
			"/>
		<path fill="#666666" d="M148.021,77.923c0.379,0,0.693,0.029,0.944,0.083l-0.212,2.625c-0.228-0.061-0.5-0.093-0.824-0.093
			c-0.89,0-1.588,0.228-2.085,0.687c-0.498,0.458-0.75,1.101-0.75,1.924v5.218h-2.796V78.114h2.12l0.414,1.725h0.138
			c0.318-0.575,0.747-1.036,1.287-1.389C146.796,78.097,147.383,77.923,148.021,77.923z"/>
		<path fill="#666666" d="M157.337,88.368l-0.541-1.393h-0.074c-0.472,0.593-0.955,1.005-1.456,1.233
			c-0.497,0.229-1.145,0.344-1.947,0.344c-0.984,0-1.761-0.283-2.325-0.843c-0.562-0.561-0.847-1.364-0.847-2.403
			c0-1.086,0.379-1.888,1.14-2.404c0.761-0.516,1.91-0.806,3.444-0.86l1.779-0.055v-0.448c0-1.04-0.532-1.559-1.599-1.559
			c-0.816,0-1.782,0.246-2.888,0.744l-0.928-1.889c1.18-0.619,2.49-0.928,3.927-0.928c1.375,0,2.43,0.298,3.163,0.898
			c0.734,0.6,1.101,1.511,1.101,2.733v6.829H157.337L157.337,88.368z M156.51,83.62l-1.079,0.035
			c-0.815,0.025-1.419,0.17-1.816,0.438c-0.397,0.271-0.597,0.68-0.597,1.229c0,0.789,0.453,1.183,1.358,1.183
			c0.648,0,1.163-0.185,1.551-0.557c0.388-0.372,0.583-0.87,0.583-1.486V83.62L156.51,83.62z"/>
		<path fill="#666666" d="M164.967,88.368h-2.797V74.102h2.797V88.368z"/>
		<path fill="#666666" d="M180.913,84.646c0,1.208-0.437,2.164-1.308,2.861c-0.873,0.695-2.081,1.045-3.634,1.045
			c-1.431,0-2.698-0.269-3.797-0.809v-2.641c0.904,0.403,1.668,0.686,2.296,0.853c0.63,0.168,1.201,0.247,1.72,0.247
			c0.625,0,1.104-0.119,1.437-0.357c0.334-0.239,0.499-0.594,0.499-1.065c0-0.263-0.073-0.494-0.221-0.699
			c-0.147-0.207-0.363-0.405-0.647-0.593c-0.286-0.19-0.864-0.491-1.736-0.908c-0.819-0.385-1.433-0.754-1.843-1.109
			c-0.412-0.356-0.739-0.768-0.981-1.238c-0.245-0.472-0.367-1.02-0.367-1.652c0-1.186,0.404-2.12,1.207-2.797
			c0.806-0.677,1.915-1.017,3.333-1.017c0.695,0,1.362,0.084,1.994,0.248c0.631,0.164,1.293,0.397,1.986,0.695l-0.917,2.21
			c-0.714-0.295-1.305-0.497-1.774-0.616c-0.467-0.12-0.929-0.173-1.382-0.173c-0.539,0-0.948,0.125-1.238,0.374
			c-0.29,0.251-0.43,0.578-0.43,0.981c0,0.25,0.057,0.472,0.172,0.659c0.117,0.185,0.302,0.365,0.556,0.542
			c0.253,0.176,0.853,0.487,1.8,0.939c1.253,0.599,2.112,1.203,2.577,1.802C180.677,83.033,180.913,83.77,180.913,84.646z"/>
		<path fill="#666666" d="M187.442,86.324c0.488,0,1.075-0.107,1.761-0.321v2.082c-0.698,0.31-1.554,0.467-2.57,0.467
			c-1.118,0-1.933-0.283-2.444-0.847c-0.512-0.563-0.763-1.415-0.763-2.545v-4.943h-1.339v-1.183l1.54-0.937l0.807-2.164h1.79v2.184
			h2.87v2.1h-2.87v4.943c0,0.397,0.111,0.689,0.336,0.878C186.781,86.23,187.075,86.324,187.442,86.324z"/>
		<path fill="#666666" d="M200.589,83.224c0,1.669-0.438,2.974-1.32,3.917c-0.883,0.943-2.107,1.411-3.679,1.411
			c-0.983,0-1.855-0.215-2.604-0.645c-0.75-0.429-1.333-1.052-1.731-1.86c-0.404-0.809-0.606-1.747-0.606-2.824
			c0-1.676,0.436-2.978,1.311-3.907c0.876-0.931,2.104-1.395,3.686-1.395c0.985,0,1.853,0.215,2.602,0.642
			c0.751,0.427,1.332,1.043,1.733,1.843C200.386,81.211,200.589,82.148,200.589,83.224z M193.502,83.224
			c0,1.015,0.164,1.784,0.497,2.303c0.334,0.52,0.879,0.779,1.629,0.779c0.748,0,1.28-0.256,1.607-0.773
			c0.327-0.515,0.488-1.285,0.488-2.31c0-1.013-0.161-1.776-0.492-2.283c-0.331-0.506-0.875-0.759-1.623-0.759
			s-1.283,0.253-1.612,0.756C193.667,81.442,193.502,82.201,193.502,83.224z"/>
		<path fill="#666666" d="M208.624,77.923c0.378,0,0.693,0.029,0.944,0.083l-0.21,2.625c-0.228-0.061-0.502-0.093-0.826-0.093
			c-0.892,0-1.589,0.228-2.084,0.687c-0.498,0.458-0.749,1.101-0.749,1.924v5.218h-2.796V78.114h2.118l0.417,1.725h0.137
			c0.318-0.575,0.747-1.036,1.287-1.389C207.398,78.097,207.988,77.923,208.624,77.923z"/>
		<path fill="#666666" d="M216.069,88.552c-1.651,0-2.94-0.456-3.871-1.366c-0.929-0.911-1.395-2.201-1.395-3.872
			c0-1.718,0.427-3.042,1.286-3.982c0.859-0.94,2.05-1.408,3.561-1.408c1.453,0,2.576,0.414,3.383,1.238
			c0.81,0.824,1.211,1.965,1.211,3.422v1.355h-6.613c0.033,0.796,0.267,1.415,0.706,1.861c0.438,0.445,1.058,0.67,1.854,0.67
			c0.618,0,1.202-0.064,1.751-0.192c0.548-0.129,1.126-0.334,1.725-0.616v2.166c-0.49,0.243-1.012,0.426-1.568,0.548
			C217.544,88.495,216.871,88.552,216.069,88.552z M215.676,79.915c-0.593,0-1.06,0.189-1.396,0.563
			c-0.336,0.376-0.528,0.908-0.578,1.598h3.926c-0.013-0.69-0.192-1.222-0.543-1.598C216.737,80.104,216.269,79.915,215.676,79.915z
			"/>
	</g>
	<rect x="94.264" y="121.355" fill="#E6E6E6" width="90.769" height="9.39"/>
	<rect x="94.264" y="105.706" fill="#E6E6E6" width="103.289" height="9.39"/>
	<g>
		<g>
			<g>
				<defs>
					<rect id="SVGID_3_" x="91.97" y="185.289" width="136.447" height="102.335"/>
				</defs>
				<clipPath id="SVGID_4_">
					<use xlink:href="#SVGID_3_"  overflow="visible"/>
				</clipPath>
				<g clip-path="url(#SVGID_4_)">
					<rect x="59.581" y="123.797" fill="#EDEFF0" width="231.939" height="212.101"/>
					<g>
						<path fill="#FFFFFF" d="M99.45,286.014c0.206-0.034,0.395-0.068,0.577-0.095l-0.013-0.066
							C99.837,285.906,99.646,285.958,99.45,286.014z"/>
						<path fill="#FFFFFF" d="M77.003,317.438c-0.036,0.021-0.073,0.038-0.108,0.059c-0.053,0.241-0.105,0.482-0.159,0.722
							C76.828,317.948,76.918,317.687,77.003,317.438z"/>
						<path fill="#FFFFFF" d="M92.876,289.857c0.728,1.661,1.346,3.221,1.884,4.659c-0.392-1.567-0.844-3.211-1.361-4.892
							C93.223,289.702,93.049,289.781,92.876,289.857z"/>
						<path fill="#FFFFFF" d="M92.125,288.192c0.237-0.107,0.478-0.214,0.718-0.317c-0.002-0.004-0.004-0.011-0.005-0.015
							c-0.254,0.07-0.51,0.141-0.769,0.21C92.087,288.115,92.106,288.155,92.125,288.192z"/>
						<polygon fill="#FFFFFF" points="54.877,191.225 79.813,186.225 79.452,184.43 72.708,185.782 72.016,181.379 79.253,180.038 
							78.919,178.235 64.65,180.879 64.985,182.681 70.215,181.71 70.913,186.143 54.516,189.43 						"/>
						<path fill="#DDDDDD" d="M266.139,313.687l0.272-0.155c0.75-0.225,7.873-2.018,44.488-2.018v-4.272
							c-35.738,0-44.114,1.721-45.836,2.241l-14.205,2.652l-0.16-0.892l8.25-1.629l15.079-2.588l22.538-5.06l-0.936-4.169
							l-1.212,0.271v-8.83l-2.88-15.315l4.734-0.913l-0.348-1.799l-4.723,0.909l-3.899-20.752l7.911-1.56l-0.472-2.399l-7.895,1.556
							l-4.036-21.477l12.399-2.4l-0.463-2.396l-12.385,2.398l-1.744-9.274l15.643-2.896l-0.331-1.803l-15.649,2.897l-1.76-9.363
							l16.852-3.408l6.341-13.341l-12.174,2.138c-0.05,0.011-5.184,0.85-8.914,0.019c-2.171-0.48-3.539-0.513-4.544-0.358
							l-1.509-7.345l17.165-3.039c2.222,1.696,3.699,2.819,3.964,3.021l2.218-2.915c-0.239-0.182-17.922-13.627-28.87-22.296
							c1.288-0.625,3.396-1.139,5.35-1.333l21.645,1.382l0.117-1.83l-21.792-1.39l-0.075,0.009c-0.958,0.089-4.65,0.527-6.778,1.944
							c-3.111-2.478-5.491-4.437-6.469-5.365c-2.447-2.338-3.524-4.964-3.99-6.598l7.281-5.418l34.886-16.939l-3.2-6.589
							l-22.54,10.944l-1.308-6.606l-1.798,0.355l1.398,7.078l-8.158,3.963l-2.129-9.587l-1.789,0.396l0.469,2.119l-22.097,4.543
							l-1.402-7.04l-1.796,0.359l2.857,14.347l-14.18,2.506l-4.184-17.247l-1.779,0.434l4.157,17.134l-5.306,0.936l-3.982-18.479
							l-1.792,0.385l1.302,6.032l-9.564,1.871l-1.334-7.442l-1.804,0.324l1.341,7.473l-3.114,0.609l-1.923-9.244l-1.792,0.373
							l1.917,9.224l-4.247,0.832l-2.184-10.429l-1.792,0.376l2.179,10.405l-9.748,1.909l-2.641-12.69l-1.793,0.375l2.638,12.667
							l-9.68,1.893l-3.167-15.967h-25.775l4.037,20.847l-21.116,4.134l-4.55-23.932l-1.799,0.34l4.551,23.944l-7.375,1.447
							l-2.33-5.624l-1.42-4.885l-9.41,0.973l-3.754-16.82l-7.147,1.596l5.074,22.73l1.054,5.54l-17.273,3.382l-6.15-32.621
							l-1.801,0.337l2.474,13.125l-18.043,3.891l0.385,1.792l17.997-3.881l2.091,11.091l-20.433,3.431l0.303,1.807l20.469-3.437
							l1.896,10.056l-22.679,4.089l0.325,1.802l22.692-4.092l1.917,10.157l-24.97,5.566l0.399,1.79l24.91-5.552l3.481,18.467
							c-14.287,2.5-25.619-0.125-25.734-0.151l-0.426,1.782c0.326,0.08,5.58,1.302,13.466,1.302c3.815,0,8.25-0.294,13.035-1.135
							l2.555,13.549l-1.125,0.22l0.048,0.249l-24.013,8.525h-6.397v3.661h7.028l24.075-8.549l5.276,27.755l-33.949,6.04l0.006,0.029
							c-0.733-0.426-1.146-0.681-1.178-0.699l-1.296,2.067c0.117,0.076,1.311,0.815,3.345,1.935l-0.152,0.36
							c0.082,0.033,6.116,2.654,14.484,9.78l-9.987-0.149c-0.54-0.645-1.075-1.277-1.593-1.894
							c-2.763-3.273-5.149-6.104-6.208-7.868l-3.662,2.199c1.118,1.864,3.269,4.465,5.806,7.477l-1.963-0.03l-0.056,3.661
							l5.139,0.079c4.43,5.312,9.171,11.319,11.06,16.116c1.194,3.037,2.119,6.346,2.774,9.799c-0.884-0.318-1.579-0.7-2.121-1.099
							c-0.679-0.501-1.153-1.047-1.484-1.563L70.465,285c-2.956-17.934-10.862-22.636-11.197-22.828l-1.059,1.856l-1.086,1.842
							c0.058,0.031,4.976,3.159,7.951,14.313l-6.969-12.577l-3.737,2.071l8.583,15.486l0.233-0.128
							c0.347,1.021,1.003,2.957,1.831,5.411c-0.709-0.228-1.39-0.494-2.03-0.78c-0.39-1.274-0.685-2.308-0.838-2.904
							c-0.719-2.796-3.083-6.271-3.183-6.416l-1.511,1.033c0.022,0.032,2.279,3.352,2.921,5.837c0.088,0.345,0.209,0.787,0.36,1.308
							c-1.701-0.971-2.786-1.844-2.813-1.864l-1.156,1.419c0.141,0.113,1.989,1.604,4.71,2.917
							c1.238,3.976,3.164,9.563,4.769,12.666c1.3,2.51,2.614,7.071,3.573,10.397c0.31,1.072,0.55,1.896,0.748,2.543
							c-0.719,0.586-1.428,1.219-2.118,1.913c-7.905,7.904-9.254,18.056-9.308,18.487l4.237,0.535
							c0.014-0.091,1.253-9.167,8.09-16.003c0.04-0.041,0.085-0.083,0.125-0.122c-1.94,7.948-4.106,15.125-4.138,15.234l2.543,0.771
							l-4.005,0.908l1.215,5.361l24.102-5.476l0.181,0.911l1.798-0.357l-0.192-0.958l2.491-0.563
							c2.226,0.733,3.69,0.919,3.789,0.933l0.219-1.817c-0.007-0.001-0.029-0.003-0.068-0.009l10.65-2.417l1.021,4.784l3.581-0.762
							l-0.932-4.383c3.562,1.458,6.656,1.979,9.251,1.979c3.107,0,5.5-0.739,7.137-1.501c2.542-0.123,5.208-0.476,7.954-1.108
							c2.824-0.651,9.325-1.955,17.573-3.559l0.223,1.146l-36.545,7.239l0.83,4.191l36.534-7.237l0.204,1.046l-6.874,1.372
							l0.477,2.394l6.864-1.368l0.103,0.523l3.594-0.701l-0.105-0.542l19.741-3.938l1.274,6.592l2.398-0.465l-1.279-6.604
							l20.963-4.187l2.233,11.261l2.396-0.475l-2.234-11.264l20.459-4.087l3.178,15.77l1.796-0.362l-3.18-15.766l20.932-4.18
							l3.648,20.343l2.403-0.434l-3.656-20.388l5.336-1.067l36.511-0.758l-0.048-2.442l-36.623,0.762l-0.108,0.003l-5.5,1.098
							l-0.09-0.516l14.358-2.683L266.139,313.687z M291.977,289.472v6.935l-20.015,3.229l-3.82-21.205l20.997-4.046L291.977,289.472
							z M78.848,305.425c1.289-3.272,3.47-9.3,4.531-15.075c2.309-0.576,4.664-1.194,6.892-1.792
							c0.079,0.164,0.153,0.325,0.228,0.492c-1.143,0.683-2.167,1.498-2.947,2.477c-3.041,3.805-7.194,15.828-8.744,20.517
							c-0.292,0.099-0.586,0.206-0.881,0.316c0.146-0.814,0.28-1.61,0.398-2.385C78.554,308.481,78.726,306.958,78.848,305.425z
							 M78.548,291.506c0.929-0.21,1.89-0.438,2.869-0.676c-0.602,2.97-1.485,5.994-2.358,8.621
							C79.034,296.797,78.863,294.132,78.548,291.506z M81.829,274.612c3.278,4.342,5.736,8.496,7.625,12.265
							c-0.027,0.012-0.054,0.017-0.081,0.025c-2.093,0.554-3.963,0.944-5.64,1.198c0.165-1.279,0.26-2.528,0.26-3.709
							C83.995,280.769,83.034,277.407,81.829,274.612z M88.982,292.669c0.597-0.746,1.384-1.39,2.273-1.94
							c1.569,3.597,2.629,6.72,3.45,9.146c0.229,0.678,0.438,1.292,0.633,1.845c0.331,0.94,0.746,2.438,1.226,4.169
							c0.68,2.446,1.496,5.383,2.508,8.411c-1.709-1.116-3.434-2.026-5.124-2.562c-3.498-1.107-8.152-1.474-13-0.309
							C82.701,306.231,86.379,295.927,88.982,292.669z M106.094,195.917l-3.554,0.638l-1.145-6.529
							c1.123-0.216,2.282-0.441,3.479-0.671L106.094,195.917z M105.146,162.991l18.087-3.705l0.913,4.804
							c-6.788,1.26-12.507,2.309-14.727,2.689c-2.237,0.385-3.556-0.267-3.918-1.933L105.146,162.991z M106.425,197.721l0.953,5.125
							l-12.409,2.412l-1.132-5.274L106.425,197.721z M106.993,180.702c0.029-1.66-0.153-3.842-0.756-6.667
							c0.62,0.109,1.292,0.173,2.025,0.173c0.739,0,1.537-0.063,2.394-0.208c2.21-0.381,7.692-1.386,14.24-2.599l2.303,11.788
							c-1.187,0.228-2.364,0.454-3.529,0.68l-1.615-9.963l-1.807,0.292l1.623,10.019c-4.844,0.936-9.466,1.826-13.732,2.648
							L106.993,180.702z M127.548,184.982l1.23,6.302l-13.369,2.759l-0.554-2.874l-1.798,0.346l0.559,2.897l-3.93,0.811
							l-1.215-6.558C114.28,187.546,120.755,186.295,127.548,184.982z M260.506,191.817l-3.089-14.422l3.202-0.623l3.069,14.406
							L260.506,191.817z M266.898,192.401c0.661,2.117,1.282,5.215,0.626,6.406c-0.384,0.576-2.741,1.31-5.892,2.004l-0.824-7.188
							L266.898,192.401z M256.544,230.095l-9.734,1.886l-3.842-20.129l9.504-1.924L256.544,230.095z M254.269,209.567l9.839-1.987
							l1.742,9.116l-9.777,1.807L254.269,209.567z M141.152,300.907l-4.174-20.64l8.846-1.746l4.062,20.795L141.152,300.907z
							 M150.237,301.113l1.793,9.182l-8.646,1.659l-1.87-9.254L150.237,301.113z M103.238,283.191l-4.017-21.126l18.078-2.926
							l0.201-1.074l23.401-4.751l4.222,21.611L103.238,283.191z M125.635,291.372l-19.967,3.808l-1.415-6.64l-0.333-1.747
							l20.014-3.949L125.635,291.372z M100.371,287.722l0.287,1.52l3.261,15.309c-1.664-2.433-4.229-7.059-7.923-15.85
							C97.68,288.204,99.271,287.899,100.371,287.722z M99.45,286.014c0.197-0.056,0.387-0.108,0.564-0.161l0.013,0.066
							C99.845,285.946,99.655,285.98,99.45,286.014z M223.44,184.005l2.915,14.67l-9.747,1.958l-2.928-14.729L223.44,184.005z
							 M222.873,171.581l5.04-1.002l1.641,8.503l-5.023,0.977L222.873,171.581z M149.001,239.652l0.923,5.426l-6.637,1.374
							l-2.817-14.422l19.228-3.889l0.681-0.107l1.746,9.014L149.001,239.652z M150.801,250.249l-6.711,0.302l-0.449-2.301
							l6.591-1.362L150.801,250.249z M132.717,192.34l13.664-2.819l1.049,5.537l-13.663,2.656L132.717,192.34z M132.907,212.404
							l-4.611,0.813l-0.724-4.303l4.486-0.855L132.907,212.404z M148.112,198.651l1.093,5.77l-13.588,2.755l-1.149-5.871
							L148.112,198.651z M177.492,215.224l-0.875-4.688l3.926-0.791l0.95,4.786L177.492,215.224z M181.848,216.327l0.836,4.214
							l-4.036,0.877l-0.82-4.396L181.848,216.327z M165.274,219.192l0.978,4.208l-4.159,0.655l-0.809-4.177L165.274,219.192z
							 M160.938,218.076l-0.818-4.23l3.738-0.753l1.001,4.307L160.938,218.076z M165.653,212.737l9.167-1.84l0.867,4.639
							l-9.021,1.558L165.653,212.737z M176.024,217.333l0.818,4.391l-8.776,1.391l-0.983-4.235L176.024,217.333z M159.77,212.05
							l-0.475-2.458l20.499-3.627l0.392,1.981L159.77,212.05z M174.993,204.957l-2.303-11.083l4.53-0.881l2.218,11.179
							L174.993,204.957z M173.19,205.275l-14.243,2.519l-0.65-3.354l14.124-2.87L173.19,205.275z M157.949,202.645l-1.101-5.688
							l3.695-0.721l1.127,5.655L157.949,202.645z M156.891,210.019l0.487,2.512l-19.931,4.001l-0.58-2.971L156.891,210.019z
							 M151.943,209.037l-0.604-3.178l4.563-0.927l0.639,3.291L151.943,209.037z M150.999,204.055l-1.09-5.75l4.541-0.884
							l1.104,5.711L150.999,204.055z M149.228,194.707l-1.054-5.558l4.495-0.927l1.086,5.604L149.228,194.707z M149.546,206.222
							l0.595,3.134l-13.628,2.411l-0.544-2.79L149.546,206.222z M136.882,232.754l1.858,9.502l-19.55,4.163l-1.805-9.718
							L136.882,232.754z M119.323,248.264l19.765-4.209l1.342,6.863l-22.451,4.557L119.323,248.264z M139.77,228.432l-1.976-10.102
							l19.929-4l1.958,10.105l-0.633,0.097L139.77,228.432z M162.473,238.842l0.68,3.507l-11.433,2.362l-0.614-3.609
							L162.473,238.842z M163.5,244.144l0.74,3.829l-11.216,2.172l-0.382,0.019l-0.62-3.649L163.5,244.144z M162.792,227.656
							l4.293-0.682l2.144,9.209l4.38,3.999l-8.066,1.667L162.792,227.656z M174.79,241.81l0.608,4.003l-8.76,1.697l-0.747-3.865
							L174.79,241.81z M170.883,235.213l-1.984-8.528l10.065-1.591l4.434-0.964l3.845,19.393l-10.044,1.941l-0.791-5.206
							L170.883,235.213z M206.325,215.533l-9.191,1.862l-12.063,2.629l-0.814-4.112l21.381-3.69L206.325,215.533z M205.935,204.646
							l9.236-1.859l2.093,10.532l-9.144,1.852L205.935,204.646z M183.9,214.116l-0.963-4.852l21.202-4.257l1.125,5.417
							L183.9,214.116z M185.782,223.612l9.417-2.045l1.632,9.051l-9.304,1.802L185.782,223.612z M197.157,232.417l1.599,8.872
							l-9.118,1.766l-1.752-8.845L197.157,232.417z M198.628,230.267l-1.637-9.091l0.896-0.197l9.127-1.846l1.618,9.196
							L198.628,230.267z M208.949,230.133l1.563,8.881l-9.958,1.925l-1.6-8.87L208.949,230.133z M208.807,218.772l20.694-4.188
							l1.784,9.325l-10.565,2.12l2.121,10.598l-10.529,2.042L208.807,218.772z M231.63,225.708l1.698,8.886l-8.692,1.684
							l-1.761-8.813L231.63,225.708z M233.767,236.997l1.833,10.591l-20.991,4.146l-1.876-10.664L233.767,236.997z M235.913,249.394
							l1.857,10.714l-20.951,4.188l-1.894-10.757L235.913,249.394z M235.564,236.647l9.907-1.918l4.121,21.589l-4.392,0.865
							l-0.122,0.022l-5.552,2.327L235.564,236.647z M235.127,234.246l-3.831-20.028l9.878-2.002l3.839,20.112L235.127,234.246z
							 M230.594,210.624l-2.087-10.512l21.161-4.25l2.087,10.479L230.594,210.624z M228.8,210.987l-9.741,1.973l-2.095-10.527
							l9.745-1.957L228.8,210.987z M214.813,200.995l-9.252,1.86l-3.065-14.777l9.387-1.827L214.813,200.995z M203.766,203.213
							l-21.186,4.252l-2.963-14.942l21.08-4.1L203.766,203.213z M178.905,188.933l-1.166-5.876l21.149-4.168l1.103,5.942
							L178.905,188.933z M177.384,181.261l-1.132-5.697c8.2-1.586,15.54-3.008,21.254-4.116l1.047,5.641L177.384,181.261z
							 M176.508,189.402l-4.561,0.888l-1.205-5.796l4.603-0.952L176.508,189.402z M170.893,194.224l1.154,5.555l-8.585,1.746
							l-1.123-5.638L170.893,194.224z M161.623,192.3l-1.135-5.69l8.461-1.748l1.201,5.775L161.623,192.3z M160.129,184.812
							l-1.177-5.898c2.851-0.553,5.665-1.096,8.424-1.629l1.201,5.783L160.129,184.812z M159.825,192.646l-3.676,0.718l-1.091-5.635
							l3.635-0.75L159.825,192.646z M154.712,185.931l-1.155-5.974c1.204-0.233,2.402-0.465,3.598-0.696l1.182,5.922
							L154.712,185.931z M153.208,178.157l-1.294-6.673l3.548-0.708l1.334,6.688C155.604,177.695,154.407,177.924,153.208,178.157z
							 M152.32,186.423l-4.485,0.927l-1.151-6.068c1.494-0.289,2.985-0.575,4.474-0.862L152.32,186.423z M146.342,179.486
							l-1.257-6.638l4.435-0.885l1.289,6.662C149.324,178.911,147.833,179.197,146.342,179.486z M146.04,187.721l-13.673,2.819
							l-1.221-6.251c4.504-0.869,9.116-1.76,13.74-2.654L146.04,187.721z M131.707,206.265l-4.44,0.845l-0.717-4.258l4.325-0.842
							L131.707,206.265z M116.754,201.022l-0.998-5.181l13.375-2.758l1.04,5.333L116.754,201.022z M125.771,209.253l0.721,4.285
							l-7.088,1.255l-0.804-4.178L125.771,209.253z M118.253,208.82l-0.808-4.198l7.307-1.421l0.714,4.249L118.253,208.82z
							 M116.455,209.16l-4.038,0.766l-0.775-4.177l4.006-0.777L116.455,209.16z M116.802,210.96l0.798,4.153l-4.087,0.723
							l-0.762-4.107L116.802,210.96z M133.257,214.203l2.924,14.96l-19.462,3.938l-2.871-15.466L133.257,214.203z M144.563,252.972
							l8.662-0.385l0.089-0.01l11.391-2.205l4.036,20.839l-19.904,3.631L144.563,252.972z M167.102,249.907l20.614-3.993
							l4.282,21.587l-1.317-0.293l-19.538,3.567L167.102,249.907z M190.114,245.451l20.82-4.033l4.089,23.236l-18.861,3.772
							l-1.562-0.348L190.114,245.451z M196.136,270.92l19.34-3.867l3.814,18.919l-20.362,3.922l-3.808-19.198L196.136,270.92z
							 M217.271,266.695l20.959-4.191l4.044,19.04l-21.187,4.079L217.271,266.695z M239.994,261.984l5.802-2.429l16.056-3.165
							l4.153,20.586l-21.928,4.221L239.994,261.984z M251.389,255.966l-2.376-12.452l9.888-1.74l2.464,12.223L251.389,255.966z
							 M248.668,241.715l-1.399-7.334l9.758-1.891l1.508,7.49L248.668,241.715z M251.464,195.503l7.545-1.516l0.825,7.198
							c-2.199,0.436-4.642,0.835-7.01,1.153L251.464,195.503z M258.713,192.178l-7.61,1.527l-2.888-14.521l7.406-1.443
							L258.713,192.178z M249.312,194.066l-21.164,4.25l-2.912-14.661l21.181-4.12L249.312,194.066z M230.41,173.865l-0.702-3.642
							l3.476-0.69l0.733,3.705L230.41,173.865z M234.275,175.036l0.597,3.01l-3.523,0.686l-0.591-3.071L234.275,175.036z
							 M236.669,177.698l-1.689-8.524l9.019-1.791l1.705,8.558L236.669,177.698z M222.521,169.784l-3.328-17.014l21.144-3.791
							l3.306,16.609L222.521,169.784z M222.732,180.407l-4.941,0.963l-2.51-12.892l4.906-1.077L222.732,180.407z M215.996,181.719
							l-3.055,0.594l-2.718-12.725l3.271-0.718L215.996,181.719z M211.144,182.662l-9.355,1.821l-2.483-13.382
							c4.129-0.799,7.243-1.399,8.994-1.744L211.144,182.662z M198.97,169.302l-2.222-11.979l8.604-1.759l2.566,12.005
							C206.16,167.908,203.064,168.507,198.97,169.302z M197.173,169.65c-5.719,1.106-13.066,2.53-21.276,4.118l-2.322-11.703
							l21.378-4.374L197.173,169.65z M173.855,176.027l1.136,5.716l-4.621,0.953l-1.197-5.763
							C170.758,176.628,172.32,176.325,173.855,176.027z M168.801,175.139l-1.4-6.748l4.754-0.95l1.346,6.79
							C171.958,174.53,170.391,174.835,168.801,175.139z M167.027,166.602l-0.636-3.064l4.794-0.981l0.612,3.095L167.027,166.602z
							 M167.003,175.489c-2.753,0.53-5.563,1.074-8.409,1.627l-1.336-6.699l8.347-1.668L167.003,175.489z M151.566,169.684
							l-0.61-3.147c5.037-0.944,8.61-1.616,9.095-1.708l4.544-0.926l0.635,3.056L151.566,169.684z M158.67,157.639
							c-0.169,0.031-1.007,0.191-2.341,0.44l-3.581-17.036l6.711-1.312l3.629,17.007L158.67,157.639z M154.528,158.416
							c-1.392,0.263-3.073,0.578-4.963,0.931l-3.3-17.036l4.687-0.918L154.528,158.416z M149.171,170.162l-4.428,0.886l-0.612-3.231
							c1.538-0.289,3.021-0.565,4.424-0.829L149.171,170.162z M144.544,179.833c-2.458,0.476-4.909,0.949-7.347,1.42l-1.285-6.574
							l7.375-1.474L144.544,179.833z M135.563,172.883l-0.654-3.346c2.509-0.468,5.013-0.936,7.422-1.386l0.618,3.253
							L135.563,172.883z M135.401,181.599c-1.545,0.301-3.082,0.599-4.607,0.893l-1.277-6.536l4.602-0.918L135.401,181.599z
							 M129.166,174.159l-0.669-3.427c1.512-0.28,3.057-0.565,4.611-0.858l0.659,3.364L129.166,174.159z M113.963,196.214
							l0.993,5.16l-3.984,0.775l-0.951-5.124L113.963,196.214z M110.259,218.37l2.868,15.453l-18.562,3.758l-2.831-14.886
							L110.259,218.37z M113.795,237.429l1.907,10.273l-1.532,8.235l-14.398,2.328c-0.427,0-0.852-0.008-1.278-0.02l-3.244-17.065
							L113.795,237.429z M95.55,262.364l4.121,21.684c-1.333,0.382-3.301,0.938-5.614,1.577
							c-2.367-6.693-5.801-13.691-10.756-19.157c-1.417-1.566-2.805-3.008-4.162-4.354L95.55,262.364z M94.761,294.519
							c-0.537-1.441-1.157-2.998-1.884-4.658c0.172-0.08,0.347-0.158,0.523-0.234C93.917,291.308,94.369,292.952,94.761,294.519z
							 M92.843,287.878c-0.241,0.1-0.481,0.208-0.718,0.319c-0.02-0.041-0.037-0.083-0.056-0.121
							c0.259-0.073,0.515-0.144,0.769-0.209C92.839,287.868,92.84,287.874,92.843,287.878z M99.05,307.963
							c-0.077-0.855-0.584-5.982-2.177-12.703c2.666,5.796,5.542,11.104,7.845,13.037l2.714,12.746
							c-1.791-1.617-3.74-3.341-5.753-4.886C100.623,313.301,99.757,310.439,99.05,307.963z M106.048,296.97l19.944-3.804
							l2.019,10.13l-19.847,3.611L106.048,296.97z M125.731,282.485l9.447-1.863l4.169,20.612l-9.534,1.735L125.731,282.485z
							 M139.71,303.03l1.875,9.27l-9.549,1.832l-1.865-9.366L139.71,303.03z M152.381,312.092l1.886,9.655l-19.982,3.665
							l-1.89-9.487L152.381,312.092z M149.304,277.238l19.901-3.631l4.109,21.217l-19.828,3.818L149.304,277.238z M171.606,273.17
							l19.026-3.472l1.883,0.419l4.014,20.236l-20.817,4.008L171.606,273.17z M196.884,292.152l1.567,7.886l-20.744,4.631
							l-1.646-8.505L196.884,292.152z M198.805,301.833l2.294,11.564l-20.999,3.627l-2.044-10.56L198.805,301.833z M199.283,291.687
							l20.37-3.922l4.317,21.41l-20.466,3.789L199.283,291.687z M221.451,287.42l10.177-1.963l4.092,21.54l-9.95,1.846
							L221.451,287.42z M233.424,285.113l9.232-1.775l4.57,21.529l-9.708,1.8L233.424,285.113z M246.947,294.731l-2.493-11.738
							l21.891-4.217l3.811,21.15l-9.527,1.536c-0.323-1.09-0.827-2.981-1.244-5.379c-0.241-1.394-0.866-2.355-1.864-2.864
							c-1.602-0.816-3.513-0.071-4.03,0.161L246.947,294.731z M288.803,272.59l-21.003,4.043l-4.154-20.596l21.258-4.189
							L288.803,272.59z M280.415,227.958l4.04,21.487l-21.29,4.196l-4.34-21.501L280.415,227.958z M279.965,225.56l-21.622,4.19
							l-1.91-9.453l21.786-4.033L279.965,225.56z M279.83,193.639c4.414,0.981,10.072,0.059,10.329,0.018l5.205-0.915l-2.513,5.279
							l-14.465,2.931l-1.568-7.639C277.4,193.252,278.296,193.3,279.83,193.639z M276.124,205.145l1.753,9.322l-10.228,1.894
							l-1.747-9.147L276.124,205.145z M274.797,201.674l-21.246,4.301l-0.369-1.845c1.38-0.191,4.037-0.579,6.743-1.101
							c7.255-1.391,8.723-2.465,9.203-3.337c1.032-1.871,0.222-5.438-0.345-7.378l4.133,0.186L274.797,201.674z M289.759,177.816
							l-15.557,2.75l-1.443-7.038l8.76-2.034C284.552,173.828,287.41,176.02,289.759,177.816z M279.648,170.045l-7.229,1.681
							l-1.407-8.383C273.796,165.52,276.768,167.823,279.648,170.045z M269.337,175.073l3.197,15.576l-4.37-0.194l-0.059-0.167
							l-2.62,0.527l-3.07-14.396L269.337,175.073z M258.517,153.199c1.197,1.144,4.293,3.667,8.215,6.776l1.932,11.503
							l-21.166,4.116l-5.359-26.936l5.292-0.949l6.332-1.988C254.455,147.798,255.825,150.629,258.517,153.199z M251.985,138.596
							l-6.307,1.983l-4.971,0.891l-0.817-4.112l18.037-3.185L251.985,138.596z M260.566,125.458l1.357,6.109l-0.14,0.066
							l-22.253,3.93l-1.104-5.549L260.566,125.458z M238.088,137.677l0.82,4.116l-21.188,3.801l-0.896-4.162L238.088,137.677z
							 M217.394,153.101l2.443,12.503l-9.998,2.193l-2.694-12.598L217.394,153.101z M215.92,145.928l-10.186,2.085l-1.929-10.752
							l9.828-1.938L215.92,145.928z M212.35,129.369l0.896,4.16l-9.767,1.925l-0.751-4.2L212.35,129.369z M203.938,148.376
							l-8.61,1.762l-2.254-10.766l8.931-1.761L203.938,148.376z M200.93,131.605l0.753,4.203l-8.982,1.771l-0.878-4.192
							L200.93,131.605z M190.026,133.741l3.51,16.764l-9.75,1.996l-3.509-16.85L190.026,133.741z M178.479,136.004l3.513,16.864
							l-9.839,2.012l-3.369-16.979L178.479,136.004z M169.758,155.369l-4.878,0.999l-3.624-16.995l5.129-1.003L169.758,155.369z
							 M163.254,122.576l2.776,14l-9.122,1.788l-2.986-15.785L163.254,122.576L163.254,122.576z M152.06,122.576l3.051,16.138
							l-2.74,0.538l-3.503-16.673L152.06,122.576L152.06,122.576z M142.442,122.576h4.554l3.579,17.027l-4.659,0.912
							L142.442,122.576z M129.072,145.678l0.819,3.904l1.793-0.379l-0.815-3.879l13-2.545l3.294,17.018
							c-6.283,1.177-14.187,2.654-21.218,3.958l-3.2-16.84L129.072,145.678z M120.949,147.269l0.898,4.729l-7.167,1.458
							l-0.934-4.776L120.949,147.269z M122.19,153.797l0.7,3.691l-18.084,3.704l-0.708-3.707L122.19,153.797z M112.886,153.822
							l-9.13,1.862l-0.925-4.867l9.119-1.787L112.886,153.822z M109.848,143.521l1.55,3.752l-8.912,1.745l-0.846-4.441
							L109.848,143.521z M108.15,138.385l0.982,3.381l-7.857,1.01l-0.801-3.6L108.15,138.385z M78.364,155.608l17.277-3.385
							l1.989,10.44L80.36,166.2L78.364,155.608z M80.7,168l17.272-3.537l0.326,1.711c0.035,0.19,0.128,0.623,0.32,1.19
							c0.08,3.189,0.794,9.894,5.036,15.408l0.888,4.788c-8.922,1.719-15.902,3.058-19.451,3.734L80.7,168z M85.428,193.091
							c2.814-0.535,7.784-1.491,14.17-2.717l1.14,6.509l-14.114,2.54L85.428,193.091z M86.965,201.225l5.068-0.916l1.136,5.301
							l-5.188,1.009L86.965,201.225z M89.337,210.087l18.709-3.642l1.877,10.122l-18.531,4.327L89.337,210.087z M91.532,241.23
							l3.187,16.771c-13.869-1.362-27.424-7.647-34.232-11.245L91.532,241.23z M69.611,253.77c0.708,0.297,1.433,0.591,2.175,0.881
							c3.469,1.36,7.561,2.76,11.984,3.871l-8.578-0.13C73.207,256.618,71.333,255.085,69.611,253.77z M76.464,262.073
							c1.769,1.686,3.602,3.551,5.478,5.621c4.702,5.185,8.002,11.933,10.3,18.43c-0.324,0.088-0.649,0.178-0.982,0.267
							c-2.054-4.152-4.784-8.771-8.525-13.613c-4.26-5.52-8.928-8.824-12.817-10.806L76.464,262.073z M65.567,262.099
							c2.741,0.998,6.451,2.811,10.25,6.042c0.675,0.814,6.348,7.93,6.348,16.248c0,1.243-0.115,2.577-0.314,3.953
							c-1.396,0.146-2.635,0.186-3.732,0.146c-0.708-4.277-1.807-8.39-3.273-12.119C73.102,271.939,69.405,266.858,65.567,262.099z
							 M77.003,317.438c-0.084,0.252-0.175,0.51-0.267,0.78c0.053-0.239,0.106-0.48,0.159-0.722
							C76.93,317.476,76.966,317.457,77.003,317.438z M74.325,307.669c-0.854-4.804-2.304-10.255-3.609-14.711
							c0.973-0.095,2.213-0.289,3.636-0.561C74.932,297.462,74.941,302.683,74.325,307.669z M70.378,288.062
							c1.008,0.756,2.214,1.326,3.617,1.704c0.043,0.271,0.084,0.544,0.122,0.814c-1.602,0.31-2.957,0.518-3.936,0.587
							c-0.592-1.967-1.129-3.654-1.532-4.891C69.066,286.879,69.622,287.495,70.378,288.062z M63.697,291.941
							c0.649,0.232,1.329,0.443,2.028,0.615c0.101,0.303,0.206,0.614,0.311,0.922c0.481,2.453,0.812,4.944,0.788,7.078
							C65.732,297.985,64.594,294.712,63.697,291.941z M65.424,283.798l0.43-0.24c0.138,0.689,0.271,1.396,0.392,2.135l0.267-0.043
							c0.363,1.097,0.999,3.05,1.739,5.484c-0.289-0.025-0.574-0.066-0.86-0.11C66.748,288.183,65.985,285.578,65.424,283.798z
							 M67.794,292.928c0.335,0.036,0.676,0.069,1.019,0.082c1.135,3.854,2.405,8.519,3.292,12.831
							c-1.401-4.229-2.963-8.88-4.294-12.826C67.806,292.987,67.8,292.958,67.794,292.928z M71.576,313.559
							c-0.876-3.045-2.044-7.091-3.27-9.824c0.182-0.766,0.284-1.621,0.323-2.535c1.698,5.075,3.393,10.185,4.473,13.57
							c-0.328,0.211-0.656,0.433-0.98,0.66C71.943,314.833,71.755,314.181,71.576,313.559z M71.805,337.013
							c0.155-0.527,0.375-1.273,0.636-2.186c0.699-1.55,1.519-3.602,2.356-5.811l2.473,6.755L71.805,337.013z M79.073,335.363
							l-3.292-8.983c0.525-1.427,1.038-2.862,1.517-4.217c3.168,5.384,7.05,8.932,10.457,11.229L79.073,335.363z M78.106,319.858
							c0.469-1.349,0.875-2.54,1.188-3.456c2.529-0.977,5.06-1.396,7.396-1.429l3.535,17.796
							C86.173,330.36,81.576,326.379,78.106,319.858z M92.024,332.425l-3.456-17.387c1.494,0.116,2.874,0.387,4.088,0.773
							c2.966,0.94,6.363,3.548,9.502,6.266c1.288,2.671,2.786,5.115,4.54,7.02L92.024,332.425z M108.805,328.614
							c-0.782-0.734-1.517-1.601-2.21-2.569c0.814,0.734,1.599,1.43,2.34,2.05l0.098,0.465L108.805,328.614z M108.546,308.7
							l19.823-3.607l1.867,9.383l-19.657,3.772L108.546,308.7z M113.936,331.622l0.528-0.096c2.231,0.952,4.865,1.706,7.807,2.148
							C119.913,333.571,117.127,333.005,113.936,331.622z M118.116,328.374c-2.252-0.74-4.117-1.703-5.49-2.778
							c-0.187-0.146-0.382-0.305-0.581-0.468l-1.084-5.088l19.635-3.766l1.887,9.467L118.116,328.374z M137.226,328.782
							c-4.607,1.063-8.92,1.271-12.698,0.897l30.208-5.537l0.205,1.046C146.661,326.797,140.117,328.114,137.226,328.782z
							 M153.835,300.439l19.827-3.818l1.265,6.525l-19.829,3.751L153.835,300.439z M155.449,308.692l19.826-3.749l2.422,12.509
							l-19.827,3.635L155.449,308.692z M158.337,323.481l19.823-3.634l0.166,0.86c-6.878,1.303-13.691,2.604-19.792,3.784
							L158.337,323.481z M159.354,328.689c6.09-1.175,12.904-2.477,19.786-3.781l0.193,1l-19.758,3.911L159.354,328.689z
							 M160.598,335.053l-0.205-1.04l19.751-3.912l0.195,1.009L160.598,335.053z M180.725,320.253l-0.16-0.831l21.01-3.631
							l0.101,0.516C195.219,317.519,187.979,318.883,180.725,320.253z M181.727,325.432l-0.188-0.979
							c7.26-1.375,14.507-2.737,20.968-3.948l0.155,0.78L181.727,325.432z M182.735,330.63l-0.194-1.005l20.953-4.151l0.193,0.974
							L182.735,330.63z M204.078,315.861l-0.099-0.499l20.475-3.792l0.095,0.472C222.595,312.408,214.568,313.895,204.078,315.861z
							 M204.909,320.052c10.693-2.001,18.807-3.511,20.485-3.82l0.125,0.636l-9.796,1.83l-10.664,2.109L204.909,320.052z
							 M206.082,325.968L205.888,325l10.642-2.107l9.834-1.834l0.166,0.83L206.082,325.968z M226.344,311.694l-0.089-0.454
							l21.256-3.938l0.036,0.211L226.344,311.694z M227.19,315.882l21.112-4.166l0.154,0.866l-21.137,3.945L227.19,315.882z
							 M228.328,321.527l-0.161-0.804l21.045-3.933l0.099,0.549L228.328,321.527z M249.005,304.432l-1.679-7.91l6.637-1.367
							l0.114-0.025l0.099-0.049c0.425-0.206,1.705-0.645,2.517-0.227c0.451,0.232,0.748,0.75,0.889,1.54
							c0.416,2.411,0.914,4.312,1.252,5.465L249.005,304.432z M249.886,306.722l10.453-2.741l27.579-4.449l-14.668,3.293
							l-15.052,2.581l-8.257,1.631L249.886,306.722z"/>
					</g>
				</g>
			</g>
		</g>
	</g>
	<g>
		<ellipse opacity="0.1" enable-background="new    " cx="160.005" cy="241.808" rx="18.492" ry="6.269"/>
		<g>
			<path fill="#BC1348" d="M181.254,196.252c0-11.636-9.431-20.913-21.062-20.913s-21.061,9.177-21.061,20.812
				c0,5.47,2.102,10.438,5.52,13.924h-0.033c0,0,14.446,14.96,14.446,32.009l-0.017,0.24h2.466
				c0-16.559,14.301-32.249,14.301-32.249h-0.031C179.173,206.585,181.254,201.694,181.254,196.252z M160.194,200.688
				c-2.768,0-5.016-2.245-5.016-5.012c0-2.771,2.248-5.014,5.016-5.014c2.769,0,5.013,2.243,5.013,5.014
				C165.207,198.443,162.963,200.688,160.194,200.688z"/>
			<path fill="none" d="M146.443,207.617c-0.01,0-0.014,0.002-0.014,0.002h0.017C146.443,207.619,146.443,207.617,146.443,207.617"
				/>
			<path fill="#EC1B52" d="M177.747,196.564c0-9.694-7.859-17.56-17.552-17.56c-9.693,0-17.552,7.945-17.552,17.638
				c0,4.116,1.428,7.976,3.801,10.966c0.021,0,0.066,0.015,0.133,0.094c0.06,0.07,0.121-0.164,0.182-0.093
				c2.084,2.505,13.436,16.412,13.436,22.511h0.32c0-6.1,11.384-20.414,13.196-22.638c0.019-0.025,0.039,0.092,0.06,0.068
				c0.119-0.148,0.19-0.091,0.19-0.091h-0.019C176.317,203.973,177.747,200.678,177.747,196.564z M160.194,200.688
				c-2.768,0-5.016-2.245-5.016-5.012c0-2.771,2.248-5.014,5.016-5.014c2.769,0,5.013,2.243,5.013,5.014
				C165.207,198.443,162.963,200.688,160.194,200.688z"/>
			<path fill="#BC1348" d="M160.007,187.65c-4.432,0-8.024,3.589-8.024,8.025c0,4.429,3.59,8.024,8.024,8.024
				c4.43,0,8.024-3.592,8.024-8.024C168.031,191.24,164.437,187.65,160.007,187.65z M160.007,200.688
				c-2.77,0-5.015-2.245-5.015-5.012c0-2.771,2.245-5.014,5.015-5.014c2.769,0,5.013,2.243,5.013,5.014
				C165.02,198.443,162.775,200.688,160.007,200.688z"/>
		</g>
	</g>
	<path fill="#999999" d="M156.864,163.609c0,1.729-1.403,3.13-3.131,3.13H97.395c-1.729,0-3.13-1.402-3.13-3.13v-12.52
		c0-1.729,1.401-3.13,3.13-3.13h56.338c1.728,0,3.131,1.401,3.131,3.13V163.609z"/>
	<path fill="#999999" d="M228.852,163.609c0,1.729-1.403,3.13-3.129,3.13h-56.339c-1.729,0-3.13-1.402-3.13-3.13v-12.52
		c0-1.729,1.401-3.13,3.13-3.13h56.339c1.727,0,3.129,1.401,3.129,3.13V163.609z"/>
	<rect x="93.062" y="309.839" fill="#3C5B9A" width="135.355" height="38.264"/>
</g>
</svg>
