<?xml version="1.0" encoding="utf-8"?>
<!-- Generator: Adobe Illustrator 15.0.0, SVG Export Plug-In . SVG Version: 6.00 Build 0)  -->
<!DOCTYPE svg PUBLIC "-//W3C//DTD SVG 1.1//EN" "http://www.w3.org/Graphics/SVG/1.1/DTD/svg11.dtd">
<svg version="1.1" id="Layer_1" xmlns="http://www.w3.org/2000/svg" xmlns:xlink="http://www.w3.org/1999/xlink" x="0px" y="0px"
	 width="532px" height="463px" viewBox="0 0 532 463" enable-background="new 0 0 532 463" xml:space="preserve">
<rect y="13" fill="#EDEDED" width="520" height="1"/>
<rect y="73" fill="#EDEDED" width="520" height="1"/>
<rect y="133" fill="#EDEDED" width="520" height="1"/>
<rect y="193" fill="#EDEDED" width="520" height="1"/>
<rect y="253" fill="#EDEDED" width="520" height="1"/>
<rect y="313" fill="#EDEDED" width="520" height="1"/>
<g>
	<polygon fill="#E6E6E6" points="131.752,351.954 130.904,348.046 402.34,289.097 519.124,232.202 520.876,235.798 403.659,292.903 
		403.425,292.954 	"/>
</g>
<rect y="373" fill="#EDEDED" width="520" height="1"/>
<rect y="433" fill="#EDEDED" width="520" height="1"/>
<g>
	<polygon fill="#E6E6E6" points="1.253,255.559 -1.253,252.441 224.436,70.887 402.468,98.892 518.789,10.408 521.211,13.592 
		403.532,103.108 402.689,102.976 225.564,75.113 	"/>
</g>
<g opacity="0.06">
	<path d="M5,216v-89h337c27.019,0,49,21.981,49,49v287H108"/>
</g>
<g>
	<path fill="#FFFFFF" d="M0,210v-89h337c27.019,0,49,21.981,49,49v291H103"/>
</g>
<g>
	<path fill="#FCFCFC" d="M225,65c-4.411,0-8,3.589-8,8s3.589,8,8,8s8-3.589,8-8S229.411,65,225,65z"/>
	<path fill="#E6E6E6" d="M225,61c-6.617,0-12,5.383-12,12s5.383,12,12,12s12-5.383,12-12S231.617,61,225,61z M225,81
		c-4.411,0-8-3.589-8-8s3.589-8,8-8s8,3.589,8,8S229.411,81,225,81z"/>
	<path fill="#FCFCFC" d="M403,93c-4.411,0-8,3.589-8,8s3.589,8,8,8s8-3.589,8-8S407.411,93,403,93z"/>
	<path fill="#E6E6E6" d="M403,89c-6.617,0-12,5.383-12,12s5.383,12,12,12s12-5.383,12-12S409.617,89,403,89z M403,109
		c-4.411,0-8-3.589-8-8s3.589-8,8-8s8,3.589,8,8S407.411,109,403,109z"/>
	<path fill="#FCFCFC" d="M403,283c-4.411,0-8,3.589-8,8s3.589,8,8,8s8-3.589,8-8S407.411,283,403,283z"/>
	<path fill="#E6E6E6" d="M403,279c-6.617,0-12,5.383-12,12s5.383,12,12,12s12-5.383,12-12S409.617,279,403,279z M403,299
		c-4.411,0-8-3.589-8-8s3.589-8,8-8s8,3.589,8,8S407.411,299,403,299z"/>
	<path fill="#FCFCFC" d="M520,20c4.411,0,8-3.589,8-8s-3.589-8-8-8s-8,3.589-8,8S515.589,20,520,20z"/>
	<path fill="#E6E6E6" d="M520,24c6.617,0,12-5.383,12-12s-5.383-12-12-12s-12,5.383-12,12S513.383,24,520,24z M520,4
		c4.411,0,8,3.589,8,8s-3.589,8-8,8s-8-3.589-8-8S515.589,4,520,4z"/>
	<path fill="#FCFCFC" d="M520,226c-4.411,0-8,3.589-8,8s3.589,8,8,8s8-3.589,8-8S524.411,226,520,226z"/>
	<path fill="#E6E6E6" d="M520,222c-6.617,0-12,5.383-12,12s5.383,12,12,12s12-5.383,12-12S526.617,222,520,222z M520,242
		c-4.411,0-8-3.589-8-8s3.589-8,8-8s8,3.589,8,8S524.411,242,520,242z"/>
</g>
<g>
	<path fill="#CCCCCC" d="M384,461V170c0-25.916-21.084-47-47-47H0v-2h337c27.019,0,49,21.981,49,49v291H384z"/>
</g>
<g>
	<path fill="#CCCCCC" d="M0,182h331v279h-2V184H0V182z"/>
</g>
<path fill="#CCCCCC" d="M17.854,152.968C17.854,152.969,17.854,152.969,17.854,152.968c0,3.304,2.684,5.984,5.983,5.984
	c3.301,0,5.983-2.681,5.983-5.983c0,0,0,0,0-0.001c0-3.3-2.682-5.983-5.983-5.983C20.537,146.984,17.854,149.668,17.854,152.968z
	 M19.849,152.97c0-2.203,1.785-3.988,3.989-3.988s3.99,1.785,3.99,3.988c0,2.204-1.786,3.989-3.99,3.989
	c-1.846,0-3.382-1.258-3.838-2.959c-0.021-0.076-0.054-0.147-0.069-0.227c-0.011-0.051-0.008-0.105-0.017-0.158
	C19.88,153.404,19.849,153.191,19.849,152.97L19.849,152.97z"/>
<rect y="184" fill="#EDEFF0" width="329" height="277"/>
<rect y="184" fill="#FAFAFA" width="329" height="40"/>
<rect y="224" opacity="0.1" enable-background="new    " width="329" height="4"/>
<g>
	<path fill="#999999" d="M100.578,208l-0.621-2.039h-3.123L96.213,208h-1.957l3.023-8.602H99.5l3.035,8.602H100.578z
		 M99.523,204.438c-0.574-1.848-0.897-2.893-0.97-3.135s-0.124-0.434-0.155-0.574c-0.129,0.5-0.498,1.736-1.107,3.709H99.523z"/>
	<path fill="#999999" d="M108.113,208l-0.24-0.838h-0.094c-0.191,0.305-0.463,0.54-0.814,0.706s-0.752,0.249-1.201,0.249
		c-0.77,0-1.35-0.206-1.74-0.618s-0.586-1.005-0.586-1.778v-4.271h1.787v3.826c0,0.473,0.084,0.827,0.252,1.063
		s0.436,0.354,0.803,0.354c0.5,0,0.861-0.167,1.084-0.501s0.334-0.888,0.334-1.661v-3.082h1.787V208H108.113z"/>
	<path fill="#999999" d="M117.061,201.449v0.908l-1.025,0.264c0.188,0.293,0.281,0.621,0.281,0.984c0,0.703-0.245,1.251-0.735,1.644
		s-1.171,0.589-2.042,0.589l-0.322-0.018l-0.264-0.029c-0.184,0.141-0.275,0.297-0.275,0.469c0,0.258,0.328,0.387,0.984,0.387h1.113
		c0.719,0,1.267,0.154,1.644,0.463s0.565,0.762,0.565,1.359c0,0.766-0.319,1.359-0.958,1.781s-1.556,0.633-2.751,0.633
		c-0.914,0-1.612-0.159-2.095-0.478s-0.724-0.765-0.724-1.339c0-0.395,0.123-0.725,0.369-0.99s0.607-0.455,1.084-0.568
		c-0.184-0.078-0.344-0.206-0.48-0.384s-0.205-0.366-0.205-0.565c0-0.25,0.072-0.458,0.217-0.624s0.354-0.329,0.627-0.489
		c-0.344-0.148-0.616-0.387-0.817-0.715s-0.302-0.715-0.302-1.16c0-0.715,0.232-1.268,0.697-1.658s1.129-0.586,1.992-0.586
		c0.184,0,0.401,0.017,0.653,0.05s0.413,0.058,0.483,0.073H117.061z M112.004,208.926c0,0.246,0.118,0.439,0.354,0.58
		s0.567,0.211,0.993,0.211c0.641,0,1.143-0.088,1.506-0.264s0.545-0.416,0.545-0.721c0-0.246-0.107-0.416-0.322-0.51
		s-0.547-0.141-0.996-0.141h-0.926c-0.328,0-0.603,0.077-0.823,0.231S112.004,208.672,112.004,208.926z M112.654,203.594
		c0,0.355,0.081,0.637,0.243,0.844s0.409,0.311,0.741,0.311c0.336,0,0.582-0.104,0.738-0.311s0.234-0.488,0.234-0.844
		c0-0.789-0.324-1.184-0.973-1.184C112.982,202.41,112.654,202.805,112.654,203.594z"/>
	<path fill="#999999" d="M122.779,208l-0.24-0.838h-0.094c-0.191,0.305-0.463,0.54-0.814,0.706s-0.752,0.249-1.201,0.249
		c-0.77,0-1.35-0.206-1.74-0.618s-0.586-1.005-0.586-1.778v-4.271h1.787v3.826c0,0.473,0.084,0.827,0.252,1.063
		s0.436,0.354,0.803,0.354c0.5,0,0.861-0.167,1.084-0.501s0.334-0.888,0.334-1.661v-3.082h1.787V208H122.779z"/>
	<path fill="#999999" d="M130.596,206.055c0,0.672-0.233,1.184-0.7,1.535s-1.165,0.527-2.095,0.527
		c-0.477,0-0.883-0.032-1.219-0.097s-0.65-0.159-0.943-0.284v-1.477c0.332,0.156,0.706,0.287,1.122,0.393s0.782,0.158,1.099,0.158
		c0.648,0,0.973-0.188,0.973-0.562c0-0.141-0.043-0.255-0.129-0.343s-0.234-0.188-0.445-0.299s-0.492-0.241-0.844-0.39
		c-0.504-0.211-0.874-0.406-1.11-0.586s-0.408-0.386-0.516-0.618s-0.161-0.519-0.161-0.858c0-0.582,0.226-1.032,0.677-1.351
		s1.091-0.478,1.919-0.478c0.789,0,1.557,0.172,2.303,0.516l-0.539,1.289c-0.328-0.141-0.635-0.256-0.92-0.346
		s-0.576-0.135-0.873-0.135c-0.527,0-0.791,0.143-0.791,0.428c0,0.16,0.085,0.299,0.255,0.416s0.542,0.291,1.116,0.521
		c0.512,0.207,0.887,0.4,1.125,0.58s0.414,0.387,0.527,0.621S130.596,205.73,130.596,206.055z"/>
	<path fill="#999999" d="M134.75,206.693c0.312,0,0.688-0.068,1.125-0.205v1.33c-0.445,0.199-0.992,0.299-1.641,0.299
		c-0.715,0-1.235-0.181-1.562-0.542s-0.489-0.903-0.489-1.626v-3.158h-0.855v-0.756l0.984-0.598l0.516-1.383h1.143v1.395h1.834
		v1.342h-1.834v3.158c0,0.254,0.071,0.441,0.214,0.562S134.516,206.693,134.75,206.693z"/>
	<path fill="#999999" d="M145.848,208h-5.988v-1.26l2.15-2.174c0.637-0.652,1.053-1.104,1.248-1.356s0.336-0.485,0.422-0.7
		s0.129-0.438,0.129-0.668c0-0.344-0.095-0.6-0.284-0.768s-0.442-0.252-0.759-0.252c-0.332,0-0.654,0.076-0.967,0.229
		s-0.639,0.369-0.979,0.65l-0.984-1.166c0.422-0.359,0.771-0.613,1.049-0.762s0.58-0.263,0.908-0.343s0.695-0.12,1.102-0.12
		c0.535,0,1.008,0.098,1.418,0.293s0.729,0.469,0.955,0.82s0.34,0.754,0.34,1.207c0,0.395-0.069,0.765-0.208,1.11
		s-0.354,0.7-0.645,1.063s-0.804,0.881-1.538,1.553l-1.102,1.037v0.082h3.732V208z"/>
	<path fill="#999999" d="M152.891,206.225h-1.031V208h-1.77v-1.775h-3.656v-1.26l3.756-5.531h1.67v5.385h1.031V206.225z
		 M150.09,204.818v-1.453c0-0.242,0.01-0.594,0.029-1.055s0.035-0.729,0.047-0.803h-0.047c-0.145,0.32-0.318,0.633-0.521,0.938
		l-1.57,2.373H150.09z"/>
	<path fill="#999999" d="M155.768,206.74c-0.203,0.789-0.547,1.725-1.031,2.807h-1.289c0.254-1.039,0.451-2.02,0.592-2.941h1.641
		L155.768,206.74z"/>
	<path fill="#999999" d="M166.145,208h-5.988v-1.26l2.15-2.174c0.637-0.652,1.053-1.104,1.248-1.356s0.336-0.485,0.422-0.7
		s0.129-0.438,0.129-0.668c0-0.344-0.095-0.6-0.284-0.768s-0.442-0.252-0.759-0.252c-0.332,0-0.654,0.076-0.967,0.229
		s-0.639,0.369-0.979,0.65l-0.984-1.166c0.422-0.359,0.771-0.613,1.049-0.762s0.58-0.263,0.908-0.343s0.695-0.12,1.102-0.12
		c0.535,0,1.008,0.098,1.418,0.293s0.729,0.469,0.955,0.82s0.34,0.754,0.34,1.207c0,0.395-0.069,0.765-0.208,1.11
		s-0.354,0.7-0.645,1.063s-0.804,0.881-1.538,1.553l-1.102,1.037v0.082h3.732V208z"/>
	<path fill="#999999" d="M172.947,203.717c0,1.496-0.245,2.604-0.735,3.322s-1.245,1.078-2.265,1.078
		c-0.988,0-1.733-0.371-2.235-1.113s-0.753-1.838-0.753-3.287c0-1.512,0.244-2.626,0.732-3.343s1.24-1.075,2.256-1.075
		c0.988,0,1.735,0.375,2.241,1.125S172.947,202.271,172.947,203.717z M168.758,203.717c0,1.051,0.091,1.804,0.272,2.259
		s0.487,0.683,0.917,0.683c0.422,0,0.727-0.23,0.914-0.691s0.281-1.211,0.281-2.25c0-1.051-0.095-1.806-0.284-2.265
		s-0.493-0.688-0.911-0.688c-0.426,0-0.73,0.229-0.914,0.688S168.758,202.666,168.758,203.717z"/>
	<path fill="#999999" d="M178.332,208h-1.811v-4.957l0.018-0.814l0.029-0.891c-0.301,0.301-0.51,0.498-0.627,0.592l-0.984,0.791
		l-0.873-1.09l2.76-2.197h1.488V208z"/>
	<path fill="#999999" d="M183.822,202.527c0.828,0,1.487,0.232,1.978,0.697s0.735,1.102,0.735,1.91c0,0.957-0.295,1.693-0.885,2.209
		s-1.434,0.773-2.531,0.773c-0.953,0-1.723-0.154-2.309-0.463v-1.564c0.309,0.164,0.668,0.298,1.078,0.401s0.799,0.155,1.166,0.155
		c1.105,0,1.658-0.453,1.658-1.359c0-0.863-0.572-1.295-1.717-1.295c-0.207,0-0.436,0.021-0.686,0.062s-0.453,0.085-0.609,0.132
		l-0.721-0.387l0.322-4.365h4.646v1.535h-3.059l-0.158,1.682l0.205-0.041C183.176,202.555,183.471,202.527,183.822,202.527z"/>
	<path fill="#999999" d="M190.549,205.516v-1.465h3.146v1.465H190.549z"/>
	<path fill="#999999" d="M205.848,208h-2.309l-3.727-6.48h-0.053c0.074,1.145,0.111,1.961,0.111,2.449V208h-1.623v-8.566h2.291
		l3.721,6.416h0.041c-0.059-1.113-0.088-1.9-0.088-2.361v-4.055h1.635V208z"/>
	<path fill="#999999" d="M213.816,204.713c0,1.066-0.281,1.9-0.844,2.502s-1.346,0.902-2.35,0.902c-0.629,0-1.184-0.138-1.664-0.413
		s-0.85-0.671-1.107-1.187s-0.387-1.117-0.387-1.805c0-1.07,0.279-1.902,0.838-2.496s1.344-0.891,2.355-0.891
		c0.629,0,1.184,0.137,1.664,0.41s0.85,0.666,1.107,1.178S213.816,204.025,213.816,204.713z M209.287,204.713
		c0,0.648,0.106,1.139,0.319,1.471s0.56,0.498,1.04,0.498c0.477,0,0.819-0.165,1.028-0.495s0.313-0.821,0.313-1.474
		c0-0.648-0.105-1.135-0.316-1.459s-0.557-0.486-1.037-0.486c-0.477,0-0.82,0.161-1.031,0.483S209.287,204.061,209.287,204.713z"/>
	<path fill="#999999" d="M216.852,208l-2.496-6.551h1.869l1.266,3.732c0.141,0.473,0.229,0.92,0.264,1.342h0.035
		c0.02-0.375,0.107-0.822,0.264-1.342l1.26-3.732h1.869L218.686,208H216.852z"/>
	<path fill="#999999" d="M225.084,208.117c-1.055,0-1.879-0.291-2.473-0.873s-0.891-1.406-0.891-2.473
		c0-1.098,0.274-1.946,0.823-2.546s1.308-0.899,2.276-0.899c0.926,0,1.646,0.264,2.162,0.791s0.773,1.256,0.773,2.186v0.867h-4.225
		c0.02,0.508,0.17,0.904,0.451,1.189s0.676,0.428,1.184,0.428c0.395,0,0.768-0.041,1.119-0.123s0.719-0.213,1.102-0.393v1.383
		c-0.312,0.156-0.646,0.272-1.002,0.349S225.596,208.117,225.084,208.117z M224.832,202.598c-0.379,0-0.676,0.12-0.891,0.36
		s-0.338,0.581-0.369,1.022h2.508c-0.008-0.441-0.123-0.782-0.346-1.022S225.211,202.598,224.832,202.598z"/>
	<path fill="#999999" d="M235.074,208h-1.787v-3.826c0-0.473-0.079-0.827-0.237-1.063s-0.407-0.354-0.747-0.354
		c-0.457,0-0.789,0.168-0.996,0.504s-0.311,0.889-0.311,1.658V208h-1.787v-6.551h1.365l0.24,0.838h0.1
		c0.176-0.301,0.43-0.536,0.762-0.706s0.713-0.255,1.143-0.255c0.98,0,1.645,0.32,1.992,0.961h0.158
		c0.176-0.305,0.435-0.541,0.776-0.709s0.728-0.252,1.157-0.252c0.742,0,1.304,0.19,1.685,0.571s0.571,0.991,0.571,1.831V208h-1.793
		v-3.826c0-0.473-0.079-0.827-0.237-1.063s-0.407-0.354-0.747-0.354c-0.438,0-0.765,0.156-0.981,0.469s-0.325,0.809-0.325,1.488V208
		z"/>
	<path fill="#999999" d="M244.637,201.326c0.773,0,1.379,0.302,1.816,0.905s0.656,1.431,0.656,2.481c0,1.082-0.226,1.92-0.677,2.514
		s-1.065,0.891-1.843,0.891c-0.77,0-1.373-0.279-1.811-0.838h-0.123L242.357,208h-1.365v-9.117h1.787v2.121
		c0,0.27-0.023,0.701-0.07,1.295h0.07C243.197,201.65,243.816,201.326,244.637,201.326z M244.062,202.756
		c-0.441,0-0.764,0.136-0.967,0.407s-0.309,0.72-0.316,1.345v0.193c0,0.703,0.104,1.207,0.313,1.512s0.54,0.457,0.993,0.457
		c0.367,0,0.659-0.169,0.876-0.507s0.325-0.829,0.325-1.474s-0.109-1.128-0.328-1.45S244.441,202.756,244.062,202.756z"/>
	<path fill="#999999" d="M251.551,208.117c-1.055,0-1.879-0.291-2.473-0.873s-0.891-1.406-0.891-2.473
		c0-1.098,0.274-1.946,0.823-2.546s1.308-0.899,2.276-0.899c0.926,0,1.646,0.264,2.162,0.791s0.773,1.256,0.773,2.186v0.867h-4.225
		c0.02,0.508,0.17,0.904,0.451,1.189s0.676,0.428,1.184,0.428c0.395,0,0.768-0.041,1.119-0.123s0.719-0.213,1.102-0.393v1.383
		c-0.312,0.156-0.646,0.272-1.002,0.349S252.062,208.117,251.551,208.117z M251.299,202.598c-0.379,0-0.676,0.12-0.891,0.36
		s-0.338,0.581-0.369,1.022h2.508c-0.008-0.441-0.123-0.782-0.346-1.022S251.678,202.598,251.299,202.598z"/>
	<path fill="#999999" d="M259.332,201.326c0.242,0,0.443,0.018,0.604,0.053l-0.135,1.676c-0.145-0.039-0.32-0.059-0.527-0.059
		c-0.57,0-1.015,0.146-1.333,0.439s-0.478,0.703-0.478,1.23V208h-1.787v-6.551h1.354l0.264,1.102h0.088
		c0.203-0.367,0.478-0.663,0.823-0.888S258.926,201.326,259.332,201.326z"/>
	<path fill="#999999" d="M268.262,208h-1.811v-4.957l0.018-0.814l0.029-0.891c-0.301,0.301-0.51,0.498-0.627,0.592l-0.984,0.791
		l-0.873-1.09l2.76-2.197h1.488V208z"/>
	<path fill="#999999" d="M275.111,208h-1.811v-4.957l0.018-0.814l0.029-0.891c-0.301,0.301-0.51,0.498-0.627,0.592l-0.984,0.791
		l-0.873-1.09l2.76-2.197h1.488V208z"/>
	<path fill="#999999" d="M279.693,206.74c-0.203,0.789-0.547,1.725-1.031,2.807h-1.289c0.254-1.039,0.451-2.02,0.592-2.941h1.641
		L279.693,206.74z"/>
	<path fill="#999999" d="M290.07,208h-5.988v-1.26l2.15-2.174c0.637-0.652,1.053-1.104,1.248-1.356s0.336-0.485,0.422-0.7
		s0.129-0.438,0.129-0.668c0-0.344-0.095-0.6-0.284-0.768s-0.442-0.252-0.759-0.252c-0.332,0-0.654,0.076-0.967,0.229
		s-0.639,0.369-0.979,0.65l-0.984-1.166c0.422-0.359,0.771-0.613,1.049-0.762s0.58-0.263,0.908-0.343s0.695-0.12,1.102-0.12
		c0.535,0,1.008,0.098,1.418,0.293s0.729,0.469,0.955,0.82s0.34,0.754,0.34,1.207c0,0.395-0.069,0.765-0.208,1.11
		s-0.354,0.7-0.645,1.063s-0.804,0.881-1.538,1.553l-1.102,1.037v0.082h3.732V208z"/>
	<path fill="#999999" d="M296.873,203.717c0,1.496-0.245,2.604-0.735,3.322s-1.245,1.078-2.265,1.078
		c-0.988,0-1.733-0.371-2.235-1.113s-0.753-1.838-0.753-3.287c0-1.512,0.244-2.626,0.732-3.343s1.24-1.075,2.256-1.075
		c0.988,0,1.735,0.375,2.241,1.125S296.873,202.271,296.873,203.717z M292.684,203.717c0,1.051,0.091,1.804,0.272,2.259
		s0.487,0.683,0.917,0.683c0.422,0,0.727-0.23,0.914-0.691s0.281-1.211,0.281-2.25c0-1.051-0.095-1.806-0.284-2.265
		s-0.493-0.688-0.911-0.688c-0.426,0-0.73,0.229-0.914,0.688S292.684,202.666,292.684,203.717z"/>
	<path fill="#999999" d="M302.258,208h-1.811v-4.957l0.018-0.814l0.029-0.891c-0.301,0.301-0.51,0.498-0.627,0.592l-0.984,0.791
		l-0.873-1.09l2.76-2.197h1.488V208z"/>
	<path fill="#999999" d="M307.748,202.527c0.828,0,1.487,0.232,1.978,0.697s0.735,1.102,0.735,1.91c0,0.957-0.295,1.693-0.885,2.209
		s-1.434,0.773-2.531,0.773c-0.953,0-1.723-0.154-2.309-0.463v-1.564c0.309,0.164,0.668,0.298,1.078,0.401s0.799,0.155,1.166,0.155
		c1.105,0,1.658-0.453,1.658-1.359c0-0.863-0.572-1.295-1.717-1.295c-0.207,0-0.436,0.021-0.686,0.062s-0.453,0.085-0.609,0.132
		l-0.721-0.387l0.322-4.365h4.646v1.535h-3.059l-0.158,1.682l0.205-0.041C307.102,202.555,307.396,202.527,307.748,202.527z"/>
</g>
<rect x="112" y="270" fill="#FFFFFF" width="200" height="160"/>
<g>
	<defs>
		<rect id="SVGID_1_" y="270" width="82" height="160"/>
	</defs>
	<clipPath id="SVGID_2_">
		<use xlink:href="#SVGID_1_"  overflow="visible"/>
	</clipPath>
	<rect x="-118" y="270" clip-path="url(#SVGID_2_)" fill="#FFFFFF" width="200" height="160"/>
	<g clip-path="url(#SVGID_2_)">
		<path fill="#808080" d="M-63.27,338.603h-7.382v-20.21l0.072-3.32l0.119-3.632c-1.226,1.228-2.079,2.031-2.556,2.414l-4.013,3.224
			l-3.56-4.442l11.251-8.958h6.068V338.603z"/>
		<path fill="#808080" d="M-53.833,323.769c0-6.912,1.461-12.057,4.383-15.433c2.922-3.377,7.298-5.064,13.127-5.064
			c1.99,0,3.551,0.119,4.682,0.358v5.9c-1.417-0.318-2.819-0.479-4.204-0.479c-2.532,0-4.599,0.384-6.199,1.147
			c-1.601,0.765-2.799,1.895-3.595,3.392s-1.266,3.624-1.41,6.379h0.311c1.577-2.708,4.101-4.062,7.573-4.062
			c3.122,0,5.566,0.98,7.334,2.939c1.767,1.959,2.651,4.665,2.651,8.121c0,3.728-1.051,6.678-3.153,8.852s-5.017,3.261-8.744,3.261
			c-2.58,0-4.83-0.597-6.748-1.791c-1.919-1.195-3.4-2.938-4.444-5.232C-53.312,329.765-53.833,327.001-53.833,323.769z
			 M-41.22,333.181c1.577,0,2.787-0.53,3.631-1.589c0.844-1.06,1.267-2.568,1.267-4.527c0-1.703-0.395-3.046-1.183-4.025
			c-0.788-0.979-1.979-1.469-3.571-1.469c-1.497,0-2.775,0.485-3.834,1.457c-1.059,0.972-1.589,2.103-1.589,3.393
			c0,1.895,0.498,3.495,1.493,4.802C-44.011,332.528-42.749,333.181-41.22,333.181z"/>
		<path fill="#808080" d="M-24.832,335.188c0-1.339,0.358-2.35,1.075-3.034c0.717-0.685,1.76-1.026,3.13-1.026
			c1.322,0,2.345,0.35,3.069,1.051c0.725,0.7,1.087,1.703,1.087,3.01c0,1.258-0.367,2.25-1.099,2.974
			c-0.732,0.725-1.751,1.087-3.058,1.087c-1.338,0-2.373-0.354-3.105-1.062C-24.466,337.476-24.832,336.477-24.832,335.188z"/>
		<path fill="#808080" d="M12.698,338.603h-24.415v-5.136l8.767-8.863c2.596-2.659,4.292-4.502,5.088-5.53
			c0.796-1.026,1.37-1.978,1.72-2.854c0.351-0.876,0.525-1.783,0.525-2.724c0-1.401-0.386-2.444-1.159-3.129
			c-0.772-0.686-1.804-1.027-3.094-1.027c-1.354,0-2.667,0.311-3.941,0.932c-1.274,0.621-2.604,1.506-3.989,2.652l-4.013-4.754
			c1.719-1.465,3.145-2.501,4.275-3.106c1.131-0.604,2.365-1.071,3.703-1.397s2.835-0.489,4.491-0.489
			c2.182,0,4.109,0.398,5.781,1.194c1.672,0.797,2.97,1.912,3.895,3.345c0.923,1.433,1.385,3.073,1.385,4.921
			c0,1.607-0.283,3.118-0.848,4.526c-0.565,1.41-1.441,2.855-2.628,4.336c-1.187,1.482-3.277,3.592-6.271,6.331l-4.491,4.229v0.334
			h15.218V338.603z"/>
		<path fill="#808080" d="M25.072,324.078l3.177-4.061l7.478-8.122h8.218l-10.607,11.586l11.25,15.121h-8.408l-7.692-10.821
			l-3.129,2.509v8.312h-7.286v-37.171h7.286v16.579l-0.382,6.067H25.072z"/>
	</g>
	<g clip-path="url(#SVGID_2_)">
		<path fill="#B3B3B3" d="M-29.754,354.434h1.834L-30.832,363h-1.98l-2.906-8.566h1.834l1.611,5.098
			c0.09,0.301,0.183,0.651,0.278,1.052s0.155,0.679,0.179,0.835c0.043-0.359,0.189-0.988,0.439-1.887L-29.754,354.434z"/>
		<path fill="#B3B3B3" d="M-26.842,363v-8.566h1.816V363H-26.842z"/>
		<path fill="#B3B3B3" d="M-17.812,360.621c0,0.773-0.278,1.383-0.835,1.828s-1.331,0.668-2.323,0.668
			c-0.914,0-1.723-0.172-2.426-0.516v-1.688c0.578,0.258,1.067,0.439,1.468,0.545s0.767,0.158,1.099,0.158
			c0.398,0,0.704-0.076,0.917-0.229s0.319-0.379,0.319-0.68c0-0.168-0.047-0.317-0.141-0.448s-0.231-0.257-0.413-0.378
			s-0.552-0.314-1.11-0.58c-0.523-0.246-0.916-0.482-1.178-0.709s-0.471-0.49-0.627-0.791s-0.234-0.652-0.234-1.055
			c0-0.758,0.257-1.354,0.771-1.787s1.224-0.65,2.13-0.65c0.445,0,0.87,0.053,1.274,0.158s0.827,0.254,1.269,0.445l-0.586,1.412
			c-0.457-0.188-0.835-0.318-1.134-0.393s-0.593-0.111-0.882-0.111c-0.344,0-0.607,0.08-0.791,0.24s-0.275,0.369-0.275,0.627
			c0,0.16,0.037,0.3,0.111,0.419s0.192,0.234,0.354,0.346s0.546,0.312,1.151,0.601c0.801,0.383,1.35,0.767,1.646,1.151
			S-17.812,360.062-17.812,360.621z"/>
		<path fill="#B3B3B3" d="M-16.26,363v-8.566h1.816V363H-16.26z"/>
		<path fill="#B3B3B3" d="M-8.982,363h-1.816v-7.055h-2.326v-1.512h6.469v1.512h-2.326V363z"/>
		<path fill="#B3B3B3" d="M-0.281,360.621c0,0.773-0.278,1.383-0.835,1.828s-1.331,0.668-2.323,0.668
			c-0.914,0-1.723-0.172-2.426-0.516v-1.688c0.578,0.258,1.067,0.439,1.468,0.545s0.767,0.158,1.099,0.158
			c0.398,0,0.704-0.076,0.917-0.229s0.319-0.379,0.319-0.68c0-0.168-0.047-0.317-0.141-0.448s-0.231-0.257-0.413-0.378
			s-0.552-0.314-1.11-0.58c-0.523-0.246-0.916-0.482-1.178-0.709s-0.471-0.49-0.627-0.791s-0.234-0.652-0.234-1.055
			c0-0.758,0.257-1.354,0.771-1.787s1.224-0.65,2.13-0.65c0.445,0,0.87,0.053,1.274,0.158s0.827,0.254,1.269,0.445l-0.586,1.412
			c-0.457-0.188-0.835-0.318-1.134-0.393s-0.593-0.111-0.882-0.111c-0.344,0-0.607,0.08-0.791,0.24s-0.275,0.369-0.275,0.627
			c0,0.16,0.037,0.3,0.111,0.419s0.192,0.234,0.354,0.346s0.546,0.312,1.151,0.601c0.801,0.383,1.35,0.767,1.646,1.151
			S-0.281,360.062-0.281,360.621z"/>
	</g>
	<g clip-path="url(#SVGID_2_)">
		<path fill="#349CA5" d="M-48.365,393.323h-4.24v-2.399h4.24v-4.272h2.399v4.272h4.24v2.399h-4.24v4.218h-2.399V393.323z"/>
		<path fill="#349CA5" d="M-22.476,396.709h-1.928v3.319h-3.309v-3.319h-6.837v-2.356l7.023-10.342h3.123v10.068h1.928V396.709z
			 M-27.712,394.079v-2.717c0-0.453,0.018-1.11,0.055-1.973c0.036-0.861,0.065-1.361,0.087-1.501h-0.087
			c-0.27,0.6-0.596,1.184-0.975,1.753l-2.936,4.438H-27.712z"/>
		<path fill="#349CA5" d="M-20.843,398.462c0-0.614,0.164-1.077,0.493-1.392s0.807-0.472,1.435-0.472
			c0.606,0,1.076,0.161,1.408,0.482c0.332,0.321,0.499,0.781,0.499,1.381c0,0.576-0.168,1.031-0.504,1.364
			c-0.336,0.332-0.803,0.498-1.402,0.498c-0.613,0-1.088-0.162-1.424-0.487S-20.843,399.053-20.843,398.462z"/>
		<path fill="#349CA5" d="M-9.307,383.803c1.534,0,2.77,0.349,3.709,1.046c0.938,0.698,1.408,1.639,1.408,2.821
			c0,0.818-0.227,1.547-0.679,2.186c-0.453,0.64-1.184,1.211-2.191,1.715c1.198,0.644,2.058,1.312,2.58,2.011
			c0.522,0.697,0.784,1.462,0.784,2.295c0,1.314-0.516,2.371-1.545,3.172c-1.03,0.8-2.384,1.2-4.064,1.2
			c-1.753,0-3.13-0.373-4.13-1.118s-1.501-1.801-1.501-3.166c0-0.913,0.243-1.724,0.729-2.433c0.486-0.708,1.266-1.332,2.339-1.873
			c-0.913-0.578-1.57-1.195-1.972-1.852c-0.402-0.657-0.603-1.377-0.603-2.158c0-1.146,0.475-2.075,1.424-2.783
			S-10.833,383.803-9.307,383.803z M-11.805,395.767c0,0.628,0.219,1.118,0.658,1.469c0.438,0.35,1.037,0.524,1.797,0.524
			c0.84,0,1.468-0.18,1.884-0.542c0.417-0.361,0.625-0.838,0.625-1.43c0-0.489-0.206-0.948-0.619-1.375s-1.083-0.882-2.011-1.364
			C-11.027,393.765-11.805,394.671-11.805,395.767z M-9.328,386.278c-0.578,0-1.043,0.148-1.397,0.444
			c-0.354,0.296-0.532,0.691-0.532,1.188c0,0.438,0.141,0.83,0.422,1.178c0.281,0.347,0.791,0.703,1.528,1.068
			c0.716-0.336,1.216-0.68,1.501-1.03c0.285-0.35,0.427-0.756,0.427-1.216c0-0.504-0.183-0.902-0.547-1.194
			C-8.292,386.424-8.759,386.278-9.328,386.278z"/>
		<path fill="#349CA5" d="M5.386,388.787c0,1.681-0.326,2.942-0.975,3.785c-0.65,0.845-1.604,1.266-2.86,1.266
			c-1.205,0-2.137-0.433-2.793-1.298c-0.658-0.865-0.986-2.116-0.986-3.753c0-3.338,1.26-5.007,3.78-5.007
			c1.235,0,2.182,0.434,2.843,1.299C5.055,385.944,5.386,387.181,5.386,388.787z M0.532,388.81c0,0.928,0.082,1.619,0.246,2.076
			c0.164,0.456,0.429,0.685,0.794,0.685c0.701,0,1.052-0.921,1.052-2.761c0-1.826-0.351-2.739-1.052-2.739
			c-0.365,0-0.63,0.225-0.794,0.674S0.532,387.882,0.532,388.81z M12.923,384.011l-8.885,16.018H1.408l8.885-16.018H12.923z
			 M16.604,395.186c0,1.673-0.325,2.932-0.975,3.774c-0.65,0.844-1.604,1.266-2.86,1.266c-1.205,0-2.136-0.433-2.793-1.298
			c-0.658-0.866-0.986-2.113-0.986-3.742c0-3.338,1.26-5.007,3.78-5.007c1.234,0,2.182,0.433,2.843,1.298
			C16.273,392.343,16.604,393.579,16.604,395.186z M11.75,395.208c0,0.928,0.083,1.619,0.247,2.076
			c0.164,0.456,0.429,0.685,0.794,0.685c0.702,0,1.052-0.92,1.052-2.761c0-1.826-0.351-2.739-1.052-2.739
			c-0.365,0-0.63,0.225-0.794,0.674C11.833,393.592,11.75,394.28,11.75,395.208z"/>
	</g>
</g>
<g>
	<path fill="#808080" d="M166.73,338.603h-7.382v-20.21l0.072-3.32l0.119-3.632c-1.226,1.228-2.079,2.031-2.556,2.414l-4.013,3.224
		l-3.56-4.442l11.251-8.958h6.068V338.603z"/>
	<path fill="#808080" d="M176.167,323.769c0-6.912,1.461-12.057,4.383-15.433c2.922-3.377,7.298-5.064,13.127-5.064
		c1.99,0,3.551,0.119,4.682,0.358v5.9c-1.417-0.318-2.819-0.479-4.204-0.479c-2.532,0-4.599,0.384-6.199,1.147
		c-1.601,0.765-2.799,1.895-3.595,3.392s-1.266,3.624-1.41,6.379h0.311c1.577-2.708,4.101-4.062,7.573-4.062
		c3.122,0,5.566,0.98,7.334,2.939c1.767,1.959,2.651,4.665,2.651,8.121c0,3.728-1.051,6.678-3.153,8.852s-5.017,3.261-8.744,3.261
		c-2.58,0-4.83-0.597-6.748-1.791c-1.919-1.195-3.4-2.938-4.444-5.232C176.688,329.765,176.167,327.001,176.167,323.769z
		 M188.78,333.181c1.577,0,2.787-0.53,3.631-1.589c0.844-1.06,1.267-2.568,1.267-4.527c0-1.703-0.395-3.046-1.183-4.025
		c-0.788-0.979-1.979-1.469-3.571-1.469c-1.497,0-2.775,0.485-3.834,1.457c-1.059,0.972-1.589,2.103-1.589,3.393
		c0,1.895,0.498,3.495,1.493,4.802C185.989,332.528,187.251,333.181,188.78,333.181z"/>
	<path fill="#808080" d="M205.168,335.188c0-1.339,0.358-2.35,1.075-3.034c0.717-0.685,1.76-1.026,3.13-1.026
		c1.322,0,2.345,0.35,3.069,1.051c0.725,0.7,1.087,1.703,1.087,3.01c0,1.258-0.367,2.25-1.099,2.974
		c-0.732,0.725-1.751,1.087-3.058,1.087c-1.338,0-2.373-0.354-3.105-1.062C205.534,337.476,205.168,336.477,205.168,335.188z"/>
	<path fill="#808080" d="M242.698,338.603h-24.415v-5.136l8.767-8.863c2.596-2.659,4.292-4.502,5.088-5.53
		c0.796-1.026,1.37-1.978,1.72-2.854c0.351-0.876,0.525-1.783,0.525-2.724c0-1.401-0.386-2.444-1.159-3.129
		c-0.772-0.686-1.804-1.027-3.094-1.027c-1.354,0-2.667,0.311-3.941,0.932c-1.274,0.621-2.604,1.506-3.989,2.652l-4.013-4.754
		c1.719-1.465,3.145-2.501,4.275-3.106c1.131-0.604,2.365-1.071,3.703-1.397s2.835-0.489,4.491-0.489
		c2.182,0,4.109,0.398,5.781,1.194c1.672,0.797,2.97,1.912,3.895,3.345c0.923,1.433,1.385,3.073,1.385,4.921
		c0,1.607-0.283,3.118-0.848,4.526c-0.565,1.41-1.441,2.855-2.628,4.336c-1.187,1.482-3.277,3.592-6.271,6.331l-4.491,4.229v0.334
		h15.218V338.603z"/>
	<path fill="#808080" d="M255.072,324.078l3.177-4.061l7.478-8.122h8.218l-10.607,11.586l11.25,15.121h-8.408l-7.692-10.821
		l-3.129,2.509v8.312h-7.286v-37.171h7.286v16.579l-0.382,6.067H255.072z"/>
</g>
<rect y="461" fill="#CCCCCC" width="520" height="2"/>
<g>
	<path fill="#B3B3B3" d="M200.246,354.434h1.834L199.168,363h-1.98l-2.906-8.566h1.834l1.611,5.098
		c0.09,0.301,0.183,0.651,0.278,1.052s0.155,0.679,0.179,0.835c0.043-0.359,0.189-0.988,0.439-1.887L200.246,354.434z"/>
	<path fill="#B3B3B3" d="M203.158,363v-8.566h1.816V363H203.158z"/>
	<path fill="#B3B3B3" d="M212.188,360.621c0,0.773-0.278,1.383-0.835,1.828s-1.331,0.668-2.323,0.668
		c-0.914,0-1.723-0.172-2.426-0.516v-1.688c0.578,0.258,1.067,0.439,1.468,0.545s0.767,0.158,1.099,0.158
		c0.398,0,0.704-0.076,0.917-0.229s0.319-0.379,0.319-0.68c0-0.168-0.047-0.317-0.141-0.448s-0.231-0.257-0.413-0.378
		s-0.552-0.314-1.11-0.58c-0.523-0.246-0.916-0.482-1.178-0.709s-0.471-0.49-0.627-0.791s-0.234-0.652-0.234-1.055
		c0-0.758,0.257-1.354,0.771-1.787s1.224-0.65,2.13-0.65c0.445,0,0.87,0.053,1.274,0.158s0.827,0.254,1.269,0.445l-0.586,1.412
		c-0.457-0.188-0.835-0.318-1.134-0.393s-0.593-0.111-0.882-0.111c-0.344,0-0.607,0.08-0.791,0.24s-0.275,0.369-0.275,0.627
		c0,0.16,0.037,0.3,0.111,0.419s0.192,0.234,0.354,0.346s0.546,0.312,1.151,0.601c0.801,0.383,1.35,0.767,1.646,1.151
		S212.188,360.062,212.188,360.621z"/>
	<path fill="#B3B3B3" d="M213.74,363v-8.566h1.816V363H213.74z"/>
	<path fill="#B3B3B3" d="M221.018,363h-1.816v-7.055h-2.326v-1.512h6.469v1.512h-2.326V363z"/>
	<path fill="#B3B3B3" d="M229.719,360.621c0,0.773-0.278,1.383-0.835,1.828s-1.331,0.668-2.323,0.668
		c-0.914,0-1.723-0.172-2.426-0.516v-1.688c0.578,0.258,1.067,0.439,1.468,0.545s0.767,0.158,1.099,0.158
		c0.398,0,0.704-0.076,0.917-0.229s0.319-0.379,0.319-0.68c0-0.168-0.047-0.317-0.141-0.448s-0.231-0.257-0.413-0.378
		s-0.552-0.314-1.11-0.58c-0.523-0.246-0.916-0.482-1.178-0.709s-0.471-0.49-0.627-0.791s-0.234-0.652-0.234-1.055
		c0-0.758,0.257-1.354,0.771-1.787s1.224-0.65,2.13-0.65c0.445,0,0.87,0.053,1.274,0.158s0.827,0.254,1.269,0.445l-0.586,1.412
		c-0.457-0.188-0.835-0.318-1.134-0.393s-0.593-0.111-0.882-0.111c-0.344,0-0.607,0.08-0.791,0.24s-0.275,0.369-0.275,0.627
		c0,0.16,0.037,0.3,0.111,0.419s0.192,0.234,0.354,0.346s0.546,0.312,1.151,0.601c0.801,0.383,1.35,0.767,1.646,1.151
		S229.719,360.062,229.719,360.621z"/>
</g>
<g>
	<path fill="#349CA5" d="M181.635,393.323h-4.24v-2.399h4.24v-4.272h2.399v4.272h4.24v2.399h-4.24v4.218h-2.399V393.323z"/>
	<path fill="#349CA5" d="M207.524,396.709h-1.928v3.319h-3.309v-3.319h-6.837v-2.356l7.023-10.342h3.123v10.068h1.928V396.709z
		 M202.288,394.079v-2.717c0-0.453,0.018-1.11,0.055-1.973c0.036-0.861,0.065-1.361,0.087-1.501h-0.087
		c-0.27,0.6-0.596,1.184-0.975,1.753l-2.936,4.438H202.288z"/>
	<path fill="#349CA5" d="M209.157,398.462c0-0.614,0.164-1.077,0.493-1.392s0.807-0.472,1.435-0.472
		c0.606,0,1.076,0.161,1.408,0.482c0.332,0.321,0.499,0.781,0.499,1.381c0,0.576-0.168,1.031-0.504,1.364
		c-0.336,0.332-0.803,0.498-1.402,0.498c-0.613,0-1.088-0.162-1.424-0.487S209.157,399.053,209.157,398.462z"/>
	<path fill="#349CA5" d="M220.693,383.803c1.534,0,2.77,0.349,3.709,1.046c0.938,0.698,1.408,1.639,1.408,2.821
		c0,0.818-0.227,1.547-0.679,2.186c-0.453,0.64-1.184,1.211-2.191,1.715c1.198,0.644,2.058,1.312,2.58,2.011
		c0.522,0.697,0.784,1.462,0.784,2.295c0,1.314-0.516,2.371-1.545,3.172c-1.03,0.8-2.384,1.2-4.064,1.2
		c-1.753,0-3.13-0.373-4.13-1.118s-1.501-1.801-1.501-3.166c0-0.913,0.243-1.724,0.729-2.433c0.486-0.708,1.266-1.332,2.339-1.873
		c-0.913-0.578-1.57-1.195-1.972-1.852c-0.402-0.657-0.603-1.377-0.603-2.158c0-1.146,0.475-2.075,1.424-2.783
		S219.167,383.803,220.693,383.803z M218.195,395.767c0,0.628,0.219,1.118,0.658,1.469c0.438,0.35,1.037,0.524,1.797,0.524
		c0.84,0,1.468-0.18,1.884-0.542c0.417-0.361,0.625-0.838,0.625-1.43c0-0.489-0.206-0.948-0.619-1.375s-1.083-0.882-2.011-1.364
		C218.973,393.765,218.195,394.671,218.195,395.767z M220.672,386.278c-0.578,0-1.043,0.148-1.397,0.444
		c-0.354,0.296-0.532,0.691-0.532,1.188c0,0.438,0.141,0.83,0.422,1.178c0.281,0.347,0.791,0.703,1.528,1.068
		c0.716-0.336,1.216-0.68,1.501-1.03c0.285-0.35,0.427-0.756,0.427-1.216c0-0.504-0.183-0.902-0.547-1.194
		C221.708,386.424,221.241,386.278,220.672,386.278z"/>
	<path fill="#349CA5" d="M235.386,388.787c0,1.681-0.326,2.942-0.975,3.785c-0.65,0.845-1.604,1.266-2.86,1.266
		c-1.205,0-2.137-0.433-2.793-1.298c-0.658-0.865-0.986-2.116-0.986-3.753c0-3.338,1.26-5.007,3.78-5.007
		c1.235,0,2.182,0.434,2.843,1.299C235.055,385.944,235.386,387.181,235.386,388.787z M230.532,388.81
		c0,0.928,0.082,1.619,0.246,2.076c0.164,0.456,0.429,0.685,0.794,0.685c0.701,0,1.052-0.921,1.052-2.761
		c0-1.826-0.351-2.739-1.052-2.739c-0.365,0-0.63,0.225-0.794,0.674S230.532,387.882,230.532,388.81z M242.923,384.011
		l-8.885,16.018h-2.629l8.885-16.018H242.923z M246.604,395.186c0,1.673-0.325,2.932-0.975,3.774
		c-0.65,0.844-1.604,1.266-2.86,1.266c-1.205,0-2.136-0.433-2.793-1.298c-0.658-0.866-0.986-2.113-0.986-3.742
		c0-3.338,1.26-5.007,3.78-5.007c1.234,0,2.182,0.433,2.843,1.298C246.273,392.343,246.604,393.579,246.604,395.186z
		 M241.75,395.208c0,0.928,0.083,1.619,0.247,2.076c0.164,0.456,0.429,0.685,0.794,0.685c0.702,0,1.052-0.92,1.052-2.761
		c0-1.826-0.351-2.739-1.052-2.739c-0.365,0-0.63,0.225-0.794,0.674C241.833,393.592,241.75,394.28,241.75,395.208z"/>
</g>
</svg>
