<?xml version="1.0" encoding="utf-8"?>
<!-- Generator: Adobe Illustrator 15.0.0, SVG Export Plug-In . SVG Version: 6.00 Build 0)  -->
<!DOCTYPE svg PUBLIC "-//W3C//DTD SVG 1.1//EN" "http://www.w3.org/Graphics/SVG/1.1/DTD/svg11.dtd">
<svg version="1.1" id="Layer_1" xmlns="http://www.w3.org/2000/svg" xmlns:xlink="http://www.w3.org/1999/xlink" x="0px" y="0px"
	 width="480px" height="376px" viewBox="0 0 480 376" enable-background="new 0 0 480 376" xml:space="preserve">
<path opacity="0.06" d="M480,237c0,5.523-4.478,10-10,10H128c-5.522,0-10-4.477-10-10V15c0-5.523,4.478-10,10-10h342
	c5.522,0,10,4.477,10,10V237z"/>
<g>
	<g>
		<path fill="#FFFFFF" d="M466,2H122c-3.86,0-7,3.14-7,7v224c0,3.859,3.14,7,7,7h344c3.859,0,7-3.141,7-7V9
			C473,5.14,469.859,2,466,2z"/>
		<path fill="#CCCCCC" d="M466,0H122c-4.962,0-9,4.038-9,9v224c0,4.963,4.038,9,9,9h344c4.963,0,9-4.037,9-9V9
			C475,4.038,470.963,0,466,0z M473,233c0,3.859-3.141,7-7,7H122c-3.86,0-7-3.141-7-7V9c0-3.86,3.14-7,7-7h344c3.859,0,7,3.14,7,7
			V233z"/>
	</g>
	<path fill="#CCCCCC" d="M466.955,0H121.044C116.602,0,113,3.582,113,8v4v4v8h8.044h345.911H475v-8v-4V8
		C475,3.582,471.398,0,466.955,0z"/>
	<g>
		<circle fill="#EC1B52" cx="125.128" cy="12" r="4.17"/>
		<circle fill="#FFCC33" cx="138.473" cy="12" r="4.17"/>
		<circle fill="#51C197" cx="151.818" cy="12" r="4.17"/>
	</g>
</g>
<path opacity="0.06" d="M430,301c0,5.523-4.478,10-10,10H78c-5.522,0-10-4.477-10-10V79c0-5.523,4.478-10,10-10h342
	c5.522,0,10,4.477,10,10V301z"/>
<g>
	<g>
		<path fill="#FFFFFF" d="M416,66H72c-3.859,0-7,3.14-7,7v224c0,3.859,3.141,7,7,7h344c3.859,0,7-3.141,7-7V73
			C423,69.14,419.859,66,416,66z"/>
		<path fill="#CCCCCC" d="M416,64H72c-4.963,0-9,4.038-9,9v224c0,4.963,4.037,9,9,9h344c4.963,0,9-4.037,9-9V73
			C425,68.038,420.963,64,416,64z M423,297c0,3.859-3.141,7-7,7H72c-3.859,0-7-3.141-7-7V73c0-3.86,3.141-7,7-7h344
			c3.859,0,7,3.14,7,7V297z"/>
	</g>
	<path fill="#CCCCCC" d="M416.955,64H71.044C66.602,64,63,67.582,63,72v4v4v8h8.044h345.911H425v-8v-4v-4
		C425,67.582,421.398,64,416.955,64z"/>
	<g>
		<circle fill="#EC1B52" cx="75.129" cy="76" r="4.17"/>
		<circle fill="#FFCC33" cx="88.473" cy="76" r="4.17"/>
		<circle fill="#51C197" cx="101.818" cy="76" r="4.17"/>
	</g>
</g>
<path opacity="0.06" d="M367,366c0,5.523-4.478,10-10,10H15c-5.522,0-10-4.477-10-10V144c0-5.523,4.478-10,10-10h342
	c5.522,0,10,4.477,10,10V366z"/>
<g>
	<g>
		<path fill="#FFFFFF" d="M353,131H9c-3.86,0-7,3.14-7,7v224c0,3.859,3.14,7,7,7h344c3.859,0,7-3.141,7-7V138
			C360,134.14,356.859,131,353,131z"/>
		<path fill="#CCCCCC" d="M353,129H9c-4.962,0-9,4.038-9,9v224c0,4.963,4.038,9,9,9h344c4.963,0,9-4.037,9-9V138
			C362,133.038,357.963,129,353,129z M360,362c0,3.859-3.141,7-7,7H9c-3.86,0-7-3.141-7-7V138c0-3.86,3.14-7,7-7h344
			c3.859,0,7,3.14,7,7V362z"/>
	</g>
	<path fill="#CCCCCC" d="M353.955,129H8.044C3.602,129,0,132.582,0,137v4v4v8h8.044h345.911H362v-8v-4v-4
		C362,132.582,358.398,129,353.955,129z"/>
	<g>
		<circle fill="#EC1B52" cx="12.128" cy="141" r="4.17"/>
		<circle fill="#FFCC33" cx="25.473" cy="141" r="4.17"/>
		<circle fill="#51C197" cx="38.818" cy="141" r="4.17"/>
	</g>
</g>
</svg>
