<?xml version="1.0" encoding="utf-8"?>
<!-- Generator: Adobe Illustrator 15.0.0, SVG Export Plug-In . SVG Version: 6.00 Build 0)  -->
<!DOCTYPE svg PUBLIC "-//W3C//DTD SVG 1.1//EN" "http://www.w3.org/Graphics/SVG/1.1/DTD/svg11.dtd">
<svg version="1.1" id="Layer_1" xmlns="http://www.w3.org/2000/svg" xmlns:xlink="http://www.w3.org/1999/xlink" x="0px" y="0px"
	 width="426.134px" height="434.003px" viewBox="0 0 426.134 434.003" enable-background="new 0 0 426.134 434.003"
	 xml:space="preserve">
<g>
	<defs>
		<circle id="SVGID_1_" cx="214.049" cy="221.052" r="212.085"/>
	</defs>
	<clipPath id="SVGID_2_">
		<use xlink:href="#SVGID_1_"  overflow="visible"/>
	</clipPath>
	<g clip-path="url(#SVGID_2_)">
		<path fill="#FFFFFF" d="M36.108,350.757c0.471-0.083,0.903-0.152,1.323-0.218l-0.026-0.153
			C36.996,350.504,36.56,350.628,36.108,350.757z"/>
		<path fill="#FFFFFF" d="M-15.271,422.682c-0.086,0.046-0.167,0.089-0.25,0.137c-0.125,0.546-0.245,1.097-0.367,1.648
			C-15.672,423.852-15.468,423.254-15.271,422.682z"/>
		<path fill="#FFFFFF" d="M21.059,359.554c1.665,3.799,3.084,7.371,4.319,10.67c-0.901-3.59-1.934-7.349-3.117-11.203
			C21.854,359.195,21.455,359.373,21.059,359.554z"/>
		<path fill="#FFFFFF" d="M19.341,355.743c0.543-0.253,1.094-0.492,1.646-0.724c-0.005-0.011-0.008-0.021-0.01-0.032
			c-0.584,0.158-1.167,0.319-1.761,0.483C19.258,355.562,19.298,355.653,19.341,355.743z"/>
		<polygon fill="#FFFFFF" points="-65.918,133.782 -8.839,122.338 -9.664,118.225 -25.103,121.321 -26.686,111.245 -10.121,108.173 
			-10.882,104.051 -43.544,110.107 -42.78,114.227 -30.808,112.008 -29.214,122.146 -66.741,129.673 		"/>
		<path fill="#CCCCCC" d="M417.658,414.097l0.628-0.354c1.716-0.518,18.02-4.621,101.825-4.621v-9.778
			c-81.797,0-100.974,3.933-104.912,5.129l-32.518,6.075l-0.369-2.043l18.884-3.723l34.518-5.928l51.589-11.575l-2.144-9.541
			l-2.769,0.624v-20.215l-6.592-35.063l10.829-2.085l-0.794-4.115l-10.812,2.08l-8.928-47.502l18.114-3.568l-1.081-5.486
			l-18.065,3.562l-9.24-49.164l28.376-5.496l-1.062-5.485l-28.347,5.487l-3.988-21.231l35.81-6.628l-0.764-4.122l-35.819,6.632
			l-4.032-21.431l38.577-7.808l14.513-30.534l-27.867,4.895c-0.115,0.019-11.867,1.938-20.408,0.04
			c-4.973-1.102-8.105-1.178-10.4-0.823l-3.454-16.815l39.291-6.945c5.086,3.883,8.461,6.451,9.073,6.913l5.072-6.671
			c-0.549-0.417-41.025-31.194-66.086-51.035c2.951-1.431,7.771-2.604,12.24-3.05l49.545,3.16l0.268-4.187l-49.882-3.179
			l-0.167,0.019c-2.197,0.207-10.649,1.208-15.517,4.45c-7.116-5.671-12.569-10.151-14.807-12.286
			c-5.597-5.347-8.064-11.359-9.127-15.097l16.661-12.4l79.859-38.775l-7.323-15.079L434.45-15.623l-2.99-15.123l-4.114,0.814
			l3.205,16.205l-18.673,9.067l-4.876-21.943l-4.094,0.909l1.076,4.846L353.403-10.44l-3.207-16.113l-4.108,0.817l6.537,32.84
			l-32.458,5.733L310.59-26.64l-4.071,0.993l9.515,39.213l-12.149,2.144l-9.114-42.295l-4.098,0.882l2.975,13.804l-21.888,4.286
			L268.7-24.652l-4.124,0.739l3.068,17.105l-7.129,1.394l-4.4-21.158l-4.104,0.853L256.4-4.607l-9.721,1.904l-5-23.872l-4.104,0.86
			l4.989,23.818l-22.312,4.37l-6.047-29.045l-4.104,0.855l6.04,28.997l-22.153,4.335l-7.25-36.554l-59.004-0.002l9.242,47.719
			l-48.334,9.466L78.229-26.538l-4.12,0.783L84.527,29.05l-16.883,3.305l-5.33-12.873L59.063,8.306l-21.542,2.218l-8.59-38.501
			l-16.363,3.655l11.618,52.03l2.414,12.685l-39.542,7.74l-14.077-74.67l-4.12,0.777l5.664,30.041l-41.303,8.91l0.885,4.101
			l41.195-8.888l4.787,25.389l-46.77,7.849l0.694,4.133l46.853-7.866l4.338,23.019l-51.912,9.361l0.744,4.123l51.944-9.366
			l4.386,23.253l-57.158,12.741l0.912,4.09L-8.86,92.423l7.971,42.268c-32.7,5.726-58.645-0.282-58.909-0.344l-0.974,4.074
			c0.75,0.183,12.774,2.98,30.823,2.98c8.732,0,18.883-0.671,29.834-2.596l5.849,31.019l-2.573,0.5l0.109,0.568l-54.963,19.513
			h-14.643v8.382h16.087l55.104-19.561l12.077,63.53l-77.707,13.823l0.014,0.072c-1.679-0.97-2.622-1.554-2.695-1.603l-2.968,4.734
			c0.266,0.167,2.998,1.867,7.653,4.425l-0.35,0.825c0.186,0.08,14,6.08,33.154,22.393l-22.86-0.35
			c-1.237-1.476-2.458-2.922-3.649-4.332c-6.325-7.497-11.786-13.973-14.207-18.012l-8.385,5.033
			c2.56,4.271,7.481,10.217,13.287,17.112l-4.491-0.069l-0.129,8.384l11.763,0.18c10.143,12.158,20.994,25.909,25.315,36.89
			c2.732,6.944,4.852,14.524,6.352,22.42c-2.028-0.72-3.617-1.598-4.856-2.514c-1.555-1.146-2.638-2.396-3.396-3.576l0.97-0.159
			c-6.761-41.048-24.861-51.808-25.627-52.244l-2.423,4.243l-2.485,4.217c0.132,0.078,11.388,7.227,18.197,32.767l-15.952-28.786
			l-8.554,4.742l19.647,35.452l0.535-0.297c0.793,2.343,2.296,6.774,4.188,12.381c-1.621-0.521-3.178-1.129-4.644-1.777
			c-0.89-2.923-1.57-5.284-1.92-6.649c-1.646-6.399-7.056-14.351-7.285-14.687l-3.458,2.366c0.051,0.076,5.22,7.674,6.685,13.363
			c0.202,0.788,0.479,1.803,0.823,2.992c-3.896-2.226-6.379-4.219-6.438-4.264l-2.649,3.245c0.32,0.261,4.555,3.668,10.784,6.677
			c2.834,9.098,7.239,21.885,10.917,28.99c2.975,5.743,5.984,16.183,8.181,23.807c0.704,2.45,1.256,4.339,1.708,5.819
			c-1.646,1.341-3.268,2.791-4.849,4.373c-18.092,18.091-21.179,41.338-21.303,42.315l9.703,1.229
			c0.027-0.208,2.867-20.98,18.515-36.632c0.094-0.093,0.194-0.182,0.291-0.276c-4.445,18.189-9.398,34.624-9.474,34.871
			l5.822,1.764l-9.17,2.081l2.783,12.263l55.168-12.522l0.415,2.084l4.111-0.817l-0.436-2.195l5.701-1.297
			c5.096,1.682,8.447,2.112,8.673,2.137l0.5-4.16c-0.013,0-0.064-0.009-0.15-0.021l24.38-5.535l2.331,10.953l8.199-1.744
			l-2.138-10.034c8.154,3.343,15.234,4.531,21.178,4.531c7.109,0,12.587-1.699,16.333-3.437c5.822-0.282,11.921-1.088,18.207-2.538
			c6.464-1.489,21.342-4.473,40.224-8.146l0.513,2.621l-83.643,16.571l1.898,9.595l83.626-16.565l0.469,2.395l-15.735,3.144
			l1.095,5.477l15.709-3.135l0.235,1.198l8.229-1.604l-0.241-1.234l45.185-9.024l2.923,15.088l5.486-1.062l-2.928-15.118
			l47.982-9.584l5.109,25.772l5.483-1.086l-5.112-25.786l46.829-9.351l7.277,36.097l4.108-0.831l-7.279-36.089l47.913-9.567
			l8.352,46.562l5.503-0.984l-8.374-46.67l12.213-2.441l83.58-1.74l-0.115-5.585l-83.827,1.745l-0.244,0.002l-12.591,2.515
			l-0.212-1.178l32.866-6.137L417.658,414.097z M476.799,358.668v15.872l-45.812,7.393l-8.74-48.534l48.064-9.257L476.799,358.668z
			 M-11.053,395.19c2.956-7.49,7.95-21.291,10.375-34.508c5.287-1.32,10.679-2.734,15.777-4.102c0.178,0.377,0.35,0.751,0.521,1.125
			c-2.613,1.562-4.963,3.432-6.747,5.67c-6.957,8.706-16.466,36.228-20.015,46.962c-0.672,0.227-1.345,0.463-2.02,0.719
			c0.336-1.866,0.643-3.688,0.915-5.452C-11.725,402.182-11.33,398.702-11.053,395.19z M-11.735,363.332
			c2.126-0.485,4.324-1.003,6.563-1.546c-1.376,6.792-3.401,13.72-5.399,19.735C-10.619,375.438-11.012,369.34-11.735,363.332z
			 M-4.224,324.651c7.503,9.938,13.131,19.444,17.456,28.08c-0.062,0.015-0.124,0.032-0.186,0.048
			c-4.789,1.267-9.073,2.159-12.911,2.746c0.382-2.932,0.597-5.787,0.597-8.49C0.732,338.746-1.468,331.053-4.224,324.651z
			 M12.15,365.985c1.364-1.708,3.166-3.176,5.201-4.439c3.593,8.231,6.018,15.377,7.898,20.933c0.525,1.546,1,2.955,1.45,4.22
			c0.761,2.153,1.708,5.579,2.81,9.541c1.552,5.596,3.418,12.321,5.733,19.254c-3.91-2.555-7.858-4.636-11.728-5.862
			c-8.008-2.536-18.666-3.374-29.758-0.708C-2.226,397.029,6.19,373.446,12.15,365.985z M51.313,144.529l-8.132,1.463l-2.617-14.947
			c2.568-0.495,5.225-1.006,7.962-1.533L51.313,144.529z M49.15,69.159l41.397-8.484l2.09,10.999
			c-15.538,2.88-28.626,5.281-33.712,6.153c-5.12,0.879-8.138-0.613-8.966-4.43L49.15,69.159z M52.08,148.65l2.178,11.737
			l-28.408,5.528l-2.589-12.076L52.08,148.65z M53.375,109.699c0.065-3.797-0.352-8.797-1.731-15.261
			c1.419,0.25,2.96,0.397,4.635,0.397c1.692,0,3.518-0.147,5.478-0.486c5.059-0.866,17.606-3.168,32.596-5.944l5.271,26.979
			c-2.716,0.524-5.41,1.043-8.081,1.56l-3.695-22.807l-4.136,0.673l3.714,22.931c-11.09,2.14-21.669,4.182-31.434,6.064
			L53.375,109.699z M100.428,119.492l2.818,14.425l-30.605,6.317l-1.267-6.575l-4.112,0.792l1.274,6.633l-8.993,1.854l-2.786-15.011
			C70.057,125.36,84.879,122.502,100.428,119.492z M404.765,135.138l-7.066-33.015l7.321-1.426l7.033,32.978L404.765,135.138z
			 M419.394,136.474c1.512,4.847,2.942,11.937,1.437,14.661c-0.871,1.322-6.269,2.997-13.489,4.589l-1.882-16.45L419.394,136.474z
			 M395.696,222.763l-22.279,4.312l-8.793-46.07l21.755-4.405L395.696,222.763z M390.487,175.769l22.524-4.559l3.982,20.868
			l-22.379,4.143L390.487,175.769z M131.561,384.843l-9.553-47.244l20.246-3.996l9.303,47.602L131.561,384.843z M152.358,385.319
			l4.106,21.013l-19.793,3.8l-4.281-21.181L152.358,385.319z M44.778,344.293l-9.194-48.36l41.378-6.693l0.457-2.461l53.562-10.87
			l9.664,49.464L44.778,344.293z M96.047,363.014l-45.705,8.717l-3.238-15.197l-0.761-4.003l45.812-9.042L96.047,363.014z
			 M38.217,354.67l0.66,3.475l7.463,35.042c-3.808-5.569-9.681-16.153-18.139-36.278C32.059,355.767,35.699,355.069,38.217,354.67z
			 M36.108,350.757c0.452-0.129,0.887-0.253,1.296-0.371l0.026,0.153C37.012,350.604,36.577,350.677,36.108,350.757z
			 M319.919,117.25l6.672,33.589l-22.311,4.482l-6.7-33.723L319.919,117.25z M318.617,88.819l11.539-2.293l3.757,19.467
			l-11.499,2.235L318.617,88.819z M149.531,244.631l2.111,12.427l-15.187,3.137l-6.45-33.008l44.013-8.906l1.554-0.248l3.994,20.629
			L149.531,244.631z M153.651,268.886l-15.364,0.695l-1.03-5.269l15.087-3.118L153.651,268.886z M112.26,136.335l31.271-6.454
			l2.401,12.674l-31.274,6.081L112.26,136.335z M112.69,182.262l-10.551,1.867l-1.66-9.856l10.272-1.949L112.69,182.262z
			 M147.494,150.788l2.502,13.201l-31.102,6.315l-2.627-13.44L147.494,150.788z M214.746,188.71l-2.007-10.729l8.99-1.806
			l2.176,10.952L214.746,188.71z M224.717,191.242l1.912,9.644l-9.235,2.011l-1.883-10.064L224.717,191.242z M186.78,197.792
			l2.24,9.631l-9.518,1.503l-1.853-9.56L186.78,197.792z M176.854,195.25l-1.875-9.684l8.557-1.719l2.291,9.856L176.854,195.25z
			 M187.646,183.021l20.983-4.213l1.985,10.614l-20.65,3.568L187.646,183.021z M211.381,193.545l1.88,10.047l-20.092,3.179
			l-2.254-9.696L211.381,193.545z M174.181,181.449l-1.088-5.617l46.92-8.303l0.899,4.534L174.181,181.449z M209.025,165.216
			l-5.27-25.372l10.369-2.014l5.074,25.588L209.025,165.216z M204.898,165.948l-32.604,5.767l-1.485-7.679l32.327-6.567
			L204.898,165.948z M170.011,159.922l-2.522-13.018l8.456-1.646l2.582,12.938L170.011,159.922z M167.588,176.805l1.113,5.745
			l-45.625,9.166l-1.329-6.8L167.588,176.805z M156.266,174.553l-1.379-7.281l10.446-2.122l1.462,7.541L156.266,174.553z
			 M154.105,163.152l-2.496-13.161l10.395-2.026l2.529,13.069L154.105,163.152z M150.047,141.751l-2.41-12.72l10.288-2.125
			l2.484,12.831L150.047,141.751z M150.775,168.105l1.361,7.176l-31.19,5.523l-1.248-6.387L150.775,168.105z M121.789,228.851
			l4.249,21.743l-44.746,9.529l-4.127-22.246L121.789,228.851z M81.599,264.341l45.243-9.635l3.072,15.715l-51.389,10.432
			L81.599,264.341z M128.399,218.958l-4.518-23.13l45.617-9.16l4.48,23.135l-1.447,0.229L128.399,218.958z M180.366,242.776
			l1.552,8.021l-26.17,5.41l-1.404-8.26L180.366,242.776z M182.716,254.913l1.698,8.771l-25.672,4.974l-0.872,0.037l-1.419-8.352
			L182.716,254.913z M181.097,217.165l9.828-1.557l4.905,21.083l10.025,9.158l-18.463,3.814L181.097,217.165z M208.561,249.569
			l1.393,9.167L189.9,262.62l-1.71-8.839L208.561,249.569z M199.616,234.471l-4.542-19.519l23.038-3.641l10.148-2.209l8.803,44.384
			l-22.996,4.452l-1.807-11.917L199.616,234.471z M280.743,189.429l-21.038,4.26l-27.614,6.008l-1.864-9.408l48.94-8.447
			L280.743,189.429z M279.847,164.503l21.141-4.245l4.791,24.107l-20.932,4.234L279.847,164.503z M229.412,186.177l-2.204-11.102
			l48.531-9.744l2.576,12.409L229.412,186.177z M233.723,207.917l21.553-4.684l3.735,20.714l-21.293,4.124L233.723,207.917z
			 M259.76,228.069l3.663,20.314l-20.874,4.043l-4.015-20.245L259.76,228.069z M263.129,223.146l-3.751-20.81l2.05-0.445
			l20.892-4.227l3.705,21.05L263.129,223.146z M286.751,222.845l3.576,20.327l-22.793,4.413l-3.663-20.312L286.751,222.845z
			 M286.431,196.832l47.364-9.587l4.082,21.351l-24.181,4.849l4.849,24.259l-24.1,4.67L286.431,196.832z M338.667,212.711
			l3.888,20.339l-19.896,3.855l-4.032-20.175L338.667,212.711z M343.557,238.553l4.198,24.241l-48.051,9.492l-4.295-24.411
			L343.557,238.553z M348.472,266.925l4.247,24.525l-47.957,9.593l-4.332-24.626L348.472,266.925z M347.674,237.755l22.677-4.394
			l9.432,49.423l-10.051,1.98l-0.278,0.057l-12.706,5.318L347.674,237.755z M346.671,232.259l-8.771-45.846l22.614-4.577
			l8.788,46.039L346.671,232.259z M336.296,178.187l-4.778-24.062l48.442-9.73l4.776,23.987L336.296,178.187z M332.189,179.018
			l-22.304,4.514l-4.79-24.1l22.312-4.48L332.189,179.018z M300.172,156.146l-21.174,4.251l-7.02-33.822l21.489-4.181
			L300.172,156.146z M274.887,161.225l-48.495,9.741l-6.782-34.203l48.251-9.385L274.887,161.225z M217.979,128.541l-2.665-13.454
			l48.406-9.539l2.525,13.602L217.979,128.541z M214.499,110.976l-2.588-13.037c18.769-3.634,35.567-6.885,48.65-9.42l2.396,12.911
			L214.499,110.976z M212.495,129.609l-10.442,2.03l-2.755-13.271l10.535-2.172L212.495,129.609z M199.642,140.646l2.643,12.722
			l-19.65,3.989l-2.573-12.903L199.642,140.646z M178.421,136.235l-2.599-13.021l19.368-3.999l2.748,13.223L178.421,136.235z
			 M175.002,119.105l-2.694-13.508c6.527-1.261,12.97-2.509,19.281-3.73l2.748,13.242L175.002,119.105z M174.306,137.034
			l-8.411,1.637l-2.498-12.892l8.318-1.718L174.306,137.034z M162.603,121.662l-2.649-13.674c2.756-0.533,5.501-1.065,8.239-1.593
			l2.704,13.553L162.603,121.662z M159.158,103.876L156.2,88.599l8.122-1.622l3.054,15.307
			C164.644,102.814,161.906,103.341,159.158,103.876z M157.129,122.792l-10.27,2.121l-2.633-13.881
			c3.417-0.661,6.833-1.32,10.242-1.981L157.129,122.792z M143.445,106.913l-2.88-15.194l10.154-2.027l2.951,15.245
			C150.267,105.594,146.857,106.253,143.445,106.913z M142.751,125.761l-31.295,6.46l-2.797-14.315
			c10.31-1.993,20.868-4.034,31.451-6.078L142.751,125.761z M109.945,168.21l-10.162,1.927l-1.641-9.745l9.899-1.926L109.945,168.21
			z M75.717,156.211l-2.284-11.859l30.614-6.32l2.385,12.207L75.717,156.211z M96.359,175.055l1.648,9.803l-16.227,2.871
			l-1.836-9.557L96.359,175.055z M79.151,174.058l-1.851-9.614l16.721-3.25l1.638,9.729L79.151,174.058z M75.034,174.836
			l-9.245,1.753l-1.772-9.561l9.17-1.785L75.034,174.836z M75.824,178.953l1.832,9.505l-9.355,1.654l-1.749-9.399L75.824,178.953z
			 M113.495,186.378l6.69,34.243l-44.549,9.013l-6.569-35.4L113.495,186.378z M139.37,275.124l19.827-0.89l0.206-0.015l26.074-5.045
			l9.238,47.697l-45.564,8.313L139.37,275.124z M190.964,268.105l47.186-9.138l9.801,49.409l-3.016-0.67l-44.721,8.159
			L190.964,268.105z M243.638,257.905l47.657-9.229l9.358,53.187l-43.172,8.633l-3.571-0.794L243.638,257.905z M257.422,316.208
			l44.271-8.854l8.729,43.303l-46.613,8.978l-8.715-43.94L257.422,316.208z M305.798,306.534l47.98-9.598l9.257,43.59l-48.497,9.34
			L305.798,306.534z M357.81,295.749l13.279-5.559l36.749-7.244l9.507,47.127l-50.193,9.663L357.81,295.749z M383.894,281.972
			l-5.44-28.501l22.636-3.985l5.645,27.984L383.894,281.972z M377.672,249.357l-3.206-16.788l22.336-4.329l3.456,17.14
			L377.672,249.357z M384.068,143.572l17.267-3.47l1.886,16.478c-5.031,0.994-10.62,1.914-16.037,2.639L384.068,143.572z
			 M400.661,135.963l-17.413,3.499l-6.615-33.244l16.95-3.297L400.661,135.963z M379.139,140.284l-48.439,9.728l-6.669-33.561
			l48.489-9.431L379.139,140.284z M335.876,94.044l-1.608-8.333l7.957-1.582l1.682,8.485L335.876,94.044z M344.719,96.726
			l1.369,6.896l-8.061,1.567l-1.355-7.026L344.719,96.726z M350.199,102.819l-3.865-19.506l20.648-4.104l3.898,19.591
			L350.199,102.819z M317.812,84.705L310.2,45.758l48.397-8.675l7.566,38.017L317.812,84.705z M318.298,109.026l-11.306,2.2
			l-5.748-29.508l11.231-2.463L318.298,109.026z M302.878,112.024l-6.992,1.361l-6.226-29.129l7.489-1.64L302.878,112.024z
			 M291.771,114.186l-21.414,4.166l-5.683-30.629c9.453-1.831,16.579-3.211,20.588-3.988L291.771,114.186z M263.91,83.603
			l-5.089-27.418l19.695-4.028l5.87,27.48C280.367,80.413,273.28,81.788,263.91,83.603z M259.794,84.398
			c-13.093,2.533-29.909,5.792-48.7,9.428l-5.312-26.789l48.935-10.009L259.794,84.398z M206.422,98.998l2.595,13.083l-10.574,2.184
			l-2.738-13.19C199.331,100.37,202.909,99.681,206.422,98.998z M194.851,96.97l-3.208-15.449l10.884-2.173l3.08,15.542
			C202.08,95.566,198.491,96.263,194.851,96.97z M190.792,77.415l-1.457-7.014l10.972-2.245l1.403,7.081L190.792,77.415z
			 M190.736,97.767c-6.299,1.218-12.734,2.463-19.249,3.722l-3.058-15.333l19.104-3.816L190.736,97.767z M155.401,84.482
			l-1.396-7.204c11.531-2.162,19.706-3.697,20.819-3.91l10.405-2.127l1.453,6.998L155.401,84.482z M171.662,56.905
			c-0.387,0.072-2.304,0.433-5.362,1.005l-8.195-38.998l15.363-3.007l8.305,38.929L171.662,56.905z M162.181,58.682
			c-3.184,0.6-7.035,1.323-11.362,2.133l-7.551-38.996l10.727-2.101L162.181,58.682z M149.92,85.577l-10.135,2.025l-1.401-7.399
			c3.52-0.661,6.917-1.296,10.128-1.898L149.92,85.577z M139.328,107.708c-5.62,1.087-11.237,2.173-16.812,3.249l-2.94-15.048
			l16.878-3.373L139.328,107.708z M118.771,91.796l-1.495-7.653c5.74-1.071,11.476-2.144,16.989-3.174l1.41,7.449L118.771,91.796z
			 M118.399,111.753c-3.539,0.683-7.054,1.366-10.544,2.038l-2.923-14.959l10.531-2.101L118.399,111.753z M104.128,94.717
			l-1.53-7.841c3.461-0.643,6.998-1.301,10.555-1.963l1.506,7.705L104.128,94.717z M69.327,145.201l2.275,11.809l-9.119,1.775
			l-2.176-11.728L69.327,145.201z M60.851,195.923l6.567,35.373l-42.489,8.595l-6.478-34.071L60.851,195.923z M68.946,239.541
			l4.365,23.514l-3.51,18.848l-32.956,5.33c-0.974-0.003-1.949-0.019-2.926-0.047l-7.427-39.057L68.946,239.541z M27.18,296.621
			l9.436,49.625c-3.057,0.875-7.562,2.155-12.854,3.618c-5.416-15.319-13.279-31.34-24.619-43.857
			c-3.244-3.579-6.422-6.884-9.525-9.961L27.18,296.621z M25.378,370.224c-1.234-3.299-2.651-6.871-4.319-10.67
			c0.396-0.184,0.795-0.36,1.199-0.533C23.442,362.875,24.477,366.631,25.378,370.224z M20.987,355.021
			c-0.551,0.232-1.102,0.472-1.646,0.725c-0.041-0.093-0.083-0.184-0.126-0.275c0.594-0.161,1.18-0.325,1.761-0.481
			C20.979,354.998,20.981,355.009,20.987,355.021z M35.193,400.993c-0.174-1.954-1.339-13.696-4.983-29.078
			c6.102,13.271,12.687,25.429,17.955,29.848l6.212,29.169c-4.098-3.697-8.557-7.644-13.166-11.181
			C38.794,413.213,36.812,406.665,35.193,400.993z M51.213,375.834l45.651-8.708l4.62,23.189l-45.428,8.266L51.213,375.834z
			 M96.265,342.676l21.632-4.268l9.539,47.185l-21.827,3.972L96.265,342.676z M128.265,389.701l4.291,21.219l-21.854,4.192
			l-4.271-21.437L128.265,389.701z M157.267,410.446l4.316,22.102l-45.737,8.388l-4.326-21.712L157.267,410.446z M150.221,330.671
			l45.558-8.312l9.404,48.562l-45.389,8.738L150.221,330.671z M201.275,321.354l43.549-7.944l4.312,0.957l9.187,46.325
			l-47.651,9.172L201.275,321.354z M259.138,364.8l3.58,18.05l-47.477,10.596l-3.771-19.468L259.138,364.8z M263.532,386.964
			l5.249,26.47l-48.065,8.302l-4.683-24.172L263.532,386.964z M264.627,363.743l46.625-8.977l9.88,49.008l-46.846,8.675
			L264.627,363.743z M315.366,353.976l23.291-4.484l9.371,49.302l-22.776,4.223L315.366,353.976z M342.774,348.696l21.134-4.065
			l10.463,49.281l-22.222,4.117L342.774,348.696z M373.729,370.708l-5.707-26.871l50.11-9.647l8.715,48.41l-21.806,3.515
			c-0.736-2.485-1.892-6.819-2.844-12.312c-0.551-3.186-1.986-5.388-4.263-6.55c-3.669-1.872-8.042-0.163-9.231,0.371
			L373.729,370.708z M469.538,320.024l-48.076,9.258l-9.512-47.145l48.663-9.593L469.538,320.024z M450.338,217.872l9.242,49.18
			l-48.735,9.607l-9.929-49.216L450.338,217.872z M449.305,212.375l-49.496,9.59l-4.364-21.637l49.862-9.23L449.305,212.375z
			 M448.996,139.312c10.111,2.246,23.054,0.134,23.639,0.038l11.912-2.092l-5.744,12.083l-33.111,6.702l-3.587-17.485
			C443.432,138.421,445.484,138.529,448.996,139.312z M440.522,165.643l4.009,21.337l-23.413,4.333l-4-20.935L440.522,165.643z
			 M437.479,157.706l-48.639,9.845l-0.84-4.222c3.157-0.438,9.238-1.331,15.43-2.519c16.604-3.183,19.966-5.648,21.064-7.638
			c2.361-4.283,0.512-12.448-0.784-16.892l9.458,0.42L437.479,157.706z M471.726,103.088l-35.61,6.295l-3.306-16.111l20.057-4.655
			C459.804,93.959,466.347,98.974,471.726,103.088z M448.579,85.308l-16.544,3.84l-3.222-19.189
			C435.182,74.946,441.981,80.217,448.579,85.308z M424.979,96.814l7.318,35.655l-9.999-0.446l-0.138-0.379l-5.999,1.205
			l-7.026-32.953L424.979,96.814z M400.206,46.74c2.74,2.617,9.826,8.398,18.812,15.514l4.421,26.324l-48.442,9.42l-12.273-61.657
			l12.112-2.173l14.497-4.556C390.916,34.377,394.048,40.861,400.206,46.74z M385.265,13.316l-14.438,4.539l-11.378,2.038
			l-1.874-9.41l41.295-7.295L385.265,13.316z M404.904-16.754l3.104,13.979l-0.314,0.153l-50.937,8.995l-2.525-12.703
			L404.904-16.754z M353.447,11.213l1.877,9.423l-48.499,8.696l-2.052-9.521L353.447,11.213z M306.078,46.517l5.596,28.621
			l-22.888,5.021l-6.166-28.843L306.078,46.517z M302.702,30.096l-23.312,4.771l-4.415-24.612l22.498-4.439L302.702,30.096z
			 M294.538-7.805l2.052,9.525l-22.356,4.405l-1.725-9.614L294.538-7.805z M275.284,35.708l-19.709,4.031l-5.158-24.638
			l20.446-4.037L275.284,35.708z M268.395-2.682l1.727,9.62l-20.564,4.055l-2.009-9.596L268.395-2.682z M243.434,2.204l8.035,38.375
			l-22.319,4.563l-8.031-38.568L243.434,2.204z M217.004,7.384l8.041,38.6l-22.522,4.607l-7.709-38.867L217.004,7.384z
			 M197.045,51.712l-11.164,2.283l-8.298-38.896l11.747-2.3L197.045,51.712z M182.158-23.356l6.354,32.044l-20.882,4.09
			l-6.833-36.135H182.158z M156.533-23.356l6.984,36.938l-6.272,1.231l-8.019-38.167L156.533-23.356L156.533-23.356z
			 M134.518-23.356h10.422l8.192,38.974l-10.663,2.084L134.518-23.356z M103.916,29.526l1.875,8.938l4.104-0.863l-1.867-8.883
			l29.753-5.825l7.542,38.95c-14.385,2.691-32.476,6.072-48.565,9.06L89.432,32.36L103.916,29.526z M85.32,33.167l2.057,10.824
			l-16.406,3.345L68.83,36.397L85.32,33.167z M88.16,48.111l1.605,8.447l-41.396,8.481l-1.619-8.492L88.16,48.111z M66.864,48.173
			l-20.896,4.26l-2.122-11.144l20.871-4.088L66.864,48.173z M59.911,24.589l3.549,8.589l-20.397,3.992l-1.939-10.166L59.911,24.589z
			 M56.022,12.834l2.25,7.737l-17.985,2.313l-1.837-8.237L56.022,12.834z M-12.157,52.255l39.549-7.745l4.55,23.896l-39.528,8.098
			L-12.157,52.255z M-6.809,80.623l39.537-8.097l0.745,3.918c0.081,0.431,0.293,1.423,0.729,2.724
			c0.184,7.301,1.818,22.641,11.526,35.266l2.036,10.958c-20.424,3.935-36.398,7.003-44.521,8.544L-6.809,80.623z M4.019,138.055
			c6.443-1.223,17.812-3.404,32.428-6.217l2.608,14.898l-32.304,5.818L4.019,138.055z M7.53,156.673l11.604-2.09l2.6,12.131
			l-11.878,2.309L7.53,156.673z M12.965,176.958l42.823-8.329l4.299,23.169l-42.419,9.903L12.965,176.958z M17.986,248.25
			l7.295,38.384c-31.746-3.117-62.773-17.502-78.359-25.74L17.986,248.25z M-32.194,276.948c1.622,0.674,3.281,1.348,4.983,2.016
			c7.938,3.116,17.305,6.317,27.43,8.86l-19.636-0.298C-23.962,283.464-28.249,279.958-32.194,276.948z M-16.502,295.952
			c4.047,3.858,8.242,8.132,12.54,12.871c10.759,11.874,18.313,27.314,23.576,42.182c-0.739,0.201-1.49,0.408-2.25,0.613
			c-4.704-9.504-10.953-20.076-19.51-31.164c-9.753-12.628-20.443-20.199-29.344-24.73L-16.502,295.952z M-41.447,296.011
			c6.271,2.285,14.766,6.434,23.461,13.832c1.541,1.867,14.526,18.152,14.526,37.192c0,2.842-0.264,5.898-0.715,9.047
			c-3.2,0.333-6.035,0.428-8.546,0.338c-1.621-9.788-4.136-19.205-7.492-27.742C-24.205,318.536-32.662,306.905-41.447,296.011z
			 M-15.271,422.682c-0.199,0.572-0.401,1.17-0.616,1.782c0.124-0.549,0.245-1.1,0.367-1.648
			C-15.438,422.771-15.354,422.728-15.271,422.682z M-21.403,400.318c-1.949-10.991-5.271-23.472-8.261-33.668
			c2.226-0.216,5.065-0.665,8.323-1.283C-20.013,376.961-19.996,388.908-21.403,400.318z M-30.435,355.441
			c2.303,1.729,5.065,3.031,8.276,3.902c0.097,0.617,0.191,1.242,0.283,1.866c-3.668,0.708-6.769,1.184-9.009,1.34
			c-1.358-4.5-2.589-8.361-3.508-11.192C-33.439,352.736-32.164,354.143-30.435,355.441z M-45.729,364.322
			c1.487,0.534,3.041,1.013,4.641,1.408c0.234,0.69,0.471,1.396,0.71,2.108c1.1,5.617,1.861,11.323,1.804,16.208
			C-41.072,378.157-43.677,370.664-45.729,364.322z M-41.775,345.677l0.985-0.543c0.314,1.576,0.618,3.189,0.897,4.883l0.611-0.098
			c0.831,2.505,2.283,6.981,3.979,12.558c-0.662-0.062-1.318-0.153-1.974-0.259C-38.745,355.719-40.492,349.756-41.775,345.677z
			 M-36.352,366.583c0.774,0.085,1.549,0.152,2.332,0.188c2.6,8.817,5.51,19.499,7.54,29.368c-3.21-9.674-6.785-20.322-9.832-29.36
			C-36.325,366.715-36.336,366.648-36.352,366.583z M-27.693,413.805c-2.008-6.968-4.679-16.232-7.486-22.487
			c0.417-1.753,0.653-3.708,0.739-5.806c3.889,11.62,7.764,23.315,10.241,31.064c-0.753,0.479-1.503,0.985-2.248,1.507
			C-26.854,416.72-27.282,415.228-27.693,413.805z M-27.168,467.488c0.358-1.208,0.853-2.904,1.458-4.999
			c1.6-3.55,3.477-8.245,5.391-13.3l5.663,15.46L-27.168,467.488z M-10.536,463.712l-7.532-20.562
			c1.2-3.271,2.378-6.551,3.472-9.649c7.253,12.324,16.138,20.442,23.939,25.703L-10.536,463.712z M-12.746,428.219
			c1.072-3.087,2.003-5.81,2.718-7.906c5.793-2.229,11.58-3.2,16.931-3.271l8.092,40.741
			C5.717,452.263-4.805,443.149-12.746,428.219z M19.109,456.984l-7.906-39.805c3.416,0.269,6.581,0.892,9.358,1.774
			c6.788,2.151,14.562,8.121,21.747,14.342c2.95,6.112,6.379,11.709,10.394,16.064L19.109,456.984z M57.524,448.266
			c-1.791-1.683-3.474-3.664-5.059-5.882c1.864,1.683,3.658,3.271,5.352,4.699l0.226,1.064L57.524,448.266z M56.933,402.686
			l45.374-8.26l4.279,21.477l-45,8.634L56.933,402.686z M69.268,455.15l1.208-0.222c5.109,2.181,11.139,3.907,17.872,4.918
			C82.948,459.611,76.571,458.312,69.268,455.15z M78.838,447.714c-5.157-1.69-9.429-3.896-12.569-6.359
			c-0.428-0.333-0.874-0.695-1.328-1.072l-2.482-11.647l44.947-8.621l4.318,21.672L78.838,447.714z M122.578,448.651
			c-10.55,2.43-20.422,2.902-29.065,2.054l69.144-12.674l0.467,2.399C144.174,444.116,129.194,447.12,122.578,448.651z
			 M160.599,383.774l45.379-8.737l2.894,14.934l-45.386,8.581L160.599,383.774z M164.288,402.663l45.383-8.576l5.545,28.63
			l-45.385,8.317L164.288,402.663z M170.902,436.523l45.377-8.318l0.378,1.968c-15.743,2.982-31.339,5.965-45.302,8.662
			L170.902,436.523z M173.23,448.436c13.94-2.695,29.537-5.672,45.288-8.659l0.445,2.289l-45.23,8.957L173.23,448.436z
			 M176.078,463.003l-0.467-2.38l45.212-8.955l0.446,2.31L176.078,463.003z M222.149,429.129l-0.37-1.903l48.092-8.31l0.233,1.187
			C255.319,422.872,238.754,425.989,222.149,429.129z M224.443,440.979l-0.431-2.24c16.618-3.146,33.206-6.266,47.996-9.038
			l0.355,1.785L224.443,440.979z M226.748,452.881l-0.443-2.3l47.96-9.503l0.441,2.227L226.748,452.881z M275.599,419.072
			l-0.228-1.14l46.866-8.682l0.22,1.085C317.987,411.167,299.615,414.579,275.599,419.072z M277.502,428.67
			c24.48-4.585,43.052-8.032,46.889-8.748l0.291,1.455l-22.423,4.189l-24.413,4.836L277.502,428.67z M280.189,442.21l-0.441-2.215
			l24.358-4.828l22.512-4.202l0.381,1.9L280.189,442.21z M326.568,409.534l-0.207-1.046l48.655-9.012l0.086,0.486L326.568,409.534z
			 M328.502,419.121l48.328-9.534l0.354,1.987l-48.381,9.033L328.502,419.121z M331.108,432.043l-0.373-1.848l48.176-8.996
			l0.226,1.249L331.108,432.043z M378.445,392.912l-3.845-18.106l15.188-3.13l0.26-0.056l0.231-0.11
			c0.975-0.471,3.9-1.478,5.761-0.52c1.029,0.533,1.713,1.718,2.027,3.528c0.958,5.516,2.096,9.866,2.867,12.505L378.445,392.912z
			 M380.457,398.157l23.924-6.275l63.133-10.184l-33.577,7.538l-34.456,5.916l-18.896,3.728L380.457,398.157z"/>
	</g>
</g>
<radialGradient id="SVGID_3_" cx="214.0488" cy="221.0518" r="212.085" gradientUnits="userSpaceOnUse">
	<stop  offset="0" style="stop-color:#EDEFF0;stop-opacity:0"/>
	<stop  offset="0.8675" style="stop-color:#EDEFF0;stop-opacity:0.8675"/>
	<stop  offset="1" style="stop-color:#EDEFF0"/>
</radialGradient>
<circle fill="url(#SVGID_3_)" cx="214.049" cy="221.052" r="212.085"/>
<g>
	<path opacity="0.1" enable-background="new    " d="M105.159,167.943c14,0,25.35,3.845,25.35,8.591c0,4.744-11.35,8.59-25.35,8.59
		c-13.998,0-25.348-3.846-25.348-8.59C79.811,171.789,91.161,167.943,105.159,167.943z"/>
	<g>
		<path fill="#BC1348" d="M134.287,114.084c0-15.947-12.927-28.668-28.871-28.668c-15.941,0-28.873,12.582-28.873,28.527
			c0,7.499,2.882,14.312,7.568,19.091h-0.047c0,0,19.804,20.507,19.804,43.88l-0.022,0.329h3.385
			c0-22.701,19.603-44.209,19.603-44.209h-0.045C131.438,128.252,134.287,121.545,134.287,114.084z M105.42,120.164
			c-3.798,0-6.881-3.078-6.881-6.874c0-3.796,3.083-6.874,6.881-6.874c3.793,0,6.871,3.078,6.871,6.874
			C112.291,117.086,109.214,120.164,105.42,120.164z"/>
		<path fill="none" d="M86.569,129.661c-0.014,0-0.02,0-0.02,0H86.569C86.569,129.664,86.569,129.661,86.569,129.661"/>
		<path fill="#EC1B52" d="M129.479,114.507c0-13.287-10.771-24.071-24.058-24.071c-13.29,0-24.062,10.89-24.062,24.179
			c0,5.642,1.958,10.933,5.211,15.028c0.029,0,0.093,0.022,0.182,0.128c0.081,0.098,0.165-0.226,0.248-0.125
			c2.857,3.434,18.417,22.498,18.417,30.86h0.438c0-8.363,15.607-27.987,18.092-31.035c0.025-0.035,0.053,0.125,0.081,0.092
			c0.163-0.201,0.26-0.127,0.26-0.127h-0.025C127.521,124.665,129.479,120.152,129.479,114.507z M105.42,120.164
			c-3.798,0-6.881-3.078-6.881-6.874c0-3.796,3.083-6.874,6.881-6.874c3.793,0,6.871,3.078,6.871,6.874
			C112.291,117.086,109.214,120.164,105.42,120.164z"/>
		<path fill="#BC1348" d="M105.165,102.292c-6.078,0-11.001,4.924-11.001,11.001c0,6.072,4.923,10.997,11.001,10.997
			c6.071,0,10.998-4.925,10.998-10.997C116.162,107.214,111.235,102.292,105.165,102.292z M105.165,120.164
			c-3.799,0-6.876-3.078-6.876-6.874c0-3.796,3.077-6.874,6.876-6.874c3.792,0,6.87,3.078,6.87,6.874
			C112.038,117.086,108.957,120.164,105.165,120.164z"/>
	</g>
</g>
<path fill="#EC1B52" d="M381.032,258.506c-2.101-9.667-4.202-19.333-6.303-29c-0.458-2.108-2.696-2.99-4.613-2.619
	c-47.45,9.194-94.901,18.387-142.352,27.581c-19.538,3.785-39.075,7.571-58.613,11.356c-3.517,0.681-7.035,1.363-10.552,2.044
	c1.907-0.369-0.551-0.028-1.332,0.019c-2.767,0.166-5.534,0.332-8.301,0.498c-3.805,0.228-7.609,0.457-11.413,0.685
	c-5.646-29.438-11.292-58.875-16.937-88.313c-0.401-2.089-2.742-3.02-4.613-2.619c-3.5,0.75-7,1.5-10.5,2.25
	c-4.728,1.013-2.722,8.243,1.994,7.232c2.184-0.468,4.368-0.936,6.551-1.404c5.612,29.261,11.224,58.523,16.835,87.785
	c0.297,1.551,2.062,2.847,3.616,2.753c8.75-0.525,18.101-0.104,26.712-1.772c6.321-1.225,12.642-2.449,18.963-3.674
	c28.383-5.5,56.766-10.999,85.149-16.498c34.301-6.646,68.604-13.292,102.905-19.938c1.856,8.543,3.714,17.085,5.57,25.629
	C374.827,265.225,382.057,263.221,381.032,258.506z"/>
</svg>
