<?xml version="1.0" encoding="utf-8"?>
<!-- Generator: Adobe Illustrator 15.0.0, SVG Export Plug-In . SVG Version: 6.00 Build 0)  -->
<!DOCTYPE svg PUBLIC "-//W3C//DTD SVG 1.1//EN" "http://www.w3.org/Graphics/SVG/1.1/DTD/svg11.dtd">
<svg version="1.1" id="Layer_1" xmlns="http://www.w3.org/2000/svg" xmlns:xlink="http://www.w3.org/1999/xlink" x="0px" y="0px"
	 width="508.5px" height="434.003px" viewBox="0 0 508.5 434.003" enable-background="new 0 0 508.5 434.003" xml:space="preserve">
<g>
	<path fill="#CCCCCC" d="M149,22H33C14.804,22,0,36.804,0,55v276c0,18.195,14.804,33,33,33h116c18.196,0,33-14.805,33-33V55
		C182,36.804,167.196,22,149,22z M180,331c0,17.094-13.906,31-31,31H33c-17.094,0-31-13.906-31-31V55c0-17.093,13.906-31,31-31h116
		c17.094,0,31,13.907,31,31V331z"/>
	<path fill="#CCCCCC" d="M16,322h150V66H16V322z M18,68h146v252H18V68z"/>
	<path fill="#CCCCCC" d="M72.5,49.829c2.757,0,5-2.243,5-5s-2.243-5-5-5s-5,2.243-5,5S69.743,49.829,72.5,49.829z M72.5,41.829
		c1.654,0,3,1.346,3,3c0,1.654-1.346,3-3,3s-3-1.346-3-3C69.5,43.175,70.846,41.829,72.5,41.829z"/>
	<path fill="#CCCCCC" d="M88.5,50h21c2.481,0,4.5-2.243,4.5-5s-2.019-5-4.5-5h-21c-2.481,0-4.5,2.243-4.5,5S86.019,50,88.5,50z
		 M88.5,42h21c1.379,0,2.5,1.346,2.5,3s-1.121,3-2.5,3h-21c-1.379,0-2.5-1.346-2.5-3S87.121,42,88.5,42z"/>
	<path fill="#CCCCCC" d="M91,330.833c-6.341,0-11.5,5.159-11.5,11.5s5.159,11.5,11.5,11.5s11.5-5.159,11.5-11.5
		S97.341,330.833,91,330.833z M91,352.833c-5.79,0-10.5-4.71-10.5-10.5s4.71-10.5,10.5-10.5s10.5,4.71,10.5,10.5
		S96.79,352.833,91,352.833z"/>
</g>
<g>
	<path fill="#CCCCCC" d="M393.134,22h-116c-18.196,0-33,14.804-33,33v276c0,18.195,14.804,33,33,33h116c18.196,0,33-14.805,33-33V55
		C426.134,36.804,411.33,22,393.134,22z M424.134,331c0,17.094-13.906,31-31,31h-116c-17.094,0-31-13.906-31-31V55
		c0-17.093,13.906-31,31-31h116c17.094,0,31,13.907,31,31V331z"/>
	<path fill="#CCCCCC" d="M260.134,322h150V66h-150V322z M262.134,68h146v252h-146V68z"/>
	<path fill="#CCCCCC" d="M316.634,49.829c2.757,0,5-2.243,5-5s-2.243-5-5-5s-5,2.243-5,5S313.877,49.829,316.634,49.829z
		 M316.634,41.829c1.654,0,3,1.346,3,3c0,1.654-1.346,3-3,3s-3-1.346-3-3C313.634,43.175,314.979,41.829,316.634,41.829z"/>
	<path fill="#CCCCCC" d="M332.634,50h21c2.481,0,4.5-2.243,4.5-5s-2.019-5-4.5-5h-21c-2.481,0-4.5,2.243-4.5,5
		S330.152,50,332.634,50z M332.634,42h21c1.379,0,2.5,1.346,2.5,3s-1.121,3-2.5,3h-21c-1.379,0-2.5-1.346-2.5-3
		S331.255,42,332.634,42z"/>
	<path fill="#CCCCCC" d="M335.134,330.833c-6.341,0-11.5,5.159-11.5,11.5s5.159,11.5,11.5,11.5s11.5-5.159,11.5-11.5
		S341.475,330.833,335.134,330.833z M335.134,352.833c-5.79,0-10.5-4.71-10.5-10.5s4.71-10.5,10.5-10.5s10.5,4.71,10.5,10.5
		S340.924,352.833,335.134,352.833z"/>
</g>
<g id="XMLID_1_">
	<g id="XMLID_2_">
		<rect x="128.34" y="51.923" fill="#FFFFFF" width="164.79" height="284.42"/>
		<path fill="#FFFFFF" d="M276.2,2.253c19.29,0,34.99,15.7,34.99,34.99v311.51c0,19.29-15.7,34.99-34.99,34.99H145.27
			c-19.29,0-34.98-15.7-34.98-34.99V37.243c0-19.29,15.69-34.99,34.98-34.99H276.2z M207.91,31.603h23.71c2.8,0,5.08-2.53,5.08-5.64
			c0-3.12-2.28-5.65-5.08-5.65h-23.71c-2.8,0-5.07,2.53-5.07,5.65C202.84,29.073,205.11,31.603,207.91,31.603z M210.74,374.522
			c7.15,0,12.98-5.819,12.98-12.979c0-7.15-5.83-12.98-12.98-12.98c-7.16,0-12.98,5.83-12.98,12.98
			C197.76,368.703,203.58,374.522,210.74,374.522z M189.86,31.413c3.11,0,5.64-2.53,5.64-5.65c0-3.11-2.53-5.64-5.64-5.64
			c-3.12,0-5.65,2.53-5.65,5.64C184.21,28.883,186.74,31.413,189.86,31.413z M295.38,338.593V49.663H126.09v288.93H295.38z"/>
		<path fill="#CCCCCC" d="M202.84,25.963c0-3.12,2.27-5.65,5.07-5.65h23.71c2.8,0,5.08,2.53,5.08,5.65c0,3.11-2.28,5.64-5.08,5.64
			h-23.71C205.11,31.603,202.84,29.073,202.84,25.963z M207.91,22.573c-1.55,0-2.82,1.52-2.82,3.39c0,1.86,1.27,3.38,2.82,3.38
			h23.71c1.55,0,2.82-1.52,2.82-3.38c0-1.87-1.27-3.39-2.82-3.39H207.91z"/>
		<path fill="#CCCCCC" d="M197.76,361.543c0-7.15,5.82-12.98,12.98-12.98c7.15,0,12.98,5.83,12.98,12.98
			c0,7.16-5.83,12.979-12.98,12.979C203.58,374.522,197.76,368.703,197.76,361.543z M210.74,349.693
			c-6.54,0-11.85,5.319-11.85,11.85c0,6.54,5.31,11.85,11.85,11.85c6.53,0,11.85-5.31,11.85-11.85
			C222.59,355.013,217.27,349.693,210.74,349.693z"/>
		<path fill="#CCCCCC" d="M193.24,25.763c0-1.86-1.52-3.38-3.38-3.38c-1.87,0-3.39,1.52-3.39,3.38c0,1.87,1.52,3.39,3.39,3.39
			C191.72,29.153,193.24,27.633,193.24,25.763z M195.5,25.763c0,3.12-2.53,5.65-5.64,5.65c-3.12,0-5.65-2.53-5.65-5.65
			c0-3.11,2.53-5.64,5.65-5.64C192.97,20.123,195.5,22.653,195.5,25.763z"/>
		<path fill="#CCCCCC" d="M126.09,49.663h169.29v288.93H126.09V49.663z M128.34,336.343h164.79V51.923H128.34V336.343z"/>
		<path fill="#CCCCCC" d="M145.27,386.003c-20.53,0-37.24-16.71-37.24-37.25V37.243c0-20.53,16.71-37.24,37.24-37.24H276.2
			c20.54,0,37.24,16.71,37.24,37.24v311.51c0,20.54-16.7,37.25-37.24,37.25H145.27z M110.29,348.753
			c0,19.29,15.69,34.99,34.98,34.99H276.2c19.29,0,34.99-15.7,34.99-34.99V37.243c0-19.29-15.7-34.99-34.99-34.99H145.27
			c-19.29,0-34.98,15.7-34.98,34.99V348.753z"/>
	</g>
</g>
<circle fill="#349CA5" cx="282.884" cy="395.583" r="38.75"/>
<g>
	<path fill="#FFFFFF" d="M272.23,381.88c2.556,0,4.616,0.581,6.18,1.744c1.564,1.162,2.347,2.729,2.347,4.701
		c0,1.363-0.377,2.578-1.132,3.643c-0.756,1.065-1.972,2.018-3.652,2.857c1.997,1.071,3.431,2.188,4.301,3.351
		c0.869,1.162,1.305,2.438,1.305,3.825c0,2.19-0.858,3.953-2.573,5.285c-1.717,1.333-3.975,2-6.774,2
		c-2.922,0-5.216-0.622-6.884-1.863s-2.501-3-2.501-5.276c0-1.521,0.404-2.872,1.214-4.053s2.109-2.222,3.897-3.122
		c-1.521-0.962-2.616-1.991-3.285-3.086c-0.67-1.095-1.005-2.294-1.005-3.597c0-1.911,0.791-3.457,2.374-4.638
		C267.623,382.47,269.687,381.88,272.23,381.88z M268.067,401.818c0,1.047,0.365,1.862,1.096,2.446
		c0.729,0.584,1.729,0.876,2.994,0.876c1.4,0,2.446-0.301,3.141-0.903c0.694-0.602,1.04-1.396,1.04-2.383
		c0-0.815-0.343-1.579-1.03-2.291c-0.688-0.712-1.806-1.47-3.352-2.273C269.364,398.483,268.067,399.992,268.067,401.818z
		 M272.194,386.007c-0.962,0-1.738,0.246-2.328,0.739c-0.591,0.492-0.886,1.153-0.886,1.98c0,0.73,0.234,1.386,0.703,1.964
		s1.317,1.171,2.547,1.779c1.192-0.561,2.026-1.132,2.501-1.716c0.476-0.584,0.712-1.26,0.712-2.027c0-0.839-0.304-1.503-0.912-1.99
		C273.922,386.25,273.144,386.007,272.194,386.007z"/>
	<path fill="#FFFFFF" d="M293.573,381.88c2.557,0,4.617,0.581,6.182,1.744c1.563,1.162,2.346,2.729,2.346,4.701
		c0,1.363-0.378,2.578-1.133,3.643c-0.754,1.065-1.971,2.018-3.65,2.857c1.995,1.071,3.429,2.188,4.3,3.351
		c0.87,1.162,1.305,2.438,1.305,3.825c0,2.19-0.857,3.953-2.574,5.285c-1.717,1.333-3.975,2-6.774,2
		c-2.921,0-5.215-0.622-6.883-1.863c-1.667-1.241-2.501-3-2.501-5.276c0-1.521,0.404-2.872,1.214-4.053s2.108-2.222,3.898-3.122
		c-1.521-0.962-2.617-1.991-3.286-3.086c-0.67-1.095-1.005-2.294-1.005-3.597c0-1.911,0.791-3.457,2.374-4.638
		C288.967,382.47,291.029,381.88,293.573,381.88z M289.411,401.818c0,1.047,0.364,1.862,1.096,2.446
		c0.729,0.584,1.729,0.876,2.994,0.876c1.399,0,2.447-0.301,3.141-0.903c0.693-0.602,1.04-1.396,1.04-2.383
		c0-0.815-0.344-1.579-1.031-2.291s-1.805-1.47-3.351-2.273C290.708,398.483,289.411,399.992,289.411,401.818z M293.537,386.007
		c-0.961,0-1.737,0.246-2.328,0.739c-0.59,0.492-0.885,1.153-0.885,1.98c0,0.73,0.234,1.386,0.702,1.964
		c0.47,0.578,1.318,1.171,2.547,1.779c1.193-0.561,2.027-1.132,2.502-1.716s0.712-1.26,0.712-2.027c0-0.839-0.305-1.503-0.912-1.99
		C295.267,386.25,294.487,386.007,293.537,386.007z"/>
</g>
<g>
	<g>
		<path fill="#454545" d="M346.786,399.271l-1.242-4.081h-6.251l-1.242,4.081h-3.917l6.052-17.215h4.443l6.075,17.215H346.786z
			 M344.676,392.141c-1.148-3.698-1.797-5.789-1.94-6.273c-0.145-0.485-0.249-0.869-0.312-1.15c-0.258,1-0.996,3.476-2.216,7.424
			H344.676z"/>
		<path fill="#454545" d="M362.641,382.126h3.67l-5.827,17.145h-3.964l-5.815-17.145h3.67l3.225,10.202
			c0.18,0.603,0.365,1.304,0.557,2.104c0.191,0.802,0.311,1.357,0.358,1.671c0.086-0.72,0.378-1.978,0.879-3.775L362.641,382.126z"
			/>
		<path fill="#454545" d="M378.343,399.271h-9.875v-17.145h9.875v2.978h-6.239v3.766h5.806v2.978h-5.806v4.422h6.239V399.271z"/>
		<path fill="#454545" d="M385.555,392.691v6.579h-3.636v-17.145h4.996c2.329,0,4.053,0.424,5.171,1.271
			c1.118,0.849,1.676,2.137,1.676,3.865c0,1.008-0.277,1.904-0.831,2.69c-0.556,0.786-1.341,1.401-2.357,1.848
			c2.58,3.854,4.261,6.344,5.042,7.47h-4.034l-4.092-6.579H385.555z M385.555,389.737h1.172c1.15,0,1.998-0.191,2.545-0.576
			c0.547-0.383,0.82-0.984,0.82-1.806c0-0.812-0.278-1.391-0.838-1.735c-0.56-0.344-1.425-0.517-2.598-0.517h-1.102V389.737z"/>
		<path fill="#454545" d="M408.269,399.271l-1.244-4.081h-6.249l-1.244,4.081h-3.916l6.051-17.215h4.444l6.074,17.215H408.269z
			 M406.157,392.141c-1.149-3.698-1.796-5.789-1.94-6.273c-0.145-0.485-0.248-0.869-0.311-1.15c-0.258,1-0.997,3.476-2.216,7.424
			H406.157z"/>
		<path fill="#454545" d="M420.851,389.643h6.802v8.889c-1.104,0.36-2.141,0.612-3.114,0.756c-0.973,0.145-1.968,0.218-2.983,0.218
			c-2.588,0-4.564-0.761-5.929-2.281c-1.363-1.521-2.045-3.703-2.045-6.55c0-2.767,0.79-4.925,2.374-6.473
			c1.583-1.548,3.778-2.321,6.584-2.321c1.759,0,3.456,0.352,5.09,1.055l-1.209,2.908c-1.25-0.625-2.552-0.938-3.904-0.938
			c-1.571,0-2.83,0.528-3.775,1.582c-0.946,1.057-1.42,2.475-1.42,4.257c0,1.861,0.382,3.282,1.145,4.263
			c0.762,0.981,1.87,1.473,3.324,1.473c0.758,0,1.528-0.079,2.311-0.235v-3.576h-3.249V389.643z"/>
		<path fill="#454545" d="M441.606,399.271h-9.873v-17.145h9.873v2.978h-6.238v3.766h5.805v2.978h-5.805v4.422h6.238V399.271z"/>
	</g>
	<g>
		<path fill="#454545" d="M340.052,412.837c0,0.922-0.288,1.627-0.864,2.115s-1.396,0.732-2.458,0.732h-0.779v3.047h-1.816v-8.566
			h2.736c1.039,0,1.829,0.224,2.37,0.671S340.052,411.95,340.052,412.837z M335.95,414.196h0.598c0.559,0,0.977-0.11,1.254-0.331
			s0.416-0.542,0.416-0.964c0-0.426-0.116-0.74-0.349-0.943s-0.597-0.305-1.093-0.305h-0.826V414.196z"/>
		<path fill="#454545" d="M346.913,418.731l-0.621-2.039h-3.123l-0.621,2.039h-1.957l3.023-8.602h2.221l3.035,8.602H346.913z
			 M345.858,415.169c-0.574-1.848-0.897-2.893-0.97-3.135s-0.124-0.434-0.155-0.574c-0.129,0.5-0.498,1.736-1.107,3.709H345.858z"/>
		<path fill="#454545" d="M353.2,413.921h3.398v4.441c-0.551,0.18-1.069,0.306-1.556,0.378s-0.983,0.108-1.491,0.108
			c-1.293,0-2.28-0.38-2.962-1.14s-1.022-1.851-1.022-3.272c0-1.383,0.396-2.461,1.187-3.234s1.888-1.16,3.29-1.16
			c0.879,0,1.727,0.176,2.543,0.527l-0.604,1.453c-0.625-0.312-1.275-0.469-1.951-0.469c-0.785,0-1.414,0.264-1.887,0.791
			s-0.709,1.236-0.709,2.127c0,0.93,0.19,1.64,0.571,2.13s0.935,0.735,1.661,0.735c0.379,0,0.764-0.039,1.154-0.117v-1.787H353.2
			V413.921z"/>
		<path fill="#454545" d="M363.571,418.731h-4.934v-8.566h4.934v1.488h-3.117v1.881h2.9v1.488h-2.9v2.209h3.117V418.731z"/>
		<path fill="#454545" d="M370.415,416.353c0,0.773-0.278,1.383-0.835,1.828s-1.331,0.668-2.323,0.668
			c-0.914,0-1.723-0.172-2.426-0.516v-1.688c0.578,0.258,1.067,0.439,1.468,0.545s0.767,0.158,1.099,0.158
			c0.398,0,0.704-0.076,0.917-0.229s0.319-0.379,0.319-0.68c0-0.168-0.047-0.317-0.141-0.448s-0.231-0.257-0.413-0.378
			s-0.552-0.314-1.11-0.58c-0.523-0.246-0.916-0.482-1.178-0.709s-0.471-0.49-0.627-0.791s-0.234-0.652-0.234-1.055
			c0-0.758,0.257-1.354,0.771-1.787s1.224-0.65,2.13-0.65c0.445,0,0.87,0.053,1.274,0.158s0.827,0.254,1.269,0.445l-0.586,1.412
			c-0.457-0.188-0.835-0.318-1.134-0.393s-0.593-0.111-0.882-0.111c-0.344,0-0.607,0.08-0.791,0.24s-0.275,0.369-0.275,0.627
			c0,0.16,0.037,0.3,0.111,0.419s0.192,0.234,0.354,0.346s0.546,0.312,1.151,0.601c0.801,0.383,1.35,0.767,1.646,1.151
			S370.415,415.794,370.415,416.353z"/>
		<path fill="#454545" d="M377.886,412.837c0,0.922-0.288,1.627-0.864,2.115s-1.396,0.732-2.458,0.732h-0.779v3.047h-1.816v-8.566
			h2.736c1.039,0,1.829,0.224,2.37,0.671S377.886,411.95,377.886,412.837z M373.784,414.196h0.598c0.559,0,0.977-0.11,1.254-0.331
			s0.416-0.542,0.416-0.964c0-0.426-0.116-0.74-0.349-0.943s-0.597-0.305-1.093-0.305h-0.826V414.196z"/>
		<path fill="#454545" d="M384.437,418.731h-4.934v-8.566h4.934v1.488h-3.117v1.881h2.9v1.488h-2.9v2.209h3.117V418.731z"/>
		<path fill="#454545" d="M391.157,418.731h-4.934v-8.566h4.934v1.488h-3.117v1.881h2.9v1.488h-2.9v2.209h3.117V418.731z"/>
		<path fill="#454545" d="M400.052,414.366c0,1.41-0.401,2.49-1.204,3.24s-1.962,1.125-3.478,1.125h-2.426v-8.566h2.689
			c1.398,0,2.484,0.369,3.258,1.107S400.052,413.042,400.052,414.366z M398.165,414.413c0-1.84-0.812-2.76-2.438-2.76h-0.967v5.578
			h0.779C397.29,417.231,398.165,416.292,398.165,414.413z"/>
		<path fill="#454545" d="M410.001,416.353c0,0.773-0.278,1.383-0.835,1.828s-1.331,0.668-2.323,0.668
			c-0.914,0-1.723-0.172-2.426-0.516v-1.688c0.578,0.258,1.067,0.439,1.468,0.545s0.767,0.158,1.099,0.158
			c0.398,0,0.704-0.076,0.917-0.229s0.319-0.379,0.319-0.68c0-0.168-0.047-0.317-0.141-0.448s-0.231-0.257-0.413-0.378
			s-0.552-0.314-1.11-0.58c-0.523-0.246-0.916-0.482-1.178-0.709s-0.471-0.49-0.627-0.791s-0.234-0.652-0.234-1.055
			c0-0.758,0.257-1.354,0.771-1.787s1.224-0.65,2.13-0.65c0.445,0,0.87,0.053,1.274,0.158s0.827,0.254,1.269,0.445l-0.586,1.412
			c-0.457-0.188-0.835-0.318-1.134-0.393s-0.593-0.111-0.882-0.111c-0.344,0-0.607,0.08-0.791,0.24s-0.275,0.369-0.275,0.627
			c0,0.16,0.037,0.3,0.111,0.419s0.192,0.234,0.354,0.346s0.546,0.312,1.151,0.601c0.801,0.383,1.35,0.767,1.646,1.151
			S410.001,415.794,410.001,416.353z"/>
		<path fill="#454545" d="M415.192,411.554c-0.684,0-1.213,0.257-1.588,0.771s-0.562,1.229-0.562,2.147
			c0,1.91,0.717,2.865,2.15,2.865c0.602,0,1.33-0.15,2.186-0.451v1.523c-0.703,0.293-1.488,0.439-2.355,0.439
			c-1.246,0-2.199-0.378-2.859-1.134s-0.99-1.841-0.99-3.255c0-0.891,0.162-1.671,0.486-2.341s0.79-1.184,1.397-1.541
			s1.319-0.536,2.136-0.536c0.832,0,1.668,0.201,2.508,0.604l-0.586,1.477c-0.32-0.152-0.643-0.285-0.967-0.398
			S415.505,411.554,415.192,411.554z"/>
		<path fill="#454545" d="M426.976,414.437c0,1.418-0.352,2.508-1.055,3.27s-1.711,1.143-3.023,1.143s-2.32-0.381-3.023-1.143
			s-1.055-1.855-1.055-3.281s0.353-2.515,1.058-3.267s1.716-1.128,3.032-1.128s2.323,0.379,3.021,1.137
			S426.976,413.015,426.976,414.437z M420.724,414.437c0,0.957,0.182,1.678,0.545,2.162s0.906,0.727,1.629,0.727
			c1.449,0,2.174-0.963,2.174-2.889c0-1.93-0.721-2.895-2.162-2.895c-0.723,0-1.268,0.243-1.635,0.729
			S420.724,413.479,420.724,414.437z"/>
		<path fill="#454545" d="M430.567,415.444v3.287h-1.816v-8.566h2.496c1.164,0,2.025,0.212,2.584,0.636s0.838,1.067,0.838,1.931
			c0,0.504-0.139,0.952-0.416,1.345s-0.67,0.7-1.178,0.923c1.289,1.926,2.129,3.17,2.52,3.732h-2.016l-2.045-3.287H430.567z
			 M430.567,413.968h0.586c0.574,0,0.998-0.096,1.271-0.287s0.41-0.492,0.41-0.902c0-0.406-0.14-0.695-0.419-0.867
			s-0.712-0.258-1.298-0.258h-0.551V413.968z"/>
		<path fill="#454545" d="M441.606,418.731h-4.934v-8.566h4.934v1.488h-3.117v1.881h2.9v1.488h-2.9v2.209h3.117V418.731z"/>
	</g>
</g>
</svg>
