<?xml version="1.0" encoding="utf-8"?>
<!-- Generator: Adobe Illustrator 15.0.0, SVG Export Plug-In . SVG Version: 6.00 Build 0)  -->
<!DOCTYPE svg PUBLIC "-//W3C//DTD SVG 1.1//EN" "http://www.w3.org/Graphics/SVG/1.1/DTD/svg11.dtd">
<svg version="1.1" id="Layer_1" xmlns="http://www.w3.org/2000/svg" xmlns:xlink="http://www.w3.org/1999/xlink" x="0px" y="0px"
	 width="600px" height="600px" viewBox="0 0 600 600" enable-background="new 0 0 600 600" xml:space="preserve">
<g>
	<g>
		<path fill="#1F1F1F" d="M478.223,8.807C469.059-0.354,457.403,0,456.598,0H237.026H73.329h-0.03
			c-0.568,0-11.377-0.397-20.644,8.869C43.148,18.379,43,30.729,43,30.729v1.706v514.365v1.839c0,0,0.148,12.819,9.655,22.33
			c9.183,9.184,20.151,8.66,20.918,8.66L73.329,579h383.1l0.01,0.628c0.155,0,12.335,0.44,21.784-9.006
			C487.73,561.113,489,548.638,489,548.638v-1.839V32.434v-1.706C489,30.729,487.73,18.315,478.223,8.807z"/>
		<path fill="#292929" d="M484,442.727V34.536v-4.549c0,0-0.407-9.144-8.718-17.453C466.979,4.225,454.332,4,454.332,4H75.429
			c0,0-12.024,0.225-20.333,8.534C46.787,20.843,47,29.987,47,29.987v4.549v408.19v107.404c0,0-1.07,9.295,7.239,17.6
			c8.309,8.307,19.239,8.678,19.239,8.678l0,0L453,577.031v-0.623c0,0,13.309-0.371,21.619-8.678c8.31-8.305,9.381-17.6,9.381-17.6
			V442.727z"/>
		<path fill="#1F1F1F" d="M286.912,547.254c0,12.172-9.866,22.039-22.032,22.039c-12.171,0-22.037-9.867-22.037-22.039
			c0-12.17,9.866-22.038,22.037-22.038C277.046,525.216,286.912,535.084,286.912,547.254z"/>
		<rect x="81" y="44" fill="#8D81CD" width="366" height="474"/>
		<g>
			<path fill="#1F1F1F" d="M269.341,21.809c0,2.393-1.939,4.328-4.332,4.328c-2.39,0-4.324-1.936-4.324-4.328
				c0-2.389,1.934-4.329,4.324-4.329C267.402,17.48,269.341,19.42,269.341,21.809z"/>
		</g>
		<path opacity="0.06" fill="#FFFFFF" d="M484,469.523V34.536v-4.549c0,0-0.407-9.144-8.718-17.453
			C466.979,4.225,454.332,4,454.332,4h-167.42L484,469.523z"/>
		<g>
			<g>
				<path fill="#5E56AF" d="M235.824,302.803c15.528-15.041,39.873-15.042,55.401-0.004c5.291,5.123,13.373-2.943,8.076-8.073
					c-20.014-19.382-51.54-19.382-71.552,0.004C222.455,299.859,230.534,307.926,235.824,302.803L235.824,302.803z"/>
			</g>
			<g>
				<path fill="#5E56AF" d="M218.598,285.579c24.936-24.426,64.918-24.426,89.854,0c5.264,5.153,13.341-2.917,8.074-8.078
					c-29.373-28.774-76.626-28.774-106.001,0.004C205.258,282.663,213.335,290.732,218.598,285.579L218.598,285.579z"/>
			</g>
			<g>
				<path fill="#5E56AF" d="M200.927,267.907c16.406-16.157,38.013-25.358,61.04-25.915c23.956-0.583,47.103,9.147,64.102,25.859
					c5.254,5.164,13.331-2.907,8.074-8.075c-18.929-18.604-44.076-28.998-70.617-29.217c-26.394-0.216-51.971,10.855-70.672,29.275
					C187.601,265.005,195.678,273.075,200.927,267.907L200.927,267.907z"/>
			</g>
			<circle fill="#5E56AF" cx="263.527" cy="320.989" r="10.129"/>
		</g>
	</g>
	<g>
		<rect x="331" y="186" fill="#292929" width="4" height="22"/>
		<rect x="486" y="117" fill="#292929" width="36" height="4"/>
		<rect x="331" y="228" fill="#292929" width="4" height="18"/>
		<rect x="331" y="267" fill="#292929" width="4" height="19"/>
		<path fill="#1F1F1F" d="M549.923,129.643c-9.162-9.162-20.115-8.643-20.921-8.643h-0.17H365.135h-0.03
			c-0.567,0-11.28-0.562-20.548,8.705C335.051,139.216,335,151.4,335,151.4v1.705v413.439v1.839c0,0,0.051,13.069,9.557,22.581
			c9.184,9.182,20.104,9.035,20.871,9.035l0,0h163.413l0,0c0.157,0,11.635,0.129,21.082-9.317
			c9.51-9.509,10.077-22.299,10.077-22.299v-1.839V153.105V151.4C560,151.4,559.433,139.152,549.923,129.643z"/>
		<path fill="#292929" d="M557,563.398v-408.19v-4.549c0,0-0.705-8.481-9.015-16.79c-8.304-8.309-21.251-7.869-21.251-7.869h-159.5
			c0,0-11.926-0.439-20.234,7.869c-8.31,8.309-8,16.79-8,16.79v4.549v408.19v4.285c0,0-1.428,9.502,6.881,17.808
			C354.189,593.798,365,596,365,596l0,0h161l0,0c0,0,13.311-2.41,21.62-10.717c8.309-8.306,9.38-17.6,9.38-17.6V563.398z"/>
		<path fill="#1F1F1F" d="M469.017,562.612c0,12.172-9.866,22.038-22.032,22.038c-12.17,0-22.037-9.866-22.037-22.038
			c0-12.171,9.867-22.038,22.037-22.038C459.15,540.574,469.017,550.441,469.017,562.612z"/>
		<rect x="352" y="186" fill="#349CA5" width="191" height="347"/>
		<g>
			<path fill="#1F1F1F" d="M451.445,142.48c0,2.394-1.939,4.328-4.332,4.328c-2.389,0-4.324-1.935-4.324-4.328
				c0-2.389,1.936-4.328,4.324-4.328C449.506,138.152,451.445,140.091,451.445,142.48z"/>
			<g>
				<path fill="#1F1F1F" d="M427.834,161.37c0,2.394-1.938,4.328-4.328,4.328c-2.393,0-4.328-1.934-4.328-4.328
					c0-2.391,1.936-4.33,4.328-4.33C425.896,157.04,427.834,158.979,427.834,161.37z"/>
				<path fill="#1F1F1F" d="M470.724,161h-31.479c-2.389,0-3.889-0.036-3.889,2.348c0,2.352,0.644,2.269,4.644,2.337V165h30.724
					c2.394,0,4.329,0.394,4.329-2S473.117,161,470.724,161z"/>
			</g>
		</g>
		<path opacity="0.06" fill="#FFFFFF" d="M557,458.466V155.208v-4.549c0,0-0.705-8.481-9.015-16.79
			c-8.304-8.309-21.251-7.869-21.251-7.869h-85L557,458.466z"/>
		<g>
			<g>
				<path fill="#0D6D6D" d="M429.074,374.684c10.506-10.178,26.976-10.178,37.483-0.004c3.578,3.467,9.046-1.993,5.464-5.46
					c-13.542-13.113-34.87-13.113-48.409,0C420.031,372.69,425.496,378.15,429.074,374.684L429.074,374.684z"/>
			</g>
			<g>
				<path fill="#0D6D6D" d="M417.421,363.027c16.871-16.523,43.921-16.523,60.79,0c3.562,3.488,9.024-1.971,5.462-5.463
					c-19.871-19.464-51.841-19.464-71.714,0.004C408.396,361.057,413.862,366.516,417.421,363.027L417.421,363.027z"/>
			</g>
			<g>
				<path fill="#0D6D6D" d="M405.468,351.072c11.098-10.933,25.715-17.154,41.295-17.531c16.206-0.395,31.866,6.188,43.367,17.497
					c3.552,3.492,9.019-1.967,5.462-5.465c-12.806-12.589-29.818-19.617-47.774-19.767c-17.859-0.146-35.162,7.344-47.814,19.806
					C396.451,349.109,401.915,354.568,405.468,351.072L405.468,351.072z"/>
			</g>
			<path fill="#0D6D6D" d="M454.67,386.986c0,3.784-3.068,6.852-6.853,6.852c-3.785,0-6.852-3.067-6.852-6.852
				c0-3.787,3.066-6.852,6.852-6.852C451.602,380.135,454.67,383.199,454.67,386.986z"/>
		</g>
	</g>
</g>
</svg>
