<?xml version="1.0" encoding="utf-8"?>
<!-- Generator: Adobe Illustrator 15.0.0, SVG Export Plug-In . SVG Version: 6.00 Build 0)  -->
<!DOCTYPE svg PUBLIC "-//W3C//DTD SVG 1.1//EN" "http://www.w3.org/Graphics/SVG/1.1/DTD/svg11.dtd">
<svg version="1.1" id="Layer_1" xmlns="http://www.w3.org/2000/svg" xmlns:xlink="http://www.w3.org/1999/xlink" x="0px" y="0px"
	 width="600px" height="400px" viewBox="0 0 600 400" enable-background="new 0 0 600 400" xml:space="preserve">
<path fill="#00FF00" d="M137,37c-45.011,0-81.5,36.489-81.5,81.5S91.989,200,137,200s81.5-36.489,81.5-81.5S182.011,37,137,37z
	 M137,159.25c-22.506,0-40.75-18.244-40.75-40.75S114.494,77.75,137,77.75s40.75,18.244,40.75,40.75S159.506,159.25,137,159.25z"/>
<path fill="#4189C7" d="M137,37c-45.011,0-81.5,36.489-81.5,81.5S91.989,200,137,200s81.5-36.489,81.5-81.5S182.011,37,137,37z
	 M137,159.25c-22.506,0-40.75-18.244-40.75-40.75S114.494,77.75,137,77.75s40.75,18.244,40.75,40.75S159.506,159.25,137,159.25z"/>
<path fill="#1C69A3" d="M190.791,57.271C176.438,44.652,157.613,37,137,37c-45.011,0-81.5,36.489-81.5,81.5S91.989,200,137,200
	v-40.75c-22.506,0-40.75-18.244-40.75-40.75S114.494,77.75,137,77.75c11.038,0,21.052,4.389,28.39,11.517L190.791,57.271z"/>
<path fill="#8D81CD" d="M300,363c45.012,0,81.5-36.488,81.5-81.5c0-45.011-36.488-81.5-81.5-81.5c-45.011,0-81.5,36.489-81.5,81.5
	C218.5,326.512,254.989,363,300,363z M300,240.75c22.506,0,40.75,18.244,40.75,40.75s-18.244,40.75-40.75,40.75
	s-40.75-18.244-40.75-40.75S277.494,240.75,300,240.75z"/>
<path fill="#5E56AF" d="M300,322.25c-22.506,0-40.75-18.244-40.75-40.75s18.244-40.75,40.75-40.75V200
	c-45.011,0-81.5,36.489-81.5,81.5c0,45.012,36.489,81.5,81.5,81.5V322.25z"/>
<path fill="#FFCC66" d="M463,37c-45.012,0-81.5,36.489-81.5,81.5S417.988,200,463,200s81.5-36.489,81.5-81.5S508.012,37,463,37z
	 M463,159.25c-22.506,0-40.75-18.244-40.75-40.75S440.494,77.75,463,77.75s40.75,18.244,40.75,40.75S485.506,159.25,463,159.25z"/>
<path fill="#E5A845" d="M463,159.25c-22.506,0-40.75-18.25-40.75-40.25H381.5c0,45,36.488,81,81.5,81V159.25z"/>
<g>
	<path fill="#1C69A3" d="M110.687,120.265c0-9.393,3.827-14.09,11.479-14.09c1.204,0,2.222,0.093,3.055,0.279v3.219
		c-0.833-0.241-1.795-0.361-2.891-0.361c-2.572,0-4.506,0.689-5.796,2.069c-1.293,1.38-1.993,3.591-2.102,6.634h0.196
		c0.515-0.886,1.237-1.573,2.168-2.061c0.931-0.487,2.025-0.73,3.285-0.73c2.179,0,3.875,0.667,5.091,2.003s1.823,3.147,1.823,5.436
		c0,2.518-0.704,4.508-2.11,5.969c-1.407,1.461-3.326,2.192-5.756,2.192c-1.719,0-3.214-0.413-4.483-1.239
		c-1.271-0.827-2.248-2.031-2.932-3.614C111.029,124.391,110.687,122.488,110.687,120.265z M119.062,127.639
		c1.324,0,2.346-0.427,3.063-1.281c0.716-0.854,1.075-2.074,1.075-3.662c0-1.379-0.336-2.463-1.01-3.252
		c-0.673-0.788-1.684-1.182-3.03-1.182c-0.833,0-1.599,0.178-2.299,0.533c-0.7,0.356-1.253,0.844-1.659,1.462
		c-0.405,0.619-0.607,1.251-0.607,1.896c0,1.544,0.418,2.844,1.256,3.9C116.689,127.111,117.759,127.639,119.062,127.639z"/>
	<path fill="#1C69A3" d="M146.947,125.258h-3.235v5.239h-3.761v-5.239h-10.97v-2.973l10.97-15.864h3.761v15.634h3.235V125.258z
		 M139.951,122.055v-6.026c0-2.146,0.055-3.903,0.165-5.272h-0.132c-0.307,0.723-0.788,1.599-1.445,2.628l-5.961,8.67H139.951z"/>
	<path fill="#1C69A3" d="M154.379,120.869c0,1.439-0.258,2.519-0.774,3.242c-0.517,0.723-1.278,1.084-2.285,1.084
		c-0.952,0-1.688-0.374-2.21-1.122c-0.523-0.747-0.784-1.815-0.784-3.204c0-2.859,0.998-4.289,2.994-4.289
		c0.981,0,1.736,0.371,2.266,1.113C154.115,118.433,154.379,119.493,154.379,120.869z M150.156,120.887
		c0,0.933,0.091,1.627,0.272,2.084c0.182,0.457,0.479,0.685,0.893,0.685c0.825,0,1.238-0.923,1.238-2.769
		c0-1.845-0.413-2.768-1.238-2.768c-0.413,0-0.711,0.229-0.893,0.686C150.247,119.261,150.156,119.955,150.156,120.887z
		 M160.526,116.777l-7.61,13.72h-1.82l7.61-13.72H160.526z M163.313,126.368c0,1.439-0.26,2.518-0.779,3.237
		c-0.52,0.72-1.276,1.08-2.271,1.08c-0.951,0-1.689-0.371-2.215-1.113c-0.525-0.741-0.788-1.809-0.788-3.204
		c0-2.859,1-4.289,3.003-4.289c0.963,0,1.713,0.369,2.248,1.107C163.046,123.925,163.313,124.985,163.313,126.368z M159.09,126.368
		c0,0.933,0.092,1.63,0.277,2.092c0.184,0.463,0.483,0.695,0.896,0.695c0.819,0,1.23-0.93,1.23-2.787c0-1.833-0.411-2.75-1.23-2.75
		c-0.413,0-0.712,0.225-0.896,0.676C159.183,124.744,159.09,125.436,159.09,126.368z"/>
</g>
<g>
	<path fill="#E5A845" d="M452.929,130.513h-16.274v-2.923l6.191-6.224c1.827-1.872,3.04-3.199,3.637-3.982
		c0.598-0.782,1.031-1.519,1.306-2.208c0.273-0.69,0.41-1.429,0.41-2.217c0-1.084-0.325-1.938-0.977-2.562
		c-0.65-0.624-1.552-0.936-2.702-0.936c-0.919,0-1.808,0.17-2.668,0.509c-0.859,0.339-1.854,0.952-2.98,1.839l-2.086-2.546
		c1.335-1.127,2.633-1.926,3.893-2.397c1.258-0.47,2.599-0.706,4.023-0.706c2.232,0,4.023,0.583,5.369,1.749
		c1.347,1.166,2.021,2.734,2.021,4.705c0,1.084-0.194,2.113-0.583,3.087c-0.389,0.975-0.985,1.979-1.79,3.014
		s-2.144,2.433-4.015,4.195l-4.172,4.04v0.165h11.397V130.513z"/>
	<path fill="#E5A845" d="M463.997,115.52c2.419,0,4.335,0.641,5.747,1.921c1.413,1.281,2.119,3.027,2.119,5.239
		c0,2.562-0.803,4.563-2.406,6.002c-1.603,1.439-3.883,2.159-6.84,2.159c-2.683,0-4.791-0.432-6.322-1.297v-3.498
		c0.887,0.504,1.905,0.893,3.055,1.166c1.149,0.274,2.217,0.411,3.202,0.411c1.741,0,3.065-0.388,3.974-1.166
		c0.908-0.777,1.364-1.915,1.364-3.416c0-2.868-1.829-4.303-5.485-4.303c-0.516,0-1.149,0.052-1.905,0.156
		c-0.755,0.104-1.418,0.222-1.987,0.353l-1.724-1.019l0.919-11.725h12.481v3.432h-9.082l-0.542,5.945
		c0.383-0.066,0.852-0.142,1.404-0.23C462.521,115.563,463.197,115.52,463.997,115.52z"/>
	<path fill="#E5A845" d="M480.412,120.885c0,1.439-0.258,2.52-0.773,3.242c-0.517,0.723-1.279,1.084-2.285,1.084
		c-0.952,0-1.688-0.374-2.211-1.122c-0.522-0.747-0.783-1.815-0.783-3.205c0-2.859,0.997-4.289,2.994-4.289
		c0.981,0,1.736,0.371,2.266,1.112C480.146,118.449,480.412,119.509,480.412,120.885z M476.189,120.904
		c0,0.932,0.09,1.626,0.272,2.083c0.18,0.457,0.479,0.685,0.892,0.685c0.825,0,1.238-0.922,1.238-2.768s-0.413-2.769-1.238-2.769
		c-0.413,0-0.712,0.229-0.892,0.685C476.279,119.277,476.189,119.972,476.189,120.904z M486.559,116.793l-7.61,13.72h-1.82
		l7.61-13.72H486.559z M489.346,126.384c0,1.439-0.26,2.519-0.779,3.238s-1.275,1.079-2.271,1.079c-0.951,0-1.688-0.371-2.214-1.112
		c-0.526-0.741-0.789-1.809-0.789-3.205c0-2.858,1-4.288,3.003-4.288c0.963,0,1.713,0.369,2.248,1.107
		C489.078,123.941,489.346,125.001,489.346,126.384z M485.123,126.384c0,0.933,0.091,1.63,0.276,2.093
		c0.185,0.463,0.483,0.694,0.896,0.694c0.819,0,1.229-0.929,1.229-2.787c0-1.833-0.41-2.75-1.229-2.75
		c-0.413,0-0.712,0.225-0.896,0.676C485.214,124.761,485.123,125.452,485.123,126.384z"/>
</g>
<g>
	<path fill="#5E56AF" d="M281.578,278.537c2.419,0,4.335,0.64,5.747,1.921c1.413,1.28,2.119,3.027,2.119,5.238
		c0,2.562-0.802,4.562-2.406,6.003c-1.604,1.44-3.883,2.158-6.839,2.158c-2.683,0-4.791-0.431-6.322-1.297v-3.497
		c0.887,0.505,1.904,0.893,3.054,1.166c1.15,0.275,2.217,0.411,3.203,0.411c1.741,0,3.065-0.387,3.974-1.166
		c0.909-0.777,1.363-1.915,1.363-3.416c0-2.867-1.829-4.303-5.485-4.303c-0.515,0-1.149,0.052-1.905,0.158
		c-0.755,0.103-1.418,0.22-1.987,0.352l-1.724-1.018l0.919-11.725h12.481v3.432h-9.082l-0.542,5.945
		c0.384-0.066,0.852-0.143,1.405-0.23C280.102,278.58,280.778,278.537,281.578,278.537z"/>
	<path fill="#5E56AF" d="M308.904,281.524c0,4.171-0.672,7.271-2.012,9.295c-1.342,2.026-3.391,3.037-6.15,3.037
		c-2.672,0-4.697-1.044-6.076-3.136c-1.38-2.09-2.069-5.157-2.069-9.197c0-4.236,0.67-7.359,2.012-9.368
		c1.34-2.009,3.385-3.014,6.133-3.014c2.682,0,4.713,1.051,6.093,3.153C308.214,274.398,308.904,277.475,308.904,281.524z
		 M296.506,281.524c0,3.275,0.336,5.612,1.01,7.013c0.673,1.402,1.749,2.102,3.227,2.102c1.479,0,2.56-0.71,3.244-2.135
		c0.683-1.421,1.026-3.749,1.026-6.979c0-3.218-0.344-5.547-1.026-6.987c-0.685-1.439-1.766-2.159-3.244-2.159
		c-1.478,0-2.553,0.706-3.227,2.119C296.842,275.908,296.506,278.251,296.506,281.524z"/>
	<path fill="#5E56AF" d="M317.189,283.9c0,1.44-0.258,2.52-0.773,3.243s-1.278,1.084-2.285,1.084c-0.951,0-1.688-0.373-2.21-1.121
		c-0.523-0.747-0.783-1.816-0.783-3.206c0-2.857,0.997-4.287,2.993-4.287c0.981,0,1.737,0.37,2.267,1.112
		C316.926,281.466,317.189,282.527,317.189,283.9z M312.967,283.919c0,0.935,0.091,1.628,0.272,2.083
		c0.182,0.457,0.479,0.685,0.892,0.685c0.825,0,1.239-0.921,1.239-2.768c0-1.844-0.414-2.768-1.239-2.768
		c-0.413,0-0.71,0.229-0.892,0.685C313.058,282.294,312.967,282.988,312.967,283.919z M323.337,279.81l-7.61,13.719h-1.82
		l7.61-13.719H323.337z M326.125,289.4c0,1.441-0.262,2.52-0.78,3.238c-0.52,0.72-1.275,1.079-2.271,1.079
		c-0.951,0-1.69-0.371-2.215-1.112c-0.525-0.74-0.788-1.809-0.788-3.205c0-2.857,1.001-4.288,3.003-4.288
		c0.964,0,1.713,0.371,2.248,1.106C325.857,286.958,326.125,288.019,326.125,289.4z M321.901,289.4c0,0.935,0.091,1.63,0.277,2.093
		c0.183,0.463,0.482,0.694,0.896,0.694c0.818,0,1.229-0.93,1.229-2.788c0-1.832-0.411-2.749-1.229-2.749
		c-0.413,0-0.713,0.225-0.896,0.675C321.992,287.776,321.901,288.469,321.901,289.4z"/>
</g>
</svg>
