<?xml version="1.0" encoding="utf-8"?>
<!-- Generator: Adobe Illustrator 15.0.0, SVG Export Plug-In . SVG Version: 6.00 Build 0)  -->
<!DOCTYPE svg PUBLIC "-//W3C//DTD SVG 1.1//EN" "http://www.w3.org/Graphics/SVG/1.1/DTD/svg11.dtd">
<svg version="1.1" id="Layer_1" xmlns="http://www.w3.org/2000/svg" xmlns:xlink="http://www.w3.org/1999/xlink" x="0px" y="0px"
	 width="399.888px" height="428.523px" viewBox="29.693 0 399.888 428.523" enable-background="new 29.693 0 399.888 428.523"
	 xml:space="preserve">
<rect x="109.581" y="378.523" opacity="0.06" width="320" height="50"/>
<path opacity="0.06" enable-background="new    " d="M276.693,287.364c0,11.046-8.955,20-20,20h-202c-11.046,0-20-8.954-20-20v-240
	c0-11.046,8.954-20,20-20h202c11.045,0,20,8.954,20,20V287.364z"/>
<g>
	<g id="XMLID_1_">
		<path fill="#FFFFFF" d="M254.693,24.364c8.27,0,15,6.73,15,15v246c0,8.27-6.73,15-15,15h-208c-8.27,0-15-6.73-15-15v-246
			c0-8.27,6.73-15,15-15H254.693z"/>
		<path fill="#CCCCCC" d="M254.693,22.364c9.369,0,17,7.63,17,17v246c0,9.37-7.631,17-17,17h-208c-9.37,0-17-7.63-17-17v-246
			c0-9.37,7.63-17,17-17H254.693z M269.693,39.364c0-8.27-6.73-15-15-15h-208c-8.27,0-15,6.73-15,15v246c0,8.27,6.73,15,15,15h208
			c8.27,0,15-6.73,15-15V39.364z"/>
	</g>
</g>
<g>
	<rect x="56.693" y="125.364" fill="#FFFFFF" width="188" height="30"/>
	<path fill="#DDDDDD" d="M54.693,123.364v34h192v-34H54.693z M244.693,155.364h-188v-30h188V155.364z"/>
	<rect x="56.693" y="172.364" fill="#FFFFFF" width="188" height="30"/>
	<path fill="#DDDDDD" d="M54.693,204.364h192v-34h-192V204.364z M56.693,172.364h188v30h-188V172.364z"/>
</g>
<g>
	<path fill="#B3B3B3" d="M73.94,143.466h-0.947l-3.901-5.937h-0.039c0.052,0.696,0.078,1.335,0.078,1.916v4.021h-0.767v-7.073h0.938
		l3.892,5.912h0.039c-0.006-0.087-0.021-0.367-0.044-0.84c-0.023-0.472-0.031-0.811-0.024-1.014v-4.059h0.776L73.94,143.466
		L73.94,143.466z"/>
	<path fill="#B3B3B3" d="M80.39,143.466l-0.889-2.25H76.64l-0.879,2.25h-0.84l2.823-7.102h0.698l2.808,7.102H80.39z M79.243,140.476
		l-0.83-2.193c-0.107-0.276-0.218-0.617-0.332-1.02c-0.072,0.31-0.174,0.649-0.308,1.02l-0.84,2.193H79.243z"/>
	<path fill="#B3B3B3" d="M85.39,143.466l-2.422-6.27h-0.039c0.045,0.497,0.068,1.087,0.068,1.771v4.499H82.23v-7.073h1.25
		l2.261,5.835h0.039l2.28-5.835h1.24v7.073h-0.83v-4.557c0-0.523,0.023-1.091,0.068-1.704h-0.039l-2.441,6.26L85.39,143.466
		L85.39,143.466z"/>
	<path fill="#B3B3B3" d="M95.239,143.466H91.26v-7.073h3.979v0.731H92.09v2.279h2.959v0.726H92.09v2.603h3.149V143.466z"/>
</g>
<g>
	<path fill="#B3B3B3" d="M72.343,190.631h-3.979v-7.073h3.979v0.73h-3.149v2.279h2.959v0.726h-2.959v2.603h3.149V190.631z"/>
	<path fill="#B3B3B3" d="M77.085,190.631l-2.422-6.27h-0.039c0.045,0.496,0.068,1.086,0.068,1.771v4.499h-0.767v-7.073h1.25
		l2.261,5.835h0.039l2.28-5.835h1.24v7.073h-0.83v-4.558c0-0.522,0.023-1.09,0.068-1.702h-0.039l-2.441,6.26H77.085L77.085,190.631z
		"/>
	<path fill="#B3B3B3" d="M87.441,190.631l-0.889-2.25h-2.861l-0.879,2.25h-0.84l2.822-7.102h0.699l2.808,7.102H87.441z
		 M86.294,187.641l-0.83-2.192c-0.107-0.276-0.218-0.617-0.332-1.021c-0.072,0.31-0.174,0.649-0.308,1.021l-0.84,2.192H86.294z"/>
	<path fill="#B3B3B3" d="M89.282,190.631v-7.073h0.83v7.073H89.282z"/>
	<path fill="#B3B3B3" d="M92.07,190.631v-7.073h0.83v6.328h3.149v0.745H92.07z"/>
</g>
<g>
	<g>
		<path fill="#999999" d="M130.848,244.589c0,0.902-0.325,1.613-0.974,2.133c-0.65,0.521-1.553,0.779-2.711,0.779
			c-1.066,0-2.01-0.199-2.83-0.602v-1.969c0.674,0.301,1.245,0.514,1.713,0.637c0.467,0.123,0.895,0.184,1.281,0.184
			c0.465,0,0.821-0.088,1.07-0.266c0.248-0.178,0.372-0.443,0.372-0.793c0-0.197-0.055-0.371-0.164-0.523s-0.271-0.299-0.481-0.441
			c-0.213-0.141-0.645-0.366-1.296-0.676c-0.61-0.287-1.069-0.562-1.374-0.828c-0.305-0.264-0.549-0.571-0.731-0.922
			c-0.183-0.352-0.273-0.762-0.273-1.229c0-0.886,0.3-1.58,0.899-2.086c0.599-0.506,1.428-0.759,2.484-0.759
			c0.52,0,1.016,0.062,1.486,0.185c0.473,0.123,0.965,0.297,1.48,0.521l-0.684,1.647c-0.533-0.219-0.975-0.371-1.322-0.459
			c-0.35-0.086-0.691-0.129-1.029-0.129c-0.4,0-0.709,0.095-0.923,0.278c-0.214,0.188-0.321,0.433-0.321,0.732
			c0,0.187,0.043,0.35,0.13,0.488s0.225,0.273,0.413,0.402c0.189,0.131,0.637,0.365,1.344,0.701
			c0.934,0.446,1.574,0.895,1.921,1.344C130.675,243.388,130.848,243.938,130.848,244.589z"/>
		<path fill="#999999" d="M140.795,237.37v6.467c0,0.738-0.165,1.387-0.496,1.941c-0.33,0.557-0.807,0.982-1.432,1.279
			c-0.625,0.295-1.363,0.443-2.215,0.443c-1.285,0-2.283-0.328-2.994-0.988c-0.711-0.658-1.066-1.56-1.066-2.703v-6.439h2.112v6.119
			c0,0.77,0.155,1.334,0.465,1.695c0.31,0.359,0.823,0.539,1.538,0.539c0.693,0,1.195-0.183,1.508-0.543
			c0.312-0.363,0.468-0.933,0.468-1.705v-6.105H140.795z"/>
		<path fill="#999999" d="M143.242,237.37h3.11c1.417,0,2.446,0.201,3.087,0.605c0.64,0.402,0.96,1.045,0.96,1.924
			c0,0.598-0.14,1.088-0.421,1.471c-0.279,0.383-0.652,0.613-1.117,0.689v0.068c0.633,0.143,1.09,0.405,1.371,0.793
			c0.279,0.389,0.42,0.901,0.42,1.545c0,0.912-0.329,1.623-0.988,2.133c-0.658,0.512-1.553,0.766-2.683,0.766h-3.739V237.37z
			 M145.361,241.329h1.23c0.574,0,0.99-0.09,1.248-0.268c0.257-0.178,0.386-0.471,0.386-0.881c0-0.383-0.14-0.658-0.421-0.824
			c-0.279-0.166-0.723-0.25-1.329-0.25h-1.114V241.329z M145.361,243.011v2.604h1.381c0.584,0,1.014-0.111,1.292-0.334
			c0.278-0.225,0.417-0.566,0.417-1.025c0-0.83-0.592-1.244-1.777-1.244H145.361L145.361,243.011z"/>
		<path fill="#999999" d="M156.88,247.364l-2.406-7.84h-0.062c0.086,1.594,0.13,2.658,0.13,3.191v4.648h-1.894v-9.994h2.885
			l2.365,7.643h0.041l2.509-7.643h2.885v9.994h-1.976v-4.73c0-0.223,0.004-0.479,0.01-0.771c0.008-0.293,0.038-1.065,0.093-2.324
			h-0.062l-2.577,7.825H156.88z"/>
		<path fill="#999999" d="M165.848,247.364v-9.994h2.119v9.994H165.848z"/>
		<path fill="#999999" d="M174.339,247.364h-2.119v-8.23h-2.714v-1.764h7.547v1.764h-2.714V247.364L174.339,247.364z"/>
	</g>
	<g>
		<path fill="none" d="M237.693,227.364h-174c-3.86,0-7,3.141-7,7v16c0,3.859,3.14,7,7,7h174c3.86,0,7-3.141,7-7v-16
			C244.693,230.505,241.553,227.364,237.693,227.364z"/>
		<path fill="#999999" d="M237.693,225.364h-174c-4.962,0-9,4.037-9,9v16c0,4.963,4.038,9,9,9h174c4.963,0,9-4.037,9-9v-16
			C246.693,229.401,242.656,225.364,237.693,225.364z M244.693,250.364c0,3.859-3.141,7-7,7h-174c-3.86,0-7-3.141-7-7v-16
			c0-3.859,3.14-7,7-7h174c3.86,0,7,3.141,7,7V250.364z"/>
	</g>
</g>
<path opacity="0.06" enable-background="new    " d="M288.936,9.364l4.242-4.242c1.172-1.172,1.172-3.071,0-4.243
	c-1.172-1.172-3.07-1.172-4.242,0l-4.242,4.242l-4.242-4.242c-1.172-1.172-3.07-1.172-4.242,0c-1.174,1.172-1.174,3.071,0,4.243
	l4.24,4.242l-4.24,4.242c-1.174,1.172-1.174,3.071,0,4.243c1.172,1.172,3.07,1.172,4.242,0l4.242-4.242l4.242,4.242
	c1.172,1.172,3.07,1.172,4.242,0c1.172-1.172,1.172-3.071,0-4.243L288.936,9.364z"/>
<g>
	<rect x="103.582" y="372.523" fill="#FFFFFF" width="320" height="50"/>
	<path fill="#CCCCCC" d="M424.581,423.523h-322v-52h322V423.523z M104.582,421.523h318v-48h-318V421.523z"/>
</g>
<g>
	<path fill="#777777" d="M135.128,400.134l-0.019,0.322l-0.039,0.322l-0.056,0.302l-0.096,0.416l-0.094,0.266l-0.171,0.379
		l-0.133,0.245l-0.226,0.342l-0.189,0.227l-0.227,0.227l-0.228,0.208l-0.377,0.246l-0.247,0.172l-0.284,0.15l-0.265,0.133
		l-0.436,0.15l-0.567,0.189l-0.304,0.058l-0.473,0.075l-0.284,0.037l-0.416,0.038l-0.265,0.019l-0.435,0.019l-0.909,0.057h-0.416
		l-0.265-0.018l-0.435-0.039l-0.285-0.037l-0.322-0.057l-0.283-0.094l-0.416-0.133l-0.265-0.133l-0.284-0.132l-0.265-0.133
		l-0.247-0.15l-0.605-0.418l-0.227-0.188l-0.34-0.265l-0.227-0.189l-0.209-0.208l-0.151-0.172l-0.019-0.132l0.094-0.169l0.076-0.096
		l0.189-0.208l0.53-0.492l0.171-0.207l0.32-0.493l0.171-0.209l0.189-0.207l0.208-0.113l0.208,0.037l0.208,0.151l0.605,0.417
		l0.284,0.151l0.265,0.133l0.436,0.207l0.284,0.095l0.302,0.095l0.303,0.059l0.435,0.018l0.304,0.019l1.193-0.075l0.302-0.039
		l0.151-0.037l0.285-0.113l0.245-0.151l0.189-0.189l0.094-0.133l0.114-0.283l-0.019-0.322l-0.038-0.15l-0.151-0.266l-0.094-0.113
		l-0.247-0.19l-0.151-0.055l-0.285-0.114l-0.32-0.075l-0.322-0.057l-1.798-0.172l-0.567-0.112l-0.303-0.075l-0.416-0.152
		l-0.284-0.095l-0.283-0.132l-0.644-0.322l-0.247-0.169l-0.283-0.172l-0.245-0.17l-0.322-0.265l-0.171-0.246l-0.169-0.283
		l-0.114-0.283l-0.133-0.398l-0.057-0.285l-0.057-0.415l-0.037-0.606l0.019-0.302l0.039-0.454l0.057-0.283l0.076-0.247l0.094-0.283
		l0.189-0.416l0.132-0.266l0.151-0.228l0.189-0.208l0.302-0.284l0.247-0.189l0.247-0.169l0.265-0.133l0.359-0.208l0.567-0.228
		l0.285-0.094l0.435-0.076l0.304-0.057l0.567-0.076l0.416-0.074l0.304-0.039l0.283-0.019h0.302l0.568,0.058l0.284,0.037l0.132,0.037
		l0.304,0.037l0.642,0.114l0.322,0.075l0.302,0.096l0.322,0.095l0.303,0.113l0.284,0.133l0.284,0.112l0.359,0.208l0.265,0.133
		l0.247,0.171l0.171,0.171v0.188l-0.114,0.207l-0.208,0.379l-0.151,0.227l-0.719,0.946l-0.208,0.266l-0.228,0.189l-0.151,0.057
		l-0.132-0.019l-0.189-0.095l-0.284-0.17l-0.284-0.114l-0.132-0.058l-0.284-0.094l-0.151-0.038l-0.322-0.075l-0.436-0.094
		l-0.302-0.02l-0.493-0.038h-0.492l-0.322,0.019l-0.32,0.057l-0.304,0.094l-0.114,0.058l-0.226,0.171l-0.094,0.113l-0.132,0.266
		l-0.039,0.302l0.058,0.247l0.15,0.245l0.208,0.189l0.228,0.113l0.133,0.058l0.284,0.057l0.473,0.056l0.643,0.039l0.322,0.057
		l0.644,0.15l0.605,0.19l0.435,0.094l0.284,0.075l0.53,0.189l0.379,0.171l0.265,0.133l0.265,0.15l0.245,0.151l0.55,0.455
		l0.208,0.227l0.189,0.228l0.227,0.341l0.151,0.245l0.132,0.285l0.076,0.283l0.076,0.416l0.039,0.283L135.128,400.134z"/>
	<path fill="#777777" d="M141.097,401.363v0.305l-0.075,1.021v0.303l-0.019,1.041v0.208l-0.057,0.094l-0.151,0.058l-0.265,0.02
		l-0.966-0.02h-1.172l-0.946-0.075l-0.114-0.037l-0.057-0.058v-0.189l-0.037-0.474v-0.303l-0.02-0.283v-0.284l-0.056-1.021
		l0.019-0.305l0.057-1.021l0.019-0.303l-0.057-1.041v-0.302l-0.019-1.023v-1.627l-0.019-1.04v-0.304l0.019-1.021v-1.627
		l-0.039-1.041l0.058-0.208l0.114-0.076l0.189-0.018h0.151l0.284-0.02l0.455,0.02h0.302l0.871-0.039h1.174l0.208,0.039l0.037,0.113
		l0.02,0.208l0.037,0.492l0.019,0.303v1.854l0.02,1.021v0.304l-0.02,1.04v0.303l0.02,1.022v0.302l-0.038,1.023v1.646
		L141.097,401.363z"/>
	<path fill="#777777" d="M156.578,396.615l0.019,0.32l-0.075,1.231v1.777l-0.037,0.796v1.117l-0.02,0.208l-0.113,0.188l-0.152,0.246
		l-0.169,0.247l-0.322,0.321l-0.227,0.208l-0.114,0.113l-0.246,0.17l-0.133,0.076l-0.245,0.15l-0.379,0.189l-0.284,0.115
		l-0.265,0.094l-0.434,0.133l-0.285,0.075l-0.302,0.057l-0.284,0.057l-0.436,0.058l-0.265,0.037l-0.284,0.057l-0.756,0.096
		l-0.284,0.019l-0.587-0.039l-0.436-0.037l-0.302-0.038l-0.304-0.057l-0.283-0.076l-0.663-0.189l-0.284-0.075l-0.283-0.094
		l-0.379-0.133l-0.245-0.132l-0.379-0.209l-0.227-0.17l-0.247-0.17l-0.227-0.189l-0.228-0.171l-0.208-0.188l-0.302-0.304
		l-0.189-0.227l-0.208-0.283l-0.171-0.265l-0.473-0.853l-0.132-0.303l-0.132-0.283l-0.094-0.303l-0.095-0.322l-0.058-0.304
		l-0.055-0.32l-0.039-0.303l-0.075-0.416l-0.039-0.302l-0.019-0.285v-0.284l0.057-0.852l0.038-0.151l0.056-0.321l0.075-0.321
		l0.096-0.303l0.094-0.322l0.095-0.303l0.094-0.283l0.132-0.304l0.132-0.322l0.133-0.265l0.247-0.34l0.169-0.227l0.208-0.246
		l0.208-0.227l0.228-0.209l0.492-0.416l0.247-0.188l0.227-0.172l0.227-0.15l0.625-0.359l0.283-0.171l0.322-0.133l0.322-0.094
		l0.302-0.076l0.7-0.113l0.549-0.076l0.284-0.057l0.283-0.039l0.436-0.036l0.302-0.019l0.416,0.037l0.284,0.018l0.436,0.059
		l0.265,0.057l0.416,0.075l0.284,0.075l0.416,0.133l0.285,0.096l0.681,0.34l0.284,0.169l0.247,0.172l0.094,0.057l0.208,0.133
		l0.208,0.15l0.096,0.095l0.208,0.152l0.112,0.094l0.114,0.133v0.133l-0.057,0.133l-0.113,0.169l-0.171,0.247l-0.189,0.207
		l-0.53,0.53l-0.34,0.303l-0.227,0.189l-0.208,0.152l-0.151,0.112l-0.114,0.075l-0.151,0.02l-0.208-0.132l-0.247-0.171l-0.247-0.151
		l-0.265-0.151l-0.302-0.133l-0.303-0.113l-0.321-0.076l-0.322-0.057l-0.889-0.057h-0.132l-0.304,0.02l-0.491,0.037l-0.304,0.076
		l-0.567,0.265l-0.247,0.171l-0.247,0.189l-0.208,0.208l-0.188,0.245l-0.171,0.247l-0.15,0.264l-0.114,0.284l-0.094,0.304
		l-0.076,0.283l-0.114,0.567l-0.057,0.304l-0.019,0.32v0.322l0.037,0.454l0.057,0.303l0.096,0.436l0.094,0.303l0.19,0.453
		l0.132,0.265l0.227,0.342l0.189,0.228l0.341,0.32l0.246,0.189l0.377,0.208l0.285,0.114l0.567,0.133l0.322,0.038l0.322,0.019h0.302
		l0.302-0.039l0.285-0.057l1.021-0.245l0.302-0.114l0.285-0.133l0.188-0.132l0.058-0.114v-0.208l0.02-0.17v-0.283l-0.038-0.568
		v-0.321l-0.076-0.113l-0.208-0.038h-0.454l-0.302,0.019l-0.436,0.057l-0.302,0.02h-0.437l-0.302-0.02l-0.644-0.112l-0.114-0.038
		l-0.076-0.094l-0.037-0.229l-0.02-0.151l-0.019-0.303l0.019-0.474l-0.037-0.567l-0.039-0.283v-0.397l0.057-0.208l0.094-0.095
		l0.228-0.037l0.473-0.058l0.322-0.019h0.871l1.229-0.057l1.513,0.094h0.304l0.775-0.094l0.304-0.019l0.151,0.019l0.284,0.057
		l0.132,0.076l0.039,0.111l0.057,0.266L156.578,396.615z"/>
	<path fill="#777777" d="M171.686,393.682l-0.02,0.305v2.799l0.057,1.099v0.302l0.039,2.497v0.322l-0.02,0.151l-0.019,0.322
		l-0.057,0.907l0.02,1.099l-0.02,0.264l-0.076,0.227l-0.151,0.209l-0.189,0.133l-0.171,0.057l-0.263,0.019l-0.966,0.038
		l-0.302,0.019l-0.473,0.019h-0.303l-0.245-0.056l-0.228-0.095l-0.227-0.17L167.9,403.9l-0.284-0.549l-0.171-0.247l-0.736-0.928
		l-0.19-0.226l-0.738-0.909l-0.171-0.245l-0.663-0.984l-0.169-0.227l-0.738-0.909l-0.189-0.227l-0.7-0.928l-0.171-0.15l-0.132,0.057
		l-0.057,0.227l-0.037,0.946v0.303l0.019,0.946v0.303l0.019,1.06v0.304l-0.057,1.059l0.02,0.303l0.113,0.757l0.02,0.304
		l-0.057,0.245l-0.133,0.133l-0.132,0.038l-0.227,0.037l-0.152,0.02l-0.321,0.019l-0.871-0.019h-0.303l-0.775,0.037h-0.304
		l-0.284-0.019l-0.208-0.038l-0.152-0.095l-0.075-0.132l-0.037-0.19l-0.019-0.131v-0.285l0.037-0.623l0.019-0.304l-0.056-1.003
		v-0.303l0.037-2.309l0.019-0.303l0.057-1.003l0.018-0.303v-1.306l-0.075-1.003v-0.302l0.075-1.003l-0.018-0.304l-0.076-1.021
		l-0.019-0.302v-0.437l0.019-0.283l0.039-0.283l0.037-0.208l0.057-0.133l0.114-0.057l0.208-0.039l0.567-0.037l0.568,0.037h1.419
		l0.227,0.021l0.095,0.075l0.113,0.17l0.795,0.853l0.189,0.226l0.7,0.909l0.189,0.227l0.701,0.928l0.188,0.227l0.681,0.946
		l0.171,0.228l0.719,0.907l0.189,0.228l0.681,0.946l0.151,0.133l0.151,0.019l0.132-0.096v-0.208l-0.132-0.794l-0.019-0.303
		l0.057-0.813v-0.304l-0.075-1.154v-0.302l0.075-1.154l-0.02-0.303l-0.056-0.7v-0.473l0.056-0.246l0.077-0.151l0.132-0.076
		l0.227-0.038h0.169l0.322-0.019l0.852,0.057h0.302l0.644-0.038l0.283,0.019l0.437,0.02l0.208,0.037l0.133,0.058l0.112,0.133
		l0.039,0.265l0.019,0.169l0.019,0.322l-0.037,0.587l-0.039,0.303L171.686,393.682z"/>
	<path fill="#777777" d="M194.67,397.712l0.037,0.606l-0.019,0.283l-0.019,0.436l-0.039,0.283l-0.076,0.455l-0.057,0.302
		l-0.076,0.437l-0.075,0.283l-0.152,0.397l-0.095,0.265l-0.169,0.398l-0.133,0.265l-0.247,0.377l-0.189,0.247l-0.226,0.245
		l-0.247,0.209l-0.378,0.302l-0.245,0.172l-0.379,0.227l-0.245,0.132l-0.397,0.189l-0.285,0.095l-0.416,0.15l-0.284,0.077
		l-0.434,0.075l-0.285,0.056l-0.585,0.039h-0.87l-0.437-0.039l-0.284-0.019l-1.04-0.112l-0.303-0.057l-0.171-0.021l-0.302-0.094
		l-0.151-0.057l-0.303-0.133l-0.416-0.189l-0.284-0.17l-0.284-0.189l-0.493-0.416l-0.208-0.208l-0.245-0.322l-0.171-0.227
		l-0.302-0.492l-0.171-0.266l-0.151-0.283l-0.132-0.302l-0.114-0.285l-0.076-0.265l-0.075-0.283l-0.075-0.417l-0.058-0.321
		l-0.038-0.321l-0.037-0.644l-0.02-0.304l0.057-1.154v-0.302l-0.037-1.154v-0.303l0.057-1.154v-1.76l-0.038-0.604v-0.322
		l0.019-0.322l0.057-0.302l0.133-0.172l0.247-0.057l0.624-0.037l0.719,0.057h0.302l0.624-0.02l0.285,0.02l0.435,0.02l0.247,0.057
		l0.151,0.151l0.057,0.246l0.018,0.266v0.283l-0.037,0.737v0.303l0.055,1.153v0.304l-0.019,1.154v0.303l-0.057,1.154v0.302
		l-0.019,1.154l0.019,0.304l0.039,0.474l0.057,0.301l0.112,0.418l0.114,0.284l0.189,0.434l0.189,0.229l0.302,0.32l0.247,0.152
		l0.416,0.151l0.283,0.075l0.494,0.038h0.302l0.491-0.096l0.285-0.074l0.359-0.17l0.247-0.152l0.302-0.266l0.189-0.226l0.208-0.398
		l0.133-0.283l0.094-0.304l0.057-0.302l0.076-0.569l0.02-0.301l-0.076-1.154v-0.304l0.056-1.172v-0.305l0.039-1.153v-0.303
		l-0.039-1.173l-0.019-0.303l-0.057-0.794v-0.474l0.076-0.265l0.171-0.151l0.247-0.057h0.397l0.964,0.075h0.302l0.758-0.058h0.302
		l0.284,0.021l0.247,0.056l0.151,0.132l0.02,0.229l0.019,0.566v0.284l-0.019,0.436v0.303l0.056,1.173v0.303l-0.037,1.153v0.305
		l-0.075,1.172L194.67,397.712z"/>
	<path fill="#777777" d="M209.341,395.574l0.02,0.283l-0.02,0.285l-0.019,0.32l-0.094,0.473l-0.057,0.304l-0.151,0.379l-0.114,0.266
		l-0.189,0.358l-0.169,0.246l-0.265,0.359l-0.208,0.227l-0.247,0.229l-0.247,0.208l-0.245,0.169l-0.265,0.171l-0.418,0.189
		l-0.284,0.133l-0.322,0.133l-0.283,0.094l-0.416,0.114l-0.284,0.056l-0.284,0.038l-0.303,0.019l-0.491,0.038h-1.59l-0.322-0.019
		l-0.32,0.019l-0.322,0.037l-0.228,0.039l-0.056,0.132l-0.02,0.247l-0.076,1.267v0.303l0.019,0.567l-0.019,0.285l-0.018,0.416
		l-0.039,0.208l-0.056,0.114l-0.096,0.037l-0.208,0.038l-0.605,0.037l-0.738-0.037h-0.302l-0.605,0.037l-0.304-0.019l-0.435-0.019
		l-0.247-0.075l-0.114-0.114l-0.037-0.227l-0.039-0.285l-0.019-0.302v-2.025l0.076-1.003v-0.303l-0.076-1.003v-0.303l-0.038-2.307
		v-0.305l0.075-1.021v-0.305l-0.056-1.003v-0.302l0.076-1.003v-0.283l-0.039-0.568l0.019-0.283l0.021-0.151l0.037-0.208l0.057-0.114
		l0.094-0.094l0.209-0.019l0.549-0.038l0.434,0.018h0.284l1.268-0.018h1.268l1.268,0.075h1.248l0.72-0.037l0.265,0.019h0.151
		l0.285,0.057l0.434,0.112l0.304,0.096l0.302,0.113l0.283,0.132l0.285,0.171l0.245,0.189l0.341,0.303l0.228,0.189l0.094,0.113
		l0.34,0.341l0.19,0.245l0.094,0.114l0.133,0.228l0.075,0.112l0.114,0.247l0.094,0.283l0.077,0.266l0.019,0.132l0.075,0.265
		l0.039,0.151l0.075,0.266l0.113,0.529V395.574z M203.683,397.429l0.341-0.038l0.322-0.075l0.151-0.058l0.265-0.151l0.114-0.075
		l0.189-0.189l0.075-0.113l0.133-0.246l0.057-0.133l0.076-0.303l0.019-0.133v-0.473l-0.058-0.284l-0.057-0.15l-0.112-0.246
		l-0.076-0.114l-0.208-0.227l-0.152-0.094l-0.284-0.152l-0.491-0.133l-0.304-0.037h-0.435l-0.568,0.037l-0.832-0.055h-0.283
		l-0.151,0.018l-0.209,0.037l-0.075,0.057l-0.058,0.133l-0.037,0.229v0.435l0.057,0.7l0.019,0.302l0.019,1.098l0.02,0.228
		l0.056,0.133l0.209,0.075l0.983,0.076L203.683,397.429z"/>
	<path fill="#777777" d="M231.018,402.556v0.305L231,403.029v0.304l-0.039,0.681v0.341l-0.019,0.037h-0.018l-0.171,0.02
		l-0.302,0.037h-0.663l-0.322-0.037l-0.642-0.152l-0.286-0.132l-0.265-0.17l-0.208-0.229l-0.188-0.265l-0.171-0.283l-0.094-0.17
		l-0.039-0.038h-0.094l-0.152,0.15l-0.245,0.229l-0.379,0.265l-0.265,0.19l-0.322,0.168l-0.302,0.152l-0.415,0.189l-0.266,0.095
		l-0.114,0.019l-0.302,0.075l-0.361,0.039h-1.513l-0.472-0.039l-0.322-0.018l-0.455-0.076l-0.301-0.077l-0.436-0.094l-0.302-0.113
		l-0.285-0.113l-0.133-0.057l-0.226-0.133l-0.095-0.057l-0.207-0.151l-0.115-0.075l-0.227-0.208l-0.265-0.266l-0.208-0.303
		l-0.152-0.266l-0.037-0.133l-0.096-0.244l-0.057-0.114l-0.076-0.304l-0.075-0.358l-0.057-0.304v-0.112l-0.018-0.266l-0.019-0.15
		v-0.285l0.019-0.284l0.057-0.283l0.075-0.304l0.114-0.264l0.132-0.264l0.17-0.266l0.189-0.229l0.208-0.226l0.208-0.209l0.247-0.189
		l0.397-0.265l0.019-0.038v-0.037l-0.019-0.039l-0.132-0.075l-0.114-0.075l-0.208-0.17l-0.114-0.077l-0.169-0.188l-0.097-0.113
		l-0.168-0.266l-0.151-0.283l-0.039-0.133l-0.094-0.265l-0.02-0.151l-0.055-0.265v-0.115l-0.021-0.301v-0.343l0.039-0.34l0.057-0.32
		l0.075-0.304l0.095-0.322l0.132-0.303l0.15-0.303l0.171-0.266l0.208-0.244l0.246-0.229l0.246-0.208l0.285-0.189l0.284-0.17
		l0.283-0.132l0.624-0.227l0.322-0.114l0.965-0.226l0.321-0.058l0.34-0.038l0.322-0.02h0.624l0.473,0.037l0.304,0.021l0.7,0.112
		l0.396,0.057l0.437,0.096l0.34,0.095l0.284,0.132l0.34,0.171l0.114,0.076l0.265,0.15l0.302,0.227l0.265,0.266l0.19,0.246
		l0.057,0.094l0.133,0.228l0.057,0.113l0.094,0.229l0.057,0.132l0.094,0.283l0.096,0.341l0.056,0.321v0.113l0.02,0.266l0.018,0.132
		v0.171l-0.132,0.057h-0.53l-0.72,0.037l-0.151,0.021h-0.34l-0.473-0.021l-1.061-0.057l-0.055-0.019l-0.038-0.037l-0.039-0.132
		l-0.037-0.152l-0.096-0.246l-0.055-0.113l-0.208-0.247l-0.266-0.188l-0.114-0.058l-0.265-0.075l-0.114-0.038l-0.266-0.019h-0.132
		l-0.266,0.019l-0.15,0.038l-0.265,0.056l-0.113,0.038l-0.265,0.095l-0.114,0.057l-0.228,0.133l-0.114,0.075l-0.17,0.189
		l-0.057,0.095l-0.095,0.246l-0.038,0.113v0.302l0.077,0.322l0.113,0.266l0.189,0.228l0.228,0.17l0.264,0.15l0.303,0.076
		l0.284,0.038h0.283l0.133,0.019h0.265l0.548,0.02h0.379l0.133,0.02h0.265l0.548,0.037h0.398l0.132-0.02l0.265-0.018l0.265-0.039
		l0.265-0.019l0.133-0.019h0.265l0.132,0.019h0.266l0.265,0.038l0.265,0.02l0.131,0.018h0.266l0.132-0.018h1.117v0.301l0.018,0.285
		l0.039,0.246v1.286l-0.019,0.265v0.283l-0.057,0.021h-0.208l-0.303,0.019l-0.247,0.039l-0.509,0.037l-0.019,0.17v0.435l-0.02,0.229
		l0.039,0.32l0.018,0.171l0.114,0.302l0.094,0.114l0.208,0.208l0.152,0.075l0.284,0.076l0.284,0.02l0.17,0.019l0.019,0.037v0.038
		l-0.019,0.172l0.019,0.169l0.018,0.304l0.039,0.341l0.019,0.32L231.018,402.556z M226.062,398.904l-0.038-0.057l-0.171-0.018
		h-0.661l-0.473,0.037h-0.928l-0.321,0.037l-0.322,0.076l-0.321,0.113l-0.284,0.152l-0.266,0.169l-0.188,0.246l-0.094,0.322
		l-0.019,0.359l0.095,0.321l0.15,0.266l0.229,0.227l0.265,0.15l0.302,0.096l0.322,0.076l0.341,0.038l0.303,0.019l0.398-0.057
		l0.112-0.039l0.247-0.094l0.133-0.039l0.227-0.112l0.114-0.075l0.265-0.172l0.208-0.207l0.076-0.114l0.114-0.208l0.057-0.132
		l0.056-0.246l0.02-0.133l0.019-0.265l0.018-0.285l0.039-0.301L226.062,398.904z"/>
	<path fill="#777777" d="M252.468,400.134l-0.019,0.322l-0.039,0.322l-0.055,0.302l-0.096,0.416l-0.094,0.266l-0.172,0.379
		l-0.132,0.245l-0.227,0.342l-0.189,0.227l-0.227,0.227l-0.229,0.208l-0.377,0.246l-0.247,0.172l-0.283,0.15l-0.266,0.133
		l-0.436,0.15l-0.567,0.189l-0.303,0.058l-0.473,0.075l-0.284,0.037l-0.416,0.038l-0.265,0.019l-0.435,0.019l-0.909,0.057h-0.415
		l-0.266-0.018l-0.435-0.039l-0.285-0.037l-0.322-0.057l-0.283-0.094l-0.416-0.133l-0.265-0.133l-0.283-0.132l-0.266-0.133
		l-0.246-0.15l-0.605-0.418l-0.227-0.188l-0.341-0.265l-0.227-0.189l-0.21-0.208l-0.15-0.172l-0.019-0.132l0.094-0.169l0.075-0.096
		l0.189-0.208l0.53-0.492l0.172-0.207l0.32-0.493l0.171-0.209l0.189-0.207l0.208-0.113l0.208,0.037l0.208,0.151l0.605,0.417
		l0.283,0.151l0.266,0.133l0.436,0.207l0.283,0.095l0.302,0.095l0.305,0.059l0.434,0.018l0.304,0.019l1.192-0.075l0.303-0.039
		l0.15-0.037l0.285-0.113l0.245-0.151l0.189-0.189l0.094-0.133l0.113-0.283l-0.018-0.322l-0.039-0.15l-0.15-0.266l-0.094-0.113
		l-0.247-0.19l-0.15-0.055l-0.285-0.114l-0.32-0.075L247,399.057l-1.799-0.172l-0.566-0.112l-0.304-0.075l-0.416-0.152l-0.283-0.095
		l-0.283-0.132l-0.644-0.322l-0.248-0.169l-0.283-0.172l-0.244-0.17l-0.322-0.265l-0.171-0.246l-0.17-0.283l-0.114-0.283
		l-0.132-0.398l-0.058-0.285l-0.057-0.415l-0.037-0.606l0.019-0.302l0.038-0.454l0.058-0.283l0.075-0.247l0.094-0.283l0.189-0.416
		l0.133-0.266l0.151-0.228l0.189-0.208l0.302-0.284l0.246-0.189l0.247-0.169l0.265-0.133l0.359-0.208l0.567-0.228l0.285-0.094
		l0.434-0.076l0.304-0.057l0.566-0.076l0.417-0.074l0.303-0.039l0.283-0.019h0.303l0.568,0.058l0.284,0.037l0.132,0.037l0.304,0.037
		l0.642,0.114l0.322,0.075l0.303,0.096l0.321,0.095l0.305,0.113l0.283,0.133l0.283,0.112l0.358,0.208l0.266,0.133l0.246,0.171
		l0.172,0.171v0.188l-0.115,0.207l-0.207,0.379l-0.151,0.227l-0.72,0.946l-0.208,0.266l-0.229,0.189l-0.15,0.057l-0.133-0.019
		l-0.189-0.095l-0.283-0.17l-0.284-0.114l-0.132-0.058l-0.283-0.094l-0.151-0.038l-0.321-0.075l-0.437-0.094l-0.302-0.02
		l-0.493-0.038h-0.492l-0.321,0.019l-0.32,0.057l-0.304,0.094l-0.114,0.058l-0.227,0.171l-0.094,0.113l-0.133,0.266l-0.038,0.302
		l0.057,0.247l0.151,0.245l0.208,0.189l0.228,0.113l0.133,0.058l0.283,0.057l0.474,0.056l0.643,0.039l0.321,0.057l0.645,0.15
		l0.605,0.19l0.435,0.094l0.283,0.075l0.53,0.189l0.379,0.171l0.265,0.133l0.266,0.15l0.244,0.151l0.551,0.455l0.208,0.227
		l0.189,0.228l0.227,0.341l0.15,0.245l0.133,0.285l0.076,0.283l0.074,0.416l0.039,0.283L252.468,400.134z"/>
	<path fill="#777777" d="M268.785,403.844l0.058,0.264l-0.133,0.209l-0.209,0.095l-0.246,0.037h-0.264l-0.436-0.037l-0.284-0.02
		h-0.852l-1.172,0.075l-0.246-0.075l-0.115-0.151l-0.094-0.208l-0.587-1.59l-0.132-0.189l-0.17-0.037l-0.228-0.019l-1.136-0.075
		h-0.303l-1.419-0.039l-1.136-0.018H259.4l-0.283,0.018h-0.87L258,402.122l-0.15,0.094l-0.114,0.227l-0.435,1.286l-0.113,0.304
		l-0.209,0.247l-0.283,0.112l-0.304-0.019l-1.097-0.057h-0.303l-1.173,0.075l-0.247,0.02l-0.227-0.114l-0.151-0.207l0.02-0.246
		l0.036-0.152l0.114-0.303l0.266-0.586l0.113-0.284l0.474-1.06l0.112-0.265l0.493-1.061l0.111-0.283l0.437-1.021l0.114-0.285
		l0.511-1.06l0.113-0.265l0.681-1.552l0.53-1.135l0.132-0.304l0.417-0.851l0.132-0.303l0.359-0.871l0.114-0.284l0.34-0.775
		l0.094-0.209l0.19-0.112l0.285-0.057l0.868-0.039h1.477l0.87,0.021l0.322,0.056l0.208,0.152l0.096,0.245l0.265,0.738l0.112,0.283
		l0.474,0.891l0.113,0.265l0.416,0.927l0.114,0.265l0.341,0.966l0.113,0.265l0.417,0.907l0.111,0.266l0.418,0.927l0.112,0.266
		l0.379,0.946l0.114,0.265l0.585,1.172l0.455,0.89l0.133,0.265l0.511,1.193L268.785,403.844z M262.465,398.508l-0.075-0.247
		l-0.416-1.286l-0.094-0.283l-0.379-1.117l-0.094-0.245l-0.189-0.133l-0.247-0.057l-0.208,0.057l-0.189,0.188l-0.51,1.288
		l-0.114,0.284l-0.491,1.268l-0.058,0.284l0.058,0.227l0.208,0.096l0.265,0.037h1.191l0.89,0.057l0.246-0.076l0.152-0.15
		L262.465,398.508z"/>
	<path fill="#777777" d="M281.811,391.033l-0.057,0.245l-0.057,0.171l-0.113,0.303l-0.266,0.511l-0.132,0.283l-0.341,1.061
		l-0.132,0.284l-0.492,1.003l-0.133,0.283l-0.34,1.041l-0.114,0.302l-0.397,1.022l-0.114,0.303l-0.416,1.022l-0.132,0.283
		l-0.51,1.003l-0.133,0.285l-0.416,1.021l-0.114,0.303l-0.455,0.984l-0.113,0.302l-0.435,1.022l-0.075,0.209l-0.114,0.075
		l-0.227,0.019l-1.382-0.019l-0.303,0.019l-1.06,0.094l-0.322,0.021l-0.244-0.039l-0.133-0.132l-0.114-0.227l-0.416-1.003
		l-0.113-0.284l-0.492-1.041l-0.114-0.283l-0.416-1.003l-0.113-0.303l-0.341-1.042l-0.114-0.301l-0.452-1.003l-0.115-0.285
		l-0.49-1.04l-0.115-0.284l-0.378-1.021l-0.133-0.303l-0.453-0.985l-0.114-0.302l-0.34-1.061l-0.114-0.283l-0.341-0.548
		l-0.113-0.283l-0.057-0.172l-0.037-0.246l0.057-0.17l0.133-0.114l0.207-0.057l0.114-0.019h0.283l0.851,0.058l0.909-0.02
		l1.211,0.076l0.246,0.019l0.151,0.038l0.114,0.151l0.075,0.189l0.075,0.266l0.19,0.623l0.094,0.302l0.454,0.985l0.112,0.303
		l0.379,1.002l0.114,0.304l0.377,1.192l0.115,0.302l0.415,1.174l0.473,1.513l0.096,0.209l0.133,0.075l0.17-0.075l0.113-0.209
		l0.455-1.172l0.094-0.304l0.304-1.229l0.094-0.303l0.53-1.136l0.094-0.303l0.322-1.04l0.094-0.284l0.473-1.004l0.096-0.283
		l0.189-0.699l0.112-0.322l0.152-0.246l0.133-0.076l0.227-0.037h0.133l0.302-0.02l0.473,0.039h1.212l0.87-0.058l0.34,0.038
		l0.229,0.058l0.113,0.112L281.811,391.033z"/>
	<path fill="#777777" d="M294.441,402.595l-0.02,0.303l-0.074,1.021l-0.02,0.189l-0.076,0.133l-0.094,0.076l-2.48,0.075h-0.301
		l-1.003-0.075l-0.305,0.018l-0.982,0.077l-0.304,0.019h-1.305l-0.984-0.075h-0.303l-1.628,0.094l-0.643-0.037l-0.228-0.038
		l-0.132-0.094l-0.057-0.133l-0.038-0.208l-0.037-0.437l-0.021-0.302l0.021-0.285v-0.283l0.075-1.003v-0.303l0.019-1.003
		l-0.019-0.303l-0.057-1.003l-0.019-0.303l0.037-1.021v-1.608l0.075-1.003l-0.019-0.305l-0.057-1.003l-0.019-0.302v-0.454
		l0.037-0.567v-0.283l0.057-0.984l0.02-0.265l0.056-0.151l0.096-0.076l0.151-0.02l0.246-0.037l1.229,0.076l1.154-0.02h0.303
		l1.134,0.076h0.305l1.136-0.076h0.301l2.575,0.037l0.32-0.018l0.645-0.058h0.473l0.265,0.058l0.113,0.094l0.037,0.132l0.039,0.247
		v0.511l-0.039,0.474v0.32l0.02,0.473l0.02,0.285l-0.02,0.284l-0.037,0.227l-0.076,0.133l-0.096,0.074l-0.226,0.039h-0.151
		l-0.304,0.019l-1.778-0.036h-0.303l-0.964,0.036h-0.305l-0.982-0.036l-0.852-0.059h-0.284l-0.151,0.02l-0.188,0.039l-0.096,0.094
		l-0.019,0.113l-0.037,0.208l-0.038,0.455v0.301l0.018,0.322l0.021,0.209l0.037,0.132l0.075,0.094l0.208,0.058l0.605,0.038
		l0.605-0.038h1.799l2.119-0.114l0.586,0.038l0.208,0.039l0.113,0.094l0.058,0.114l0.019,0.207l0.038,0.322l0.019,0.321v0.625
		l0.039,0.435l-0.039,0.566l-0.037,0.229l-0.076,0.133l-0.133,0.094l-0.188,0.039h-0.379l-0.852-0.096l-0.302-0.019l-1.515,0.095
		l-1.212-0.037h-0.302l-0.756-0.058l-0.322,0.019l-0.229,0.02l-0.094,0.057l-0.057,0.133l-0.019,0.284l-0.057,0.473l-0.02,0.303
		v0.415l0.02,0.189l0.057,0.133l0.075,0.075l0.208,0.021l1.042,0.037h0.302l1.021-0.076l1.344,0.076h0.303l1.345-0.076h0.283
		l0.283,0.019l0.681,0.075l0.114,0.058l0.075,0.114l0.019,0.207L294.441,402.595z"/>
	<path fill="#777777" d="M307.47,401.042l0.02,0.095l0.189,0.037l0.265,0.021l0.718-0.021h1.534l0.964,0.021h0.303l2.215-0.038
		l0.303-0.02l0.625-0.057h0.321l0.246,0.057l0.113,0.17l0.037,0.266l0.019,0.285l0.019,0.302v0.776l0.037,0.473l-0.019,0.303
		l-0.019,0.264l-0.037,0.19l-0.076,0.114l-0.111,0.055l-0.607,0.096l-0.265,0.019l-0.416-0.019l-0.283-0.019l-1.381-0.077h-1.061
		l-1.666,0.096h-2.743l-1.381-0.019l-1.061-0.038l-0.227-0.019l-0.132-0.075l-0.038-0.114l-0.02-0.208l0.037-1.136v-0.303
		l-0.055-1.155l0.018-0.301l0.058-0.569l0.112-0.566l0.057-0.304l0.096-0.32l0.094-0.304l0.058-0.151l0.133-0.303l0.15-0.245
		l0.322-0.341l0.208-0.189l0.341-0.265l0.227-0.151l0.378-0.247l0.248-0.132l0.396-0.189l0.283-0.094l0.474-0.151l0.322-0.077
		l0.32-0.055l0.304-0.039l0.965-0.057l0.17-0.02l0.342-0.018l0.471-0.021l0.343-0.075l0.15-0.076l0.283-0.169l0.133-0.133
		l0.17-0.246l0.113-0.398v-0.415l-0.036-0.151l-0.096-0.304l-0.074-0.133l-0.19-0.227l-0.247-0.113l-0.416-0.114l-0.266-0.036
		l-0.283-0.02h-0.283l-0.265,0.02l-0.266,0.057l-0.396,0.133l-0.247,0.133l-0.114,0.074l-0.187,0.209l-0.096,0.113l-0.133,0.283
		l-0.094,0.266l-0.171,0.112l-0.283,0.076h-0.17l-0.322,0.02l-0.795-0.039h-0.795l-0.322-0.018l-0.491-0.058l-0.246-0.038
		l-0.133-0.076l-0.056-0.094v-0.322l0.037-0.283l0.038-0.171l0.058-0.303l0.036-0.132l0.096-0.283l0.188-0.361l0.152-0.264
		l0.17-0.246l0.207-0.246l0.229-0.208l0.227-0.189l0.358-0.245l0.266-0.153l0.568-0.301l0.32-0.133l0.304-0.096l0.416-0.094
		l0.304-0.058l0.282-0.057l0.266-0.037l0.416-0.018l0.302-0.021h0.625l0.436-0.019h0.305l0.283,0.019l0.284,0.057l0.396,0.096
		l0.284,0.094l0.604,0.189l0.287,0.094l0.283,0.114l0.397,0.19l0.266,0.15l0.242,0.208l0.247,0.246l0.209,0.245l0.188,0.247
		l0.247,0.34l0.132,0.266l0.133,0.283l0.095,0.283l0.093,0.265l0.059,0.285l0.056,0.453v0.284l-0.019,0.418l-0.037,0.264
		l-0.096,0.435l-0.073,0.283l-0.114,0.322l-0.132,0.284l-0.211,0.36l-0.169,0.245l-0.246,0.322l-0.21,0.207l-0.302,0.284
		l-0.246,0.152l-0.398,0.208l-0.283,0.112l-0.32,0.096l-0.302,0.094l-0.324,0.057l-0.302,0.058l-0.434,0.038l-0.303,0.037
		l-0.323,0.057l-0.303,0.058l-0.453,0.037l-0.322,0.02h-0.151l-0.339,0.019h-0.154l-0.321,0.058l-0.15,0.057l-0.284,0.133
		l-0.114,0.094l-0.207,0.208l-0.152,0.227l-0.113,0.265l-0.037,0.152l-0.057,0.245L307.47,401.042z"/>
	<path fill="#777777" d="M328.366,399.888v0.322l-0.019,0.322l-0.019,0.302l-0.076,0.418l-0.074,0.265l-0.191,0.377l-0.151,0.266
		l-0.169,0.265l-0.417,0.491l-0.227,0.208l-0.567,0.436l-0.283,0.17l-0.306,0.172l-0.302,0.132l-0.284,0.133l-0.379,0.132
		l-0.283,0.095l-0.32,0.096l-0.302,0.057l-0.42,0.019l-0.264,0.019l-0.417-0.019h-0.265l-0.416-0.039l-0.302-0.019l-0.32-0.038
		l-0.607-0.037l-0.302-0.038l-0.453-0.095l-0.286-0.075l-0.283-0.114l-0.266-0.133l-0.397-0.227l-0.244-0.17l-0.305-0.245
		l-0.206-0.189l-0.266-0.322l-0.19-0.227l-0.17-0.285l-0.151-0.265l-0.15-0.377l-0.077-0.266l-0.093-0.416l-0.039-0.304l-0.02-0.322
		l0.037-0.283l0.133-0.133l0.229-0.037l0.434-0.038l0.872,0.058h0.303l0.851-0.058h0.455l0.247,0.058l0.133,0.113l0.092,0.246
		l0.114,0.321l0.19,0.283l0.207,0.208l0.246,0.171l0.284,0.094l0.265,0.076l0.416,0.02h0.265l0.417-0.02l0.283-0.076l0.305-0.132
		l0.302-0.169l0.246-0.266l0.133-0.304l0.057-0.302l0.018-0.341l-0.074-0.303l-0.039-0.113l-0.17-0.246l-0.207-0.208l-0.246-0.189
		l-0.306-0.133l-0.301-0.075l-0.435-0.058l-0.284-0.018l-0.589,0.037l-0.415,0.038l-1.267-0.075h-0.303l-2.252,0.037l-0.246-0.057
		l-0.133-0.152l-0.02-0.244l-0.018-1.136v-0.304l0.018-1.136v-0.301l-0.055-1.136v-0.305l0.055-1.134l-0.018-0.321l-0.059-0.645
		l-0.019-0.302l0.019-0.171l0.059-0.283l0.17-0.151l0.228-0.039h0.397l0.718,0.058h0.303l1.1-0.058l0.302-0.018l1.097-0.02
		l1.705,0.113l1.097-0.037h1.663l0.567-0.039l0.57,0.039l0.207,0.037l0.132,0.057l0.096,0.114l0.037,0.227l0.019,0.133l0.018,0.283
		l-0.036,0.568v0.605l-0.019,0.302l-0.056,0.322l-0.04,0.283l-0.133,0.153l-0.246,0.037l-0.15,0.018h-0.303l-0.795,0.02h-0.302
		l-1.554-0.02h-1.248l-0.891-0.055h-0.32l-0.32,0.018l-0.283,0.076l-0.154,0.15l-0.036,0.229l-0.02,0.567l0.037,0.264l0.114,0.227
		l0.228,0.133l0.266,0.039l1.06-0.057h0.32l0.476,0.038l0.604,0.037l0.283,0.038l0.475,0.057l0.604,0.113l0.283,0.095l0.398,0.17
		l0.283,0.15l0.287,0.172l0.243,0.171l0.529,0.435l0.266,0.321l0.173,0.227l0.132,0.283l0.111,0.305l0.151,0.415l0.059,0.305
		l0.096,0.434l0.036,0.304L328.366,399.888z"/>
	<path fill="#777777" d="M336.018,394.345l-0.037,0.34l-0.077,0.322l-0.133,0.303l-0.17,0.284l-0.209,0.264l-0.225,0.246
		l-0.247,0.227l-0.265,0.21l-0.284,0.188l-0.301,0.152l-0.324,0.112l-0.32,0.057l-0.323,0.039l-0.416,0.036l-0.321-0.019
		l-0.359-0.038l-0.32-0.056l-0.303-0.077l-0.323-0.112l-0.32-0.132l-0.284-0.172l-0.246-0.189l-0.246-0.227l-0.207-0.265
		l-0.172-0.283l-0.133-0.283l-0.133-0.322l-0.074-0.304l-0.059-0.32l-0.018-0.34l-0.02-0.322l0.02-0.341l0.036-0.322l0.077-0.322
		l0.114-0.302l0.169-0.285l0.21-0.264l0.226-0.246l0.492-0.455l0.265-0.189l0.303-0.169l0.305-0.114l0.321-0.075l0.32-0.057
		l0.359-0.037h0.303l0.114,0.018l0.302,0.02l0.342,0.075l0.302,0.075l0.321,0.114l0.305,0.15l0.283,0.172l0.266,0.207l0.228,0.227
		l0.207,0.266l0.169,0.283l0.151,0.304l0.228,0.605l0.077,0.322l0.056,0.341V394.345z M343.151,391.146l-0.115,0.228l-0.169,0.265
		l-0.512,0.605l-0.169,0.245l-0.585,0.946l-0.154,0.265l-0.586,0.966l-0.151,0.266l-0.585,0.945l-0.173,0.266l-0.622,0.889
		l-0.191,0.265l-0.641,0.89l-0.19,0.265l-0.604,0.89l-0.173,0.265l-0.585,0.945l-0.151,0.266l-0.776,1.211l-0.604,0.909
		l-0.172,0.265l-0.567,0.965l-0.15,0.189l-0.133,0.075h-0.229l-1.134,0.037l-0.32,0.021l-0.475,0.018h-0.321l-0.322-0.057
		l-0.266-0.132l-0.114-0.189v-0.152l0.077-0.207l0.17-0.266l0.492-0.587l0.17-0.244l0.589-0.967l0.15-0.265l0.567-0.964l0.17-0.266
		l0.644-0.87l0.169-0.266l0.567-0.964l0.173-0.266l1.436-2.081l0.191-0.265l0.586-0.908l0.19-0.265l0.641-0.891l0.191-0.264
		l0.604-0.909l0.169-0.265l0.57-0.965l0.151-0.171l0.132-0.037h0.188l2.12-0.171h0.284l0.15,0.038l0.21,0.037l0.132,0.114
		l0.074,0.151L343.151,391.146z M333.444,393.664l-0.113-0.284l-0.229-0.246l-0.283-0.114l-0.151-0.037h-0.266l-0.132,0.037
		l-0.265,0.114l-0.226,0.246l-0.114,0.284v0.322l0.114,0.283l0.226,0.244l0.265,0.114l0.132,0.038h0.266l0.151-0.038l0.283-0.114
		l0.229-0.244l0.113-0.283V393.664z M345.308,401.8l-0.037,0.341l-0.076,0.321l-0.133,0.32l-0.17,0.285l-0.206,0.266l-0.229,0.245
		l-0.246,0.229l-0.266,0.207l-0.283,0.17l-0.302,0.15l-0.324,0.133l-0.301,0.057l-0.34,0.039l-0.36,0.019h-0.36l-0.36-0.037
		l-0.32-0.057l-0.321-0.076l-0.323-0.114l-0.32-0.132l-0.283-0.171l-0.246-0.209l-0.247-0.227l-0.206-0.246l-0.173-0.283
		l-0.266-0.605l-0.073-0.322l-0.059-0.322l-0.019-0.32v-0.34l0.019-0.322l0.04-0.341l0.074-0.322l0.113-0.303l0.151-0.283
		l0.209-0.266l0.225-0.245l0.248-0.229l0.246-0.207l0.265-0.189l0.302-0.17l0.306-0.114l0.32-0.075l0.339-0.057l0.36-0.037h0.36
		l0.339,0.037l0.342,0.057l0.303,0.075l0.323,0.114l0.32,0.151l0.283,0.189l0.266,0.189l0.229,0.227l0.206,0.265l0.15,0.284
		l0.151,0.303l0.132,0.303l0.115,0.322l0.076,0.321l0.037,0.322V401.8z M342.753,401.119l-0.113-0.304l-0.226-0.266l-0.283-0.132
		l-0.154-0.019h-0.266l-0.132,0.019l-0.265,0.132l-0.226,0.266l-0.095,0.304v0.32l0.095,0.285l0.226,0.208l0.265,0.112l0.132,0.021
		h0.266l0.154-0.021l0.283-0.112l0.226-0.208l0.113-0.285V401.119z"/>
</g>
<g>
	<path fill="#777777" d="M66.958,67.757l-0.016,0.272l-0.033,0.272l-0.046,0.255l-0.081,0.352l-0.079,0.225l-0.145,0.32
		l-0.112,0.207l-0.191,0.289l-0.16,0.191l-0.192,0.191l-0.192,0.176l-0.319,0.208l-0.209,0.146l-0.239,0.127L64.72,71.1
		l-0.368,0.127l-0.479,0.16l-0.257,0.049l-0.399,0.063l-0.239,0.031l-0.352,0.032l-0.224,0.016l-0.367,0.016l-0.768,0.048h-0.352
		l-0.224-0.015l-0.368-0.033l-0.241-0.031l-0.272-0.048l-0.239-0.079l-0.352-0.112l-0.224-0.112L58.757,71.1l-0.225-0.112
		l-0.208-0.127l-0.512-0.354l-0.191-0.159l-0.288-0.224l-0.191-0.16l-0.177-0.176l-0.128-0.145l-0.016-0.111l0.079-0.143
		l0.064-0.081l0.16-0.176l0.448-0.416l0.144-0.175l0.271-0.417l0.144-0.176l0.16-0.175l0.176-0.096l0.176,0.032l0.176,0.128
		l0.512,0.352l0.239,0.128l0.225,0.112l0.368,0.175l0.24,0.08l0.255,0.08l0.256,0.049l0.367,0.015l0.256,0.016l1.008-0.063
		l0.256-0.033l0.127-0.031l0.241-0.096l0.207-0.128l0.16-0.16l0.079-0.112l0.097-0.239l-0.016-0.272l-0.032-0.127l-0.128-0.224
		l-0.079-0.096l-0.208-0.161l-0.127-0.046l-0.241-0.096l-0.271-0.063l-0.272-0.048l-1.519-0.145l-0.479-0.095l-0.257-0.063
		l-0.352-0.129l-0.239-0.08l-0.239-0.111l-0.545-0.272L58.5,65.808l-0.24-0.146l-0.207-0.144l-0.272-0.224l-0.145-0.208
		l-0.144-0.239l-0.096-0.239l-0.112-0.336l-0.048-0.241l-0.049-0.351l-0.031-0.513l0.016-0.255l0.033-0.384l0.048-0.239l0.064-0.208
		l0.08-0.24l0.16-0.352l0.111-0.224l0.128-0.192l0.16-0.176l0.255-0.24l0.208-0.16l0.208-0.143l0.224-0.112l0.304-0.176l0.479-0.192
		l0.24-0.079l0.367-0.064l0.256-0.048l0.479-0.064l0.352-0.062l0.257-0.033l0.239-0.016h0.255l0.48,0.049l0.24,0.031l0.111,0.031
		l0.256,0.032l0.543,0.096l0.271,0.064l0.255,0.081l0.272,0.08l0.257,0.096l0.24,0.112l0.239,0.095l0.304,0.176l0.223,0.112
		l0.209,0.145l0.144,0.145v0.159l-0.096,0.175l-0.176,0.32l-0.127,0.191l-0.608,0.8l-0.176,0.224l-0.193,0.16l-0.127,0.048
		l-0.112-0.016l-0.16-0.08l-0.24-0.144l-0.239-0.097l-0.112-0.048l-0.239-0.08l-0.128-0.032l-0.271-0.064l-0.369-0.079l-0.255-0.017
		l-0.417-0.032h-0.415l-0.272,0.016l-0.271,0.048l-0.256,0.079l-0.097,0.049l-0.191,0.144l-0.08,0.096l-0.111,0.225l-0.033,0.255
		l0.048,0.209l0.127,0.207l0.176,0.16l0.192,0.096l0.112,0.049l0.24,0.048l0.399,0.047L62.193,64l0.272,0.048l0.545,0.127
		l0.511,0.161l0.367,0.08l0.24,0.063l0.448,0.16l0.32,0.144l0.224,0.112l0.224,0.127l0.208,0.128l0.464,0.385l0.176,0.191
		l0.16,0.192l0.191,0.288l0.127,0.207l0.112,0.241l0.064,0.24l0.063,0.351l0.033,0.24L66.958,67.757z"/>
	<path fill="#777777" d="M72.001,68.795v0.258l-0.062,0.862v0.256l-0.017,0.879v0.176l-0.048,0.079l-0.127,0.049l-0.225,0.017
		l-0.816-0.017h-0.991l-0.799-0.063l-0.098-0.031l-0.048-0.049v-0.16l-0.031-0.4v-0.255l-0.017-0.24v-0.24l-0.046-0.862l0.015-0.258
		l0.048-0.862l0.017-0.256l-0.048-0.879v-0.255l-0.017-0.865v-1.375l-0.015-0.879v-0.257l0.015-0.863V60.93l-0.033-0.88l0.049-0.176
		l0.096-0.064l0.16-0.015h0.127l0.24-0.017l0.384,0.017h0.256l0.735-0.033h0.992l0.176,0.033l0.031,0.096l0.017,0.176l0.031,0.416
		l0.017,0.256v1.566l0.017,0.863v0.257l-0.017,0.879v0.256l0.017,0.864v0.255l-0.033,0.865v1.39L72.001,68.795z"/>
	<path fill="#777777" d="M85.083,64.783l0.016,0.271l-0.063,1.041v1.502l-0.031,0.672v0.944l-0.018,0.176l-0.095,0.159l-0.129,0.208
		l-0.143,0.208l-0.272,0.271l-0.191,0.176l-0.096,0.096l-0.208,0.144l-0.112,0.064l-0.207,0.127l-0.32,0.16L82.974,71.1
		l-0.225,0.079l-0.366,0.112l-0.241,0.063l-0.256,0.048l-0.239,0.048l-0.368,0.049l-0.224,0.031l-0.239,0.048l-0.639,0.081
		l-0.24,0.016l-0.496-0.033l-0.368-0.031l-0.256-0.032L78.56,71.53l-0.239-0.064l-0.561-0.16l-0.239-0.063l-0.239-0.079l-0.32-0.112
		l-0.207-0.111l-0.32-0.177l-0.191-0.144l-0.208-0.144l-0.191-0.16l-0.192-0.144l-0.176-0.16l-0.255-0.256l-0.16-0.191l-0.176-0.239
		l-0.145-0.224l-0.4-0.721l-0.111-0.256l-0.111-0.239l-0.08-0.256l-0.08-0.272l-0.049-0.257L73.86,66.83l-0.033-0.256l-0.062-0.352
		l-0.033-0.255l-0.016-0.241v-0.24l0.049-0.719l0.031-0.128l0.048-0.271l0.063-0.271l0.081-0.256l0.08-0.272l0.08-0.256l0.08-0.239
		l0.111-0.257l0.112-0.272l0.112-0.224l0.208-0.287l0.144-0.192l0.176-0.208l0.176-0.192l0.192-0.176l0.415-0.352l0.208-0.159
		l0.191-0.146l0.192-0.127l0.529-0.304l0.239-0.145l0.272-0.112l0.271-0.079l0.255-0.064l0.592-0.096l0.464-0.064l0.239-0.048
		l0.239-0.033l0.369-0.031l0.255-0.016l0.352,0.031l0.239,0.015l0.369,0.049l0.224,0.048l0.351,0.063l0.24,0.064l0.352,0.112
		l0.241,0.081l0.576,0.287l0.239,0.143l0.208,0.146l0.08,0.048l0.176,0.112l0.175,0.127l0.081,0.08l0.177,0.129l0.094,0.079
		l0.097,0.112v0.112l-0.048,0.112l-0.095,0.143l-0.145,0.208l-0.16,0.175l-0.447,0.448l-0.287,0.256l-0.191,0.16l-0.177,0.129
		l-0.127,0.095l-0.097,0.063l-0.128,0.017l-0.175-0.111l-0.209-0.145l-0.208-0.128l-0.224-0.128l-0.255-0.112l-0.256-0.096
		l-0.271-0.064l-0.272-0.048l-0.751-0.048h-0.111l-0.258,0.016l-0.414,0.032l-0.257,0.064l-0.479,0.224l-0.208,0.145L78,62.897
		l-0.176,0.176l-0.158,0.207l-0.146,0.209l-0.127,0.223l-0.097,0.24l-0.079,0.256l-0.063,0.24l-0.098,0.479l-0.048,0.257
		l-0.015,0.271v0.272l0.031,0.384l0.048,0.256l0.081,0.368l0.079,0.256l0.16,0.383l0.112,0.224l0.191,0.289l0.16,0.192l0.287,0.271
		l0.208,0.16l0.319,0.176l0.241,0.097l0.479,0.112l0.271,0.032l0.272,0.016h0.255l0.256-0.033l0.24-0.048l0.863-0.207l0.255-0.097
		l0.241-0.112l0.159-0.111l0.049-0.096v-0.176l0.017-0.144v-0.239l-0.033-0.48v-0.271l-0.063-0.096l-0.176-0.032h-0.384
		l-0.255,0.016l-0.369,0.048l-0.255,0.017h-0.369l-0.255-0.017l-0.545-0.095l-0.096-0.032l-0.064-0.08l-0.031-0.193l-0.017-0.128
		l-0.016-0.256l0.016-0.4l-0.031-0.479l-0.032-0.239v-0.336l0.048-0.175l0.08-0.08l0.192-0.032l0.4-0.048l0.271-0.016h0.735
		l1.04-0.048l1.277,0.079h0.257l0.655-0.079l0.256-0.016l0.127,0.016l0.24,0.048l0.111,0.064l0.033,0.094l0.048,0.225L85.083,64.783
		z"/>
	<path fill="#777777" d="M97.851,62.305l-0.017,0.257v2.365l0.048,0.929v0.255l0.032,2.11v0.272l-0.018,0.128l-0.015,0.272
		l-0.048,0.767l0.017,0.928l-0.017,0.223l-0.064,0.191l-0.127,0.177l-0.16,0.112l-0.146,0.048l-0.223,0.016l-0.816,0.032
		l-0.255,0.016l-0.399,0.016h-0.257l-0.207-0.047l-0.193-0.08l-0.191-0.144l-0.144-0.208l-0.24-0.464l-0.144-0.208l-0.623-0.784
		l-0.16-0.19l-0.624-0.769l-0.145-0.207l-0.561-0.832l-0.143-0.192l-0.623-0.768l-0.16-0.191l-0.591-0.784l-0.145-0.127
		l-0.112,0.048l-0.048,0.191l-0.031,0.8v0.256l0.016,0.799v0.256l0.016,0.896v0.257l-0.048,0.895l0.017,0.256l0.096,0.639
		l0.017,0.257l-0.048,0.207l-0.112,0.112l-0.112,0.032l-0.191,0.031l-0.129,0.017l-0.271,0.016l-0.736-0.016H88.56l-0.655,0.031
		h-0.256l-0.24-0.016l-0.175-0.032l-0.129-0.08l-0.064-0.111l-0.031-0.161l-0.015-0.11V70.65l0.031-0.526l0.015-0.256l-0.046-0.848
		v-0.256l0.031-1.951l0.015-0.256l0.049-0.848l0.016-0.256v-1.103l-0.064-0.848v-0.255l0.064-0.848l-0.016-0.256l-0.063-0.863
		l-0.017-0.255v-0.369l0.017-0.239l0.032-0.239l0.031-0.176l0.048-0.112l0.097-0.048l0.175-0.033l0.48-0.032l0.48,0.032h1.198
		l0.191,0.017l0.081,0.063l0.096,0.144l0.672,0.721l0.16,0.19l0.591,0.768l0.16,0.192l0.593,0.784l0.158,0.191l0.576,0.8
		l0.145,0.192l0.608,0.767l0.16,0.192l0.575,0.8l0.128,0.112l0.127,0.016l0.112-0.081v-0.176l-0.112-0.671l-0.015-0.256l0.048-0.687
		v-0.257l-0.064-0.975v-0.255l0.064-0.975l-0.017-0.256l-0.048-0.592v-0.399l0.048-0.208l0.064-0.128l0.112-0.064l0.191-0.032h0.143
		l0.272-0.016l0.72,0.048h0.255l0.544-0.032l0.239,0.016l0.369,0.016l0.176,0.032l0.112,0.048l0.094,0.112l0.033,0.224l0.016,0.143
		l0.016,0.272l-0.031,0.496l-0.033,0.256L97.851,62.305z"/>
	<path fill="#777777" d="M117.272,65.71l0.031,0.513l-0.016,0.239l-0.015,0.368l-0.033,0.239l-0.064,0.384l-0.048,0.255
		l-0.063,0.369L117,68.317l-0.129,0.336l-0.08,0.224l-0.143,0.336l-0.112,0.224l-0.208,0.319l-0.16,0.208l-0.191,0.208l-0.209,0.176
		l-0.319,0.255l-0.208,0.146l-0.32,0.191l-0.207,0.111l-0.336,0.16l-0.241,0.08l-0.352,0.127l-0.239,0.065l-0.366,0.063
		l-0.241,0.047l-0.495,0.033h-0.735l-0.369-0.033l-0.239-0.016l-0.88-0.095l-0.256-0.048l-0.144-0.018l-0.255-0.079l-0.128-0.048
		l-0.256-0.112l-0.352-0.16l-0.239-0.144l-0.239-0.16l-0.417-0.352l-0.176-0.176l-0.207-0.272l-0.145-0.191l-0.256-0.416
		l-0.144-0.225l-0.128-0.239l-0.111-0.255l-0.097-0.241l-0.063-0.224l-0.064-0.239l-0.063-0.352l-0.048-0.271l-0.032-0.271
		l-0.031-0.544l-0.018-0.257l0.049-0.975v-0.255l-0.031-0.975v-0.256l0.048-0.976v-1.487l-0.032-0.511v-0.272l0.016-0.272
		l0.048-0.255l0.112-0.145l0.208-0.048l0.526-0.032l0.608,0.048h0.255l0.527-0.016l0.241,0.016l0.367,0.017l0.208,0.048l0.127,0.128
		l0.049,0.208l0.015,0.225v0.239l-0.032,0.623v0.256l0.047,0.975v0.256l-0.016,0.976v0.256l-0.048,0.975v0.255l-0.016,0.975
		l0.016,0.257l0.033,0.4l0.048,0.254l0.095,0.353l0.096,0.24l0.16,0.367l0.16,0.193l0.255,0.271l0.209,0.129l0.352,0.128
		l0.239,0.063l0.417,0.032h0.255l0.415-0.081l0.241-0.062l0.303-0.144l0.209-0.129l0.255-0.224l0.16-0.191l0.176-0.336l0.112-0.24
		l0.079-0.256l0.049-0.255l0.063-0.481l0.017-0.254l-0.064-0.976v-0.256l0.047-0.99v-0.258l0.032-0.975v-0.256l-0.032-0.991
		l-0.016-0.256l-0.048-0.671v-0.4l0.063-0.224l0.145-0.128l0.208-0.048h0.336l0.814,0.063h0.255l0.641-0.048h0.256l0.239,0.017
		l0.208,0.047l0.128,0.112l0.017,0.193l0.015,0.479v0.24l-0.015,0.368v0.256l0.046,0.991v0.256l-0.031,0.975V64l-0.063,0.99
		L117.272,65.71z"/>
	<path fill="#777777" d="M129.669,63.904l0.017,0.239l-0.017,0.241l-0.015,0.271l-0.08,0.399l-0.049,0.256l-0.127,0.32l-0.097,0.225
		l-0.16,0.303l-0.143,0.208l-0.225,0.304l-0.175,0.191l-0.209,0.193l-0.209,0.176l-0.206,0.143l-0.225,0.144l-0.353,0.16
		l-0.239,0.112l-0.272,0.112l-0.239,0.079l-0.352,0.097l-0.239,0.047l-0.239,0.032l-0.257,0.016l-0.415,0.032h-1.343l-0.272-0.016
		l-0.271,0.016l-0.272,0.032l-0.193,0.033l-0.046,0.111l-0.017,0.209l-0.064,1.07v0.256l0.015,0.479l-0.015,0.241l-0.016,0.352
		l-0.032,0.176l-0.048,0.097l-0.081,0.031l-0.175,0.032l-0.511,0.031l-0.624-0.031h-0.255l-0.512,0.031l-0.257-0.016l-0.367-0.016
		l-0.208-0.063l-0.096-0.097l-0.032-0.191l-0.033-0.241l-0.015-0.255v-1.711l0.064-0.848v-0.255l-0.064-0.848v-0.256l-0.033-1.949
		v-0.257l0.064-0.862v-0.258l-0.048-0.847v-0.255l0.064-0.848v-0.239l-0.033-0.48l0.017-0.239l0.016-0.128l0.032-0.176l0.048-0.097
		l0.079-0.079l0.177-0.016l0.464-0.032l0.367,0.015h0.239l1.071-0.015h1.072l1.071,0.063h1.055l0.608-0.031l0.225,0.016h0.127
		l0.241,0.048l0.366,0.095l0.257,0.081l0.255,0.096l0.239,0.111l0.24,0.145l0.208,0.16l0.287,0.256l0.193,0.16l0.079,0.096
		l0.287,0.288l0.161,0.207l0.079,0.097l0.112,0.192l0.063,0.095l0.097,0.208l0.079,0.239l0.065,0.225l0.016,0.111l0.063,0.224
		l0.033,0.128l0.064,0.225l0.095,0.447V63.904z M124.889,65.471l0.288-0.032l0.272-0.063l0.127-0.049l0.225-0.128l0.096-0.063
		l0.16-0.16l0.063-0.096l0.112-0.208l0.049-0.112l0.063-0.256l0.016-0.112v-0.399l-0.049-0.24l-0.048-0.127l-0.095-0.208
		l-0.064-0.097l-0.175-0.191l-0.129-0.079l-0.24-0.129l-0.415-0.112l-0.256-0.031h-0.368l-0.48,0.031l-0.703-0.046h-0.239
		l-0.128,0.015l-0.177,0.031l-0.063,0.048l-0.049,0.112l-0.031,0.193v0.367l0.049,0.592l0.015,0.255l0.017,0.927l0.017,0.192
		l0.046,0.112l0.177,0.063l0.831,0.064L124.889,65.471z"/>
	<path fill="#777777" d="M147.987,69.803v0.257l-0.015,0.143v0.257l-0.033,0.575v0.288l-0.017,0.031h-0.015l-0.145,0.017
		l-0.254,0.031h-0.561l-0.272-0.031l-0.542-0.129l-0.241-0.111l-0.225-0.144l-0.175-0.193l-0.159-0.224l-0.145-0.24l-0.079-0.144
		l-0.033-0.032h-0.079l-0.129,0.127l-0.208,0.193l-0.32,0.224l-0.224,0.161l-0.272,0.142l-0.255,0.129l-0.351,0.16l-0.224,0.08
		l-0.097,0.016l-0.255,0.063l-0.305,0.033h-1.278l-0.399-0.033l-0.272-0.015l-0.385-0.064l-0.254-0.065l-0.368-0.079l-0.256-0.096
		l-0.241-0.096l-0.112-0.048l-0.191-0.112l-0.079-0.048l-0.175-0.128l-0.097-0.063l-0.191-0.176l-0.224-0.225l-0.176-0.256
		l-0.129-0.224l-0.031-0.112l-0.081-0.207l-0.048-0.096l-0.064-0.257l-0.062-0.303l-0.048-0.257v-0.095l-0.016-0.225l-0.016-0.127
		v-0.241l0.016-0.24l0.048-0.239l0.063-0.257l0.097-0.223l0.111-0.223l0.144-0.224l0.16-0.193l0.175-0.19l0.177-0.177l0.208-0.16
		l0.336-0.224l0.016-0.032v-0.031l-0.016-0.033l-0.112-0.064l-0.096-0.063l-0.176-0.144l-0.097-0.065l-0.143-0.159l-0.082-0.096
		l-0.143-0.225l-0.127-0.239l-0.033-0.112L137.611,64l-0.017-0.128l-0.047-0.224v-0.098l-0.018-0.254v-0.29l0.033-0.287l0.048-0.271
		l0.062-0.257l0.081-0.272l0.112-0.256l0.126-0.256l0.145-0.225l0.177-0.206l0.208-0.193l0.207-0.176l0.241-0.16l0.24-0.144
		l0.239-0.111l0.526-0.191l0.272-0.097l0.815-0.19l0.272-0.049l0.287-0.032l0.272-0.017h0.527l0.4,0.032l0.256,0.017l0.592,0.095
		l0.335,0.048l0.369,0.081l0.287,0.08l0.24,0.111l0.288,0.145l0.096,0.064l0.225,0.127l0.254,0.191l0.225,0.225l0.16,0.208
		l0.048,0.079l0.112,0.192l0.048,0.096l0.08,0.193l0.048,0.111l0.079,0.24l0.081,0.288l0.047,0.271v0.096l0.017,0.225l0.016,0.111
		v0.145l-0.112,0.048h-0.447l-0.609,0.031l-0.127,0.018h-0.287l-0.4-0.018l-0.896-0.048l-0.047-0.016l-0.032-0.031l-0.033-0.111
		l-0.031-0.129l-0.081-0.208l-0.046-0.096l-0.176-0.208l-0.224-0.159l-0.097-0.049l-0.224-0.063l-0.097-0.032l-0.224-0.016h-0.112
		l-0.224,0.016l-0.126,0.032l-0.225,0.047l-0.096,0.032l-0.223,0.08l-0.097,0.048l-0.192,0.112l-0.096,0.064L141,62.592l-0.049,0.08
		l-0.079,0.208l-0.032,0.096v0.255l0.065,0.272L141,63.728l0.16,0.192l0.192,0.144l0.223,0.127l0.256,0.064l0.241,0.032h0.239
		l0.112,0.016h0.224l0.464,0.017h0.32l0.112,0.016h0.224l0.462,0.032h0.336l0.112-0.017l0.224-0.015l0.224-0.033l0.225-0.016
		l0.112-0.016h0.223l0.112,0.016h0.225l0.224,0.032l0.224,0.016l0.11,0.015h0.225l0.112-0.015h0.944v0.254l0.015,0.241l0.033,0.208
		v1.087l-0.017,0.224v0.239l-0.048,0.018h-0.175l-0.257,0.016l-0.208,0.033l-0.431,0.032l-0.016,0.144v0.367l-0.017,0.193
		l0.033,0.271l0.016,0.144l0.096,0.255l0.08,0.096l0.176,0.176l0.128,0.063l0.24,0.064l0.239,0.017l0.144,0.016l0.017,0.031v0.032
		l-0.017,0.146l0.017,0.143l0.015,0.257l0.033,0.288l0.017,0.271L147.987,69.803z M143.798,66.718l-0.032-0.048l-0.145-0.015h-0.558
		l-0.4,0.032h-0.785l-0.271,0.031l-0.272,0.064l-0.272,0.096l-0.239,0.128l-0.225,0.143l-0.16,0.208l-0.079,0.272l-0.016,0.304
		l0.08,0.271l0.127,0.225l0.193,0.191l0.224,0.127l0.255,0.081l0.272,0.064l0.288,0.032l0.256,0.016l0.336-0.048l0.095-0.033
		l0.209-0.079l0.112-0.033l0.191-0.095l0.096-0.063l0.225-0.146l0.175-0.175l0.064-0.097l0.096-0.176l0.048-0.111l0.048-0.208
		l0.017-0.112l0.016-0.224l0.015-0.241l0.033-0.254L143.798,66.718z"/>
	<path fill="#777777" d="M166.112,67.757l-0.015,0.272l-0.033,0.272l-0.046,0.255l-0.081,0.352l-0.079,0.225l-0.146,0.32
		L165.6,69.66l-0.191,0.289l-0.16,0.191l-0.191,0.191l-0.193,0.176l-0.319,0.208l-0.208,0.146l-0.239,0.127l-0.224,0.112
		l-0.368,0.127l-0.48,0.16l-0.256,0.049l-0.399,0.063l-0.24,0.031l-0.352,0.032l-0.224,0.016l-0.367,0.016l-0.769,0.048h-0.35
		l-0.225-0.015l-0.368-0.033l-0.241-0.031l-0.272-0.048l-0.239-0.079l-0.352-0.112l-0.223-0.112l-0.239-0.111l-0.225-0.112
		l-0.208-0.127l-0.512-0.354l-0.191-0.159l-0.289-0.224l-0.192-0.16l-0.176-0.176l-0.127-0.145l-0.017-0.111l0.079-0.143
		l0.064-0.081l0.16-0.176l0.447-0.416l0.145-0.175l0.271-0.417l0.146-0.176l0.16-0.175l0.175-0.096l0.177,0.032l0.175,0.128
		l0.512,0.352l0.239,0.128l0.225,0.112l0.368,0.175l0.239,0.08l0.256,0.08l0.258,0.049l0.366,0.015l0.256,0.016l1.008-0.063
		l0.256-0.033l0.127-0.031l0.241-0.096l0.206-0.128l0.16-0.16l0.079-0.112l0.096-0.239l-0.015-0.272l-0.033-0.127l-0.127-0.224
		l-0.079-0.096l-0.208-0.161l-0.127-0.046l-0.241-0.096l-0.271-0.063l-0.272-0.048l-1.52-0.145l-0.479-0.095l-0.257-0.063
		l-0.352-0.129l-0.239-0.08l-0.239-0.111l-0.543-0.272l-0.21-0.143l-0.239-0.146l-0.206-0.144l-0.272-0.224l-0.145-0.208
		l-0.144-0.239l-0.096-0.239l-0.112-0.336l-0.048-0.241l-0.048-0.351l-0.032-0.513l0.015-0.255l0.033-0.384l0.048-0.239l0.064-0.208
		l0.079-0.24l0.16-0.352l0.112-0.224l0.127-0.192l0.16-0.176l0.256-0.24l0.208-0.16l0.208-0.143l0.225-0.112l0.304-0.176
		l0.479-0.192l0.241-0.079l0.367-0.064l0.257-0.048l0.479-0.064l0.352-0.062l0.256-0.033l0.239-0.016h0.256l0.48,0.049l0.241,0.031
		l0.111,0.031l0.257,0.032l0.542,0.096l0.272,0.064l0.256,0.081l0.272,0.08l0.257,0.096l0.239,0.112l0.239,0.095l0.302,0.176
		l0.225,0.112l0.208,0.145l0.146,0.145v0.159l-0.098,0.175l-0.175,0.32l-0.127,0.191l-0.609,0.8l-0.175,0.224l-0.193,0.16
		l-0.127,0.048l-0.112-0.016l-0.16-0.08l-0.239-0.144l-0.241-0.097l-0.11-0.048l-0.239-0.08l-0.129-0.032l-0.271-0.064l-0.37-0.079
		l-0.254-0.017l-0.417-0.032h-0.416l-0.271,0.016l-0.271,0.048l-0.258,0.079l-0.096,0.049l-0.191,0.144l-0.079,0.096l-0.112,0.225
		l-0.033,0.255l0.048,0.209l0.129,0.207l0.175,0.16l0.193,0.096l0.112,0.049l0.239,0.048l0.399,0.047L161.347,64l0.272,0.048
		l0.544,0.127l0.512,0.161l0.366,0.08l0.239,0.063l0.449,0.16l0.32,0.144l0.223,0.112l0.224,0.127l0.207,0.128l0.465,0.385
		l0.177,0.191l0.16,0.192l0.191,0.288l0.127,0.207l0.112,0.241l0.064,0.24l0.062,0.351l0.033,0.24L166.112,67.757z"/>
	<path fill="#777777" d="M179.901,70.892l0.048,0.223l-0.112,0.177l-0.177,0.08l-0.208,0.031h-0.223l-0.368-0.031l-0.239-0.017
		h-0.72l-0.99,0.063l-0.208-0.063l-0.097-0.128l-0.079-0.176l-0.497-1.343l-0.11-0.16l-0.144-0.031l-0.193-0.016l-0.959-0.064
		h-0.255l-1.2-0.033l-0.959-0.015h-0.239l-0.239,0.015h-0.736l-0.208,0.033l-0.127,0.08l-0.098,0.191l-0.366,1.087l-0.096,0.256
		l-0.177,0.209l-0.239,0.095l-0.257-0.016l-0.926-0.048h-0.256l-0.992,0.063l-0.208,0.017l-0.191-0.097l-0.129-0.175l0.017-0.208
		l0.032-0.129l0.096-0.256l0.224-0.495l0.096-0.24l0.401-0.896l0.094-0.224l0.417-0.896l0.094-0.24l0.368-0.862l0.097-0.241
		l0.431-0.896l0.096-0.224l0.576-1.311l0.447-0.959l0.112-0.257l0.352-0.719l0.112-0.256l0.304-0.736l0.096-0.24l0.287-0.655
		l0.079-0.176l0.162-0.095l0.241-0.048l0.733-0.033h1.248l0.736,0.017l0.272,0.047l0.175,0.129l0.081,0.207l0.225,0.624l0.094,0.239
		l0.401,0.752l0.096,0.224l0.352,0.783l0.096,0.224l0.289,0.816l0.096,0.224l0.352,0.767l0.094,0.224l0.353,0.783l0.096,0.225
		l0.32,0.8l0.096,0.224l0.495,0.99l0.385,0.751l0.112,0.224l0.431,1.008L179.901,70.892z M174.561,66.383l-0.064-0.209l-0.352-1.087
		l-0.079-0.239l-0.32-0.944l-0.079-0.207l-0.16-0.112l-0.208-0.048l-0.177,0.048l-0.16,0.158l-0.431,1.088l-0.096,0.24l-0.416,1.071
		l-0.048,0.24l0.048,0.191l0.177,0.081l0.223,0.032h1.007l0.752,0.048l0.208-0.064l0.129-0.127L174.561,66.383z"/>
	<path fill="#777777" d="M190.908,60.066l-0.048,0.207l-0.048,0.145l-0.096,0.256l-0.225,0.432l-0.112,0.239l-0.288,0.896
		l-0.112,0.24l-0.416,0.848l-0.112,0.239l-0.287,0.88l-0.096,0.255l-0.337,0.864l-0.096,0.256l-0.352,0.864l-0.112,0.239
		l-0.431,0.847l-0.112,0.241l-0.352,0.862l-0.096,0.256l-0.384,0.832l-0.096,0.255l-0.368,0.864l-0.062,0.177l-0.098,0.063
		l-0.191,0.016l-1.167-0.016l-0.256,0.016l-0.896,0.079l-0.272,0.018l-0.206-0.033l-0.112-0.111l-0.096-0.191l-0.352-0.848
		l-0.096-0.24l-0.416-0.879l-0.097-0.239l-0.352-0.848l-0.096-0.256l-0.287-0.88l-0.098-0.254l-0.381-0.847l-0.097-0.241
		l-0.414-0.879l-0.098-0.24l-0.32-0.863l-0.112-0.256l-0.383-0.833l-0.096-0.255l-0.287-0.896l-0.097-0.239l-0.287-0.463
		l-0.096-0.239l-0.048-0.146l-0.032-0.208l0.048-0.144l0.112-0.096l0.175-0.048l0.096-0.016h0.239l0.719,0.049l0.768-0.017
		l1.023,0.064l0.208,0.016l0.128,0.032l0.096,0.128l0.064,0.16l0.063,0.225l0.162,0.526l0.079,0.255l0.383,0.833l0.096,0.256
		l0.32,0.847l0.096,0.257l0.318,1.007l0.098,0.255l0.352,0.992l0.399,1.278l0.081,0.177l0.112,0.063l0.144-0.063l0.096-0.177
		l0.385-0.99l0.079-0.257l0.256-1.039l0.079-0.255l0.449-0.96l0.079-0.256l0.272-0.879l0.079-0.24l0.399-0.849l0.081-0.239
		l0.16-0.591l0.094-0.272l0.129-0.208l0.112-0.064l0.191-0.032h0.112l0.256-0.016l0.399,0.033h1.023l0.736-0.049l0.288,0.032
		l0.193,0.049l0.096,0.095L190.908,60.066z"/>
	<path fill="#777777" d="M201.581,69.836l-0.017,0.256l-0.062,0.862l-0.017,0.16l-0.064,0.112l-0.079,0.064l-2.096,0.063h-0.254
		l-0.849-0.063l-0.257,0.015l-0.83,0.065l-0.256,0.016h-1.103l-0.832-0.063h-0.256l-1.376,0.079l-0.543-0.031l-0.191-0.032
		l-0.112-0.079l-0.048-0.112l-0.032-0.176l-0.031-0.369l-0.018-0.255l0.018-0.241v-0.239l0.063-0.848v-0.256l0.016-0.848
		l-0.016-0.255l-0.048-0.848l-0.015-0.256l0.031-0.862v-1.359l0.063-0.847l-0.015-0.258l-0.048-0.847l-0.016-0.255v-0.384
		l0.031-0.479v-0.239l0.048-0.832l0.017-0.224l0.048-0.128l0.081-0.064l0.127-0.016l0.208-0.032l1.04,0.064l0.976-0.017h0.255
		l0.958,0.064h0.257l0.96-0.064h0.254l2.175,0.032l0.271-0.015l0.545-0.049h0.399l0.224,0.049l0.096,0.079l0.032,0.112l0.033,0.208
		v0.432l-0.033,0.4v0.271l0.016,0.399l0.017,0.241l-0.017,0.24l-0.031,0.191l-0.064,0.112l-0.081,0.063l-0.191,0.033h-0.127
		l-0.257,0.016l-1.502-0.03h-0.256l-0.815,0.03h-0.257l-0.83-0.03l-0.72-0.05h-0.239l-0.128,0.017l-0.159,0.033l-0.081,0.079
		l-0.016,0.096l-0.032,0.176l-0.031,0.385v0.254l0.015,0.272L195.521,64l0.032,0.111l0.064,0.079l0.175,0.049l0.512,0.032
		l0.511-0.032h1.52l1.791-0.097l0.495,0.032l0.177,0.033l0.096,0.08l0.048,0.096l0.016,0.175l0.032,0.272l0.016,0.271v0.528
		l0.033,0.367l-0.033,0.479l-0.031,0.193l-0.064,0.112l-0.112,0.079l-0.16,0.033h-0.32l-0.72-0.081l-0.254-0.016l-1.281,0.08
		l-1.023-0.032h-0.256l-0.639-0.048l-0.272,0.016l-0.193,0.017l-0.079,0.048l-0.048,0.112l-0.015,0.24l-0.048,0.399l-0.017,0.256
		v0.351l0.017,0.16l0.048,0.112l0.063,0.063l0.176,0.018l0.88,0.031h0.256l0.863-0.064l1.135,0.064h0.256l1.135-0.064h0.24
		l0.239,0.016l0.576,0.063l0.096,0.049l0.064,0.097l0.015,0.175L201.581,69.836z"/>
	<path fill="#777777" d="M212.589,68.524l0.017,0.08l0.16,0.031l0.224,0.018l0.606-0.018h1.297l0.813,0.018h0.256l1.872-0.032
		l0.256-0.017l0.528-0.048h0.272l0.208,0.048l0.096,0.144l0.031,0.225l0.015,0.241l0.017,0.255v0.656l0.031,0.399l-0.017,0.256
		l-0.015,0.223l-0.032,0.161l-0.064,0.097l-0.094,0.046l-0.513,0.081l-0.225,0.016l-0.352-0.016l-0.239-0.016l-1.167-0.065h-0.896
		l-1.408,0.081h-2.317l-1.167-0.016l-0.896-0.032l-0.191-0.016l-0.112-0.063l-0.031-0.097l-0.017-0.176l0.031-0.959v-0.256
		l-0.046-0.977l0.015-0.254l0.048-0.481l0.096-0.479l0.048-0.256l0.081-0.271l0.079-0.256l0.048-0.128l0.112-0.256l0.127-0.207
		l0.272-0.288l0.176-0.16l0.288-0.224l0.191-0.128l0.32-0.209l0.21-0.111l0.335-0.16l0.239-0.079l0.399-0.128l0.272-0.065
		l0.271-0.046l0.257-0.033l0.815-0.048l0.144-0.016l0.289-0.015l0.398-0.017l0.289-0.063l0.127-0.064l0.239-0.143l0.112-0.112
		l0.144-0.208l0.096-0.337v-0.351l-0.03-0.128l-0.081-0.257l-0.062-0.112l-0.162-0.192l-0.208-0.096l-0.352-0.096l-0.225-0.031
		l-0.239-0.017h-0.239l-0.225,0.017l-0.224,0.048l-0.335,0.112l-0.208,0.112l-0.098,0.062l-0.157,0.177l-0.081,0.096l-0.112,0.239
		l-0.08,0.225l-0.145,0.095l-0.239,0.064h-0.144l-0.272,0.017l-0.672-0.033h-0.671l-0.272-0.015l-0.414-0.049l-0.208-0.032
		l-0.112-0.064l-0.048-0.079v-0.272l0.031-0.239l0.033-0.145l0.048-0.255l0.031-0.112l0.081-0.239l0.159-0.305l0.129-0.223
		l0.144-0.208l0.175-0.208l0.193-0.176l0.192-0.16l0.303-0.207l0.225-0.13l0.48-0.254l0.271-0.112l0.256-0.081l0.352-0.079
		l0.257-0.048l0.238-0.048l0.225-0.032l0.352-0.015l0.256-0.018h0.528l0.368-0.016h0.257l0.239,0.016l0.239,0.048l0.335,0.081
		l0.241,0.079l0.51,0.16l0.243,0.079l0.239,0.097l0.335,0.161l0.224,0.127l0.205,0.176l0.21,0.208l0.176,0.207l0.159,0.209
		l0.209,0.287l0.111,0.224l0.112,0.24l0.081,0.239l0.078,0.224l0.049,0.241l0.048,0.383v0.24l-0.016,0.353l-0.032,0.223
		l-0.081,0.367l-0.061,0.239l-0.098,0.272l-0.11,0.24l-0.178,0.305l-0.144,0.207l-0.208,0.272l-0.177,0.175l-0.256,0.24
		l-0.208,0.129l-0.336,0.176l-0.239,0.095l-0.271,0.081l-0.254,0.079l-0.274,0.048l-0.256,0.049l-0.367,0.032l-0.256,0.031
		l-0.272,0.048l-0.256,0.049l-0.383,0.031l-0.272,0.017h-0.129l-0.285,0.016h-0.13l-0.272,0.048l-0.127,0.048l-0.239,0.112
		l-0.098,0.079l-0.175,0.176l-0.129,0.192l-0.096,0.224l-0.031,0.128l-0.048,0.207L212.589,68.524z"/>
	<path fill="#777777" d="M230.247,67.549v0.272l-0.015,0.272l-0.017,0.255l-0.064,0.354l-0.062,0.224l-0.162,0.318l-0.127,0.225
		l-0.144,0.224l-0.352,0.415l-0.191,0.176l-0.48,0.368l-0.239,0.144l-0.258,0.145l-0.256,0.111l-0.239,0.112l-0.32,0.111
		l-0.239,0.08l-0.271,0.081l-0.256,0.048l-0.355,0.016l-0.223,0.016l-0.352-0.016h-0.225l-0.351-0.033l-0.254-0.016l-0.271-0.032
		l-0.514-0.031l-0.255-0.032l-0.383-0.08l-0.241-0.063l-0.239-0.097l-0.225-0.112l-0.336-0.191l-0.207-0.144l-0.257-0.207
		l-0.173-0.16l-0.225-0.272l-0.162-0.192l-0.144-0.241l-0.127-0.224l-0.127-0.318l-0.066-0.225l-0.078-0.352l-0.033-0.257
		l-0.017-0.272l0.031-0.239l0.112-0.112l0.193-0.031l0.367-0.032l0.736,0.048h0.256l0.72-0.048h0.384l0.208,0.048l0.112,0.096
		l0.078,0.208l0.097,0.271l0.16,0.239l0.175,0.176l0.208,0.145l0.241,0.079l0.223,0.064l0.352,0.017h0.225l0.352-0.017l0.239-0.064
		l0.257-0.111l0.256-0.143l0.208-0.225l0.112-0.256l0.048-0.255l0.015-0.288l-0.062-0.255l-0.033-0.096l-0.144-0.208l-0.175-0.176
		l-0.208-0.16L226.2,66.51l-0.254-0.063l-0.366-0.049l-0.241-0.015l-0.497,0.031l-0.352,0.032l-1.07-0.063h-0.255l-1.903,0.031
		l-0.208-0.048l-0.112-0.129l-0.017-0.206l-0.015-0.96v-0.256l0.015-0.96v-0.254l-0.046-0.96v-0.257l0.046-0.958l-0.015-0.271
		l-0.049-0.545l-0.017-0.255l0.017-0.145l0.049-0.239l0.144-0.128l0.191-0.033h0.337l0.605,0.048h0.256l0.929-0.048l0.256-0.015
		l0.926-0.017l1.44,0.096l0.928-0.031h1.404l0.48-0.033l0.482,0.033l0.175,0.031l0.111,0.048l0.081,0.097l0.032,0.191l0.016,0.112
		l0.015,0.239l-0.031,0.48v0.512l-0.015,0.255l-0.048,0.272l-0.033,0.239l-0.112,0.129l-0.208,0.031l-0.127,0.015h-0.255
		l-0.672,0.016h-0.256l-1.312-0.016h-1.055l-0.752-0.046h-0.271l-0.271,0.015l-0.239,0.064l-0.13,0.127l-0.031,0.193l-0.017,0.479
		l0.031,0.223l0.097,0.191l0.192,0.112l0.224,0.033l0.896-0.048h0.271l0.401,0.032l0.51,0.031l0.239,0.032l0.401,0.048l0.51,0.096
		l0.239,0.08l0.336,0.144l0.239,0.127l0.243,0.145l0.207,0.145l0.447,0.367l0.224,0.271l0.146,0.191l0.112,0.24l0.094,0.257
		l0.127,0.351l0.049,0.257l0.081,0.367l0.031,0.256L230.247,67.549z"/>
	<path fill="#777777" d="M236.713,62.865l-0.031,0.287l-0.066,0.272l-0.112,0.256l-0.144,0.24l-0.177,0.223l-0.189,0.208
		l-0.208,0.191l-0.225,0.177l-0.239,0.159l-0.254,0.129l-0.274,0.095l-0.271,0.048l-0.274,0.033l-0.352,0.031l-0.271-0.016
		l-0.304-0.032l-0.271-0.047l-0.255-0.065l-0.274-0.095l-0.271-0.111l-0.239-0.145l-0.208-0.16l-0.208-0.191l-0.175-0.224
		l-0.146-0.239l-0.112-0.239l-0.112-0.272l-0.063-0.257l-0.049-0.271l-0.015-0.287l-0.017-0.272l0.017-0.288l0.029-0.272
		l0.066-0.272l0.096-0.255l0.144-0.241l0.176-0.223l0.191-0.208l0.416-0.385l0.223-0.16l0.255-0.143l0.258-0.097l0.272-0.063
		l0.271-0.048l0.304-0.031h0.256l0.096,0.015l0.256,0.017l0.289,0.063l0.254,0.064l0.272,0.096l0.258,0.127l0.239,0.145l0.224,0.175
		l0.191,0.191l0.175,0.225l0.144,0.239l0.127,0.257l0.193,0.512l0.064,0.272l0.048,0.288V62.865z M242.74,60.162l-0.097,0.192
		l-0.142,0.224l-0.433,0.512l-0.144,0.207l-0.494,0.8l-0.13,0.224l-0.495,0.816l-0.129,0.225l-0.493,0.799l-0.147,0.224
		l-0.525,0.751l-0.162,0.224l-0.542,0.752l-0.162,0.224l-0.51,0.752l-0.146,0.224l-0.494,0.799l-0.129,0.224l-0.655,1.023
		l-0.511,0.768l-0.146,0.224l-0.479,0.815l-0.127,0.16l-0.112,0.063h-0.193l-0.958,0.031l-0.271,0.018l-0.401,0.015h-0.271
		l-0.272-0.048l-0.225-0.111l-0.097-0.16v-0.129l0.066-0.175l0.144-0.225l0.416-0.496l0.144-0.207l0.497-0.817l0.127-0.224
		l0.48-0.814l0.144-0.225l0.543-0.735l0.144-0.225l0.479-0.814l0.147-0.225l1.213-1.758l0.162-0.224l0.495-0.768l0.16-0.224
		l0.541-0.752l0.162-0.223l0.512-0.768l0.142-0.224l0.482-0.815l0.129-0.145l0.11-0.031h0.159l1.792-0.145h0.24l0.127,0.032
		l0.178,0.032l0.111,0.096l0.062,0.128L242.74,60.162z M234.539,62.29l-0.096-0.24l-0.193-0.208l-0.239-0.096l-0.127-0.032h-0.225
		l-0.112,0.032l-0.223,0.096l-0.191,0.208l-0.096,0.24v0.272l0.096,0.239l0.191,0.206l0.223,0.097l0.112,0.032h0.225l0.127-0.032
		l0.239-0.097l0.193-0.206l0.096-0.239V62.29z M244.562,69.165l-0.031,0.288l-0.064,0.271l-0.111,0.271l-0.145,0.241l-0.173,0.225
		l-0.192,0.207l-0.209,0.193l-0.225,0.175l-0.238,0.144l-0.256,0.127l-0.274,0.112l-0.255,0.048l-0.287,0.033l-0.303,0.016h-0.306
		l-0.304-0.031l-0.271-0.048l-0.272-0.064l-0.272-0.097l-0.271-0.111l-0.239-0.145l-0.208-0.176l-0.209-0.192l-0.173-0.208
		l-0.147-0.24l-0.225-0.511l-0.061-0.272l-0.049-0.272l-0.017-0.271v-0.287l0.017-0.272l0.033-0.288l0.062-0.272l0.096-0.256
		l0.129-0.239l0.176-0.225l0.19-0.207l0.209-0.193l0.208-0.175l0.223-0.16l0.255-0.144l0.258-0.097l0.271-0.063l0.287-0.048
		l0.304-0.031h0.306l0.285,0.031l0.289,0.048l0.256,0.063l0.273,0.097l0.271,0.128l0.238,0.16l0.225,0.16l0.193,0.191l0.174,0.224
		l0.127,0.24l0.129,0.255l0.11,0.256l0.097,0.272l0.064,0.271l0.031,0.272V69.165z M242.404,68.589l-0.096-0.257l-0.189-0.224
		l-0.24-0.112l-0.13-0.016h-0.225l-0.112,0.016l-0.223,0.112l-0.191,0.224l-0.079,0.257v0.271l0.079,0.241l0.191,0.176l0.223,0.095
		l0.112,0.017h0.225l0.13-0.017l0.24-0.095l0.189-0.176l0.096-0.241V68.589z"/>
</g>
<g>
	<path fill="#CCCCCC" d="M90.549,85.295c-1.146,0-2.052,0.382-2.716,1.146c-0.664,0.764-0.996,1.81-0.996,3.137
		c0,1.365,0.32,2.42,0.96,3.165c0.64,0.745,1.553,1.117,2.737,1.117c0.728,0,1.559-0.131,2.491-0.393v1.063
		c-0.724,0.271-1.616,0.407-2.677,0.407c-1.537,0-2.723-0.466-3.558-1.399c-0.835-0.933-1.252-2.258-1.252-3.976
		c0-1.075,0.201-2.018,0.603-2.826c0.402-0.809,0.982-1.432,1.742-1.87c0.759-0.438,1.652-0.657,2.68-0.657
		c1.094,0,2.051,0.2,2.869,0.6l-0.514,1.042C92.129,85.481,91.339,85.295,90.549,85.295z"/>
	<path fill="#CCCCCC" d="M103.225,94.795h-1.213v-4.911h-5.496v4.911h-1.213V84.36h1.213V88.8h5.496V84.36h1.213V94.795z"/>
	<path fill="#CCCCCC" d="M106.087,94.795V84.36h1.213v10.435H106.087z"/>
	<path fill="#CCCCCC" d="M114.631,85.295c-1.147,0-2.052,0.382-2.716,1.146c-0.664,0.764-0.996,1.81-0.996,3.137
		c0,1.365,0.32,2.42,0.96,3.165c0.64,0.745,1.552,1.117,2.737,1.117c0.728,0,1.559-0.131,2.491-0.393v1.063
		c-0.723,0.271-1.616,0.407-2.677,0.407c-1.537,0-2.723-0.466-3.558-1.399c-0.835-0.933-1.253-2.258-1.253-3.976
		c0-1.075,0.201-2.018,0.603-2.826c0.402-0.809,0.983-1.432,1.742-1.87c0.759-0.438,1.652-0.657,2.68-0.657
		c1.094,0,2.051,0.2,2.869,0.6L117,85.852C116.21,85.481,115.42,85.295,114.631,85.295z"/>
	<path fill="#CCCCCC" d="M125.943,94.795l-1.299-3.319h-4.183l-1.285,3.319h-1.228l4.125-10.478h1.021l4.104,10.478H125.943z
		 M124.266,90.384l-1.213-3.233c-0.157-0.409-0.319-0.911-0.485-1.506c-0.104,0.457-0.254,0.959-0.45,1.506l-1.228,3.233H124.266z"
		/>
	<path fill="#CCCCCC" d="M133.224,89.328h3.547v5.075c-0.552,0.176-1.114,0.309-1.685,0.4c-0.571,0.09-1.232,0.135-1.984,0.135
		c-1.58,0-2.81-0.47-3.69-1.41c-0.88-0.939-1.32-2.256-1.32-3.95c0-1.085,0.218-2.036,0.653-2.852
		c0.435-0.816,1.062-1.439,1.88-1.87s1.777-0.646,2.876-0.646c1.113,0,2.151,0.205,3.112,0.614l-0.471,1.071
		c-0.942-0.4-1.848-0.6-2.719-0.6c-1.271,0-2.262,0.378-2.976,1.135c-0.714,0.757-1.071,1.806-1.071,3.148
		c0,1.408,0.344,2.477,1.031,3.205c0.688,0.728,1.698,1.092,3.03,1.092c0.724,0,1.43-0.083,2.12-0.25v-3.212h-2.334V89.328z"/>
	<path fill="#CCCCCC" d="M148.333,89.563c0,1.67-0.422,2.983-1.267,3.94c-0.844,0.957-2.019,1.435-3.522,1.435
		c-1.537,0-2.723-0.47-3.558-1.41c-0.835-0.939-1.252-2.266-1.252-3.979c0-1.699,0.418-3.016,1.256-3.951
		c0.837-0.935,2.027-1.402,3.569-1.402c1.499,0,2.669,0.476,3.512,1.428C147.913,86.575,148.333,87.889,148.333,89.563z
		 M140.019,89.563c0,1.414,0.301,2.485,0.903,3.216c0.602,0.73,1.476,1.095,2.623,1.095c1.156,0,2.029-0.364,2.619-1.092
		c0.59-0.728,0.885-1.801,0.885-3.219c0-1.403-0.294-2.468-0.881-3.194c-0.588-0.726-1.458-1.088-2.609-1.088
		c-1.156,0-2.035,0.365-2.637,1.096S140.019,88.169,140.019,89.563z"/>
	<path fill="#CCCCCC" d="M151.724,93.097l0.107,0.164c-0.124,0.476-0.302,1.029-0.536,1.66c-0.233,0.63-0.476,1.217-0.728,1.759
		h-0.892c0.128-0.495,0.27-1.106,0.425-1.834s0.263-1.311,0.325-1.749H151.724z"/>
	<path fill="#CCCCCC" d="M158.041,94.795V84.36h1.213v10.435H158.041z"/>
	<path fill="#CCCCCC" d="M162.116,94.795V84.36h1.213v9.336h4.604v1.099H162.116z"/>
	<path fill="#CCCCCC" d="M179.388,92.019c0,0.918-0.333,1.634-0.999,2.148c-0.666,0.514-1.57,0.771-2.712,0.771
		c-1.237,0-2.188-0.159-2.855-0.478v-1.17c0.428,0.181,0.895,0.323,1.399,0.428c0.504,0.104,1.004,0.157,1.499,0.157
		c0.809,0,1.418-0.153,1.827-0.46c0.409-0.307,0.614-0.734,0.614-1.281c0-0.362-0.072-0.658-0.218-0.889
		c-0.145-0.231-0.388-0.444-0.728-0.639c-0.34-0.195-0.857-0.416-1.552-0.664c-0.971-0.347-1.664-0.759-2.081-1.235
		c-0.417-0.476-0.625-1.097-0.625-1.863c0-0.804,0.302-1.444,0.907-1.92c0.604-0.476,1.403-0.714,2.398-0.714
		c1.037,0,1.991,0.19,2.862,0.571l-0.378,1.056c-0.861-0.362-1.699-0.542-2.512-0.542c-0.643,0-1.145,0.138-1.506,0.414
		c-0.361,0.276-0.542,0.659-0.542,1.149c0,0.362,0.067,0.658,0.2,0.889c0.133,0.231,0.358,0.442,0.674,0.635
		s0.801,0.406,1.453,0.639c1.094,0.39,1.847,0.809,2.259,1.256S179.388,91.305,179.388,92.019z"/>
	<path fill="#CCCCCC" d="M184.734,94.795h-1.213v-9.357h-3.305V84.36h7.823v1.078h-3.305V94.795z"/>
	<path fill="#CCCCCC" d="M198.666,89.563c0,1.67-0.421,2.983-1.266,3.94c-0.845,0.957-2.02,1.435-3.523,1.435
		c-1.537,0-2.722-0.47-3.557-1.41c-0.835-0.939-1.254-2.266-1.254-3.979c0-1.699,0.419-3.016,1.256-3.951
		c0.837-0.935,2.027-1.402,3.569-1.402c1.499,0,2.669,0.476,3.512,1.428C198.245,86.575,198.666,87.889,198.666,89.563z
		 M190.351,89.563c0,1.414,0.302,2.485,0.904,3.216c0.602,0.73,1.475,1.095,2.622,1.095c1.156,0,2.029-0.364,2.619-1.092
		c0.59-0.728,0.885-1.801,0.885-3.219c0-1.403-0.293-2.468-0.88-3.194c-0.588-0.726-1.458-1.088-2.61-1.088
		c-1.156,0-2.034,0.365-2.636,1.096S190.351,88.169,190.351,89.563z"/>
	<path fill="#CCCCCC" d="M202.206,90.456v4.339h-1.213V84.36h2.862c1.28,0,2.227,0.245,2.838,0.735
		c0.611,0.49,0.916,1.228,0.916,2.212c0,1.38-0.699,2.312-2.098,2.798l2.833,4.689h-1.435l-2.527-4.339H202.206z M202.206,89.414
		h1.663c0.856,0,1.484-0.17,1.884-0.51c0.4-0.34,0.6-0.851,0.6-1.531c0-0.69-0.202-1.188-0.609-1.492
		c-0.407-0.305-1.061-0.457-1.96-0.457h-1.578V89.414z"/>
	<path fill="#CCCCCC" d="M215.846,94.795h-5.817V84.36h5.817v1.078h-4.604V88.8h4.325v1.071h-4.325v3.84h4.604V94.795z"/>
</g>
<g>
	<ellipse opacity="0.1" enable-background="new    " cx="386.594" cy="401.982" rx="14.099" ry="4.779"/>
	<g>
		<path fill="#BC1348" d="M402.795,367.246c0-8.87-7.189-15.945-16.059-15.945c-8.868,0-16.059,6.998-16.059,15.867
			c0,4.17,1.604,7.959,4.209,10.617h-0.026c0,0,11.016,11.407,11.016,24.408l-0.013,0.182h1.881c0-12.627,10.905-24.59,10.905-24.59
			h-0.025C401.209,375.126,402.795,371.396,402.795,367.246z M386.737,370.629c-2.112,0-3.824-1.711-3.824-3.822
			c0-2.112,1.712-3.824,3.824-3.824c2.111,0,3.823,1.712,3.823,3.824C390.561,368.918,388.849,370.629,386.737,370.629z"/>
		<path fill="none" d="M376.252,375.912c-0.007,0-0.011,0.001-0.011,0.001h0.014C376.252,375.913,376.252,375.912,376.252,375.912"
			/>
		<path fill="#EC1B52" d="M400.12,367.482c0-7.39-5.992-13.388-13.383-13.388c-7.392,0-13.383,6.058-13.383,13.449
			c0,3.14,1.088,6.081,2.897,8.36c0.017,0,0.052,0.011,0.103,0.071c0.046,0.055,0.092-0.125,0.139-0.07
			c1.589,1.91,10.244,12.513,10.244,17.164h0.243c0-4.651,8.681-15.565,10.062-17.262c0.015-0.017,0.029,0.071,0.044,0.054
			c0.092-0.113,0.146-0.07,0.146-0.07h-0.015C399.029,373.133,400.12,370.621,400.12,367.482z M386.737,370.629
			c-2.112,0-3.824-1.711-3.824-3.822c0-2.112,1.712-3.824,3.824-3.824c2.111,0,3.823,1.712,3.823,3.824
			C390.561,368.918,388.849,370.629,386.737,370.629z"/>
		<path fill="#BC1348" d="M386.595,360.688c-3.379,0-6.119,2.739-6.119,6.118s2.739,6.118,6.119,6.118
			c3.377,0,6.117-2.739,6.117-6.118S389.972,360.688,386.595,360.688z M386.595,370.629c-2.112,0-3.823-1.711-3.823-3.822
			c0-2.112,1.711-3.824,3.823-3.824c2.111,0,3.821,1.712,3.821,3.824C390.416,368.918,388.706,370.629,386.595,370.629z"/>
	</g>
</g>
<g opacity="0.2">
	<g>
		<path fill-rule="evenodd" clip-rule="evenodd" d="M317.526,127.969l0.336,2.981c1.685-0.189,3.372-0.354,5.061-0.495l-0.247-2.99
			C320.957,127.608,319.24,127.777,317.526,127.969z"/>
		<path fill-rule="evenodd" clip-rule="evenodd" d="M308.339,129.243l0.486,2.96c1.674-0.276,3.352-0.526,5.031-0.755l-0.403-2.973
			C311.745,128.708,310.039,128.962,308.339,129.243z"/>
		<path fill-rule="evenodd" clip-rule="evenodd" d="M299.257,130.964l0.63,2.934c1.658-0.357,3.322-0.69,4.99-1.001l-0.551-2.949
			C302.632,130.263,300.942,130.602,299.257,130.964z"/>
	</g>
	<g>
		<path fill-rule="evenodd" clip-rule="evenodd" d="M347.603,127.393l-0.254,2.989c1.682,0.145,3.359,0.32,5.032,0.534l0.379-2.976
			C351.044,127.721,349.324,127.541,347.603,127.393z"/>
		<path fill-rule="evenodd" clip-rule="evenodd" d="M338.32,126.929l-0.05,3c1.69,0.026,3.38,0.087,5.067,0.177l0.16-2.996
			C341.773,127.018,340.047,126.956,338.32,126.929z"/>
		<path fill-rule="evenodd" clip-rule="evenodd" d="M329.065,127.06l0.132,2.997c1.691-0.075,3.384-0.122,5.076-0.14l-0.032-3
			C332.515,126.936,330.789,126.984,329.065,127.06z"/>
	</g>
	<g>
		<path fill-rule="evenodd" clip-rule="evenodd" d="M376.981,134.062l-1.129,2.78c1.55,0.628,3.076,1.308,4.576,2.038l1.314-2.697
			C380.18,135.422,378.591,134.715,376.981,134.062z"/>
		<path fill-rule="evenodd" clip-rule="evenodd" d="M368.15,131.04l-0.82,2.886c1.615,0.457,3.214,0.962,4.796,1.512l0.987-2.833
			C371.474,132.035,369.818,131.512,368.15,131.04z"/>
		<path fill-rule="evenodd" clip-rule="evenodd" d="M359.104,128.931l-0.548,2.949c1.655,0.307,3.301,0.656,4.936,1.044l0.695-2.918
			C362.502,129.605,360.807,129.246,359.104,128.931z"/>
	</g>
	<g>
		<path fill-rule="evenodd" clip-rule="evenodd" d="M401.778,151.189l-2.247,1.987c1.098,1.242,2.142,2.531,3.125,3.865l2.413-1.782
			C404.034,153.854,402.935,152.497,401.778,151.189z"/>
		<path fill-rule="evenodd" clip-rule="evenodd" d="M395.033,144.672l-1.91,2.312c1.277,1.059,2.513,2.167,3.693,3.331l2.103-2.14
			C397.676,146.951,396.376,145.785,395.033,144.672z"/>
		<path fill-rule="evenodd" clip-rule="evenodd" d="M387.414,139.271l-1.556,2.565c1.422,0.865,2.812,1.779,4.158,2.752l1.755-2.434
			C390.359,141.135,388.902,140.176,387.414,139.271z"/>
	</g>
	<g>
		<path fill-rule="evenodd" clip-rule="evenodd" d="M416.493,177.531l-2.862,0.9c0.498,1.582,0.928,3.182,1.278,4.798l2.931-0.638
			C417.47,180.884,417.017,179.195,416.493,177.531z"/>
		<path fill-rule="evenodd" clip-rule="evenodd" d="M413.045,168.827l-2.71,1.286c0.717,1.51,1.381,3.04,1.984,4.59l2.796-1.087
			C414.484,171.993,413.79,170.396,413.045,168.827z"/>
		<path fill-rule="evenodd" clip-rule="evenodd" d="M408.63,160.651l-2.573,1.543c0.867,1.446,1.702,2.907,2.494,4.387l2.646-1.415
			C410.378,163.638,409.519,162.134,408.63,160.651z"/>
	</g>
	<g>
		<path fill-rule="evenodd" clip-rule="evenodd" d="M417.585,207.655l-2.905-0.75c-0.408,1.576-0.921,3.123-1.534,4.633l2.779,1.129
			C416.587,211.036,417.143,209.361,417.585,207.655z"/>
		<path fill-rule="evenodd" clip-rule="evenodd" d="M418.973,198.351l-2.993-0.197c-0.108,1.655-0.289,3.312-0.53,4.955l2.967,0.44
			C418.67,201.823,418.859,200.091,418.973,198.351z"/>
		<path fill-rule="evenodd" clip-rule="evenodd" d="M418.845,188.997l-2.985,0.289c0.158,1.645,0.238,3.298,0.244,4.954l3-0.01
			C419.097,192.483,419.013,190.736,418.845,188.997z"/>
	</g>
	<g>
		<path fill-rule="evenodd" clip-rule="evenodd" d="M400.643,232.506l-1.921-2.305c-1.28,1.069-2.604,2.094-3.958,3.081l1.768,2.424
			C397.933,234.684,399.308,233.62,400.643,232.506z"/>
		<path fill-rule="evenodd" clip-rule="evenodd" d="M407.407,226.023l-2.235-2.001c-1.104,1.231-2.267,2.415-3.479,3.554
			l2.054,2.187C405.017,228.569,406.241,227.325,407.407,226.023z"/>
		<path fill-rule="evenodd" clip-rule="evenodd" d="M413.003,218.496l-2.572-1.545c-0.843,1.404-1.772,2.761-2.77,4.07l2.384,1.821
			C411.106,221.45,412.1,220.002,413.003,218.496z"/>
	</g>
	<g>
		<path fill-rule="evenodd" clip-rule="evenodd" d="M374.856,248.061l-1.254-2.725c-1.541,0.708-3.093,1.397-4.654,2.068
			l1.186,2.756C371.716,249.48,373.291,248.781,374.856,248.061z"/>
		<path fill-rule="evenodd" clip-rule="evenodd" d="M383.181,243.954l-1.406-2.649c-1.493,0.793-3.003,1.559-4.524,2.303
			l1.316,2.695C380.116,245.545,381.655,244.764,383.181,243.954z"/>
		<path fill-rule="evenodd" clip-rule="evenodd" d="M391.207,239.315l-1.603-2.536c-1.422,0.899-2.869,1.764-4.334,2.602
			l1.487,2.605C388.259,241.128,389.744,240.241,391.207,239.315z"/>
	</g>
	<g>
		
			<rect x="342.506" y="255.907" transform="matrix(0.333 0.9429 -0.9429 0.333 473.188 -151.9648)" fill-rule="evenodd" clip-rule="evenodd" width="3" height="5.14"/>
		<polygon fill-rule="evenodd" clip-rule="evenodd" points="355.621,255.908 354.582,253.094 349.767,254.845 350.779,257.669 		"/>
		<polygon fill-rule="evenodd" clip-rule="evenodd" points="364.231,252.606 363.116,249.821 358.356,251.679 359.425,254.482 		"/>
	</g>
	<g>
		<path fill-rule="evenodd" clip-rule="evenodd" d="M319.231,269.925l-1.354-2.677c-1.559,0.789-3.101,1.618-4.619,2.499
			l1.505,2.596C316.227,271.493,317.719,270.69,319.231,269.925z"/>
		<path fill-rule="evenodd" clip-rule="evenodd" d="M327.548,266.134l-1.145-2.773c-1.606,0.663-3.202,1.355-4.785,2.083
			l1.253,2.726C324.415,267.46,325.975,266.783,327.548,266.134z"/>
		<path fill-rule="evenodd" clip-rule="evenodd" d="M336.09,262.871l-1.018-2.821c-1.62,0.584-3.24,1.18-4.857,1.798l1.071,2.802
			C332.879,264.041,334.481,263.452,336.09,262.871z"/>
	</g>
	<g>
		<path fill-rule="evenodd" clip-rule="evenodd" d="M297.234,288.608l-2.627-1.448c-0.882,1.601-1.627,3.288-2.2,5.036l2.85,0.937
			C295.771,291.568,296.438,290.055,297.234,288.608z"/>
		<path fill-rule="evenodd" clip-rule="evenodd" d="M302.604,281.499l-2.146-2.097c-1.254,1.283-2.435,2.652-3.511,4.112
			l2.415,1.779C300.348,283.958,301.438,282.693,302.604,281.499z"/>
		<path fill-rule="evenodd" clip-rule="evenodd" d="M309.48,275.713l-1.729-2.451c-1.444,1.02-2.852,2.102-4.205,3.26l1.949,2.279
			C306.77,277.711,308.104,276.685,309.48,275.713z"/>
	</g>
	<g>
		<path fill-rule="evenodd" clip-rule="evenodd" d="M297.675,316.422l-2.726,1.253c0.771,1.666,1.683,3.254,2.711,4.745l2.475-1.695
			C299.191,319.357,298.366,317.917,297.675,316.422z"/>
		<path fill-rule="evenodd" clip-rule="evenodd" d="M294.759,307.927l-2.928,0.652c0.393,1.762,0.906,3.485,1.512,5.167l2.822-1.017
			C295.598,311.154,295.121,309.551,294.759,307.927z"/>
		<path fill-rule="evenodd" clip-rule="evenodd" d="M294.066,299.108l-2.99-0.232c-0.145,1.83-0.11,3.667,0.069,5.478l2.985-0.298
			C293.967,302.408,293.938,300.751,294.066,299.108z"/>
	</g>
	<g>
		<path fill-rule="evenodd" clip-rule="evenodd" d="M318.526,336.252l-1.446,2.628c1.538,0.847,3.101,1.643,4.684,2.394l1.283-2.712
			C321.518,337.836,320.009,337.067,318.526,336.252z"/>
		<path fill-rule="evenodd" clip-rule="evenodd" d="M310.856,331.393l-1.772,2.421c1.427,1.043,2.891,2.026,4.385,2.956l1.583-2.548
			C313.618,333.329,312.217,332.388,310.856,331.393z"/>
		<path fill-rule="evenodd" clip-rule="evenodd" d="M304.054,325.504l-2.163,2.078c1.235,1.294,2.549,2.499,3.903,3.646l1.936-2.292
			C306.447,327.851,305.209,326.714,304.054,325.504z"/>
	</g>
	<g>
		<path fill-rule="evenodd" clip-rule="evenodd" d="M346.312,345.963l-0.503,2.958c1.731,0.296,3.477,0.533,5.234,0.703l0.288-2.986
			C349.654,346.476,347.979,346.249,346.312,345.963z"/>
		<path fill-rule="evenodd" clip-rule="evenodd" d="M337.434,343.945l-0.815,2.887c1.685,0.475,3.382,0.904,5.093,1.285l0.649-2.929
			C340.708,344.82,339.064,344.405,337.434,343.945z"/>
		<path fill-rule="evenodd" clip-rule="evenodd" d="M328.821,341.051l-1.093,2.794c1.63,0.637,3.275,1.229,4.937,1.777l0.939-2.85
			C331.995,342.241,330.399,341.667,328.821,341.051z"/>
	</g>
</g>
</svg>
