<?xml version="1.0" encoding="utf-8"?>
<!-- Generator: Adobe Illustrator 15.0.0, SVG Export Plug-In . SVG Version: 6.00 Build 0)  -->
<!DOCTYPE svg PUBLIC "-//W3C//DTD SVG 1.1//EN" "http://www.w3.org/Graphics/SVG/1.1/DTD/svg11.dtd">
<svg version="1.1" id="Layer_1" xmlns="http://www.w3.org/2000/svg" xmlns:xlink="http://www.w3.org/1999/xlink" x="0px" y="0px"
	 width="380px" height="800px" viewBox="0 0 380 800" enable-background="new 0 0 380 800" xml:space="preserve">
<rect x="-1" y="116" fill="#EDEDED" width="7" height="34"/>
<rect x="257" fill="#EDEDED" width="59" height="8"/>
<rect y="189" fill="#EDEDED" width="6" height="28"/>
<rect y="255" fill="#EDEDED" width="6" height="29"/>
<path fill="#E6E6E6" d="M362.57,20.932C347.417,5.779,328.592,5.824,327.26,5.82L326.923,6H56.211l-0.046-0.18
	c-0.943-0.001-19.341-0.017-34.67,15.311C5.769,36.856,5,57.917,5,57.917v2.82v683.719v3.035c0,0,0.769,21.205,16.495,36.932
	c15.183,15.182,33.587,15.463,34.854,15.463L56.211,800h270.711l0.013-0.115c0.262,0.004,20.017,0.159,35.635-15.459
	C378.298,768.7,380,747.49,380,747.49v-3.035V60.736v-2.82C380,57.917,378.298,36.659,362.57,20.932z"/>
<path fill="#F5F5F5" d="M370,739.249V64.208v-7.522c0,0,0.588-14.981-13.152-28.718C343.111,14.229,323.452,14,323.452,14H59.683
	c0,0-19.226,0.229-32.964,13.968C12.981,41.704,14,56.686,14,56.686v7.522v675.042v7.087c0,0-0.862,15.365,12.878,29.102
	C40.616,789.178,60,789.789,60,789.789V790h262v-0.211c0,0,20.385-0.611,34.123-14.352C369.861,761.701,370,746.336,370,746.336
	V739.249z"/>
<circle fill="#EDEDED" cx="191.567" cy="737.947" r="36.442"/>
<g>
	<circle fill="#1F1F1F" cx="191.784" cy="43.166" r="7.159"/>
	<g>
		<circle fill="#1F1F1F" cx="152.739" cy="74.401" r="7.158"/>
		<path fill="#1F1F1F" d="M230.83,68H178.77c-3.954,0-7.436,2.827-7.436,6.781c0,3.879,2.666,6.641,6.666,6.758V81h52.83
			c3.952,0,7.157-2.547,7.157-6.5C237.987,70.546,234.782,68,230.83,68z"/>
	</g>
</g>
<g>
	<defs>
		<rect id="SVGID_1_" x="32" y="119" width="320" height="568"/>
	</defs>
	<clipPath id="SVGID_2_">
		<use xlink:href="#SVGID_1_"  overflow="visible"/>
	</clipPath>
	<g clip-path="url(#SVGID_2_)">
		<defs>
			<rect id="SVGID_3_" x="1.997" y="14" width="760" height="694.999"/>
		</defs>
		<clipPath id="SVGID_4_">
			<use xlink:href="#SVGID_3_"  overflow="visible"/>
		</clipPath>
		<rect x="1.997" y="14" clip-path="url(#SVGID_4_)" fill="#FFCC66" width="760" height="694.999"/>
		<g clip-path="url(#SVGID_4_)">
			<path fill="#FCDDA7" d="M132.638,545.544c0.672-0.117,1.297-0.219,1.895-0.312l-0.041-0.217
				C133.908,545.181,133.285,545.358,132.638,545.544z"/>
			<path fill="#FCDDA7" d="M59.089,648.507c-0.12,0.062-0.239,0.127-0.359,0.191c-0.172,0.787-0.346,1.574-0.521,2.363
				C58.513,650.181,58.807,649.327,59.089,648.507z"/>
			<path fill="#FCDDA7" d="M111.098,558.138c2.384,5.439,4.415,10.551,6.181,15.271c-1.289-5.137-2.77-10.518-4.465-16.035
				C112.237,557.62,111.665,557.874,111.098,558.138z"/>
			<path fill="#FCDDA7" d="M108.636,552.685c0.779-0.361,1.564-0.709,2.354-1.039c-0.005-0.016-0.01-0.029-0.015-0.045
				c-0.832,0.229-1.672,0.457-2.522,0.688C108.515,552.421,108.575,552.552,108.636,552.685z"/>
			<polygon fill="#FCDDA7" points="-13.413,234.941 68.295,218.557 67.115,212.674 45.015,217.106 42.747,202.679 66.461,198.283 
				65.367,192.384 18.612,201.051 19.706,206.95 36.845,203.773 39.126,218.287 -14.593,229.059 			"/>
			<path fill="#FCDDA7" d="M678.834,636.22l0.898-0.512c2.454-0.736,25.794-6.609,145.765-6.609v-14
				c-117.094,0-144.546,5.631-150.186,7.344l-46.55,8.693l-0.524-2.92l27.03-5.332l49.414-8.484l73.849-16.57l-3.066-13.66
				l-3.967,0.891v-28.934l-9.434-50.193l15.501-2.984l-1.135-5.893l-15.475,2.98l-12.78-68l25.93-5.111l-1.547-7.85l-25.86,5.098
				l-13.227-70.378l40.621-7.868l-1.521-7.854l-40.578,7.859l-5.712-30.395l51.263-9.49l-1.092-5.899l-51.279,9.493l-5.766-30.678
				l55.222-11.177l20.776-43.703l-39.894,6.999c-0.169,0.028-16.991,2.776-29.212,0.062c-7.12-1.582-11.605-1.686-14.894-1.174
				l-4.941-24.073l56.243-9.943c7.28,5.559,12.115,9.235,12.99,9.9l7.262-9.554c-0.787-0.598-58.729-44.656-94.604-73.056
				c4.227-2.051,11.123-3.728,17.523-4.369l70.927,4.523l0.382-5.988l-71.408-4.554l-0.237,0.023
				c-3.142,0.301-15.245,1.731-22.211,6.374c-10.185-8.118-17.992-14.536-21.193-17.592c-8.014-7.651-11.547-16.259-13.067-21.609
				l23.852-17.75L787.238,6.794l-10.482-21.59l-73.87,35.868l-4.283-21.653l-5.887,1.164l4.589,23.199L670.57,36.764l-6.98-31.415
				l-5.857,1.302l1.542,6.937l-72.411,14.896l-4.592-23.069l-5.885,1.171l9.358,47.012l-46.461,8.205l-13.708-56.51l-5.83,1.414
				l13.619,56.142l-17.39,3.071L502.929,5.368l-5.865,1.264l4.258,19.763l-31.33,6.136l-4.377-24.392l-5.906,1.06l4.394,24.486
				l-10.205,1.998l-6.298-30.292l-5.875,1.222l6.283,30.224l-13.919,2.726l-7.156-34.175l-5.873,1.229l7.141,34.099l-31.939,6.255
				l-8.659-41.581l-5.873,1.224l8.645,41.51l-31.712,6.21L348.282,2h-84.467l13.23,68.313l-69.193,13.55L192.944,5.44l-5.895,1.12
				l14.914,78.457l-24.169,4.733l-7.632-18.429l-4.653-15.999l-30.836,3.18L122.376,3.386L98.952,8.614L115.578,83.1l3.458,18.156
				L62.433,112.34L42.278,5.444l-5.896,1.111l8.108,43.005l-59.126,12.753l1.266,5.865l58.973-12.72l6.852,36.345l-66.953,11.237
				l0.992,5.917l67.073-11.257l6.212,32.947l-74.313,13.399l1.064,5.905l74.36-13.408l6.275,33.286l-81.82,18.241l1.305,5.856
				l81.628-18.197l11.409,60.515c-46.813,8.191-83.951-0.406-84.328-0.497l-1.394,5.836c1.071,0.256,18.286,4.262,44.124,4.262
				c12.496,0,27.029-0.962,42.708-3.715l8.371,44.402l-3.681,0.716l0.154,0.816L6.96,316h-20.963v12H9.028l78.881-28.004
				l17.291,90.947L-6.038,410.729l0.018,0.102c-2.4-1.393-3.752-2.229-3.858-2.295l-4.249,6.779
				c0.383,0.24,4.293,2.676,10.954,6.334l-0.499,1.18c0.266,0.113,20.04,8.705,47.463,32.055l-32.728-0.502
				c-1.771-2.109-3.519-4.182-5.224-6.203c-9.053-10.732-16.871-20.002-20.34-25.781l-12.004,7.203
				c3.666,6.111,10.71,14.627,19.024,24.498l-6.431-0.098l-0.184,11.998l16.838,0.258c14.519,17.402,30.057,37.09,36.24,52.805
				c3.912,9.943,6.945,20.797,9.093,32.096c-2.899-1.033-5.177-2.287-6.951-3.598c-2.224-1.641-3.774-3.43-4.86-5.119l1.389-0.229
				c-9.68-58.762-35.588-74.164-36.686-74.791l-3.471,6.078l-3.555,6.031c0.186,0.113,16.301,10.346,26.051,46.91l-22.837-41.209
				l-12.245,6.785l28.125,50.752l0.764-0.424c1.139,3.355,3.288,9.695,6,17.723c-2.323-0.746-4.553-1.615-6.647-2.543
				c-1.28-4.188-2.247-7.566-2.75-9.521c-2.354-9.156-10.101-20.541-10.43-21.021l-4.951,3.389
				c0.074,0.107,7.476,10.982,9.57,19.127c0.29,1.127,0.688,2.58,1.178,4.283c-5.575-3.186-9.13-6.039-9.212-6.107l-3.792,4.65
				c0.459,0.375,6.521,5.252,15.437,9.557c4.057,13.027,10.365,31.332,15.631,41.5c4.258,8.223,8.564,23.168,11.707,34.08
				c1.012,3.508,1.799,6.215,2.447,8.33c-2.355,1.922-4.676,3.994-6.939,6.26c-25.9,25.9-30.321,59.178-30.496,60.582l13.89,1.75
				c0.038-0.299,4.103-30.029,26.505-52.432c0.137-0.137,0.275-0.262,0.412-0.396c-6.359,26.041-13.453,49.562-13.561,49.918
				l8.333,2.521l-13.126,2.98l3.984,17.553l78.973-17.924l0.593,2.982l5.885-1.17l-0.624-3.141l8.159-1.854
				c7.294,2.406,12.09,3.018,12.411,3.057l0.723-5.957c-0.018-0.002-0.094-0.012-0.219-0.029l34.9-7.922l3.339,15.68l11.736-2.5
				l-3.059-14.361c11.675,4.787,21.81,6.488,30.315,6.488c10.179,0,18.021-2.434,23.383-4.924c8.332-0.4,17.066-1.555,26.066-3.633
				c9.254-2.135,30.55-6.404,57.58-11.662l0.733,3.754l-119.748,23.723l2.721,13.732l119.712-23.715l0.669,3.428l-22.524,4.498
				l1.566,7.846l22.492-4.492l0.336,1.719l11.777-2.301l-0.346-1.768l64.682-12.918l4.183,21.598l7.854-1.521l-4.191-21.645
				l68.688-13.717l7.318,36.9l7.848-1.557l-7.32-36.91l67.035-13.389l10.419,51.67l5.881-1.186l-10.417-51.66l68.584-13.697
				l11.957,66.656l7.875-1.412l-11.984-66.811l17.483-3.492l119.646-2.492l-0.166-7.998l-120,2.5l-0.354,0.006l-18.023,3.6
				l-0.304-1.691l47.049-8.785L678.834,636.22z M763.497,556.872v22.721l-65.585,10.578l-12.51-69.477l68.806-13.248
				L763.497,556.872z M65.13,609.151c4.229-10.723,11.377-30.475,14.852-49.4c7.566-1.891,15.285-3.912,22.583-5.871
				c0.255,0.539,0.503,1.074,0.75,1.607c-3.743,2.242-7.106,4.914-9.661,8.113c-9.958,12.469-23.572,51.867-28.652,67.232
				c-0.962,0.32-1.925,0.662-2.888,1.023c0.479-2.666,0.918-5.275,1.304-7.799C64.165,619.161,64.731,614.181,65.13,609.151z
				 M64.149,563.548c3.043-0.693,6.188-1.436,9.397-2.213c-1.969,9.723-4.868,19.639-7.731,28.248
				C65.746,580.876,65.187,572.146,64.149,563.548z M74.902,508.175c10.741,14.229,18.797,27.836,24.985,40.195
				c-0.088,0.023-0.176,0.047-0.264,0.07c-6.859,1.814-12.991,3.09-18.48,3.932c0.543-4.199,0.854-8.289,0.854-12.154
				C81.997,528.354,78.845,517.333,74.902,508.175z M98.341,567.345c1.954-2.445,4.533-4.547,7.446-6.359
				c5.145,11.793,8.614,22.018,11.308,29.969c0.75,2.213,1.434,4.232,2.073,6.043c1.089,3.084,2.448,7.984,4.022,13.66
				c2.223,8.008,4.899,17.637,8.209,27.559c-5.595-3.656-11.248-6.633-16.787-8.389c-11.466-3.637-26.718-4.834-42.599-1.016
				C77.763,611.786,89.812,578.026,98.341,567.345z M154.405,250.325l-11.643,2.096l-3.746-21.397
				c3.677-0.708,7.48-1.441,11.398-2.196L154.405,250.325z M151.311,142.431l59.259-12.142l2.992,15.739
				c-22.243,4.124-40.981,7.563-48.259,8.811c-7.33,1.258-11.649-0.876-12.837-6.341L151.311,142.431z M155.499,256.224
				l3.119,16.802l-40.668,7.911l-3.703-17.284L155.499,256.224z M157.356,200.468c0.092-5.44-0.504-12.592-2.478-21.85
				c2.031,0.358,4.237,0.569,6.637,0.569c2.421,0,5.034-0.211,7.843-0.693c7.237-1.241,25.203-4.535,46.659-8.511l7.545,38.619
				c-3.889,0.751-7.746,1.496-11.565,2.234l-5.289-32.648l-5.922,0.959l5.317,32.827c-15.875,3.065-31.024,5.989-45,8.684
				L157.356,200.468z M224.713,214.491l4.033,20.644l-43.81,9.043l-1.811-9.412l-5.893,1.134l1.827,9.491l-12.874,2.657
				l-3.988-21.492C181.236,222.886,202.454,218.79,224.713,214.491z M660.376,236.884l-10.117-47.264l10.486-2.04l10.066,47.207
				L660.376,236.884z M681.32,238.797c2.164,6.938,4.209,17.088,2.058,20.988c-1.251,1.889-8.978,4.294-19.312,6.567l-2.695-23.548
				L681.32,238.797z M647.393,362.318l-31.89,6.176l-12.589-65.952l31.146-6.304L647.393,362.318z M639.939,295.048l32.241-6.526
				l5.704,29.873l-32.038,5.931L639.939,295.048z M269.28,594.339l-13.674-67.633l28.983-5.721l13.313,68.145L269.28,594.339z
				 M299.054,595.019l5.877,30.084l-28.332,5.436l-6.129-30.318L299.054,595.019z M145.048,536.294l-13.161-69.23l59.236-9.582
				l0.655-3.521l76.678-15.561l13.833,70.809L145.048,536.294z M218.44,563.093l-65.428,12.479l-4.633-21.754l-1.09-5.734
				l65.58-12.943L218.44,563.093z M135.656,551.144l0.946,4.977l10.684,50.166c-5.452-7.973-13.857-23.127-25.965-51.936
				C126.841,552.716,132.052,551.716,135.656,551.144z M132.638,545.544c0.647-0.186,1.271-0.363,1.854-0.529l0.041,0.217
				C133.935,545.325,133.31,545.427,132.638,545.544z M538.918,211.277l9.552,48.083l-31.936,6.415l-9.594-48.277L538.918,211.277z
				 M537.056,170.576l16.519-3.282l5.376,27.862l-16.463,3.202L537.056,170.576z M295.009,393.626l3.02,17.787l-21.739,4.494
				l-9.232-47.255l63.005-12.746l2.227-0.352l5.718,29.526L295.009,393.626z M300.902,428.345l-21.99,0.99l-1.474-7.539
				l21.594-4.465L300.902,428.345z M241.649,238.597l44.77-9.242l3.438,18.143l-44.768,8.708L241.649,238.597z M242.267,304.344
				l-15.108,2.672l-2.374-14.109l14.703-2.791L242.267,304.344z M292.092,259.289l3.581,18.893l-44.523,9.042l-3.76-19.24
				L292.092,259.289z M388.36,313.573l-2.87-15.358l12.869-2.585l3.11,15.681L388.36,313.573z M402.637,317.197l2.738,13.806
				l-13.22,2.876l-2.692-14.407L402.637,317.197z M348.328,326.572l3.208,13.789l-13.625,2.154l-2.65-13.688L348.328,326.572z
				 M334.119,322.937l-2.685-13.865l12.25-2.46l3.281,14.107L334.119,322.937z M349.569,305.43l30.037-6.033l2.841,15.198
				l-29.56,5.102L349.569,305.43z M383.549,320.492l2.688,14.383l-28.76,4.548l-3.228-13.873L383.549,320.492z M330.293,303.181
				l-1.558-8.044l67.169-11.885l1.288,6.492L330.293,303.181z M380.176,279.942l-7.543-36.32l14.84-2.886l7.265,36.629
				L380.176,279.942z M374.265,280.988l-46.67,8.258l-2.129-10.993l46.279-9.399L374.265,280.988z M324.324,272.362l-3.61-18.641
				l12.106-2.355l3.694,18.52L324.324,272.362z M320.856,296.531l1.594,8.225l-65.313,13.118l-1.901-9.732L320.856,296.531z
				 M304.646,293.307l-1.976-10.424l14.954-3.038l2.091,10.795L304.646,293.307z M301.554,276.987l-3.572-18.844l14.88-2.895
				l3.623,18.706L301.554,276.987z M295.747,246.353l-3.451-18.211l14.727-3.04l3.557,18.366L295.747,246.353z M296.79,284.077
				l1.947,10.275l-44.652,7.901l-1.785-9.141L296.79,284.077z M255.295,371.032l6.081,31.125l-64.057,13.641l-5.909-31.842
				L255.295,371.032z M197.757,421.841l64.77-13.793l4.396,22.5l-73.564,14.928L197.757,421.841z M264.756,356.875l-6.469-33.111
				l65.304-13.116l6.414,33.118l-2.072,0.328L264.756,356.875z M339.147,390.972l2.223,11.48l-37.463,7.746l-2.006-11.824
				L339.147,390.972z M342.511,408.343l2.432,12.557l-36.751,7.117l-1.25,0.057l-2.029-11.957L342.511,408.343z M340.194,354.305
				l14.068-2.225l7.021,30.175l14.353,13.113l-26.431,5.465L340.194,354.305z M379.507,400.694l1.994,13.123l-28.704,5.561
				l-2.451-12.656L379.507,400.694z M366.705,379.081l-6.501-27.94l32.979-5.215l14.524-3.158l12.601,63.534l-32.913,6.375
				l-2.592-17.061L366.705,379.081z M482.838,314.604l-30.116,6.096l-39.528,8.602l-2.67-13.465l70.06-12.093L482.838,314.604z
				 M481.558,278.919l30.264-6.079l6.857,34.508l-29.961,6.064L481.558,278.919z M409.355,309.949l-3.152-15.895l69.473-13.954
				l3.688,17.765L409.355,309.949z M415.527,341.067l30.857-6.71l5.347,29.653l-30.483,5.903L415.527,341.067z M452.797,369.916
				l5.243,29.077l-29.877,5.787l-5.748-28.98L452.797,369.916z M457.622,362.87l-5.371-29.788l2.937-0.639l29.908-6.054
				l5.302,30.134L457.622,362.87z M491.438,362.434l5.12,29.099l-32.627,6.32l-5.243-29.077L491.438,362.434z M490.978,325.199
				l67.803-13.724l5.847,30.564l-34.618,6.943l6.943,34.726l-34.504,6.684L490.978,325.199z M565.755,347.932l5.57,29.12
				l-28.483,5.516l-5.774-28.882L565.755,347.932z M572.758,384.923l6.01,34.703l-68.785,13.586l-6.147-34.939L572.758,384.923z
				 M579.792,425.54l6.08,35.105l-68.646,13.729l-6.203-35.25L579.792,425.54z M578.649,383.78l32.462-6.286l13.502,70.743
				l-14.39,2.838l-0.397,0.078l-18.19,7.615L578.649,383.78z M577.215,375.91l-12.555-65.625l32.372-6.553l12.579,65.903
				L577.215,375.91z M562.364,298.507l-6.843-34.443l69.345-13.928l6.835,34.336L562.364,298.507z M556.483,299.697l-31.925,6.462
				l-6.855-34.5l31.937-6.415L556.483,299.697z M510.651,266.956l-30.313,6.088l-10.051-48.417l30.764-5.984L510.651,266.956z
				 M474.456,274.226l-69.42,13.943l-9.71-48.961l69.071-13.435L474.456,274.226z M392.991,227.437l-3.818-19.256l69.299-13.651
				l3.612,19.468L392.991,227.437z M388.005,202.295l-3.702-18.667c26.864-5.199,50.912-9.854,69.644-13.482l3.43,18.483
				L388.005,202.295z M385.139,228.965l-14.946,2.907l-3.945-18.996l15.083-3.113L385.139,228.965z M366.742,244.768l3.782,18.211
				l-28.129,5.713l-3.686-18.472L366.742,244.768z M336.362,238.453l-3.719-18.64l27.727-5.724l3.932,18.928L336.362,238.453z
				 M331.47,213.929l-3.857-19.332c9.342-1.807,18.568-3.592,27.602-5.34l3.937,18.957L331.47,213.929z M330.472,239.598
				l-12.039,2.342l-3.574-18.456l11.908-2.458L330.472,239.598z M313.718,217.594l-3.791-19.575
				c3.945-0.763,7.878-1.524,11.795-2.281l3.871,19.405L313.718,217.594z M308.786,192.128l-4.236-21.87l11.625-2.321l4.373,21.916
				C316.642,190.609,312.72,191.367,308.786,192.128z M305.882,219.211l-14.703,3.036l-3.768-19.874
				c4.892-0.946,9.781-1.891,14.66-2.835L305.882,219.211z M286.294,196.478l-4.122-21.751l14.533-2.901l4.226,21.822
				C296.06,194.589,291.178,195.534,286.294,196.478z M285.302,223.46l-44.803,9.249l-4.004-20.494
				c14.76-2.852,29.874-5.773,45.025-8.703L285.302,223.46z M238.337,284.227l-14.549,2.762l-2.35-13.957l14.172-2.757
				L238.337,284.227z M189.339,267.05l-3.269-16.98l43.825-9.047l3.414,17.475L189.339,267.05z M218.888,294.025l2.361,14.035
				l-23.229,4.107l-2.633-13.682L218.888,294.025z M194.254,292.595l-2.647-13.76l23.941-4.657l2.344,13.93L194.254,292.595z
				 M188.36,293.713l-13.232,2.512l-2.541-13.691l13.13-2.554L188.36,293.713z M189.493,299.605l2.619,13.608l-13.393,2.368
				l-2.497-13.457L189.493,299.605z M243.417,310.233l9.577,49.021l-63.774,12.902l-9.404-50.676L243.417,310.233z M280.463,437.274
				l28.382-1.279l0.293-0.014l37.326-7.229l13.225,68.283l-65.226,11.9L280.463,437.274z M354.317,427.231l67.547-13.084
				l14.028,70.73l-4.317-0.959l-64.017,11.68L354.317,427.231z M429.719,412.626l68.226-13.213l13.396,76.139l-61.801,12.359
				l-5.115-1.137L429.719,412.626z M449.453,496.087l63.372-12.674l12.5,61.99L458.6,558.251l-12.475-62.902L449.453,496.087z
				 M518.707,482.235l68.681-13.736l13.254,62.404l-69.426,13.367L518.707,482.235z M593.159,466.802l19.009-7.957l52.608-10.369
				l13.611,67.457l-71.854,13.836L593.159,466.802z M630.501,447.077l-7.786-40.797l32.397-5.703l8.082,40.057L630.501,447.077z
				 M621.59,400.386l-4.588-24.033l31.973-6.192l4.95,24.534L621.59,400.386z M630.749,248.954l24.718-4.964l2.7,23.589
				c-7.206,1.422-15.202,2.738-22.96,3.775L630.749,248.954z M654.506,238.062l-24.929,5.007l-9.472-47.584l24.265-4.72
				L654.506,238.062z M623.695,244.251l-69.343,13.928l-9.545-48.047l69.408-13.501L623.695,244.251z M561.762,178.059
				l-2.303-11.934l11.392-2.264l2.405,12.147L561.762,178.059z M574.422,181.896l1.954,9.871l-11.537,2.244l-1.94-10.06
				L574.422,181.896z M582.265,190.621l-5.53-27.929l29.557-5.873l5.582,28.042L582.265,190.621z M535.905,164.688l-10.899-55.753
				l69.281-12.423l10.833,54.423L535.905,164.688z M536.598,199.504l-16.182,3.147l-8.228-42.244l16.077-3.527L536.598,199.504z
				 M514.526,203.797l-10.009,1.947l-8.912-41.698l10.722-2.353L514.526,203.797z M498.627,206.89l-30.654,5.963l-8.137-43.846
				c13.531-2.62,23.731-4.596,29.475-5.708L498.627,206.89z M458.741,163.107l-7.282-39.246l28.191-5.768l8.406,39.336
				C482.299,158.545,472.159,160.509,458.741,163.107z M452.852,164.248c-18.744,3.629-42.819,8.291-69.716,13.496l-7.605-38.35
				l70.05-14.331L452.852,164.248z M376.448,185.149l3.715,18.729l-15.137,3.125l-3.922-18.884
				C366.296,187.113,371.416,186.123,376.448,185.149z M359.885,182.243l-4.593-22.115l15.578-3.11l4.411,22.245
				C370.231,180.241,365.093,181.235,359.885,182.243z M354.071,154.254l-2.086-10.043l15.707-3.213l2.01,10.136L354.071,154.254z
				 M353.993,183.383c-9.018,1.745-18.229,3.527-27.555,5.331l-4.379-21.951l27.348-5.46L353.993,183.383z M303.409,164.368
				l-1.998-10.316c16.508-3.094,28.211-5.293,29.803-5.592l14.893-3.047l2.08,10.016L303.409,164.368z M326.687,124.891
				c-0.555,0.104-3.297,0.619-7.675,1.441l-11.729-55.826l21.992-4.307l11.889,55.73L326.687,124.891z M313.112,127.439
				c-4.559,0.855-10.068,1.889-16.264,3.049l-10.812-55.822l15.355-3.007L313.112,127.439z M295.563,165.935l-14.509,2.896
				l-2.008-10.592c5.039-0.942,9.902-1.853,14.501-2.714L295.563,165.935z M280.403,197.617c-8.05,1.557-16.09,3.11-24.071,4.653
				l-4.212-21.544l24.167-4.825L280.403,197.617z M250.97,174.837l-2.141-10.955c8.217-1.532,16.43-3.065,24.32-4.541l2.021,10.664
				L250.97,174.837z M250.44,203.409c-5.064,0.979-10.1,1.952-15.096,2.917l-4.184-21.415l15.076-3.01L250.44,203.409z
				 M230.011,179.022l-2.193-11.228c4.957-0.921,10.019-1.863,15.112-2.812l2.156,11.03L230.011,179.022z M180.194,251.283
				l3.255,16.914l-13.052,2.539l-3.115-16.787L180.194,251.283z M168.059,323.895l9.398,50.642l-60.821,12.305l-9.273-48.772
				L168.059,323.895z M179.647,386.337l6.247,33.66l-5.023,26.986l-47.175,7.631c-1.396-0.006-2.793-0.029-4.189-0.072
				l-10.631-55.912L179.647,386.337z M119.858,468.048l13.506,71.043c-4.375,1.252-10.824,3.082-18.398,5.176
				c-7.753-21.93-19.009-44.865-35.246-62.781c-4.642-5.123-9.193-9.854-13.634-14.26L119.858,468.048z M117.278,573.409
				c-1.766-4.721-3.797-9.832-6.181-15.271c0.567-0.264,1.14-0.518,1.716-0.764C114.509,562.892,115.989,568.272,117.278,573.409z
				 M110.99,551.646c-0.79,0.33-1.575,0.678-2.354,1.039c-0.061-0.133-0.121-0.264-0.183-0.396c0.851-0.23,1.69-0.459,2.522-0.688
				C110.98,551.616,110.985,551.63,110.99,551.646z M131.33,617.46c-0.253-2.803-1.913-19.611-7.134-41.625
				c8.734,18.994,18.162,36.398,25.702,42.721l8.894,41.76c-5.867-5.295-12.251-10.939-18.85-16.006
				C136.483,634.956,133.646,625.577,131.33,617.46z M154.263,581.44l65.351-12.463l6.616,33.197l-65.031,11.834L154.263,581.44z
				 M218.755,533.978l30.965-6.109l13.656,67.545l-31.244,5.686L218.755,533.978z M264.565,601.296l6.141,30.373l-31.285,6.002
				l-6.115-30.688L264.565,601.296z M306.081,630.991l6.181,31.637l-65.475,12.004l-6.193-31.076L306.081,630.991z M295.997,516.788
				l65.213-11.898l13.463,69.521l-64.975,12.51L295.997,516.788z M369.079,503.454l62.34-11.375l6.174,1.373l13.151,66.312
				l-68.215,13.133L369.079,503.454z M451.911,565.649l5.124,25.84l-67.968,15.17l-5.397-27.871L451.911,565.649z M458.203,597.376
				l7.515,37.893l-68.809,11.885l-6.701-34.604L458.203,597.376z M459.768,564.138l66.744-12.852l14.146,70.154l-67.062,12.418
				L459.768,564.138z M532.402,550.151l33.344-6.42l13.412,70.578l-32.601,6.037L532.402,550.151z M571.638,542.597l30.25-5.824
				l14.984,70.553l-31.814,5.893L571.638,542.597z M615.949,574.101l-8.169-38.461l71.731-13.812l12.477,69.299l-31.216,5.035
				c-1.052-3.561-2.705-9.764-4.068-17.629c-0.791-4.561-2.844-7.715-6.104-9.377c-5.254-2.678-11.513-0.234-13.214,0.529
				L615.949,574.101z M753.1,501.548L684.278,514.8l-13.616-67.484l69.663-13.732L753.1,501.548z M725.615,355.316l13.232,70.403
				l-69.768,13.754l-14.216-70.454L725.615,355.316z M724.138,347.453l-70.855,13.725l-6.248-30.971l71.379-13.214L724.138,347.453z
				 M723.695,242.857c14.474,3.217,33.006,0.192,33.839,0.053l17.056-2.992l-8.224,17.297l-47.398,9.594l-5.139-25.031
				C715.73,241.586,718.667,241.74,723.695,242.857z M711.563,280.55l5.741,30.546l-33.521,6.206l-5.723-29.971L711.563,280.55z
				 M707.205,269.189l-69.623,14.092l-1.203-6.042c4.519-0.626,13.222-1.904,22.09-3.605c23.769-4.559,28.581-8.086,30.153-10.936
				c3.383-6.13,0.732-17.819-1.124-24.177l13.536,0.602L707.205,269.189z M756.231,191.004l-50.975,9.012l-4.734-23.064
				l28.713-6.666C739.167,177.937,748.532,185.116,756.231,191.004z M723.096,165.551l-23.679,5.497l-4.615-27.468
				C703.92,150.714,713.651,158.261,723.096,165.551z M689.313,182.023l10.477,51.039l-14.314-0.636l-0.194-0.544l-8.588,1.725
				l-10.059-47.171L689.313,182.023z M653.853,110.34c3.92,3.742,14.064,12.015,26.928,22.206l6.331,37.681l-69.349,13.489
				l-17.569-88.264l17.34-3.109l20.751-6.521C640.553,92.643,645.036,101.924,653.853,110.34z M632.462,62.495l-20.667,6.495
				l-16.287,2.92l-2.682-13.47l59.111-10.439L632.462,62.495z M660.576,19.446l4.446,20.011l-0.453,0.22l-72.914,12.877
				l-3.62-18.186L660.576,19.446z M586.916,59.484l2.685,13.485l-69.424,12.449l-2.937-13.629L586.916,59.484z M519.105,110.022
				l8.009,40.969l-32.763,7.188l-8.824-41.288L519.105,110.022z M514.276,86.517l-33.374,6.827L474.58,58.11l32.206-6.353
				L514.276,86.517z M502.586,32.261l2.937,13.63l-32.002,6.312l-2.47-13.767L502.586,32.261z M475.023,94.546l-28.213,5.771
				l-7.387-35.273l29.27-5.773L475.023,94.546z M465.161,39.589l2.473,13.775l-29.439,5.807l-2.877-13.737L465.161,39.589z
				 M429.429,46.586l11.504,54.933l-31.951,6.536l-11.498-55.213L429.429,46.586z M391.595,53.996l11.51,55.263l-32.242,6.596
				l-11.035-55.638L391.595,53.996z M363.024,117.457l-15.982,3.27l-11.878-55.681l16.812-3.292L363.024,117.457z M341.712,10
				l9.098,45.869l-29.893,5.854L311.138,10H341.712z M305.032,10l9.996,52.875l-8.98,1.759L294.568,10H305.032z M273.513,10h14.924
				l11.723,55.788l-15.263,2.989L273.513,10z M229.704,85.698l2.688,12.794l5.873-1.233l-2.672-12.714l42.594-8.341l10.798,55.757
				c-20.591,3.855-46.493,8.696-69.523,12.972l-10.488-55.176L229.704,85.698z M203.085,90.911l2.945,15.496l-23.486,4.786
				l-3.062-15.661L203.085,90.911z M207.15,112.302l2.299,12.092l-59.261,12.143l-2.315-12.155L207.15,112.302z M176.665,112.392
				l-29.915,6.096l-3.038-15.95l29.882-5.852L176.665,112.392z M166.71,78.63l5.08,12.295l-29.201,5.718l-2.771-14.557L166.71,78.63
				z M161.146,61.803l3.222,11.078l-25.747,3.309l-2.632-11.793L161.146,61.803z M63.544,118.237l56.615-11.087l6.515,34.205
				l-56.585,11.594L63.544,118.237z M71.2,158.846l56.597-11.597l1.069,5.612c0.113,0.617,0.419,2.035,1.043,3.897
				c0.259,10.449,2.602,32.412,16.5,50.485l2.911,15.685c-29.236,5.634-52.103,10.026-63.731,12.233L71.2,158.846z M86.7,241.058
				c9.221-1.75,25.5-4.872,46.423-8.899l3.733,21.326l-46.244,8.327L86.7,241.058z M91.725,267.708l16.614-2.992l3.721,17.365
				l-17.002,3.307L91.725,267.708z M99.507,296.749l61.301-11.924l6.156,33.167l-60.723,14.177L99.507,296.749z M106.694,398.802
				l10.447,54.951c-45.447-4.469-89.864-25.059-112.174-36.855L106.694,398.802z M34.862,439.888
				c2.321,0.965,4.695,1.93,7.133,2.885c11.365,4.461,24.774,9.045,39.265,12.684l-28.11-0.43
				C46.646,449.214,40.511,444.194,34.862,439.888z M57.321,467.091c5.795,5.525,11.803,11.639,17.953,18.424
				c15.402,16.996,26.217,39.102,33.752,60.385c-1.061,0.289-2.134,0.582-3.224,0.877c-6.732-13.604-15.677-28.74-27.931-44.609
				c-13.961-18.08-29.261-28.92-42.001-35.404L57.321,467.091z M21.615,467.173c8.978,3.273,21.139,9.211,33.583,19.803
				c2.21,2.672,20.799,25.984,20.799,53.242c0,4.07-0.377,8.443-1.025,12.953c-4.58,0.473-8.635,0.605-12.234,0.484
				c-2.318-14.016-5.917-27.494-10.727-39.719C46.302,499.425,34.19,482.767,21.615,467.173z M59.089,648.507
				c-0.282,0.82-0.576,1.674-0.881,2.555c0.176-0.789,0.35-1.576,0.521-2.363C58.85,648.634,58.969,648.569,59.089,648.507z
				 M50.313,616.491c-2.795-15.732-7.549-33.598-11.828-48.193c3.188-0.307,7.251-0.951,11.91-1.84
				C52.301,583.056,52.325,600.161,50.313,616.491z M37.378,552.251c3.301,2.477,7.256,4.338,11.853,5.584
				c0.139,0.889,0.272,1.779,0.401,2.672c-5.251,1.012-9.689,1.695-12.895,1.918c-1.943-6.439-3.704-11.971-5.023-16.023
				C33.08,548.374,34.904,550.394,37.378,552.251z M15.49,564.96c2.128,0.77,4.351,1.455,6.642,2.016
				c0.334,0.99,0.674,2,1.019,3.021c1.574,8.041,2.661,16.211,2.579,23.205C22.155,584.771,18.423,574.046,15.49,564.96z
				 M21.147,538.272l1.405-0.777c0.452,2.258,0.888,4.568,1.288,6.992l0.875-0.145c1.187,3.588,3.268,9.994,5.694,17.98
				c-0.946-0.09-1.886-0.219-2.819-0.369C25.483,552.647,22.984,544.11,21.147,538.272z M28.914,568.196
				c1.104,0.127,2.216,0.223,3.337,0.271c3.724,12.621,7.885,27.914,10.791,42.039c-4.595-13.848-9.711-29.088-14.072-42.029
				C28.952,568.384,28.933,568.29,28.914,568.196z M41.306,635.8c-2.874-9.977-6.698-23.238-10.717-32.191
				c0.6-2.512,0.936-5.312,1.06-8.312c5.565,16.637,11.112,33.375,14.657,44.469c-1.078,0.688-2.15,1.41-3.218,2.158
				C42.509,639.972,41.894,637.837,41.306,635.8z M42.057,712.649c0.512-1.729,1.224-4.16,2.086-7.156
				c2.291-5.082,4.978-11.807,7.72-19.039l8.107,22.129L42.057,712.649z M65.868,707.245l-10.783-29.438
				c1.717-4.68,3.4-9.379,4.969-13.816c10.385,17.641,23.101,29.266,34.267,36.797L65.868,707.245z M62.702,656.435
				c1.537-4.42,2.871-8.316,3.893-11.322c8.291-3.188,16.577-4.578,24.234-4.678l11.588,58.322
				C89.134,690.853,74.067,677.806,62.702,656.435z M108.307,697.612l-11.321-56.979c4.893,0.383,9.424,1.279,13.396,2.539
				c9.718,3.08,20.848,11.625,31.135,20.531c4.219,8.748,9.129,16.76,14.875,22.996L108.307,697.612z M163.295,685.132
				c-2.562-2.412-4.974-5.252-7.241-8.418c2.668,2.4,5.237,4.682,7.662,6.723l0.324,1.527L163.295,685.132z M162.448,619.88
				l64.953-11.822l6.127,30.744l-64.418,12.359L162.448,619.88z M180.107,694.987l1.73-0.316c7.31,3.119,15.942,5.592,25.583,7.035
				C199.692,701.374,190.563,699.513,180.107,694.987z M193.808,684.343c-7.385-2.42-13.496-5.582-17.994-9.104
				c-0.613-0.48-1.252-1-1.902-1.535l-3.551-16.674l64.342-12.344l6.184,31.025L193.808,684.343z M256.423,685.679
				c-15.102,3.484-29.233,4.158-41.607,2.947l98.98-18.146l0.67,3.434C287.338,679.19,265.896,683.493,256.423,685.679z
				 M310.849,592.81l64.966-12.508l4.141,21.381L314.98,613.96L310.849,592.81z M316.132,619.851l64.965-12.277l7.937,40.982
				l-64.968,11.908L316.132,619.851z M325.6,668.317l64.954-11.908l0.547,2.82c-22.538,4.271-44.867,8.533-64.854,12.398
				L325.6,668.317z M328.933,685.374c19.958-3.857,42.287-8.119,64.831-12.393l0.634,3.273l-64.741,12.824L328.933,685.374z
				 M333.007,706.228l-0.666-3.408l64.719-12.82l0.641,3.309L333.007,706.228z M398.96,657.739l-0.529-2.73l68.844-11.891
				l0.337,1.697C446.444,648.78,422.728,653.241,398.96,657.739z M402.245,674.7l-0.621-3.207
				c23.788-4.504,47.535-8.971,68.712-12.939l0.507,2.557L402.245,674.7z M405.545,691.741l-0.639-3.297l68.66-13.602l0.632,3.188
				L405.545,691.741z M475.476,643.341l-0.324-1.633l67.088-12.426l0.312,1.551C536.154,632.021,509.854,636.905,475.476,643.341z
				 M478.2,657.081c35.041-6.562,61.628-11.502,67.119-12.523l0.42,2.08l-32.103,5.996l-34.945,6.922L478.2,657.081z
				 M482.044,676.462l-0.63-3.174l34.868-6.908l32.225-6.018l0.547,2.717L482.044,676.462z M548.44,629.687l-0.302-1.496
				l69.652-12.9l0.124,0.693L548.44,629.687z M551.207,643.409l69.18-13.646l0.51,2.842l-69.26,12.934L551.207,643.409z
				 M554.938,661.905l-0.533-2.643l68.964-12.879l0.321,1.791L554.938,661.905z M622.701,605.894l-5.506-25.924l21.745-4.479
				l0.373-0.08l0.334-0.162c1.39-0.67,5.58-2.111,8.241-0.74c1.478,0.758,2.454,2.457,2.903,5.049c1.369,7.896,3,14.123,4.105,17.9
				L622.701,605.894z M625.579,613.397l34.246-8.98l90.375-14.576l-48.063,10.789l-49.324,8.471l-27.047,5.334L625.579,613.397z"/>
		</g>
	</g>
</g>
<path opacity="0.2" fill="#FFFFFF" d="M370,565.715V64.208v-7.522c0,0,0.588-14.981-13.152-28.718
	C343.111,14.229,323.452,14,323.452,14H182.891L370,565.715z"/>
<path fill="#D66483" d="M250.343,383.465c-4.467-0.318-9.577-3.943-11.351-8.053l-13.18-30.547c-1.748-4.11-3.863-3.865-4.681,0.539
	l-15.318,83.353c-0.811,4.402,1.686,6.184,5.564,3.934l72.908-42.167c3.879-2.25,3.395-4.342-1.074-4.668L250.343,383.465z"/>
</svg>
