<?xml version="1.0" encoding="utf-8"?>
<!-- Generator: Adobe Illustrator 15.0.0, SVG Export Plug-In . SVG Version: 6.00 Build 0)  -->
<!DOCTYPE svg PUBLIC "-//W3C//DTD SVG 1.1//EN" "http://www.w3.org/Graphics/SVG/1.1/DTD/svg11.dtd">
<svg version="1.1" id="Layer_1" xmlns="http://www.w3.org/2000/svg" xmlns:xlink="http://www.w3.org/1999/xlink" x="0px" y="0px"
	 width="200px" height="419px" viewBox="0 0 200 419" enable-background="new 0 0 200 419" xml:space="preserve">
<g>
	<rect y="60.728" fill="#EDEDED" width="3.665" height="17.799"/>
	<rect x="135.067" fill="#EDEDED" width="30.888" height="4.188"/>
	<rect x="0.523" y="98.944" fill="#EDEDED" width="3.142" height="14.659"/>
	<rect x="0.523" y="133.496" fill="#EDEDED" width="3.142" height="15.182"/>
	<path fill="#E6E6E6" d="M190.334,10.958c-7.934-7.933-17.789-7.909-18.486-7.911l-0.176,0.095H29.951l-0.024-0.095
		c-0.494,0-10.125-0.009-18.15,8.015c-8.233,8.232-8.636,19.259-8.636,19.259v1.476v357.937v1.589c0,0,0.402,11.102,8.636,19.335
		c7.948,7.947,17.583,8.095,18.247,8.095l-0.073,0.06h141.722l0.006-0.06c0.138,0.002,10.48,0.083,18.656-8.094
		c8.232-8.231,9.125-19.336,9.125-19.336v-1.59V31.796V30.32C199.459,30.321,198.567,19.191,190.334,10.958z"/>
	<path fill="#F5F5F5" d="M194.224,387.007V33.614v-3.938c0,0,0.307-7.843-6.885-15.035c-7.192-7.192-17.483-7.312-17.483-7.312
		H31.769c0,0-10.065,0.12-17.257,7.312c-7.192,7.191-6.659,15.035-6.659,15.035v3.938v353.394v3.711c0,0-0.452,8.043,6.742,15.234
		c7.192,7.193,17.34,7.514,17.34,7.514v0.109h137.16v-0.109c0,0,10.672-0.32,17.865-7.515c7.192-7.19,7.265-15.234,7.265-15.234
		V387.007z"/>
	<circle fill="#EDEDED" cx="100.811" cy="386.326" r="19.078"/>
	<g>
		<circle fill="#1F1F1F" cx="100.925" cy="22.598" r="3.748"/>
		<g>
			<circle fill="#1F1F1F" cx="80.485" cy="38.95" r="3.747"/>
			<path fill="#1F1F1F" d="M121.367,35.599H94.112c-2.07,0-3.893,1.48-3.893,3.55c0,2.031,1.396,3.477,3.49,3.538v-0.282h27.658
				c2.068,0,3.746-1.333,3.746-3.403C125.113,36.932,123.435,35.599,121.367,35.599z"/>
		</g>
	</g>
	<g>
		<g>
			<defs>
				<rect id="SVGID_1_" x="17.276" y="62.298" width="167.525" height="297.356"/>
			</defs>
			<use xlink:href="#SVGID_1_"  overflow="visible" fill="#454545"/>
			<clipPath id="SVGID_2_">
				<use xlink:href="#SVGID_1_"  overflow="visible"/>
			</clipPath>
			<path opacity="0.2" clip-path="url(#SVGID_2_)" fill="#FFFFFF" enable-background="new    " d="M194.224,296.16V33.614v-3.938
				c0,0,0.307-7.843-6.885-15.035c-7.192-7.192-17.483-7.312-17.483-7.312H96.269L194.224,296.16z"/>
		</g>
	</g>
</g>
</svg>
