<?xml version="1.0" encoding="utf-8"?>
<!-- Generator: Adobe Illustrator 15.0.0, SVG Export Plug-In . SVG Version: 6.00 Build 0)  -->
<!DOCTYPE svg PUBLIC "-//W3C//DTD SVG 1.1//EN" "http://www.w3.org/Graphics/SVG/1.1/DTD/svg11.dtd">
<svg version="1.1" id="Layer_1" xmlns="http://www.w3.org/2000/svg" xmlns:xlink="http://www.w3.org/1999/xlink" x="0px" y="0px"
	 width="426.133px" height="434.003px" viewBox="0 0 426.133 434.003" enable-background="new 0 0 426.133 434.003"
	 xml:space="preserve">
<g>
	<g>
		<defs>
			<circle id="SVGID_1_" cx="214.049" cy="221.052" r="212.085"/>
		</defs>
		<clipPath id="SVGID_2_">
			<use xlink:href="#SVGID_1_"  overflow="visible"/>
		</clipPath>
		<g clip-path="url(#SVGID_2_)">
			<path fill="#FFFFFF" d="M36.108,350.757c0.471-0.084,0.903-0.152,1.323-0.219l-0.026-0.152
				C36.996,350.503,36.56,350.628,36.108,350.757z"/>
			<path fill="#FFFFFF" d="M-15.271,422.681c-0.086,0.047-0.167,0.09-0.25,0.139c-0.125,0.545-0.245,1.096-0.367,1.646
				C-15.672,423.851-15.468,423.253-15.271,422.681z"/>
			<path fill="#FFFFFF" d="M21.059,359.554c1.665,3.799,3.084,7.371,4.319,10.67c-0.901-3.59-1.934-7.35-3.117-11.203
				C21.854,359.195,21.455,359.373,21.059,359.554z"/>
			<path fill="#FFFFFF" d="M19.341,355.744c0.543-0.254,1.094-0.492,1.646-0.725c-0.005-0.012-0.008-0.021-0.01-0.032
				c-0.584,0.158-1.167,0.319-1.761,0.483C19.258,355.562,19.298,355.653,19.341,355.744z"/>
			<polygon fill="#FFFFFF" points="-65.918,133.782 -8.839,122.338 -9.664,118.225 -25.103,121.321 -26.686,111.245 
				-10.121,108.173 -10.882,104.051 -43.544,110.107 -42.78,114.227 -30.808,112.008 -29.214,122.146 -66.741,129.673 			"/>
			<path fill="#CCCCCC" d="M417.659,414.097l0.627-0.354c1.717-0.52,18.02-4.621,101.826-4.621v-9.779
				c-81.797,0-100.975,3.934-104.912,5.129l-32.52,6.076l-0.369-2.043l18.885-3.723l34.518-5.93l51.59-11.574l-2.145-9.541
				l-2.77,0.624v-20.215l-6.592-35.063l10.83-2.084l-0.795-4.115l-10.812,2.08l-8.928-47.502l18.115-3.568l-1.082-5.486
				l-18.064,3.562l-9.24-49.164l28.377-5.496l-1.062-5.485l-28.348,5.487l-3.988-21.231l35.811-6.628l-0.764-4.122l-35.818,6.632
				l-4.033-21.431l38.578-7.808l14.512-30.534l-27.867,4.895c-0.115,0.019-11.867,1.938-20.408,0.04
				c-4.973-1.102-8.104-1.178-10.398-0.823l-3.455-16.815l39.291-6.945c5.086,3.883,8.461,6.451,9.074,6.913l5.07-6.671
				c-0.549-0.417-41.023-31.194-66.086-51.035c2.951-1.431,7.771-2.604,12.24-3.05l49.545,3.16l0.27-4.187l-49.883-3.179
				l-0.168,0.019c-2.195,0.207-10.648,1.208-15.516,4.45c-7.117-5.671-12.57-10.151-14.807-12.286
				c-5.598-5.347-8.064-11.359-9.127-15.097l16.66-12.4l79.859-38.775l-7.324-15.079L434.45-15.623l-2.99-15.123l-4.113,0.814
				l3.205,16.205L411.877-4.66l-4.875-21.943l-4.094,0.909l1.076,4.846L353.403-10.44l-3.207-16.113l-4.107,0.817l6.537,32.84
				l-32.459,5.733L310.59-26.64l-4.072,0.993l9.516,39.213l-12.148,2.144l-9.114-42.295l-4.099,0.882l2.976,13.804L271.76-7.613
				L268.7-24.652l-4.123,0.739l3.067,17.105l-7.129,1.394l-4.399-21.158l-4.104,0.854L256.4-4.607l-9.721,1.904l-5-23.872
				l-4.104,0.86l4.989,23.818l-22.312,4.37l-6.047-29.045l-4.104,0.855l6.04,28.997l-22.153,4.335l-7.25-36.554l-59.004-0.002
				l9.242,47.719l-48.334,9.466L78.229-26.538l-4.12,0.783L84.527,29.05l-16.883,3.305l-5.33-12.873L59.063,8.306l-21.542,2.218
				l-8.59-38.501l-16.363,3.655l11.618,52.03L26.6,40.393l-39.542,7.74l-14.077-74.67l-4.12,0.777l5.664,30.041l-41.303,8.91
				l0.885,4.101l41.195-8.888l4.787,25.389l-46.77,7.849l0.694,4.133l46.853-7.866l4.338,23.019l-51.912,9.361l0.744,4.123
				l51.944-9.366l4.386,23.253l-57.158,12.741l0.912,4.09l57.02-12.707l7.971,42.268c-32.7,5.726-58.645-0.282-58.909-0.344
				l-0.974,4.074c0.75,0.183,12.774,2.98,30.823,2.98c8.732,0,18.883-0.671,29.834-2.596l5.849,31.019l-2.573,0.5l0.109,0.568
				l-54.963,19.513h-14.643v8.382h16.087l55.104-19.561l12.077,63.529l-77.707,13.824l0.014,0.071
				c-1.679-0.97-2.622-1.554-2.695-1.603l-2.968,4.734c0.266,0.166,2.998,1.866,7.653,4.424l-0.35,0.826
				c0.186,0.079,14,6.079,33.154,22.393l-22.86-0.35c-1.237-1.477-2.458-2.923-3.649-4.332
				c-6.325-7.498-11.786-13.974-14.207-18.013l-8.385,5.033c2.56,4.271,7.481,10.217,13.287,17.112l-4.491-0.069l-0.129,8.384
				l11.763,0.18c10.143,12.158,20.994,25.909,25.315,36.891c2.732,6.943,4.852,14.523,6.352,22.42
				c-2.028-0.721-3.617-1.598-4.856-2.514c-1.555-1.146-2.638-2.396-3.396-3.576l0.97-0.159
				c-6.761-41.048-24.861-51.808-25.627-52.244l-2.423,4.243l-2.485,4.217c0.132,0.078,11.388,7.227,18.197,32.768l-15.952-28.787
				l-8.554,4.742l19.647,35.453l0.535-0.298c0.793,2.343,2.296,6.774,4.188,12.382c-1.621-0.521-3.178-1.13-4.644-1.777
				c-0.89-2.924-1.57-5.284-1.92-6.649c-1.646-6.399-7.056-14.351-7.285-14.687l-3.458,2.365c0.051,0.076,5.22,7.674,6.685,13.363
				c0.202,0.788,0.479,1.803,0.823,2.992c-3.896-2.227-6.379-4.219-6.438-4.264l-2.649,3.244c0.32,0.262,4.555,3.668,10.784,6.678
				c2.834,9.098,7.239,21.885,10.917,28.99c2.975,5.742,5.984,16.182,8.181,23.807c0.704,2.449,1.256,4.338,1.708,5.818
				c-1.646,1.342-3.268,2.791-4.849,4.373c-18.092,18.092-21.179,41.338-21.303,42.314l9.703,1.23
				c0.027-0.209,2.867-20.98,18.515-36.633c0.094-0.092,0.194-0.182,0.291-0.275c-4.445,18.189-9.398,34.623-9.474,34.871
				l5.822,1.764l-9.17,2.08l2.783,12.264l55.168-12.521l0.415,2.084l4.111-0.816l-0.436-2.195l5.701-1.297
				c5.096,1.682,8.447,2.111,8.673,2.137l0.5-4.16c-0.013,0-0.064-0.01-0.15-0.021l24.38-5.535l2.331,10.953l8.199-1.744
				l-2.138-10.033c8.154,3.342,15.234,4.531,21.178,4.531c7.109,0,12.587-1.699,16.333-3.438c5.822-0.281,11.921-1.088,18.207-2.539
				c6.464-1.488,21.342-4.473,40.224-8.145l0.513,2.621l-83.643,16.57l1.898,9.596l83.626-16.566l0.469,2.396l-15.735,3.143
				l1.095,5.479l15.709-3.137l0.235,1.199l8.229-1.604l-0.241-1.234l45.185-9.025l2.924,15.09l5.486-1.062l-2.929-15.119
				l47.981-9.584l5.109,25.773l5.483-1.086l-5.112-25.787l46.83-9.352l7.275,36.098l4.109-0.83l-7.279-36.09l47.912-9.566
				l8.352,46.562l5.504-0.984l-8.373-46.67l12.213-2.441l83.58-1.74l-0.115-5.586l-83.828,1.746l-0.244,0.002l-12.59,2.516
				l-0.213-1.178l32.867-6.139L417.659,414.097z M476.799,358.667v15.873l-45.812,7.393l-8.74-48.534l48.064-9.257L476.799,358.667z
				 M-11.053,395.19c2.956-7.489,7.95-21.291,10.375-34.508c5.287-1.32,10.679-2.733,15.777-4.103
				c0.178,0.377,0.35,0.752,0.521,1.125c-2.613,1.562-4.963,3.433-6.747,5.67c-6.957,8.707-16.466,36.229-20.015,46.963
				c-0.672,0.227-1.345,0.463-2.02,0.719c0.336-1.865,0.643-3.688,0.915-5.451C-11.725,402.181-11.33,398.703-11.053,395.19z
				 M-11.735,363.332c2.126-0.484,4.324-1.002,6.563-1.545c-1.376,6.791-3.401,13.719-5.399,19.734
				C-10.619,375.438-11.012,369.339-11.735,363.332z M-4.224,324.651c7.503,9.938,13.131,19.444,17.456,28.08
				c-0.062,0.015-0.124,0.032-0.186,0.048c-4.789,1.268-9.073,2.159-12.911,2.746c0.382-2.932,0.597-5.787,0.597-8.49
				C0.732,338.746-1.468,331.053-4.224,324.651z M12.15,365.985c1.364-1.708,3.166-3.176,5.201-4.438
				c3.593,8.23,6.018,15.377,7.898,20.933c0.525,1.546,1,2.955,1.45,4.22c0.761,2.153,1.708,5.579,2.81,9.541
				c1.552,5.596,3.418,12.32,5.733,19.254c-3.91-2.555-7.858-4.635-11.728-5.861c-8.008-2.537-18.666-3.375-29.758-0.709
				C-2.226,397.029,6.19,373.446,12.15,365.985z M51.313,144.529l-8.132,1.463l-2.617-14.947c2.568-0.495,5.225-1.006,7.962-1.533
				L51.313,144.529z M49.15,69.159l41.397-8.484l2.09,10.999c-15.538,2.88-28.626,5.281-33.712,6.153
				c-5.12,0.879-8.138-0.613-8.966-4.43L49.15,69.159z M52.08,148.65l2.178,11.737l-28.408,5.528l-2.589-12.076L52.08,148.65z
				 M53.375,109.699c0.065-3.797-0.352-8.797-1.731-15.261c1.419,0.25,2.96,0.397,4.635,0.397c1.692,0,3.518-0.147,5.478-0.486
				c5.059-0.866,17.606-3.168,32.596-5.944l5.271,26.979c-2.716,0.524-5.41,1.043-8.081,1.56l-3.695-22.807l-4.136,0.673
				l3.714,22.931c-11.09,2.14-21.669,4.182-31.434,6.064L53.375,109.699z M100.428,119.492l2.818,14.425l-30.605,6.317l-1.267-6.575
				l-4.112,0.792l1.274,6.633l-8.993,1.854l-2.786-15.011C70.057,125.36,84.879,122.502,100.428,119.492z M404.764,135.138
				l-7.064-33.015l7.32-1.426l7.033,32.978L404.764,135.138z M419.393,136.474c1.514,4.847,2.943,11.937,1.438,14.661
				c-0.871,1.322-6.268,2.997-13.488,4.589l-1.883-16.45L419.393,136.474z M395.696,222.763l-22.279,4.312l-8.793-46.071
				l21.756-4.405L395.696,222.763z M390.487,175.769l22.523-4.559l3.982,20.868l-22.379,4.143L390.487,175.769z M131.561,384.843
				l-9.553-47.244l20.246-3.996l9.303,47.602L131.561,384.843z M152.358,385.319l4.106,21.013l-19.793,3.801l-4.281-21.182
				L152.358,385.319z M44.778,344.292l-9.194-48.359l41.378-6.693l0.457-2.461l53.562-10.869l9.664,49.463L44.778,344.292z
				 M96.047,363.014l-45.705,8.717l-3.238-15.196l-0.761-4.004l45.812-9.041L96.047,363.014z M38.217,354.669l0.66,3.476
				l7.463,35.042c-3.808-5.568-9.681-16.152-18.139-36.277C32.059,355.767,35.699,355.069,38.217,354.669z M36.108,350.757
				c0.452-0.129,0.887-0.254,1.296-0.371l0.026,0.152C37.012,350.604,36.577,350.677,36.108,350.757z M319.918,117.25l6.672,33.589
				l-22.311,4.482l-6.699-33.723L319.918,117.25z M318.618,88.819l11.539-2.293l3.756,19.467l-11.498,2.235L318.618,88.819z
				 M149.531,244.63l2.111,12.428l-15.187,3.137l-6.45-33.008l44.013-8.906l1.554-0.248l3.994,20.629L149.531,244.63z
				 M153.651,268.886l-15.364,0.695l-1.03-5.27l15.087-3.118L153.651,268.886z M112.26,136.335l31.271-6.454l2.401,12.674
				l-31.274,6.081L112.26,136.335z M112.69,182.262l-10.551,1.867l-1.66-9.856l10.272-1.949L112.69,182.262z M147.494,150.788
				l2.502,13.201l-31.102,6.315l-2.627-13.44L147.494,150.788z M214.747,188.71l-2.008-10.729l8.99-1.806l2.176,10.952
				L214.747,188.71z M224.717,191.242l1.912,9.644l-9.235,2.011l-1.883-10.064L224.717,191.242z M186.78,197.792l2.24,9.631
				l-9.518,1.503l-1.853-9.56L186.78,197.792z M176.854,195.25l-1.875-9.684l8.557-1.719l2.291,9.856L176.854,195.25z
				 M187.646,183.021l20.983-4.213l1.985,10.614l-20.65,3.568L187.646,183.021z M211.381,193.545l1.88,10.047l-20.092,3.179
				l-2.254-9.696L211.381,193.545z M174.181,181.449l-1.088-5.617l46.92-8.303l0.899,4.534L174.181,181.449z M209.025,165.216
				l-5.27-25.372l10.369-2.014l5.074,25.588L209.025,165.216z M204.898,165.948l-32.604,5.767l-1.485-7.679l32.327-6.567
				L204.898,165.948z M170.011,159.922l-2.522-13.018l8.456-1.646l2.582,12.938L170.011,159.922z M167.588,176.805l1.113,5.745
				l-45.625,9.166l-1.329-6.8L167.588,176.805z M156.266,174.553l-1.379-7.281l10.446-2.122l1.462,7.541L156.266,174.553z
				 M154.105,163.152l-2.496-13.161l10.395-2.026l2.529,13.069L154.105,163.152z M150.047,141.751l-2.41-12.72l10.288-2.125
				l2.484,12.831L150.047,141.751z M150.775,168.105l1.361,7.176l-31.19,5.523l-1.248-6.387L150.775,168.105z M121.789,228.851
				l4.249,21.742l-44.746,9.529l-4.127-22.246L121.789,228.851z M81.599,264.341l45.243-9.635l3.072,15.715l-51.389,10.432
				L81.599,264.341z M128.399,218.958l-4.518-23.13l45.617-9.16l4.48,23.135l-1.447,0.229L128.399,218.958z M180.366,242.776
				l1.552,8.021l-26.17,5.41l-1.404-8.26L180.366,242.776z M182.716,254.914l1.698,8.771l-25.672,4.974l-0.872,0.037l-1.419-8.352
				L182.716,254.914z M181.097,217.165l9.828-1.557l4.905,21.083l10.025,9.158l-18.463,3.814L181.097,217.165z M208.561,249.569
				l1.393,9.167l-20.054,3.885l-1.71-8.84L208.561,249.569z M199.616,234.471l-4.542-19.519l23.038-3.641l10.148-2.209l8.803,44.384
				l-22.996,4.452l-1.807-11.917L199.616,234.471z M280.743,189.429l-21.037,4.26l-27.615,6.008l-1.863-9.408l48.939-8.447
				L280.743,189.429z M279.847,164.503l21.141-4.245l4.791,24.107l-20.932,4.234L279.847,164.503z M229.413,186.177l-2.205-11.102
				l48.531-9.744l2.576,12.409L229.413,186.177z M233.723,207.917l21.553-4.684l3.734,20.714l-21.293,4.124L233.723,207.917z
				 M259.76,228.069l3.662,20.313l-20.873,4.043l-4.016-20.244L259.76,228.069z M263.129,223.146l-3.752-20.81l2.051-0.445
				l20.892-4.227l3.705,21.05L263.129,223.146z M286.75,222.845l3.576,20.326l-22.793,4.414l-3.662-20.312L286.75,222.845z
				 M286.431,196.832l47.364-9.587l4.082,21.351l-24.182,4.849l4.85,24.26l-24.101,4.67L286.431,196.832z M338.667,212.711
				l3.889,20.339l-19.896,3.854l-4.031-20.175L338.667,212.711z M343.557,238.552l4.197,24.242l-48.051,9.492l-4.295-24.412
				L343.557,238.552z M348.471,266.925l4.248,24.525l-47.957,9.592l-4.332-24.625L348.471,266.925z M347.674,237.755l22.676-4.395
				l9.434,49.424l-10.051,1.979l-0.279,0.057l-12.705,5.318L347.674,237.755z M346.67,232.259l-8.77-45.846l22.613-4.577
				l8.787,46.039L346.67,232.259z M336.295,178.187l-4.777-24.062l48.441-9.73l4.777,23.987L336.295,178.187z M332.19,179.018
				l-22.305,4.514l-4.79-24.1l22.312-4.48L332.19,179.018z M300.172,156.146l-21.174,4.251l-7.021-33.822l21.489-4.181
				L300.172,156.146z M274.887,161.225l-48.495,9.741l-6.782-34.203l48.251-9.385L274.887,161.225z M217.979,128.541l-2.665-13.454
				l48.406-9.539l2.524,13.602L217.979,128.541z M214.499,110.976l-2.587-13.037c18.769-3.634,35.567-6.885,48.65-9.42l2.396,12.911
				L214.499,110.976z M212.495,129.609l-10.442,2.03l-2.755-13.271l10.535-2.172L212.495,129.609z M199.642,140.646l2.643,12.722
				l-19.65,3.989l-2.573-12.903L199.642,140.646z M178.421,136.235l-2.599-13.021l19.368-3.999l2.748,13.223L178.421,136.235z
				 M175.002,119.105l-2.694-13.508c6.527-1.261,12.97-2.509,19.281-3.73l2.748,13.242L175.002,119.105z M174.306,137.034
				l-8.411,1.637l-2.498-12.892l8.318-1.718L174.306,137.034z M162.603,121.662l-2.649-13.674c2.756-0.533,5.501-1.065,8.239-1.593
				l2.704,13.553L162.603,121.662z M159.158,103.876L156.2,88.599l8.122-1.622l3.054,15.307
				C164.644,102.814,161.906,103.341,159.158,103.876z M157.129,122.792l-10.27,2.121l-2.633-13.881
				c3.417-0.661,6.833-1.32,10.242-1.981L157.129,122.792z M143.445,106.913l-2.88-15.194l10.154-2.027l2.951,15.245
				C150.267,105.594,146.857,106.253,143.445,106.913z M142.751,125.761l-31.295,6.46l-2.797-14.315
				c10.31-1.993,20.868-4.034,31.451-6.078L142.751,125.761z M109.945,168.21l-10.162,1.927l-1.641-9.745l9.899-1.926
				L109.945,168.21z M75.717,156.211l-2.284-11.859l30.614-6.32l2.385,12.207L75.717,156.211z M96.359,175.055l1.648,9.803
				l-16.227,2.871l-1.836-9.557L96.359,175.055z M79.151,174.058l-1.851-9.614l16.721-3.25l1.638,9.729L79.151,174.058z
				 M75.034,174.836l-9.245,1.753l-1.772-9.561l9.17-1.785L75.034,174.836z M75.824,178.953l1.832,9.505l-9.355,1.654l-1.749-9.399
				L75.824,178.953z M113.495,186.378l6.69,34.243l-44.549,9.014l-6.569-35.4L113.495,186.378z M139.37,275.125l19.827-0.891
				l0.206-0.016l26.074-5.045l9.238,47.697l-45.564,8.313L139.37,275.125z M190.964,268.105l47.186-9.139l9.802,49.41l-3.017-0.67
				l-44.721,8.158L190.964,268.105z M243.638,257.905l47.657-9.229l9.357,53.188l-43.172,8.633l-3.57-0.793L243.638,257.905z
				 M257.422,316.208l44.271-8.854l8.729,43.304l-46.613,8.977l-8.715-43.939L257.422,316.208z M305.797,306.535l47.98-9.599
				l9.258,43.59l-48.498,9.341L305.797,306.535z M357.809,295.75l13.279-5.56l36.75-7.244l9.506,47.128l-50.191,9.662
				L357.809,295.75z M383.893,281.972l-5.439-28.501l22.637-3.985l5.645,27.984L383.893,281.972z M377.672,249.357l-3.207-16.788
				l22.336-4.329l3.457,17.141L377.672,249.357z M384.069,143.572l17.266-3.47l1.887,16.478c-5.031,0.994-10.621,1.914-16.037,2.639
				L384.069,143.572z M400.661,135.963l-17.412,3.499l-6.615-33.244l16.949-3.297L400.661,135.963z M379.139,140.284l-48.439,9.728
				l-6.668-33.561l48.488-9.431L379.139,140.284z M335.875,94.044l-1.607-8.333l7.957-1.582l1.682,8.485L335.875,94.044z
				 M344.719,96.726l1.369,6.896l-8.061,1.567l-1.355-7.026L344.719,96.726z M350.2,102.819l-3.865-19.506l20.648-4.104
				l3.896,19.591L350.2,102.819z M317.813,84.705L310.2,45.758l48.396-8.675l7.566,38.017L317.813,84.705z M318.297,109.026
				l-11.305,2.2l-5.748-29.508l11.23-2.463L318.297,109.026z M302.877,112.024l-6.992,1.361l-6.225-29.129l7.488-1.64
				L302.877,112.024z M291.771,114.186l-21.414,4.166l-5.683-30.629c9.453-1.831,16.578-3.211,20.588-3.988L291.771,114.186z
				 M263.911,83.603l-5.09-27.418l19.695-4.028l5.87,27.479C280.368,80.413,273.28,81.788,263.911,83.603z M259.793,84.398
				c-13.092,2.533-29.908,5.792-48.699,9.428l-5.312-26.789l48.935-10.009L259.793,84.398z M206.422,98.998l2.595,13.083
				l-10.574,2.184l-2.738-13.19C199.331,100.37,202.909,99.681,206.422,98.998z M194.851,96.97l-3.208-15.449l10.884-2.173
				l3.08,15.542C202.08,95.566,198.491,96.263,194.851,96.97z M190.792,77.415l-1.457-7.014l10.972-2.245l1.403,7.081
				L190.792,77.415z M190.736,97.767c-6.299,1.218-12.734,2.463-19.249,3.722l-3.058-15.333l19.104-3.816L190.736,97.767z
				 M155.401,84.482l-1.396-7.204c11.531-2.162,19.706-3.697,20.819-3.91l10.405-2.127l1.453,6.998L155.401,84.482z M171.662,56.905
				c-0.387,0.072-2.304,0.433-5.362,1.005l-8.195-38.998l15.363-3.007l8.305,38.929L171.662,56.905z M162.181,58.682
				c-3.184,0.6-7.035,1.323-11.362,2.133l-7.551-38.996l10.727-2.101L162.181,58.682z M149.92,85.577l-10.135,2.025l-1.401-7.399
				c3.52-0.661,6.917-1.296,10.128-1.898L149.92,85.577z M139.328,107.708c-5.62,1.087-11.237,2.173-16.812,3.249l-2.94-15.048
				l16.878-3.373L139.328,107.708z M118.771,91.796l-1.495-7.653c5.74-1.071,11.476-2.144,16.989-3.174l1.41,7.449L118.771,91.796z
				 M118.399,111.753c-3.539,0.683-7.054,1.366-10.544,2.038l-2.923-14.959l10.531-2.101L118.399,111.753z M104.128,94.717
				l-1.53-7.841c3.461-0.643,6.998-1.301,10.555-1.963l1.506,7.705L104.128,94.717z M69.327,145.201l2.275,11.809l-9.119,1.775
				l-2.176-11.728L69.327,145.201z M60.851,195.923l6.567,35.374l-42.489,8.595l-6.478-34.071L60.851,195.923z M68.946,239.541
				l4.365,23.515l-3.51,18.848l-32.956,5.33c-0.974-0.003-1.949-0.019-2.926-0.047l-7.427-39.058L68.946,239.541z M27.18,296.621
				l9.436,49.625c-3.057,0.875-7.562,2.155-12.854,3.619c-5.416-15.32-13.279-31.341-24.619-43.857
				c-3.244-3.579-6.422-6.885-9.525-9.961L27.18,296.621z M25.378,370.224c-1.234-3.299-2.651-6.871-4.319-10.67
				c0.396-0.184,0.795-0.36,1.199-0.533C23.442,362.875,24.477,366.63,25.378,370.224z M20.987,355.021
				c-0.551,0.232-1.102,0.473-1.646,0.725c-0.041-0.093-0.083-0.184-0.126-0.274c0.594-0.161,1.18-0.325,1.761-0.481
				C20.979,354.998,20.981,355.009,20.987,355.021z M35.193,400.994c-0.174-1.955-1.339-13.697-4.983-29.078
				c6.102,13.271,12.687,25.428,17.955,29.848l6.212,29.168c-4.098-3.695-8.557-7.643-13.166-11.18
				C38.794,413.212,36.812,406.666,35.193,400.994z M51.213,375.833l45.651-8.707l4.62,23.188l-45.428,8.267L51.213,375.833z
				 M96.265,342.675l21.632-4.268l9.539,47.186l-21.827,3.972L96.265,342.675z M128.265,389.701l4.291,21.219l-21.854,4.193
				l-4.271-21.438L128.265,389.701z M157.267,410.447l4.316,22.102l-45.737,8.387l-4.326-21.711L157.267,410.447z M150.221,330.671
				l45.558-8.312l9.404,48.562l-45.389,8.738L150.221,330.671z M201.275,321.354l43.55-7.944l4.311,0.957l9.188,46.325
				l-47.651,9.173L201.275,321.354z M259.138,364.8l3.579,18.05l-47.477,10.596l-3.771-19.468L259.138,364.8z M263.532,386.964
				l5.25,26.469l-48.066,8.303l-4.682-24.172L263.532,386.964z M264.627,363.744l46.625-8.978l9.879,49.009l-46.846,8.674
				L264.627,363.744z M315.366,353.976l23.291-4.484l9.371,49.303l-22.775,4.223L315.366,353.976z M342.774,348.696l21.135-4.065
				l10.463,49.281l-22.223,4.117L342.774,348.696z M373.729,370.708l-5.707-26.871l50.109-9.647l8.715,48.41l-21.805,3.515
				c-0.736-2.484-1.893-6.818-2.844-12.312c-0.551-3.187-1.986-5.388-4.264-6.55c-3.67-1.873-8.043-0.164-9.23,0.371
				L373.729,370.708z M469.538,320.024l-48.076,9.259l-9.512-47.146l48.664-9.593L469.538,320.024z M450.338,217.873l9.242,49.18
				l-48.736,9.607l-9.928-49.217L450.338,217.873z M449.305,212.375l-49.496,9.589l-4.363-21.636l49.861-9.23L449.305,212.375z
				 M448.997,139.312c10.111,2.246,23.053,0.134,23.639,0.038l11.912-2.092l-5.744,12.083l-33.111,6.702l-3.586-17.485
				C443.432,138.421,445.485,138.529,448.997,139.312z M440.522,165.643l4.01,21.337l-23.414,4.333l-4-20.935L440.522,165.643z
				 M437.479,157.706l-48.639,9.845l-0.84-4.222c3.156-0.438,9.238-1.331,15.43-2.519c16.604-3.183,19.967-5.648,21.064-7.638
				c2.361-4.283,0.512-12.448-0.785-16.892l9.459,0.42L437.479,157.706z M471.725,103.088l-35.609,6.295l-3.307-16.111l20.059-4.655
				C459.803,93.959,466.346,98.974,471.725,103.088z M448.579,85.308l-16.543,3.84l-3.223-19.189
				C435.182,74.946,441.981,80.217,448.579,85.308z M424.979,96.814l7.318,35.655l-10-0.446l-0.137-0.379l-6,1.205l-7.025-32.953
				L424.979,96.814z M400.206,46.74c2.74,2.617,9.826,8.398,18.812,15.514l4.422,26.324l-48.443,9.42l-12.273-61.657l12.113-2.173
				l14.496-4.556C390.917,34.377,394.047,40.861,400.206,46.74z M385.264,13.316l-14.438,4.539l-11.377,2.038l-1.875-9.41
				l41.295-7.295L385.264,13.316z M404.905-16.754l3.104,13.979l-0.314,0.153l-50.938,8.995L354.233-6.33L404.905-16.754z
				 M353.448,11.213l1.877,9.423l-48.5,8.696l-2.052-9.521L353.448,11.213z M306.079,46.517l5.596,28.621l-22.889,5.021
				l-6.166-28.843L306.079,46.517z M302.702,30.096l-23.312,4.771l-4.415-24.612l22.498-4.439L302.702,30.096z M294.538-7.805
				l2.053,9.525l-22.356,4.405l-1.726-9.614L294.538-7.805z M275.284,35.708l-19.709,4.031l-5.158-24.638l20.446-4.037
				L275.284,35.708z M268.395-2.682l1.727,9.62l-20.563,4.055l-2.009-9.596L268.395-2.682z M243.434,2.204l8.035,38.375
				l-22.319,4.563l-8.03-38.568L243.434,2.204z M217.004,7.384l8.041,38.6l-22.522,4.607l-7.709-38.867L217.004,7.384z
				 M197.045,51.712l-11.164,2.283l-8.298-38.896l11.747-2.3L197.045,51.712z M182.158-23.356l6.354,32.044l-20.882,4.09
				l-6.833-36.135L182.158-23.356L182.158-23.356z M156.533-23.356l6.984,36.938l-6.272,1.231l-8.019-38.167L156.533-23.356
				L156.533-23.356z M134.518-23.356h10.422l8.192,38.974l-10.663,2.084L134.518-23.356z M103.916,29.526l1.875,8.938l4.104-0.863
				l-1.867-8.883l29.753-5.825l7.542,38.95c-14.385,2.691-32.476,6.072-48.565,9.06L89.432,32.36L103.916,29.526z M85.32,33.167
				l2.057,10.824l-16.406,3.345L68.83,36.397L85.32,33.167z M88.16,48.111l1.605,8.447l-41.396,8.481l-1.619-8.492L88.16,48.111z
				 M66.864,48.173l-20.896,4.26l-2.122-11.144l20.871-4.088L66.864,48.173z M59.911,24.589l3.549,8.589L43.063,37.17l-1.939-10.166
				L59.911,24.589z M56.022,12.834l2.25,7.737l-17.985,2.313l-1.837-8.237L56.022,12.834z M-12.157,52.255l39.549-7.745l4.55,23.896
				l-39.528,8.098L-12.157,52.255z M-6.809,80.623l39.537-8.097l0.745,3.918c0.081,0.431,0.293,1.423,0.729,2.724
				c0.184,7.301,1.818,22.641,11.526,35.266l2.036,10.958c-20.424,3.935-36.398,7.003-44.521,8.544L-6.809,80.623z M4.019,138.055
				c6.443-1.223,17.812-3.404,32.428-6.217l2.608,14.898l-32.304,5.818L4.019,138.055z M7.53,156.673l11.604-2.09l2.6,12.131
				l-11.878,2.309L7.53,156.673z M12.965,176.958l42.823-8.329l4.299,23.169l-42.419,9.903L12.965,176.958z M17.986,248.25
				l7.295,38.385c-31.746-3.117-62.773-17.502-78.359-25.74L17.986,248.25z M-32.194,276.949c1.622,0.674,3.281,1.348,4.983,2.016
				c7.938,3.115,17.305,6.316,27.43,8.859l-19.636-0.298C-23.962,283.464-28.249,279.958-32.194,276.949z M-16.502,295.953
				c4.047,3.857,8.242,8.131,12.54,12.871c10.759,11.873,18.313,27.313,23.576,42.182c-0.739,0.201-1.49,0.408-2.25,0.613
				c-4.704-9.504-10.953-20.076-19.51-31.164c-9.753-12.629-20.443-20.199-29.344-24.73L-16.502,295.953z M-41.447,296.011
				c6.271,2.285,14.766,6.434,23.461,13.832c1.541,1.867,14.526,18.152,14.526,37.191c0,2.842-0.264,5.898-0.715,9.047
				c-3.2,0.334-6.035,0.428-8.546,0.338c-1.621-9.787-4.136-19.205-7.492-27.742C-24.205,318.537-32.662,306.905-41.447,296.011z
				 M-15.271,422.681c-0.199,0.572-0.401,1.17-0.616,1.783c0.124-0.549,0.245-1.1,0.367-1.648
				C-15.438,422.771-15.354,422.728-15.271,422.681z M-21.403,400.318c-1.949-10.99-5.271-23.472-8.261-33.668
				c2.226-0.216,5.065-0.665,8.323-1.283C-20.013,376.96-19.996,388.908-21.403,400.318z M-30.435,355.441
				c2.303,1.729,5.065,3.031,8.276,3.902c0.097,0.617,0.191,1.242,0.283,1.865c-3.668,0.709-6.769,1.185-9.009,1.34
				c-1.358-4.5-2.589-8.36-3.508-11.191C-33.439,352.736-32.164,354.143-30.435,355.441z M-45.729,364.322
				c1.487,0.534,3.041,1.014,4.641,1.408c0.234,0.689,0.471,1.396,0.71,2.107c1.1,5.617,1.861,11.324,1.804,16.209
				C-41.072,378.158-43.677,370.664-45.729,364.322z M-41.775,345.677l0.985-0.543c0.314,1.576,0.618,3.189,0.897,4.883l0.611-0.098
				c0.831,2.504,2.283,6.98,3.979,12.558c-0.662-0.062-1.318-0.153-1.974-0.259C-38.745,355.718-40.492,349.755-41.775,345.677z
				 M-36.352,366.583c0.774,0.084,1.549,0.151,2.332,0.188c2.6,8.816,5.51,19.499,7.54,29.367
				c-3.21-9.674-6.785-20.321-9.832-29.359C-36.325,366.714-36.336,366.648-36.352,366.583z M-27.693,413.804
				c-2.008-6.967-4.679-16.23-7.486-22.486c0.417-1.753,0.653-3.708,0.739-5.806c3.889,11.62,7.764,23.315,10.241,31.063
				c-0.753,0.479-1.503,0.984-2.248,1.508C-26.854,416.72-27.282,415.228-27.693,413.804z M-27.168,467.488
				c0.358-1.207,0.853-2.904,1.458-4.998c1.6-3.551,3.477-8.246,5.391-13.301l5.663,15.461L-27.168,467.488z M-10.536,463.712
				l-7.532-20.562c1.2-3.271,2.378-6.551,3.472-9.648c7.253,12.324,16.138,20.441,23.939,25.703L-10.536,463.712z M-12.746,428.218
				c1.072-3.086,2.003-5.809,2.718-7.906c5.793-2.229,11.58-3.199,16.931-3.27l8.092,40.74
				C5.717,452.263-4.805,443.15-12.746,428.218z M19.109,456.984l-7.906-39.805c3.416,0.27,6.581,0.893,9.358,1.773
				c6.788,2.15,14.562,8.121,21.747,14.342c2.95,6.113,6.379,11.709,10.394,16.064L19.109,456.984z M57.524,448.265
				c-1.791-1.682-3.474-3.664-5.059-5.881c1.864,1.684,3.658,3.271,5.352,4.699l0.226,1.064L57.524,448.265z M56.933,402.685
				l45.374-8.26l4.279,21.479l-45,8.633L56.933,402.685z M69.268,455.15l1.208-0.223c5.109,2.182,11.139,3.908,17.872,4.918
				C82.948,459.611,76.571,458.312,69.268,455.15z M78.838,447.714c-5.157-1.689-9.429-3.896-12.569-6.359
				c-0.428-0.334-0.874-0.695-1.328-1.072l-2.482-11.646l44.947-8.621l4.318,21.672L78.838,447.714z M122.578,448.652
				c-10.55,2.43-20.422,2.9-29.065,2.053l69.144-12.674l0.467,2.398C144.174,444.117,129.194,447.121,122.578,448.652z
				 M160.599,383.774l45.379-8.737l2.894,14.935l-45.386,8.581L160.599,383.774z M164.288,402.664l45.383-8.576l5.544,28.629
				l-45.384,8.318L164.288,402.664z M170.902,436.523l45.377-8.318l0.378,1.969c-15.743,2.982-31.339,5.965-45.302,8.662
				L170.902,436.523z M173.23,448.435c13.94-2.693,29.537-5.672,45.288-8.658l0.445,2.289l-45.23,8.957L173.23,448.435z
				 M176.078,463.003l-0.467-2.381l45.212-8.955l0.446,2.311L176.078,463.003z M222.149,429.128l-0.37-1.902l48.093-8.311
				l0.232,1.188C255.319,422.873,238.754,425.99,222.149,429.128z M224.443,440.978l-0.431-2.238
				c16.617-3.146,33.205-6.268,47.996-9.039l0.354,1.785L224.443,440.978z M226.749,452.88l-0.443-2.299l47.96-9.504l0.44,2.227
				L226.749,452.88z M275.599,419.072l-0.228-1.141l46.865-8.682l0.221,1.086C317.987,411.167,299.616,414.58,275.599,419.072z
				 M277.502,428.669c24.479-4.584,43.051-8.031,46.889-8.748l0.291,1.455l-22.424,4.189l-24.412,4.836L277.502,428.669z
				 M280.189,442.21l-0.44-2.215l24.357-4.828l22.512-4.203l0.381,1.9L280.189,442.21z M326.569,409.535l-0.207-1.047l48.654-9.012
				l0.086,0.486L326.569,409.535z M328.502,419.121l48.328-9.533l0.354,1.986l-48.381,9.033L328.502,419.121z M331.108,432.042
				l-0.373-1.848l48.176-8.996l0.227,1.25L331.108,432.042z M378.446,392.912l-3.846-18.105l15.188-3.131l0.26-0.055l0.232-0.111
				c0.975-0.471,3.898-1.477,5.76-0.52c1.029,0.533,1.713,1.719,2.027,3.528c0.959,5.517,2.096,9.866,2.867,12.505L378.446,392.912z
				 M380.458,398.158l23.924-6.275l63.133-10.184l-33.576,7.537l-34.457,5.916l-18.896,3.729L380.458,398.158z"/>
		</g>
	</g>
</g>
<radialGradient id="SVGID_3_" cx="280.0483" cy="57.9517" r="212.085" gradientTransform="matrix(1 0 0 -1 -66 279.0029)" gradientUnits="userSpaceOnUse">
	<stop  offset="0" style="stop-color:#EDEFF0;stop-opacity:0"/>
	<stop  offset="0.8675" style="stop-color:#EDEFF0;stop-opacity:0.8675"/>
	<stop  offset="1" style="stop-color:#EDEFF0"/>
</radialGradient>
<circle fill="url(#SVGID_3_)" cx="214.049" cy="221.052" r="212.085"/>
<g>
	<path opacity="0.1" enable-background="new    " d="M151.493,193.179c14,0,25.35,3.845,25.35,8.591c0,4.744-11.35,8.59-25.35,8.59
		c-13.998,0-25.348-3.846-25.348-8.59C126.145,197.025,137.495,193.179,151.493,193.179z"/>
	<g>
		<path fill="#BC1348" d="M180.621,139.32c0-15.947-12.927-28.668-28.871-28.668c-15.941,0-28.873,12.582-28.873,28.527
			c0,7.499,2.882,14.312,7.568,19.091h-0.047c0,0,19.804,20.507,19.804,43.88l-0.022,0.329h3.385
			c0-22.701,19.603-44.209,19.603-44.209h-0.045C177.771,153.488,180.621,146.781,180.621,139.32z M151.753,145.4
			c-3.798,0-6.881-3.078-6.881-6.874s3.083-6.874,6.881-6.874c3.793,0,6.871,3.078,6.871,6.874S155.547,145.4,151.753,145.4z"/>
		<path fill="none" d="M132.902,154.897c-0.014,0-0.02,0-0.02,0H132.902C132.902,154.9,132.902,154.897,132.902,154.897"/>
		<path fill="#EC1B52" d="M175.812,139.743c0-13.287-10.771-24.071-24.058-24.071c-13.29,0-24.062,10.89-24.062,24.179
			c0,5.642,1.958,10.933,5.211,15.028c0.029,0,0.093,0.022,0.182,0.128c0.081,0.098,0.165-0.226,0.248-0.125
			c2.857,3.434,18.417,22.498,18.417,30.86h0.438c0-8.363,15.607-27.987,18.092-31.035c0.025-0.035,0.053,0.125,0.081,0.092
			c0.163-0.201,0.26-0.127,0.26-0.127h-0.025C173.854,149.901,175.812,145.388,175.812,139.743z M151.753,145.4
			c-3.798,0-6.881-3.078-6.881-6.874s3.083-6.874,6.881-6.874c3.793,0,6.871,3.078,6.871,6.874S155.547,145.4,151.753,145.4z"/>
		<path fill="#BC1348" d="M151.499,127.528c-6.078,0-11.001,4.924-11.001,11.001c0,6.072,4.923,10.997,11.001,10.997
			c6.071,0,10.998-4.925,10.998-10.997C162.496,132.45,157.568,127.528,151.499,127.528z M151.499,145.4
			c-3.799,0-6.876-3.078-6.876-6.874s3.077-6.874,6.876-6.874c3.792,0,6.87,3.078,6.87,6.874
			C158.372,142.322,155.291,145.4,151.499,145.4z"/>
	</g>
</g>
<path fill="#EC1B52" d="M340.846,266.27c-0.312-1.627-1.881-2.7-3.511-2.382l-37.031,7.098l-5.337-29.017l-104.723,20.679
	l-10.666-52.328l-24.254,4.737c-1.626,0.317-2.687,1.893-2.369,3.52c0.318,1.626,1.896,2.688,3.52,2.369l18.413-3.596l10.667,52.339
	l104.61-20.655l5.329,28.983l42.969-8.236C340.092,269.469,341.158,267.897,340.846,266.27z"/>
</svg>
