<?xml version="1.0" encoding="utf-8"?>
<!-- Generator: Adobe Illustrator 15.0.0, SVG Export Plug-In . SVG Version: 6.00 Build 0)  -->
<!DOCTYPE svg PUBLIC "-//W3C//DTD SVG 1.1//EN" "http://www.w3.org/Graphics/SVG/1.1/DTD/svg11.dtd">
<svg version="1.1" id="Layer_1" xmlns="http://www.w3.org/2000/svg" xmlns:xlink="http://www.w3.org/1999/xlink" x="0px" y="0px"
	 width="600px" height="195.51px" viewBox="0 0 600 195.51" enable-background="new 0 0 600 195.51" xml:space="preserve">
<g>
	<path fill="#FFFFFF" d="M76.891,192.365v-10.539h-0.382c-2.831,4.563-6.832,7.982-12.004,10.258
		c-5.187,2.281-10.726,3.419-16.635,3.419c-13.804,0-25.233-4.959-34.286-14.875C4.529,170.713,0,158.783,0,144.856
		c0-13.911,4.462-25.802,13.403-35.664c8.925-9.856,20.295-14.788,34.085-14.788c12.579,0,22.376,4.129,29.402,12.386V38.96h33.63
		v153.405H76.891z M72.172,129.802c-3.873-4.128-9.152-6.189-15.797-6.189c-6.665,0-11.924,2.061-15.792,6.189
		c-3.894,4.128-5.834,9.214-5.834,15.249c0,6.163,1.94,11.25,5.834,15.25c3.868,4.002,9.127,6.008,15.792,6.008
		c6.645,0,11.924-2.005,15.797-6.008c3.875-4,5.829-9.087,5.829-15.25C78,139.016,76.047,133.93,72.172,129.802"/>
	<path fill="#FFFFFF" d="M141.114,108.081c11.028-9.114,24.544-13.677,40.562-13.677c16.021,0,29.543,4.563,40.57,13.677
		c11.035,9.127,16.535,21.439,16.535,36.969c0,15.518-5.5,27.816-16.535,36.871c-11.026,9.061-24.549,13.583-40.57,13.583
		c-15.891,0-29.388-4.522-40.468-13.583c-11.094-9.054-16.648-21.353-16.648-36.871C124.56,129.521,130.08,117.208,141.114,108.081
		 M197.482,129.802c-3.882-4.128-9.154-6.189-15.807-6.189c-6.65,0-11.917,2.061-15.79,6.189c-3.896,4.128-5.829,9.214-5.829,15.249
		c0,6.163,1.933,11.25,5.829,15.25c3.873,4.002,9.14,6.008,15.79,6.008c6.652,0,11.924-2.005,15.807-6.008
		c3.879-4,5.821-9.087,5.821-15.25C203.303,139.016,201.362,133.93,197.482,129.802"/>
	<path fill="#FFFFFF" d="M287.581,97.549v12.198h0.367c6.906-10.224,17.009-15.343,30.312-15.343
		c12.205,0,21.186,3.48,26.986,10.446c5.788,6.958,8.678,16.608,8.678,28.927v58.582h-33.629v-46.203v-2.865v-3.324
		c0-0.555-0.027-1.6-0.094-3.146c-0.067-1.538-0.188-2.683-0.368-3.419c-0.182-0.735-0.462-1.781-0.837-3.139
		c-0.368-1.357-0.789-2.334-1.298-2.964c-0.482-0.608-1.138-1.378-1.927-2.308c-0.812-0.917-1.688-1.593-2.678-2.035
		c-0.997-0.421-2.168-0.83-3.525-1.199c-1.345-0.374-2.832-0.555-4.425-0.555c-11.707,0-17.562,7.333-17.562,21.994v49.161h-33.638
		V97.549H287.581z"/>
	<path fill="#FFFFFF" d="M447.442,192.365v-10.539h-0.36c-2.837,4.563-6.839,7.982-12.019,10.258
		c-5.166,2.281-10.72,3.419-16.629,3.419c-13.803,0-25.232-4.959-34.292-14.875c-9.047-9.916-13.582-21.846-13.582-35.772
		c0-13.911,4.462-25.802,13.4-35.664c8.936-9.856,20.303-14.788,34.093-14.788c12.567,0,22.369,4.129,29.389,12.386V38.96h33.658
		v153.405H447.442z M442.738,129.802c-3.874-4.128-9.147-6.189-15.798-6.189s-11.924,2.061-15.805,6.189s-5.821,9.214-5.821,15.249
		c0,6.163,1.94,11.25,5.821,15.25c3.881,4.002,9.154,6.008,15.805,6.008s11.924-2.005,15.798-6.008c3.875-4,5.829-9.087,5.829-15.25
		C448.567,139.016,446.613,133.93,442.738,129.802"/>
	<path fill="#FFFFFF" d="M599.563,147.079v3.514h-70.787c0,14.044,7.02,21.07,21.064,21.07c7.273,0,12.626-2.892,16.079-8.686
		h32.346c-2.584,10.598-8.377,18.667-17.385,24.209c-8.984,5.546-19.271,8.323-30.848,8.323c-16.273,0-29.487-4.441-39.651-13.314
		c-10.158-8.867-15.243-21.258-15.243-37.145c0-15.65,4.832-28.003,14.507-37.056c9.662-9.06,22.328-13.59,37.98-13.59
		c16.379,0,29.133,4.717,38.254,14.139C595.015,117.972,599.563,130.819,599.563,147.079 M529.332,131.186h38.982
		c-0.855-4.436-3.078-8.036-6.645-10.812c-3.579-2.777-7.701-4.155-12.385-4.155c-5.052,0-9.395,1.285-13.028,3.875
		C532.609,122.682,530.309,126.375,529.332,131.186"/>
	<path fill="#FFFFFF" d="M211.666,34.958c-3.759-0.268-8.062-3.318-9.555-6.778L191.017,2.466c-1.472-3.46-3.252-3.253-3.94,0.454
		l-12.895,70.166c-0.682,3.707,1.418,5.206,4.685,3.312l61.372-35.497c3.266-1.894,2.858-3.654-0.904-3.929L211.666,34.958z"/>
</g>
</svg>
