<?xml version="1.0" encoding="utf-8"?>
<!-- Generator: Adobe Illustrator 15.0.0, SVG Export Plug-In . SVG Version: 6.00 Build 0)  -->
<!DOCTYPE svg PUBLIC "-//W3C//DTD SVG 1.1//EN" "http://www.w3.org/Graphics/SVG/1.1/DTD/svg11.dtd">
<svg version="1.1" id="Layer_1" xmlns="http://www.w3.org/2000/svg" xmlns:xlink="http://www.w3.org/1999/xlink" x="0px" y="0px"
	 width="382px" height="805px" viewBox="0 0 382 805" enable-background="new 0 0 382 805" xml:space="preserve">
<g>
	<rect y="116" fill="#292929" width="8" height="35"/>
	<rect x="259" fill="#292929" width="60" height="8"/>
	<rect x="2" y="191" fill="#292929" width="5" height="27"/>
	<rect x="2" y="256" fill="#292929" width="5" height="28"/>
	<path fill="#1F1F1F" d="M365.178,21.054C349.938,5.812,331.358,5.342,330.016,5.337L330.029,5H57.745l-0.046,0.337
		c-0.949,0-20.073,0.241-35.49,15.658C6.393,36.812,5,58.253,5,58.253v2.836v687.693v3.054c0,0,1.393,21.326,17.209,37.146
		c15.271,15.271,34.09,15.727,35.365,15.727L57.745,805h272.284l0.012-0.293c0.266,0.006,19.426,0.076,35.137-15.635
		C380.996,773.254,382,751.836,382,751.836v-3.054V61.089v-2.836C382,58.253,380.996,36.872,365.178,21.054z"/>
	<path fill="#292929" d="M375,743.544V64.58v-7.564c0,0-0.23-15.108-14.051-28.925C347.133,14.271,326.539,14,326.539,14H61.236
		c0,0-19.48,0.271-33.299,14.09C14.119,41.907,15,57.015,15,57.015v7.564v678.964v7.13c0,0-1.5,15.454,12.318,29.271
		C41.139,793.763,60,794.38,60,794.38V795h266v-0.62c0,0,20.863-0.617,34.682-14.436C374.498,766.128,375,750.674,375,750.674
		V743.544z"/>
	<path fill="#1F1F1F" d="M230.542,742.237c0,20.241-16.411,36.65-36.653,36.65c-20.242,0-36.654-16.409-36.654-36.65
		c0-20.245,16.412-36.655,36.654-36.655C214.131,705.582,230.542,721.992,230.542,742.237z"/>
	<rect x="33" y="119" fill="#1A1A1A" width="321" height="572"/>
	<g>
		<circle fill="#1F1F1F" cx="194.105" cy="43.417" r="7.2"/>
		<g>
			<circle fill="#1F1F1F" cx="154.834" cy="74.834" r="7.199"/>
			<path fill="#1F1F1F" d="M233.378,67h-52.362c-3.977,0-7.6,3.541-7.6,7.517c0,3.902,3.584,7.377,6.584,7.495V81h53.378
				c3.976,0,7.2-3.023,7.2-7C240.578,70.022,237.354,67,233.378,67z"/>
		</g>
	</g>
	<path opacity="0.06" fill="#FFFFFF" enable-background="new    " d="M375,569.004V64.58v-7.564c0,0-0.23-15.108-14.051-28.925
		C347.133,14.271,326.539,14,326.539,14H185.161L375,569.004z"/>
</g>
</svg>
