<?xml version="1.0" encoding="utf-8"?>
<!-- Generator: Adobe Illustrator 15.0.0, SVG Export Plug-In . SVG Version: 6.00 Build 0)  -->
<!DOCTYPE svg PUBLIC "-//W3C//DTD SVG 1.1//EN" "http://www.w3.org/Graphics/SVG/1.1/DTD/svg11.dtd">
<svg version="1.1" id="Layer_1" xmlns="http://www.w3.org/2000/svg" xmlns:xlink="http://www.w3.org/1999/xlink" x="0px" y="0px"
	 width="56.786px" height="99.599px" viewBox="0 0 56.786 99.599" enable-background="new 0 0 56.786 99.599" xml:space="preserve">
<path fill="#349CA5" d="M28.393,0C12.712,0,0,12.842,0,28.522c0,3.971,0.817,7.514,2.29,11.311l23.538,58.213
	c0.492,0.919,1.449,1.552,2.565,1.552s2.074-0.633,2.565-1.552l23.491-58.213c1.501-3.797,2.337-7.378,2.337-11.389
	C56.786,12.764,44.074,0,28.393,0z M28.393,38.438c-7.093,0-12.842-5.75-12.842-12.842S21.3,12.754,28.393,12.754
	s12.842,5.75,12.842,12.842S35.486,38.438,28.393,38.438z"/>
</svg>
