<?xml version="1.0" encoding="utf-8"?>
<!-- Generator: Adobe Illustrator 15.0.0, SVG Export Plug-In . SVG Version: 6.00 Build 0)  -->
<!DOCTYPE svg PUBLIC "-//W3C//DTD SVG 1.1//EN" "http://www.w3.org/Graphics/SVG/1.1/DTD/svg11.dtd">
<svg version="1.1" id="Layer_1" xmlns="http://www.w3.org/2000/svg" xmlns:xlink="http://www.w3.org/1999/xlink" x="0px" y="0px"
	 width="445px" height="338px" viewBox="0 0 445 338" enable-background="new 0 0 445 338" xml:space="preserve">
<path opacity="0.06" d="M278,5H12c-3.86,0-7,3.14-7,7v28c0,3.86,3.14,7,7,7h266c3.859,0,7-3.14,7-7V12C285,8.14,281.859,5,278,5z"/>
<g>
	<path fill="#FFFFFF" d="M273,2H7C4.243,2,2,4.243,2,7v28c0,2.757,2.243,5,5,5h266c2.757,0,5-2.243,5-5V7C278,4.243,275.757,2,273,2
		z"/>
	<path fill="#CCCCCC" d="M273,0H7C3.14,0,0,3.14,0,7v28c0,3.86,3.14,7,7,7h266c3.859,0,7-3.14,7-7V7C280,3.14,276.859,0,273,0z
		 M278,35c0,2.757-2.243,5-5,5H7c-2.757,0-5-2.243-5-5V7c0-2.757,2.243-5,5-5h266c2.757,0,5,2.243,5,5V35z"/>
</g>
<g>
	<path fill="#B3B3B3" d="M25.516,23.926c0,1.005-0.365,1.789-1.094,2.352c-0.729,0.562-1.719,0.844-2.969,0.844
		c-1.354,0-2.396-0.174-3.125-0.523v-1.281c0.469,0.198,0.979,0.354,1.531,0.469c0.552,0.115,1.099,0.172,1.641,0.172
		c0.885,0,1.552-0.168,2-0.504c0.448-0.336,0.672-0.803,0.672-1.402c0-0.396-0.08-0.72-0.238-0.973
		c-0.159-0.252-0.425-0.485-0.797-0.699c-0.373-0.213-0.939-0.456-1.699-0.727c-1.062-0.38-1.822-0.831-2.277-1.352
		c-0.456-0.521-0.684-1.2-0.684-2.039c0-0.88,0.331-1.581,0.992-2.102c0.661-0.521,1.536-0.781,2.625-0.781
		c1.135,0,2.18,0.208,3.133,0.625l-0.414,1.156c-0.943-0.396-1.859-0.594-2.75-0.594c-0.703,0-1.253,0.151-1.648,0.453
		c-0.396,0.302-0.594,0.722-0.594,1.258c0,0.396,0.073,0.72,0.219,0.973c0.146,0.253,0.392,0.484,0.738,0.695
		c0.346,0.211,0.876,0.444,1.59,0.699c1.198,0.427,2.022,0.886,2.473,1.375C25.29,22.509,25.516,23.145,25.516,23.926z"/>
	<path fill="#B3B3B3" d="M31.273,27.121c-1.266,0-2.265-0.385-2.996-1.156c-0.732-0.771-1.098-1.841-1.098-3.211
		c0-1.38,0.34-2.477,1.02-3.289s1.592-1.219,2.738-1.219c1.073,0,1.922,0.353,2.547,1.059c0.625,0.706,0.938,1.637,0.938,2.793v0.82
		h-5.898c0.026,1.005,0.28,1.769,0.762,2.289c0.481,0.521,1.16,0.781,2.035,0.781c0.922,0,1.833-0.192,2.734-0.578v1.156
		c-0.458,0.198-0.892,0.34-1.301,0.426C32.345,27.078,31.852,27.121,31.273,27.121z M30.922,19.332
		c-0.688,0-1.236,0.224-1.645,0.672c-0.409,0.448-0.65,1.068-0.723,1.859h4.477c0-0.817-0.183-1.444-0.547-1.879
		C32.12,19.55,31.599,19.332,30.922,19.332z"/>
	<path fill="#B3B3B3" d="M37.93,26.965h-1.297V14.809h1.297V26.965z"/>
	<path fill="#B3B3B3" d="M44.297,27.121c-1.266,0-2.265-0.385-2.996-1.156c-0.732-0.771-1.098-1.841-1.098-3.211
		c0-1.38,0.34-2.477,1.02-3.289s1.592-1.219,2.738-1.219c1.073,0,1.922,0.353,2.547,1.059c0.625,0.706,0.938,1.637,0.938,2.793v0.82
		h-5.898c0.026,1.005,0.28,1.769,0.762,2.289c0.481,0.521,1.16,0.781,2.035,0.781c0.922,0,1.833-0.192,2.734-0.578v1.156
		c-0.458,0.198-0.892,0.34-1.301,0.426C45.368,27.078,44.875,27.121,44.297,27.121z M43.945,19.332
		c-0.688,0-1.236,0.224-1.645,0.672c-0.409,0.448-0.65,1.068-0.723,1.859h4.477c0-0.817-0.183-1.444-0.547-1.879
		C45.143,19.55,44.622,19.332,43.945,19.332z"/>
	<path fill="#B3B3B3" d="M53.078,27.121c-1.24,0-2.199-0.381-2.879-1.145c-0.68-0.763-1.02-1.842-1.02-3.238
		c0-1.432,0.345-2.539,1.035-3.32c0.69-0.781,1.673-1.172,2.949-1.172c0.411,0,0.823,0.044,1.234,0.133
		c0.411,0.089,0.734,0.193,0.969,0.312l-0.398,1.102c-0.287-0.114-0.599-0.209-0.938-0.285c-0.339-0.075-0.638-0.113-0.898-0.113
		c-1.74,0-2.609,1.109-2.609,3.328c0,1.052,0.212,1.859,0.637,2.422c0.424,0.562,1.053,0.844,1.887,0.844
		c0.713,0,1.445-0.153,2.195-0.461v1.148C54.669,26.973,53.948,27.121,53.078,27.121z"/>
	<path fill="#B3B3B3" d="M60.039,26.051c0.229,0,0.45-0.017,0.664-0.051c0.213-0.034,0.383-0.069,0.508-0.105v0.992
		c-0.141,0.068-0.348,0.124-0.621,0.168c-0.273,0.044-0.52,0.066-0.738,0.066c-1.656,0-2.484-0.872-2.484-2.617V19.41h-1.227v-0.625
		l1.227-0.539l0.547-1.828h0.75v1.984h2.484v1.008h-2.484v5.039c0,0.516,0.122,0.912,0.367,1.188
		C59.276,25.913,59.612,26.051,60.039,26.051z"/>
	<path fill="#B3B3B3" d="M72.344,26.965l-0.258-1.219h-0.062c-0.427,0.537-0.853,0.9-1.277,1.09c-0.425,0.19-0.955,0.285-1.59,0.285
		c-0.849,0-1.515-0.219-1.996-0.656c-0.482-0.438-0.723-1.06-0.723-1.867c0-1.729,1.383-2.635,4.148-2.719l1.453-0.047v-0.531
		c0-0.672-0.145-1.168-0.434-1.488s-0.751-0.48-1.387-0.48c-0.714,0-1.521,0.219-2.422,0.656l-0.398-0.992
		c0.422-0.229,0.884-0.409,1.387-0.539c0.502-0.13,1.006-0.195,1.512-0.195c1.021,0,1.777,0.227,2.27,0.68s0.738,1.18,0.738,2.18
		v5.844H72.344z M69.414,26.051c0.807,0,1.441-0.221,1.902-0.664c0.461-0.442,0.691-1.062,0.691-1.859v-0.773l-1.297,0.055
		c-1.031,0.037-1.775,0.197-2.23,0.48c-0.456,0.284-0.684,0.726-0.684,1.324c0,0.469,0.142,0.826,0.426,1.07
		C68.506,25.929,68.903,26.051,69.414,26.051z"/>
	<path fill="#B3B3B3" d="M87.57,18.871c0,1.156-0.395,2.046-1.184,2.668c-0.789,0.623-1.918,0.934-3.387,0.934h-1.344v4.492h-1.328
		V15.543h2.961C86.143,15.543,87.57,16.652,87.57,18.871z M81.656,21.332h1.195c1.177,0,2.028-0.19,2.555-0.57
		c0.526-0.38,0.789-0.989,0.789-1.828c0-0.755-0.248-1.317-0.742-1.688c-0.495-0.37-1.266-0.555-2.312-0.555h-1.484V21.332z"/>
	<path fill="#B3B3B3" d="M93.672,18.246c0.38,0,0.721,0.031,1.023,0.094l-0.18,1.203c-0.354-0.078-0.667-0.117-0.938-0.117
		c-0.693,0-1.285,0.281-1.777,0.844s-0.738,1.263-0.738,2.102v4.594h-1.297v-8.562h1.07l0.148,1.586h0.062
		c0.317-0.557,0.7-0.987,1.148-1.289C92.643,18.397,93.135,18.246,93.672,18.246z"/>
	<path fill="#B3B3B3" d="M103.688,22.676c0,1.396-0.352,2.486-1.055,3.27c-0.703,0.784-1.675,1.176-2.914,1.176
		c-0.766,0-1.445-0.18-2.039-0.539s-1.052-0.875-1.375-1.547c-0.323-0.672-0.484-1.458-0.484-2.359c0-1.396,0.349-2.483,1.047-3.262
		c0.698-0.778,1.667-1.168,2.906-1.168c1.198,0,2.149,0.398,2.855,1.195C103.334,20.238,103.688,21.316,103.688,22.676z
		 M97.164,22.676c0,1.094,0.219,1.927,0.656,2.5c0.438,0.573,1.081,0.859,1.93,0.859c0.849,0,1.493-0.285,1.934-0.855
		c0.44-0.57,0.66-1.405,0.66-2.504c0-1.088-0.22-1.915-0.66-2.48c-0.44-0.565-1.09-0.848-1.949-0.848
		c-0.849,0-1.49,0.279-1.922,0.836C97.38,20.741,97.164,21.572,97.164,22.676z"/>
	<path fill="#B3B3B3" d="M111.789,25.816h-0.07c-0.599,0.87-1.495,1.305-2.688,1.305c-1.12,0-1.991-0.383-2.613-1.148
		c-0.623-0.766-0.934-1.854-0.934-3.266c0-1.411,0.312-2.508,0.938-3.289s1.495-1.172,2.609-1.172c1.161,0,2.052,0.422,2.672,1.266
		h0.102l-0.055-0.617l-0.031-0.602v-3.484h1.297v12.156h-1.055L111.789,25.816z M109.195,26.035c0.885,0,1.527-0.241,1.926-0.723
		c0.398-0.481,0.598-1.259,0.598-2.332v-0.273c0-1.213-0.202-2.079-0.605-2.598c-0.404-0.518-1.048-0.777-1.934-0.777
		c-0.761,0-1.343,0.296-1.746,0.887c-0.404,0.591-0.605,1.426-0.605,2.504c0,1.094,0.2,1.919,0.602,2.477
		C107.831,25.757,108.419,26.035,109.195,26.035z"/>
	<path fill="#B3B3B3" d="M116.984,18.402v5.555c0,0.698,0.159,1.219,0.477,1.562c0.317,0.344,0.815,0.516,1.492,0.516
		c0.896,0,1.551-0.245,1.965-0.734c0.414-0.489,0.621-1.289,0.621-2.398v-4.5h1.297v8.562h-1.07l-0.188-1.148h-0.07
		c-0.266,0.422-0.634,0.745-1.105,0.969c-0.472,0.224-1.009,0.336-1.613,0.336c-1.042,0-1.822-0.247-2.34-0.742
		c-0.519-0.495-0.777-1.286-0.777-2.375v-5.602H116.984z"/>
	<path fill="#B3B3B3" d="M129.008,27.121c-1.24,0-2.199-0.381-2.879-1.145c-0.68-0.763-1.02-1.842-1.02-3.238
		c0-1.432,0.345-2.539,1.035-3.32c0.69-0.781,1.673-1.172,2.949-1.172c0.411,0,0.823,0.044,1.234,0.133
		c0.411,0.089,0.734,0.193,0.969,0.312l-0.398,1.102c-0.287-0.114-0.599-0.209-0.938-0.285c-0.339-0.075-0.638-0.113-0.898-0.113
		c-1.74,0-2.609,1.109-2.609,3.328c0,1.052,0.212,1.859,0.637,2.422c0.424,0.562,1.053,0.844,1.887,0.844
		c0.713,0,1.445-0.153,2.195-0.461v1.148C130.599,26.973,129.877,27.121,129.008,27.121z"/>
	<path fill="#B3B3B3" d="M135.969,26.051c0.229,0,0.45-0.017,0.664-0.051c0.213-0.034,0.383-0.069,0.508-0.105v0.992
		c-0.141,0.068-0.348,0.124-0.621,0.168c-0.273,0.044-0.52,0.066-0.738,0.066c-1.656,0-2.484-0.872-2.484-2.617V19.41h-1.227v-0.625
		l1.227-0.539l0.547-1.828h0.75v1.984h2.484v1.008h-2.484v5.039c0,0.516,0.122,0.912,0.367,1.188
		C135.206,25.913,135.542,26.051,135.969,26.051z"/>
	<path fill="#B3B3B3" d="M138.664,26.137c0-0.349,0.079-0.613,0.238-0.793c0.159-0.18,0.387-0.27,0.684-0.27
		c0.302,0,0.538,0.09,0.707,0.27c0.169,0.18,0.254,0.444,0.254,0.793c0,0.339-0.086,0.599-0.258,0.781s-0.406,0.273-0.703,0.273
		c-0.266,0-0.486-0.082-0.66-0.246C138.751,26.781,138.664,26.512,138.664,26.137z"/>
	<path fill="#B3B3B3" d="M142.922,26.137c0-0.349,0.079-0.613,0.238-0.793c0.159-0.18,0.387-0.27,0.684-0.27
		c0.302,0,0.538,0.09,0.707,0.27c0.169,0.18,0.254,0.444,0.254,0.793c0,0.339-0.086,0.599-0.258,0.781s-0.406,0.273-0.703,0.273
		c-0.266,0-0.486-0.082-0.66-0.246C143.009,26.781,142.922,26.512,142.922,26.137z"/>
	<path fill="#B3B3B3" d="M147.18,26.137c0-0.349,0.079-0.613,0.238-0.793c0.159-0.18,0.387-0.27,0.684-0.27
		c0.302,0,0.538,0.09,0.707,0.27c0.169,0.18,0.254,0.444,0.254,0.793c0,0.339-0.086,0.599-0.258,0.781s-0.406,0.273-0.703,0.273
		c-0.266,0-0.486-0.082-0.66-0.246C147.267,26.781,147.18,26.512,147.18,26.137z"/>
</g>
<polygon fill="#CCCCCC" points="260.918,18 255,23.918 249.082,18 "/>
<rect x="38" y="45" opacity="0.06" width="266" height="132"/>
<g>
	<rect x="35" y="41" fill="#FFFFFF" width="262" height="129"/>
	<path fill="#CCCCCC" d="M33,40v132h266V40H33z M297,170H35V41h262V170z"/>
</g>
<g>
	<path fill="#666666" d="M95.997,68.048c0,1.714-0.434,3.062-1.3,4.043c-0.867,0.981-2.072,1.472-3.615,1.472
		c-1.577,0-2.794-0.482-3.65-1.446c-0.857-0.964-1.285-2.326-1.285-4.083c0-1.743,0.429-3.094,1.289-4.054
		c0.858-0.959,2.08-1.439,3.662-1.439c1.537,0,2.738,0.488,3.604,1.465C95.564,64.982,95.997,66.33,95.997,68.048z M87.465,68.048
		c0,1.45,0.309,2.55,0.926,3.299c0.618,0.75,1.515,1.125,2.691,1.125c1.188,0,2.083-0.374,2.688-1.121s0.908-1.848,0.908-3.303
		c0-1.44-0.302-2.533-0.904-3.278c-0.604-0.744-1.496-1.117-2.677-1.117c-1.188,0-2.089,0.375-2.707,1.125
		C87.773,65.528,87.465,66.618,87.465,68.048z"/>
	<path fill="#666666" d="M101.863,65.243c0.356,0,0.676,0.029,0.959,0.088l-0.168,1.128c-0.332-0.073-0.625-0.11-0.879-0.11
		c-0.649,0-1.205,0.264-1.666,0.791c-0.462,0.527-0.692,1.184-0.692,1.97v4.307h-1.216V65.39h1.004l0.139,1.487h0.059
		c0.298-0.522,0.656-0.925,1.076-1.208S101.36,65.243,101.863,65.243z"/>
	<path fill="#666666" d="M109.261,73.417l-0.241-1.143h-0.059c-0.401,0.503-0.8,0.844-1.198,1.021
		c-0.397,0.178-0.895,0.268-1.49,0.268c-0.796,0-1.42-0.205-1.871-0.615c-0.452-0.41-0.678-0.994-0.678-1.75
		c0-1.621,1.296-2.471,3.89-2.549l1.361-0.044v-0.498c0-0.63-0.135-1.095-0.406-1.395c-0.271-0.301-0.704-0.451-1.3-0.451
		c-0.669,0-1.426,0.205-2.271,0.615l-0.373-0.93c0.395-0.215,0.828-0.383,1.3-0.505c0.471-0.122,0.943-0.183,1.417-0.183
		c0.957,0,1.666,0.212,2.128,0.637c0.461,0.425,0.692,1.106,0.692,2.043v5.479H109.261z M106.514,72.56
		c0.757,0,1.352-0.208,1.784-0.623c0.432-0.415,0.647-0.996,0.647-1.743v-0.725l-1.215,0.051c-0.967,0.034-1.664,0.185-2.092,0.45
		c-0.427,0.267-0.641,0.68-0.641,1.242c0,0.439,0.133,0.774,0.399,1.003C105.663,72.445,106.035,72.56,106.514,72.56z"/>
	<path fill="#666666" d="M118.16,73.417v-5.193c0-0.654-0.149-1.143-0.446-1.465c-0.299-0.322-0.765-0.483-1.399-0.483
		c-0.84,0-1.455,0.227-1.846,0.681s-0.586,1.204-0.586,2.249v4.211h-1.216V65.39h0.988l0.198,1.099h0.059
		c0.249-0.396,0.598-0.702,1.048-0.919c0.448-0.217,0.949-0.326,1.501-0.326c0.967,0,1.694,0.233,2.183,0.699
		c0.488,0.467,0.732,1.212,0.732,2.238v5.237H118.16z"/>
	<path fill="#666666" d="M128.443,65.39v0.769l-1.487,0.176c0.137,0.171,0.259,0.395,0.366,0.67s0.161,0.587,0.161,0.934
		c0,0.786-0.269,1.414-0.806,1.882s-1.274,0.703-2.212,0.703c-0.239,0-0.464-0.02-0.674-0.059c-0.518,0.273-0.776,0.618-0.776,1.033
		c0,0.22,0.09,0.382,0.271,0.487c0.18,0.105,0.49,0.157,0.93,0.157h1.421c0.869,0,1.537,0.183,2.003,0.549
		c0.467,0.366,0.699,0.898,0.699,1.597c0,0.889-0.356,1.566-1.068,2.033c-0.714,0.466-1.754,0.699-3.121,0.699
		c-1.05,0-1.858-0.195-2.428-0.586c-0.568-0.391-0.854-0.942-0.854-1.655c0-0.488,0.156-0.911,0.469-1.267s0.752-0.598,1.318-0.725
		c-0.205-0.093-0.377-0.237-0.516-0.432c-0.14-0.195-0.209-0.422-0.209-0.681c0-0.293,0.078-0.549,0.234-0.769
		s0.402-0.432,0.74-0.637c-0.416-0.171-0.754-0.461-1.015-0.872c-0.262-0.41-0.392-0.879-0.392-1.406
		c0-0.879,0.264-1.556,0.791-2.033c0.527-0.476,1.273-0.714,2.24-0.714c0.42,0,0.799,0.049,1.136,0.146H128.443z M122.041,74.765
		c0,0.435,0.184,0.764,0.55,0.989s0.891,0.337,1.575,0.337c1.02,0,1.775-0.153,2.267-0.458c0.49-0.306,0.735-0.719,0.735-1.242
		c0-0.435-0.134-0.736-0.402-0.905c-0.269-0.168-0.774-0.252-1.516-0.252h-1.458c-0.552,0-0.981,0.132-1.289,0.396
		S122.041,74.271,122.041,74.765z M122.701,67.96c0,0.562,0.158,0.986,0.476,1.274s0.759,0.432,1.325,0.432
		c1.188,0,1.78-0.576,1.78-1.729c0-1.206-0.601-1.809-1.802-1.809c-0.571,0-1.011,0.154-1.318,0.461S122.701,67.355,122.701,67.96z"
		/>
	<path fill="#666666" d="M133.482,73.563c-1.186,0-2.122-0.361-2.809-1.084c-0.686-0.723-1.029-1.726-1.029-3.01
		c0-1.294,0.319-2.322,0.956-3.083c0.638-0.762,1.493-1.143,2.567-1.143c1.006,0,1.802,0.331,2.388,0.992
		c0.586,0.662,0.879,1.535,0.879,2.619v0.769h-5.53c0.024,0.942,0.263,1.658,0.715,2.146c0.451,0.488,1.088,0.732,1.908,0.732
		c0.863,0,1.718-0.181,2.562-0.542v1.084c-0.43,0.186-0.836,0.319-1.219,0.399C134.487,73.523,134.025,73.563,133.482,73.563z
		 M133.153,66.261c-0.645,0-1.158,0.21-1.542,0.63c-0.383,0.42-0.609,1.001-0.678,1.743h4.197c0-0.767-0.171-1.354-0.513-1.761
		S133.788,66.261,133.153,66.261z"/>
	<path fill="#666666" d="M147.171,63.668c-1.177,0-2.105,0.392-2.786,1.175c-0.682,0.784-1.022,1.857-1.022,3.219
		c0,1.401,0.329,2.484,0.985,3.249c0.657,0.764,1.593,1.146,2.81,1.146c0.746,0,1.599-0.134,2.556-0.403v1.091
		c-0.742,0.278-1.658,0.417-2.747,0.417c-1.577,0-2.794-0.479-3.65-1.436c-0.857-0.957-1.285-2.317-1.285-4.08
		c0-1.104,0.206-2.07,0.618-2.9c0.413-0.83,1.009-1.47,1.787-1.919c0.779-0.449,1.696-0.674,2.751-0.674
		c1.122,0,2.104,0.205,2.943,0.615l-0.527,1.069C148.792,63.859,147.981,63.668,147.171,63.668z"/>
	<path fill="#666666" d="M155.528,65.243c0.356,0,0.676,0.029,0.959,0.088l-0.168,1.128c-0.332-0.073-0.625-0.11-0.879-0.11
		c-0.649,0-1.205,0.264-1.666,0.791c-0.462,0.527-0.692,1.184-0.692,1.97v4.307h-1.216V65.39h1.004l0.139,1.487h0.059
		c0.298-0.522,0.656-0.925,1.076-1.208S155.025,65.243,155.528,65.243z"/>
	<path fill="#666666" d="M161.38,73.563c-1.186,0-2.122-0.361-2.809-1.084c-0.686-0.723-1.029-1.726-1.029-3.01
		c0-1.294,0.319-2.322,0.956-3.083c0.638-0.762,1.493-1.143,2.567-1.143c1.006,0,1.802,0.331,2.388,0.992
		c0.586,0.662,0.879,1.535,0.879,2.619v0.769h-5.53c0.024,0.942,0.263,1.658,0.715,2.146c0.451,0.488,1.088,0.732,1.908,0.732
		c0.863,0,1.718-0.181,2.562-0.542v1.084c-0.43,0.186-0.836,0.319-1.219,0.399C162.385,73.523,161.923,73.563,161.38,73.563z
		 M161.051,66.261c-0.645,0-1.158,0.21-1.542,0.63c-0.383,0.42-0.609,1.001-0.678,1.743h4.197c0-0.767-0.171-1.354-0.513-1.761
		S161.686,66.261,161.051,66.261z"/>
	<path fill="#666666" d="M171.341,73.417l-0.241-1.143h-0.059c-0.401,0.503-0.8,0.844-1.198,1.021
		c-0.397,0.178-0.895,0.268-1.49,0.268c-0.796,0-1.42-0.205-1.871-0.615c-0.452-0.41-0.678-0.994-0.678-1.75
		c0-1.621,1.296-2.471,3.89-2.549l1.361-0.044v-0.498c0-0.63-0.135-1.095-0.406-1.395c-0.271-0.301-0.704-0.451-1.3-0.451
		c-0.669,0-1.426,0.205-2.271,0.615l-0.373-0.93c0.395-0.215,0.828-0.383,1.3-0.505c0.471-0.122,0.943-0.183,1.417-0.183
		c0.957,0,1.666,0.212,2.128,0.637c0.461,0.425,0.692,1.106,0.692,2.043v5.479H171.341z M168.594,72.56
		c0.757,0,1.352-0.208,1.784-0.623c0.432-0.415,0.647-0.996,0.647-1.743v-0.725l-1.215,0.051c-0.967,0.034-1.664,0.185-2.092,0.45
		c-0.427,0.267-0.641,0.68-0.641,1.242c0,0.439,0.133,0.774,0.399,1.003C167.743,72.445,168.115,72.56,168.594,72.56z"/>
	<path fill="#666666" d="M184.979,73.417v-5.222c0-0.64-0.138-1.119-0.41-1.439c-0.274-0.32-0.699-0.48-1.275-0.48
		c-0.757,0-1.315,0.217-1.677,0.652s-0.542,1.104-0.542,2.007v4.482h-1.216v-5.222c0-0.64-0.137-1.119-0.41-1.439
		s-0.701-0.48-1.282-0.48c-0.762,0-1.319,0.229-1.673,0.685c-0.354,0.457-0.531,1.205-0.531,2.245v4.211h-1.216V65.39h0.988
		l0.198,1.099h0.059c0.229-0.391,0.553-0.696,0.971-0.916c0.417-0.22,0.885-0.33,1.402-0.33c1.255,0,2.075,0.454,2.461,1.362h0.059
		c0.239-0.42,0.586-0.752,1.04-0.996s0.972-0.366,1.553-0.366c0.908,0,1.588,0.233,2.04,0.699c0.451,0.467,0.677,1.212,0.677,2.238
		v5.237H184.979z"/>
</g>
<g>
	<rect x="53" y="58" fill="#FFFFFF" width="19" height="19"/>
	<path fill="#DDDDDD" d="M52,57v1v20h20h1V57H52z M72,77H53V58h19V77z"/>
</g>
<g>
	<path fill="#666666" d="M87.947,104.964v4.453h-1.244V98.709h2.937c1.313,0,2.284,0.251,2.911,0.754
		c0.628,0.503,0.941,1.26,0.941,2.271c0,1.416-0.718,2.373-2.153,2.871l2.907,4.812h-1.472l-2.593-4.453H87.947z M87.947,103.895
		h1.707c0.879,0,1.523-0.174,1.934-0.523s0.615-0.873,0.615-1.571c0-0.708-0.209-1.218-0.626-1.531
		c-0.418-0.312-1.088-0.469-2.011-0.469h-1.619V103.895z"/>
	<path fill="#666666" d="M102.721,105.396c0,1.309-0.329,2.331-0.989,3.065c-0.658,0.735-1.569,1.103-2.731,1.103
		c-0.718,0-1.354-0.168-1.911-0.505s-0.987-0.82-1.289-1.45c-0.304-0.63-0.455-1.367-0.455-2.212c0-1.309,0.327-2.328,0.982-3.058
		c0.653-0.729,1.562-1.095,2.725-1.095c1.122,0,2.015,0.374,2.677,1.121C102.39,103.111,102.721,104.122,102.721,105.396z
		 M96.604,105.396c0,1.025,0.205,1.807,0.615,2.344s1.014,0.806,1.81,0.806s1.4-0.267,1.812-0.802
		c0.413-0.534,0.619-1.317,0.619-2.347c0-1.021-0.206-1.795-0.619-2.326c-0.412-0.529-1.021-0.794-1.827-0.794
		c-0.796,0-1.396,0.261-1.802,0.784S96.604,104.361,96.604,105.396z"/>
	<path fill="#666666" d="M111.78,105.396c0,1.309-0.329,2.331-0.989,3.065c-0.658,0.735-1.569,1.103-2.731,1.103
		c-0.718,0-1.354-0.168-1.911-0.505s-0.987-0.82-1.289-1.45c-0.304-0.63-0.455-1.367-0.455-2.212c0-1.309,0.327-2.328,0.982-3.058
		c0.653-0.729,1.562-1.095,2.725-1.095c1.122,0,2.015,0.374,2.677,1.121C111.449,103.111,111.78,104.122,111.78,105.396z
		 M105.664,105.396c0,1.025,0.205,1.807,0.615,2.344s1.014,0.806,1.81,0.806s1.4-0.267,1.812-0.802
		c0.413-0.534,0.619-1.317,0.619-2.347c0-1.021-0.206-1.795-0.619-2.326c-0.412-0.529-1.021-0.794-1.827-0.794
		c-0.796,0-1.396,0.261-1.802,0.784S105.664,104.361,105.664,105.396z"/>
	<path fill="#666666" d="M116.505,108.56c0.215,0,0.422-0.016,0.622-0.047s0.359-0.065,0.477-0.099v0.93
		c-0.132,0.063-0.326,0.116-0.582,0.157c-0.257,0.042-0.487,0.062-0.692,0.062c-1.553,0-2.329-0.818-2.329-2.454v-4.775h-1.15
		v-0.586l1.15-0.505l0.513-1.714h0.703v1.86h2.329v0.945h-2.329v4.724c0,0.483,0.114,0.854,0.345,1.113
		C115.789,108.431,116.104,108.56,116.505,108.56z"/>
	<path fill="#666666" d="M122.942,101.258c1.055,0,1.874,0.36,2.457,1.08c0.584,0.721,0.876,1.74,0.876,3.058
		s-0.295,2.343-0.883,3.073c-0.589,0.73-1.405,1.095-2.45,1.095c-0.522,0-1-0.097-1.432-0.289c-0.433-0.193-0.795-0.49-1.088-0.89
		h-0.088l-0.257,1.033h-0.871V98.021h1.216v2.769c0,0.62-0.02,1.177-0.059,1.67h0.059
		C120.989,101.658,121.829,101.258,122.942,101.258z M122.767,102.276c-0.83,0-1.429,0.238-1.794,0.714
		c-0.367,0.476-0.55,1.278-0.55,2.406s0.188,1.935,0.563,2.42c0.376,0.486,0.979,0.729,1.81,0.729c0.747,0,1.304-0.272,1.67-0.817
		c0.366-0.544,0.55-1.327,0.55-2.347c0-1.045-0.184-1.824-0.55-2.336S123.533,102.276,122.767,102.276z"/>
	<path fill="#666666" d="M131.79,109.563c-1.186,0-2.122-0.361-2.809-1.084c-0.686-0.723-1.029-1.726-1.029-3.01
		c0-1.294,0.319-2.322,0.956-3.083c0.638-0.762,1.493-1.143,2.567-1.143c1.006,0,1.802,0.331,2.388,0.992
		c0.586,0.662,0.879,1.535,0.879,2.619v0.769h-5.53c0.024,0.942,0.263,1.658,0.715,2.146c0.451,0.488,1.088,0.732,1.908,0.732
		c0.863,0,1.718-0.181,2.562-0.542v1.084c-0.43,0.186-0.836,0.319-1.219,0.399C132.795,109.523,132.333,109.563,131.79,109.563z
		 M131.461,102.261c-0.645,0-1.158,0.21-1.542,0.63c-0.383,0.42-0.609,1.001-0.678,1.743h4.197c0-0.767-0.171-1.354-0.513-1.761
		S132.096,102.261,131.461,102.261z"/>
	<path fill="#666666" d="M140.205,109.563c-1.186,0-2.122-0.361-2.809-1.084c-0.686-0.723-1.029-1.726-1.029-3.01
		c0-1.294,0.319-2.322,0.956-3.083c0.638-0.762,1.493-1.143,2.567-1.143c1.006,0,1.802,0.331,2.388,0.992
		c0.586,0.662,0.879,1.535,0.879,2.619v0.769h-5.53c0.024,0.942,0.263,1.658,0.715,2.146c0.451,0.488,1.088,0.732,1.908,0.732
		c0.863,0,1.718-0.181,2.562-0.542v1.084c-0.43,0.186-0.836,0.319-1.219,0.399C141.21,109.523,140.748,109.563,140.205,109.563z
		 M139.876,102.261c-0.645,0-1.158,0.21-1.542,0.63c-0.383,0.42-0.609,1.001-0.678,1.743h4.197c0-0.767-0.171-1.354-0.513-1.761
		S140.511,102.261,139.876,102.261z"/>
	<path fill="#666666" d="M148.893,101.243c0.356,0,0.676,0.029,0.959,0.088l-0.168,1.128c-0.332-0.073-0.625-0.11-0.879-0.11
		c-0.649,0-1.205,0.264-1.666,0.791c-0.462,0.527-0.692,1.184-0.692,1.97v4.307h-1.216v-8.027h1.004l0.139,1.487h0.059
		c0.298-0.522,0.656-0.925,1.076-1.208S148.39,101.243,148.893,101.243z"/>
	<path fill="#666666" d="M156.678,109.417h-1.244V98.709h5.969v1.106h-4.725v3.918h4.439v1.106h-4.439V109.417z"/>
	<path fill="#666666" d="M164.208,109.417h-1.216V98.021h1.216V109.417z"/>
	<path fill="#666666" d="M173.714,105.396c0,1.309-0.329,2.331-0.989,3.065c-0.658,0.735-1.569,1.103-2.731,1.103
		c-0.718,0-1.354-0.168-1.911-0.505s-0.987-0.82-1.289-1.45c-0.304-0.63-0.455-1.367-0.455-2.212c0-1.309,0.327-2.328,0.982-3.058
		c0.653-0.729,1.562-1.095,2.725-1.095c1.122,0,2.015,0.374,2.677,1.121C173.383,103.111,173.714,104.122,173.714,105.396z
		 M167.598,105.396c0,1.025,0.205,1.807,0.615,2.344s1.014,0.806,1.81,0.806s1.4-0.267,1.812-0.802
		c0.413-0.534,0.619-1.317,0.619-2.347c0-1.021-0.206-1.795-0.619-2.326c-0.412-0.529-1.021-0.794-1.827-0.794
		c-0.796,0-1.396,0.261-1.802,0.784S167.598,104.361,167.598,105.396z"/>
	<path fill="#666666" d="M180.782,109.417l-0.241-1.143h-0.059c-0.401,0.503-0.8,0.844-1.198,1.021
		c-0.397,0.178-0.895,0.268-1.49,0.268c-0.796,0-1.42-0.205-1.871-0.615c-0.452-0.41-0.678-0.994-0.678-1.75
		c0-1.621,1.296-2.471,3.89-2.549l1.361-0.044v-0.498c0-0.63-0.135-1.095-0.406-1.395c-0.271-0.301-0.704-0.451-1.3-0.451
		c-0.669,0-1.426,0.205-2.271,0.615l-0.373-0.93c0.395-0.215,0.828-0.383,1.3-0.505c0.471-0.122,0.943-0.183,1.417-0.183
		c0.957,0,1.666,0.212,2.128,0.637c0.461,0.425,0.692,1.106,0.692,2.043v5.479H180.782z M178.035,108.56
		c0.757,0,1.352-0.208,1.784-0.623c0.432-0.415,0.647-0.996,0.647-1.743v-0.725l-1.215,0.051c-0.967,0.034-1.664,0.185-2.092,0.45
		c-0.427,0.267-0.641,0.68-0.641,1.242c0,0.439,0.133,0.774,0.399,1.003C177.185,108.445,177.557,108.56,178.035,108.56z"/>
	<path fill="#666666" d="M186.78,108.56c0.215,0,0.422-0.016,0.622-0.047s0.359-0.065,0.477-0.099v0.93
		c-0.132,0.063-0.326,0.116-0.582,0.157c-0.257,0.042-0.487,0.062-0.692,0.062c-1.553,0-2.329-0.818-2.329-2.454v-4.775h-1.15
		v-0.586l1.15-0.505l0.513-1.714h0.703v1.86h2.329v0.945h-2.329v4.724c0,0.483,0.114,0.854,0.345,1.113
		C186.064,108.431,186.38,108.56,186.78,108.56z"/>
</g>
<g>
	<rect x="53" y="94" fill="#FFFFFF" width="19" height="19"/>
	<path fill="#DDDDDD" d="M52,93v1v20h20h1V93H52z M72,113H53V94h19V113z"/>
</g>
<g>
	<path fill="#666666" d="M92.745,142.568c0,0.942-0.342,1.677-1.025,2.205s-1.611,0.791-2.783,0.791c-1.27,0-2.246-0.163-2.93-0.491
		v-1.201c0.439,0.185,0.918,0.332,1.436,0.439s1.03,0.162,1.538,0.162c0.83,0,1.455-0.158,1.875-0.473
		c0.42-0.315,0.63-0.753,0.63-1.315c0-0.371-0.074-0.675-0.224-0.912c-0.148-0.237-0.397-0.456-0.747-0.656
		c-0.349-0.2-0.88-0.427-1.593-0.681c-0.996-0.356-1.708-0.779-2.135-1.267c-0.428-0.488-0.641-1.125-0.641-1.912
		c0-0.825,0.31-1.482,0.93-1.97s1.44-0.732,2.461-0.732c1.064,0,2.043,0.195,2.938,0.586l-0.389,1.084
		c-0.884-0.371-1.743-0.557-2.578-0.557c-0.659,0-1.175,0.142-1.545,0.425c-0.372,0.283-0.557,0.676-0.557,1.179
		c0,0.371,0.067,0.675,0.205,0.912c0.136,0.237,0.367,0.454,0.691,0.651c0.325,0.198,0.821,0.417,1.49,0.656
		c1.123,0.4,1.896,0.83,2.318,1.289C92.534,141.24,92.745,141.835,92.745,142.568z"/>
	<path fill="#666666" d="M97.345,144.561c0.215,0,0.422-0.016,0.622-0.048s0.359-0.065,0.477-0.099v0.93
		c-0.132,0.063-0.326,0.115-0.582,0.157c-0.257,0.042-0.487,0.062-0.692,0.062c-1.553,0-2.329-0.817-2.329-2.454v-4.775h-1.15
		v-0.586l1.15-0.505l0.513-1.714h0.703v1.86h2.329v0.945h-2.329v4.724c0,0.483,0.114,0.854,0.345,1.113
		C96.629,144.431,96.944,144.561,97.345,144.561z"/>
	<path fill="#666666" d="M103.709,137.243c0.356,0,0.676,0.029,0.959,0.088l-0.168,1.128c-0.332-0.073-0.625-0.11-0.879-0.11
		c-0.649,0-1.205,0.264-1.666,0.791c-0.462,0.527-0.692,1.184-0.692,1.97v4.307h-1.216v-8.027h1.004l0.139,1.487h0.059
		c0.298-0.522,0.656-0.925,1.076-1.208S103.206,137.243,103.709,137.243z"/>
	<path fill="#666666" d="M111.106,145.417l-0.241-1.143h-0.059c-0.401,0.503-0.8,0.844-1.198,1.021
		c-0.397,0.179-0.895,0.268-1.49,0.268c-0.796,0-1.42-0.205-1.871-0.615c-0.452-0.41-0.678-0.994-0.678-1.75
		c0-1.621,1.296-2.471,3.89-2.549l1.361-0.044v-0.498c0-0.63-0.135-1.095-0.406-1.395c-0.271-0.301-0.704-0.451-1.3-0.451
		c-0.669,0-1.426,0.205-2.271,0.615l-0.373-0.93c0.395-0.215,0.828-0.383,1.3-0.505c0.471-0.122,0.943-0.183,1.417-0.183
		c0.957,0,1.666,0.212,2.128,0.637c0.461,0.425,0.692,1.106,0.692,2.043v5.479H111.106z M108.359,144.561
		c0.757,0,1.352-0.208,1.784-0.623c0.432-0.415,0.647-0.996,0.647-1.743v-0.725l-1.215,0.051c-0.967,0.034-1.664,0.185-2.092,0.45
		c-0.427,0.267-0.641,0.68-0.641,1.242c0,0.439,0.133,0.774,0.399,1.003C107.509,144.445,107.881,144.561,108.359,144.561z"/>
	<path fill="#666666" d="M121.067,145.417l-1.472-4.709c-0.093-0.288-0.267-0.942-0.521-1.963h-0.059
		c-0.195,0.854-0.365,1.514-0.512,1.978l-1.517,4.695h-1.406l-2.19-8.027h1.275c0.517,2.017,0.911,3.552,1.183,4.607
		c0.271,1.055,0.426,1.765,0.465,2.131h0.059c0.054-0.278,0.141-0.638,0.26-1.08c0.12-0.442,0.224-0.792,0.312-1.051l1.473-4.607
		h1.318l1.436,4.607c0.272,0.84,0.458,1.545,0.557,2.117h0.059c0.019-0.176,0.071-0.447,0.157-0.813
		c0.085-0.366,0.594-2.336,1.526-5.911h1.26l-2.219,8.027H121.067z"/>
	<path fill="#666666" d="M129.915,137.258c1.055,0,1.874,0.36,2.457,1.08c0.584,0.721,0.876,1.74,0.876,3.058
		s-0.295,2.343-0.883,3.073c-0.589,0.73-1.405,1.095-2.45,1.095c-0.522,0-1-0.097-1.432-0.289c-0.433-0.192-0.795-0.489-1.088-0.89
		h-0.088l-0.257,1.032h-0.871v-11.396h1.216v2.769c0,0.62-0.02,1.177-0.059,1.67h0.059
		C127.962,137.658,128.802,137.258,129.915,137.258z M129.739,138.276c-0.83,0-1.429,0.238-1.794,0.714
		c-0.367,0.476-0.55,1.278-0.55,2.406s0.188,1.935,0.563,2.42c0.376,0.486,0.979,0.729,1.81,0.729c0.747,0,1.304-0.271,1.67-0.816
		c0.366-0.544,0.55-1.327,0.55-2.347c0-1.045-0.184-1.824-0.55-2.336S130.506,138.276,129.739,138.276z"/>
	<path fill="#666666" d="M138.763,145.563c-1.186,0-2.122-0.361-2.809-1.084c-0.686-0.723-1.029-1.726-1.029-3.01
		c0-1.294,0.319-2.322,0.956-3.083c0.638-0.762,1.493-1.143,2.567-1.143c1.006,0,1.802,0.331,2.388,0.992
		c0.586,0.662,0.879,1.535,0.879,2.619v0.769h-5.53c0.024,0.942,0.263,1.658,0.715,2.146c0.451,0.489,1.088,0.733,1.908,0.733
		c0.863,0,1.718-0.182,2.562-0.542v1.083c-0.43,0.186-0.836,0.319-1.219,0.399C139.768,145.523,139.306,145.563,138.763,145.563z
		 M138.434,138.261c-0.645,0-1.158,0.21-1.542,0.63c-0.383,0.42-0.609,1.001-0.678,1.743h4.197c0-0.767-0.171-1.354-0.513-1.761
		S139.068,138.261,138.434,138.261z"/>
	<path fill="#666666" d="M147.449,137.243c0.356,0,0.676,0.029,0.959,0.088l-0.168,1.128c-0.332-0.073-0.625-0.11-0.879-0.11
		c-0.649,0-1.205,0.264-1.666,0.791c-0.462,0.527-0.692,1.184-0.692,1.97v4.307h-1.216v-8.027h1.004l0.139,1.487h0.059
		c0.298-0.522,0.656-0.925,1.076-1.208S146.946,137.243,147.449,137.243z"/>
	<path fill="#666666" d="M153.572,137.243c0.356,0,0.676,0.029,0.959,0.088l-0.168,1.128c-0.332-0.073-0.625-0.11-0.879-0.11
		c-0.649,0-1.205,0.264-1.666,0.791c-0.462,0.527-0.692,1.184-0.692,1.97v4.307h-1.216v-8.027h1.004l0.139,1.487h0.059
		c0.298-0.522,0.656-0.925,1.076-1.208S153.069,137.243,153.572,137.243z"/>
	<path fill="#666666" d="M154.759,137.39h1.304l1.758,4.578c0.386,1.045,0.625,1.799,0.718,2.263h0.059
		c0.063-0.249,0.196-0.675,0.399-1.278c0.202-0.603,0.865-2.457,1.988-5.562h1.304l-3.45,9.141c-0.342,0.903-0.74,1.544-1.197,1.923
		c-0.456,0.378-1.017,0.567-1.681,0.567c-0.371,0-0.737-0.042-1.099-0.124v-0.975c0.269,0.059,0.568,0.088,0.9,0.088
		c0.836,0,1.431-0.469,1.787-1.406l0.447-1.143L154.759,137.39z"/>
	<path fill="#666666" d="M177.018,145.417h-1.23l-2.161-7.17c-0.103-0.317-0.218-0.718-0.345-1.201s-0.192-0.774-0.197-0.872
		c-0.107,0.645-0.278,1.35-0.513,2.117l-2.095,7.126h-1.23l-2.85-10.708h1.318l1.692,6.614c0.234,0.928,0.405,1.768,0.513,2.52
		c0.132-0.894,0.327-1.768,0.586-2.622l1.919-6.511h1.318l2.015,6.57c0.234,0.757,0.432,1.611,0.593,2.563
		c0.093-0.693,0.269-1.538,0.527-2.534l1.685-6.599h1.318L177.018,145.417z"/>
	<path fill="#666666" d="M186.312,145.417l-0.241-1.143h-0.059c-0.401,0.503-0.8,0.844-1.198,1.021
		c-0.397,0.179-0.895,0.268-1.49,0.268c-0.796,0-1.42-0.205-1.871-0.615c-0.452-0.41-0.678-0.994-0.678-1.75
		c0-1.621,1.296-2.471,3.89-2.549l1.361-0.044v-0.498c0-0.63-0.135-1.095-0.406-1.395c-0.271-0.301-0.704-0.451-1.3-0.451
		c-0.669,0-1.426,0.205-2.271,0.615l-0.373-0.93c0.395-0.215,0.828-0.383,1.3-0.505c0.471-0.122,0.943-0.183,1.417-0.183
		c0.957,0,1.666,0.212,2.128,0.637c0.461,0.425,0.692,1.106,0.692,2.043v5.479H186.312z M183.564,144.561
		c0.757,0,1.352-0.208,1.784-0.623c0.432-0.415,0.647-0.996,0.647-1.743v-0.725l-1.215,0.051c-0.967,0.034-1.664,0.185-2.092,0.45
		c-0.427,0.267-0.641,0.68-0.641,1.242c0,0.439,0.133,0.774,0.399,1.003C182.714,144.445,183.086,144.561,183.564,144.561z"/>
	<path fill="#666666" d="M192.311,144.561c0.215,0,0.422-0.016,0.622-0.048s0.359-0.065,0.477-0.099v0.93
		c-0.132,0.063-0.326,0.115-0.582,0.157c-0.257,0.042-0.487,0.062-0.692,0.062c-1.553,0-2.329-0.817-2.329-2.454v-4.775h-1.15
		v-0.586l1.15-0.505l0.513-1.714h0.703v1.86h2.329v0.945h-2.329v4.724c0,0.483,0.114,0.854,0.345,1.113
		C191.595,144.431,191.91,144.561,192.311,144.561z"/>
	<path fill="#666666" d="M198.404,145.563c-1.186,0-2.122-0.361-2.809-1.084c-0.686-0.723-1.029-1.726-1.029-3.01
		c0-1.294,0.319-2.322,0.956-3.083c0.638-0.762,1.493-1.143,2.567-1.143c1.006,0,1.802,0.331,2.388,0.992
		c0.586,0.662,0.879,1.535,0.879,2.619v0.769h-5.53c0.024,0.942,0.263,1.658,0.715,2.146c0.451,0.489,1.088,0.733,1.908,0.733
		c0.863,0,1.718-0.182,2.562-0.542v1.083c-0.43,0.186-0.836,0.319-1.219,0.399C199.409,145.523,198.947,145.563,198.404,145.563z
		 M198.075,138.261c-0.645,0-1.158,0.21-1.542,0.63c-0.383,0.42-0.609,1.001-0.678,1.743h4.197c0-0.767-0.171-1.354-0.513-1.761
		S198.71,138.261,198.075,138.261z"/>
	<path fill="#666666" d="M207.091,137.243c0.356,0,0.676,0.029,0.959,0.088l-0.168,1.128c-0.332-0.073-0.625-0.11-0.879-0.11
		c-0.649,0-1.205,0.264-1.666,0.791c-0.462,0.527-0.692,1.184-0.692,1.97v4.307h-1.216v-8.027h1.004l0.139,1.487h0.059
		c0.298-0.522,0.656-0.925,1.076-1.208S206.588,137.243,207.091,137.243z"/>
	<path fill="#666666" d="M219.784,145.417v-5.222c0-0.64-0.138-1.119-0.41-1.439c-0.274-0.32-0.699-0.48-1.275-0.48
		c-0.757,0-1.315,0.217-1.677,0.652s-0.542,1.104-0.542,2.007v4.482h-1.216v-5.222c0-0.64-0.137-1.119-0.41-1.439
		s-0.701-0.48-1.282-0.48c-0.762,0-1.319,0.229-1.673,0.685c-0.354,0.457-0.531,1.205-0.531,2.245v4.211h-1.216v-8.027h0.988
		l0.198,1.099h0.059c0.229-0.391,0.553-0.696,0.971-0.916c0.417-0.22,0.885-0.33,1.402-0.33c1.255,0,2.075,0.454,2.461,1.362h0.059
		c0.239-0.42,0.586-0.752,1.04-0.996s0.972-0.366,1.553-0.366c0.908,0,1.588,0.233,2.04,0.699c0.451,0.467,0.677,1.212,0.677,2.238
		v5.237H219.784z"/>
	<path fill="#666666" d="M226.895,145.563c-1.186,0-2.122-0.361-2.809-1.084c-0.686-0.723-1.029-1.726-1.029-3.01
		c0-1.294,0.319-2.322,0.956-3.083c0.638-0.762,1.493-1.143,2.567-1.143c1.006,0,1.802,0.331,2.388,0.992
		c0.586,0.662,0.879,1.535,0.879,2.619v0.769h-5.53c0.024,0.942,0.263,1.658,0.715,2.146c0.451,0.489,1.088,0.733,1.908,0.733
		c0.863,0,1.718-0.182,2.562-0.542v1.083c-0.43,0.186-0.836,0.319-1.219,0.399C227.899,145.523,227.438,145.563,226.895,145.563z
		 M226.565,138.261c-0.645,0-1.158,0.21-1.542,0.63c-0.383,0.42-0.609,1.001-0.678,1.743h4.197c0-0.767-0.171-1.354-0.513-1.761
		S227.2,138.261,226.565,138.261z"/>
	<path fill="#666666" d="M233.136,145.417h-1.216v-11.396h1.216V145.417z"/>
	<path fill="#666666" d="M242.643,141.396c0,1.309-0.329,2.331-0.989,3.065c-0.658,0.735-1.569,1.103-2.731,1.103
		c-0.718,0-1.354-0.169-1.911-0.505c-0.557-0.338-0.987-0.82-1.289-1.451c-0.304-0.63-0.455-1.367-0.455-2.212
		c0-1.309,0.327-2.328,0.982-3.058c0.653-0.729,1.562-1.095,2.725-1.095c1.122,0,2.015,0.374,2.677,1.121
		C242.312,139.111,242.643,140.122,242.643,141.396z M236.526,141.396c0,1.025,0.205,1.807,0.615,2.344
		c0.41,0.538,1.014,0.805,1.81,0.805s1.4-0.267,1.812-0.802c0.413-0.534,0.619-1.317,0.619-2.347c0-1.021-0.206-1.795-0.619-2.326
		c-0.412-0.529-1.021-0.794-1.827-0.794c-0.796,0-1.396,0.261-1.802,0.784S236.526,140.361,236.526,141.396z"/>
	<path fill="#666666" d="M250.267,145.417v-5.193c0-0.654-0.149-1.143-0.446-1.465c-0.299-0.322-0.765-0.483-1.399-0.483
		c-0.84,0-1.455,0.227-1.846,0.681s-0.586,1.204-0.586,2.249v4.211h-1.216v-8.027h0.988l0.198,1.099h0.059
		c0.249-0.396,0.598-0.702,1.048-0.919c0.448-0.217,0.949-0.326,1.501-0.326c0.967,0,1.694,0.233,2.183,0.699
		c0.488,0.467,0.732,1.212,0.732,2.238v5.237H250.267z"/>
</g>
<g>
	<rect x="53" y="130" fill="#FFFFFF" width="19" height="19"/>
	<path fill="#DDDDDD" d="M52,129v1v20h20h1v-21H52z M72,149H53v-19h19V149z"/>
</g>
<path opacity="0.06" d="M356,296H90c-3.86,0-7,3.141-7,7v28c0,3.859,3.14,7,7,7h266c3.859,0,7-3.141,7-7v-28
	C363,299.141,359.859,296,356,296z"/>
<g>
	<path fill="#FFFFFF" d="M351,293H85c-2.757,0-5,2.243-5,5v28c0,2.757,2.243,5,5,5h266c2.757,0,5-2.243,5-5v-28
		C356,295.243,353.757,293,351,293z"/>
	<path fill="#CCCCCC" d="M351,291H85c-3.86,0-7,3.141-7,7v28c0,3.859,3.14,7,7,7h266c3.859,0,7-3.141,7-7v-28
		C358,294.141,354.859,291,351,291z M356,326c0,2.757-2.243,5-5,5H85c-2.757,0-5-2.243-5-5v-28c0-2.757,2.243-5,5-5h266
		c2.757,0,5,2.243,5,5V326z"/>
</g>
<polygon fill="#CCCCCC" points="338.918,309 333,314.918 327.082,309 "/>
<g>
	<path fill="#B3B3B3" d="M103.516,313.926c0,1.006-0.365,1.789-1.094,2.352c-0.729,0.562-1.719,0.844-2.969,0.844
		c-1.354,0-2.396-0.174-3.125-0.523v-1.281c0.469,0.198,0.979,0.354,1.531,0.469c0.552,0.115,1.099,0.172,1.641,0.172
		c0.885,0,1.552-0.168,2-0.504c0.448-0.336,0.672-0.803,0.672-1.402c0-0.396-0.08-0.72-0.238-0.973
		c-0.159-0.252-0.425-0.485-0.797-0.699c-0.373-0.213-0.939-0.455-1.699-0.727c-1.062-0.38-1.822-0.83-2.277-1.352
		c-0.456-0.521-0.684-1.2-0.684-2.039c0-0.88,0.331-1.58,0.992-2.102c0.661-0.521,1.536-0.781,2.625-0.781
		c1.135,0,2.18,0.209,3.133,0.625l-0.414,1.156c-0.943-0.396-1.859-0.594-2.75-0.594c-0.703,0-1.253,0.151-1.648,0.453
		c-0.396,0.303-0.594,0.722-0.594,1.258c0,0.396,0.073,0.721,0.219,0.973c0.146,0.253,0.392,0.484,0.738,0.695
		c0.346,0.211,0.876,0.444,1.59,0.699c1.198,0.428,2.022,0.886,2.473,1.375C103.29,312.51,103.516,313.145,103.516,313.926z"/>
	<path fill="#B3B3B3" d="M109.273,317.121c-1.266,0-2.265-0.385-2.996-1.156c-0.732-0.771-1.098-1.841-1.098-3.211
		c0-1.38,0.34-2.477,1.02-3.289s1.592-1.219,2.738-1.219c1.073,0,1.922,0.354,2.547,1.059c0.625,0.706,0.938,1.637,0.938,2.793v0.82
		h-5.898c0.026,1.006,0.28,1.769,0.762,2.289c0.481,0.521,1.16,0.781,2.035,0.781c0.922,0,1.833-0.192,2.734-0.578v1.156
		c-0.458,0.198-0.892,0.34-1.301,0.426C110.345,317.078,109.852,317.121,109.273,317.121z M108.922,309.332
		c-0.688,0-1.236,0.225-1.645,0.672c-0.409,0.448-0.65,1.068-0.723,1.859h4.477c0-0.817-0.183-1.443-0.547-1.879
		C110.12,309.55,109.599,309.332,108.922,309.332z"/>
	<path fill="#B3B3B3" d="M115.93,316.965h-1.297v-12.156h1.297V316.965z"/>
	<path fill="#B3B3B3" d="M122.297,317.121c-1.266,0-2.265-0.385-2.996-1.156c-0.732-0.771-1.098-1.841-1.098-3.211
		c0-1.38,0.34-2.477,1.02-3.289s1.592-1.219,2.738-1.219c1.073,0,1.922,0.354,2.547,1.059c0.625,0.706,0.938,1.637,0.938,2.793v0.82
		h-5.898c0.026,1.006,0.28,1.769,0.762,2.289c0.481,0.521,1.16,0.781,2.035,0.781c0.922,0,1.833-0.192,2.734-0.578v1.156
		c-0.458,0.198-0.892,0.34-1.301,0.426C123.368,317.078,122.875,317.121,122.297,317.121z M121.945,309.332
		c-0.688,0-1.236,0.225-1.645,0.672c-0.409,0.448-0.65,1.068-0.723,1.859h4.477c0-0.817-0.183-1.443-0.547-1.879
		C123.143,309.55,122.622,309.332,121.945,309.332z"/>
	<path fill="#B3B3B3" d="M131.078,317.121c-1.24,0-2.199-0.381-2.879-1.145c-0.68-0.763-1.02-1.842-1.02-3.238
		c0-1.432,0.345-2.539,1.035-3.32c0.69-0.781,1.673-1.172,2.949-1.172c0.411,0,0.823,0.045,1.234,0.133
		c0.411,0.089,0.734,0.193,0.969,0.312l-0.398,1.102c-0.287-0.114-0.599-0.209-0.938-0.285c-0.339-0.075-0.638-0.113-0.898-0.113
		c-1.74,0-2.609,1.109-2.609,3.328c0,1.053,0.212,1.859,0.637,2.422c0.424,0.562,1.053,0.844,1.887,0.844
		c0.713,0,1.445-0.153,2.195-0.461v1.148C132.669,316.973,131.948,317.121,131.078,317.121z"/>
	<path fill="#B3B3B3" d="M138.039,316.051c0.229,0,0.45-0.017,0.664-0.051c0.213-0.033,0.383-0.068,0.508-0.105v0.992
		c-0.141,0.068-0.348,0.123-0.621,0.168c-0.273,0.044-0.52,0.066-0.738,0.066c-1.656,0-2.484-0.872-2.484-2.617v-5.094h-1.227
		v-0.625l1.227-0.539l0.547-1.828h0.75v1.984h2.484v1.008h-2.484v5.039c0,0.516,0.122,0.912,0.367,1.188
		C137.276,315.913,137.612,316.051,138.039,316.051z"/>
	<path fill="#B3B3B3" d="M150.344,316.965l-0.258-1.219h-0.062c-0.427,0.537-0.853,0.9-1.277,1.09
		c-0.425,0.189-0.955,0.285-1.59,0.285c-0.849,0-1.515-0.219-1.996-0.656c-0.482-0.438-0.723-1.06-0.723-1.867
		c0-1.729,1.383-2.635,4.148-2.719l1.453-0.047v-0.531c0-0.672-0.145-1.168-0.434-1.488s-0.751-0.48-1.387-0.48
		c-0.714,0-1.521,0.219-2.422,0.656l-0.398-0.992c0.422-0.229,0.884-0.408,1.387-0.539c0.502-0.13,1.006-0.195,1.512-0.195
		c1.021,0,1.777,0.227,2.27,0.68s0.738,1.18,0.738,2.18v5.844H150.344z M147.414,316.051c0.807,0,1.441-0.221,1.902-0.664
		c0.461-0.442,0.691-1.062,0.691-1.859v-0.773l-1.297,0.055c-1.031,0.037-1.775,0.197-2.23,0.48
		c-0.456,0.284-0.684,0.726-0.684,1.324c0,0.469,0.142,0.826,0.426,1.07C146.506,315.929,146.903,316.051,147.414,316.051z"/>
	<path fill="#B3B3B3" d="M163.219,306.566c-1.255,0-2.246,0.418-2.973,1.254s-1.09,1.98-1.09,3.434c0,1.495,0.35,2.65,1.051,3.465
		c0.7,0.815,1.699,1.223,2.996,1.223c0.797,0,1.706-0.143,2.727-0.43v1.164c-0.792,0.297-1.769,0.445-2.93,0.445
		c-1.683,0-2.98-0.51-3.895-1.531c-0.914-1.021-1.371-2.471-1.371-4.352c0-1.177,0.22-2.208,0.66-3.094
		c0.44-0.885,1.075-1.567,1.906-2.047c0.831-0.479,1.809-0.719,2.934-0.719c1.198,0,2.245,0.219,3.141,0.656l-0.562,1.141
		C164.948,306.77,164.083,306.566,163.219,306.566z"/>
	<path fill="#B3B3B3" d="M173.492,316.965l-0.258-1.219h-0.062c-0.428,0.537-0.854,0.9-1.277,1.09
		c-0.425,0.189-0.955,0.285-1.59,0.285c-0.849,0-1.515-0.219-1.996-0.656c-0.482-0.438-0.723-1.06-0.723-1.867
		c0-1.729,1.383-2.635,4.148-2.719l1.453-0.047v-0.531c0-0.672-0.145-1.168-0.434-1.488s-0.752-0.48-1.387-0.48
		c-0.714,0-1.521,0.219-2.422,0.656l-0.398-0.992c0.422-0.229,0.884-0.408,1.387-0.539c0.502-0.13,1.006-0.195,1.512-0.195
		c1.021,0,1.777,0.227,2.27,0.68s0.738,1.18,0.738,2.18v5.844H173.492z M170.562,316.051c0.807,0,1.441-0.221,1.902-0.664
		c0.461-0.442,0.691-1.062,0.691-1.859v-0.773l-1.297,0.055c-1.031,0.037-1.775,0.197-2.23,0.48
		c-0.456,0.284-0.684,0.726-0.684,1.324c0,0.469,0.142,0.826,0.426,1.07C169.655,315.929,170.052,316.051,170.562,316.051z"/>
	<path fill="#B3B3B3" d="M179.891,316.051c0.229,0,0.45-0.017,0.664-0.051c0.214-0.033,0.383-0.068,0.508-0.105v0.992
		c-0.141,0.068-0.348,0.123-0.621,0.168c-0.273,0.044-0.52,0.066-0.738,0.066c-1.656,0-2.484-0.872-2.484-2.617v-5.094h-1.227
		v-0.625l1.227-0.539l0.547-1.828h0.75v1.984H181v1.008h-2.484v5.039c0,0.516,0.122,0.912,0.367,1.188
		C179.128,315.913,179.464,316.051,179.891,316.051z"/>
	<path fill="#B3B3B3" d="M186.391,317.121c-1.266,0-2.265-0.385-2.996-1.156c-0.731-0.771-1.098-1.841-1.098-3.211
		c0-1.38,0.34-2.477,1.02-3.289s1.593-1.219,2.738-1.219c1.073,0,1.922,0.354,2.547,1.059c0.625,0.706,0.938,1.637,0.938,2.793v0.82
		h-5.898c0.026,1.006,0.28,1.769,0.762,2.289c0.481,0.521,1.16,0.781,2.035,0.781c0.922,0,1.833-0.192,2.734-0.578v1.156
		c-0.458,0.198-0.892,0.34-1.301,0.426S186.969,317.121,186.391,317.121z M186.039,309.332c-0.688,0-1.235,0.225-1.645,0.672
		c-0.409,0.448-0.649,1.068-0.723,1.859h4.477c0-0.817-0.183-1.443-0.547-1.879C187.237,309.55,186.716,309.332,186.039,309.332z"/>
	<path fill="#B3B3B3" d="M198.758,308.402v0.82l-1.586,0.188c0.146,0.183,0.276,0.421,0.391,0.715
		c0.114,0.295,0.172,0.627,0.172,0.996c0,0.839-0.286,1.508-0.859,2.008s-1.359,0.75-2.359,0.75c-0.255,0-0.495-0.021-0.719-0.062
		c-0.552,0.292-0.828,0.659-0.828,1.102c0,0.234,0.097,0.408,0.289,0.52c0.192,0.112,0.523,0.168,0.992,0.168h1.516
		c0.927,0,1.64,0.195,2.137,0.586s0.746,0.958,0.746,1.703c0,0.947-0.38,1.67-1.141,2.168c-0.761,0.497-1.87,0.746-3.328,0.746
		c-1.12,0-1.983-0.209-2.59-0.625c-0.606-0.417-0.91-1.006-0.91-1.766c0-0.521,0.167-0.972,0.5-1.352s0.802-0.638,1.406-0.773
		c-0.219-0.099-0.402-0.252-0.551-0.461c-0.148-0.208-0.223-0.45-0.223-0.727c0-0.312,0.083-0.586,0.25-0.82s0.43-0.461,0.789-0.68
		c-0.442-0.182-0.804-0.492-1.082-0.93s-0.418-0.938-0.418-1.5c0-0.938,0.281-1.66,0.844-2.168s1.359-0.762,2.391-0.762
		c0.448,0,0.852,0.053,1.211,0.156H198.758z M191.93,318.402c0,0.463,0.195,0.814,0.586,1.055c0.391,0.239,0.95,0.359,1.68,0.359
		c1.089,0,1.895-0.163,2.418-0.488c0.523-0.326,0.785-0.768,0.785-1.324c0-0.464-0.144-0.785-0.43-0.965s-0.825-0.27-1.617-0.27
		h-1.555c-0.589,0-1.047,0.141-1.375,0.422S191.93,317.876,191.93,318.402z M192.633,311.145c0,0.6,0.169,1.053,0.508,1.359
		c0.339,0.308,0.81,0.461,1.414,0.461c1.266,0,1.898-0.614,1.898-1.844c0-1.286-0.641-1.93-1.922-1.93
		c-0.609,0-1.078,0.164-1.406,0.492S192.633,310.499,192.633,311.145z"/>
	<path fill="#B3B3B3" d="M207.906,312.676c0,1.396-0.352,2.486-1.055,3.27c-0.703,0.784-1.675,1.176-2.914,1.176
		c-0.766,0-1.445-0.18-2.039-0.539s-1.052-0.875-1.375-1.547s-0.484-1.458-0.484-2.359c0-1.396,0.349-2.482,1.047-3.262
		c0.698-0.778,1.667-1.168,2.906-1.168c1.198,0,2.149,0.398,2.855,1.195S207.906,311.316,207.906,312.676z M201.383,312.676
		c0,1.094,0.219,1.928,0.656,2.5c0.438,0.573,1.081,0.859,1.93,0.859s1.493-0.285,1.934-0.855s0.66-1.404,0.66-2.504
		c0-1.088-0.22-1.915-0.66-2.48c-0.44-0.564-1.09-0.848-1.949-0.848c-0.849,0-1.489,0.279-1.922,0.836
		C201.599,310.741,201.383,311.572,201.383,312.676z"/>
	<path fill="#B3B3B3" d="M214.086,308.246c0.38,0,0.722,0.031,1.023,0.094l-0.18,1.203c-0.354-0.078-0.667-0.117-0.938-0.117
		c-0.692,0-1.285,0.281-1.777,0.844s-0.738,1.264-0.738,2.102v4.594h-1.297v-8.562h1.07l0.148,1.586h0.062
		c0.317-0.557,0.7-0.986,1.148-1.289C213.058,308.397,213.55,308.246,214.086,308.246z"/>
	<path fill="#B3B3B3" d="M215.352,308.402h1.391l1.875,4.883c0.411,1.115,0.667,1.92,0.766,2.414h0.062
		c0.067-0.266,0.21-0.72,0.426-1.363c0.216-0.643,0.923-2.621,2.121-5.934h1.391l-3.68,9.75c-0.364,0.963-0.79,1.646-1.277,2.051
		c-0.487,0.403-1.085,0.605-1.793,0.605c-0.396,0-0.786-0.045-1.172-0.133v-1.039c0.286,0.062,0.606,0.094,0.961,0.094
		c0.891,0,1.526-0.5,1.906-1.5l0.477-1.219L215.352,308.402z"/>
	<path fill="#B3B3B3" d="M224.586,316.137c0-0.349,0.079-0.613,0.238-0.793s0.387-0.27,0.684-0.27c0.302,0,0.538,0.09,0.707,0.27
		s0.254,0.444,0.254,0.793c0,0.339-0.086,0.6-0.258,0.781s-0.406,0.273-0.703,0.273c-0.266,0-0.485-0.082-0.66-0.246
		S224.586,316.512,224.586,316.137z"/>
	<path fill="#B3B3B3" d="M228.844,316.137c0-0.349,0.079-0.613,0.238-0.793s0.387-0.27,0.684-0.27c0.302,0,0.538,0.09,0.707,0.27
		s0.254,0.444,0.254,0.793c0,0.339-0.086,0.6-0.258,0.781s-0.406,0.273-0.703,0.273c-0.266,0-0.485-0.082-0.66-0.246
		S228.844,316.512,228.844,316.137z"/>
	<path fill="#B3B3B3" d="M233.102,316.137c0-0.349,0.079-0.613,0.238-0.793s0.387-0.27,0.684-0.27c0.302,0,0.538,0.09,0.707,0.27
		s0.254,0.444,0.254,0.793c0,0.339-0.086,0.6-0.258,0.781s-0.406,0.273-0.703,0.273c-0.266,0-0.485-0.082-0.66-0.246
		S233.102,316.512,233.102,316.137z"/>
</g>
<path fill="#EC1B52" d="M445,243c0,3.313-2.687,6-6,6H276c-3.313,0-6-2.687-6-6v-28c0-3.313,2.687-6,6-6h163c3.313,0,6,2.687,6,6
	V243z"/>
<g>
	<path fill="#FFFFFF" d="M305.043,229.273c0,1.891-0.469,3.344-1.406,4.359s-2.281,1.523-4.031,1.523s-3.094-0.508-4.031-1.523
		s-1.406-2.474-1.406-4.375s0.47-3.353,1.41-4.355c0.939-1.003,2.287-1.504,4.043-1.504c1.755,0,3.098,0.505,4.027,1.516
		S305.043,227.378,305.043,229.273z M296.707,229.273c0,1.276,0.242,2.237,0.727,2.883s1.208,0.969,2.172,0.969
		c1.932,0,2.898-1.284,2.898-3.852c0-2.573-0.961-3.859-2.883-3.859c-0.964,0-1.69,0.324-2.18,0.973
		C296.951,227.035,296.707,227.997,296.707,229.273z"/>
	<path fill="#FFFFFF" d="M315.285,235h-2.383v-5.102c0-0.63-0.112-1.103-0.336-1.418c-0.225-0.315-0.581-0.473-1.07-0.473
		c-0.667,0-1.148,0.223-1.445,0.668s-0.445,1.184-0.445,2.215V235h-2.383v-8.734h1.82l0.32,1.117h0.133
		c0.266-0.422,0.631-0.741,1.098-0.957c0.466-0.216,0.996-0.324,1.59-0.324c1.016,0,1.786,0.274,2.312,0.824
		c0.525,0.55,0.789,1.343,0.789,2.379V235z"/>
	<path fill="#FFFFFF" d="M320.121,235h-2.383v-12.156h2.383V235z"/>
	<path fill="#FFFFFF" d="M322.52,224.008c0-0.776,0.432-1.164,1.297-1.164c0.864,0,1.297,0.388,1.297,1.164
		c0,0.37-0.108,0.657-0.324,0.863c-0.217,0.206-0.541,0.309-0.973,0.309C322.951,225.18,322.52,224.789,322.52,224.008z
		 M325.004,235h-2.383v-8.734h2.383V235z"/>
	<path fill="#FFFFFF" d="M335.566,235h-2.383v-5.102c0-0.63-0.112-1.103-0.336-1.418c-0.225-0.315-0.581-0.473-1.07-0.473
		c-0.667,0-1.148,0.223-1.445,0.668s-0.445,1.184-0.445,2.215V235h-2.383v-8.734h1.82l0.32,1.117h0.133
		c0.266-0.422,0.631-0.741,1.098-0.957c0.466-0.216,0.996-0.324,1.59-0.324c1.016,0,1.786,0.274,2.312,0.824
		c0.525,0.55,0.789,1.343,0.789,2.379V235z"/>
	<path fill="#FFFFFF" d="M341.973,235.156c-1.406,0-2.506-0.388-3.297-1.164c-0.792-0.776-1.188-1.875-1.188-3.297
		c0-1.464,0.365-2.595,1.098-3.395c0.731-0.8,1.743-1.199,3.035-1.199c1.234,0,2.195,0.352,2.883,1.055s1.031,1.675,1.031,2.914
		v1.156h-5.633c0.025,0.677,0.227,1.206,0.602,1.586s0.9,0.57,1.578,0.57c0.525,0,1.023-0.055,1.492-0.164s0.958-0.284,1.469-0.523
		v1.844c-0.417,0.208-0.862,0.363-1.336,0.465C343.232,235.105,342.654,235.156,341.973,235.156z M341.637,227.797
		c-0.506,0-0.901,0.16-1.188,0.48c-0.287,0.32-0.451,0.774-0.492,1.363h3.344c-0.011-0.589-0.164-1.043-0.461-1.363
		S342.142,227.797,341.637,227.797z"/>
	<path fill="#FFFFFF" d="M354.238,230.617V235h-2.422v-11.422h3.328c1.552,0,2.7,0.282,3.445,0.848
		c0.744,0.565,1.117,1.423,1.117,2.574c0,0.672-0.186,1.27-0.555,1.793c-0.37,0.523-0.894,0.934-1.57,1.23
		c1.719,2.567,2.838,4.227,3.359,4.977h-2.688l-2.727-4.383H354.238z M354.238,228.648h0.781c0.766,0,1.33-0.128,1.695-0.383
		c0.364-0.255,0.547-0.656,0.547-1.203c0-0.542-0.187-0.927-0.559-1.156c-0.373-0.229-0.949-0.344-1.73-0.344h-0.734V228.648z"/>
	<path fill="#FFFFFF" d="M366.145,235.156c-1.406,0-2.506-0.388-3.297-1.164c-0.792-0.776-1.188-1.875-1.188-3.297
		c0-1.464,0.365-2.595,1.098-3.395c0.731-0.8,1.743-1.199,3.035-1.199c1.234,0,2.195,0.352,2.883,1.055s1.031,1.675,1.031,2.914
		v1.156h-5.633c0.025,0.677,0.227,1.206,0.602,1.586s0.9,0.57,1.578,0.57c0.525,0,1.023-0.055,1.492-0.164s0.958-0.284,1.469-0.523
		v1.844c-0.417,0.208-0.862,0.363-1.336,0.465C367.404,235.105,366.826,235.156,366.145,235.156z M365.809,227.797
		c-0.506,0-0.901,0.16-1.188,0.48c-0.287,0.32-0.451,0.774-0.492,1.363h3.344c-0.011-0.589-0.164-1.043-0.461-1.363
		S366.313,227.797,365.809,227.797z"/>
	<path fill="#FFFFFF" d="M375.324,233.258c0.416,0,0.916-0.091,1.5-0.273v1.773c-0.594,0.266-1.323,0.398-2.188,0.398
		c-0.953,0-1.647-0.241-2.082-0.723c-0.436-0.481-0.652-1.204-0.652-2.168v-4.211h-1.141v-1.008l1.312-0.797l0.688-1.844h1.523
		v1.859h2.445v1.789h-2.445v4.211c0,0.339,0.095,0.589,0.285,0.75C374.76,233.177,375.012,233.258,375.324,233.258z"/>
	<path fill="#FFFFFF" d="M384.137,235l-0.461-1.188h-0.062c-0.401,0.505-0.814,0.855-1.238,1.051
		c-0.425,0.195-0.979,0.293-1.66,0.293c-0.839,0-1.499-0.239-1.98-0.719c-0.482-0.479-0.723-1.161-0.723-2.047
		c0-0.927,0.324-1.61,0.973-2.051s1.626-0.684,2.934-0.73l1.516-0.047v-0.383c0-0.886-0.453-1.328-1.359-1.328
		c-0.698,0-1.519,0.211-2.461,0.633l-0.789-1.609c1.005-0.526,2.119-0.789,3.344-0.789c1.172,0,2.07,0.255,2.695,0.766
		s0.938,1.286,0.938,2.328V235H384.137z M383.434,230.953l-0.922,0.031c-0.693,0.021-1.209,0.146-1.547,0.375
		c-0.339,0.229-0.508,0.578-0.508,1.047c0,0.672,0.385,1.008,1.156,1.008c0.552,0,0.993-0.159,1.324-0.477
		c0.33-0.317,0.496-0.739,0.496-1.266V230.953z"/>
	<path fill="#FFFFFF" d="M388.152,224.008c0-0.776,0.432-1.164,1.297-1.164c0.864,0,1.297,0.388,1.297,1.164
		c0,0.37-0.108,0.657-0.324,0.863c-0.217,0.206-0.541,0.309-0.973,0.309C388.584,225.18,388.152,224.789,388.152,224.008z
		 M390.637,235h-2.383v-8.734h2.383V235z"/>
	<path fill="#FFFFFF" d="M395.52,235h-2.383v-12.156h2.383V235z"/>
	<path fill="#FFFFFF" d="M401.973,235.156c-1.406,0-2.506-0.388-3.297-1.164c-0.792-0.776-1.188-1.875-1.188-3.297
		c0-1.464,0.365-2.595,1.098-3.395c0.731-0.8,1.743-1.199,3.035-1.199c1.234,0,2.195,0.352,2.883,1.055s1.031,1.675,1.031,2.914
		v1.156h-5.633c0.025,0.677,0.227,1.206,0.602,1.586s0.9,0.57,1.578,0.57c0.525,0,1.023-0.055,1.492-0.164s0.958-0.284,1.469-0.523
		v1.844c-0.417,0.208-0.862,0.363-1.336,0.465C403.232,235.105,402.654,235.156,401.973,235.156z M401.637,227.797
		c-0.506,0-0.901,0.16-1.188,0.48c-0.287,0.32-0.451,0.774-0.492,1.363h3.344c-0.011-0.589-0.164-1.043-0.461-1.363
		S402.142,227.797,401.637,227.797z"/>
	<path fill="#FFFFFF" d="M412.348,226.102c0.322,0,0.591,0.023,0.805,0.07l-0.18,2.234c-0.193-0.052-0.428-0.078-0.703-0.078
		c-0.761,0-1.354,0.195-1.777,0.586c-0.425,0.391-0.637,0.938-0.637,1.641V235h-2.383v-8.734h1.805l0.352,1.469h0.117
		c0.271-0.489,0.637-0.884,1.098-1.184S411.806,226.102,412.348,226.102z"/>
	<path fill="#FFFFFF" d="M420.832,232.406c0,0.896-0.312,1.578-0.934,2.047c-0.623,0.469-1.554,0.703-2.793,0.703
		c-0.636,0-1.178-0.043-1.625-0.129c-0.448-0.086-0.867-0.212-1.258-0.379v-1.969c0.442,0.208,0.941,0.383,1.496,0.523
		s1.043,0.211,1.465,0.211c0.864,0,1.297-0.25,1.297-0.75c0-0.188-0.058-0.34-0.172-0.457c-0.115-0.117-0.312-0.25-0.594-0.398
		s-0.656-0.321-1.125-0.52c-0.672-0.281-1.166-0.542-1.48-0.781c-0.315-0.239-0.545-0.515-0.688-0.824
		c-0.144-0.31-0.215-0.691-0.215-1.145c0-0.776,0.301-1.376,0.902-1.801s1.454-0.637,2.559-0.637c1.052,0,2.075,0.229,3.07,0.688
		l-0.719,1.719c-0.438-0.188-0.847-0.341-1.227-0.461c-0.381-0.12-0.769-0.18-1.164-0.18c-0.703,0-1.055,0.19-1.055,0.57
		c0,0.214,0.113,0.398,0.34,0.555s0.723,0.388,1.488,0.695c0.682,0.276,1.182,0.534,1.5,0.773c0.317,0.239,0.552,0.516,0.703,0.828
		C420.756,231.602,420.832,231.974,420.832,232.406z"/>
</g>
<path fill="#EC1B52" d="M55.672,97.038c0,0,1.614,4.91,1.606,12.056c0,0,3.709,0.649,7.894,2.488c0,0,5.427-13.554,19.318-19.338
	c0,0-0.89-2.966-3.528-4.802c0,0-13.28,5.803-18.069,17.007c0,0,1.619-4.932-0.519-9.813C62.375,94.636,60.105,97.042,55.672,97.038
	z"/>
</svg>
