<?xml version="1.0" encoding="utf-8"?>
<!-- Generator: Adobe Illustrator 15.0.0, SVG Export Plug-In . SVG Version: 6.00 Build 0)  -->
<!DOCTYPE svg PUBLIC "-//W3C//DTD SVG 1.1//EN" "http://www.w3.org/Graphics/SVG/1.1/DTD/svg11.dtd">
<svg version="1.1" id="Layer_1" xmlns="http://www.w3.org/2000/svg" xmlns:xlink="http://www.w3.org/1999/xlink" x="0px" y="0px"
	 width="637px" height="233px" viewBox="0 0 637 233" enable-background="new 0 0 637 233" xml:space="preserve">
<rect x="-756" y="-66" fill="#1A1A1A" width="416" height="740"/>
<g id="QYv7xm.tif">
	
		<image overflow="visible" width="637" height="233" id="Layer_0" xlink:href="4DC95182.png"  transform="matrix(1 0 0 1 -206.9893 439.709)">
	</image>
</g>
<g>
	<defs>
		<rect id="SVGID_1_" width="637" height="233"/>
	</defs>
	<clipPath id="SVGID_2_">
		<use xlink:href="#SVGID_1_"  overflow="visible"/>
	</clipPath>
	<path clip-path="url(#SVGID_2_)" fill="#1F1F1F" d="M591.36,6.83c-6.653-6.654-14.913-6.77-15.498-6.772L141.721,0H22.848
		l-0.021,0.058c-0.414,0-8.673,0.061-15.404,6.791C0.518,13.754,0,23.07,0,23.07v1.238v300.23v1.333c0,0,0.518,9.312,7.424,16.217
		c6.667,6.666,14.838,6.826,15.395,6.826l0.03,0.086h118.873l0.005-0.086c0.115,0,8.776,0.051,15.634-6.808
		c6.906-6.904,7.64-16.235,7.64-16.235l434-1.333V24.308V23.07C599,23.07,598.267,13.735,591.36,6.83z"/>
	<path clip-path="url(#SVGID_2_)" fill="#292929" d="M594,323.252V26.832v-3.303c0,0,0.076-6.972-5.957-13.003
		C582.011,4.493,573.197,4,573.197,4H25.372c0,0-8.598,0.493-14.631,6.526C4.709,16.558,5,23.529,5,23.529v3.303v296.42v3.111
		c0,0-0.478,6.747,5.555,12.779C16.588,345.176,25,345.445,25,345.445V345h116v0.445c0,0,8.912-0.27,14.944-6.303
		c6.033-6.032,6.056-12.779,6.056-12.779L594,323.252z"/>
	<circle clip-path="url(#SVGID_2_)" fill="#1F1F1F" cx="29.51" cy="234.604" r="12.754"/>
	<path opacity="0.06" clip-path="url(#SVGID_2_)" fill="#FFFFFF" d="M594,244.695V25.97v-3.28c0,0,0.094-6.57-5.897-12.562
		C582.11,4.137,573.375,4,573.375,4h-61.304L594,244.695z"/>
	<g id="_x36_BN8Gg.tif" clip-path="url(#SVGID_2_)">
		
			<image overflow="visible" width="1200" height="788" id="Layer_0_2_" xlink:href="4DC95183.png"  transform="matrix(0.4056 0 0 0.4056 56 52.9995)">
		</image>
	</g>
	<g clip-path="url(#SVGID_2_)">
		<rect x="439" y="116" fill="#292929" width="4" height="18"/>
		<rect x="573" y="56" fill="#292929" width="32" height="4"/>
		<rect x="440" y="154" fill="#292929" width="2" height="14"/>
		<rect x="440" y="188" fill="#292929" width="2" height="15"/>
		<path fill="#1F1F1F" d="M628.138,66.496c-7.888-7.888-17.581-8.225-18.276-8.227L609.791,58H468.884l-0.024,0.269
			c-0.491-0.001-10.682,0.171-18.66,8.149C442.014,74.604,441,85.746,441,85.746v1.468v355.883v1.58c0,0,1.014,11.037,9.199,19.222
			c7.902,7.903,17.789,8.045,18.449,8.045l0.235,0.057h140.907l0.006-0.057c0.137,0.002,10.211,0.086,18.341-8.045
			c8.186-8.185,8.862-19.222,8.862-19.222v-1.58V87.214v-1.468C637,85.746,636.323,74.681,628.138,66.496z"/>
		<path fill="#292929" d="M633,440.386V89.021v-3.915c0,0-0.088-7.742-7.238-14.893C618.609,63.063,607.985,63,607.985,63H470.689
			c0,0-10.462,0.063-17.613,7.213S446,85.106,446,85.106v3.915v351.365v3.689c0,0,0.08,7.998,7.23,15.148
			c7.152,7.15,17.77,7.47,17.77,7.47V467h137v-0.307c0,0,10.617-0.319,17.769-7.47c7.15-7.15,7.231-15.148,7.231-15.148V440.386z"/>
		<circle fill="#1F1F1F" cx="539.337" cy="439.708" r="18.968"/>
		<rect x="456" y="117" fill="#1A1A1A" width="166" height="296"/>
		<g>
			<circle fill="#1F1F1F" cx="539.45" cy="78.068" r="3.727"/>
			<g>
				<circle fill="#1F1F1F" cx="519.127" cy="94.327" r="3.726"/>
				<path fill="#1F1F1F" d="M559.773,91h-27.098c-2.059,0-4.008,1.469-4.008,3.527c0,2.019,1.332,3.454,3.332,3.515V98h27.773
					c2.058,0,3.726-1.441,3.726-3.5C563.499,92.442,561.831,91,559.773,91z"/>
			</g>
		</g>
		<g id="Qm8oBO.tif">
			
				<image overflow="visible" width="320" height="547" id="Layer_0_1_" xlink:href="4DC9518C.png"  transform="matrix(0.5188 0 0 0.5188 456 117)">
			</image>
		</g>
		<path opacity="0.06" fill="#FFFFFF" d="M633,350.061V89.021v-3.915c0,0-0.088-7.742-7.238-14.893
			C618.609,63.063,607.985,63,607.985,63h-73.164L633,350.061z"/>
		<rect x="111" y="87" fill="#FFFF00" width="92" height="56"/>
	</g>
</g>
</svg>
