<?xml version="1.0" encoding="utf-8"?>
<!-- Generator: Adobe Illustrator 15.0.0, SVG Export Plug-In . SVG Version: 6.00 Build 0)  -->
<!DOCTYPE svg PUBLIC "-//W3C//DTD SVG 1.1//EN" "http://www.w3.org/Graphics/SVG/1.1/DTD/svg11.dtd">
<svg version="1.1" id="Layer_1" xmlns="http://www.w3.org/2000/svg" xmlns:xlink="http://www.w3.org/1999/xlink" x="0px" y="0px"
	 width="800px" height="600px" viewBox="0 0 800 600" enable-background="new 0 0 800 600" xml:space="preserve">
<g>
	<g>
		<defs>
			<path id="SVGID_1_" d="M800,600V121.5L369,121v165h31c0,0,20.2-1.4,35.8,14.2s13.2,32.3,13.2,34.6V600H800z"/>
		</defs>
		<clipPath id="SVGID_2_">
			<use xlink:href="#SVGID_1_"  overflow="visible"/>
		</clipPath>
		<g clip-path="url(#SVGID_2_)">
			<path fill="#47505E" d="M753.8,563c-0.1-0.5-0.2-0.9-0.2-1.4l-0.2,0C753.6,562.1,753.7,562.5,753.8,563z"/>
			<path fill="#47505E" d="M828.3,616.2c0,0.1,0.1,0.2,0.1,0.3c0.6,0.1,1.1,0.3,1.7,0.4C829.6,616.6,828.9,616.4,828.3,616.2z"/>
			<path fill="#47505E" d="M762.9,578.6c3.9-1.7,7.6-3.2,11.1-4.5c-3.7,0.9-7.6,2-11.6,3.2C762.6,577.8,762.8,578.2,762.9,578.6z"/>
			<path fill="#47505E" d="M759,580.4c-0.3-0.6-0.5-1.1-0.8-1.7c0,0,0,0,0,0c0.2,0.6,0.3,1.2,0.5,1.8
				C758.8,580.5,758.9,580.4,759,580.4z"/>
			<polygon fill="#47505E" points="529.1,668.7 517.2,609.6 513,610.4 516.2,626.4 505.7,628 502.5,610.9 498.3,611.7 504.5,645.5 
				508.8,644.7 506.5,632.3 517,630.7 524.8,669.5 			"/>
			<path fill="#47505E" d="M819.5,167.7l-0.4-0.6c-0.5-1.8-4.8-18.7-4.8-105.5h-10.1c0,84.7,4.1,104.6,5.3,108.7l6.3,33.7l-2.1,0.4
				l-3.9-19.6l-6.1-35.8l-12-53.4l-9.9,2.2l0.6,2.9h-20.9l-36.3,6.8L723,96.3l-4.3,0.8l2.2,11.2l-49.2,9.2L668,98.8l-5.7,1.1
				l3.7,18.7l-50.9,9.6l-5.7-29.4l-5.7,1.1l5.7,29.4l-22,4.1l-6.9-37.1l-4.3,0.8l6.9,37.1l-22.2,4.2l-8.1-40l-31.6-15l5.1,28.9
				c0,0.1,2,12.3,0,21.1c-1.1,5.2-1.2,8.4-0.9,10.8l-17.4,3.6l-7.2-40.7c4-5.3,6.7-8.8,7.2-9.4l-6.9-5.3
				c-0.4,0.6-32.3,42.5-52.9,68.5c-1.5-3.1-2.7-8-3.2-12.7l3.3-51.3l-4.3-0.3l-3.3,51.7l0,0.2c0.2,2.3,1.3,11,4.6,16.1
				c-5.9,7.4-10.5,13-12.7,15.3c-5.5,5.8-11.8,8.4-15.6,9.5L404.1,172L364,89.3l-15.6,7.6l26,53.5l-15.7,3.1l0.8,4.3l16.8-3.3
				l9.4,19.3l-22.7,5.1l0.9,4.2l5-1.1l10.8,52.4l-16.7,3.3l0.8,4.3l34-6.8l5.9,33.6l-40.9,9.9l1,4.2l40.6-9.9l2.2,12.6l-43.8,9.4
				l0.9,4.2l14.3-3.1l4.4,22.7l-17.7,3.2l0.8,4.3l17.7-3.2l1.4,7.4l-21.9,4.6l0.9,4.2l21.9-4.5l2,10.1l-24.7,5.2l0.9,4.3l24.7-5.2
				l4.5,23.1l-30.1,6.3l0.9,4.3l30-6.3l4.5,22.9l-37.9,7.5v61.1l49.4-9.6l9.8,50.1L363,519.4l0.8,4.3l56.8-10.8l3.4,17.5l-13.3,5.5
				l-11.6,3.4l2.3,22.3l-39.9,8.9l3.8,17l53.9-12l13.1-2.5l8,41L363,628.4l0.8,4.3l31.1-5.9l9.2,42.8l4.2-0.9l-9.2-42.7l26.3-5
				l8.1,48.5l4.3-0.7l-8.1-48.5l23.8-4.5l9.7,53.8l4.3-0.8l-9.7-53.8l24.1-4.5l13.2,59.2l4.2-0.9l-13.2-59.1l43.8-8.3
				c5.9,33.9-0.3,60.8-0.4,61l4.2,1c0.2-0.8,3.1-13.2,3.1-31.9c0-9-0.7-19.6-2.7-30.9l32.1-6.1l0.5,2.7l0.6-0.1l20.2,56.9v15.2h8.7
				v-16.7l-20.3-57.1l65.8-12.5l14.3,80.5l0.1,0c-1,1.7-1.6,2.7-1.7,2.8l4.9,3.1c0.2-0.3,1.9-3.1,4.6-7.9l0.9,0.4
				c0.1-0.2,6.3-14.5,23.2-34.3l-0.4,23.7c-1.5,1.3-3,2.5-4.5,3.8c-7.8,6.6-14.5,12.2-18.7,14.7l5.2,8.7c4.4-2.7,10.6-7.8,17.7-13.8
				l-0.1,4.7l8.7,0.1l0.2-12.2c12.6-10.5,26.8-21.7,38.2-26.2c7.2-2.8,15.1-5,23.2-6.6c-0.7,2.1-1.7,3.7-2.6,5
				c-1.2,1.6-2.5,2.7-3.7,3.5l-0.2-1c-42.5,7-53.7,25.8-54.1,26.5l4.4,2.5l4.4,2.6c0.1-0.1,7.5-11.8,33.9-18.9L710.2,661l4.9,8.9
				l36.7-20.4l-0.3-0.6c2.4-0.8,7-2.4,12.8-4.3c-0.5,1.7-1.2,3.3-1.8,4.8c-3,0.9-5.5,1.6-6.9,2c-6.6,1.7-14.9,7.3-15.2,7.5l2.5,3.6
				c0.1-0.1,7.9-5.4,13.8-6.9c0.8-0.2,1.9-0.5,3.1-0.9c-2.3,4-4.4,6.6-4.4,6.7l3.4,2.7c0.3-0.3,3.8-4.7,6.9-11.2
				c9.4-2.9,22.7-7.5,30-11.3c6-3.1,16.8-6.2,24.7-8.5c2.5-0.7,4.5-1.3,6-1.8c1.4,1.7,2.9,3.4,4.5,5c18.7,18.7,42.8,21.9,43.8,22.1
				l1.3-10.1c-0.2,0-21.7-3-37.9-19.2c-0.1-0.1-0.2-0.2-0.3-0.3c18.8,4.6,35.9,9.7,36.1,9.8l1.8-6l2.2,9.5l12.7-2.9l-13-57.1
				l2.2-0.4l-0.8-4.3l-2.3,0.5l-1.3-5.9c1.7-5.3,2.2-8.7,2.2-9l-4.3-0.5c0,0,0,0.1,0,0.2l-5.7-25.3l11.3-2.4l-1.8-8.5l-10.4,2.2
				c3.5-8.4,4.7-15.8,4.7-21.9c0-7.4-1.8-13-3.6-16.9c-0.3-6-1.1-12.3-2.6-18.9c-1.5-6.7-4.6-22.1-8.4-41.7l2.7-0.5l17.2,86.7l9.9-2
				L869.3,427l2.5-0.5l3.3,16.3l5.7-1.1l-3.3-16.3l1.2-0.2l-1.7-8.5l-1.3,0.2l-9.3-46.8l15.6-3l-1.1-5.7l-15.7,3l-9.9-49.7l26.7-5.3
				l-1.1-5.7l-26.7,5.3l-9.7-48.5L882,253l-0.9-4.3l-37.4,7.5l-9.9-49.6L882,198l-1-5.7l-48.3,8.7l-2.5-12.7l-1.8-86.6l-5.8,0.1
				l1.8,86.8l0,0.3l2.6,13l-1.2,0.2l-6.4-34L819.5,167.7z M762,106.5h16.4l7.7,47.5l-50.3,9.1l-9.6-49.8L762,106.5z M799.9,611.8
				c-7.8-3.1-22.1-8.2-35.8-10.7c-1.4-5.5-2.8-11.1-4.2-16.3c0.4-0.2,0.8-0.4,1.2-0.5c1.6,2.7,3.6,5.1,5.9,7
				c9,7.2,37.5,17.1,48.7,20.7c0.2,0.7,0.5,1.4,0.7,2.1c-1.9-0.3-3.8-0.7-5.6-0.9C807.1,612.5,803.5,612.1,799.9,611.8z
				 M766.9,612.6c-0.5-2.2-1-4.5-1.6-6.8c7,1.4,14.2,3.5,20.4,5.6C779.4,611.4,773.1,611.8,766.9,612.6z M726.8,604.8
				c10.3-7.8,20.1-13.6,29.1-18.1c0,0.1,0,0.1,0,0.2c1.3,5,2.2,9.4,2.8,13.4c-3-0.4-6-0.6-8.8-0.6
				C741.4,599.6,733.4,601.9,726.8,604.8z M769.6,587.8c-1.8-1.4-3.3-3.3-4.6-5.4c8.5-3.7,15.9-6.2,21.7-8.2c1.6-0.5,3.1-1,4.4-1.5
				c2.2-0.8,5.8-1.8,9.9-2.9c5.8-1.6,12.8-3.5,19.9-5.9c-2.6,4-4.8,8.1-6.1,12.1c-2.6,8.3-3.5,19.3-0.7,30.8
				C801.8,602.7,777.3,594,769.6,587.8z M540.2,547.2l1.5,8.4l-15.5,2.7c-0.5-2.7-1-5.4-1.6-8.2L540.2,547.2z M462.1,549.5
				l-8.8-42.9l11.4-2.2c3,16.1,5.5,29.7,6.4,34.9c0.9,5.3-0.6,8.4-4.6,9.3L462.1,549.5z M544.5,546.5l12.2-2.3l5.7,29.4l-12.5,2.7
				L544.5,546.5z M504.1,545.1c-3.9-0.1-9.1,0.4-15.8,1.8c0.3-1.5,0.4-3.1,0.4-4.8c0-1.8-0.2-3.6-0.5-5.7
				c-0.9-5.2-3.3-18.2-6.2-33.8l27.9-5.5c0.5,2.8,1.1,5.6,1.6,8.4l-23.6,3.8l0.7,4.3l23.8-3.8c2.2,11.5,4.3,22.5,6.3,32.6
				L504.1,545.1z M514.3,496.4l14.9-2.9l6.5,31.7l-6.8,1.3l0.8,4.3l6.9-1.3l1.9,9.3l-15.6,2.9C520.3,527.8,517.4,512.5,514.3,496.4z
				 M530.5,181.1l-34.2,7.3l-1.5-7.6l34.2-7.3L530.5,181.1z M531.9,165.9c5-1.6,12.4-3,15.2-1.5c1.4,0.9,3.1,6.5,4.8,14l-17,2
				L531.9,165.9z M621.2,190.5l4.5,23.1l-47.7,9.1l-4.6-22.5L621.2,190.5z M572.6,195.9l-4.7-23.3l21.6-4.1l4.3,23.2L572.6,195.9z
				 M789.1,464.1l-48.9,9.9l-4.1-21l49.3-9.6L789.1,464.1z M789.6,442.6l21.8-4.3l3.9,20.5l-21.9,4.4L789.6,442.6z M747.1,554
				l-50.1,9.5l-6.9-42.9l-2.5-0.5l-11.3-55.5l51.2-10L747.1,554z M766.5,500.9l9,47.3l-15.7,3.4l-4.1,0.8l-9.4-47.5L766.5,500.9z
				 M757.9,560.8l3.6-0.7l36.3-7.7c-5.8,3.9-16.7,10-37.6,18.8C759,567.2,758.3,563.4,757.9,560.8z M753.8,563
				c-0.1-0.5-0.3-0.9-0.4-1.3l0.2,0C753.7,562.1,753.7,562.5,753.8,563z M511.9,269l34.8-6.9l4.6,23.1l-34.9,6.9L511.9,269z
				 M482.5,270.3l-2.4-12l20.2-3.9l2.3,11.9L482.5,270.3z M643.9,445.5l12.9-2.2L660,459l-34.2,6.7l-9.2-45.6l-0.3-1.6l21.4-4.1
				L643.9,445.5z M669,441.2l0.7,15.9l-5.5,1.1l-3.2-15.6L669,441.2z M531.7,484.1l-6.7-32.4l13.1-2.5l6.3,32.4L531.7,484.1z
				 M579.3,483.7l1.9,10.9l-10.2,1.7l-2-10.6L579.3,483.7z M546.7,447.6l13.7-2.6l6.5,32.2L553,480L546.7,447.6z M586,377.9
				l-11.1,2.1l-1.9-9.3l11.3-2.2L586,377.9z M588.6,367.6l10-2l2.1,9.6l-10.4,1.9L588.6,367.6z M595.4,406.9l10-2.3l1.6,9.9
				l-9.9,1.9L595.4,406.9z M592.7,417.2l-10,1.9l-1.8-8.9l10.2-2.4L592.7,417.2z M580.1,406l-4.4-21.7l11-2.1l3.7,21.4L580.1,406z
				 M591,381.4l10.4-1.9l3.3,20.8l-10,2.3L591,381.4z M578.4,420l-5.8,1.1l-8.6-48.6l4.7-0.9L578.4,420z M561.6,383.9l-26.3,5.5
				l-2.1-10.7l26.5-5.3L561.6,383.9z M562.4,388.1l6,33.8l-8,1.5l-6.8-33.5L562.4,388.1z M556.1,424.3l-13.5,2.6l-1.7-8.8l13.4-2.7
				L556.1,424.3z M573.6,426.8l6-1.2l9.5,47.3l-7,1.4L573.6,426.8z M571.3,438.5l-7.5,1.4l-2.2-10.8l7.8-1.5L571.3,438.5z
				 M559.5,440.8l-13.6,2.6l-2.1-10.8l13.5-2.6L559.5,440.8z M537.3,445l-13.2,2.5l-2.2-10.7l13.3-2.6L537.3,445z M564.6,444.2
				l7.4-1.4l5.7,32.3l-6.6,1.3L564.6,444.2z M627.5,474.2l22.5-4.4l9.9,46.4l-23,4.3L627.5,474.2z M664.3,515.9l-10-46.9l16.3-3.2
				l10.8,53.2L664.3,515.9z M617.3,467.4l-24,4.7l-9.5-47.3l24-4.6l0.2,1.5L617.3,467.4z M642,413.6l8.3-1.6l5.6,27.1l-8.6,1.5
				L642,413.6z M654.5,411.1l9.1-1.8l5.2,26.6l0,0.9l-8.7,1.5L654.5,411.1z M615.4,412.8l-1.6-10.2l21.8-5.1l9.5-10.4l4,19.1
				L615.4,412.8z M649,384.3l9.5-1.4l4,20.8l-9.2,1.8L649,384.3z M633.4,393.6l-20.2,4.7l-3.8-23.9l-2.3-10.5l46-9.1l4.6,23.8
				l-12.3,1.9L633.4,393.6z M586.7,309.6l4.4,21.8l6.2,28.6l-9.7,1.9l-8.8-50.7L586.7,309.6z M560.9,310.5l-4.4-21.9l25-5l4.4,21.7
				L560.9,310.5z M583.3,362.7l-11.5,2.3l-10.1-50.3l12.9-2.7L583.3,362.7z M605.9,358.3L601,336l21.5-3.9l4.3,22.1L605.9,358.3z
				 M626.7,331.3l21-3.8l4.2,21.6l-21,4.2L626.7,331.3z M621.6,327.8l-21.6,3.9l-0.5-2.1l-4.4-21.6l21.8-3.8L621.6,327.8z
				 M621.3,303.3l21.1-3.7l4.6,23.6l-21,3.8L621.3,303.3z M594.4,303.7l-9.9-49.1l22.1-4.2l5,25.1l25.1-5l4.8,25L594.4,303.7z
				 M610.8,249.6l21.1-4l4,20.6l-20.9,4.2L610.8,249.6z M637.6,244.5l25.1-4.4l9.8,49.8l-25.3,4.4L637.6,244.5z M667,239.4l25.4-4.4
				l9.9,49.7l-25.5,4.5L667,239.4z M636.8,240.2l-4.6-23.5l51.2-9.8l2.1,10.4l0.1,0.3l5.5,13.2L636.8,240.2z M631.1,241.3l-47.5,9.1
				l-4.7-23.4l47.7-9.1L631.1,241.3z M575.1,252l-24.9,5l-10.1-50.2l24.8-4.9L575.1,252z M575.9,256.3l4.7,23.1l-25,5l-4.6-23.1
				L575.9,256.3z M552.2,289.4l4.4,21.9l-35,7.3l-4.3-22.3L552.2,289.4z M557.5,315.6l10.1,50.2l-35.4,7l-9.7-50L557.5,315.6z
				 M523.6,374.6l-13.9,2.8l-9.9-50.1l14.1-2.6L523.6,374.6z M505.4,378.2l-13.5,2.7c-3.8-19.4-7.1-36.8-9.8-50.4l13.4-2.5
				L505.4,378.2z M524.7,380.3l2.1,10.8l-13.7,2.9l-2.3-10.9L524.7,380.3z M536.2,393.6l13.2-2.7l4.1,20.4l-13.4,2.7L536.2,393.6z
				 M531.6,415.6l-13.5,2.7l-4.1-20.1l13.7-2.8L531.6,415.6z M513.9,419.1l-14,2.8c-1.3-6.8-2.6-13.4-3.9-20l13.7-2.8L513.9,419.1z
				 M532.4,419.8l1.7,8.7l-13.4,2.6l-1.8-8.6L532.4,419.8z M516.5,432l-14.2,2.7c-0.6-2.9-1.1-5.7-1.6-8.5l14-2.8L516.5,432z
				 M498.1,435.5l-15.8,3.1l-1.7-8.4l15.9-3.2C497,429.8,497.5,432.7,498.1,435.5z M517.7,437.6l2.2,10.6l-14.4,2.7
				c-0.7-3.5-1.4-7.1-2.1-10.6L517.7,437.6z M501.2,451.8l-15.7,3l-2.1-10.5l15.8-3.1C499.9,444.7,500.5,448.3,501.2,451.8z
				 M520.8,452.5l6.7,32.4l-14.8,2.9c-2.1-10.7-4.2-21.6-6.3-32.6L520.8,452.5z M564.7,486.5l2,10.5l-10.1,1.7l-2-10.3L564.7,486.5z
				 M552.3,522l-12.3,2.4l-6.5-31.7l12.6-2.5L552.3,522z M571.8,500.6l10.2-1.7l3,16.8l-9.9,1.9L571.8,500.6z M570.8,518.4l-10,1.9
				l-3.4-17.3l10.1-1.7L570.8,518.4z M571.6,522.7l1.8,9.6l-9.9,1.8l-1.8-9.5L571.6,522.7z M575.9,521.9l9.8-1.9l1.7,9.7l-9.7,1.8
				L575.9,521.9z M583.6,482.8l35.5-6.9l9.3,46.1l-36.7,6.8L583.6,482.8z M675.5,456l-0.9-20.5l0-0.2l-5.2-27l49.4-9.6l8.6,47.2
				L675.5,456z M668.2,402.6l-9.5-48.9l51.2-10.2l-0.7,3.1l8.5,46.3L668.2,402.6z M657.6,348l-9.6-49.4l55.1-9.7l8.9,44.7l-0.8,3.7
				L657.6,348z M718,333.7l-9.2-45.9l44.9-9l9.3,48.3l-45.5,9L718,333.7z M708,283.6l-9.9-49.7l45.2-9.6l9.7,50.2L708,283.6z
				 M696.9,229.7l-5.8-13.8l-7.5-38.1l48.8-9.8l10,52L696.9,229.7z M682.6,202.7l-29.5,5.6l-4.1-23.4l29-5.8L682.6,202.7z
				 M648.8,209.2l-17.4,3.3l-4.5-23.1l17.8-3.6L648.8,209.2z M539.2,202.5l-3.6-17.9l17.1-2c1,5.2,2,11,2.7,16.6L539.2,202.5z
				 M531.3,185.3l3.6,18l-34.4,6.9l-3.4-17.6L531.3,185.3z M535.8,207.6l10.1,50.2l-34.8,6.9l-9.8-50.2L535.8,207.6z M487.9,252.5
				l-8.6,1.7l-1.6-8.2l8.8-1.7L487.9,252.5z M490.7,243.3l7.1-1.4l1.6,8.3l-7.3,1.4L490.7,243.3z M497,237.6l-20.2,4l-4.2-21.4
				l20.3-4L497,237.6z M478.2,271.2l-40.3,7.9l-9-50.1l39.4-7.8L478.2,271.2z M503.4,270.7l2.3,11.7l-30.6,6l-2.6-11.6L503.4,270.7z
				 M506.5,286.6l1.4,7.2l-30.2,6.4l-1.7-7.8L506.5,286.6z M508.8,298.1l4.3,22.2l-31.7,5.9c-1.9-9.8-3.3-17.2-4.1-21.3L508.8,298.1
				z M477.1,327l-28.4,5.3l-4.2-20.4l28.5-6.1C473.8,310,475.2,317.3,477.1,327z M477.9,331.3c2.6,13.6,6,31,9.8,50.5l-27.8,5.5
				l-10.4-50.7L477.9,331.3z M493,386.6l13.6-2.7l2.3,11l-13.7,2.8C494.5,393.9,493.7,390.2,493,386.6z M490.9,398.5l-16,3.3
				l-2.3-11.3l16.1-3.2C489.5,391.1,490.2,394.8,490.9,398.5z M470.7,402.8l-7.3,1.5l-2.3-11.4l7.3-1.5L470.7,402.8z M491.8,402.8
				c1.3,6.5,2.6,13.2,3.9,19.9l-15.9,3.2l-4-19.8L491.8,402.8z M478,439.4l-7.5,1.4c-2.2-11.9-3.8-20.4-4-21.6l-2.2-10.8l7.2-1.5
				L478,439.4z M449.4,422.6c0.1,0.4,0.4,2.4,1,5.6l-40.4,8.5l-3.1-15.9l40.3-8.6L449.4,422.6z M451.3,432.4
				c0.6,3.3,1.4,7.3,2.2,11.8l-40.4,7.8l-2.2-11.1L451.3,432.4z M479.1,445.1l2.1,10.5l-7.7,1.5c-0.7-3.6-1.3-7.2-2-10.5
				L479.1,445.1z M502.1,456.1c1.1,5.8,2.3,11.6,3.4,17.4l-15.6,3l-3.5-17.5L502.1,456.1z M485.6,477.4l-7.9,1.5
				c-1.1-5.9-2.2-11.9-3.3-17.6l7.7-1.5L485.6,477.4z M506.2,477.7c0.7,3.7,1.4,7.3,2.1,10.9l-15.5,3l-2.2-10.9L506.2,477.7z
				 M488.6,492.5l-8.1,1.6c-0.7-3.6-1.3-7.3-2-10.9l8-1.6L488.6,492.5z M540.9,528.6l12.2-2.4l1.8,9.4l-12.1,2.3L540.9,528.6z
				 M593.4,537.4l36.6-6.8l8.9,44l-35.3,6.7L593.4,537.4z M638.6,529l24.4-4.5l19.5,3.6l5.5,34.1c0,1,0,2-0.1,3l-40.5,7.7L638.6,529
				z M697.8,572.2l51.4-9.8c0.9,3.2,2.2,7.8,3.7,13.3c-15.9,5.6-32.5,13.8-45.4,25.5c-3.7,3.4-7.1,6.7-10.3,9.9L697.8,572.2z
				 M774,574.1c-3.4,1.3-7.1,2.7-11.1,4.5c-0.2-0.4-0.4-0.8-0.6-1.2C766.4,576.1,770.3,575,774,574.1z M758.3,578.7
				c0.2,0.6,0.5,1.1,0.8,1.7c-0.1,0-0.2,0.1-0.3,0.1C758.5,579.9,758.4,579.3,758.3,578.7C758.2,578.7,758.2,578.7,758.3,578.7z
				 M805.9,563.9c-2,0.2-14.2,1.4-30.1,5.2c13.7-6.3,26.3-13.1,30.9-18.6l30.2-6.4c-3.8,4.2-7.9,8.9-11.6,13.6
				C818.5,560.2,811.8,562.3,805.9,563.9z M779.8,547.3l-9-47.3l24-4.8l8.6,47.1L779.8,547.3z M745.5,500.7l-4.4-22.4l48.9-9.9
				L794,491L745.5,500.7z M794.2,467.5l22-4.4l4.3,22.6l-22.2,4.4L794.2,467.5z M815.7,437.5l22.9-4.5l8.7,47.4l-22.5,4.5
				L815.7,437.5z M733,444.8l-8.6-47.2l50.3-9.7l9.1,47L733,444.8z M723.4,391.9l-8.2-45.1l1-4.5l48-9.5l9.5,49.4L723.4,391.9z
				 M768.4,332l18.7-3.7l11,49.2l-20.2,3.9L768.4,332z M791.3,327.4l27.4-5.4l8.6,49.8l-25,4.9L791.3,327.4z M767.3,326.3L758,278
				l50.8-10.2l9,48.5L767.3,326.3z M757.2,273.7l-4.6-24.1l51.1-9.7l4.4,23.6L757.2,273.7z M751.7,245.3l-4.2-21.9l51.1-10.8l4.3,23
				L751.7,245.3z M774.5,213.2l-27.8,5.9l-10-51.9l50.1-9l3.6,22.6c-2.6,0.8-7.1,2-12.8,2.9c-3.3,0.6-5.6,2.1-6.8,4.4
				c-1.9,3.8-0.2,8.3,0.4,9.6L774.5,213.2z M722,114l9.6,49.8l-48.8,9.9l-9.9-50.4L722,114z M616.2,133.9l50.9-9.6l10,50.5l-51,10.3
				L616.2,133.9z M610.5,135l9.9,51.3l-22.4,4.5l-9.6-51.7L610.5,135z M534.8,135.3c2.3-10.5,0.1-23.9,0-24.5l-2.2-12.3l12.5,6
				l6.9,34.3l-18.1,3.7C533.9,141,534,138.9,534.8,135.3z M562.1,144.1l22.1-4.2l4.5,24.3l-21.7,4.1L562.1,144.1z M553.9,147.2
				l10.2,50.4l-4.4,0.9c-0.5-3.3-1.4-9.6-2.6-16c-3.3-17.2-5.9-20.7-7.9-21.8c-4.4-2.4-12.9-0.5-17.5,0.8l0.4-9.8L553.9,147.2z
				 M497.3,111.7l6.5,36.9l-16.7,3.4l-4.8-20.8C487.8,124.1,493,117.3,497.3,111.7z M478.9,135.7l4,17.1l-19.9,3.3
				C468.1,149.6,473.6,142.5,478.9,135.7z M490.8,160.2l36.9-7.6l-0.5,10.4l-0.4,0.1l1.2,6.2l-34.1,7.3L490.8,160.2z M438.9,185.8
				c2.7-2.8,8.7-10.2,16.1-19.5l27.3-4.6l9.8,50.2l-63.9,12.7l-2.2-12.5l-4.7-15C426.1,195.4,432.8,192.2,438.9,185.8z M404.3,201.3
				l4.7,15l2.1,11.8l-9.7,1.9l-7.6-42.8L404.3,201.3z M373.1,181l14.5-3.2l0.2,0.3l9.3,52.8l-13.2,2.6L373.1,181z M402.1,234.3
				l9.8-1.9l9,50.2l-9.9,2.1L402.1,234.3z M438.7,283.3l29.6-5.8l5.2,23.7l-29.9,6.4L438.7,283.3z M421.7,286.8l4.9,24.2l-25.5,4.6
				l-4.6-23.3L421.7,286.8z M382.4,295.3l9.9-2.1l4.6,23.2l-10,1.8L382.4,295.3z M427.5,315.2l4.2,20.4l-25.5,5.3l-4.2-21.2
				L427.5,315.2z M387.7,322.4l10-1.8l4.2,21.3l-9.9,2.1L387.7,322.4z M392.8,348.2l39.8-8.3l4.7,23.1l-40,8.3L392.8,348.2z
				 M398.1,375.6l40-8.3l4.8,23.3l-40.3,8L398.1,375.6z M444,396.3l2.4,11.6l-40.3,8.6l-2.4-12.2L444,396.3z M366.3,411.7l33.2-6.6
				l4.2,21.6l-37.4,7.1V411.7L366.3,411.7z M366.3,438.2l38.3-7.2l1.3,6.5l-39.5,8.3L366.3,438.2L366.3,438.2z M366.3,461.1v-10.8
				l40.4-8.5l2.2,11L366.3,461.1z M421.1,492.8l9.3-1.9l-0.9-4.2l-9.2,1.9l-6-30.8l40.3-7.8c2.8,14.9,6.3,33.6,9.4,50.3l-39.9,7.6
				L421.1,492.8z M424.8,512l11.2-2.1l3.5,17l-11.3,2.2L424.8,512z M440.3,509.1l8.8-1.7l8.8,42.9l-8.8,1.7L440.3,509.1z
				 M440.4,531.1l4.4,21.6l-11.5,2.2l-4.2-21.6L440.4,531.1z M416,538.3l8.9-3.7l4.1,21.1l-10.5,2L416,538.3z M403.8,542.4l8-2.3
				l2.4,18.6l-8.5,1.9L403.8,542.4z M444.6,613l-8-41l24.8-4.7l8.4,40.9L444.6,613z M474,607.5l-8.4-41l4.1-0.8
				c0.4-0.1,1.5-0.3,2.8-0.8c7.6-0.2,23.5-1.9,36.5-11.9l11.3-2.1c4.1,21.2,7.3,37.7,8.9,46.1L474,607.5z M533.5,596.2
				c-1.3-6.7-3.5-18.5-6.4-33.6l15.4-2.7l6,33.5L533.5,596.2z M552.8,592.6l-2.2-12l12.6-2.7l2.4,12.3L552.8,592.6z M573.8,587
				l-8.6-44.4l24-4.5l10.3,43.9L573.8,587z M647.6,581.8l39.8-7.6c-3.2,32.9-18.1,65-26.7,81.2L647.6,581.8z M677.4,633.8
				c0.7-1.7,1.4-3.4,2.1-5.2c3.2-8.2,6.5-17.9,9.2-28.4l-0.3,20.3C684.1,625.2,680.5,629.7,677.4,633.8z M697.1,617.5
				c4-4.2,8.4-8.5,13.3-13c12.3-11.1,28.3-19,43.7-24.4c0.2,0.8,0.4,1.5,0.6,2.3c-9.8,4.9-20.8,11.3-32.3,20.2
				c-13.1,10.1-20.9,21.2-25.6,30.4L697.1,617.5z M697.1,643.3c2.4-6.5,6.7-15.3,14.3-24.3c1.9-1.6,18.8-15.1,38.5-15.1
				c2.9,0,6.1,0.3,9.4,0.7c0.3,3.3,0.4,6.2,0.3,8.9c-10.1,1.7-19.9,4.3-28.7,7.8C720.5,625.5,708.4,634.2,697.1,643.3z M828.3,616.2
				c0.6,0.2,1.2,0.4,1.8,0.6c-0.6-0.1-1.1-0.3-1.7-0.4C828.4,616.4,828.4,616.3,828.3,616.2z M805.2,622.6
				c-11.4,2-24.3,5.5-34.9,8.6c-0.2-2.3-0.7-5.2-1.3-8.6C781,621.1,793.4,621.1,805.2,622.6z M758.7,631.9c1.8-2.4,3.1-5.3,4-8.6
				c0.6-0.1,1.3-0.2,1.9-0.3c0.7,3.8,1.2,7,1.4,9.3c-4.7,1.4-8.7,2.7-11.6,3.6C755.9,635,757.3,633.7,758.7,631.9z M767.9,647.8
				c0.6-1.5,1.1-3.1,1.5-4.8c0.7-0.2,1.4-0.5,2.2-0.7c5.8-1.1,11.7-1.9,16.8-1.9C782.2,642.9,774.5,645.6,767.9,647.8z M748.6,643.7
				l-0.6-1c1.6-0.3,3.3-0.6,5.1-0.9l-0.1-0.6c2.6-0.9,7.2-2.4,13-4.1c-0.1,0.7-0.2,1.4-0.3,2C759,640.5,752.8,642.3,748.6,643.7z
				 M770.2,638.1c0.1-0.8,0.2-1.6,0.2-2.4c9.1-2.7,20.2-5.7,30.4-7.8c-10,3.3-21.1,7-30.4,10.2C770.4,638,770.3,638,770.2,638.1z
				 M819.1,629.1c-7.2,2.1-16.8,4.8-23.3,7.8c-1.8-0.4-3.8-0.7-6-0.8c12-4,24.2-8,32.2-10.6c0.5,0.8,1,1.6,1.6,2.3
				C822.2,628.2,820.6,628.7,819.1,629.1z M874.8,628.5c-1.3-0.4-3-0.9-5.2-1.5c-3.7-1.7-8.5-3.6-13.8-5.6l16-5.9L874.8,628.5z
				 M870.8,611.3l-21.3,7.8c-3.4-1.2-6.8-2.5-10-3.6c12.8-7.5,21.2-16.7,26.6-24.8L870.8,611.3z M834.1,613.6
				c-3.2-1.1-6-2.1-8.2-2.8c-2.3-6-3.3-12-3.4-17.5l42.2-8.4C859,594.5,849.5,605.4,834.1,613.6z M863.9,580.6l-41.2,8.2
				c0.3-3.5,0.9-6.8,1.8-9.7c2.2-7,8.4-15.1,14.9-22.5c6.3-3.1,12.1-6.6,16.6-10.8L863.9,580.6z M854.8,540.8
				c-1.7,1.9-3.8,3.6-6.1,5.2c1.7-1.9,3.4-3.8,4.9-5.5l1.1-0.2L854.8,540.8z M807.6,541.4l-8.6-47l22.2-4.4l8.9,46.6L807.6,541.4z
				 M862,528.6l-0.2-1.3c2.3-5.3,4-11.5,5.1-18.5C866.6,514.5,865.3,521.1,862,528.6z M854.3,518.7c-1.8,5.3-4,9.8-6.6,13
				c-0.3,0.4-0.7,0.9-1.1,1.4l-12.1,2.6l-8.9-46.6l22.5-4.5L854.3,518.7z M855.2,473.4c2.5,10.9,3,21.2,2.1,30.1l-13.1-71.6l2.5-0.5
				C850.5,451,853.7,466.6,855.2,473.4z M788,434l-9.1-47l15.5-3l8.9,47L788,434z M807.6,430.2l-8.9-47l29.7-5.7l8.6,47L807.6,430.2
				z M842.7,423.4l-8.6-47l2-0.4c3.1,16.3,6.2,32.5,9,46.9L842.7,423.4z M855,420.9c-2.8-14.4-5.9-30.6-9-46.9l2.4-0.5l9.3,46.9
				L855,420.9z M870.1,418l-2.5,0.5l-9.3-46.8l2.4-0.5L870.1,418z M835,370.3l-2,0.4l-8.6-49.8l1.2-0.2
				C828.5,335.9,831.8,353.1,835,370.3z M847.3,367.9l-2.3,0.4c-3.3-17.2-6.5-34.4-9.4-49.7l1.9-0.4L847.3,367.9z M859.6,365.5
				l-2.4,0.5l-9.8-49.7l2.3-0.5L859.6,365.5z M824.6,314.9l-1.2,0.2l-9-48.5l1.1-0.2C816.4,271,819.9,290,824.6,314.9z M834.5,312.9
				c-4.7-25.4-8.3-44.6-9.1-48.6l1.5-0.3l4.3,23.2l5,25.3L834.5,312.9z M848.6,310.1l-2.3,0.5l-5-25.2l-4.4-23.3l2-0.4L848.6,310.1z
				 M814.7,262.1l-1.1,0.2l-9.3-50.4l0.5-0.1L814.7,262.1z M824.7,260.1l-9.9-50.1l2.1-0.4l9.4,50.1L824.7,260.1z M838,257.4
				l-1.9,0.4l-9.3-49.9l1.3-0.2L838,257.4z M797.5,208.4l-18.8,4l-3.2-15.7l-0.1-0.3l-0.1-0.2c-0.5-1-1.5-4-0.5-6
				c0.5-1.1,1.8-1.8,3.7-2.1c5.7-1,10.2-2.2,13-3L797.5,208.4z M802.9,206.3l-6.5-24.8l-10.5-65.4l7.8,34.8l6.1,35.7l3.9,19.6
				L802.9,206.3z"/>
		</g>
	</g>
</g>
<path fill="none" d="M314.2,325.6c0.1-0.1,0.2-0.3,0.3-0.4C314.4,325.3,314.3,325.4,314.2,325.6z"/>
<path fill="#47505E" d="M340.2,322h-35.9c-1.1,0-2.1,0.3-3,0.8c-1.8,1-3,3-3,5.2c0,3.3,2.7,6,6,6h35.9c1.4,0,2.8-0.5,3.8-1.4
	c1.3-1.1,2.2-2.8,2.2-4.6C346.2,324.7,343.5,322,340.2,322z M340.2,332h-35.9c-2.2,0-4-1.8-4-4c0-0.8,0.3-1.6,0.7-2.2
	c0-0.1,0.1-0.1,0.1-0.2c0.1-0.1,0.2-0.3,0.3-0.4c0.7-0.7,1.7-1.2,2.8-1.2h35.9c2.2,0,4,1.8,4,4c0,0.8-0.3,1.6-0.7,2.2
	c0,0.1-0.1,0.1-0.1,0.2c-0.1,0.1-0.2,0.3-0.3,0.4C342.3,331.5,341.3,332,340.2,332z"/>
<path fill="#47505E" d="M274.9,322c-3.3,0-6,2.7-6,6c0,0,0,0,0,0c0,3.3,2.7,6,6,6c3.3,0,6-2.7,6-6c0,0,0,0,0,0
	C280.9,324.7,278.2,322,274.9,322z M278.9,328c0,0.2,0,0.4-0.1,0.6c0,0.1,0,0.1,0,0.2c0,0.1,0,0.2-0.1,0.2c-0.5,1.7-2,3-3.8,3
	c-2.2,0-4-1.8-4-4s1.8-4,4-4S278.9,325.8,278.9,328L278.9,328z"/>
<path fill="#47505E" d="M402.1,285H242.5c-27,0-48.5,22-48.5,49v266h2V334c0-25.9,20.6-47,46.5-47h159.6c1.6,0,3.2,0.1,4.8,0.3
	c23.6,2.4,42.1,22.4,42.1,46.7v266h2V334C451,307,429,285,402.1,285z"/>
<polyline fill="#47505E" points="432,363.9 432,364 213,364 213,600 215,600 215,366 430,366 430,600 432,600 "/>
<g>
	<path fill="#47505E" d="M313,286V108c0-27,22-49,49-49h438v2H362c-25.9,0-47,21.1-47,47v178H313z"/>
</g>
<g>
	<path fill="#47505E" d="M800,122H370v164h-2V120h432V122z"/>
</g>
<path fill="#47505E" d="M776.2,85c-3.3,0-6,2.7-6,6c0,0,0,0,0,0c0,3.3,2.7,6,6,6s6-2.7,6-6c0,0,0,0,0,0
	C782.1,87.7,779.5,85,776.2,85z M780.2,91c0,0.2,0,0.4-0.1,0.6c0,0.1,0,0.1,0,0.2c0,0.1,0,0.1-0.1,0.2c-0.5,1.7-2,3-3.8,3
	c-2.2,0-4-1.8-4-4c0-2.2,1.8-4,4-4S780.2,88.8,780.2,91L780.2,91z"/>
<g>
	<g>
		<defs>
			<rect id="SVGID_3_" x="215" y="366" width="215" height="234"/>
		</defs>
		<clipPath id="SVGID_4_">
			<use xlink:href="#SVGID_3_"  overflow="visible"/>
		</clipPath>
		<g clip-path="url(#SVGID_4_)">
			<g>
				<g>
					<path fill="#47505E" d="M260.6,365.2H260v-4.1c0-0.3,0-0.7,0-1c-0.1,0.1-0.1,0.1-0.2,0.2c-0.1,0.1-0.4,0.3-0.9,0.8l-0.3-0.4
						l1.5-1.2h0.5L260.6,365.2L260.6,365.2z"/>
					<path fill="#47505E" d="M266.4,360.8c0,0.4-0.1,0.7-0.3,0.9c-0.2,0.2-0.5,0.4-0.9,0.5v0c0.5,0.1,0.8,0.2,1,0.4
						c0.2,0.2,0.3,0.5,0.3,0.9c0,0.5-0.2,1-0.6,1.3c-0.4,0.3-0.9,0.4-1.6,0.4c-0.3,0-0.6,0-0.8-0.1s-0.5-0.1-0.7-0.2v-0.6
						c0.2,0.1,0.5,0.2,0.8,0.3c0.3,0.1,0.5,0.1,0.8,0.1c1,0,1.5-0.4,1.5-1.2c0-0.7-0.5-1-1.6-1h-0.6V362h0.6c0.4,0,0.8-0.1,1.1-0.3
						c0.3-0.2,0.4-0.5,0.4-0.8c0-0.3-0.1-0.5-0.3-0.7s-0.5-0.2-0.8-0.2c-0.2,0-0.5,0-0.7,0.1c-0.2,0.1-0.5,0.2-0.8,0.4l-0.3-0.4
						c0.2-0.2,0.5-0.3,0.8-0.4c0.3-0.1,0.6-0.2,1-0.2c0.6,0,1,0.1,1.3,0.4S266.4,360.4,266.4,360.8z"/>
					<path fill="#47505E" d="M271.1,361.9c0,2.2-0.9,3.4-2.6,3.4c-0.3,0-0.5,0-0.7-0.1v-0.6c0.2,0.1,0.4,0.1,0.7,0.1
						c0.6,0,1.1-0.2,1.4-0.6c0.3-0.4,0.5-1,0.5-1.8h0c-0.1,0.2-0.3,0.4-0.6,0.5c-0.2,0.1-0.5,0.2-0.8,0.2c-0.5,0-0.9-0.2-1.2-0.5
						c-0.3-0.3-0.4-0.7-0.4-1.3c0-0.6,0.2-1.1,0.5-1.4c0.3-0.3,0.8-0.5,1.3-0.5c0.4,0,0.7,0.1,1,0.3c0.3,0.2,0.5,0.5,0.7,0.9
						C271.1,361,271.1,361.4,271.1,361.9z M269.2,360c-0.4,0-0.7,0.1-0.9,0.4c-0.2,0.2-0.3,0.6-0.3,1c0,0.4,0.1,0.7,0.3,0.9
						s0.5,0.3,0.9,0.3c0.2,0,0.5,0,0.7-0.1c0.2-0.1,0.4-0.2,0.5-0.4c0.1-0.2,0.2-0.3,0.2-0.5c0-0.3-0.1-0.5-0.2-0.8
						s-0.3-0.4-0.4-0.5C269.7,360,269.5,360,269.2,360z"/>
					<path fill="#47505E" d="M276,363.9h-0.8v1.3h-0.6v-1.3h-2.8v-0.6l2.7-3.9h0.7v3.8h0.8L276,363.9L276,363.9z M274.5,363.3v-1.9
						c0-0.4,0-0.8,0-1.3h0c-0.1,0.2-0.2,0.5-0.4,0.6l-1.8,2.5H274.5z"/>
					<path fill="#47505E" d="M283.5,365.2h-0.8l-3.1-4.8h0c0,0.6,0.1,1.1,0.1,1.5v3.2H279v-5.7h0.8l3.1,4.8h0c0-0.1,0-0.3,0-0.7
						s0-0.7,0-0.8v-3.3h0.6L283.5,365.2L283.5,365.2z"/>
					<path fill="#47505E" d="M290.7,365.2l-0.7-1.8h-2.3l-0.7,1.8h-0.7l2.3-5.7h0.6l2.2,5.7H290.7z M289.8,362.8l-0.7-1.8
						c-0.1-0.2-0.2-0.5-0.3-0.8c-0.1,0.2-0.1,0.5-0.2,0.8l-0.7,1.8H289.8z"/>
					<path fill="#47505E" d="M294.9,364c0,0.4-0.1,0.7-0.4,0.9c-0.3,0.2-0.7,0.3-1.2,0.3c-0.6,0-1-0.1-1.3-0.3v-0.6
						c0.2,0.1,0.4,0.2,0.7,0.2c0.2,0.1,0.5,0.1,0.7,0.1c0.3,0,0.6-0.1,0.8-0.2c0.2-0.1,0.3-0.3,0.3-0.5c0-0.2-0.1-0.3-0.2-0.4
						s-0.4-0.3-0.8-0.4c-0.4-0.1-0.7-0.3-0.9-0.4c-0.2-0.1-0.3-0.2-0.4-0.4c-0.1-0.1-0.1-0.3-0.1-0.5c0-0.3,0.1-0.6,0.4-0.8
						c0.3-0.2,0.7-0.3,1.2-0.3c0.5,0,0.9,0.1,1.4,0.3l-0.2,0.5c-0.4-0.2-0.8-0.3-1.2-0.3c-0.3,0-0.5,0-0.7,0.1
						c-0.2,0.1-0.2,0.2-0.2,0.4c0,0.1,0,0.2,0.1,0.3c0.1,0.1,0.2,0.2,0.3,0.2c0.1,0.1,0.4,0.2,0.8,0.3c0.5,0.2,0.9,0.4,1,0.6
						C294.8,363.5,294.9,363.8,294.9,364z"/>
					<path fill="#47505E" d="M298.8,365.2v-2.8c0-0.3-0.1-0.6-0.2-0.8c-0.2-0.2-0.4-0.3-0.7-0.3c-0.5,0-0.8,0.1-1,0.4
						c-0.2,0.2-0.3,0.6-0.3,1.2v2.2h-0.6v-6.1h0.6v1.8c0,0.2,0,0.4,0,0.6h0c0.1-0.2,0.3-0.4,0.5-0.5c0.2-0.1,0.5-0.2,0.8-0.2
						c0.5,0,0.9,0.1,1.2,0.4c0.3,0.2,0.4,0.6,0.4,1.2v2.8H298.8z"/>
					<path fill="#47505E" d="M301.5,365.2h-0.6v-6.1h0.6V365.2z"/>
					<path fill="#47505E" d="M305.5,365.2l-0.1-0.6h0c-0.2,0.3-0.4,0.5-0.6,0.5c-0.2,0.1-0.5,0.1-0.8,0.1c-0.4,0-0.8-0.1-1-0.3
						c-0.2-0.2-0.4-0.5-0.4-0.9c0-0.9,0.7-1.3,2.1-1.4l0.7,0v-0.3c0-0.3-0.1-0.6-0.2-0.7c-0.1-0.2-0.4-0.2-0.7-0.2
						c-0.4,0-0.8,0.1-1.2,0.3l-0.2-0.5c0.2-0.1,0.4-0.2,0.7-0.3s0.5-0.1,0.8-0.1c0.5,0,0.9,0.1,1.1,0.3c0.2,0.2,0.4,0.6,0.4,1.1v2.9
						L305.5,365.2L305.5,365.2z M304,364.7c0.4,0,0.7-0.1,1-0.3s0.3-0.5,0.3-0.9v-0.4l-0.6,0c-0.5,0-0.9,0.1-1.1,0.2
						s-0.3,0.4-0.3,0.7c0,0.2,0.1,0.4,0.2,0.5C303.6,364.7,303.8,364.7,304,364.7z"/>
					<path fill="#47505E" d="M310.2,365.2v-2.8c0-0.3-0.1-0.6-0.2-0.8c-0.2-0.2-0.4-0.3-0.7-0.3c-0.4,0-0.8,0.1-1,0.4
						c-0.2,0.2-0.3,0.6-0.3,1.2v2.2h-0.6v-4.3h0.5l0.1,0.6h0c0.1-0.2,0.3-0.4,0.6-0.5c0.2-0.1,0.5-0.2,0.8-0.2
						c0.5,0,0.9,0.1,1.2,0.4c0.3,0.2,0.4,0.6,0.4,1.2v2.8L310.2,365.2L310.2,365.2z"/>
					<path fill="#47505E" d="M315.1,364.6L315.1,364.6c-0.3,0.4-0.8,0.7-1.4,0.7c-0.6,0-1-0.2-1.3-0.6c-0.3-0.4-0.5-0.9-0.5-1.6
						s0.2-1.3,0.5-1.6c0.3-0.4,0.7-0.6,1.3-0.6c0.6,0,1,0.2,1.3,0.6h0.1l0-0.3l0-0.3v-1.7h0.6v6.1h-0.5L315.1,364.6z M313.8,364.7
						c0.4,0,0.8-0.1,1-0.4c0.2-0.2,0.3-0.6,0.3-1.2v-0.1c0-0.6-0.1-1-0.3-1.3c-0.2-0.3-0.5-0.4-1-0.4c-0.4,0-0.7,0.1-0.9,0.4
						c-0.2,0.3-0.3,0.7-0.3,1.3c0,0.5,0.1,1,0.3,1.2C313.1,364.6,313.4,364.7,313.8,364.7z"/>
					<path fill="#47505E" d="M322.9,365.2l-0.7-1.8h-2.3l-0.7,1.8h-0.7l2.3-5.7h0.6l2.2,5.7H322.9z M321.9,362.8l-0.7-1.8
						c-0.1-0.2-0.2-0.5-0.3-0.8c-0.1,0.2-0.1,0.5-0.2,0.8l-0.7,1.8H321.9z"/>
					<path fill="#47505E" d="M325.2,365.2l-1.6-4.3h0.7l0.9,2.5c0.2,0.6,0.3,1,0.4,1.2h0c0-0.1,0.1-0.4,0.3-0.9
						c0.2-0.4,0.5-1.4,1-2.8h0.7l-1.6,4.3H325.2z"/>
					<path fill="#47505E" d="M330.1,365.3c-0.6,0-1.1-0.2-1.5-0.6c-0.4-0.4-0.5-0.9-0.5-1.6c0-0.7,0.2-1.2,0.5-1.6
						c0.3-0.4,0.8-0.6,1.4-0.6c0.5,0,1,0.2,1.3,0.5c0.3,0.4,0.5,0.8,0.5,1.4v0.4h-2.9c0,0.5,0.1,0.9,0.4,1.1c0.2,0.3,0.6,0.4,1,0.4
						c0.5,0,0.9-0.1,1.4-0.3v0.6c-0.2,0.1-0.4,0.2-0.7,0.2S330.3,365.3,330.1,365.3z M329.9,361.4c-0.3,0-0.6,0.1-0.8,0.3
						c-0.2,0.2-0.3,0.5-0.4,0.9h2.2c0-0.4-0.1-0.7-0.3-0.9C330.5,361.5,330.2,361.4,329.9,361.4z"/>
					<path fill="#47505E" d="M261.1,372c-0.6,0-1.1,0.2-1.5,0.6c-0.4,0.4-0.5,1-0.5,1.7c0,0.7,0.2,1.3,0.5,1.7s0.9,0.6,1.5,0.6
						c0.4,0,0.9-0.1,1.4-0.2v0.6c-0.4,0.1-0.9,0.2-1.5,0.2c-0.8,0-1.5-0.3-1.9-0.8c-0.5-0.5-0.7-1.2-0.7-2.2c0-0.6,0.1-1.1,0.3-1.5
						c0.2-0.4,0.5-0.8,1-1c0.4-0.2,0.9-0.4,1.5-0.4c0.6,0,1.1,0.1,1.6,0.3l-0.3,0.6C261.9,372.1,261.5,372,261.1,372z"/>
					<path fill="#47505E" d="M266.5,377.2v-2.8c0-0.3-0.1-0.6-0.2-0.8c-0.2-0.2-0.4-0.3-0.7-0.3c-0.5,0-0.8,0.1-1,0.4
						c-0.2,0.2-0.3,0.6-0.3,1.2v2.2h-0.6v-6.1h0.6v1.8c0,0.2,0,0.4,0,0.6h0c0.1-0.2,0.3-0.4,0.5-0.5c0.2-0.1,0.5-0.2,0.8-0.2
						c0.5,0,0.9,0.1,1.2,0.4c0.3,0.2,0.4,0.6,0.4,1.2v2.8H266.5z"/>
					<path fill="#47505E" d="M268.4,371.8c0-0.1,0-0.3,0.1-0.3c0.1-0.1,0.2-0.1,0.3-0.1c0.1,0,0.2,0,0.3,0.1
						c0.1,0.1,0.1,0.2,0.1,0.3c0,0.1,0,0.3-0.1,0.3c-0.1,0.1-0.2,0.1-0.3,0.1c-0.1,0-0.2,0-0.3-0.1
						C268.5,372,268.4,371.9,268.4,371.8z M269.1,377.2h-0.6v-4.3h0.6V377.2z"/>
					<path fill="#47505E" d="M272.2,377.3c-0.6,0-1.1-0.2-1.4-0.6s-0.5-0.9-0.5-1.6c0-0.7,0.2-1.3,0.5-1.7c0.3-0.4,0.8-0.6,1.5-0.6
						c0.2,0,0.4,0,0.6,0.1s0.4,0.1,0.5,0.2l-0.2,0.6c-0.1-0.1-0.3-0.1-0.5-0.1s-0.3-0.1-0.4-0.1c-0.9,0-1.3,0.6-1.3,1.7
						c0,0.5,0.1,0.9,0.3,1.2c0.2,0.3,0.5,0.4,0.9,0.4c0.4,0,0.7-0.1,1.1-0.2v0.6C273,377.2,272.7,377.3,272.2,377.3z"/>
					<path fill="#47505E" d="M277,377.2l-0.1-0.6h0c-0.2,0.3-0.4,0.5-0.6,0.5c-0.2,0.1-0.5,0.1-0.8,0.1c-0.4,0-0.8-0.1-1-0.3
						c-0.2-0.2-0.4-0.5-0.4-0.9c0-0.9,0.7-1.3,2.1-1.4l0.7,0v-0.3c0-0.3-0.1-0.6-0.2-0.7c-0.1-0.2-0.4-0.2-0.7-0.2
						c-0.4,0-0.8,0.1-1.2,0.3l-0.2-0.5c0.2-0.1,0.4-0.2,0.7-0.3s0.5-0.1,0.8-0.1c0.5,0,0.9,0.1,1.1,0.3c0.2,0.2,0.4,0.6,0.4,1.1v2.9
						L277,377.2L277,377.2z M275.5,376.7c0.4,0,0.7-0.1,1-0.3s0.3-0.5,0.3-0.9v-0.4l-0.6,0c-0.5,0-0.9,0.1-1.1,0.2
						c-0.2,0.1-0.3,0.4-0.3,0.7c0,0.2,0.1,0.4,0.2,0.5C275,376.7,275.2,376.7,275.5,376.7z"/>
					<path fill="#47505E" d="M282.3,372.9v0.4l-0.8,0.1c0.1,0.1,0.1,0.2,0.2,0.4s0.1,0.3,0.1,0.5c0,0.4-0.1,0.8-0.4,1
						c-0.3,0.2-0.7,0.4-1.2,0.4c-0.1,0-0.2,0-0.4,0c-0.3,0.1-0.4,0.3-0.4,0.6c0,0.1,0,0.2,0.1,0.3c0.1,0.1,0.3,0.1,0.5,0.1h0.8
						c0.5,0,0.8,0.1,1.1,0.3c0.2,0.2,0.4,0.5,0.4,0.9c0,0.5-0.2,0.8-0.6,1.1c-0.4,0.2-0.9,0.4-1.7,0.4c-0.6,0-1-0.1-1.3-0.3
						c-0.3-0.2-0.5-0.5-0.5-0.9c0-0.3,0.1-0.5,0.2-0.7c0.2-0.2,0.4-0.3,0.7-0.4c-0.1,0-0.2-0.1-0.3-0.2c-0.1-0.1-0.1-0.2-0.1-0.4
						c0-0.2,0-0.3,0.1-0.4s0.2-0.2,0.4-0.3c-0.2-0.1-0.4-0.2-0.5-0.5c-0.1-0.2-0.2-0.5-0.2-0.8c0-0.5,0.1-0.8,0.4-1.1
						c0.3-0.3,0.7-0.4,1.2-0.4c0.2,0,0.4,0,0.6,0.1L282.3,372.9L282.3,372.9z M278.9,377.9c0,0.2,0.1,0.4,0.3,0.5
						c0.2,0.1,0.5,0.2,0.8,0.2c0.5,0,0.9-0.1,1.2-0.2c0.3-0.2,0.4-0.4,0.4-0.7c0-0.2-0.1-0.4-0.2-0.5s-0.4-0.1-0.8-0.1h-0.8
						c-0.3,0-0.5,0.1-0.7,0.2C279,377.5,278.9,377.7,278.9,377.9z M279.2,374.3c0,0.3,0.1,0.5,0.3,0.7s0.4,0.2,0.7,0.2
						c0.6,0,0.9-0.3,0.9-0.9c0-0.6-0.3-1-1-1c-0.3,0-0.5,0.1-0.7,0.2C279.3,373.7,279.2,374,279.2,374.3z"/>
					<path fill="#47505E" d="M286.9,375.1c0,0.7-0.2,1.2-0.5,1.6c-0.4,0.4-0.8,0.6-1.5,0.6c-0.4,0-0.7-0.1-1-0.3s-0.5-0.4-0.7-0.8
						s-0.2-0.7-0.2-1.2c0-0.7,0.2-1.2,0.5-1.6c0.3-0.4,0.8-0.6,1.5-0.6c0.6,0,1.1,0.2,1.4,0.6C286.7,373.8,286.9,374.4,286.9,375.1z
						 M283.6,375.1c0,0.5,0.1,1,0.3,1.2c0.2,0.3,0.5,0.4,1,0.4c0.4,0,0.7-0.1,1-0.4c0.2-0.3,0.3-0.7,0.3-1.3c0-0.5-0.1-1-0.3-1.2
						c-0.2-0.3-0.5-0.4-1-0.4c-0.4,0-0.7,0.1-1,0.4C283.7,374.1,283.6,374.5,283.6,375.1z"/>
					<path fill="#47505E" d="M288.7,376.3L288.7,376.3c0,0.4-0.1,0.7-0.2,1c-0.1,0.3-0.3,0.7-0.4,1h-0.5c0.1-0.3,0.1-0.6,0.2-1
						c0.1-0.4,0.1-0.7,0.2-1H288.7z"/>
					<path fill="#47505E" d="M292.1,377.2v-5.7h0.7v5.7H292.1z"/>
					<path fill="#47505E" d="M294.4,377.2v-5.7h0.7v5.1h2.5v0.6H294.4z"/>
					<path fill="#47505E" d="M300.3,374.8c0-1.1,0.2-2,0.7-2.5c0.4-0.6,1.1-0.8,1.9-0.8c0.3,0,0.5,0,0.7,0.1v0.6
						c-0.2-0.1-0.4-0.1-0.7-0.1c-0.6,0-1.1,0.2-1.4,0.6c-0.3,0.4-0.5,1-0.5,1.8h0c0.3-0.4,0.7-0.7,1.4-0.7c0.5,0,0.9,0.2,1.2,0.5
						c0.3,0.3,0.4,0.7,0.4,1.3c0,0.6-0.2,1.1-0.5,1.4c-0.3,0.3-0.8,0.5-1.3,0.5c-0.6,0-1.1-0.2-1.4-0.7
						C300.4,376.2,300.3,375.6,300.3,374.8z M302.2,376.7c0.4,0,0.7-0.1,0.9-0.4c0.2-0.2,0.3-0.6,0.3-1c0-0.4-0.1-0.7-0.3-0.9
						c-0.2-0.2-0.5-0.3-0.9-0.3c-0.2,0-0.4,0-0.6,0.1c-0.2,0.1-0.4,0.2-0.5,0.4c-0.1,0.2-0.2,0.3-0.2,0.5c0,0.3,0.1,0.5,0.2,0.8
						c0.1,0.2,0.3,0.4,0.4,0.6C301.7,376.7,301.9,376.7,302.2,376.7z"/>
					<path fill="#47505E" d="M308.6,374.3c0,1-0.2,1.7-0.5,2.2c-0.3,0.5-0.8,0.7-1.4,0.7c-0.6,0-1.1-0.2-1.4-0.7
						c-0.3-0.5-0.5-1.2-0.5-2.2c0-1,0.2-1.7,0.5-2.2s0.8-0.7,1.4-0.7c0.6,0,1.1,0.3,1.4,0.8C308.4,372.7,308.6,373.4,308.6,374.3z
						 M305.4,374.3c0,0.8,0.1,1.4,0.3,1.8c0.2,0.4,0.5,0.6,0.9,0.6c0.4,0,0.7-0.2,0.9-0.6c0.2-0.4,0.3-1,0.3-1.8s-0.1-1.4-0.3-1.8
						c-0.2-0.4-0.5-0.6-0.9-0.6c-0.4,0-0.7,0.2-0.9,0.6C305.5,372.9,305.4,373.5,305.4,374.3z"/>
					<path fill="#47505E" d="M309.4,374.8c0-1.1,0.2-2,0.7-2.5c0.4-0.6,1.1-0.8,1.9-0.8c0.3,0,0.5,0,0.7,0.1v0.6
						c-0.2-0.1-0.4-0.1-0.7-0.1c-0.6,0-1.1,0.2-1.4,0.6c-0.3,0.4-0.5,1-0.5,1.8h0c0.3-0.4,0.7-0.7,1.4-0.7c0.5,0,0.9,0.2,1.2,0.5
						c0.3,0.3,0.4,0.7,0.4,1.3c0,0.6-0.2,1.1-0.5,1.4c-0.3,0.3-0.8,0.5-1.3,0.5c-0.6,0-1.1-0.2-1.4-0.7
						C309.6,376.2,309.4,375.6,309.4,374.8z M311.3,376.7c0.4,0,0.7-0.1,0.9-0.4c0.2-0.2,0.3-0.6,0.3-1c0-0.4-0.1-0.7-0.3-0.9
						c-0.2-0.2-0.5-0.3-0.9-0.3c-0.2,0-0.4,0-0.6,0.1c-0.2,0.1-0.4,0.2-0.5,0.4s-0.2,0.3-0.2,0.5c0,0.3,0.1,0.5,0.2,0.8
						c0.1,0.2,0.3,0.4,0.4,0.6C310.9,376.7,311.1,376.7,311.3,376.7z"/>
					<path fill="#47505E" d="M317.7,377.2h-3.8v-0.6l1.5-1.5c0.5-0.5,0.8-0.8,0.9-1c0.1-0.2,0.3-0.4,0.3-0.6
						c0.1-0.2,0.1-0.4,0.1-0.6c0-0.3-0.1-0.5-0.3-0.7c-0.2-0.2-0.4-0.3-0.8-0.3c-0.2,0-0.5,0-0.7,0.1s-0.4,0.2-0.7,0.4l-0.3-0.4
						c0.5-0.4,1.1-0.7,1.7-0.7c0.5,0,1,0.1,1.3,0.4c0.3,0.3,0.5,0.6,0.5,1.1c0,0.4-0.1,0.7-0.3,1.1s-0.6,0.8-1.1,1.3l-1.2,1.2v0h2.9
						L317.7,377.2L317.7,377.2z"/>
					<path fill="#47505E" d="M322.2,377.2h-3.8v-0.6l1.5-1.5c0.5-0.5,0.8-0.8,0.9-1c0.1-0.2,0.3-0.4,0.3-0.6
						c0.1-0.2,0.1-0.4,0.1-0.6c0-0.3-0.1-0.5-0.3-0.7c-0.2-0.2-0.4-0.3-0.8-0.3c-0.2,0-0.5,0-0.7,0.1s-0.4,0.2-0.7,0.4l-0.3-0.4
						c0.5-0.4,1.1-0.7,1.7-0.7c0.5,0,1,0.1,1.3,0.4c0.3,0.3,0.5,0.6,0.5,1.1c0,0.4-0.1,0.7-0.3,1.1s-0.6,0.8-1.1,1.3l-1.2,1.2v0h2.9
						L322.2,377.2L322.2,377.2z"/>
				</g>
				<g>
					<g>
						<path fill="#47505E" d="M243.5,379h-12c-2.5,0-4.5-2-4.5-4.5v-12c0-2.5,2-4.5,4.5-4.5h12c2.5,0,4.5,2,4.5,4.5v12
							C248,377,246,379,243.5,379z"/>
					</g>
				</g>
				<rect x="394" y="361" fill="#47505E" width="32" height="32"/>
				<rect x="215" y="395" fill="#47505E" width="215" height="2"/>
			</g>
			<g>
				<g>
					<path fill="#47505E" d="M231.5,419.7l-2.4-7.8H229c0.1,1.6,0.1,2.7,0.1,3.2v4.6h-1.9v-10h2.9l2.4,7.6h0l2.5-7.6h2.9v10h-2v-4.7
						c0-0.2,0-0.5,0-0.8s0-1.1,0.1-2.3H236l-2.6,7.8H231.5L231.5,419.7z"/>
					<path fill="#47505E" d="M240.2,410c0-0.7,0.4-1,1.1-1c0.8,0,1.1,0.3,1.1,1c0,0.3-0.1,0.6-0.3,0.8c-0.2,0.2-0.5,0.3-0.9,0.3
						C240.6,411.1,240.2,410.7,240.2,410z M242.4,419.7h-2.1V412h2.1V419.7z"/>
					<path fill="#47505E" d="M246.6,415.5l0.9-1.2l2.1-2.3h2.4l-3,3.3l3.2,4.3h-2.4l-2.2-3.1l-0.9,0.7v2.4h-2.1V409h2.1v4.7
						L246.6,415.5L246.6,415.5L246.6,415.5z"/>
					<path fill="#47505E" d="M256.7,419.8c-1.2,0-2.2-0.3-2.9-1c-0.7-0.7-1-1.6-1-2.9c0-1.3,0.3-2.3,1-3c0.6-0.7,1.5-1,2.7-1
						c1.1,0,1.9,0.3,2.5,0.9s0.9,1.5,0.9,2.5v1h-4.9c0,0.6,0.2,1.1,0.5,1.4c0.3,0.3,0.8,0.5,1.4,0.5c0.5,0,0.9,0,1.3-0.1
						c0.4-0.1,0.8-0.2,1.3-0.5v1.6c-0.4,0.2-0.8,0.3-1.2,0.4C257.8,419.8,257.3,419.8,256.7,419.8z M256.4,413.4
						c-0.4,0-0.8,0.1-1,0.4c-0.2,0.3-0.4,0.7-0.4,1.2h2.9c0-0.5-0.1-0.9-0.4-1.2C257.2,413.5,256.9,413.4,256.4,413.4z"/>
					<path fill="#47505E" d="M263.2,409.7l0.1,0.2c-0.2,0.9-0.6,2-1.2,3.3h-1.5c0.3-1.3,0.5-2.5,0.7-3.4L263.2,409.7L263.2,409.7z"
						/>
					<path fill="#47505E" d="M269.9,417.4c0,0.8-0.3,1.4-0.8,1.8c-0.5,0.4-1.4,0.6-2.4,0.6c-0.6,0-1,0-1.4-0.1
						c-0.4-0.1-0.8-0.2-1.1-0.3v-1.7c0.4,0.2,0.8,0.3,1.3,0.5c0.5,0.1,0.9,0.2,1.3,0.2c0.8,0,1.1-0.2,1.1-0.7c0-0.2-0.1-0.3-0.1-0.4
						c-0.1-0.1-0.3-0.2-0.5-0.3c-0.2-0.1-0.6-0.3-1-0.5c-0.6-0.2-1-0.5-1.3-0.7c-0.3-0.2-0.5-0.5-0.6-0.7c-0.1-0.3-0.2-0.6-0.2-1
						c0-0.7,0.3-1.2,0.8-1.6c0.5-0.4,1.3-0.6,2.2-0.6c0.9,0,1.8,0.2,2.7,0.6l-0.6,1.5c-0.4-0.2-0.7-0.3-1.1-0.4
						c-0.3-0.1-0.7-0.2-1-0.2c-0.6,0-0.9,0.2-0.9,0.5c0,0.2,0.1,0.3,0.3,0.5c0.2,0.1,0.6,0.3,1.3,0.6c0.6,0.2,1,0.5,1.3,0.7
						c0.3,0.2,0.5,0.5,0.6,0.7S269.9,417,269.9,417.4z"/>
					<path fill="#47505E" d="M277.4,419.7h-2.1v-10h5.7v1.7h-3.6v2.6h3.4v1.7h-3.4V419.7z"/>
					<path fill="#47505E" d="M289.8,415.8c0,1.2-0.3,2.2-1,2.9c-0.7,0.7-1.6,1.1-2.7,1.1c-0.7,0-1.4-0.2-1.9-0.5
						c-0.6-0.3-1-0.8-1.3-1.4c-0.3-0.6-0.5-1.3-0.5-2.1c0-1.2,0.3-2.2,1-2.9c0.7-0.7,1.6-1,2.7-1c0.7,0,1.4,0.2,1.9,0.5
						c0.6,0.3,1,0.8,1.3,1.4C289.6,414.3,289.8,415,289.8,415.8z M284.5,415.8c0,0.8,0.1,1.3,0.4,1.7s0.7,0.6,1.2,0.6
						c0.6,0,1-0.2,1.2-0.6c0.2-0.4,0.4-1,0.4-1.7c0-0.8-0.1-1.3-0.4-1.7c-0.2-0.4-0.6-0.6-1.2-0.6c-0.6,0-1,0.2-1.2,0.6
						C284.6,414.5,284.5,415.1,284.5,415.8z"/>
					<path fill="#47505E" d="M298.4,415.8c0,1.2-0.3,2.2-1,2.9c-0.7,0.7-1.6,1.1-2.7,1.1c-0.7,0-1.4-0.2-1.9-0.5
						c-0.6-0.3-1-0.8-1.3-1.4c-0.3-0.6-0.5-1.3-0.5-2.1c0-1.2,0.3-2.2,1-2.9s1.6-1,2.7-1c0.7,0,1.4,0.2,1.9,0.5
						c0.6,0.3,1,0.8,1.3,1.4C298.3,414.3,298.4,415,298.4,415.8z M293.2,415.8c0,0.8,0.1,1.3,0.4,1.7s0.7,0.6,1.2,0.6
						c0.6,0,1-0.2,1.2-0.6c0.2-0.4,0.4-1,0.4-1.7c0-0.8-0.1-1.3-0.4-1.7c-0.2-0.4-0.6-0.6-1.2-0.6c-0.6,0-1,0.2-1.2,0.6
						C293.3,414.5,293.2,415.1,293.2,415.8z"/>
					<path fill="#47505E" d="M302.6,419.8c-0.9,0-1.6-0.3-2.1-1c-0.5-0.7-0.8-1.7-0.8-2.9c0-1.3,0.3-2.2,0.8-2.9s1.2-1,2.2-1
						c1,0,1.7,0.4,2.2,1.1h0.1c-0.1-0.6-0.2-1.1-0.2-1.5V409h2.1v10.6h-1.6l-0.4-1h-0.1C304.3,419.4,303.6,419.8,302.6,419.8z
						 M303.3,418.1c0.5,0,0.9-0.2,1.2-0.5c0.2-0.3,0.4-0.8,0.4-1.6v-0.2c0-0.8-0.1-1.4-0.4-1.8c-0.3-0.4-0.7-0.5-1.2-0.5
						c-0.5,0-0.8,0.2-1.1,0.6s-0.4,1-0.4,1.7s0.1,1.3,0.4,1.7C302.5,418,302.8,418.1,303.3,418.1z"/>
					<path fill="#47505E" d="M314.4,417.4c0,0.8-0.3,1.4-0.8,1.8c-0.5,0.4-1.4,0.6-2.4,0.6c-0.6,0-1,0-1.4-0.1
						c-0.4-0.1-0.8-0.2-1.1-0.3v-1.7c0.4,0.2,0.8,0.3,1.3,0.5c0.5,0.1,0.9,0.2,1.3,0.2c0.8,0,1.1-0.2,1.1-0.7c0-0.2,0-0.3-0.1-0.4
						c-0.1-0.1-0.3-0.2-0.5-0.3c-0.2-0.1-0.6-0.3-1-0.5c-0.6-0.2-1-0.5-1.3-0.7c-0.3-0.2-0.5-0.5-0.6-0.7c-0.1-0.3-0.2-0.6-0.2-1
						c0-0.7,0.3-1.2,0.8-1.6c0.5-0.4,1.3-0.6,2.2-0.6c0.9,0,1.8,0.2,2.7,0.6l-0.6,1.5c-0.4-0.2-0.7-0.3-1.1-0.4
						c-0.3-0.1-0.7-0.2-1-0.2c-0.6,0-0.9,0.2-0.9,0.5c0,0.2,0.1,0.3,0.3,0.5c0.2,0.1,0.6,0.3,1.3,0.6c0.6,0.2,1,0.5,1.3,0.7
						c0.3,0.2,0.5,0.5,0.6,0.7S314.4,417,314.4,417.4z"/>
				</g>
				<g>
					<path fill="#47505E" d="M260.6,437.2H260v-4.1c0-0.3,0-0.7,0-1c-0.1,0.1-0.1,0.1-0.2,0.2c-0.1,0.1-0.4,0.3-0.9,0.8l-0.3-0.4
						l1.5-1.2h0.5L260.6,437.2L260.6,437.2z"/>
					<path fill="#47505E" d="M266.4,432.8c0,0.4-0.1,0.7-0.3,0.9c-0.2,0.2-0.5,0.4-0.9,0.5v0c0.5,0.1,0.8,0.2,1,0.4
						c0.2,0.2,0.3,0.5,0.3,0.9c0,0.5-0.2,1-0.6,1.3c-0.4,0.3-0.9,0.4-1.6,0.4c-0.3,0-0.6,0-0.8-0.1s-0.5-0.1-0.7-0.2v-0.6
						c0.2,0.1,0.5,0.2,0.8,0.3c0.3,0.1,0.5,0.1,0.8,0.1c1,0,1.5-0.4,1.5-1.2c0-0.7-0.5-1-1.6-1h-0.6V434h0.6c0.4,0,0.8-0.1,1.1-0.3
						c0.3-0.2,0.4-0.5,0.4-0.8c0-0.3-0.1-0.5-0.3-0.7s-0.5-0.2-0.8-0.2c-0.2,0-0.5,0-0.7,0.1c-0.2,0.1-0.5,0.2-0.8,0.4l-0.3-0.4
						c0.2-0.2,0.5-0.3,0.8-0.4c0.3-0.1,0.6-0.2,1-0.2c0.6,0,1,0.1,1.3,0.4S266.4,432.4,266.4,432.8z"/>
					<path fill="#47505E" d="M271.1,433.9c0,2.2-0.9,3.4-2.6,3.4c-0.3,0-0.5,0-0.7-0.1v-0.6c0.2,0.1,0.4,0.1,0.7,0.1
						c0.6,0,1.1-0.2,1.4-0.6s0.5-1,0.5-1.8h0c-0.1,0.2-0.3,0.4-0.6,0.5c-0.2,0.1-0.5,0.2-0.8,0.2c-0.5,0-0.9-0.2-1.2-0.5
						c-0.3-0.3-0.4-0.7-0.4-1.3c0-0.6,0.2-1.1,0.5-1.4c0.3-0.3,0.8-0.5,1.3-0.5c0.4,0,0.7,0.1,1,0.3s0.5,0.5,0.7,0.9
						C271.1,433,271.1,433.4,271.1,433.9z M269.2,432c-0.4,0-0.7,0.1-0.9,0.4c-0.2,0.2-0.3,0.6-0.3,1c0,0.4,0.1,0.7,0.3,0.9
						s0.5,0.3,0.9,0.3c0.2,0,0.5,0,0.7-0.1c0.2-0.1,0.4-0.2,0.5-0.4c0.1-0.2,0.2-0.3,0.2-0.5c0-0.3-0.1-0.5-0.2-0.8
						c-0.1-0.2-0.3-0.4-0.4-0.5C269.7,432,269.5,432,269.2,432z"/>
					<path fill="#47505E" d="M276,435.9h-0.8v1.3h-0.6v-1.3h-2.8v-0.6l2.7-3.9h0.7v3.8h0.8L276,435.9L276,435.9z M274.5,435.3v-1.9
						c0-0.4,0-0.8,0-1.3h0c-0.1,0.2-0.2,0.5-0.4,0.6l-1.8,2.5H274.5z"/>
					<path fill="#47505E" d="M283.5,437.2h-0.8l-3.1-4.8h0c0,0.6,0.1,1.1,0.1,1.5v3.2H279v-5.7h0.8l3.1,4.8h0c0-0.1,0-0.3,0-0.7
						s0-0.7,0-0.8v-3.3h0.6L283.5,437.2L283.5,437.2z"/>
					<path fill="#47505E" d="M290.7,437.2l-0.7-1.8h-2.3l-0.7,1.8h-0.7l2.3-5.7h0.6l2.2,5.7H290.7z M289.8,434.8l-0.7-1.8
						c-0.1-0.2-0.2-0.5-0.3-0.8c-0.1,0.2-0.1,0.5-0.2,0.8l-0.7,1.8H289.8z"/>
					<path fill="#47505E" d="M294.9,436c0,0.4-0.1,0.7-0.4,0.9c-0.3,0.2-0.7,0.3-1.2,0.3c-0.6,0-1-0.1-1.3-0.3v-0.6
						c0.2,0.1,0.4,0.2,0.7,0.2c0.2,0.1,0.5,0.1,0.7,0.1c0.3,0,0.6-0.1,0.8-0.2c0.2-0.1,0.3-0.3,0.3-0.5c0-0.2-0.1-0.3-0.2-0.4
						s-0.4-0.3-0.8-0.4c-0.4-0.1-0.7-0.3-0.9-0.4c-0.2-0.1-0.3-0.2-0.4-0.4c-0.1-0.1-0.1-0.3-0.1-0.5c0-0.3,0.1-0.6,0.4-0.8
						c0.3-0.2,0.7-0.3,1.2-0.3c0.5,0,0.9,0.1,1.4,0.3l-0.2,0.5c-0.4-0.2-0.8-0.3-1.2-0.3c-0.3,0-0.5,0-0.7,0.1
						c-0.2,0.1-0.2,0.2-0.2,0.4c0,0.1,0,0.2,0.1,0.3s0.2,0.2,0.3,0.2c0.1,0.1,0.4,0.2,0.8,0.3c0.5,0.2,0.9,0.4,1,0.6
						C294.8,435.5,294.9,435.8,294.9,436z"/>
					<path fill="#47505E" d="M298.8,437.2v-2.8c0-0.3-0.1-0.6-0.2-0.8c-0.2-0.2-0.4-0.3-0.7-0.3c-0.5,0-0.8,0.1-1,0.4
						c-0.2,0.2-0.3,0.6-0.3,1.2v2.2h-0.6v-6.1h0.6v1.8c0,0.2,0,0.4,0,0.6h0c0.1-0.2,0.3-0.4,0.5-0.5s0.5-0.2,0.8-0.2
						c0.5,0,0.9,0.1,1.2,0.4c0.3,0.2,0.4,0.6,0.4,1.2v2.8H298.8z"/>
					<path fill="#47505E" d="M301.5,437.2h-0.6v-6.1h0.6V437.2z"/>
					<path fill="#47505E" d="M305.5,437.2l-0.1-0.6h0c-0.2,0.3-0.4,0.5-0.6,0.5c-0.2,0.1-0.5,0.1-0.8,0.1c-0.4,0-0.8-0.1-1-0.3
						c-0.2-0.2-0.4-0.5-0.4-0.9c0-0.9,0.7-1.3,2.1-1.4l0.7,0v-0.3c0-0.3-0.1-0.6-0.2-0.7s-0.4-0.2-0.7-0.2c-0.4,0-0.8,0.1-1.2,0.3
						l-0.2-0.5c0.2-0.1,0.4-0.2,0.7-0.3c0.3-0.1,0.5-0.1,0.8-0.1c0.5,0,0.9,0.1,1.1,0.3c0.2,0.2,0.4,0.6,0.4,1.1v2.9L305.5,437.2
						L305.5,437.2z M304,436.7c0.4,0,0.7-0.1,1-0.3s0.3-0.5,0.3-0.9v-0.4l-0.6,0c-0.5,0-0.9,0.1-1.1,0.2c-0.2,0.1-0.3,0.4-0.3,0.7
						c0,0.2,0.1,0.4,0.2,0.5C303.6,436.7,303.8,436.7,304,436.7z"/>
					<path fill="#47505E" d="M310.2,437.2v-2.8c0-0.3-0.1-0.6-0.2-0.8c-0.2-0.2-0.4-0.3-0.7-0.3c-0.4,0-0.8,0.1-1,0.4
						s-0.3,0.6-0.3,1.2v2.2h-0.6v-4.3h0.5l0.1,0.6h0c0.1-0.2,0.3-0.4,0.6-0.5c0.2-0.1,0.5-0.2,0.8-0.2c0.5,0,0.9,0.1,1.2,0.4
						c0.3,0.2,0.4,0.6,0.4,1.2v2.8L310.2,437.2L310.2,437.2z"/>
					<path fill="#47505E" d="M315.1,436.6L315.1,436.6c-0.3,0.4-0.8,0.7-1.4,0.7c-0.6,0-1-0.2-1.3-0.6c-0.3-0.4-0.5-0.9-0.5-1.6
						s0.2-1.3,0.5-1.6c0.3-0.4,0.7-0.6,1.3-0.6c0.6,0,1,0.2,1.3,0.6h0.1l0-0.3l0-0.3v-1.7h0.6v6.1h-0.5L315.1,436.6z M313.8,436.7
						c0.4,0,0.8-0.1,1-0.4c0.2-0.2,0.3-0.6,0.3-1.2v-0.1c0-0.6-0.1-1-0.3-1.3c-0.2-0.3-0.5-0.4-1-0.4c-0.4,0-0.7,0.1-0.9,0.4
						c-0.2,0.3-0.3,0.7-0.3,1.3c0,0.5,0.1,1,0.3,1.2C313.1,436.6,313.4,436.7,313.8,436.7z"/>
					<path fill="#47505E" d="M322.9,437.2l-0.7-1.8h-2.3l-0.7,1.8h-0.7l2.3-5.7h0.6l2.2,5.7H322.9z M321.9,434.8l-0.7-1.8
						c-0.1-0.2-0.2-0.5-0.3-0.8c-0.1,0.2-0.1,0.5-0.2,0.8l-0.7,1.8H321.9z"/>
					<path fill="#47505E" d="M325.2,437.2l-1.6-4.3h0.7l0.9,2.5c0.2,0.6,0.3,1,0.4,1.2h0c0-0.1,0.1-0.4,0.3-0.9
						c0.2-0.4,0.5-1.4,1-2.8h0.7l-1.6,4.3H325.2z"/>
					<path fill="#47505E" d="M330.1,437.3c-0.6,0-1.1-0.2-1.5-0.6c-0.4-0.4-0.5-0.9-0.5-1.6c0-0.7,0.2-1.2,0.5-1.6
						c0.3-0.4,0.8-0.6,1.4-0.6c0.5,0,1,0.2,1.3,0.5c0.3,0.4,0.5,0.8,0.5,1.4v0.4h-2.9c0,0.5,0.1,0.9,0.4,1.1c0.2,0.3,0.6,0.4,1,0.4
						c0.5,0,0.9-0.1,1.4-0.3v0.6c-0.2,0.1-0.4,0.2-0.7,0.2S330.3,437.3,330.1,437.3z M329.9,433.4c-0.3,0-0.6,0.1-0.8,0.3
						c-0.2,0.2-0.3,0.5-0.4,0.9h2.2c0-0.4-0.1-0.7-0.3-0.9S330.2,433.4,329.9,433.4z"/>
					<path fill="#47505E" d="M261.1,444c-0.6,0-1.1,0.2-1.5,0.6c-0.4,0.4-0.5,1-0.5,1.7c0,0.7,0.2,1.3,0.5,1.7s0.9,0.6,1.5,0.6
						c0.4,0,0.9-0.1,1.4-0.2v0.6c-0.4,0.1-0.9,0.2-1.5,0.2c-0.8,0-1.5-0.3-1.9-0.8c-0.5-0.5-0.7-1.2-0.7-2.2c0-0.6,0.1-1.1,0.3-1.5
						c0.2-0.4,0.5-0.8,1-1c0.4-0.2,0.9-0.4,1.5-0.4c0.6,0,1.1,0.1,1.6,0.3l-0.3,0.6C261.9,444.1,261.5,444,261.1,444z"/>
					<path fill="#47505E" d="M266.5,449.2v-2.8c0-0.3-0.1-0.6-0.2-0.8c-0.2-0.2-0.4-0.3-0.7-0.3c-0.5,0-0.8,0.1-1,0.4
						s-0.3,0.6-0.3,1.2v2.2h-0.6v-6.1h0.6v1.8c0,0.2,0,0.4,0,0.6h0c0.1-0.2,0.3-0.4,0.5-0.5s0.5-0.2,0.8-0.2c0.5,0,0.9,0.1,1.2,0.4
						c0.3,0.2,0.4,0.6,0.4,1.2v2.8H266.5z"/>
					<path fill="#47505E" d="M268.4,443.8c0-0.1,0-0.3,0.1-0.3c0.1-0.1,0.2-0.1,0.3-0.1c0.1,0,0.2,0,0.3,0.1
						c0.1,0.1,0.1,0.2,0.1,0.3c0,0.1,0,0.3-0.1,0.3c-0.1,0.1-0.2,0.1-0.3,0.1c-0.1,0-0.2,0-0.3-0.1
						C268.5,444,268.4,443.9,268.4,443.8z M269.1,449.2h-0.6v-4.3h0.6V449.2z"/>
					<path fill="#47505E" d="M272.2,449.3c-0.6,0-1.1-0.2-1.4-0.6s-0.5-0.9-0.5-1.6c0-0.7,0.2-1.3,0.5-1.7c0.3-0.4,0.8-0.6,1.5-0.6
						c0.2,0,0.4,0,0.6,0.1s0.4,0.1,0.5,0.2l-0.2,0.6c-0.1-0.1-0.3-0.1-0.5-0.1c-0.2,0-0.3-0.1-0.4-0.1c-0.9,0-1.3,0.6-1.3,1.7
						c0,0.5,0.1,0.9,0.3,1.2s0.5,0.4,0.9,0.4c0.4,0,0.7-0.1,1.1-0.2v0.6C273,449.2,272.7,449.3,272.2,449.3z"/>
					<path fill="#47505E" d="M277,449.2l-0.1-0.6h0c-0.2,0.3-0.4,0.5-0.6,0.5c-0.2,0.1-0.5,0.1-0.8,0.1c-0.4,0-0.8-0.1-1-0.3
						c-0.2-0.2-0.4-0.5-0.4-0.9c0-0.9,0.7-1.3,2.1-1.4l0.7,0v-0.3c0-0.3-0.1-0.6-0.2-0.7c-0.1-0.2-0.4-0.2-0.7-0.2
						c-0.4,0-0.8,0.1-1.2,0.3l-0.2-0.5c0.2-0.1,0.4-0.2,0.7-0.3c0.3-0.1,0.5-0.1,0.8-0.1c0.5,0,0.9,0.1,1.1,0.3
						c0.2,0.2,0.4,0.6,0.4,1.1v2.9L277,449.2L277,449.2z M275.5,448.7c0.4,0,0.7-0.1,1-0.3s0.3-0.5,0.3-0.9v-0.4l-0.6,0
						c-0.5,0-0.9,0.1-1.1,0.2c-0.2,0.1-0.3,0.4-0.3,0.7c0,0.2,0.1,0.4,0.2,0.5C275,448.7,275.2,448.7,275.5,448.7z"/>
					<path fill="#47505E" d="M282.3,444.9v0.4l-0.8,0.1c0.1,0.1,0.1,0.2,0.2,0.4c0.1,0.1,0.1,0.3,0.1,0.5c0,0.4-0.1,0.8-0.4,1
						c-0.3,0.2-0.7,0.4-1.2,0.4c-0.1,0-0.2,0-0.4,0c-0.3,0.1-0.4,0.3-0.4,0.6c0,0.1,0,0.2,0.1,0.3c0.1,0.1,0.3,0.1,0.5,0.1h0.8
						c0.5,0,0.8,0.1,1.1,0.3c0.2,0.2,0.4,0.5,0.4,0.9c0,0.5-0.2,0.8-0.6,1.1c-0.4,0.2-0.9,0.4-1.7,0.4c-0.6,0-1-0.1-1.3-0.3
						c-0.3-0.2-0.5-0.5-0.5-0.9c0-0.3,0.1-0.5,0.2-0.7c0.2-0.2,0.4-0.3,0.7-0.4c-0.1,0-0.2-0.1-0.3-0.2c-0.1-0.1-0.1-0.2-0.1-0.4
						c0-0.2,0-0.3,0.1-0.4s0.2-0.2,0.4-0.3c-0.2-0.1-0.4-0.2-0.5-0.5c-0.1-0.2-0.2-0.5-0.2-0.8c0-0.5,0.1-0.8,0.4-1.1
						c0.3-0.3,0.7-0.4,1.2-0.4c0.2,0,0.4,0,0.6,0.1L282.3,444.9L282.3,444.9z M278.9,449.9c0,0.2,0.1,0.4,0.3,0.5
						c0.2,0.1,0.5,0.2,0.8,0.2c0.5,0,0.9-0.1,1.2-0.2c0.3-0.2,0.4-0.4,0.4-0.7c0-0.2-0.1-0.4-0.2-0.5s-0.4-0.1-0.8-0.1h-0.8
						c-0.3,0-0.5,0.1-0.7,0.2C279,449.5,278.9,449.7,278.9,449.9z M279.2,446.3c0,0.3,0.1,0.5,0.3,0.7c0.2,0.2,0.4,0.2,0.7,0.2
						c0.6,0,0.9-0.3,0.9-0.9c0-0.6-0.3-1-1-1c-0.3,0-0.5,0.1-0.7,0.2C279.3,445.7,279.2,446,279.2,446.3z"/>
					<path fill="#47505E" d="M286.9,447.1c0,0.7-0.2,1.2-0.5,1.6c-0.4,0.4-0.8,0.6-1.5,0.6c-0.4,0-0.7-0.1-1-0.3
						c-0.3-0.2-0.5-0.4-0.7-0.8s-0.2-0.7-0.2-1.2c0-0.7,0.2-1.2,0.5-1.6c0.3-0.4,0.8-0.6,1.5-0.6c0.6,0,1.1,0.2,1.4,0.6
						C286.7,445.8,286.9,446.4,286.9,447.1z M283.6,447.1c0,0.5,0.1,1,0.3,1.2c0.2,0.3,0.5,0.4,1,0.4c0.4,0,0.7-0.1,1-0.4
						c0.2-0.3,0.3-0.7,0.3-1.3c0-0.5-0.1-1-0.3-1.2c-0.2-0.3-0.5-0.4-1-0.4c-0.4,0-0.7,0.1-1,0.4
						C283.7,446.1,283.6,446.5,283.6,447.1z"/>
					<path fill="#47505E" d="M288.7,448.3L288.7,448.3c0,0.4-0.1,0.7-0.2,1c-0.1,0.3-0.3,0.7-0.4,1h-0.5c0.1-0.3,0.1-0.6,0.2-1
						c0.1-0.4,0.1-0.7,0.2-1H288.7z"/>
					<path fill="#47505E" d="M292.1,449.2v-5.7h0.7v5.7H292.1z"/>
					<path fill="#47505E" d="M294.4,449.2v-5.7h0.7v5.1h2.5v0.6H294.4z"/>
					<path fill="#47505E" d="M300.3,446.8c0-1.1,0.2-2,0.7-2.5s1.1-0.8,1.9-0.8c0.3,0,0.5,0,0.7,0.1v0.6c-0.2-0.1-0.4-0.1-0.7-0.1
						c-0.6,0-1.1,0.2-1.4,0.6c-0.3,0.4-0.5,1-0.5,1.8h0c0.3-0.4,0.7-0.7,1.4-0.7c0.5,0,0.9,0.2,1.2,0.5c0.3,0.3,0.4,0.7,0.4,1.3
						c0,0.6-0.2,1.1-0.5,1.4c-0.3,0.3-0.8,0.5-1.3,0.5c-0.6,0-1.1-0.2-1.4-0.7C300.4,448.2,300.3,447.6,300.3,446.8z M302.2,448.7
						c0.4,0,0.7-0.1,0.9-0.4c0.2-0.2,0.3-0.6,0.3-1c0-0.4-0.1-0.7-0.3-0.9c-0.2-0.2-0.5-0.3-0.9-0.3c-0.2,0-0.4,0-0.6,0.1
						c-0.2,0.1-0.4,0.2-0.5,0.4c-0.1,0.2-0.2,0.3-0.2,0.5c0,0.3,0.1,0.5,0.2,0.8c0.1,0.2,0.3,0.4,0.4,0.6
						C301.7,448.7,301.9,448.7,302.2,448.7z"/>
					<path fill="#47505E" d="M308.6,446.3c0,1-0.2,1.7-0.5,2.2c-0.3,0.5-0.8,0.7-1.4,0.7c-0.6,0-1.1-0.2-1.4-0.7
						c-0.3-0.5-0.5-1.2-0.5-2.2c0-1,0.2-1.7,0.5-2.2c0.3-0.5,0.8-0.7,1.4-0.7c0.6,0,1.1,0.3,1.4,0.8
						C308.4,444.7,308.6,445.4,308.6,446.3z M305.4,446.3c0,0.8,0.1,1.4,0.3,1.8s0.5,0.6,0.9,0.6c0.4,0,0.7-0.2,0.9-0.6
						c0.2-0.4,0.3-1,0.3-1.8s-0.1-1.4-0.3-1.8c-0.2-0.4-0.5-0.6-0.9-0.6c-0.4,0-0.7,0.2-0.9,0.6S305.4,445.5,305.4,446.3z"/>
					<path fill="#47505E" d="M309.4,446.8c0-1.1,0.2-2,0.7-2.5c0.4-0.6,1.1-0.8,1.9-0.8c0.3,0,0.5,0,0.7,0.1v0.6
						c-0.2-0.1-0.4-0.1-0.7-0.1c-0.6,0-1.1,0.2-1.4,0.6c-0.3,0.4-0.5,1-0.5,1.8h0c0.3-0.4,0.7-0.7,1.4-0.7c0.5,0,0.9,0.2,1.2,0.5
						c0.3,0.3,0.4,0.7,0.4,1.3c0,0.6-0.2,1.1-0.5,1.4c-0.3,0.3-0.8,0.5-1.3,0.5c-0.6,0-1.1-0.2-1.4-0.7
						C309.6,448.2,309.4,447.6,309.4,446.8z M311.3,448.7c0.4,0,0.7-0.1,0.9-0.4c0.2-0.2,0.3-0.6,0.3-1c0-0.4-0.1-0.7-0.3-0.9
						c-0.2-0.2-0.5-0.3-0.9-0.3c-0.2,0-0.4,0-0.6,0.1c-0.2,0.1-0.4,0.2-0.5,0.4s-0.2,0.3-0.2,0.5c0,0.3,0.1,0.5,0.2,0.8
						c0.1,0.2,0.3,0.4,0.4,0.6C310.9,448.7,311.1,448.7,311.3,448.7z"/>
					<path fill="#47505E" d="M317.7,449.2h-3.8v-0.6l1.5-1.5c0.5-0.5,0.8-0.8,0.9-1c0.1-0.2,0.3-0.4,0.3-0.6
						c0.1-0.2,0.1-0.4,0.1-0.6c0-0.3-0.1-0.5-0.3-0.7c-0.2-0.2-0.4-0.3-0.8-0.3c-0.2,0-0.5,0-0.7,0.1s-0.4,0.2-0.7,0.4l-0.3-0.4
						c0.5-0.4,1.1-0.7,1.7-0.7c0.5,0,1,0.1,1.3,0.4c0.3,0.3,0.5,0.6,0.5,1.1c0,0.4-0.1,0.7-0.3,1.1c-0.2,0.4-0.6,0.8-1.1,1.3
						l-1.2,1.2v0h2.9L317.7,449.2L317.7,449.2z"/>
					<path fill="#47505E" d="M322.2,449.2h-3.8v-0.6l1.5-1.5c0.5-0.5,0.8-0.8,0.9-1c0.1-0.2,0.3-0.4,0.3-0.6
						c0.1-0.2,0.1-0.4,0.1-0.6c0-0.3-0.1-0.5-0.3-0.7c-0.2-0.2-0.4-0.3-0.8-0.3c-0.2,0-0.5,0-0.7,0.1s-0.4,0.2-0.7,0.4l-0.3-0.4
						c0.5-0.4,1.1-0.7,1.7-0.7c0.5,0,1,0.1,1.3,0.4c0.3,0.3,0.5,0.6,0.5,1.1c0,0.4-0.1,0.7-0.3,1.1c-0.2,0.4-0.6,0.8-1.1,1.3
						l-1.2,1.2v0h2.9L322.2,449.2L322.2,449.2z"/>
				</g>
				<g>
					<g>
						<path fill="#47505E" d="M243.5,451h-12c-2.5,0-4.5-2-4.5-4.5v-12c0-2.5,2-4.5,4.5-4.5h12c2.5,0,4.5,2,4.5,4.5v12
							C248,449,246,451,243.5,451z"/>
					</g>
				</g>
				<rect x="394" y="399" fill="#47505E" width="32" height="32"/>
				<rect x="394" y="433" fill="#47505E" width="32" height="32"/>
				<rect x="215" y="395" fill="#47505E" width="215" height="2"/>
				<rect x="215" y="467" fill="#47505E" width="215" height="2"/>
			</g>
			<g>
				<g>
					<path fill="#47505E" d="M237,491.7h-2.4l-1.4-5.2c-0.1-0.2-0.1-0.6-0.3-1.2c-0.1-0.6-0.2-1-0.2-1.2c0,0.2-0.1,0.6-0.2,1.2
						c-0.1,0.5-0.2,0.9-0.3,1.2l-1.3,5.2h-2.4l-2.6-10h2.1l1.3,5.5c0.2,1,0.4,1.9,0.5,2.6c0-0.3,0.1-0.7,0.2-1.2
						c0.1-0.5,0.2-1,0.3-1.3l1.5-5.6h2l1.5,5.6c0.1,0.3,0.1,0.6,0.2,1.1c0.1,0.5,0.2,1,0.2,1.3c0-0.4,0.1-0.8,0.2-1.3
						c0.1-0.5,0.2-1,0.3-1.3l1.3-5.5h2.1L237,491.7z"/>
					<path fill="#47505E" d="M247.7,491.7h-2.1v-4.5c0-1.1-0.4-1.7-1.2-1.7c-0.6,0-1,0.2-1.3,0.6c-0.3,0.4-0.4,1-0.4,1.9v3.6h-2.1
						V481h2.1v2.2c0,0.2,0,0.6,0,1.2l0,0.6h0.1c0.5-0.7,1.2-1.1,2.2-1.1c0.9,0,1.6,0.2,2,0.7c0.5,0.5,0.7,1.2,0.7,2.1L247.7,491.7
						L247.7,491.7z"/>
					<path fill="#47505E" d="M256.8,487.8c0,1.2-0.3,2.2-1,2.9c-0.7,0.7-1.6,1.1-2.7,1.1c-0.7,0-1.4-0.2-1.9-0.5
						c-0.6-0.3-1-0.8-1.3-1.4c-0.3-0.6-0.5-1.3-0.5-2.1c0-1.2,0.3-2.2,1-2.9c0.7-0.7,1.6-1,2.7-1c0.7,0,1.4,0.2,1.9,0.5
						c0.6,0.3,1,0.8,1.3,1.4C256.6,486.3,256.8,487,256.8,487.8z M251.5,487.8c0,0.8,0.1,1.3,0.4,1.7s0.7,0.6,1.2,0.6
						c0.6,0,1-0.2,1.2-0.6c0.2-0.4,0.4-1,0.4-1.7c0-0.8-0.1-1.3-0.4-1.7s-0.6-0.6-1.2-0.6c-0.6,0-1,0.2-1.2,0.6
						C251.6,486.5,251.5,487.1,251.5,487.8z"/>
					<path fill="#47505E" d="M260.6,491.7h-2.1V481h2.1V491.7z"/>
					<path fill="#47505E" d="M266.2,491.8c-1.2,0-2.2-0.3-2.9-1c-0.7-0.7-1-1.6-1-2.9c0-1.3,0.3-2.3,1-3c0.6-0.7,1.5-1,2.7-1
						c1.1,0,1.9,0.3,2.5,0.9s0.9,1.5,0.9,2.5v1h-4.9c0,0.6,0.2,1.1,0.5,1.4c0.3,0.3,0.8,0.5,1.4,0.5c0.5,0,0.9,0,1.3-0.1
						c0.4-0.1,0.8-0.2,1.3-0.5v1.6c-0.4,0.2-0.8,0.3-1.2,0.4C267.3,491.8,266.8,491.8,266.2,491.8z M265.9,485.4
						c-0.4,0-0.8,0.1-1,0.4c-0.2,0.3-0.4,0.7-0.4,1.2h2.9c0-0.5-0.1-0.9-0.4-1.2C266.7,485.5,266.4,485.4,265.9,485.4z"/>
					<path fill="#47505E" d="M276.4,489.4c0,0.8-0.3,1.4-0.8,1.8c-0.5,0.4-1.4,0.6-2.4,0.6c-0.6,0-1,0-1.4-0.1
						c-0.4-0.1-0.8-0.2-1.1-0.3v-1.7c0.4,0.2,0.8,0.3,1.3,0.5s0.9,0.2,1.3,0.2c0.8,0,1.1-0.2,1.1-0.7c0-0.2,0-0.3-0.1-0.4
						c-0.1-0.1-0.3-0.2-0.5-0.3c-0.2-0.1-0.6-0.3-1-0.5c-0.6-0.2-1-0.5-1.3-0.7c-0.3-0.2-0.5-0.5-0.6-0.7c-0.1-0.3-0.2-0.6-0.2-1
						c0-0.7,0.3-1.2,0.8-1.6c0.5-0.4,1.3-0.6,2.2-0.6c0.9,0,1.8,0.2,2.7,0.6l-0.6,1.5c-0.4-0.2-0.7-0.3-1.1-0.4
						c-0.3-0.1-0.7-0.2-1-0.2c-0.6,0-0.9,0.2-0.9,0.5c0,0.2,0.1,0.3,0.3,0.5c0.2,0.1,0.6,0.3,1.3,0.6c0.6,0.2,1,0.5,1.3,0.7
						c0.3,0.2,0.5,0.5,0.6,0.7C276.3,488.7,276.4,489,276.4,489.4z"/>
					<path fill="#47505E" d="M284.9,487.8c0,1.2-0.3,2.2-1,2.9c-0.7,0.7-1.6,1.1-2.7,1.1c-0.7,0-1.4-0.2-1.9-0.5
						c-0.6-0.3-1-0.8-1.3-1.4c-0.3-0.6-0.5-1.3-0.5-2.1c0-1.2,0.3-2.2,1-2.9c0.7-0.7,1.6-1,2.7-1c0.7,0,1.4,0.2,1.9,0.5
						c0.6,0.3,1,0.8,1.3,1.4C284.8,486.3,284.9,487,284.9,487.8z M279.7,487.8c0,0.8,0.1,1.3,0.4,1.7s0.7,0.6,1.2,0.6
						c0.6,0,1-0.2,1.2-0.6c0.2-0.4,0.4-1,0.4-1.7c0-0.8-0.1-1.3-0.4-1.7c-0.2-0.4-0.6-0.6-1.2-0.6c-0.6,0-1,0.2-1.2,0.6
						C279.8,486.5,279.7,487.1,279.7,487.8z"/>
					<path fill="#47505E" d="M293.5,491.7h-2.1v-4.5c0-0.6-0.1-1-0.3-1.2c-0.2-0.3-0.5-0.4-0.9-0.4c-0.5,0-0.9,0.2-1.2,0.6
						c-0.2,0.4-0.4,1-0.4,1.9v3.6h-2.1V484h1.6l0.3,1h0.1c0.2-0.4,0.5-0.6,0.9-0.8c0.4-0.2,0.8-0.3,1.3-0.3c1.1,0,1.9,0.4,2.3,1.1
						h0.2c0.2-0.4,0.5-0.6,0.9-0.8s0.8-0.3,1.4-0.3c0.9,0,1.5,0.2,2,0.7c0.4,0.4,0.7,1.2,0.7,2.1v5h-2.1v-4.5c0-0.6-0.1-1-0.3-1.2
						c-0.2-0.3-0.5-0.4-0.9-0.4c-0.5,0-0.9,0.2-1.1,0.5c-0.3,0.4-0.4,0.9-0.4,1.7V491.7z"/>
					<path fill="#47505E" d="M303.9,491.8c-1.2,0-2.2-0.3-2.9-1c-0.7-0.7-1-1.6-1-2.9c0-1.3,0.3-2.3,1-3c0.6-0.7,1.5-1,2.7-1
						c1.1,0,1.9,0.3,2.5,0.9c0.6,0.6,0.9,1.5,0.9,2.5v1h-4.9c0,0.6,0.2,1.1,0.5,1.4s0.8,0.5,1.4,0.5c0.5,0,0.9,0,1.3-0.1
						c0.4-0.1,0.8-0.2,1.3-0.5v1.6c-0.4,0.2-0.8,0.3-1.2,0.4C305,491.8,304.5,491.8,303.9,491.8z M303.6,485.4c-0.4,0-0.8,0.1-1,0.4
						c-0.2,0.3-0.4,0.7-0.4,1.2h2.9c0-0.5-0.1-0.9-0.4-1.2C304.4,485.5,304,485.4,303.6,485.4z"/>
					<path fill="#47505E" d="M316.3,486.1h4v5.2c-0.6,0.2-1.2,0.4-1.8,0.4c-0.6,0.1-1.1,0.1-1.7,0.1c-1.5,0-2.7-0.4-3.5-1.3
						c-0.8-0.9-1.2-2.2-1.2-3.8c0-1.6,0.5-2.9,1.4-3.8c0.9-0.9,2.2-1.4,3.8-1.4c1,0,2,0.2,3,0.6l-0.7,1.7c-0.7-0.4-1.5-0.5-2.3-0.5
						c-0.9,0-1.6,0.3-2.2,0.9c-0.6,0.6-0.8,1.4-0.8,2.5c0,1.1,0.2,1.9,0.7,2.5s1.1,0.9,1.9,0.9c0.4,0,0.9,0,1.3-0.1v-2.1h-1.9V486.1
						z"/>
					<path fill="#47505E" d="M326.7,483.9c0.3,0,0.5,0,0.7,0.1l-0.2,2c-0.2,0-0.4-0.1-0.6-0.1c-0.7,0-1.2,0.2-1.6,0.5
						c-0.4,0.3-0.6,0.8-0.6,1.4v3.9h-2.1V484h1.6l0.3,1.3h0.1c0.2-0.4,0.6-0.8,1-1C325.8,484,326.3,483.9,326.7,483.9z"/>
					<path fill="#47505E" d="M335.8,487.8c0,1.2-0.3,2.2-1,2.9s-1.6,1.1-2.7,1.1c-0.7,0-1.4-0.2-1.9-0.5c-0.6-0.3-1-0.8-1.3-1.4
						c-0.3-0.6-0.5-1.3-0.5-2.1c0-1.2,0.3-2.2,1-2.9s1.6-1,2.7-1c0.7,0,1.4,0.2,1.9,0.5c0.6,0.3,1,0.8,1.3,1.4
						C335.6,486.3,335.8,487,335.8,487.8z M330.5,487.8c0,0.8,0.1,1.3,0.4,1.7c0.2,0.4,0.7,0.6,1.2,0.6c0.6,0,1-0.2,1.2-0.6
						c0.2-0.4,0.4-1,0.4-1.7c0-0.8-0.1-1.3-0.4-1.7s-0.6-0.6-1.2-0.6c-0.6,0-1,0.2-1.2,0.6C330.6,486.5,330.5,487.1,330.5,487.8z"/>
					<path fill="#47505E" d="M340.6,491.8c-2.4,0-3.6-1.3-3.6-3.9c0-1.3,0.3-2.3,1-3c0.6-0.7,1.6-1,2.8-1c0.9,0,1.7,0.2,2.4,0.5
						l-0.6,1.6c-0.3-0.1-0.6-0.2-0.9-0.3c-0.3-0.1-0.6-0.1-0.8-0.1c-1.1,0-1.6,0.8-1.6,2.3c0,1.5,0.5,2.2,1.6,2.2
						c0.4,0,0.8-0.1,1.1-0.2c0.3-0.1,0.7-0.3,1-0.5v1.8c-0.3,0.2-0.7,0.4-1,0.4C341.5,491.8,341.1,491.8,340.6,491.8z"/>
					<path fill="#47505E" d="M348.1,491.8c-1.2,0-2.2-0.3-2.9-1c-0.7-0.7-1-1.6-1-2.9c0-1.3,0.3-2.3,1-3c0.6-0.7,1.5-1,2.7-1
						c1.1,0,1.9,0.3,2.5,0.9c0.6,0.6,0.9,1.5,0.9,2.5v1h-4.9c0,0.6,0.2,1.1,0.5,1.4c0.3,0.3,0.8,0.5,1.4,0.5c0.5,0,0.9,0,1.3-0.1
						c0.4-0.1,0.8-0.2,1.3-0.5v1.6c-0.4,0.2-0.8,0.3-1.2,0.4C349.2,491.8,348.7,491.8,348.1,491.8z M347.9,485.4
						c-0.4,0-0.8,0.1-1,0.4c-0.2,0.3-0.4,0.7-0.4,1.2h2.9c0-0.5-0.1-0.9-0.4-1.2C348.6,485.5,348.3,485.4,347.9,485.4z"/>
					<path fill="#47505E" d="M357.2,483.9c0.3,0,0.5,0,0.7,0.1l-0.2,2c-0.2,0-0.4-0.1-0.6-0.1c-0.7,0-1.2,0.2-1.6,0.5
						s-0.6,0.8-0.6,1.4v3.9H353V484h1.6l0.3,1.3h0.1c0.2-0.4,0.6-0.8,1-1C356.3,484,356.7,483.9,357.2,483.9z"/>
					<path fill="#47505E" d="M358.2,484h2.3l1.4,4.3c0.1,0.4,0.2,0.8,0.3,1.3h0c0.1-0.5,0.1-0.9,0.3-1.3l1.4-4.3h2.2l-3.2,8.6
						c-0.3,0.8-0.7,1.4-1.3,1.8c-0.5,0.4-1.2,0.6-1.9,0.6c-0.4,0-0.7,0-1.1-0.1v-1.7c0.2,0.1,0.5,0.1,0.8,0.1c0.4,0,0.7-0.1,1-0.3
						c0.3-0.2,0.5-0.6,0.6-1l0.1-0.4L358.2,484z"/>
				</g>
				<g>
					<path fill="#47505E" d="M260.6,509.2H260v-4.1c0-0.3,0-0.7,0-1c-0.1,0.1-0.1,0.1-0.2,0.2c-0.1,0.1-0.4,0.3-0.9,0.8l-0.3-0.4
						l1.5-1.2h0.5L260.6,509.2L260.6,509.2z"/>
					<path fill="#47505E" d="M266.6,505.9c0,2.2-0.9,3.4-2.6,3.4c-0.3,0-0.5,0-0.7-0.1v-0.6c0.2,0.1,0.4,0.1,0.7,0.1
						c0.6,0,1.1-0.2,1.4-0.6c0.3-0.4,0.5-1,0.5-1.8h0c-0.1,0.2-0.3,0.4-0.6,0.5c-0.2,0.1-0.5,0.2-0.8,0.2c-0.5,0-0.9-0.2-1.2-0.5
						c-0.3-0.3-0.4-0.7-0.4-1.3c0-0.6,0.2-1.1,0.5-1.4c0.3-0.3,0.8-0.5,1.3-0.5c0.4,0,0.7,0.1,1,0.3s0.5,0.5,0.7,0.9
						C266.5,505,266.6,505.4,266.6,505.9z M264.7,504c-0.4,0-0.7,0.1-0.9,0.4s-0.3,0.6-0.3,1c0,0.4,0.1,0.7,0.3,0.9s0.5,0.3,0.9,0.3
						c0.2,0,0.5,0,0.7-0.1c0.2-0.1,0.4-0.2,0.5-0.4c0.1-0.2,0.2-0.3,0.2-0.5c0-0.3-0.1-0.5-0.2-0.8c-0.1-0.2-0.3-0.4-0.4-0.5
						S264.9,504,264.7,504z"/>
					<path fill="#47505E" d="M269.3,503.4c0.5,0,0.9,0.1,1.2,0.4c0.3,0.2,0.5,0.6,0.5,1c0,0.3-0.1,0.5-0.3,0.8
						c-0.2,0.2-0.5,0.4-0.8,0.6c0.5,0.2,0.8,0.5,1,0.7c0.2,0.2,0.3,0.5,0.3,0.8c0,0.5-0.2,0.9-0.5,1.1c-0.3,0.3-0.8,0.4-1.4,0.4
						c-0.6,0-1.1-0.1-1.4-0.4c-0.3-0.3-0.5-0.6-0.5-1.1c0-0.7,0.4-1.2,1.2-1.5c-0.4-0.2-0.6-0.4-0.8-0.7c-0.2-0.2-0.2-0.5-0.2-0.8
						c0-0.4,0.2-0.7,0.5-1C268.4,503.5,268.8,503.4,269.3,503.4z M268,507.8c0,0.3,0.1,0.6,0.3,0.7s0.5,0.3,0.9,0.3
						c0.4,0,0.7-0.1,0.9-0.3c0.2-0.2,0.3-0.4,0.3-0.8c0-0.3-0.1-0.5-0.3-0.7c-0.2-0.2-0.6-0.4-1.1-0.6c-0.4,0.2-0.7,0.4-0.8,0.6
						C268.1,507.2,268,507.5,268,507.8z M269.3,503.9c-0.3,0-0.6,0.1-0.8,0.2c-0.2,0.2-0.3,0.4-0.3,0.6c0,0.2,0.1,0.4,0.2,0.6
						c0.2,0.2,0.4,0.3,0.9,0.5c0.4-0.2,0.6-0.3,0.8-0.5c0.2-0.2,0.2-0.4,0.2-0.6c0-0.3-0.1-0.5-0.3-0.6S269.6,503.9,269.3,503.9z"/>
					<path fill="#47505E" d="M275.7,509.2H272v-0.6l1.5-1.5c0.5-0.5,0.8-0.8,0.9-1c0.1-0.2,0.3-0.4,0.3-0.6c0.1-0.2,0.1-0.4,0.1-0.6
						c0-0.3-0.1-0.5-0.3-0.7c-0.2-0.2-0.4-0.3-0.8-0.3c-0.2,0-0.5,0-0.7,0.1c-0.2,0.1-0.4,0.2-0.7,0.4l-0.3-0.4
						c0.5-0.4,1.1-0.7,1.7-0.7c0.5,0,1,0.1,1.3,0.4c0.3,0.3,0.5,0.6,0.5,1.1c0,0.4-0.1,0.7-0.3,1.1c-0.2,0.4-0.6,0.8-1.1,1.3
						l-1.2,1.2v0h2.9L275.7,509.2L275.7,509.2z"/>
					<path fill="#47505E" d="M284,509.2h-0.7l-1.2-3.8c-0.1-0.2-0.1-0.4-0.2-0.6c-0.1-0.3-0.1-0.4-0.1-0.5c-0.1,0.3-0.1,0.7-0.3,1.1
						l-1.1,3.8h-0.7l-1.5-5.7h0.7l0.9,3.5c0.1,0.5,0.2,0.9,0.3,1.3c0.1-0.5,0.2-0.9,0.3-1.4l1-3.5h0.7l1.1,3.5
						c0.1,0.4,0.2,0.9,0.3,1.4c0-0.4,0.1-0.8,0.3-1.4l0.9-3.5h0.7L284,509.2z"/>
					<path fill="#47505E" d="M289,509.2l-0.1-0.6h0c-0.2,0.3-0.4,0.5-0.6,0.5c-0.2,0.1-0.5,0.1-0.8,0.1c-0.4,0-0.8-0.1-1-0.3
						c-0.2-0.2-0.4-0.5-0.4-0.9c0-0.9,0.7-1.3,2.1-1.4l0.7,0v-0.3c0-0.3-0.1-0.6-0.2-0.7s-0.4-0.2-0.7-0.2c-0.4,0-0.8,0.1-1.2,0.3
						l-0.2-0.5c0.2-0.1,0.4-0.2,0.7-0.3c0.3-0.1,0.5-0.1,0.8-0.1c0.5,0,0.9,0.1,1.1,0.3c0.2,0.2,0.4,0.6,0.4,1.1v2.9L289,509.2
						L289,509.2z M287.5,508.7c0.4,0,0.7-0.1,1-0.3s0.3-0.5,0.3-0.9v-0.4l-0.6,0c-0.5,0-0.9,0.1-1.1,0.2c-0.2,0.1-0.3,0.4-0.3,0.7
						c0,0.2,0.1,0.4,0.2,0.5C287,508.7,287.2,508.7,287.5,508.7z"/>
					<path fill="#47505E" d="M292.2,508.7c0.1,0,0.2,0,0.3,0c0.1,0,0.2,0,0.3-0.1v0.5c-0.1,0-0.2,0.1-0.3,0.1c-0.1,0-0.3,0-0.4,0
						c-0.8,0-1.2-0.4-1.2-1.3v-2.5h-0.6v-0.3l0.6-0.3l0.3-0.9h0.4v1h1.2v0.5h-1.2v2.5c0,0.3,0.1,0.5,0.2,0.6
						S291.9,508.7,292.2,508.7z"/>
					<path fill="#47505E" d="M295.4,509.3c-0.6,0-1.1-0.2-1.5-0.6c-0.4-0.4-0.5-0.9-0.5-1.6c0-0.7,0.2-1.2,0.5-1.6
						c0.3-0.4,0.8-0.6,1.4-0.6c0.5,0,1,0.2,1.3,0.5c0.3,0.4,0.5,0.8,0.5,1.4v0.4H294c0,0.5,0.1,0.9,0.4,1.1c0.2,0.3,0.6,0.4,1,0.4
						c0.5,0,0.9-0.1,1.4-0.3v0.6c-0.2,0.1-0.4,0.2-0.6,0.2S295.7,509.3,295.4,509.3z M295.2,505.4c-0.3,0-0.6,0.1-0.8,0.3
						c-0.2,0.2-0.3,0.5-0.4,0.9h2.2c0-0.4-0.1-0.7-0.3-0.9C295.8,505.5,295.6,505.4,295.2,505.4z"/>
					<path fill="#47505E" d="M300,504.8c0.2,0,0.4,0,0.5,0l-0.1,0.6c-0.2,0-0.3-0.1-0.5-0.1c-0.3,0-0.6,0.1-0.9,0.4
						c-0.2,0.3-0.4,0.6-0.4,1.1v2.3h-0.6v-4.3h0.5l0.1,0.8h0c0.2-0.3,0.4-0.5,0.6-0.6C299.5,504.9,299.8,504.8,300,504.8z"/>
					<path fill="#47505E" d="M306.7,507.7c0,0.5-0.2,0.9-0.5,1.2c-0.4,0.3-0.9,0.4-1.5,0.4c-0.7,0-1.2-0.1-1.6-0.3v-0.6
						c0.2,0.1,0.5,0.2,0.8,0.2c0.3,0.1,0.5,0.1,0.8,0.1c0.4,0,0.8-0.1,1-0.3c0.2-0.2,0.3-0.4,0.3-0.7c0-0.2,0-0.4-0.1-0.5
						s-0.2-0.2-0.4-0.3c-0.2-0.1-0.5-0.2-0.9-0.4c-0.5-0.2-0.9-0.4-1.1-0.7s-0.3-0.6-0.3-1c0-0.4,0.2-0.8,0.5-1.1
						c0.3-0.3,0.8-0.4,1.3-0.4c0.6,0,1.1,0.1,1.6,0.3l-0.2,0.6c-0.5-0.2-0.9-0.3-1.4-0.3c-0.4,0-0.6,0.1-0.8,0.2
						c-0.2,0.2-0.3,0.4-0.3,0.6c0,0.2,0,0.4,0.1,0.5c0.1,0.1,0.2,0.2,0.4,0.3c0.2,0.1,0.4,0.2,0.8,0.3c0.6,0.2,1,0.4,1.2,0.7
						C306.6,507,306.7,507.3,306.7,507.7z"/>
					<path fill="#47505E" d="M309.2,508.7c0.1,0,0.2,0,0.3,0c0.1,0,0.2,0,0.3-0.1v0.5c-0.1,0-0.2,0.1-0.3,0.1c-0.1,0-0.3,0-0.4,0
						c-0.8,0-1.2-0.4-1.2-1.3v-2.5h-0.6v-0.3l0.6-0.3l0.3-0.9h0.4v1h1.2v0.5h-1.2v2.5c0,0.3,0.1,0.5,0.2,0.6S309,508.7,309.2,508.7z
						"/>
					<path fill="#47505E" d="M261.1,516c-0.6,0-1.1,0.2-1.5,0.6c-0.4,0.4-0.5,1-0.5,1.7c0,0.7,0.2,1.3,0.5,1.7s0.9,0.6,1.5,0.6
						c0.4,0,0.9-0.1,1.4-0.2v0.6c-0.4,0.1-0.9,0.2-1.5,0.2c-0.8,0-1.5-0.3-1.9-0.8c-0.5-0.5-0.7-1.2-0.7-2.2c0-0.6,0.1-1.1,0.3-1.5
						c0.2-0.4,0.5-0.8,1-1c0.4-0.2,0.9-0.4,1.5-0.4c0.6,0,1.1,0.1,1.6,0.3l-0.3,0.6C261.9,516.1,261.5,516,261.1,516z"/>
					<path fill="#47505E" d="M266.5,521.2v-2.8c0-0.3-0.1-0.6-0.2-0.8c-0.2-0.2-0.4-0.3-0.7-0.3c-0.5,0-0.8,0.1-1,0.4
						s-0.3,0.6-0.3,1.2v2.2h-0.6v-6.1h0.6v1.8c0,0.2,0,0.4,0,0.6h0c0.1-0.2,0.3-0.4,0.5-0.5s0.5-0.2,0.8-0.2c0.5,0,0.9,0.1,1.2,0.4
						c0.3,0.2,0.4,0.6,0.4,1.2v2.8H266.5z"/>
					<path fill="#47505E" d="M268.4,515.8c0-0.1,0-0.3,0.1-0.3c0.1-0.1,0.2-0.1,0.3-0.1c0.1,0,0.2,0,0.3,0.1
						c0.1,0.1,0.1,0.2,0.1,0.3c0,0.1,0,0.3-0.1,0.3c-0.1,0.1-0.2,0.1-0.3,0.1c-0.1,0-0.2,0-0.3-0.1
						C268.5,516,268.4,515.9,268.4,515.8z M269.1,521.2h-0.6v-4.3h0.6V521.2z"/>
					<path fill="#47505E" d="M272.2,521.3c-0.6,0-1.1-0.2-1.4-0.6s-0.5-0.9-0.5-1.6c0-0.7,0.2-1.3,0.5-1.7c0.3-0.4,0.8-0.6,1.5-0.6
						c0.2,0,0.4,0,0.6,0.1s0.4,0.1,0.5,0.2l-0.2,0.6c-0.1-0.1-0.3-0.1-0.5-0.1c-0.2,0-0.3-0.1-0.4-0.1c-0.9,0-1.3,0.6-1.3,1.7
						c0,0.5,0.1,0.9,0.3,1.2s0.5,0.4,0.9,0.4c0.4,0,0.7-0.1,1.1-0.2v0.6C273,521.2,272.7,521.3,272.2,521.3z"/>
					<path fill="#47505E" d="M277,521.2l-0.1-0.6h0c-0.2,0.3-0.4,0.5-0.6,0.5c-0.2,0.1-0.5,0.1-0.8,0.1c-0.4,0-0.8-0.1-1-0.3
						c-0.2-0.2-0.4-0.5-0.4-0.9c0-0.9,0.7-1.3,2.1-1.4l0.7,0v-0.3c0-0.3-0.1-0.6-0.2-0.7c-0.1-0.2-0.4-0.2-0.7-0.2
						c-0.4,0-0.8,0.1-1.2,0.3l-0.2-0.5c0.2-0.1,0.4-0.2,0.7-0.3c0.3-0.1,0.5-0.1,0.8-0.1c0.5,0,0.9,0.1,1.1,0.3
						c0.2,0.2,0.4,0.6,0.4,1.1v2.9L277,521.2L277,521.2z M275.5,520.7c0.4,0,0.7-0.1,1-0.3s0.3-0.5,0.3-0.9v-0.4l-0.6,0
						c-0.5,0-0.9,0.1-1.1,0.2c-0.2,0.1-0.3,0.4-0.3,0.7c0,0.2,0.1,0.4,0.2,0.5C275,520.7,275.2,520.7,275.5,520.7z"/>
					<path fill="#47505E" d="M282.3,516.9v0.4l-0.8,0.1c0.1,0.1,0.1,0.2,0.2,0.4c0.1,0.1,0.1,0.3,0.1,0.5c0,0.4-0.1,0.8-0.4,1
						c-0.3,0.2-0.7,0.4-1.2,0.4c-0.1,0-0.2,0-0.4,0c-0.3,0.1-0.4,0.3-0.4,0.6c0,0.1,0,0.2,0.1,0.3c0.1,0.1,0.3,0.1,0.5,0.1h0.8
						c0.5,0,0.8,0.1,1.1,0.3c0.2,0.2,0.4,0.5,0.4,0.9c0,0.5-0.2,0.8-0.6,1.1c-0.4,0.2-0.9,0.4-1.7,0.4c-0.6,0-1-0.1-1.3-0.3
						c-0.3-0.2-0.5-0.5-0.5-0.9c0-0.3,0.1-0.5,0.2-0.7c0.2-0.2,0.4-0.3,0.7-0.4c-0.1,0-0.2-0.1-0.3-0.2c-0.1-0.1-0.1-0.2-0.1-0.4
						c0-0.2,0-0.3,0.1-0.4s0.2-0.2,0.4-0.3c-0.2-0.1-0.4-0.2-0.5-0.5c-0.1-0.2-0.2-0.5-0.2-0.8c0-0.5,0.1-0.8,0.4-1.1
						c0.3-0.3,0.7-0.4,1.2-0.4c0.2,0,0.4,0,0.6,0.1L282.3,516.9L282.3,516.9z M278.9,521.9c0,0.2,0.1,0.4,0.3,0.5
						c0.2,0.1,0.5,0.2,0.8,0.2c0.5,0,0.9-0.1,1.2-0.2c0.3-0.2,0.4-0.4,0.4-0.7c0-0.2-0.1-0.4-0.2-0.5s-0.4-0.1-0.8-0.1h-0.8
						c-0.3,0-0.5,0.1-0.7,0.2C279,521.5,278.9,521.7,278.9,521.9z M279.2,518.3c0,0.3,0.1,0.5,0.3,0.7c0.2,0.2,0.4,0.2,0.7,0.2
						c0.6,0,0.9-0.3,0.9-0.9c0-0.6-0.3-1-1-1c-0.3,0-0.5,0.1-0.7,0.2C279.3,517.7,279.2,518,279.2,518.3z"/>
					<path fill="#47505E" d="M286.9,519.1c0,0.7-0.2,1.2-0.5,1.6c-0.4,0.4-0.8,0.6-1.5,0.6c-0.4,0-0.7-0.1-1-0.3
						c-0.3-0.2-0.5-0.4-0.7-0.8s-0.2-0.7-0.2-1.2c0-0.7,0.2-1.2,0.5-1.6c0.3-0.4,0.8-0.6,1.5-0.6c0.6,0,1.1,0.2,1.4,0.6
						C286.7,517.8,286.9,518.4,286.9,519.1z M283.6,519.1c0,0.5,0.1,1,0.3,1.2c0.2,0.3,0.5,0.4,1,0.4c0.4,0,0.7-0.1,1-0.4
						c0.2-0.3,0.3-0.7,0.3-1.3c0-0.5-0.1-1-0.3-1.2c-0.2-0.3-0.5-0.4-1-0.4c-0.4,0-0.7,0.1-1,0.4
						C283.7,518.1,283.6,518.5,283.6,519.1z"/>
					<path fill="#47505E" d="M288.7,520.3L288.7,520.3c0,0.4-0.1,0.7-0.2,1c-0.1,0.3-0.3,0.7-0.4,1h-0.5c0.1-0.3,0.1-0.6,0.2-1
						c0.1-0.4,0.1-0.7,0.2-1H288.7L288.7,520.3z"/>
					<path fill="#47505E" d="M292.1,521.2v-5.7h0.7v5.7H292.1z"/>
					<path fill="#47505E" d="M294.4,521.2v-5.7h0.7v5.1h2.5v0.6H294.4z"/>
					<path fill="#47505E" d="M300.3,518.8c0-1.1,0.2-2,0.7-2.5c0.4-0.6,1.1-0.8,1.9-0.8c0.3,0,0.5,0,0.7,0.1v0.6
						c-0.2-0.1-0.4-0.1-0.7-0.1c-0.6,0-1.1,0.2-1.4,0.6c-0.3,0.4-0.5,1-0.5,1.8h0c0.3-0.4,0.7-0.7,1.4-0.7c0.5,0,0.9,0.2,1.2,0.5
						c0.3,0.3,0.4,0.7,0.4,1.3c0,0.6-0.2,1.1-0.5,1.4c-0.3,0.3-0.8,0.5-1.3,0.5c-0.6,0-1.1-0.2-1.4-0.7
						C300.4,520.2,300.3,519.6,300.3,518.8z M302.2,520.7c0.4,0,0.7-0.1,0.9-0.4c0.2-0.2,0.3-0.6,0.3-1c0-0.4-0.1-0.7-0.3-0.9
						c-0.2-0.2-0.5-0.3-0.9-0.3c-0.2,0-0.4,0-0.6,0.1c-0.2,0.1-0.4,0.2-0.5,0.4c-0.1,0.2-0.2,0.3-0.2,0.5c0,0.3,0.1,0.5,0.2,0.8
						c0.1,0.2,0.3,0.4,0.4,0.6C301.7,520.7,301.9,520.7,302.2,520.7z"/>
					<path fill="#47505E" d="M308.6,518.3c0,1-0.2,1.7-0.5,2.2c-0.3,0.5-0.8,0.7-1.4,0.7c-0.6,0-1.1-0.2-1.4-0.7
						c-0.3-0.5-0.5-1.2-0.5-2.2c0-1,0.2-1.7,0.5-2.2s0.8-0.7,1.4-0.7c0.6,0,1.1,0.3,1.4,0.8C308.4,516.7,308.6,517.4,308.6,518.3z
						 M305.4,518.3c0,0.8,0.1,1.4,0.3,1.8s0.5,0.6,0.9,0.6c0.4,0,0.7-0.2,0.9-0.6c0.2-0.4,0.3-1,0.3-1.8s-0.1-1.4-0.3-1.8
						c-0.2-0.4-0.5-0.6-0.9-0.6c-0.4,0-0.7,0.2-0.9,0.6S305.4,517.5,305.4,518.3z"/>
					<path fill="#47505E" d="M309.4,518.8c0-1.1,0.2-2,0.7-2.5c0.4-0.6,1.1-0.8,1.9-0.8c0.3,0,0.5,0,0.7,0.1v0.6
						c-0.2-0.1-0.4-0.1-0.7-0.1c-0.6,0-1.1,0.2-1.4,0.6c-0.3,0.4-0.5,1-0.5,1.8h0c0.3-0.4,0.7-0.7,1.4-0.7c0.5,0,0.9,0.2,1.2,0.5
						c0.3,0.3,0.4,0.7,0.4,1.3c0,0.6-0.2,1.1-0.5,1.4c-0.3,0.3-0.8,0.5-1.3,0.5c-0.6,0-1.1-0.2-1.4-0.7
						C309.6,520.2,309.4,519.6,309.4,518.8z M311.3,520.7c0.4,0,0.7-0.1,0.9-0.4c0.2-0.2,0.3-0.6,0.3-1c0-0.4-0.1-0.7-0.3-0.9
						c-0.2-0.2-0.5-0.3-0.9-0.3c-0.2,0-0.4,0-0.6,0.1c-0.2,0.1-0.4,0.2-0.5,0.4s-0.2,0.3-0.2,0.5c0,0.3,0.1,0.5,0.2,0.8
						c0.1,0.2,0.3,0.4,0.4,0.6C310.9,520.7,311.1,520.7,311.3,520.7z"/>
					<path fill="#47505E" d="M317.7,521.2h-3.8v-0.6l1.5-1.5c0.5-0.5,0.8-0.8,0.9-1c0.1-0.2,0.3-0.4,0.3-0.6
						c0.1-0.2,0.1-0.4,0.1-0.6c0-0.3-0.1-0.5-0.3-0.7c-0.2-0.2-0.4-0.3-0.8-0.3c-0.2,0-0.5,0-0.7,0.1s-0.4,0.2-0.7,0.4l-0.3-0.4
						c0.5-0.4,1.1-0.7,1.7-0.7c0.5,0,1,0.1,1.3,0.4c0.3,0.3,0.5,0.6,0.5,1.1c0,0.4-0.1,0.7-0.3,1.1c-0.2,0.4-0.6,0.8-1.1,1.3
						l-1.2,1.2v0h2.9L317.7,521.2L317.7,521.2z"/>
					<path fill="#47505E" d="M322.2,521.2h-3.8v-0.6l1.5-1.5c0.5-0.5,0.8-0.8,0.9-1c0.1-0.2,0.3-0.4,0.3-0.6
						c0.1-0.2,0.1-0.4,0.1-0.6c0-0.3-0.1-0.5-0.3-0.7c-0.2-0.2-0.4-0.3-0.8-0.3c-0.2,0-0.5,0-0.7,0.1s-0.4,0.2-0.7,0.4l-0.3-0.4
						c0.5-0.4,1.1-0.7,1.7-0.7c0.5,0,1,0.1,1.3,0.4c0.3,0.3,0.5,0.6,0.5,1.1c0,0.4-0.1,0.7-0.3,1.1c-0.2,0.4-0.6,0.8-1.1,1.3
						l-1.2,1.2v0h2.9L322.2,521.2L322.2,521.2z"/>
				</g>
				<g>
					<g>
						<path fill="#47505E" d="M243.5,523h-12c-2.5,0-4.5-2-4.5-4.5v-12c0-2.5,2-4.5,4.5-4.5h12c2.5,0,4.5,2,4.5,4.5v12
							C248,521,246,523,243.5,523z"/>
					</g>
				</g>
				<rect x="394" y="471" fill="#47505E" width="32" height="32"/>
				<rect x="394" y="505" fill="#47505E" width="32" height="32"/>
				<rect x="215" y="467" fill="#47505E" width="215" height="2"/>
				<rect x="215" y="539" fill="#47505E" width="215" height="2"/>
			</g>
			<g>
				<g>
					<path fill="#47505E" d="M231.1,558.1h4v5.2c-0.6,0.2-1.2,0.4-1.8,0.4c-0.6,0.1-1.1,0.1-1.7,0.1c-1.5,0-2.7-0.4-3.5-1.3
						c-0.8-0.9-1.2-2.2-1.2-3.8c0-1.6,0.5-2.9,1.4-3.8c0.9-0.9,2.2-1.4,3.8-1.4c1,0,2,0.2,3,0.6l-0.7,1.7c-0.7-0.4-1.5-0.5-2.3-0.5
						c-0.9,0-1.6,0.3-2.2,0.9c-0.6,0.6-0.8,1.4-0.8,2.5c0,1.1,0.2,1.9,0.7,2.5c0.4,0.6,1.1,0.9,1.9,0.9c0.4,0,0.9,0,1.3-0.1v-2.1
						h-1.9L231.1,558.1L231.1,558.1z"/>
					<path fill="#47505E" d="M240.7,563.8c-1.2,0-2.2-0.3-2.9-1c-0.7-0.7-1-1.6-1-2.9c0-1.3,0.3-2.3,1-3c0.6-0.7,1.5-1,2.7-1
						c1.1,0,1.9,0.3,2.5,0.9c0.6,0.6,0.9,1.5,0.9,2.5v1h-4.9c0,0.6,0.2,1.1,0.5,1.4c0.3,0.3,0.8,0.5,1.4,0.5c0.5,0,0.9,0,1.3-0.1
						c0.4-0.1,0.8-0.2,1.3-0.5v1.6c-0.4,0.2-0.8,0.3-1.2,0.4C241.8,563.8,241.3,563.8,240.7,563.8z M240.4,557.4
						c-0.4,0-0.8,0.1-1,0.4c-0.2,0.3-0.4,0.7-0.4,1.2h2.9c0-0.5-0.1-0.9-0.4-1.2C241.2,557.5,240.8,557.4,240.4,557.4z"/>
					<path fill="#47505E" d="M252.6,563.7h-2.1v-4.5c0-0.6-0.1-1-0.3-1.2c-0.2-0.3-0.5-0.4-0.9-0.4c-0.6,0-1,0.2-1.3,0.6
						c-0.3,0.4-0.4,1-0.4,1.9v3.6h-2.1V556h1.6l0.3,1h0.1c0.2-0.4,0.6-0.6,1-0.8c0.4-0.2,0.9-0.3,1.4-0.3c0.9,0,1.6,0.2,2,0.7
						c0.5,0.5,0.7,1.2,0.7,2.1L252.6,563.7L252.6,563.7z"/>
					<path fill="#47505E" d="M258.2,563.8c-1.2,0-2.2-0.3-2.9-1c-0.7-0.7-1-1.6-1-2.9c0-1.3,0.3-2.3,1-3c0.6-0.7,1.5-1,2.7-1
						c1.1,0,1.9,0.3,2.5,0.9c0.6,0.6,0.9,1.5,0.9,2.5v1h-4.9c0,0.6,0.2,1.1,0.5,1.4s0.8,0.5,1.4,0.5c0.5,0,0.9,0,1.3-0.1
						c0.4-0.1,0.8-0.2,1.3-0.5v1.6c-0.4,0.2-0.8,0.3-1.2,0.4C259.3,563.8,258.8,563.8,258.2,563.8z M257.9,557.4
						c-0.4,0-0.8,0.1-1,0.4c-0.2,0.3-0.4,0.7-0.4,1.2h2.9c0-0.5-0.1-0.9-0.4-1.2C258.7,557.5,258.3,557.4,257.9,557.4z"/>
					<path fill="#47505E" d="M267.2,555.9c0.3,0,0.5,0,0.7,0.1l-0.2,2c-0.2,0-0.4-0.1-0.6-0.1c-0.7,0-1.2,0.2-1.6,0.5
						s-0.6,0.8-0.6,1.4v3.9H263V556h1.6l0.3,1.3h0.1c0.2-0.4,0.6-0.8,1-1C266.3,556,266.8,555.9,267.2,555.9z"/>
					<path fill="#47505E" d="M274.2,563.7l-0.4-1h-0.1c-0.4,0.4-0.7,0.7-1.1,0.9c-0.4,0.2-0.9,0.3-1.5,0.3c-0.7,0-1.3-0.2-1.7-0.6
						s-0.6-1-0.6-1.8c0-0.8,0.3-1.4,0.9-1.8c0.6-0.4,1.4-0.6,2.6-0.6l1.3,0v-0.3c0-0.8-0.4-1.2-1.2-1.2c-0.6,0-1.3,0.2-2.2,0.6
						l-0.7-1.4c0.9-0.5,1.9-0.7,2.9-0.7c1,0,1.8,0.2,2.4,0.7c0.5,0.4,0.8,1.1,0.8,2v5.1L274.2,563.7L274.2,563.7z M273.6,560.1
						l-0.8,0c-0.6,0-1.1,0.1-1.4,0.3c-0.3,0.2-0.4,0.5-0.4,0.9c0,0.6,0.3,0.9,1,0.9c0.5,0,0.9-0.1,1.2-0.4c0.3-0.3,0.4-0.6,0.4-1.1
						V560.1L273.6,560.1z"/>
					<path fill="#47505E" d="M279.9,563.7h-2.1V553h2.1V563.7z"/>
					<path fill="#47505E" d="M291.8,560.9c0,0.9-0.3,1.6-1,2.1c-0.6,0.5-1.6,0.8-2.7,0.8c-1.1,0-2-0.2-2.8-0.6v-2
						c0.7,0.3,1.2,0.5,1.7,0.6c0.5,0.1,0.9,0.2,1.3,0.2c0.5,0,0.8-0.1,1.1-0.3c0.2-0.2,0.4-0.4,0.4-0.8c0-0.2-0.1-0.4-0.2-0.5
						s-0.3-0.3-0.5-0.4c-0.2-0.1-0.6-0.4-1.3-0.7c-0.6-0.3-1.1-0.6-1.4-0.8c-0.3-0.3-0.5-0.6-0.7-0.9c-0.2-0.4-0.3-0.8-0.3-1.2
						c0-0.9,0.3-1.6,0.9-2.1s1.4-0.8,2.5-0.8c0.5,0,1,0.1,1.5,0.2c0.5,0.1,1,0.3,1.5,0.5l-0.7,1.6c-0.5-0.2-1-0.4-1.3-0.5
						s-0.7-0.1-1-0.1c-0.4,0-0.7,0.1-0.9,0.3c-0.2,0.2-0.3,0.4-0.3,0.7c0,0.2,0,0.4,0.1,0.5c0.1,0.1,0.2,0.3,0.4,0.4
						c0.2,0.1,0.6,0.4,1.3,0.7c0.9,0.4,1.6,0.9,1.9,1.3C291.6,559.7,291.8,560.2,291.8,560.9z"/>
					<path fill="#47505E" d="M296.6,562.1c0.4,0,0.8-0.1,1.3-0.2v1.6c-0.5,0.2-1.2,0.3-1.9,0.3c-0.8,0-1.4-0.2-1.8-0.6
						c-0.4-0.4-0.6-1.1-0.6-1.9v-3.7h-1v-0.9l1.1-0.7l0.6-1.6h1.3v1.6h2.1v1.6h-2.1v3.7c0,0.3,0.1,0.5,0.2,0.7
						C296.1,562.1,296.4,562.1,296.6,562.1z"/>
					<path fill="#47505E" d="M306.4,559.8c0,1.2-0.3,2.2-1,2.9c-0.7,0.7-1.6,1.1-2.7,1.1c-0.7,0-1.4-0.2-1.9-0.5
						c-0.6-0.3-1-0.8-1.3-1.4c-0.3-0.6-0.5-1.3-0.5-2.1c0-1.2,0.3-2.2,1-2.9s1.6-1,2.7-1c0.7,0,1.4,0.2,1.9,0.5
						c0.6,0.3,1,0.8,1.3,1.4C306.3,558.3,306.4,559,306.4,559.8z M301.1,559.8c0,0.8,0.1,1.3,0.4,1.7s0.7,0.6,1.2,0.6
						c0.6,0,1-0.2,1.2-0.6c0.2-0.4,0.4-1,0.4-1.7c0-0.8-0.1-1.3-0.4-1.7s-0.6-0.6-1.2-0.6c-0.6,0-1,0.2-1.2,0.6
						C301.3,558.5,301.1,559.1,301.1,559.8z"/>
					<path fill="#47505E" d="M312.4,555.9c0.3,0,0.5,0,0.7,0.1l-0.2,2c-0.2,0-0.4-0.1-0.6-0.1c-0.7,0-1.2,0.2-1.6,0.5
						s-0.6,0.8-0.6,1.4v3.9h-2.1V556h1.6l0.3,1.3h0.1c0.2-0.4,0.6-0.8,1-1C311.5,556,311.9,555.9,312.4,555.9z"/>
					<path fill="#47505E" d="M318,563.8c-1.2,0-2.2-0.3-2.9-1s-1-1.6-1-2.9c0-1.3,0.3-2.3,1-3c0.6-0.7,1.5-1,2.7-1
						c1.1,0,1.9,0.3,2.5,0.9c0.6,0.6,0.9,1.5,0.9,2.5v1h-4.9c0,0.6,0.2,1.1,0.5,1.4c0.3,0.3,0.8,0.5,1.4,0.5c0.5,0,0.9,0,1.3-0.1
						c0.4-0.1,0.8-0.2,1.3-0.5v1.6c-0.4,0.2-0.8,0.3-1.2,0.4C319.1,563.8,318.6,563.8,318,563.8z M317.7,557.4c-0.4,0-0.8,0.1-1,0.4
						c-0.2,0.3-0.4,0.7-0.4,1.2h2.9c0-0.5-0.1-0.9-0.4-1.2C318.5,557.5,318.1,557.4,317.7,557.4z"/>
				</g>
				<g>
					<path fill="#47505E" d="M260.6,581.2H260v-4.1c0-0.3,0-0.7,0-1c-0.1,0.1-0.1,0.1-0.2,0.2c-0.1,0.1-0.4,0.3-0.9,0.8l-0.3-0.4
						l1.5-1.2h0.5L260.6,581.2L260.6,581.2z"/>
					<path fill="#47505E" d="M264.7,575.4c0.5,0,0.9,0.1,1.2,0.4c0.3,0.2,0.5,0.6,0.5,1c0,0.3-0.1,0.5-0.3,0.8
						c-0.2,0.2-0.5,0.4-0.8,0.6c0.5,0.2,0.8,0.5,1,0.7c0.2,0.2,0.3,0.5,0.3,0.8c0,0.5-0.2,0.9-0.5,1.1c-0.3,0.3-0.8,0.4-1.4,0.4
						c-0.6,0-1.1-0.1-1.4-0.4c-0.3-0.3-0.5-0.6-0.5-1.1c0-0.7,0.4-1.2,1.2-1.5c-0.4-0.2-0.6-0.4-0.8-0.7c-0.2-0.2-0.2-0.5-0.2-0.8
						c0-0.4,0.2-0.7,0.5-1S264.2,575.4,264.7,575.4z M263.5,579.8c0,0.3,0.1,0.6,0.3,0.7c0.2,0.2,0.5,0.3,0.9,0.3
						c0.4,0,0.7-0.1,0.9-0.3c0.2-0.2,0.3-0.4,0.3-0.8c0-0.3-0.1-0.5-0.3-0.7c-0.2-0.2-0.6-0.4-1.1-0.6c-0.4,0.2-0.7,0.4-0.8,0.6
						C263.6,579.2,263.5,579.5,263.5,579.8z M264.7,575.9c-0.3,0-0.6,0.1-0.8,0.2s-0.3,0.4-0.3,0.6c0,0.2,0.1,0.4,0.2,0.6
						c0.2,0.2,0.4,0.3,0.9,0.5c0.4-0.2,0.6-0.3,0.8-0.5c0.2-0.2,0.2-0.4,0.2-0.6c0-0.3-0.1-0.5-0.3-0.6S265,575.9,264.7,575.9z"/>
					<path fill="#47505E" d="M273.1,579.7c0,0.5-0.2,0.9-0.5,1.2c-0.4,0.3-0.9,0.4-1.5,0.4c-0.7,0-1.2-0.1-1.6-0.3v-0.6
						c0.2,0.1,0.5,0.2,0.8,0.2c0.3,0.1,0.5,0.1,0.8,0.1c0.4,0,0.8-0.1,1-0.3s0.3-0.4,0.3-0.7c0-0.2,0-0.4-0.1-0.5
						c-0.1-0.1-0.2-0.2-0.4-0.3c-0.2-0.1-0.5-0.2-0.9-0.4c-0.5-0.2-0.9-0.4-1.1-0.7s-0.3-0.6-0.3-1c0-0.4,0.2-0.8,0.5-1.1
						s0.8-0.4,1.3-0.4c0.6,0,1.1,0.1,1.6,0.3l-0.2,0.6c-0.5-0.2-0.9-0.3-1.4-0.3c-0.4,0-0.6,0.1-0.8,0.2c-0.2,0.2-0.3,0.4-0.3,0.6
						c0,0.2,0,0.4,0.1,0.5c0.1,0.1,0.2,0.2,0.4,0.3c0.2,0.1,0.4,0.2,0.8,0.3c0.6,0.2,1,0.4,1.2,0.7C273,579,273.1,579.3,273.1,579.7
						z"/>
					<path fill="#47505E" d="M276.3,581.2v-5.7h0.7v5.1h2.5v0.6H276.3z"/>
					<path fill="#47505E" d="M283,581.2l-0.1-0.6h0c-0.2,0.3-0.4,0.5-0.6,0.5c-0.2,0.1-0.5,0.1-0.8,0.1c-0.4,0-0.8-0.1-1-0.3
						c-0.2-0.2-0.4-0.5-0.4-0.9c0-0.9,0.7-1.3,2.1-1.4l0.7,0v-0.3c0-0.3-0.1-0.6-0.2-0.7s-0.4-0.2-0.7-0.2c-0.4,0-0.8,0.1-1.2,0.3
						l-0.2-0.5c0.2-0.1,0.4-0.2,0.7-0.3c0.3-0.1,0.5-0.1,0.8-0.1c0.5,0,0.9,0.1,1.1,0.3c0.2,0.2,0.4,0.6,0.4,1.1v2.9L283,581.2
						L283,581.2z M281.6,580.7c0.4,0,0.7-0.1,1-0.3s0.3-0.5,0.3-0.9v-0.4l-0.6,0c-0.5,0-0.9,0.1-1.1,0.2c-0.2,0.1-0.3,0.4-0.3,0.7
						c0,0.2,0.1,0.4,0.2,0.5C281.1,580.7,281.3,580.7,281.6,580.7z"/>
					<path fill="#47505E" d="M285.5,579c0.1-0.2,0.3-0.4,0.5-0.6l1.4-1.5h0.8l-1.7,1.8l1.9,2.5h-0.8l-1.5-2l-0.5,0.4v1.6h-0.6v-6.1
						h0.6v3.2C285.5,578.5,285.5,578.7,285.5,579L285.5,579L285.5,579z"/>
					<path fill="#47505E" d="M290.8,581.3c-0.6,0-1.1-0.2-1.5-0.6c-0.4-0.4-0.5-0.9-0.5-1.6c0-0.7,0.2-1.2,0.5-1.6s0.8-0.6,1.4-0.6
						c0.5,0,1,0.2,1.3,0.5s0.5,0.8,0.5,1.4v0.4h-2.9c0,0.5,0.1,0.9,0.4,1.1c0.2,0.3,0.6,0.4,1,0.4c0.5,0,0.9-0.1,1.4-0.3v0.6
						c-0.2,0.1-0.4,0.2-0.6,0.2S291.1,581.3,290.8,581.3z M290.7,577.4c-0.3,0-0.6,0.1-0.8,0.3c-0.2,0.2-0.3,0.5-0.4,0.9h2.2
						c0-0.4-0.1-0.7-0.3-0.9C291.3,577.5,291,577.4,290.7,577.4z"/>
					<path fill="#47505E" d="M296.3,580c0,0.4-0.1,0.7-0.4,0.9c-0.3,0.2-0.7,0.3-1.2,0.3c-0.6,0-1-0.1-1.3-0.3v-0.6
						c0.2,0.1,0.4,0.2,0.7,0.2c0.2,0.1,0.5,0.1,0.7,0.1c0.3,0,0.6-0.1,0.8-0.2c0.2-0.1,0.3-0.3,0.3-0.5c0-0.2-0.1-0.3-0.2-0.4
						s-0.4-0.3-0.8-0.4c-0.4-0.1-0.7-0.3-0.9-0.4c-0.2-0.1-0.3-0.2-0.4-0.4c-0.1-0.1-0.1-0.3-0.1-0.5c0-0.3,0.1-0.6,0.4-0.8
						c0.3-0.2,0.7-0.3,1.2-0.3c0.5,0,0.9,0.1,1.4,0.3l-0.2,0.5c-0.4-0.2-0.8-0.3-1.2-0.3c-0.3,0-0.5,0-0.7,0.1
						c-0.2,0.1-0.2,0.2-0.2,0.4c0,0.1,0,0.2,0.1,0.3s0.2,0.2,0.3,0.2c0.1,0.1,0.4,0.2,0.8,0.3c0.5,0.2,0.9,0.4,1,0.6
						C296.2,579.5,296.3,579.8,296.3,580z"/>
					<path fill="#47505E" d="M300.3,581.2v-2.8c0-0.3-0.1-0.6-0.2-0.8c-0.2-0.2-0.4-0.3-0.7-0.3c-0.5,0-0.8,0.1-1,0.4
						c-0.2,0.2-0.3,0.6-0.3,1.2v2.2h-0.6v-6.1h0.6v1.8c0,0.2,0,0.4,0,0.6h0c0.1-0.2,0.3-0.4,0.5-0.5c0.2-0.1,0.5-0.2,0.8-0.2
						c0.5,0,0.9,0.1,1.2,0.4c0.3,0.2,0.4,0.6,0.4,1.2v2.8H300.3z"/>
					<path fill="#47505E" d="M305.9,579.1c0,0.7-0.2,1.2-0.5,1.6c-0.4,0.4-0.8,0.6-1.5,0.6c-0.4,0-0.7-0.1-1-0.3
						c-0.3-0.2-0.5-0.4-0.7-0.8c-0.2-0.3-0.2-0.7-0.2-1.2c0-0.7,0.2-1.2,0.5-1.6c0.3-0.4,0.8-0.6,1.5-0.6c0.6,0,1.1,0.2,1.4,0.6
						C305.8,577.8,305.9,578.4,305.9,579.1z M302.7,579.1c0,0.5,0.1,1,0.3,1.2c0.2,0.3,0.5,0.4,1,0.4s0.7-0.1,1-0.4
						c0.2-0.3,0.3-0.7,0.3-1.3c0-0.5-0.1-1-0.3-1.2c-0.2-0.3-0.5-0.4-1-0.4c-0.4,0-0.7,0.1-1,0.4
						C302.8,578.1,302.7,578.5,302.7,579.1z"/>
					<path fill="#47505E" d="M309,576.8c0.2,0,0.4,0,0.5,0l-0.1,0.6c-0.2,0-0.3-0.1-0.5-0.1c-0.3,0-0.6,0.1-0.9,0.4
						c-0.2,0.3-0.4,0.6-0.4,1.1v2.3h-0.6v-4.3h0.5l0.1,0.8h0c0.2-0.3,0.4-0.5,0.6-0.6C308.5,576.9,308.8,576.8,309,576.8z"/>
					<path fill="#47505E" d="M312.2,581.3c-0.6,0-1.1-0.2-1.5-0.6s-0.5-0.9-0.5-1.6c0-0.7,0.2-1.2,0.5-1.6s0.8-0.6,1.4-0.6
						c0.5,0,1,0.2,1.3,0.5c0.3,0.4,0.5,0.8,0.5,1.4v0.4h-2.9c0,0.5,0.1,0.9,0.4,1.1c0.2,0.3,0.6,0.4,1,0.4c0.5,0,0.9-0.1,1.4-0.3
						v0.6c-0.2,0.1-0.4,0.2-0.6,0.2C312.7,581.3,312.4,581.3,312.2,581.3z M312,577.4c-0.3,0-0.6,0.1-0.8,0.3
						c-0.2,0.2-0.3,0.5-0.4,0.9h2.2c0-0.4-0.1-0.7-0.3-0.9C312.6,577.5,312.3,577.4,312,577.4z"/>
					<path fill="#47505E" d="M321.6,578.3c0,0.9-0.3,1.7-0.8,2.2c-0.5,0.5-1.2,0.7-2.2,0.7H317v-5.7h1.8c0.9,0,1.6,0.2,2.1,0.7
						C321.3,576.7,321.6,577.4,321.6,578.3z M320.9,578.3c0-0.7-0.2-1.3-0.6-1.7s-0.9-0.6-1.7-0.6h-1v4.6h0.8c0.8,0,1.4-0.2,1.8-0.6
						C320.7,579.7,320.9,579.1,320.9,578.3z"/>
					<path fill="#47505E" d="M324.7,576.8c0.2,0,0.4,0,0.5,0l-0.1,0.6c-0.2,0-0.3-0.1-0.5-0.1c-0.3,0-0.6,0.1-0.9,0.4
						c-0.2,0.3-0.4,0.6-0.4,1.1v2.3h-0.6v-4.3h0.5l0.1,0.8h0c0.2-0.3,0.4-0.5,0.6-0.6C324.2,576.9,324.4,576.8,324.7,576.8z"/>
					<path fill="#47505E" d="M261.1,588c-0.6,0-1.1,0.2-1.5,0.6c-0.4,0.4-0.5,1-0.5,1.7c0,0.7,0.2,1.3,0.5,1.7s0.9,0.6,1.5,0.6
						c0.4,0,0.9-0.1,1.4-0.2v0.6c-0.4,0.1-0.9,0.2-1.5,0.2c-0.8,0-1.5-0.3-1.9-0.8c-0.5-0.5-0.7-1.2-0.7-2.2c0-0.6,0.1-1.1,0.3-1.5
						c0.2-0.4,0.5-0.8,1-1c0.4-0.2,0.9-0.4,1.5-0.4c0.6,0,1.1,0.1,1.6,0.3l-0.3,0.6C261.9,588.1,261.5,588,261.1,588z"/>
					<path fill="#47505E" d="M266.5,593.2v-2.8c0-0.3-0.1-0.6-0.2-0.8c-0.2-0.2-0.4-0.3-0.7-0.3c-0.5,0-0.8,0.1-1,0.4
						s-0.3,0.6-0.3,1.2v2.2h-0.6v-6.1h0.6v1.8c0,0.2,0,0.4,0,0.6h0c0.1-0.2,0.3-0.4,0.5-0.5s0.5-0.2,0.8-0.2c0.5,0,0.9,0.1,1.2,0.4
						c0.3,0.2,0.4,0.6,0.4,1.2v2.8H266.5z"/>
					<path fill="#47505E" d="M268.4,587.8c0-0.1,0-0.3,0.1-0.3c0.1-0.1,0.2-0.1,0.3-0.1c0.1,0,0.2,0,0.3,0.1
						c0.1,0.1,0.1,0.2,0.1,0.3c0,0.1,0,0.3-0.1,0.3c-0.1,0.1-0.2,0.1-0.3,0.1c-0.1,0-0.2,0-0.3-0.1
						C268.5,588,268.4,587.9,268.4,587.8z M269.1,593.2h-0.6v-4.3h0.6V593.2z"/>
					<path fill="#47505E" d="M272.2,593.3c-0.6,0-1.1-0.2-1.4-0.6s-0.5-0.9-0.5-1.6c0-0.7,0.2-1.3,0.5-1.7c0.3-0.4,0.8-0.6,1.5-0.6
						c0.2,0,0.4,0,0.6,0.1s0.4,0.1,0.5,0.2l-0.2,0.6c-0.1-0.1-0.3-0.1-0.5-0.1c-0.2,0-0.3-0.1-0.4-0.1c-0.9,0-1.3,0.6-1.3,1.7
						c0,0.5,0.1,0.9,0.3,1.2s0.5,0.4,0.9,0.4c0.4,0,0.7-0.1,1.1-0.2v0.6C273,593.2,272.7,593.3,272.2,593.3z"/>
					<path fill="#47505E" d="M277,593.2l-0.1-0.6h0c-0.2,0.3-0.4,0.5-0.6,0.5c-0.2,0.1-0.5,0.1-0.8,0.1c-0.4,0-0.8-0.1-1-0.3
						c-0.2-0.2-0.4-0.5-0.4-0.9c0-0.9,0.7-1.3,2.1-1.4l0.7,0v-0.3c0-0.3-0.1-0.6-0.2-0.7c-0.1-0.2-0.4-0.2-0.7-0.2
						c-0.4,0-0.8,0.1-1.2,0.3l-0.2-0.5c0.2-0.1,0.4-0.2,0.7-0.3c0.3-0.1,0.5-0.1,0.8-0.1c0.5,0,0.9,0.1,1.1,0.3
						c0.2,0.2,0.4,0.6,0.4,1.1v2.9L277,593.2L277,593.2z M275.5,592.7c0.4,0,0.7-0.1,1-0.3s0.3-0.5,0.3-0.9v-0.4l-0.6,0
						c-0.5,0-0.9,0.1-1.1,0.2c-0.2,0.1-0.3,0.4-0.3,0.7c0,0.2,0.1,0.4,0.2,0.5C275,592.7,275.2,592.7,275.5,592.7z"/>
					<path fill="#47505E" d="M282.3,588.9v0.4l-0.8,0.1c0.1,0.1,0.1,0.2,0.2,0.4c0.1,0.1,0.1,0.3,0.1,0.5c0,0.4-0.1,0.8-0.4,1
						c-0.3,0.2-0.7,0.4-1.2,0.4c-0.1,0-0.2,0-0.4,0c-0.3,0.1-0.4,0.3-0.4,0.6c0,0.1,0,0.2,0.1,0.3c0.1,0.1,0.3,0.1,0.5,0.1h0.8
						c0.5,0,0.8,0.1,1.1,0.3c0.2,0.2,0.4,0.5,0.4,0.9c0,0.5-0.2,0.8-0.6,1.1c-0.4,0.2-0.9,0.4-1.7,0.4c-0.6,0-1-0.1-1.3-0.3
						c-0.3-0.2-0.5-0.5-0.5-0.9c0-0.3,0.1-0.5,0.2-0.7c0.2-0.2,0.4-0.3,0.7-0.4c-0.1,0-0.2-0.1-0.3-0.2c-0.1-0.1-0.1-0.2-0.1-0.4
						c0-0.2,0-0.3,0.1-0.4s0.2-0.2,0.4-0.3c-0.2-0.1-0.4-0.2-0.5-0.5c-0.1-0.2-0.2-0.5-0.2-0.8c0-0.5,0.1-0.8,0.4-1.1
						c0.3-0.3,0.7-0.4,1.2-0.4c0.2,0,0.4,0,0.6,0.1L282.3,588.9L282.3,588.9z M278.9,593.9c0,0.2,0.1,0.4,0.3,0.5
						c0.2,0.1,0.5,0.2,0.8,0.2c0.5,0,0.9-0.1,1.2-0.2c0.3-0.2,0.4-0.4,0.4-0.7c0-0.2-0.1-0.4-0.2-0.5s-0.4-0.1-0.8-0.1h-0.8
						c-0.3,0-0.5,0.1-0.7,0.2C279,593.5,278.9,593.7,278.9,593.9z M279.2,590.3c0,0.3,0.1,0.5,0.3,0.7c0.2,0.2,0.4,0.2,0.7,0.2
						c0.6,0,0.9-0.3,0.9-0.9c0-0.6-0.3-1-1-1c-0.3,0-0.5,0.1-0.7,0.2C279.3,589.7,279.2,590,279.2,590.3z"/>
					<path fill="#47505E" d="M286.9,591.1c0,0.7-0.2,1.2-0.5,1.6c-0.4,0.4-0.8,0.6-1.5,0.6c-0.4,0-0.7-0.1-1-0.3
						c-0.3-0.2-0.5-0.4-0.7-0.8s-0.2-0.7-0.2-1.2c0-0.7,0.2-1.2,0.5-1.6c0.3-0.4,0.8-0.6,1.5-0.6c0.6,0,1.1,0.2,1.4,0.6
						C286.7,589.8,286.9,590.4,286.9,591.1z M283.6,591.1c0,0.5,0.1,1,0.3,1.2c0.2,0.3,0.5,0.4,1,0.4c0.4,0,0.7-0.1,1-0.4
						c0.2-0.3,0.3-0.7,0.3-1.3c0-0.5-0.1-1-0.3-1.2c-0.2-0.3-0.5-0.4-1-0.4c-0.4,0-0.7,0.1-1,0.4
						C283.7,590.1,283.6,590.5,283.6,591.1z"/>
					<path fill="#47505E" d="M288.7,592.3L288.7,592.3c0,0.4-0.1,0.7-0.2,1c-0.1,0.3-0.3,0.7-0.4,1h-0.5c0.1-0.3,0.1-0.6,0.2-1
						c0.1-0.4,0.1-0.7,0.2-1H288.7L288.7,592.3z"/>
					<path fill="#47505E" d="M292.1,593.2v-5.7h0.7v5.7H292.1z"/>
					<path fill="#47505E" d="M294.4,593.2v-5.7h0.7v5.1h2.5v0.6H294.4z"/>
					<path fill="#47505E" d="M300.3,590.8c0-1.1,0.2-2,0.7-2.5c0.4-0.6,1.1-0.8,1.9-0.8c0.3,0,0.5,0,0.7,0.1v0.6
						c-0.2-0.1-0.4-0.1-0.7-0.1c-0.6,0-1.1,0.2-1.4,0.6c-0.3,0.4-0.5,1-0.5,1.8h0c0.3-0.4,0.7-0.7,1.4-0.7c0.5,0,0.9,0.2,1.2,0.5
						c0.3,0.3,0.4,0.7,0.4,1.3c0,0.6-0.2,1.1-0.5,1.4c-0.3,0.3-0.8,0.5-1.3,0.5c-0.6,0-1.1-0.2-1.4-0.7
						C300.4,592.2,300.3,591.6,300.3,590.8z M302.2,592.7c0.4,0,0.7-0.1,0.9-0.4c0.2-0.2,0.3-0.6,0.3-1c0-0.4-0.1-0.7-0.3-0.9
						c-0.2-0.2-0.5-0.3-0.9-0.3c-0.2,0-0.4,0-0.6,0.1c-0.2,0.1-0.4,0.2-0.5,0.4c-0.1,0.2-0.2,0.3-0.2,0.5c0,0.3,0.1,0.5,0.2,0.8
						c0.1,0.2,0.3,0.4,0.4,0.6C301.7,592.7,301.9,592.7,302.2,592.7z"/>
					<path fill="#47505E" d="M308.6,590.3c0,1-0.2,1.7-0.5,2.2c-0.3,0.5-0.8,0.7-1.4,0.7c-0.6,0-1.1-0.2-1.4-0.7
						c-0.3-0.5-0.5-1.2-0.5-2.2c0-1,0.2-1.7,0.5-2.2s0.8-0.7,1.4-0.7c0.6,0,1.1,0.3,1.4,0.8C308.4,588.7,308.6,589.4,308.6,590.3z
						 M305.4,590.3c0,0.8,0.1,1.4,0.3,1.8s0.5,0.6,0.9,0.6c0.4,0,0.7-0.2,0.9-0.6c0.2-0.4,0.3-1,0.3-1.8s-0.1-1.4-0.3-1.8
						c-0.2-0.4-0.5-0.6-0.9-0.6c-0.4,0-0.7,0.2-0.9,0.6S305.4,589.5,305.4,590.3z"/>
					<path fill="#47505E" d="M309.4,590.8c0-1.1,0.2-2,0.7-2.5c0.4-0.6,1.1-0.8,1.9-0.8c0.3,0,0.5,0,0.7,0.1v0.6
						c-0.2-0.1-0.4-0.1-0.7-0.1c-0.6,0-1.1,0.2-1.4,0.6c-0.3,0.4-0.5,1-0.5,1.8h0c0.3-0.4,0.7-0.7,1.4-0.7c0.5,0,0.9,0.2,1.2,0.5
						c0.3,0.3,0.4,0.7,0.4,1.3c0,0.6-0.2,1.1-0.5,1.4c-0.3,0.3-0.8,0.5-1.3,0.5c-0.6,0-1.1-0.2-1.4-0.7
						C309.6,592.2,309.4,591.6,309.4,590.8z M311.3,592.7c0.4,0,0.7-0.1,0.9-0.4c0.2-0.2,0.3-0.6,0.3-1c0-0.4-0.1-0.7-0.3-0.9
						c-0.2-0.2-0.5-0.3-0.9-0.3c-0.2,0-0.4,0-0.6,0.1c-0.2,0.1-0.4,0.2-0.5,0.4s-0.2,0.3-0.2,0.5c0,0.3,0.1,0.5,0.2,0.8
						c0.1,0.2,0.3,0.4,0.4,0.6C310.9,592.7,311.1,592.7,311.3,592.7z"/>
					<path fill="#47505E" d="M317.7,593.2h-3.8v-0.6l1.5-1.5c0.5-0.5,0.8-0.8,0.9-1c0.1-0.2,0.3-0.4,0.3-0.6
						c0.1-0.2,0.1-0.4,0.1-0.6c0-0.3-0.1-0.5-0.3-0.7c-0.2-0.2-0.4-0.3-0.8-0.3c-0.2,0-0.5,0-0.7,0.1s-0.4,0.2-0.7,0.4l-0.3-0.4
						c0.5-0.4,1.1-0.7,1.7-0.7c0.5,0,1,0.1,1.3,0.4c0.3,0.3,0.5,0.6,0.5,1.1c0,0.4-0.1,0.7-0.3,1.1c-0.2,0.4-0.6,0.8-1.1,1.3
						l-1.2,1.2v0h2.9L317.7,593.2L317.7,593.2z"/>
					<path fill="#47505E" d="M322.2,593.2h-3.8v-0.6l1.5-1.5c0.5-0.5,0.8-0.8,0.9-1c0.1-0.2,0.3-0.4,0.3-0.6
						c0.1-0.2,0.1-0.4,0.1-0.6c0-0.3-0.1-0.5-0.3-0.7c-0.2-0.2-0.4-0.3-0.8-0.3c-0.2,0-0.5,0-0.7,0.1s-0.4,0.2-0.7,0.4l-0.3-0.4
						c0.5-0.4,1.1-0.7,1.7-0.7c0.5,0,1,0.1,1.3,0.4c0.3,0.3,0.5,0.6,0.5,1.1c0,0.4-0.1,0.7-0.3,1.1c-0.2,0.4-0.6,0.8-1.1,1.3
						l-1.2,1.2v0h2.9L322.2,593.2L322.2,593.2z"/>
				</g>
				<g>
					<g>
						<path fill="#47505E" d="M243.5,595h-12c-2.5,0-4.5-2-4.5-4.5v-12c0-2.5,2-4.5,4.5-4.5h12c2.5,0,4.5,2,4.5,4.5v12
							C248,593,246,595,243.5,595z"/>
					</g>
				</g>
				<rect x="394" y="543" fill="#47505E" width="32" height="32"/>
				<rect x="394" y="577" fill="#47505E" width="32" height="32"/>
				<rect x="215" y="539" fill="#47505E" width="215" height="2"/>
			</g>
		</g>
	</g>
</g>
</svg>
