<?xml version="1.0" encoding="utf-8"?>
<!-- Generator: Adobe Illustrator 15.0.0, SVG Export Plug-In . SVG Version: 6.00 Build 0)  -->
<!DOCTYPE svg PUBLIC "-//W3C//DTD SVG 1.1//EN" "http://www.w3.org/Graphics/SVG/1.1/DTD/svg11.dtd">
<svg version="1.1" id="Layer_1" xmlns="http://www.w3.org/2000/svg" xmlns:xlink="http://www.w3.org/1999/xlink" x="0px" y="0px"
	 width="897px" height="430px" viewBox="0 0 897 430" enable-background="new 0 0 897 430" xml:space="preserve">
<g>
	<path fill="#47505E" d="M676.933,400c2.597-3.056,4.067-6.942,4.067-11V17c0-9.374-7.626-17-17-17H36c-9.374,0-17,7.626-17,17v372
		c0,4.059,1.471,7.945,4.068,11H-1.153l0.163,1.142C-0.949,401.43,3.554,430,40,430h620c36.445,0,40.948-28.57,40.99-28.858
		l0.163-1.142H676.933z M21,389V17c0-8.271,6.729-15,15-15h628c8.271,0,15,6.729,15,15v372c0,4.182-1.761,8.164-4.823,11H25.825
		C22.761,397.165,21,393.182,21,389z M424.088,402c-0.834,3.573-3.858,12-13.838,12H355h-55c-9.979,0-13.082-8.423-13.949-12
		H424.088z M660,428H40c-30.972,0-37.611-20.778-38.79-26h283.832c0.887,3.65,4.21,13,14.958,13h55h55.25
		c10.748,0,13.989-9.346,14.846-13h273.677C697.526,407.157,690.589,428,660,428z"/>
	<path fill="#47505E" d="M49,378h602V36H49V378z M51,38h598v338H51V38z"/>
	<path fill="#47505E" d="M356,24.829c2.757,0,5-2.243,5-5s-2.243-5-5-5s-5,2.243-5,5S353.243,24.829,356,24.829z M356,16.829
		c1.654,0,3,1.346,3,3s-1.346,3-3,3s-3-1.346-3-3S354.346,16.829,356,16.829z"/>
</g>
<g>
	<path fill="#47505E" d="M864,30H748c-18.196,0-33,14.804-33,33v276c0,18.196,14.804,33,33,33h116c18.196,0,33-14.804,33-33V63
		C897,44.804,882.196,30,864,30z M895,339c0,17.094-13.906,31-31,31H748c-17.094,0-31-13.906-31-31V63c0-17.093,13.906-31,31-31h116
		c17.094,0,31,13.907,31,31V339z"/>
	<path fill="#47505E" d="M731,330h150V74H731V330z M733,76h146v252H733V76z"/>
	<path fill="#47505E" d="M787.5,57.829c2.757,0,5-2.243,5-5s-2.243-5-5-5s-5,2.243-5,5S784.743,57.829,787.5,57.829z M787.5,49.829
		c1.654,0,3,1.346,3,3s-1.346,3-3,3s-3-1.346-3-3S785.846,49.829,787.5,49.829z"/>
	<path fill="#47505E" d="M803.5,58h21c2.481,0,4.5-2.243,4.5-5s-2.019-5-4.5-5h-21c-2.481,0-4.5,2.243-4.5,5S801.019,58,803.5,58z
		 M803.5,50h21c1.379,0,2.5,1.346,2.5,3s-1.121,3-2.5,3h-21c-1.379,0-2.5-1.346-2.5-3S802.121,50,803.5,50z"/>
	<path fill="#47505E" d="M806,338.833c-6.341,0-11.5,5.159-11.5,11.5s5.159,11.5,11.5,11.5s11.5-5.159,11.5-11.5
		S812.341,338.833,806,338.833z M806,360.833c-5.79,0-10.5-4.71-10.5-10.5s4.71-10.5,10.5-10.5s10.5,4.71,10.5,10.5
		S811.79,360.833,806,360.833z"/>
</g>
</svg>
