<?xml version="1.0" encoding="utf-8"?>
<!-- Generator: Adobe Illustrator 15.0.0, SVG Export Plug-In . SVG Version: 6.00 Build 0)  -->
<!DOCTYPE svg PUBLIC "-//W3C//DTD SVG 1.1//EN" "http://www.w3.org/Graphics/SVG/1.1/DTD/svg11.dtd">
<svg version="1.1" id="Layer_1" xmlns="http://www.w3.org/2000/svg" xmlns:xlink="http://www.w3.org/1999/xlink" x="0px" y="0px"
	 width="480px" height="376px" viewBox="0 0 480 376" enable-background="new 0 0 480 376" xml:space="preserve">
<path opacity="0.06" enable-background="new    " d="M480,237c0,5.523-4.478,10-10,10H128c-5.522,0-10-4.477-10-10V15
	c0-5.523,4.478-10,10-10h342c5.522,0,10,4.477,10,10V237z"/>
<g>
	<g>
		<path fill="#FFFFFF" d="M466,2H122c-3.86,0-7,3.14-7,7v224c0,3.859,3.14,7,7,7h344c3.859,0,7-3.141,7-7V9
			C473,5.14,469.859,2,466,2z"/>
		<path fill="#CCCCCC" d="M466,0H122c-4.962,0-9,4.038-9,9v224c0,4.963,4.038,9,9,9h344c4.963,0,9-4.037,9-9V9
			C475,4.038,470.963,0,466,0z M473,233c0,3.859-3.141,7-7,7H122c-3.86,0-7-3.141-7-7V9c0-3.86,3.14-7,7-7h344c3.859,0,7,3.14,7,7
			V233z"/>
	</g>
	<path fill="#CCCCCC" d="M466.955,0H121.044C116.602,0,113,3.582,113,8v4v4v8h8.044h345.911H475v-8v-4V8
		C475,3.582,471.398,0,466.955,0z"/>
	<g>
		<circle fill="#EC1B52" cx="125.128" cy="12" r="4.17"/>
		<circle fill="#FFCC33" cx="138.473" cy="12" r="4.17"/>
		<circle fill="#51C197" cx="151.818" cy="12" r="4.17"/>
	</g>
</g>
<path opacity="0.06" enable-background="new    " d="M430,301c0,5.523-4.478,10-10,10H78c-5.522,0-10-4.477-10-10V79
	c0-5.523,4.478-10,10-10h342c5.522,0,10,4.477,10,10V301z"/>
<g>
	<g>
		<path fill="#FFFFFF" d="M416,66H72c-3.859,0-7,3.14-7,7v224c0,3.859,3.141,7,7,7h344c3.859,0,7-3.141,7-7V73
			C423,69.14,419.859,66,416,66z"/>
		<path fill="#CCCCCC" d="M416,64H72c-4.963,0-9,4.038-9,9v224c0,4.963,4.037,9,9,9h344c4.963,0,9-4.037,9-9V73
			C425,68.038,420.963,64,416,64z M423,297c0,3.859-3.141,7-7,7H72c-3.859,0-7-3.141-7-7V73c0-3.86,3.141-7,7-7h344
			c3.859,0,7,3.14,7,7V297z"/>
	</g>
	<path fill="#CCCCCC" d="M416.955,64H71.044C66.602,64,63,67.582,63,72v4v4v8h8.044h345.911H425v-8v-4v-4
		C425,67.582,421.398,64,416.955,64z"/>
	<g>
		<circle fill="#EC1B52" cx="75.129" cy="76" r="4.17"/>
		<circle fill="#FFCC33" cx="88.473" cy="76" r="4.17"/>
		<circle fill="#51C197" cx="101.818" cy="76" r="4.17"/>
	</g>
</g>
<path opacity="0.06" enable-background="new    " d="M367,366c0,5.523-4.478,10-10,10H15c-5.522,0-10-4.477-10-10V144
	c0-5.523,4.478-10,10-10h342c5.522,0,10,4.477,10,10V366z"/>
<g>
	<g>
		<path fill="#FFFFFF" d="M353,131H9c-3.86,0-7,3.14-7,7v224c0,3.859,3.14,7,7,7h344c3.859,0,7-3.141,7-7V138
			C360,134.14,356.859,131,353,131z"/>
		<path fill="#CCCCCC" d="M353,129H9c-4.962,0-9,4.038-9,9v224c0,4.963,4.038,9,9,9h344c4.963,0,9-4.037,9-9V138
			C362,133.038,357.963,129,353,129z M360,362c0,3.859-3.141,7-7,7H9c-3.86,0-7-3.141-7-7V138c0-3.86,3.14-7,7-7h344
			c3.859,0,7,3.14,7,7V362z"/>
	</g>
	<path fill="#CCCCCC" d="M353.955,129H8.044C3.602,129,0,132.582,0,137v4v4v8h8.044h345.911H362v-8v-4v-4
		C362,132.582,358.398,129,353.955,129z"/>
	<g>
		<circle fill="#EC1B52" cx="12.128" cy="141" r="4.17"/>
		<circle fill="#FFCC33" cx="25.473" cy="141" r="4.17"/>
		<circle fill="#51C197" cx="38.818" cy="141" r="4.17"/>
	</g>
</g>
<g>
	<g>
		<path fill="#666666" d="M150.894,201.112h3.398v4.44c-0.552,0.181-1.069,0.308-1.557,0.38c-0.486,0.071-0.982,0.106-1.49,0.106
			c-1.293,0-2.281-0.379-2.963-1.14c-0.682-0.76-1.021-1.852-1.021-3.272c0-1.383,0.396-2.461,1.187-3.233
			c0.791-0.773,1.888-1.16,3.29-1.16c0.879,0,1.727,0.176,2.543,0.526l-0.604,1.453c-0.625-0.312-1.275-0.469-1.951-0.469
			c-0.785,0-1.414,0.264-1.887,0.791c-0.474,0.526-0.709,1.235-0.709,2.127c0,0.93,0.189,1.641,0.57,2.131s0.936,0.733,1.661,0.733
			c0.379,0,0.765-0.039,1.154-0.116v-1.787h-1.623L150.894,201.112L150.894,201.112z"/>
		<path fill="#666666" d="M159.156,206.04c-1.055,0-1.879-0.291-2.473-0.873s-0.891-1.406-0.891-2.473
			c0-1.098,0.273-1.945,0.822-2.545c0.549-0.601,1.309-0.9,2.276-0.9c0.926,0,1.646,0.264,2.161,0.791
			c0.517,0.527,0.773,1.256,0.773,2.186v0.867h-4.225c0.02,0.508,0.17,0.904,0.451,1.189s0.676,0.428,1.184,0.428
			c0.395,0,0.768-0.041,1.119-0.123s0.719-0.213,1.102-0.393v1.383c-0.312,0.156-0.646,0.273-1.002,0.35
			C160.099,206.004,159.667,206.04,159.156,206.04z M158.904,200.521c-0.379,0-0.676,0.121-0.891,0.361s-0.338,0.58-0.369,1.021
			h2.508c-0.008-0.441-0.123-0.781-0.346-1.021S159.283,200.521,158.904,200.521z"/>
		<path fill="#666666" d="M169.328,205.923h-1.787v-3.826c0-0.473-0.084-0.826-0.252-1.062c-0.168-0.236-0.436-0.354-0.803-0.354
			c-0.5,0-0.861,0.168-1.084,0.502s-0.334,0.887-0.334,1.659v3.082h-1.787v-6.551h1.365l0.24,0.838h0.1
			c0.199-0.315,0.475-0.555,0.823-0.717s0.747-0.244,1.192-0.244c0.762,0,1.34,0.207,1.733,0.619
			c0.394,0.411,0.593,1.006,0.593,1.782V205.923L169.328,205.923z"/>
		<path fill="#666666" d="M174.132,206.04c-1.055,0-1.879-0.291-2.473-0.873c-0.595-0.582-0.892-1.406-0.892-2.473
			c0-1.098,0.274-1.945,0.823-2.545c0.549-0.601,1.308-0.9,2.275-0.9c0.926,0,1.646,0.264,2.162,0.791s0.773,1.256,0.773,2.186
			v0.867h-4.225c0.02,0.508,0.17,0.904,0.45,1.189c0.281,0.285,0.677,0.428,1.185,0.428c0.395,0,0.768-0.041,1.119-0.123
			c0.351-0.082,0.719-0.213,1.102-0.393v1.383c-0.312,0.156-0.646,0.273-1.002,0.35C175.075,206.004,174.644,206.04,174.132,206.04z
			 M173.88,200.521c-0.379,0-0.676,0.121-0.892,0.361c-0.215,0.24-0.338,0.58-0.368,1.021h2.508
			c-0.008-0.441-0.123-0.781-0.347-1.021C174.559,200.642,174.259,200.521,173.88,200.521z"/>
		<path fill="#666666" d="M181.914,199.249c0.242,0,0.443,0.018,0.604,0.053l-0.136,1.676c-0.145-0.039-0.319-0.059-0.526-0.059
			c-0.569,0-1.015,0.146-1.333,0.439s-0.479,0.703-0.479,1.229v3.334h-1.787v-6.551h1.354l0.265,1.103h0.088
			c0.203-0.367,0.478-0.662,0.822-0.888C181.132,199.36,181.507,199.249,181.914,199.249z"/>
		<path fill="#666666" d="M187.867,205.923l-0.346-0.891h-0.047c-0.301,0.379-0.61,0.643-0.93,0.789
			c-0.318,0.146-0.732,0.219-1.244,0.219c-0.629,0-1.125-0.18-1.485-0.539s-0.542-0.871-0.542-1.535
			c0-0.695,0.243-1.207,0.729-1.537c0.486-0.33,1.221-0.514,2.201-0.549l1.137-0.035v-0.287c0-0.664-0.34-0.996-1.021-0.996
			c-0.522,0-1.139,0.158-1.846,0.476l-0.593-1.207c0.754-0.396,1.591-0.593,2.509-0.593c0.879,0,1.553,0.191,2.021,0.574
			c0.469,0.383,0.703,0.965,0.703,1.746v4.365H187.867z M187.339,202.888l-0.691,0.023c-0.52,0.016-0.906,0.109-1.16,0.281
			s-0.381,0.434-0.381,0.785c0,0.504,0.289,0.756,0.867,0.756c0.414,0,0.744-0.119,0.992-0.357s0.373-0.555,0.373-0.949V202.888z"/>
		<path fill="#666666" d="M192.742,205.923h-1.787v-9.117h1.787V205.923z"/>
		<path fill="#666666" d="M202.931,203.544c0,0.773-0.278,1.383-0.835,1.828c-0.558,0.445-1.331,0.668-2.323,0.668
			c-0.914,0-1.723-0.172-2.426-0.516v-1.688c0.578,0.258,1.066,0.438,1.468,0.545s0.767,0.158,1.099,0.158
			c0.398,0,0.705-0.076,0.918-0.229c0.213-0.152,0.318-0.379,0.318-0.68c0-0.168-0.047-0.316-0.141-0.447s-0.231-0.258-0.413-0.379
			c-0.183-0.121-0.552-0.313-1.11-0.58c-0.523-0.246-0.916-0.481-1.178-0.709c-0.262-0.227-0.471-0.49-0.627-0.791
			s-0.234-0.651-0.234-1.055c0-0.758,0.258-1.354,0.771-1.787c0.514-0.433,1.224-0.65,2.13-0.65c0.444,0,0.87,0.054,1.274,0.158
			c0.403,0.105,0.826,0.254,1.269,0.445l-0.586,1.412c-0.457-0.188-0.835-0.318-1.134-0.393c-0.299-0.076-0.594-0.111-0.883-0.111
			c-0.344,0-0.606,0.08-0.791,0.24c-0.184,0.16-0.274,0.369-0.274,0.627c0,0.16,0.036,0.301,0.11,0.42s0.192,0.234,0.354,0.346
			c0.162,0.112,0.546,0.311,1.151,0.6c0.801,0.383,1.35,0.769,1.646,1.152C202.781,202.513,202.931,202.985,202.931,203.544z"/>
		<path fill="#666666" d="M207.103,204.616c0.312,0,0.688-0.068,1.125-0.205v1.33c-0.445,0.199-0.992,0.299-1.641,0.299
			c-0.715,0-1.235-0.18-1.562-0.541s-0.488-0.904-0.488-1.627v-3.158h-0.855v-0.756l0.984-0.598l0.516-1.383h1.143v1.395h1.834
			v1.342h-1.834v3.158c0,0.254,0.071,0.441,0.215,0.562C206.681,204.556,206.869,204.616,207.103,204.616z"/>
		<path fill="#666666" d="M215.505,202.636c0,1.066-0.281,1.9-0.844,2.502c-0.563,0.603-1.347,0.902-2.351,0.902
			c-0.629,0-1.185-0.137-1.664-0.412s-0.851-0.672-1.106-1.188c-0.258-0.517-0.388-1.117-0.388-1.805
			c0-1.07,0.279-1.902,0.838-2.496c0.56-0.595,1.345-0.892,2.355-0.892c0.629,0,1.184,0.138,1.663,0.41
			c0.48,0.272,0.851,0.666,1.107,1.178C215.375,201.349,215.505,201.948,215.505,202.636z M210.976,202.636
			c0,0.648,0.105,1.139,0.318,1.471s0.561,0.498,1.041,0.498c0.477,0,0.818-0.164,1.027-0.494c0.209-0.329,0.312-0.821,0.312-1.475
			c0-0.648-0.104-1.135-0.315-1.459s-0.558-0.486-1.037-0.486c-0.477,0-0.819,0.162-1.03,0.484S210.976,201.983,210.976,202.636z"/>
		<path fill="#666666" d="M220.638,199.249c0.242,0,0.443,0.018,0.604,0.053l-0.135,1.676c-0.145-0.039-0.32-0.059-0.527-0.059
			c-0.57,0-1.015,0.146-1.332,0.439c-0.318,0.293-0.479,0.703-0.479,1.229v3.334h-1.787v-6.551h1.354l0.265,1.103h0.088
			c0.203-0.367,0.478-0.662,0.823-0.888C219.856,199.36,220.232,199.249,220.638,199.249z"/>
		<path fill="#666666" d="M225.396,206.04c-1.055,0-1.879-0.291-2.473-0.873s-0.892-1.406-0.892-2.473
			c0-1.098,0.274-1.945,0.823-2.545c0.549-0.601,1.309-0.9,2.275-0.9c0.927,0,1.646,0.264,2.162,0.791
			c0.517,0.527,0.773,1.256,0.773,2.186v0.867h-4.225c0.02,0.508,0.17,0.904,0.451,1.189c0.28,0.285,0.676,0.428,1.184,0.428
			c0.395,0,0.768-0.041,1.119-0.123c0.351-0.082,0.719-0.213,1.102-0.393v1.383c-0.312,0.156-0.646,0.273-1.002,0.35
			C226.339,206.004,225.908,206.04,225.396,206.04z M225.144,200.521c-0.379,0-0.676,0.121-0.891,0.361s-0.338,0.58-0.369,1.021
			h2.508c-0.008-0.441-0.123-0.781-0.346-1.021C225.823,200.642,225.523,200.521,225.144,200.521z"/>
	</g>
	<rect x="147.564" y="227.001" fill="#E6E6E6" width="58" height="6"/>
	<rect x="147.564" y="217.001" fill="#E6E6E6" width="66" height="6"/>
	<g>
		<g>
			<defs>
				<rect id="SVGID_1_" x="34.564" y="192.001" width="96" height="72"/>
			</defs>
			<clipPath id="SVGID_2_">
				<use xlink:href="#SVGID_1_"  overflow="visible"/>
			</clipPath>
			<g clip-path="url(#SVGID_2_)">
				<rect x="11.776" y="148.737" fill="#EDEFF0" width="163.185" height="149.228"/>
				<g>
					<path fill="#FFFFFF" d="M39.827,262.868c0.145-0.024,0.278-0.047,0.406-0.066l-0.009-0.047
						C40.099,262.791,39.965,262.829,39.827,262.868z"/>
					<path fill="#FFFFFF" d="M24.034,284.977c-0.025,0.015-0.051,0.027-0.076,0.041c-0.037,0.169-0.074,0.339-0.112,0.508
						C23.911,285.336,23.974,285.152,24.034,284.977z"/>
					<path fill="#FFFFFF" d="M35.202,265.572c0.512,1.168,0.947,2.266,1.326,3.278c-0.276-1.103-0.594-2.259-0.958-3.442
						C35.446,265.462,35.323,265.517,35.202,265.572z"/>
					<path fill="#FFFFFF" d="M34.673,264.401c0.167-0.077,0.336-0.151,0.505-0.224c-0.001-0.003-0.002-0.007-0.003-0.01
						c-0.179,0.049-0.359,0.098-0.541,0.147C34.647,264.346,34.66,264.374,34.673,264.401z"/>
					<polygon fill="#FFFFFF" points="8.467,196.177 26.011,192.659 25.757,191.396 21.012,192.347 20.525,189.25 25.617,188.306 
						25.382,187.038 15.343,188.899 15.578,190.166 19.258,189.483 19.749,192.601 8.213,194.914 					"/>
					<path fill="#DDDDDD" d="M157.104,282.338l0.192-0.109c0.527-0.158,5.539-1.42,31.299-1.42v-3.006
						c-25.143,0-31.036,1.21-32.247,1.577l-9.995,1.866l-0.112-0.627l5.804-1.146l10.61-1.821l15.856-3.559l-0.658-2.934
						l-0.852,0.191v-6.213l-2.026-10.776l3.329-0.642l-0.244-1.266l-3.322,0.64l-2.744-14.601l5.567-1.097l-0.332-1.688
						l-5.554,1.095l-2.84-15.11l8.723-1.689l-0.326-1.686l-8.713,1.687l-1.227-6.526l11.006-2.037l-0.233-1.268l-11.011,2.039
						l-1.237-6.588l11.856-2.398l4.461-9.386l-8.565,1.504c-0.036,0.007-3.647,0.597-6.272,0.013
						c-1.528-0.338-2.491-0.361-3.197-0.252l-1.062-5.168l12.077-2.137c1.563,1.193,2.603,1.983,2.789,2.126l1.56-2.051
						c-0.168-0.128-12.609-9.588-20.312-15.687c0.907-0.44,2.389-0.801,3.764-0.938l15.229,0.972l0.082-1.287l-15.333-0.978
						l-0.052,0.006c-0.674,0.063-3.272,0.371-4.77,1.368c-2.188-1.743-3.863-3.121-4.551-3.775
						c-1.721-1.645-2.479-3.492-2.807-4.642l5.123-3.812l24.545-11.918l-2.252-4.636l-15.859,7.7l-0.92-4.648l-1.264,0.25
						l0.984,4.98l-5.74,2.788l-1.498-6.745l-1.259,0.279l0.331,1.49l-15.548,3.197l-0.986-4.953l-1.263,0.252l2.009,10.094
						l-9.977,1.763l-2.942-12.134l-1.252,0.305l2.924,12.055l-3.733,0.658l-2.802-13.001l-1.26,0.271l0.915,4.244l-6.728,1.316
						l-0.939-5.236l-1.269,0.228l0.943,5.258l-2.191,0.429l-1.353-6.504l-1.261,0.262l1.349,6.49l-2.988,0.585l-1.537-7.338
						l-1.261,0.265l1.533,7.321l-6.858,1.343l-1.858-8.928l-1.262,0.264l1.856,8.912l-6.81,1.332l-2.228-11.234H67.993l2.841,14.667
						l-14.857,2.909l-3.201-16.838l-1.266,0.24l3.202,16.846L49.523,165l-1.639-3.957l-0.999-3.437l-6.621,0.684l-2.641-11.834
						l-5.029,1.123l3.57,15.992l0.742,3.898l-12.153,2.379l-4.327-22.951l-1.267,0.238l1.741,9.234l-12.695,2.738l0.271,1.26
						l12.662-2.73l1.472,7.803l-14.376,2.414l0.213,1.271l14.401-2.418l1.334,7.075l-15.956,2.877l0.229,1.268l15.966-2.879
						l1.348,7.146L8.201,186.11l0.281,1.259l17.526-3.906l2.449,12.993c-10.052,1.759-18.025-0.088-18.106-0.107l-0.299,1.254
						c0.229,0.056,3.926,0.916,9.474,0.916c2.684,0,5.804-0.207,9.171-0.799l1.797,9.534l-0.791,0.154l0.034,0.175l-16.895,5.998
						H8.341v2.576h4.945l16.938-6.014l3.712,19.527l-23.885,4.249l0.004,0.021c-0.516-0.299-0.806-0.479-0.829-0.492l-0.912,1.455
						c0.082,0.053,0.922,0.574,2.353,1.36l-0.107,0.255c0.057,0.022,4.303,1.867,10.191,6.881l-7.027-0.106
						c-0.38-0.453-0.756-0.898-1.121-1.332c-1.944-2.304-3.623-4.295-4.368-5.536l-2.577,1.547c0.787,1.312,2.3,3.142,4.085,5.26
						l-1.381-0.021l-0.039,2.576l3.615,0.056c3.117,3.737,6.453,7.964,7.781,11.338c0.84,2.137,1.491,4.466,1.952,6.894
						c-0.622-0.224-1.111-0.491-1.492-0.772c-0.478-0.353-0.811-0.737-1.044-1.1l0.299-0.049
						c-2.079-12.618-7.642-15.926-7.878-16.061l-0.745,1.306l-0.764,1.296c0.041,0.022,3.501,2.222,5.594,10.071l-4.903-8.849
						l-2.629,1.457l6.039,10.896l0.164-0.091c0.244,0.72,0.706,2.081,1.288,3.807c-0.499-0.16-0.978-0.348-1.428-0.548
						c-0.274-0.897-0.482-1.624-0.59-2.044c-0.506-1.966-2.169-4.411-2.239-4.514l-1.063,0.728c0.016,0.022,1.604,2.357,2.055,4.106
						c0.062,0.242,0.147,0.554,0.253,0.92c-1.197-0.684-1.96-1.297-1.979-1.311l-0.813,0.998c0.099,0.079,1.399,1.128,3.314,2.052
						c0.871,2.797,2.226,6.728,3.355,8.911c0.915,1.766,1.839,4.975,2.514,7.316c0.218,0.753,0.387,1.334,0.526,1.788
						c-0.506,0.413-1.005,0.858-1.49,1.346c-5.562,5.562-6.511,12.704-6.548,13.007l2.981,0.377
						c0.009-0.064,0.881-6.449,5.691-11.259c0.028-0.029,0.06-0.058,0.088-0.086c-1.365,5.592-2.889,10.642-2.911,10.719
						l1.789,0.542l-2.818,0.64l0.855,3.771l16.957-3.851l0.127,0.641l1.265-0.252l-0.135-0.674l1.753-0.397
						c1.566,0.517,2.596,0.647,2.665,0.656l0.154-1.278c-0.004-0.001-0.02-0.002-0.047-0.006l7.493-1.701l0.718,3.366l2.52-0.536
						l-0.656-3.084c2.506,1.026,4.683,1.393,6.509,1.393c2.186,0,3.869-0.521,5.021-1.056c1.789-0.087,3.664-0.335,5.596-0.78
						c1.987-0.459,6.561-1.375,12.364-2.504l0.157,0.806l-25.712,5.094l0.584,2.949l25.704-5.093l0.144,0.736l-4.836,0.966
						l0.336,1.684l4.829-0.964l0.072,0.369l2.529-0.494l-0.074-0.38l13.889-2.772l0.897,4.638l1.687-0.327l-0.9-4.646l14.749-2.946
						l1.571,7.923l1.686-0.334l-1.572-7.925l14.394-2.875l2.237,11.095l1.263-0.255l-2.237-11.093l14.727-2.94l2.567,14.312
						l1.69-0.304l-2.572-14.345l3.754-0.751l25.688-0.534l-0.034-1.717l-25.767,0.536l-0.076,0.001l-3.87,0.772l-0.063-0.362
						l10.102-1.888L157.104,282.338z M175.283,265.301v4.878l-14.082,2.272l-2.687-14.919l14.772-2.846L175.283,265.301z
						 M25.332,276.526c0.907-2.304,2.442-6.544,3.188-10.607c1.625-0.406,3.282-0.841,4.849-1.261
						c0.056,0.116,0.108,0.229,0.161,0.346c-0.804,0.48-1.525,1.055-2.074,1.742c-2.139,2.677-5.062,11.137-6.152,14.436
						c-0.206,0.069-0.413,0.144-0.62,0.222c0.103-0.573,0.197-1.133,0.28-1.677C25.125,278.675,25.246,277.604,25.332,276.526z
						 M25.121,266.733c0.653-0.148,1.329-0.309,2.018-0.476c-0.423,2.088-1.045,4.217-1.659,6.065
						C25.463,270.455,25.343,268.58,25.121,266.733z M27.429,254.845c2.307,3.056,4.036,5.978,5.365,8.63
						c-0.019,0.007-0.038,0.012-0.057,0.017c-1.473,0.39-2.789,0.664-3.968,0.844c0.116-0.901,0.183-1.779,0.183-2.609
						C28.953,259.178,28.277,256.812,27.429,254.845z M32.462,267.55c0.42-0.524,0.974-0.977,1.599-1.365
						c1.104,2.531,1.85,4.728,2.428,6.435c0.161,0.477,0.308,0.909,0.445,1.298c0.233,0.662,0.525,1.716,0.863,2.933
						c0.478,1.721,1.052,3.788,1.764,5.918c-1.202-0.784-2.416-1.425-3.605-1.802c-2.461-0.779-5.736-1.037-9.146-0.218
						C28.043,277.092,30.631,269.843,32.462,267.55z M44.501,199.479l-2.5,0.449l-0.805-4.594c0.79-0.152,1.606-0.311,2.448-0.473
						L44.501,199.479z M43.835,176.313l12.725-2.607l0.642,3.38c-4.775,0.886-8.799,1.624-10.361,1.892
						c-1.574,0.271-2.502-0.188-2.757-1.36L43.835,176.313z M44.735,200.747l0.67,3.607l-8.731,1.697l-0.796-3.711L44.735,200.747z
						 M45.134,188.774c0.02-1.168-0.108-2.703-0.532-4.691c0.436,0.077,0.909,0.122,1.425,0.122c0.52,0,1.081-0.045,1.684-0.147
						c1.555-0.268,5.412-0.975,10.019-1.828l1.62,8.293c-0.835,0.16-1.663,0.32-2.483,0.479l-1.136-7.01l-1.271,0.205l1.142,7.049
						c-3.408,0.658-6.66,1.285-9.662,1.863L45.134,188.774z M59.596,191.785l0.866,4.434l-9.406,1.941l-0.39-2.021l-1.265,0.243
						l0.393,2.038l-2.765,0.57l-0.855-4.614C50.261,193.589,54.817,192.709,59.596,191.785z M153.141,196.594l-2.173-10.147
						l2.252-0.438l2.16,10.136L153.141,196.594z M157.638,197.005c0.465,1.489,0.902,3.669,0.441,4.507
						c-0.27,0.405-1.928,0.921-4.146,1.41l-0.579-5.058L157.638,197.005z M150.353,223.526l-6.848,1.326l-2.703-14.162l6.687-1.354
						L150.353,223.526z M148.753,209.082l6.922-1.399l1.226,6.414l-6.88,1.272L148.753,209.082z M69.167,273.346l-2.937-14.521
						l6.224-1.229l2.858,14.631L69.167,273.346z M75.559,273.491l1.262,6.46l-6.083,1.167l-1.316-6.51L75.559,273.491z
						 M42.492,260.882l-2.826-14.864l12.719-2.058l0.141-0.756l16.464-3.342l2.971,15.204L42.492,260.882z M58.25,266.637
						l-14.048,2.68l-0.995-4.672l-0.234-1.229l14.081-2.779L58.25,266.637z M40.475,264.071l0.202,1.067l2.294,10.771
						c-1.17-1.711-2.975-4.966-5.574-11.15C38.582,264.408,39.701,264.194,40.475,264.071z M39.827,262.868
						c0.139-0.039,0.272-0.077,0.397-0.113l0.009,0.047C40.105,262.821,39.971,262.844,39.827,262.868z M127.062,191.097
						l2.051,10.322l-6.857,1.378l-2.06-10.364L127.062,191.097z M126.663,182.356l3.546-0.705l1.154,5.982l-3.534,0.688
						L126.663,182.356z M74.69,230.249l0.649,3.818l-4.669,0.966l-1.982-10.146l13.528-2.737l0.479-0.075l1.228,6.341L74.69,230.249
						z M75.956,237.704l-4.722,0.213l-0.316-1.619l4.637-0.958L75.956,237.704z M63.233,196.962l9.613-1.984l0.738,3.896
						l-9.613,1.869L63.233,196.962z M63.366,211.078l-3.244,0.573l-0.509-3.028l3.156-0.601L63.366,211.078z M74.064,201.403
						l0.769,4.059l-9.56,1.939l-0.808-4.131L74.064,201.403z M94.735,213.062l-0.616-3.299l2.763-0.556l0.668,3.367L94.735,213.062z
						 M97.8,213.838l0.588,2.965l-2.839,0.617l-0.578-3.093L97.8,213.838z M86.139,215.853l0.688,2.961l-2.926,0.461l-0.569-2.938
						L86.139,215.853z M83.088,215.069l-0.576-2.977l2.63-0.529l0.704,3.03L83.088,215.069z M86.406,211.312l6.449-1.295l0.61,3.264
						l-6.347,1.096L86.406,211.312z M93.702,214.546l0.576,3.089l-6.175,0.978l-0.692-2.979L93.702,214.546z M82.266,210.829
						l-0.334-1.729l14.422-2.552l0.276,1.394L82.266,210.829z M92.977,205.839l-1.62-7.798l3.187-0.62l1.561,7.865L92.977,205.839z
						 M91.708,206.063l-10.021,1.771l-0.457-2.359l9.937-2.019L91.708,206.063z M80.985,204.212l-0.775-4.002l2.6-0.507l0.793,3.978
						L80.985,204.212z M80.24,209.401l0.343,1.766l-14.023,2.816l-0.408-2.09L80.24,209.401z M76.76,208.709l-0.425-2.237
						l3.211-0.652l0.449,2.316L76.76,208.709z M76.095,205.204l-0.767-4.046l3.195-0.622l0.777,4.018L76.095,205.204z
						 M74.849,198.627l-0.741-3.91l3.162-0.653l0.764,3.943L74.849,198.627z M75.073,206.728l0.418,2.205l-9.588,1.697l-0.383-1.963
						L75.073,206.728z M66.163,225.397l1.307,6.684l-13.754,2.93l-1.27-6.838L66.163,225.397z M53.809,236.308l13.906-2.961
						l0.944,4.829l-15.795,3.206L53.809,236.308z M68.195,222.356l-1.39-7.108l14.021-2.815l1.378,7.11l-0.445,0.069L68.195,222.356
						z M84.168,229.679l0.478,2.467l-8.044,1.662l-0.432-2.539L84.168,229.679z M84.89,233.409l0.521,2.695l-7.891,1.528
						l-0.269,0.013l-0.436-2.568L84.89,233.409z M84.392,221.808l3.021-0.479l1.508,6.479l3.082,2.814l-5.675,1.173L84.392,221.808z
						 M92.834,231.767l0.428,2.817l-6.163,1.194l-0.526-2.719L92.834,231.767z M90.085,227.126l-1.396-6l7.082-1.119l3.119-0.679
						l2.705,13.644l-7.066,1.367l-0.557-3.663L90.085,227.126z M115.021,213.28l-6.467,1.31l-8.487,1.849l-0.573-2.893l15.043-2.597
						L115.021,213.28z M114.746,205.62l6.498-1.307l1.473,7.41l-6.434,1.303L114.746,205.62z M99.243,212.282l-0.677-3.413
						l14.917-2.995l0.791,3.812L99.243,212.282z M100.568,218.964l6.625-1.439l1.148,6.367l-6.546,1.268L100.568,218.964z
						 M108.571,225.158l1.125,6.243l-6.415,1.242l-1.233-6.223L108.571,225.158z M109.606,223.646l-1.152-6.396l0.63-0.138
						l6.422-1.299l1.139,6.47L109.606,223.646z M116.867,223.552l1.1,6.248l-7.006,1.355l-1.126-6.242L116.867,223.552z
						 M116.768,215.558l14.559-2.947l1.255,6.562l-7.433,1.491l1.491,7.457l-7.408,1.436L116.768,215.558z M132.825,220.438
						l1.195,6.252l-6.115,1.185l-1.24-6.201L132.825,220.438z M134.328,228.381l1.29,7.451l-14.769,2.917l-1.32-7.503
						L134.328,228.381z M135.838,237.103l1.306,7.537l-14.74,2.948l-1.332-7.569L135.838,237.103z M135.593,228.135l6.97-1.35
						l2.899,15.189l-3.09,0.609l-0.086,0.017l-3.906,1.636L135.593,228.135z M135.285,226.446l-2.695-14.092l6.95-1.408l2.701,14.15
						L135.285,226.446z M132.096,209.825l-1.469-7.396l14.889-2.99l1.468,7.373L132.096,209.825z M130.834,210.081l-6.854,1.388
						l-1.473-7.407l6.857-1.377L130.834,210.081z M120.993,203.051l-6.509,1.308l-2.157-10.396l6.604-1.285L120.993,203.051z
						 M113.22,204.612l-14.905,2.992l-2.085-10.513l14.831-2.885L113.22,204.612z M95.729,194.565l-0.82-4.135l14.88-2.933
						l0.776,4.181L95.729,194.565z M94.659,189.167l-0.796-4.008c5.769-1.116,10.933-2.116,14.954-2.896l0.736,3.969L94.659,189.167
						z M94.043,194.894l-3.209,0.625l-0.847-4.078l3.238-0.67L94.043,194.894z M90.092,198.287l0.812,3.909l-6.04,1.228
						l-0.791-3.967L90.092,198.287z M83.57,196.933l-0.799-4.004l5.953-1.229l0.845,4.064L83.57,196.933z M82.519,191.665
						l-0.828-4.15c2.006-0.389,3.986-0.771,5.927-1.146l0.845,4.069L82.519,191.665z M82.305,197.177l-2.586,0.504l-0.768-3.964
						l2.558-0.528L82.305,197.177z M78.708,192.452l-0.813-4.203c0.847-0.164,1.69-0.327,2.532-0.489l0.831,4.166L78.708,192.452z
						 M77.649,186.983l-0.91-4.695l2.496-0.498l0.939,4.706C79.335,186.658,78.493,186.819,77.649,186.983z M77.025,192.799
						l-3.156,0.652l-0.81-4.269c1.051-0.203,2.1-0.404,3.148-0.607L77.025,192.799z M72.819,187.918l-0.885-4.67l3.12-0.623
						l0.907,4.687C74.917,187.513,73.868,187.715,72.819,187.918z M72.606,193.712l-9.62,1.984l-0.859-4.399
						c3.169-0.612,6.414-1.239,9.667-1.868L72.606,193.712z M62.522,206.759l-3.124,0.594l-0.504-2.996l3.043-0.592L62.522,206.759z
						 M52.002,203.071l-0.702-3.646l9.41-1.941l0.732,3.752L52.002,203.071z M58.346,208.862l0.507,3.014l-4.987,0.883l-0.565-2.938
						L58.346,208.862z M53.056,208.556l-0.568-2.953l5.141-1l0.503,2.99L53.056,208.556z M51.791,208.796l-2.841,0.539l-0.545-2.939
						l2.818-0.547L51.791,208.796z M52.035,210.062l0.562,2.922l-2.876,0.509l-0.536-2.89L52.035,210.062z M63.613,212.344
						l2.057,10.525l-13.693,2.771l-2.02-10.881L63.613,212.344z M71.567,239.621l6.094-0.272l0.063-0.005l8.015-1.552l2.839,14.661
						l-14.004,2.555L71.567,239.621z M87.425,237.464l14.503-2.809l3.013,15.187l-0.927-0.206l-13.746,2.51L87.425,237.464z
						 M103.615,234.329l14.649-2.838l2.877,16.349l-13.27,2.653l-1.099-0.244L103.615,234.329z M107.852,252.249l13.607-2.721
						l2.684,13.311l-14.327,2.759l-2.679-13.507L107.852,252.249z M122.722,249.275l14.747-2.949l2.846,13.397l-14.907,2.87
						L122.722,249.275z M138.709,245.961l4.082-1.709l11.297-2.227l2.922,14.484l-15.428,2.97L138.709,245.961z M146.726,241.727
						l-1.672-8.761l6.957-1.225l1.734,8.601L146.726,241.727z M144.813,231.7l-0.985-5.159l6.865-1.33l1.062,5.269L144.813,231.7z
						 M146.78,199.187l5.308-1.066l0.58,5.064c-1.547,0.307-3.265,0.588-4.931,0.812L146.78,199.187z M151.88,196.847l-5.354,1.075
						l-2.033-10.217l5.211-1.015L151.88,196.847z M145.265,198.176l-14.89,2.99l-2.049-10.315l14.903-2.898L145.265,198.176z
						 M131.967,183.963l-0.495-2.562l2.446-0.486l0.516,2.607L131.967,183.963z M134.685,184.787l0.42,2.118l-2.478,0.482
						l-0.416-2.16L134.685,184.787z M136.37,186.66l-1.188-5.997l6.346-1.26l1.198,6.021L136.37,186.66z M126.416,181.092
						l-2.341-11.971l14.876-2.667l2.326,11.686L126.416,181.092z M126.564,188.567l-3.476,0.677l-1.766-9.07l3.451-0.758
						L126.564,188.567z M121.825,189.489l-2.149,0.418l-1.913-8.953l2.302-0.505L121.825,189.489z M118.411,190.153l-6.582,1.281
						l-1.747-9.416c2.905-0.562,5.096-0.985,6.328-1.227L118.411,190.153z M109.846,180.753l-1.563-8.428l6.054-1.237l1.805,8.446
						C114.905,179.772,112.727,180.194,109.846,180.753z M108.582,180.998c-4.024,0.778-9.193,1.78-14.969,2.897l-1.634-8.234
						l15.041-3.077L108.582,180.998z M92.176,185.485l0.799,4.021l-3.251,0.671l-0.842-4.055
						C89.997,185.907,91.096,185.694,92.176,185.485z M88.62,184.86l-0.985-4.748l3.345-0.668l0.947,4.777
						C90.842,184.431,89.739,184.646,88.62,184.86z M87.372,178.853l-0.447-2.156l3.373-0.69l0.431,2.177L87.372,178.853z
						 M87.355,185.106c-1.937,0.373-3.914,0.756-5.916,1.145l-0.94-4.713l5.872-1.174L87.355,185.106z M76.494,181.022l-0.429-2.215
						c3.544-0.664,6.058-1.137,6.399-1.201l3.197-0.652l0.447,2.15L76.494,181.022z M81.492,172.547
						c-0.119,0.022-0.708,0.134-1.647,0.31l-2.519-11.986l4.722-0.924l2.553,11.966L81.492,172.547z M78.578,173.094
						c-0.979,0.185-2.162,0.406-3.492,0.655l-2.322-11.986l3.297-0.646L78.578,173.094z M74.809,181.358l-3.115,0.623l-0.431-2.273
						c1.082-0.203,2.126-0.398,3.113-0.583L74.809,181.358z M71.554,188.162c-1.729,0.335-3.454,0.668-5.169,0.999l-0.904-4.625
						l5.189-1.037L71.554,188.162z M65.235,183.272l-0.46-2.354c1.765-0.329,3.527-0.658,5.222-0.975l0.435,2.289L65.235,183.272z
						 M65.121,189.405c-1.087,0.211-2.168,0.421-3.241,0.627l-0.898-4.598l3.237-0.646L65.121,189.405z M60.734,184.17l-0.471-2.411
						c1.064-0.197,2.151-0.398,3.245-0.604l0.463,2.367L60.734,184.17z M50.038,199.687l0.699,3.631l-2.803,0.545l-0.669-3.604
						L50.038,199.687z M47.432,215.276l2.018,10.873l-13.06,2.643l-1.991-10.473L47.432,215.276z M49.92,228.685l1.341,7.228
						l-1.078,5.794l-10.13,1.639c-0.3-0.001-0.599-0.006-0.899-0.015l-2.282-12.006L49.92,228.685z M37.083,246.229l2.899,15.255
						c-0.938,0.269-2.323,0.661-3.95,1.11c-1.665-4.709-4.081-9.633-7.567-13.479c-0.997-1.102-1.974-2.116-2.928-3.062
						L37.083,246.229z M36.528,268.852c-0.378-1.014-0.814-2.11-1.326-3.278c0.121-0.057,0.244-0.111,0.368-0.164
						C35.934,266.593,36.252,267.749,36.528,268.852z M35.178,264.18c-0.169,0.07-0.338,0.146-0.505,0.224
						c-0.014-0.028-0.026-0.058-0.039-0.085c0.182-0.051,0.362-0.101,0.541-0.147C35.176,264.172,35.177,264.176,35.178,264.18z
						 M39.546,278.31c-0.055-0.601-0.411-4.209-1.532-8.937c1.875,4.078,3.899,7.813,5.519,9.173l1.91,8.967
						c-1.26-1.137-2.631-2.35-4.048-3.437C40.652,282.066,40.043,280.053,39.546,278.31z M44.469,270.576l14.032-2.676l1.421,7.128
						l-13.964,2.54L44.469,270.576z M58.318,260.385l6.647-1.312l2.933,14.503l-6.708,1.221L58.318,260.385z M68.153,274.84
						l1.319,6.521l-6.718,1.29l-1.312-6.591L68.153,274.84z M77.068,281.216l1.327,6.793l-14.059,2.578l-1.33-6.674L77.068,281.216z
						 M74.903,256.694l14.002-2.556l2.891,14.928l-13.951,2.687L74.903,256.694z M90.594,253.831l13.386-2.442l1.325,0.295
						l2.824,14.238l-14.646,2.819L90.594,253.831z M108.379,267.185l1.102,5.55l-14.595,3.257l-1.158-5.983L108.379,267.185z
						 M109.73,273.997l1.614,8.137l-14.774,2.552l-1.438-7.43L109.73,273.997z M110.067,266.86l14.331-2.76l3.037,15.063
						l-14.399,2.666L110.067,266.86z M125.663,263.857l7.16-1.38l2.879,15.155l-7,1.297L125.663,263.857z M134.087,262.235
						l6.495-1.25l3.216,15.147l-6.83,1.267L134.087,262.235z M143.602,269.001l-1.754-8.259l15.401-2.966l2.68,14.88l-6.703,1.08
						c-0.227-0.765-0.581-2.097-0.874-3.784c-0.17-0.979-0.61-1.656-1.312-2.014c-1.127-0.574-2.472-0.051-2.836,0.113
						L143.602,269.001z M173.05,253.423l-14.776,2.845l-2.925-14.49l14.958-2.948L173.05,253.423z M167.149,222.022l2.842,15.117
						l-14.979,2.953l-3.053-15.128L167.149,222.022z M166.832,220.334l-15.213,2.948l-1.343-6.65l15.327-2.838L166.832,220.334z
						 M166.737,197.876c3.106,0.691,7.086,0.041,7.267,0.012l3.662-0.643l-1.767,3.714l-10.178,2.062l-1.103-5.375
						C165.027,197.604,165.657,197.637,166.737,197.876z M164.13,205.97l1.233,6.559l-7.196,1.332l-1.229-6.435L164.13,205.97z
						 M163.196,203.53l-14.948,3.025l-0.26-1.298c0.971-0.135,2.84-0.407,4.744-0.774c5.104-0.979,6.137-1.735,6.475-2.348
						c0.727-1.316,0.156-3.826-0.242-5.191l2.908,0.13L163.196,203.53z M173.723,186.743l-10.945,1.935l-1.017-4.952l6.164-1.431
						C170.059,183.937,172.07,185.479,173.723,186.743z M166.609,181.276l-5.085,1.182l-0.991-5.898
						C162.491,178.092,164.582,179.712,166.609,181.276z M159.354,184.813l2.25,10.959l-3.074-0.137l-0.041-0.117l-1.844,0.371
						l-2.16-10.129L159.354,184.813z M151.741,169.423c0.843,0.805,3.021,2.58,5.781,4.768l1.358,8.093l-14.891,2.896l-3.771-18.951
						l3.723-0.668l4.456-1.399C148.884,165.623,149.847,167.615,151.741,169.423z M147.147,159.149l-4.438,1.395l-3.497,0.627
						l-0.575-2.893l12.69-2.241L147.147,159.149z M153.184,149.905l0.954,4.298l-0.098,0.047l-15.656,2.765l-0.777-3.904
						L153.184,149.905z M137.368,158.503l0.577,2.896l-14.907,2.674l-0.631-2.928L137.368,158.503z M122.808,169.354l1.72,8.797
						l-7.035,1.543l-1.895-8.864L122.808,169.354z M121.771,164.308l-7.166,1.467l-1.357-7.565l6.915-1.364L121.771,164.308z
						 M119.26,152.657l0.631,2.927l-6.872,1.354l-0.529-2.955L119.26,152.657z M113.342,166.03l-6.058,1.24l-1.586-7.574
						l6.284-1.239L113.342,166.03z M111.225,154.231l0.53,2.957l-6.32,1.246l-0.618-2.949L111.225,154.231z M103.553,155.733
						l2.47,11.795l-6.86,1.404l-2.469-11.855L103.553,155.733z M95.429,157.325l2.472,11.865l-6.923,1.416l-2.37-11.946
						L95.429,157.325z M89.294,170.95l-3.432,0.703l-2.55-11.957l3.609-0.706L89.294,170.95z M84.718,147.878l1.953,9.85
						l-6.418,1.258l-2.101-11.106L84.718,147.878L84.718,147.878z M76.842,147.878l2.146,11.354l-1.928,0.379l-2.465-11.731
						L76.842,147.878L76.842,147.878z M70.075,147.878h3.204l2.518,11.979l-3.278,0.642L70.075,147.878z M60.668,164.132
						l0.576,2.747l1.262-0.267l-0.574-2.729l9.146-1.791l2.318,11.973c-4.421,0.828-9.982,1.867-14.928,2.785l-2.252-11.848
						L60.668,164.132z M54.953,165.251l0.632,3.327l-5.043,1.026l-0.657-3.361L54.953,165.251z M55.826,169.844l0.493,2.597
						l-12.724,2.606l-0.498-2.608L55.826,169.844z M49.28,169.862l-6.424,1.31l-0.651-3.424l6.416-1.257L49.28,169.862z
						 M47.143,162.614l1.09,2.64l-6.27,1.228l-0.595-3.125L47.143,162.614z M45.948,159.001l0.691,2.379l-5.528,0.711l-0.564-2.533
						L45.948,159.001z M24.991,171.118l12.156-2.381l1.399,7.345l-12.15,2.489L24.991,171.118z M26.635,179.837l12.152-2.488
						l0.229,1.204c0.025,0.134,0.09,0.438,0.225,0.837c0.056,2.244,0.559,6.961,3.543,10.84l0.625,3.369
						c-6.277,1.209-11.188,2.152-13.685,2.627L26.635,179.837z M29.962,197.49c1.98-0.376,5.476-1.048,9.969-1.911l0.802,4.579
						l-9.93,1.788L29.962,197.49z M31.043,203.213l3.566-0.644l0.799,3.729l-3.65,0.71L31.043,203.213z M32.712,209.448
						l13.163-2.562l1.321,7.121l-13.038,3.045L32.712,209.448z M34.256,231.36l2.242,11.799c-9.758-0.959-19.295-5.379-24.085-7.912
						L34.256,231.36z M18.833,240.182c0.498,0.208,1.008,0.415,1.531,0.62c2.44,0.957,5.319,1.941,8.431,2.724l-6.035-0.093
						C21.363,242.186,20.045,241.107,18.833,240.182z M23.655,246.023c1.244,1.187,2.534,2.499,3.854,3.955
						c3.308,3.648,5.63,8.396,7.247,12.967c-0.228,0.062-0.457,0.125-0.691,0.188c-1.445-2.922-3.366-6.171-5.998-9.579
						c-2.997-3.882-6.282-6.209-9.018-7.602L23.655,246.023z M15.988,246.042c1.928,0.702,4.539,1.977,7.211,4.251
						c0.475,0.573,4.466,5.579,4.466,11.432c0,0.874-0.081,1.813-0.221,2.781c-0.982,0.104-1.854,0.131-2.626,0.104
						c-0.498-3.011-1.271-5.904-2.303-8.528C21.289,252.965,18.688,249.39,15.988,246.042z M24.034,284.977
						c-0.06,0.177-0.123,0.359-0.188,0.549c0.038-0.169,0.075-0.339,0.112-0.508C23.983,285.004,24.008,284.99,24.034,284.977z
						 M22.15,278.103c-0.601-3.379-1.621-7.214-2.539-10.349c0.684-0.066,1.557-0.204,2.558-0.394
						C22.577,270.923,22.583,274.596,22.15,278.103z M19.373,264.309c0.709,0.532,1.558,0.933,2.545,1.199
						c0.03,0.19,0.059,0.382,0.086,0.573c-1.127,0.218-2.08,0.364-2.769,0.412c-0.417-1.383-0.795-2.57-1.078-3.44
						C18.45,263.477,18.841,263.909,19.373,264.309z M14.672,267.038c0.457,0.164,0.935,0.312,1.427,0.433
						c0.071,0.213,0.145,0.431,0.219,0.648c0.338,1.727,0.571,3.479,0.554,4.981C16.104,271.291,15.303,268.988,14.672,267.038z
						 M15.887,261.308l0.303-0.168c0.097,0.485,0.19,0.981,0.276,1.502l0.188-0.03c0.255,0.771,0.702,2.146,1.223,3.859
						c-0.203-0.019-0.404-0.047-0.605-0.079C16.819,264.394,16.282,262.561,15.887,261.308z M17.555,267.733
						c0.236,0.025,0.476,0.048,0.717,0.058c0.799,2.71,1.692,5.993,2.316,9.027c-0.986-2.975-2.085-6.247-3.021-9.025
						C17.563,267.773,17.559,267.753,17.555,267.733z M20.216,282.248c-0.617-2.142-1.438-4.989-2.301-6.912
						c0.128-0.539,0.2-1.141,0.227-1.784c1.195,3.571,2.387,7.166,3.147,9.548c-0.231,0.148-0.462,0.304-0.69,0.465
						C20.474,283.144,20.342,282.686,20.216,282.248z M20.377,298.749c0.109-0.371,0.263-0.895,0.447-1.537
						c0.492-1.091,1.069-2.534,1.658-4.088l1.74,4.752L20.377,298.749z M25.49,297.588l-2.315-6.32
						c0.369-1.005,0.73-2.014,1.067-2.967c2.229,3.788,4.96,6.284,7.357,7.9L25.49,297.588z M24.81,286.679
						c0.33-0.949,0.616-1.786,0.836-2.431c1.78-0.687,3.56-0.983,5.203-1.005l2.488,12.521
						C30.486,294.068,27.251,291.268,24.81,286.679z M34.602,295.521l-2.431-12.233c1.051,0.082,2.022,0.273,2.876,0.545
						c2.087,0.661,4.477,2.496,6.686,4.408c0.906,1.879,1.96,3.599,3.194,4.938L34.602,295.521z M46.409,292.84
						c-0.55-0.517-1.067-1.126-1.555-1.808c0.573,0.517,1.125,1.006,1.646,1.442l0.069,0.328L46.409,292.84z M46.227,278.829
						l13.947-2.538l1.314,6.601l-13.831,2.654L46.227,278.829z M50.019,294.956l0.371-0.067c1.57,0.67,3.423,1.2,5.493,1.512
						C54.224,296.327,52.264,295.929,50.019,294.956z M52.96,292.671c-1.585-0.52-2.897-1.198-3.863-1.955
						c-0.131-0.103-0.269-0.214-0.408-0.329l-0.763-3.58l13.814-2.649l1.328,6.661L52.96,292.671z M66.405,292.958
						c-3.242,0.748-6.276,0.893-8.934,0.632l21.253-3.896l0.144,0.736C73.043,291.563,68.439,292.488,66.405,292.958z
						 M78.091,273.017l13.949-2.686l0.89,4.591l-13.951,2.638L78.091,273.017z M79.226,278.823l13.949-2.637l1.704,8.801
						l-13.95,2.557L79.226,278.823z M81.258,289.229l13.947-2.557l0.117,0.605c-4.839,0.917-9.633,1.833-13.925,2.662
						L81.258,289.229z M81.974,292.893c4.285-0.827,9.079-1.742,13.921-2.66l0.136,0.702l-13.901,2.753L81.974,292.893z
						 M82.849,297.37l-0.144-0.732l13.896-2.752l0.138,0.71L82.849,297.37z M97.01,286.958l-0.113-0.585l14.782-2.554l0.071,0.363
						C107.207,285.034,102.114,285.993,97.01,286.958z M97.715,290.601l-0.133-0.688c5.108-0.968,10.207-1.926,14.753-2.778
						l0.109,0.549L97.715,290.601z M98.424,294.259l-0.137-0.707l14.742-2.921l0.136,0.686L98.424,294.259z M113.44,283.867
						l-0.07-0.352l14.405-2.668l0.067,0.333C126.468,281.437,120.821,282.485,113.44,283.867z M114.025,286.817
						c7.523-1.409,13.232-2.471,14.412-2.689l0.089,0.447l-6.893,1.288l-7.503,1.485L114.025,286.817z M114.85,290.979l-0.136-0.682
						l7.487-1.483l6.919-1.29l0.117,0.584L114.85,290.979z M129.106,280.936l-0.063-0.32l14.955-2.771l0.026,0.149L129.106,280.936z
						 M129.701,283.882l14.854-2.931l0.108,0.61l-14.871,2.776L129.701,283.882z M130.502,287.854l-0.114-0.566l14.808-2.767
						l0.069,0.386L130.502,287.854z M145.05,275.826l-1.182-5.565l4.67-0.962l0.08-0.018l0.07-0.034
						c0.299-0.146,1.198-0.454,1.77-0.159c0.317,0.163,0.527,0.527,0.625,1.083c0.293,1.696,0.644,3.033,0.881,3.844L145.05,275.826
						z M145.669,277.438l7.354-1.929l19.404-3.13l-10.319,2.316l-10.591,1.817l-5.809,1.146L145.669,277.438z"/>
				</g>
			</g>
		</g>
	</g>
	<g>
		<ellipse opacity="0.1" enable-background="new    " cx="82.432" cy="231.766" rx="13.01" ry="4.41"/>
		<g>
			<path fill="#BC1348" d="M97.382,199.714c0-8.186-6.635-14.714-14.818-14.714s-14.818,6.457-14.818,14.642
				c0,3.849,1.479,7.344,3.884,9.797h-0.023c0,0,10.164,10.526,10.164,22.521l-0.012,0.169h1.735
				c0-11.651,10.062-22.69,10.062-22.69h-0.022C95.918,206.985,97.382,203.543,97.382,199.714z M82.565,202.835
				c-1.948,0-3.529-1.579-3.529-3.527c0-1.949,1.581-3.527,3.529-3.527c1.948,0,3.527,1.578,3.527,3.527
				C86.092,201.256,84.513,202.835,82.565,202.835z"/>
			<path fill="none" d="M72.89,207.71c-0.007,0-0.01,0.001-0.01,0.001h0.012C72.89,207.711,72.89,207.71,72.89,207.71"/>
			<path fill="#EC1B52" d="M94.914,199.933c0-6.82-5.529-12.354-12.349-12.354s-12.349,5.59-12.349,12.409
				c0,2.896,1.004,5.611,2.674,7.715c0.015,0,0.047,0.011,0.094,0.066c0.042,0.049,0.085-0.115,0.128-0.065
				c1.466,1.763,9.453,11.547,9.453,15.839h0.225c0-4.292,8.01-14.363,9.284-15.928c0.014-0.018,0.028,0.064,0.042,0.048
				c0.084-0.104,0.134-0.063,0.134-0.063h-0.013C93.908,205.146,94.914,202.828,94.914,199.933z M82.565,202.835
				c-1.948,0-3.529-1.579-3.529-3.527c0-1.949,1.581-3.527,3.529-3.527c1.948,0,3.527,1.578,3.527,3.527
				C86.092,201.256,84.513,202.835,82.565,202.835z"/>
			<path fill="#BC1348" d="M82.433,193.662c-3.118,0-5.646,2.526-5.646,5.646c0,3.117,2.526,5.646,5.646,5.646
				c3.117,0,5.645-2.527,5.645-5.646C88.078,196.188,85.55,193.662,82.433,193.662z M82.433,202.835
				c-1.949,0-3.528-1.579-3.528-3.527c0-1.949,1.579-3.527,3.528-3.527c1.948,0,3.527,1.578,3.527,3.527
				C85.96,201.256,84.381,202.835,82.433,202.835z"/>
		</g>
	</g>
	<path fill="#999999" d="M187.564,254.001c0,1.104-0.896,2-2,2h-36c-1.104,0-2-0.896-2-2v-8c0-1.104,0.896-2,2-2h36
		c1.104,0,2,0.896,2,2V254.001z"/>
	<path fill="#999999" d="M233.564,254.001c0,1.104-0.896,2-2,2h-36c-1.104,0-2-0.896-2-2v-8c0-1.104,0.896-2,2-2h36
		c1.104,0,2,0.896,2,2V254.001z"/>
</g>
<rect x="255.436" y="192.001" fill="#3C5B9A" width="72" height="72"/>
<rect x="255.436" y="284.001" fill="#E6E6E6" width="72" height="72"/>
<rect x="145.201" y="284.001" fill="#999999" width="94.235" height="72"/>
<rect x="34.966" y="284.001" fill="#E6E6E6" width="95.598" height="72"/>
</svg>
