<?xml version="1.0" encoding="utf-8"?>
<!-- Generator: Adobe Illustrator 15.0.0, SVG Export Plug-In . SVG Version: 6.00 Build 0)  -->
<!DOCTYPE svg PUBLIC "-//W3C//DTD SVG 1.1//EN" "http://www.w3.org/Graphics/SVG/1.1/DTD/svg11.dtd">
<svg version="1.1" id="Layer_1" xmlns="http://www.w3.org/2000/svg" xmlns:xlink="http://www.w3.org/1999/xlink" x="0px" y="0px"
	 width="500px" height="436.939px" viewBox="-59 0 500 436.939" enable-background="new -59 0 500 436.939" xml:space="preserve">
<path opacity="0.06" enable-background="new    " d="M278,42.939H12c-3.86,0-7,3.141-7,7v28c0,3.859,3.14,7,7,7h266
	c3.859,0,7-3.141,7-7v-28C285,46.08,281.859,42.939,278,42.939z"/>
<g>
	<path fill="#FFFFFF" d="M273,39.939H7c-2.757,0-5,2.243-5,5v28c0,2.757,2.243,5,5,5h266c2.757,0,5-2.243,5-5v-28
		C278,42.182,275.757,39.939,273,39.939z"/>
	<path fill="#CCCCCC" d="M273,37.939H7c-3.86,0-7,3.141-7,7v28c0,3.859,3.14,7,7,7h266c3.859,0,7-3.141,7-7v-28
		C280,41.08,276.859,37.939,273,37.939z M278,72.939c0,2.757-2.243,5-5,5H7c-2.757,0-5-2.243-5-5v-28c0-2.757,2.243-5,5-5h266
		c2.757,0,5,2.243,5,5V72.939z"/>
</g>
<g>
	<path fill="#666666" d="M51.211,57.63l-0.516,2.656h2.211v1.008h-2.398l-0.656,3.359h-1.07l0.656-3.359h-2.367l-0.641,3.359h-1.062
		l0.625-3.359h-2.047v-1.008h2.242l0.531-2.656h-2.164v-0.992h2.336l0.641-3.406h1.086l-0.641,3.406h2.383l0.656-3.406h1.047
		l-0.656,3.406h2.062v0.992H51.211z M47.258,60.287h2.367l0.516-2.656h-2.367L47.258,60.287z"/>
	<path fill="#666666" d="M61.743,55.919c0,0.729-0.205,1.325-0.613,1.789c-0.409,0.464-0.988,0.773-1.738,0.93V58.7
		c0.917,0.114,1.596,0.406,2.039,0.875c0.442,0.469,0.664,1.083,0.664,1.844c0,1.089-0.378,1.926-1.133,2.512
		c-0.755,0.586-1.828,0.879-3.219,0.879c-0.604,0-1.158-0.045-1.66-0.137c-0.503-0.09-0.991-0.25-1.465-0.48v-1.234
		c0.495,0.246,1.022,0.432,1.582,0.559c0.56,0.129,1.09,0.191,1.59,0.191c1.974,0,2.961-0.773,2.961-2.32
		c0-1.386-1.089-2.078-3.266-2.078H56.36v-1.117h1.14c0.891,0,1.596-0.196,2.117-0.59s0.781-0.938,0.781-1.637
		c0-0.558-0.191-0.995-0.574-1.312c-0.383-0.317-0.902-0.478-1.559-0.478c-0.5,0-0.972,0.067-1.414,0.203
		c-0.443,0.136-0.948,0.386-1.516,0.75l-0.656-0.875c0.469-0.37,1.009-0.66,1.621-0.871c0.612-0.211,1.256-0.316,1.934-0.316
		c1.109,0,1.971,0.254,2.586,0.762C61.435,54.337,61.743,55.034,61.743,55.919z"/>
	<path fill="#666666" d="M71.86,62.029h-1.695v2.625h-1.242v-2.625h-5.555v-1.133l5.422-7.727h1.375v7.68h1.695V62.029z
		 M68.922,60.849v-3.797c0-0.745,0.026-1.586,0.078-2.523h-0.062c-0.25,0.5-0.484,0.914-0.703,1.242l-3.57,5.078H68.922z"/>
	<path fill="#666666" d="M80.469,58.107c0,4.469-1.729,6.703-5.188,6.703c-0.604,0-1.083-0.051-1.438-0.156v-1.117
		c0.417,0.137,0.891,0.203,1.422,0.203c1.25,0,2.194-0.387,2.832-1.16c0.638-0.773,0.985-1.96,1.043-3.559h-0.094
		c-0.287,0.433-0.667,0.762-1.141,0.988c-0.474,0.227-1.008,0.34-1.602,0.34c-1.011,0-1.812-0.302-2.406-0.906
		c-0.594-0.604-0.891-1.448-0.891-2.531c0-1.188,0.332-2.125,0.996-2.812s1.538-1.031,2.621-1.031c0.776,0,1.454,0.199,2.035,0.598
		c0.581,0.398,1.027,0.979,1.34,1.742C80.311,56.172,80.469,57.071,80.469,58.107z M76.625,54.177c-0.745,0-1.32,0.239-1.727,0.719
		c-0.407,0.48-0.609,1.146-0.609,2c0,0.75,0.188,1.34,0.562,1.77s0.945,0.645,1.711,0.645c0.474,0,0.91-0.097,1.309-0.289
		s0.712-0.456,0.941-0.789s0.344-0.683,0.344-1.047c0-0.547-0.107-1.052-0.32-1.516c-0.214-0.464-0.512-0.828-0.895-1.094
		C77.558,54.31,77.12,54.177,76.625,54.177z"/>
	<path fill="#666666" d="M87.79,54.255c-1.255,0-2.246,0.418-2.973,1.254c-0.727,0.836-1.09,1.98-1.09,3.434
		c0,1.495,0.35,2.649,1.051,3.465c0.7,0.816,1.699,1.223,2.996,1.223c0.797,0,1.706-0.143,2.727-0.43v1.164
		c-0.792,0.297-1.769,0.445-2.93,0.445c-1.683,0-2.98-0.51-3.895-1.531c-0.914-1.021-1.371-2.472-1.371-4.352
		c0-1.177,0.22-2.208,0.66-3.094s1.075-1.567,1.906-2.047c0.831-0.479,1.809-0.719,2.934-0.719c1.198,0,2.245,0.219,3.141,0.656
		l-0.562,1.141C89.519,54.458,88.654,54.255,87.79,54.255z"/>
	<path fill="#666666" d="M100.172,64.654l-1.422-3.633h-4.578l-1.406,3.633h-1.344l4.516-11.469h1.117l4.492,11.469H100.172z
		 M98.336,59.826l-1.328-3.539c-0.172-0.448-0.349-0.997-0.531-1.648c-0.115,0.5-0.279,1.05-0.492,1.648l-1.344,3.539H98.336z"/>
	<path fill="#666666" d="M105.899,57.677c1.203,0,2.149,0.298,2.84,0.896c0.69,0.597,1.035,1.413,1.035,2.449
		c0,1.183-0.376,2.109-1.129,2.781c-0.753,0.672-1.791,1.008-3.113,1.008c-1.287,0-2.269-0.205-2.945-0.617v-1.25
		c0.364,0.234,0.817,0.418,1.359,0.551c0.542,0.133,1.075,0.199,1.602,0.199c0.917,0,1.629-0.215,2.137-0.648
		c0.508-0.433,0.762-1.058,0.762-1.875c0-1.594-0.977-2.391-2.93-2.391c-0.495,0-1.156,0.075-1.984,0.227l-0.672-0.43l0.43-5.344
		h5.68v1.195h-4.57l-0.289,3.43C104.708,57.737,105.305,57.677,105.899,57.677z"/>
</g>
<rect x="14" y="50.439" fill="#349CA5" width="17" height="17"/>
<g>
	<path fill="#808080" d="M7.075,3.006c-1.025,0-1.819,0.385-2.382,1.156S3.85,6.006,3.85,7.383c0,2.865,1.075,4.298,3.226,4.298
		c0.902,0,1.995-0.226,3.278-0.677v2.285c-1.055,0.439-2.232,0.659-3.533,0.659c-1.869,0-3.299-0.567-4.289-1.701
		c-0.99-1.134-1.486-2.761-1.486-4.882c0-1.336,0.243-2.506,0.729-3.511C2.261,2.849,2.96,2.079,3.872,1.542
		s1.979-0.804,3.204-0.804c1.248,0,2.502,0.302,3.762,0.905l-0.88,2.215C9.478,3.629,8.994,3.43,8.508,3.26
		C8.022,3.09,7.544,3.006,7.075,3.006z"/>
	<path fill="#808080" d="M21.806,8.842c0,1.6-0.422,2.851-1.266,3.753c-0.844,0.902-2.019,1.354-3.524,1.354
		c-0.943,0-1.775-0.207-2.496-0.62s-1.274-1.006-1.661-1.78c-0.387-0.774-0.58-1.676-0.58-2.707c0-1.605,0.419-2.854,1.257-3.744
		c0.838-0.89,2.016-1.336,3.533-1.336c0.943,0,1.775,0.205,2.496,0.615c0.721,0.41,1.274,0.999,1.661,1.767
		C21.613,6.912,21.806,7.811,21.806,8.842z M15.012,8.842c0,0.973,0.16,1.708,0.479,2.206c0.319,0.498,0.839,0.747,1.56,0.747
		c0.715,0,1.229-0.248,1.542-0.743c0.313-0.495,0.47-1.232,0.47-2.21c0-0.973-0.158-1.702-0.475-2.188
		c-0.317-0.486-0.835-0.729-1.556-0.729c-0.715,0-1.23,0.242-1.547,0.725S15.012,7.863,15.012,8.842z"/>
	<path fill="#808080" d="M26.701,13.772H24.02V0.097h2.681V13.772z"/>
	<path fill="#808080" d="M38.443,8.842c0,1.6-0.422,2.851-1.266,3.753c-0.844,0.902-2.019,1.354-3.524,1.354
		c-0.943,0-1.775-0.207-2.496-0.62c-0.721-0.413-1.274-1.006-1.661-1.78c-0.387-0.774-0.58-1.676-0.58-2.707
		c0-1.605,0.419-2.854,1.257-3.744c0.838-0.89,2.016-1.336,3.533-1.336c0.943,0,1.775,0.205,2.496,0.615
		c0.721,0.41,1.274,0.999,1.661,1.767C38.25,6.912,38.443,7.811,38.443,8.842z M31.649,8.842c0,0.973,0.16,1.708,0.479,2.206
		s0.839,0.747,1.56,0.747c0.715,0,1.229-0.248,1.542-0.743c0.313-0.495,0.47-1.232,0.47-2.21c0-0.973-0.158-1.702-0.475-2.188
		c-0.317-0.486-0.835-0.729-1.556-0.729c-0.715,0-1.23,0.242-1.547,0.725S31.649,7.863,31.649,8.842z"/>
	<path fill="#808080" d="M46.143,3.762c0.363,0,0.665,0.026,0.905,0.079l-0.202,2.514c-0.217-0.059-0.48-0.088-0.791-0.088
		c-0.855,0-1.522,0.22-2,0.659c-0.478,0.439-0.716,1.055-0.716,1.846v5.001h-2.681V3.946h2.03l0.396,1.652h0.132
		c0.305-0.551,0.716-0.995,1.235-1.332S45.533,3.762,46.143,3.762z"/>
	<path fill="#808080" d="M62.438,8.842c0,1.6-0.422,2.851-1.266,3.753c-0.844,0.902-2.019,1.354-3.524,1.354
		c-0.943,0-1.775-0.207-2.496-0.62c-0.721-0.413-1.274-1.006-1.661-1.78c-0.387-0.774-0.58-1.676-0.58-2.707
		c0-1.605,0.419-2.854,1.257-3.744c0.838-0.89,2.016-1.336,3.533-1.336c0.943,0,1.775,0.205,2.496,0.615
		c0.721,0.41,1.274,0.999,1.661,1.767C62.245,6.912,62.438,7.811,62.438,8.842z M55.644,8.842c0,0.973,0.16,1.708,0.479,2.206
		s0.839,0.747,1.56,0.747c0.715,0,1.229-0.248,1.542-0.743c0.313-0.495,0.47-1.232,0.47-2.21c0-0.973-0.158-1.702-0.475-2.188
		c-0.317-0.486-0.835-0.729-1.556-0.729c-0.715,0-1.23,0.242-1.547,0.725C55.8,7.133,55.644,7.863,55.644,8.842z"/>
	<path fill="#808080" d="M70.084,5.959h-2.32v7.813h-2.681V5.959h-1.477V4.667l1.477-0.721v-0.72c0-1.119,0.275-1.937,0.826-2.452
		C66.46,0.259,67.342,0,68.555,0c0.926,0,1.749,0.138,2.47,0.413l-0.686,1.969c-0.539-0.17-1.037-0.255-1.494-0.255
		c-0.381,0-0.656,0.113-0.826,0.338c-0.17,0.225-0.255,0.514-0.255,0.866v0.615h2.32V5.959z"/>
	<path fill="#808080" d="M76.509,13.772V0.923h2.725v10.6h5.212v2.25L76.509,13.772L76.509,13.772z"/>
	<path fill="#808080" d="M86.353,1.406c0-0.873,0.486-1.31,1.459-1.31s1.459,0.437,1.459,1.31c0,0.416-0.122,0.74-0.365,0.971
		c-0.243,0.231-0.608,0.347-1.094,0.347C86.839,2.725,86.353,2.285,86.353,1.406z M89.147,13.772h-2.681V3.946h2.681V13.772z"/>
	<path fill="#808080" d="M101.03,13.772h-2.68V8.033c0-0.709-0.126-1.241-0.378-1.595s-0.653-0.532-1.204-0.532
		c-0.75,0-1.292,0.25-1.626,0.751s-0.501,1.332-0.501,2.492v4.623H91.96V3.946h2.048l0.36,1.257h0.149
		c0.299-0.475,0.71-0.833,1.235-1.077s1.121-0.365,1.789-0.365c1.143,0,2.01,0.309,2.602,0.927c0.592,0.618,0.888,1.51,0.888,2.676
		L101.03,13.772L101.03,13.772z"/>
	<path fill="#808080" d="M106.365,8.429l1.169-1.494l2.751-2.988h3.023l-3.902,4.263l4.14,5.563h-3.094l-2.83-3.981l-1.151,0.923
		v3.059h-2.681V0.097h2.681v6.1l-0.141,2.232H106.365z"/>
	<path fill="#808080" d="M121.808,10.854c0,1.008-0.35,1.775-1.05,2.303c-0.7,0.528-1.748,0.791-3.142,0.791
		c-0.715,0-1.324-0.048-1.828-0.146c-0.504-0.097-0.976-0.239-1.415-0.426v-2.215c0.498,0.234,1.059,0.431,1.683,0.589
		s1.173,0.237,1.648,0.237c0.973,0,1.459-0.281,1.459-0.844c0-0.211-0.064-0.382-0.193-0.514c-0.129-0.132-0.352-0.281-0.668-0.448
		c-0.316-0.167-0.738-0.362-1.266-0.584c-0.756-0.316-1.311-0.609-1.666-0.879c-0.355-0.27-0.612-0.579-0.773-0.927
		c-0.161-0.348-0.242-0.778-0.242-1.288c0-0.873,0.338-1.548,1.015-2.026c0.677-0.478,1.636-0.716,2.878-0.716
		c1.184,0,2.335,0.258,3.454,0.773l-0.809,1.934c-0.492-0.211-0.952-0.384-1.38-0.519c-0.428-0.135-0.864-0.202-1.31-0.202
		c-0.791,0-1.187,0.214-1.187,0.642c0,0.24,0.127,0.448,0.382,0.624c0.255,0.176,0.813,0.437,1.674,0.782
		c0.768,0.311,1.33,0.601,1.688,0.87c0.358,0.269,0.621,0.58,0.791,0.932C121.721,9.95,121.808,10.368,121.808,10.854z"/>
</g>
<path opacity="0.06" enable-background="new    " d="M278,394.938H12c-3.86,0-7,3.142-7,7.001v28c0,3.858,3.14,7,7,7h266
	c3.859,0,7-3.142,7-7v-28C285,398.08,281.859,394.938,278,394.938z"/>
<g>
	<path fill="#FFFFFF" d="M273,391.938H7c-2.757,0-5,2.244-5,5.001v28c0,2.757,2.243,5,5,5h266c2.757,0,5-2.243,5-5v-28
		C278,394.183,275.757,391.938,273,391.938z"/>
	<path fill="#CCCCCC" d="M273,389.938H7c-3.86,0-7,3.142-7,7.001v28c0,3.858,3.14,7,7,7h266c3.859,0,7-3.142,7-7v-28
		C280,393.08,276.859,389.938,273,389.938z M278,424.939c0,2.757-2.243,5-5,5H7c-2.757,0-5-2.243-5-5v-28
		c0-2.757,2.243-5.001,5-5.001h266c2.757,0,5,2.244,5,5.001V424.939z"/>
</g>
<g>
	<path fill="#808080" d="M7.075,355.005c-1.025,0-1.819,0.387-2.382,1.156s-0.844,1.844-0.844,3.221
		c0,2.865,1.075,4.299,3.226,4.299c0.902,0,1.995-0.227,3.278-0.678v2.285c-1.055,0.439-2.232,0.66-3.533,0.66
		c-1.869,0-3.299-0.567-4.289-1.701c-0.99-1.134-1.485-2.762-1.485-4.883c0-1.336,0.243-2.506,0.729-3.512
		c0.486-1.004,1.185-1.774,2.096-2.312s1.979-0.806,3.204-0.806c1.248,0,2.502,0.304,3.762,0.906l-0.879,2.215
		c-0.48-0.229-0.964-0.428-1.45-0.598C8.022,355.089,7.544,355.005,7.075,355.005z"/>
	<path fill="#808080" d="M19.837,365.772l-0.36-1.258h-0.141c-0.287,0.457-0.694,0.812-1.222,1.061
		c-0.528,0.249-1.128,0.374-1.802,0.374c-1.154,0-2.024-0.31-2.61-0.929c-0.586-0.617-0.879-1.508-0.879-2.668v-6.406h2.681v5.738
		c0,0.709,0.126,1.241,0.378,1.597c0.252,0.354,0.653,0.53,1.204,0.53c0.75,0,1.292-0.25,1.626-0.75
		c0.334-0.502,0.501-1.332,0.501-2.492v-4.622h2.681v9.825H19.837z"/>
	<path fill="#808080" d="M31.562,362.854c0,1.008-0.35,1.775-1.05,2.304c-0.7,0.528-1.748,0.791-3.142,0.791
		c-0.715,0-1.324-0.05-1.828-0.146c-0.504-0.098-0.976-0.24-1.415-0.428v-2.215c0.498,0.234,1.059,0.432,1.683,0.59
		s1.173,0.236,1.648,0.236c0.973,0,1.459-0.281,1.459-0.844c0-0.211-0.064-0.383-0.193-0.515s-0.352-0.28-0.668-0.448
		c-0.316-0.166-0.738-0.361-1.266-0.584c-0.756-0.316-1.311-0.609-1.666-0.88c-0.355-0.27-0.612-0.577-0.773-0.927
		s-0.242-0.777-0.242-1.288c0-0.873,0.338-1.548,1.015-2.024c0.677-0.478,1.636-0.718,2.878-0.718c1.184,0,2.335,0.259,3.454,0.773
		l-0.809,1.934c-0.492-0.211-0.952-0.383-1.38-0.518c-0.428-0.136-0.864-0.203-1.31-0.203c-0.791,0-1.187,0.215-1.187,0.644
		c0,0.239,0.127,0.446,0.382,0.623c0.255,0.176,0.813,0.438,1.674,0.782c0.768,0.312,1.33,0.601,1.688,0.869
		c0.358,0.269,0.621,0.58,0.791,0.933C31.475,361.948,31.562,362.369,31.562,362.854z"/>
	<path fill="#808080" d="M37.793,363.812c0.469,0,1.031-0.102,1.688-0.307v1.994c-0.668,0.299-1.488,0.449-2.461,0.449
		c-1.072,0-1.853-0.271-2.342-0.813c-0.489-0.542-0.734-1.354-0.734-2.438v-4.738H32.66v-1.133l1.477-0.896l0.773-2.074h1.714v2.092
		h2.751v2.012h-2.751v4.738c0,0.381,0.107,0.662,0.321,0.844C37.159,363.724,37.441,363.812,37.793,363.812z"/>
	<path fill="#808080" d="M50.396,360.841c0,1.6-0.422,2.852-1.266,3.754c-0.844,0.902-2.019,1.354-3.524,1.354
		c-0.943,0-1.775-0.207-2.496-0.62c-0.721-0.413-1.274-1.007-1.661-1.78c-0.387-0.772-0.58-1.676-0.58-2.707
		c0-1.604,0.419-2.854,1.257-3.743c0.838-0.891,2.016-1.336,3.533-1.336c0.943,0,1.775,0.204,2.496,0.614
		c0.721,0.41,1.274,1,1.661,1.769C50.203,358.913,50.396,359.81,50.396,360.841z M43.603,360.841c0,0.973,0.16,1.709,0.479,2.207
		s0.839,0.746,1.56,0.746c0.715,0,1.229-0.247,1.542-0.742c0.313-0.494,0.47-1.232,0.47-2.211c0-0.973-0.158-1.701-0.475-2.188
		c-0.317-0.487-0.835-0.73-1.556-0.73c-0.715,0-1.23,0.242-1.547,0.727C43.759,359.133,43.603,359.862,43.603,360.841z"/>
	<path fill="#808080" d="M61.409,365.772h-2.681v-5.739c0-0.709-0.119-1.24-0.356-1.595c-0.237-0.355-0.611-0.532-1.121-0.532
		c-0.686,0-1.184,0.252-1.494,0.756s-0.466,1.334-0.466,2.487v4.623H52.61v-9.825h2.048l0.36,1.256h0.149
		c0.264-0.451,0.645-0.804,1.143-1.06c0.498-0.254,1.069-0.383,1.714-0.383c1.471,0,2.467,0.48,2.988,1.441h0.237
		c0.264-0.457,0.652-0.811,1.165-1.062c0.513-0.25,1.091-0.379,1.736-0.379c1.113,0,1.956,0.286,2.527,0.857
		c0.571,0.57,0.857,1.486,0.857,2.746v6.408h-2.689v-5.74c0-0.709-0.119-1.24-0.356-1.596c-0.237-0.354-0.611-0.531-1.121-0.531
		c-0.656,0-1.147,0.234-1.472,0.703s-0.488,1.213-0.488,2.231L61.409,365.772L61.409,365.772z"/>
	<path fill="#808080" d="M84.05,356.931c0,1.383-0.432,2.439-1.296,3.172c-0.864,0.733-2.093,1.101-3.687,1.101h-1.169v4.569h-2.725
		v-12.85h4.104c1.559,0,2.744,0.335,3.555,1.006C83.643,354.601,84.05,355.601,84.05,356.931z M77.897,358.97h0.896
		c0.838,0,1.465-0.166,1.881-0.496c0.416-0.332,0.624-0.813,0.624-1.447c0-0.639-0.174-1.108-0.523-1.414
		c-0.349-0.305-0.895-0.457-1.639-0.457h-1.239V358.97z"/>
	<path fill="#808080" d="M86.15,353.406c0-0.873,0.486-1.31,1.459-1.31c0.973,0,1.459,0.437,1.459,1.31
		c0,0.415-0.122,0.739-0.365,0.972c-0.243,0.232-0.608,0.348-1.094,0.348C86.637,354.724,86.15,354.285,86.15,353.406z
		 M88.945,365.772h-2.681v-9.825h2.681V365.772z"/>
	<path fill="#808080" d="M100.828,365.772h-2.681v-5.739c0-0.709-0.126-1.24-0.378-1.595c-0.252-0.355-0.653-0.532-1.204-0.532
		c-0.75,0-1.292,0.251-1.626,0.752s-0.501,1.332-0.501,2.491v4.623h-2.681v-9.825h2.048l0.36,1.256h0.149
		c0.299-0.476,0.71-0.833,1.235-1.076c0.525-0.243,1.121-0.364,1.789-0.364c1.143,0,2.01,0.31,2.602,0.928
		c0.592,0.617,0.888,1.51,0.888,2.676V365.772z"/>
</g>
<g>
	<path fill="#808080" d="M63.85,128.931c0,1.383-0.432,2.44-1.296,3.173c-0.864,0.733-2.093,1.099-3.687,1.099h-1.169v4.57h-2.725
		v-12.85h4.104c1.559,0,2.744,0.335,3.555,1.006C63.443,126.6,63.85,127.601,63.85,128.931z M57.698,130.97h0.896
		c0.838,0,1.465-0.166,1.881-0.497s0.624-0.813,0.624-1.446c0-0.639-0.174-1.11-0.523-1.415c-0.349-0.305-0.895-0.457-1.639-0.457
		h-1.239V130.97z"/>
	<path fill="#808080" d="M65.951,125.406c0-0.873,0.486-1.31,1.459-1.31c0.973,0,1.459,0.437,1.459,1.31
		c0,0.416-0.122,0.74-0.365,0.971c-0.243,0.231-0.608,0.347-1.094,0.347C66.437,126.725,65.951,126.285,65.951,125.406z
		 M68.746,137.772h-2.681v-9.826h2.681V137.772z"/>
	<path fill="#808080" d="M80.628,137.772h-2.681v-5.739c0-0.709-0.126-1.241-0.378-1.595s-0.653-0.532-1.204-0.532
		c-0.75,0-1.292,0.25-1.626,0.751c-0.334,0.501-0.501,1.332-0.501,2.492v4.623h-2.681v-9.826h2.048l0.36,1.257h0.149
		c0.299-0.475,0.71-0.833,1.235-1.077s1.121-0.365,1.789-0.365c1.143,0,2.01,0.309,2.602,0.927c0.592,0.618,0.888,1.51,0.888,2.676
		V137.772z"/>
	<path fill="#808080" d="M93.733,127.006c-1.025,0-1.819,0.385-2.382,1.156s-0.844,1.844-0.844,3.221
		c0,2.865,1.075,4.298,3.226,4.298c0.902,0,1.995-0.226,3.278-0.677v2.285c-1.055,0.439-2.232,0.659-3.533,0.659
		c-1.869,0-3.299-0.567-4.289-1.701c-0.99-1.134-1.485-2.761-1.485-4.882c0-1.336,0.243-2.506,0.729-3.511
		c0.486-1.005,1.185-1.775,2.096-2.312c0.911-0.537,1.979-0.804,3.204-0.804c1.248,0,2.502,0.302,3.762,0.905l-0.879,2.215
		c-0.48-0.229-0.964-0.428-1.45-0.598C94.68,127.09,94.202,127.006,93.733,127.006z"/>
	<path fill="#808080" d="M108.463,132.842c0,1.6-0.422,2.851-1.266,3.753c-0.844,0.902-2.019,1.354-3.524,1.354
		c-0.943,0-1.775-0.207-2.496-0.62c-0.721-0.413-1.274-1.006-1.661-1.78c-0.387-0.774-0.58-1.676-0.58-2.707
		c0-1.605,0.419-2.854,1.257-3.744c0.838-0.89,2.016-1.336,3.533-1.336c0.943,0,1.775,0.205,2.496,0.615
		c0.721,0.41,1.274,0.999,1.661,1.767C108.27,130.912,108.463,131.811,108.463,132.842z M101.669,132.842
		c0,0.973,0.16,1.708,0.479,2.206s0.839,0.747,1.56,0.747c0.715,0,1.229-0.248,1.542-0.743c0.313-0.495,0.47-1.232,0.47-2.21
		c0-0.973-0.158-1.702-0.475-2.188c-0.317-0.486-0.835-0.729-1.556-0.729c-0.715,0-1.23,0.242-1.547,0.725
		S101.669,131.863,101.669,132.842z"/>
	<path fill="#808080" d="M113.359,137.772h-2.681v-13.676h2.681V137.772z"/>
	<path fill="#808080" d="M125.101,132.842c0,1.6-0.422,2.851-1.266,3.753c-0.844,0.902-2.019,1.354-3.524,1.354
		c-0.943,0-1.775-0.207-2.496-0.62s-1.274-1.006-1.661-1.78c-0.387-0.774-0.58-1.676-0.58-2.707c0-1.605,0.419-2.854,1.257-3.744
		c0.838-0.89,2.016-1.336,3.533-1.336c0.943,0,1.775,0.205,2.496,0.615c0.721,0.41,1.274,0.999,1.661,1.767
		S125.101,131.811,125.101,132.842z M118.307,132.842c0,0.973,0.16,1.708,0.479,2.206c0.319,0.498,0.839,0.747,1.56,0.747
		c0.715,0,1.229-0.248,1.542-0.743c0.313-0.495,0.47-1.232,0.47-2.21c0-0.973-0.158-1.702-0.475-2.188
		c-0.317-0.486-0.835-0.729-1.556-0.729c-0.715,0-1.23,0.242-1.547,0.725C118.463,131.133,118.307,131.863,118.307,132.842z"/>
	<path fill="#808080" d="M132.8,127.762c0.363,0,0.665,0.026,0.905,0.079l-0.202,2.514c-0.217-0.059-0.48-0.088-0.791-0.088
		c-0.855,0-1.522,0.22-2,0.659c-0.478,0.439-0.716,1.055-0.716,1.846v5.001h-2.681v-9.826h2.03l0.396,1.652h0.132
		c0.305-0.551,0.716-0.995,1.235-1.332S132.191,127.762,132.8,127.762z"/>
</g>
<g>
	<path fill="none" d="M164,164.439H60c-3.86,0-7,3.141-7,7v126c0,3.859,3.14,7,7,7h104c3.86,0,7-3.141,7-7v-126
		C171,167.58,167.86,164.439,164,164.439z"/>
	<path fill="#CCCCCC" d="M164,162.439H60c-4.962,0-9,4.037-9,9v126c0,4.963,4.038,9,9,9h104c4.962,0,9-4.037,9-9v-126
		C173,166.476,168.962,162.439,164,162.439z M171,297.438c0,3.859-3.14,7-7,7H60c-3.86,0-7-3.141-7-7v-126c0-3.859,3.14-7,7-7h104
		c3.86,0,7,3.141,7,7V297.438z"/>
</g>
<g>
	<ellipse opacity="0.1" enable-background="new    " cx="111.826" cy="244.735" rx="17.217" ry="5.836"/>
	<g>
		<path fill="#BC1348" d="M131.609,202.32c0-10.832-8.779-19.473-19.609-19.473s-19.609,8.547-19.609,19.376
			c0,5.093,1.958,9.72,5.14,12.966H97.5c0,0,13.45,13.929,13.45,29.805l-0.015,0.223h2.296c0-15.42,13.317-30.027,13.317-30.027
			h-0.031C129.672,211.941,131.609,207.387,131.609,202.32z M112.001,206.451c-2.578,0-4.67-2.091-4.67-4.668
			c0-2.579,2.092-4.67,4.67-4.67s4.668,2.091,4.668,4.67C116.669,204.36,114.579,206.451,112.001,206.451z"/>
		<path fill="none" d="M99.199,212.902c-0.009,0-0.014,0.001-0.014,0.001L99.199,212.902
			C99.199,212.903,99.199,212.902,99.199,212.902"/>
		<path fill="#EC1B52" d="M128.342,202.607c0-9.024-7.317-16.349-16.341-16.349c-9.025,0-16.341,7.399-16.341,16.424
			c0,3.833,1.328,7.425,3.539,10.207c0.019,0,0.061,0.016,0.124,0.088c0.056,0.067,0.111-0.153,0.169-0.087
			c1.939,2.333,12.51,15.28,12.51,20.96h0.296c0-5.681,10.601-19.008,12.288-21.078c0.017-0.022,0.036,0.086,0.054,0.063
			c0.112-0.138,0.177-0.086,0.177-0.086H124.8C127.011,209.506,128.342,206.441,128.342,202.607z M112.001,206.451
			c-2.578,0-4.67-2.091-4.67-4.668c0-2.579,2.092-4.67,4.67-4.67s4.668,2.091,4.668,4.67
			C116.669,204.36,114.579,206.451,112.001,206.451z"/>
		<path fill="#BC1348" d="M111.827,194.312c-4.126,0-7.471,3.345-7.471,7.471c0,4.125,3.344,7.47,7.471,7.47
			c4.125,0,7.47-3.345,7.47-7.47C119.297,197.657,115.952,194.312,111.827,194.312z M111.827,206.451
			c-2.58,0-4.669-2.091-4.669-4.668c0-2.579,2.089-4.67,4.669-4.67c2.578,0,4.668,2.091,4.668,4.67
			C116.495,204.36,114.404,206.451,111.827,206.451z"/>
	</g>
</g>
<g>
	<path fill="#FFFFFF" d="M119,266.438h-14c-1.103,0-2,0.897-2,2v14c0,1.104,0.897,2,2,2h14c1.103,0,2-0.896,2-2v-14
		C121,267.336,120.103,266.438,119,266.438z"/>
	<path fill="#CCCCCC" d="M119,264.438h-14c-2.206,0-4,1.795-4,4v14c0,2.207,1.794,4,4,4h14c2.206,0,4-1.793,4-4v-14
		C123,266.233,121.206,264.438,119,264.438z M121,282.438c0,1.104-0.897,2-2,2h-14c-1.103,0-2-0.896-2-2v-14c0-1.103,0.897-2,2-2h14
		c1.103,0,2,0.897,2,2V282.438z"/>
</g>
<g>
	<path fill="none" d="M298,164.439H194c-3.859,0-7,3.141-7,7v126c0,3.859,3.141,7,7,7h104c3.859,0,7-3.141,7-7v-126
		C305,167.58,301.859,164.439,298,164.439z"/>
	<path fill="#CCCCCC" d="M298,162.439H194c-4.963,0-9,4.037-9,9v126c0,4.963,4.037,9,9,9h104c4.963,0,9-4.037,9-9v-126
		C307,166.476,302.963,162.439,298,162.439z M305,297.438c0,3.859-3.141,7-7,7H194c-3.859,0-7-3.141-7-7v-126c0-3.859,3.141-7,7-7
		h104c3.859,0,7,3.141,7,7V297.438z"/>
</g>
<g>
	<ellipse opacity="0.1" enable-background="new    " cx="245.826" cy="244.735" rx="17.217" ry="5.836"/>
	<g>
		<path fill="#3B2F3F" d="M265.609,202.32c0-10.832-8.779-19.473-19.609-19.473s-19.609,8.547-19.609,19.376
			c0,5.093,1.957,9.72,5.141,12.966H231.5c0,0,13.45,13.929,13.45,29.805l-0.015,0.223h2.295c0-15.42,13.316-30.027,13.316-30.027
			h-0.031C263.672,211.941,265.609,207.387,265.609,202.32z M246.001,206.451c-2.578,0-4.67-2.091-4.67-4.668
			c0-2.579,2.092-4.67,4.67-4.67s4.669,2.091,4.669,4.67C250.67,204.36,248.579,206.451,246.001,206.451z"/>
		<path fill="none" d="M233.199,212.902c-0.01,0-0.014,0.001-0.014,0.001L233.199,212.902
			C233.199,212.903,233.199,212.902,233.199,212.902"/>
		<path fill="#5D4A62" d="M262.342,202.607c0-9.024-7.316-16.349-16.341-16.349s-16.341,7.399-16.341,16.424
			c0,3.833,1.328,7.425,3.539,10.207c0.018,0,0.061,0.016,0.123,0.088c0.057,0.067,0.111-0.153,0.17-0.087
			c1.939,2.333,12.51,15.28,12.51,20.96h0.296c0-5.681,10.601-19.008,12.288-21.078c0.018-0.022,0.036,0.086,0.055,0.063
			c0.111-0.138,0.178-0.086,0.178-0.086h-0.018C261.012,209.506,262.342,206.441,262.342,202.607z M246.001,206.451
			c-2.578,0-4.67-2.091-4.67-4.668c0-2.579,2.092-4.67,4.67-4.67s4.669,2.091,4.669,4.67
			C250.67,204.36,248.579,206.451,246.001,206.451z"/>
		<path fill="#3B2F3F" d="M245.826,194.312c-4.125,0-7.471,3.345-7.471,7.471c0,4.125,3.344,7.47,7.471,7.47
			c4.125,0,7.471-3.345,7.471-7.47C253.297,197.657,249.951,194.312,245.826,194.312z M245.826,206.451
			c-2.579,0-4.668-2.091-4.668-4.668c0-2.579,2.089-4.67,4.668-4.67c2.578,0,4.668,2.091,4.668,4.67
			C250.494,204.36,248.404,206.451,245.826,206.451z"/>
	</g>
</g>
<g>
	<path fill="#FFFFFF" d="M253,266.438h-14c-1.104,0-2,0.897-2,2v14c0,1.104,0.896,2,2,2h14c1.104,0,2-0.896,2-2v-14
		C255,267.336,254.104,266.438,253,266.438z"/>
	<path fill="#CCCCCC" d="M253,264.438h-14c-2.205,0-4,1.795-4,4v14c0,2.207,1.795,4,4,4h14c2.205,0,4-1.793,4-4v-14
		C257,266.233,255.205,264.438,253,264.438z M255,282.438c0,1.104-0.896,2-2,2h-14c-1.104,0-2-0.896-2-2v-14c0-1.103,0.896-2,2-2h14
		c1.104,0,2,0.897,2,2V282.438z"/>
</g>
<g>
	<path fill="none" d="M432,164.439H328c-3.859,0-7,3.141-7,7v126c0,3.859,3.141,7,7,7h104c3.859,0,7-3.141,7-7v-126
		C439,167.58,435.859,164.439,432,164.439z"/>
	<path fill="#CCCCCC" d="M432,162.439H328c-4.963,0-9,4.037-9,9v126c0,4.963,4.037,9,9,9h104c4.963,0,9-4.037,9-9v-126
		C441,166.476,436.963,162.439,432,162.439z M439,297.438c0,3.859-3.141,7-7,7H328c-3.859,0-7-3.141-7-7v-126c0-3.859,3.141-7,7-7
		h104c3.859,0,7,3.141,7,7V297.438z"/>
</g>
<g>
	<ellipse opacity="0.1" enable-background="new    " cx="379.826" cy="241.735" rx="17.217" ry="5.836"/>
	<g>
		<path fill="#175E60" d="M399.609,199.32c0-10.832-8.779-19.473-19.609-19.473s-19.609,8.547-19.609,19.376
			c0,5.093,1.957,9.72,5.141,12.966H365.5c0,0,13.45,13.929,13.45,29.805l-0.016,0.223h2.297c0-15.42,13.315-30.027,13.315-30.027
			h-0.031C397.672,208.941,399.609,204.387,399.609,199.32z M380.001,203.451c-2.578,0-4.67-2.091-4.67-4.668
			c0-2.579,2.092-4.67,4.67-4.67s4.669,2.091,4.669,4.67C384.67,201.36,382.579,203.451,380.001,203.451z"/>
		<path fill="none" d="M367.199,209.902c-0.01,0-0.015,0.001-0.015,0.001L367.199,209.902
			C367.199,209.903,367.199,209.902,367.199,209.902"/>
		<path fill="#349CA5" d="M396.342,199.607c0-9.024-7.315-16.349-16.341-16.349s-16.341,7.399-16.341,16.424
			c0,3.833,1.328,7.425,3.539,10.207c0.018,0,0.061,0.016,0.123,0.088c0.057,0.067,0.11-0.153,0.17-0.087
			c1.938,2.333,12.51,15.28,12.51,20.96h0.296c0-5.681,10.602-19.008,12.288-21.078c0.017-0.022,0.036,0.086,0.055,0.063
			c0.111-0.138,0.178-0.086,0.178-0.086h-0.018C395.012,206.506,396.342,203.441,396.342,199.607z M380.001,203.451
			c-2.578,0-4.67-2.091-4.67-4.668c0-2.579,2.092-4.67,4.67-4.67s4.669,2.091,4.669,4.67
			C384.67,201.36,382.579,203.451,380.001,203.451z"/>
		<path fill="#175E60" d="M379.826,191.312c-4.125,0-7.471,3.345-7.471,7.471c0,4.125,3.344,7.47,7.471,7.47
			c4.125,0,7.471-3.345,7.471-7.47C387.297,194.657,383.951,191.312,379.826,191.312z M379.826,203.451
			c-2.579,0-4.668-2.091-4.668-4.668c0-2.579,2.089-4.67,4.668-4.67c2.578,0,4.668,2.091,4.668,4.67
			C384.494,201.36,382.404,203.451,379.826,203.451z"/>
	</g>
</g>
<g>
	<path fill="#FFFFFF" d="M387,263.438h-14c-1.104,0-2,0.897-2,2v14c0,1.104,0.896,2,2,2h14c1.104,0,2-0.896,2-2v-14
		C389,264.336,388.104,263.438,387,263.438z"/>
	<path fill="#CCCCCC" d="M387,261.438h-14c-2.205,0-4,1.795-4,4v14c0,2.207,1.795,4,4,4h14c2.205,0,4-1.793,4-4v-14
		C391,263.233,389.205,261.438,387,261.438z M389,279.438c0,1.104-0.896,2-2,2h-14c-1.104,0-2-0.896-2-2v-14c0-1.103,0.896-2,2-2h14
		c1.104,0,2,0.897,2,2V279.438z"/>
</g>
<g>
	<path fill="#999999" d="M21.188,413.771c0,1.005-0.365,1.788-1.094,2.352c-0.729,0.562-1.719,0.844-2.969,0.844
		c-1.354,0-2.396-0.175-3.125-0.522v-1.281c0.469,0.198,0.979,0.354,1.531,0.469c0.552,0.114,1.099,0.172,1.641,0.172
		c0.885,0,1.552-0.168,2-0.504c0.448-0.336,0.672-0.804,0.672-1.401c0-0.396-0.08-0.721-0.238-0.974
		c-0.159-0.253-0.425-0.484-0.797-0.699c-0.373-0.214-0.939-0.456-1.699-0.727c-1.062-0.38-1.822-0.831-2.277-1.353
		c-0.456-0.521-0.684-1.199-0.684-2.038c0-0.881,0.331-1.581,0.992-2.103c0.661-0.521,1.536-0.781,2.625-0.781
		c1.135,0,2.18,0.208,3.133,0.625l-0.414,1.156c-0.943-0.396-1.859-0.594-2.75-0.594c-0.703,0-1.253,0.15-1.648,0.453
		c-0.396,0.302-0.594,0.722-0.594,1.258c0,0.396,0.073,0.72,0.219,0.973s0.392,0.484,0.738,0.695
		c0.346,0.211,0.876,0.444,1.59,0.699c1.198,0.427,2.022,0.886,2.473,1.375C20.962,412.354,21.188,412.99,21.188,413.771z"/>
	<path fill="#999999" d="M26.945,416.966c-1.266,0-2.265-0.386-2.996-1.156c-0.732-0.771-1.098-1.841-1.098-3.211
		c0-1.38,0.34-2.477,1.02-3.289c0.68-0.812,1.592-1.219,2.738-1.219c1.073,0,1.922,0.354,2.547,1.06s0.938,1.637,0.938,2.793v0.819
		h-5.898c0.026,1.005,0.28,1.77,0.762,2.289c0.481,0.521,1.16,0.781,2.035,0.781c0.922,0,1.833-0.192,2.734-0.578v1.156
		c-0.458,0.198-0.892,0.34-1.301,0.426C28.017,416.923,27.523,416.966,26.945,416.966z M26.594,409.177
		c-0.688,0-1.236,0.225-1.645,0.672c-0.409,0.448-0.65,1.067-0.723,1.859h4.477c0-0.817-0.183-1.444-0.547-1.879
		C27.792,409.395,27.271,409.177,26.594,409.177z"/>
	<path fill="#999999" d="M33.602,416.81h-1.297v-12.155h1.297V416.81z"/>
	<path fill="#999999" d="M39.969,416.966c-1.266,0-2.265-0.386-2.996-1.156c-0.732-0.771-1.098-1.841-1.098-3.211
		c0-1.38,0.34-2.477,1.02-3.289c0.68-0.812,1.592-1.219,2.738-1.219c1.073,0,1.922,0.354,2.547,1.06s0.938,1.637,0.938,2.793v0.819
		H37.22c0.026,1.005,0.28,1.77,0.762,2.289c0.481,0.521,1.16,0.781,2.035,0.781c0.922,0,1.833-0.192,2.734-0.578v1.156
		c-0.458,0.198-0.892,0.34-1.301,0.426C41.04,416.923,40.547,416.966,39.969,416.966z M39.617,409.177
		c-0.688,0-1.236,0.225-1.645,0.672c-0.409,0.448-0.65,1.067-0.723,1.859h4.477c0-0.817-0.183-1.444-0.547-1.879
		C40.815,409.395,40.294,409.177,39.617,409.177z"/>
	<path fill="#999999" d="M48.75,416.966c-1.239,0-2.199-0.382-2.879-1.145c-0.68-0.764-1.02-1.843-1.02-3.238
		c0-1.433,0.345-2.539,1.035-3.32c0.69-0.78,1.673-1.172,2.949-1.172c0.411,0,0.823,0.044,1.234,0.133
		c0.411,0.089,0.734,0.192,0.969,0.312l-0.398,1.102c-0.286-0.113-0.599-0.21-0.938-0.285c-0.339-0.074-0.638-0.112-0.898-0.112
		c-1.739,0-2.609,1.108-2.609,3.328c0,1.052,0.212,1.858,0.637,2.422c0.425,0.562,1.054,0.844,1.887,0.844
		c0.714,0,1.445-0.153,2.195-0.461v1.148C50.341,416.818,49.62,416.966,48.75,416.966z"/>
	<path fill="#999999" d="M55.711,415.896c0.229,0,0.45-0.018,0.664-0.052s0.383-0.068,0.508-0.104v0.992
		c-0.141,0.066-0.348,0.124-0.621,0.168c-0.273,0.044-0.52,0.065-0.738,0.065c-1.656,0-2.484-0.872-2.484-2.617v-5.094h-1.227
		v-0.625l1.227-0.539l0.547-1.828h0.75v1.984h2.484v1.008h-2.484v5.039c0,0.516,0.122,0.911,0.367,1.188
		C54.949,415.759,55.284,415.896,55.711,415.896z"/>
	<path fill="#999999" d="M68.016,416.81l-0.258-1.219h-0.062c-0.427,0.536-0.853,0.899-1.277,1.09
		c-0.424,0.191-0.954,0.285-1.59,0.285c-0.849,0-1.515-0.219-1.996-0.656c-0.481-0.437-0.723-1.06-0.723-1.866
		c0-1.729,1.383-2.637,4.148-2.72l1.453-0.047v-0.53c0-0.673-0.145-1.169-0.434-1.488c-0.289-0.32-0.751-0.48-1.387-0.48
		c-0.714,0-1.521,0.219-2.422,0.656l-0.398-0.992c0.422-0.229,0.884-0.409,1.387-0.539s1.007-0.194,1.512-0.194
		c1.021,0,1.777,0.227,2.27,0.68c0.493,0.453,0.738,1.18,0.738,2.18v5.844h-0.961V416.81z M65.086,415.896
		c0.808,0,1.441-0.223,1.902-0.664c0.461-0.442,0.691-1.062,0.691-1.859V412.6l-1.297,0.056c-1.031,0.036-1.774,0.195-2.23,0.479
		s-0.684,0.727-0.684,1.324c0,0.469,0.142,0.825,0.426,1.07S64.575,415.896,65.086,415.896z"/>
	<path fill="#999999" d="M77.328,416.81H76v-11.422h6.367v1.181h-5.039v4.18h4.734v1.18h-4.734V416.81z"/>
	<path fill="#999999" d="M83.953,405.927c0-0.297,0.073-0.515,0.219-0.651c0.146-0.138,0.328-0.207,0.547-0.207
		c0.208,0,0.388,0.069,0.539,0.211c0.151,0.141,0.227,0.355,0.227,0.647s-0.075,0.509-0.227,0.652
		c-0.152,0.143-0.331,0.215-0.539,0.215c-0.219,0-0.401-0.071-0.547-0.215C84.026,406.435,83.953,406.219,83.953,405.927z
		 M85.359,416.81h-1.297v-8.562h1.297V416.81z"/>
	<path fill="#999999" d="M89.406,416.81h-1.297v-12.155h1.297V416.81z"/>
	<path fill="#999999" d="M95.773,416.966c-1.266,0-2.265-0.386-2.996-1.156c-0.731-0.77-1.098-1.841-1.098-3.211
		c0-1.38,0.34-2.477,1.02-3.289c0.68-0.812,1.593-1.219,2.738-1.219c1.073,0,1.922,0.354,2.547,1.06s0.938,1.637,0.938,2.793v0.819
		h-5.898c0.026,1.005,0.28,1.77,0.762,2.289c0.482,0.521,1.16,0.781,2.035,0.781c0.922,0,1.833-0.192,2.734-0.578v1.156
		c-0.458,0.198-0.892,0.34-1.301,0.426C96.845,416.923,96.352,416.966,95.773,416.966z M95.422,409.177
		c-0.688,0-1.235,0.225-1.645,0.672c-0.41,0.448-0.649,1.067-0.723,1.859h4.477c0-0.817-0.183-1.444-0.547-1.879
		C96.62,409.394,96.099,409.177,95.422,409.177z"/>
	<path fill="#999999" d="M100.945,415.982c0-0.35,0.079-0.613,0.238-0.793c0.159-0.181,0.387-0.271,0.684-0.271
		c0.302,0,0.538,0.09,0.707,0.271c0.169,0.18,0.254,0.443,0.254,0.793c0,0.339-0.086,0.599-0.258,0.78
		c-0.172,0.183-0.406,0.273-0.703,0.273c-0.266,0-0.485-0.082-0.66-0.246S100.945,416.357,100.945,415.982z"/>
	<path fill="#999999" d="M105.203,415.982c0-0.35,0.079-0.613,0.238-0.793c0.159-0.181,0.387-0.271,0.684-0.271
		c0.302,0,0.538,0.09,0.707,0.271c0.169,0.18,0.254,0.443,0.254,0.793c0,0.339-0.086,0.599-0.258,0.78
		c-0.172,0.183-0.406,0.273-0.703,0.273c-0.266,0-0.485-0.082-0.66-0.246C105.29,416.626,105.203,416.357,105.203,415.982z"/>
	<path fill="#999999" d="M109.461,415.982c0-0.35,0.079-0.613,0.238-0.793c0.159-0.181,0.387-0.271,0.684-0.271
		c0.302,0,0.538,0.09,0.707,0.271c0.169,0.18,0.254,0.443,0.254,0.793c0,0.339-0.086,0.599-0.258,0.78
		c-0.172,0.183-0.406,0.273-0.703,0.273c-0.266,0-0.485-0.082-0.66-0.246C109.548,416.626,109.461,416.357,109.461,415.982z"/>
</g>
</svg>
