<?xml version="1.0" encoding="utf-8"?>
<!-- Generator: Adobe Illustrator 15.0.0, SVG Export Plug-In . SVG Version: 6.00 Build 0)  -->
<!DOCTYPE svg PUBLIC "-//W3C//DTD SVG 1.1//EN" "http://www.w3.org/Graphics/SVG/1.1/DTD/svg11.dtd">
<svg version="1.1" id="Layer_1" xmlns="http://www.w3.org/2000/svg" xmlns:xlink="http://www.w3.org/1999/xlink" x="0px" y="0px"
	 width="600px" height="600px" viewBox="0 0 600 600" enable-background="new 0 0 600 600" xml:space="preserve">
<g id="VxCUG7.tif">
	<g>
		<circle fill-rule="evenodd" clip-rule="evenodd" fill="#4189C7" cx="300" cy="300" r="300"/>
		<path fill-rule="evenodd" clip-rule="evenodd" fill="#2571AB" d="M168,54c2.638-0.304,2.579,2.088,3,4
			c-2.877-2.957-7.944,2.135-11-1C161.091,54.424,166.458,56.125,168,54z"/>
		<path fill-rule="evenodd" clip-rule="evenodd" fill="#2571AB" d="M404,73c2.348,0.319,2.238,3.095,4,4
			c-1.559,2.108-1.789,5.545-5,6C402.623,78.436,401.338,76.015,404,73z"/>
		<path fill-rule="evenodd" clip-rule="evenodd" fill="#4189C7" d="M435,79c-0.85,1.483-2.516,2.15-5,2
			C430.346,77.469,432.625,78.415,435,79z"/>
		<path fill-rule="evenodd" clip-rule="evenodd" fill="#2571AB" d="M304,120c-1.752,1.581-5.328,1.339-8,2
			C296.222,118.889,300.977,120.31,304,120z"/>
		<path fill-rule="evenodd" clip-rule="evenodd" fill="#2571AB" d="M294,130c1,0,2,0,3,0c-0.924,1.743,0.035,5.367-3,5
			C294,133.333,294,131.666,294,130z"/>
		<path fill-rule="evenodd" clip-rule="evenodd" fill="#2571AB" d="M551,150c12.441,19.355,24.672,45.123,32,72
			c2.9,10.634,5.734,22.902,5,33c4.012,5.869,3.283,15.539,4,24c0.836,9.85,0.723,20.773-2,30c-0.225,2.774-3.17,2.828-4,5
			c-2.48,19.186-9.9,33.432-16,49c-2.465-0.133-4.818-0.152-6,1c-3.461-4.207-12.643-2.691-12-11c-3.236-1.236-0.764,3.235-4,2
			c-2.354-11.647-1.607-26.393-11-31c2.467-12.313-2.604-22.991-2-34c0.238-4.348,3.883-9.753,3-16c-0.975-6.906-6.738-11.981-7-19
			c-0.166-4.49,2.627-9.721-1-14c8.676-11.255,3.617-31.515,9-47c2.85,2.151,3.203,6.797,7,8c4.064-1.936,6.934-5.067,7-11
			c11.461-5.756,2.342-18.391-1-26C557.885,163.165,550.244,155.934,551,150z"/>
		<path fill-rule="evenodd" clip-rule="evenodd" fill="#2571AB" d="M249,161c-2.441,1.892-6.52,2.147-11,2
			c-0.947-3.614,3.938-1.395,6-2c-0.325-3.675-2.467-5.533-3-9C249.583,148.608,250.155,157.276,249,161z"/>
		<path fill-rule="evenodd" clip-rule="evenodd" fill="#2571AB" d="M405,154c1,0,2,0,3,0c-0.391,4.678-0.609,3.322-1,8
			c-1.334,0-2.666,0-4,0c0.027-0.973,1.225-0.776,2-1C403.627,157.835,404.783,157.657,405,154z"/>
		<path fill-rule="evenodd" clip-rule="evenodd" fill="#2571AB" d="M317,187c0.99-1.883,6.092,0.496,6,3
			C320.957,189.042,319.043,187.957,317,187z"/>
		<path fill-rule="evenodd" clip-rule="evenodd" fill="#4189C7" d="M211,188c3.228-0.895,1.405,3.262,3,4
			c3.061-0.063,5.21-3.672,8-1c-2.994,2.528-10.89,4.095-17,3C204.563,189.563,212.524,193.524,211,188z"/>
		<path fill-rule="evenodd" clip-rule="evenodd" fill="#4189C7" d="M216,206c-1.236,3.236,3.236,0.764,2,4
			c-3.858-1.124-4.621-2.365-9-1C209.911,206.577,213.019,206.352,216,206z"/>
		<path fill-rule="evenodd" clip-rule="evenodd" fill="#4189C7" d="M228,244c1,0,2,0,3,0c0.813,3.798,3.539,17.307-2,18
			C234.397,255.624,223.972,251.396,228,244z"/>
		<path fill-rule="evenodd" clip-rule="evenodd" fill="#2571AB" d="M361,271c2.516,3.387,6.852-0.989,7,4
			c-3.438-0.438-5.605,0.395-8,1C361.469,273.642,362.111,274.139,361,271z"/>
		<path fill-rule="evenodd" clip-rule="evenodd" fill="#4189C7" d="M294,303c2.169-0.169,0.453,3.547,1,5c-4.333,0-8.666,0-13,0
			C282.559,302.892,292.595,307.261,294,303z"/>
		<path fill-rule="evenodd" clip-rule="evenodd" fill="#4189C7" d="M284,310c-1.65,4.896-10.627,7.079-16,5
			C273.06,313.059,276.979,309.979,284,310z"/>
		<path fill-rule="evenodd" clip-rule="evenodd" fill="#2571AB" d="M270,383c1.468,3.197,2.862,6.471,3,11
			C269.582,391.779,268.447,387.67,270,383z"/>
		<path fill-rule="evenodd" clip-rule="evenodd" fill="#2571AB" d="M312,466c-0.451,3.884-0.059,6.593,2,12
			c3.223-0.445,5.418-1.916,9-2c0-3,0-6,0-9c4.215-2.292,8.643-0.41,10,3c13.088-1.35,22.969,0.822,34-1
			c0.723,3.055-1.021,3.644-1,6c2.514,1.39,9.062-4.514,14-1c0.023,2.355-1.723,2.943-1,6c2.928,0.26,3.072-2.262,6-2
			c9.773,5.26,21.105-4.857,32,1c0.26,3.072,2.17,4.496,3,7c-2.797,4.535-5.801,8.864-6,16c2.004,2.896,3.705-2.884,7-2
			c-0.154,2.487,1.57,3.096,2,5c2.291-1.71,2.365-5.636,3-9c3.77-0.77,4.779,1.219,8,1c1.828-1.506,2.354-4.314,4-6
			c2.334,0,4.666,0,7,0c1.941,1.926-1.051,4.023-1,7c12.303-7.302,25.1-13.836,43-13c-1.416,4.238-4.396,7.584-7,11
			c-2.412,3.166-4.387,6.848-7,10c-1.447,1.745-4.711,2.881-6,5c-3.146,5.17-3.348,12.035-7,17c-10.275,13.971-27.254,18.043-42,28
			c-1.617,2.383-3.592,4.408-5,7c-12.451,5.549-23.412,14.771-38,17c-1.551,0.236-3.508-0.463-5,0c-3.523,1.094-6.393,4.721-10,6
			c-3.023,1.071-7.057,0.395-10,1c-9.84,2.023-19.998,5.723-31,5c4.742-2.537,3.369-2.9,1-7c3.418,0.75,1.271-4.063,5-3
			c-1.961-6.787,5.396-12.992,1-20c-7.438-4.23-17.729-5.605-27-8c-8.803-9.529-16.445-20.221-27-28c3.579-1.301,6.274-6.234,10-10
			c-0.14-2.861-4.171-1.829-7-2c0.853-4.814,4.759-6.574,10-7c0.053-3.863,1.6-3.656,5-7c6.771-6.659-0.41-4.24,1-16
			c1.314,0.354,1.573,1.76,3,2c0-2.667,0-5.334,0-8c3.305-2.029,6.709-3.959,7-9C303.949,469.854,309.031,468.026,312,466z"/>
		<path fill-rule="evenodd" clip-rule="evenodd" fill="#2571AB" d="M405,94c0.24-2.578,1.721,1.373,4,0c2.705-0.898-2.109-2.414-3-3
			c-0.168-2.168,3.547-0.453,5-1c-0.236-2.764-5.641-0.358-5-4c6.652,0.319,8.408-4.258,16-3c1.084-2.687,3.059-4.223,3-6
			c-0.166-5.073-6.789-5.115-8-10c-3.055-0.723-3.645,1.022-6,1c-5.182-6.819-13.812-10.187-23-13c-0.281-1.615,0.945-1.722,1-3
			c-3.074-1.925-8.709-1.29-9-6c-4.688,0.022-9.859,0.526-10-4c0.805,0.529,1.623,1.043,3,1c-1.656-3.343-3.342-6.657-5-10
			c-10.504-1.154-20.107,2.368-32,0c0.65,1.017,2.299,1.034,2,3c-1.758-0.575-5.875,1.208-6-1c-1.357,0.31-0.83,2.504-1,4
			c-2.391-0.609-7.256,1.255-8-1c-1.85,0.15-0.613,3.386-2,4c-8.49-0.158-16.764-0.097-24,1c3.416-2.252,5.579-5.755,8-9
			c-14.109,1.293-23.996,1.137-37,4c-13.867-7.742-20.176,7.047-34,8c0.85,1.483,2.517,2.15,5,2c-6.213,3.12-15.778,2.889-19,9
			c-10.182-2.524-11.508,10.687-21,12c0.015,2.651-0.555,5.888,2,6c-3.506,4.494-7.624,8.376-13,11c-1.425-2.942-5.544-3.784-3-8
			c-4.208,1.125-9.548,1.118-13,3c-3.551-7.501,1.25-8.255,3-15c3.14-0.473,2.642,2.691,5,3c6.914-3.583,12.779-11.861,11-21
			c8.609-5.058,19.095-8.238,22-19c3.434-2.899,7.082-5.585,11-8c-1.064-2.27-6.286-0.381-9-1c86.018-30.792,187.656-3.529,246,35
			c4.629,3.057,9.621,6.015,13,10c-4.795,1.503-7.645-6.807-13-8c0.412,6.599,12.352,10.307,17,16c4.178-0.226,4.723,1.626,8,0
			c12.572,11.095,24.621,22.713,36,35c-3.516,1.813-7.748-4.224-12-5c0.934,4.31,6.873,8.218,7,15c-11.137-5.529-8.746-24.587-21-29
			c-2.99,3.609,0.867,12.465,5,15c-1.242,1.377-2.908,0.573-5-1c1.24,11.005,16.785,15.039,21,27c2.092,5.936-1.062,10.166,3,13
			c-3.475,4.393-10.205,7.676-13,3c-4.467,1.145-1.943,11.945-5,9c5.361,7.112,5.506,14.211,8,23c1.07,3.736-2.482,2.85-2,6
			c-1.842,4.413,3.434,5.39,5,9c1.016,2.342,0.037,5.384,1,8c3.955,10.745,11.848,17.601,7,30c-2.482-0.15-4.15,0.517-5,2
			c-4.75-5.584-9.527-11.14-14-17c0.461-6.421,7.932-9.752,8-16c0.09-8.275-8.723-15.494-19-16c3.445-5.24-3.98-7.018-2-14
			c-5.855-6.616-3.469-16.246-10-21c-0.279-2.279,0.24-3.759,2-4c-6.193-5.479-1.799-17.896-5-26c-2.256-5.711-6.182-8.645-13-10
			c1.277-8.61-6.543-8.124-11-11c-0.586-5.47-6.082-6.541-4-12c-5.32,2.288-6.75-0.798-12-1c1.461,5.206,2.852,10.481,5,15
			c-9.615-0.489-16.562-17.744-25-7c0.738,6.93,5.119,10.215,12,11c3.666,6.524,11.592,12.345,20,11c2.861,4.472,8.105,6.561,13,9
			c-4.648,1.126-10.293-2.092-16,1c-0.021,2.356,1.723,2.944,1,6c-4.543-0.483-10.162-5.134-8-9
			C429.09,110.576,414.893,104.44,405,94z M495,99c-0.578-5.756-5.705-6.962-9-10C487.617,93.715,491.721,95.946,495,99z M430,81
			c2.484,0.15,4.15-0.517,5-2C432.625,78.415,430.346,77.469,430,81z"/>
		<path fill-rule="evenodd" clip-rule="evenodd" fill="#4189C7" d="M486,89c3.295,3.038,8.422,4.244,9,10
			C491.721,95.946,487.617,93.715,486,89z"/>
		<path fill-rule="evenodd" clip-rule="evenodd" fill="#2571AB" d="M289,276c-3.377-5.461,1.225-10.472,4-13
			c-1.209-3.457-2.707-6.626-2-12c7.717-1.596,9.232-16.071,4-22c3.506-3.105,0.899-10.785,2-14c2.334,0,4.667,0,7,0
			c-0.348,5.015,4.48,4.854,7,7c-1.227,8.228,4.965,9.036,8,13c4.898-0.769,5.826-5.506,10-7c5.318,6.015,4.695,17.973,16,18
			c0.473,3.14-2.691,2.642-3,5c7.473-0.183,10.902,0.792,14,3c-1.877,4.79-8.33,5.002-9,11c-1.162-0.163-1.779,0.221-2,1
			c-24.715-3.969-30.955,18.985-42,32c8.328-3.672,17.883-6.118,21-15c4.535,1.798,8.729,3.939,9,10c-3.059,1.274-9.492-0.826-8,5
			c-1.711,0.044-2.59-0.743-3-2c-3.926,6.073-10.611,9.387-11,19c-7.623-0.623-9.883,4.117-13,8c-2.487,0.154-3.096-1.571-5-2
			c0.613,2.393-1.787,5.655-3,9c-4.422-0.244-7.285-2.049-12-2c4.328,5.004,12.636,6.029,13,15c-3.984,2.348-9.014,3.651-13,6
			c1.064,2.27,6.287,0.381,9,1c-7.25,7.465-25.178,13.624-17,30c-2.35,1.175-4.847-7.993-8-10c-8.273,2.756-7.308-3.973-16-3
			c-0.777-0.891-1.075-2.259-1-4c-2.827,1.892-9.544,3.43-12,0c-2.822-0.156-2.506,2.826-4,4c-3.321-2.801-9.938,0.587-12-5
			c-3.604,1.396-10.177-0.178-10,5c-14.728,1.271-11.271,20.729-18,30c2.482,12.518,6.441,23.559,16,29
			c9.261-0.43,10.072,2.213,19,1c2.894-2.773,4.311-7.023,6-11c2.667,0,5.333,0,8,0c-0.4,1.143-2.984,6.619-3,2
			c-3.242,3.424-2.545,10.787-4,16c-2.833,0.166-4.167,1.832-7,2c4.62,11.027,20.771,5.015,31,11c-1.006,4.968-2.991,16.281-4,15
			c-1.759,1.438-2.279,0.917-2-2c-3.711-4.956-8.727-8.607-11-15c-3.15-0.483-2.264,3.068-6,2c-4.102-4.646-9.508-3.568-14-7
			c-5.844-4.467-7.593-16.23-23-13c-11.983-7.684-22.588-16.746-32-27c5.27-16.588-12.63-33.379-12-49
			c-4.668-2.516-6.618-12.467-4-19c-1.893-4.774-6.585-6.749-8-12c-1.23,0.436-2.054,1.279-2,3c-1.946-9.541-0.69-16.969-7-21
			c0.309-6.691-1.205-15.206,3-18c-0.016-2.984-2.6-3.4-3-6c2.225-11.93,9.507-23.616,16-28c5.742,2.258,8.996,7.004,14,10
			c-2.457-4.543-5.163-8.837-8-13c5.022-5.311,6.805-13.862,11-20c0.168-2.168-3.547-0.453-5-1c-1.339-2.661-0.318-7.682-3-9
			c2.847-8.599,2.906-17.921,13-21c-0.847-1.486-3.22-1.447-5-2c3.191-8.32,6.218-19.646,12-28c-2.323-1.932-5.313,3.977-9,4
			c1.49-3.51,2.708-7.292,6-9c-3.179-0.821-5.083-2.917-7-5c0.105-9.314,1.794-9.308,1-17c-2.816-4.001-10.338-2.235-14-3
			c-0.86-0.807-0.594-2.739-2-3c0.916-5.084,3.453-8.547,8-10c1.236-3.236-3.236-0.764-2-4c3.883-3.03,7.428-0.41,10,3
			c3.997-2.306,14.413-1.36,12-7c10.366,0.596,8.656-9.997,20-6c3.895,10.69,4.003,21.568,4,37c6.018-3.242,13.33,0.323,15,7
			c3.399,2.267,6.651,4.683,9,8c-0.677,2.323-3.323,2.677-4,5c4.159,4.508,11.751,5.583,15,11c2.932-0.068,3.714-2.286,5-4
			c4.141,3.859,6.342,9.658,15,9c-0.127,1.793,1.224,2.109,1,4c3.968-2.032,6.968-5.032,9-9c2.661,4.838,6.355,12.921,3,18
			c-1.161,0.839-2.681,1.319-5,1c-7.503,8.83-20.776,11.891-20,29c-0.306,2.306,2.889,1.111,3,3c0.309,3.643-0.159,6.508-1,9
			c0.941,1.835,5.045-1.543,8-1c6.293,4.373,9.423,11.91,19,13c-0.135,3.198,0.986,7.652-3,7
			C277.301,262.365,280.242,272.09,289,276z M213,167c-2.651,0.015-5.888-0.555-6,2c4.865,1.5,5.19,0.098,9,2
			c0.111-1.889,3.306-0.694,3-3c-4.788-0.625-1.425-1.345-1-4C209.616,163.432,208.009,160.317,213,167z M205,194
			c6.11,1.095,14.006-0.472,17-3c-2.79-2.672-4.939,0.937-8,1c-1.595-0.738,0.228-4.895-3-4
			C212.524,193.524,204.563,189.563,205,194z M209,209c4.379-1.365,5.142-0.124,9,1c1.236-3.236-3.236-0.764-2-4
			C213.019,206.352,209.911,206.577,209,209z M225,227c-0.168-2.901,5.772-4.805,3-7C226.512,221.245,223.004,225.581,225,227z
			 M229,262c5.539-0.693,2.813-14.202,2-18c-1,0-2,0-3,0C223.972,251.396,234.397,255.624,229,262z M226,261
			c-0.485-2.276-1.984-5.108,0-7c-4.816-0.86-2.029-4.115-1-7c-1.987-0.013-1.271-2.729-4-2
			C223.837,248.689,221.232,257.202,226,261z M258,292c-1.497,1.837-4.173,2.493-5,5c4.173,1.705-5.775,10.367-1,16
			c3.726,1.059,3.228-2.105,5-3c-1.357-9.024,2.258-13.076,7-16c0.793,2.207,4.701,1.299,5,4c1.755,3.538-3.359,5.152-1,6
			c3.521-4.416,2.2,4.387,5,4c2.383-2.283,1.994-7.34,5-9c0.241,1.759,1.721,2.28,4,2c-0.029-5.276-5.151-6.769-1-11c-5,0-10,0-15,0
			c1.876-7.876-5.231-6.769-5-13c-8.298-2.099-14.88,3.837-20,8c4.409,0.317,8.936,1.183,14-2c-3.735,3.292,0.678,2.017,1,6
			c-2.279,1.373-3.759-2.578-4,0C253.553,290.446,256.667,290.333,258,292z M282,308c4.333,0,8.667,0,13,0
			c-0.547-1.453,1.169-5.169-1-5C292.595,307.261,282.559,302.892,282,308z M268,315c5.372,2.079,14.35-0.104,16-5
			C276.979,309.979,273.06,313.059,268,315z"/>
		<path fill-rule="evenodd" clip-rule="evenodd" fill="#2571AB" d="M344,179c0.24-1.759,1.721-2.279,4-2
			c-0.184-6.917-3.336-12.16-7-16c-0.994-1.042-2.805-0.069-4-1c0.008,0.006-5.391-5.319-6-6c-3.115-3.479-4.967-8.809-8-12
			c-7.318,0.651-9.207-4.126-15-5c6.117-3.405,4.73-8.776,6-16c1.279,1.388,4.721,0.612,6,2c3.055-3.196-1.203-10.346,5-12
			c0,2.333,0,4.667,0,7c1.479,2.055,3.867-3.399,7-3c1.502,1.498,2.992,3.008,4,5c2.422-0.578,2.225-3.776,3-6
			c5.998,4.336,11.791,8.875,16,15c3.652-2.056,4.49,0.449,7,2c-0.318,2.348-1.58,3.753-1,7c-3.93,0.069-7.516,0.484-10,2
			c5.111,1.89,12.031,1.97,18,3c-0.18,6.847,5.617,7.716,7,13c-1.73,1.603-2.93,3.737-4,6c3.715,9.368-0.867,15.419-9,18
			c1.926,3.408,5.426,5.241,8,8c-2.693,7.342,0.314,8.885,3,15C358.158,204.837,352.291,188.045,344,179z"/>
		<path fill-rule="evenodd" clip-rule="evenodd" fill="#4189C7" d="M218,164c-0.425,2.655-3.788,3.375,1,4
			c0.306,2.306-2.889,1.111-3,3c-3.81-1.902-4.135-0.5-9-2c0.112-2.555,3.349-1.985,6-2C208.009,160.317,209.616,163.432,218,164z"
			/>
		<path fill-rule="evenodd" clip-rule="evenodd" fill="#2571AB" d="M307,197c-2.1-0.872,1.449,5.088-1,2
			c-4.117-0.859,3.541-3.569,0-8c2.307,0.306,1.111-2.889,3-3c-0.828-10.505-10.94-11.727-13-21c-4.511,0.612-2.469,5.556-8,3
			c1.865-2.802,5.128-4.206,9-5c1.279,5.721,9.44,4.562,12,9c-0.021,4.688-0.525,9.86,4,10c-0.705,7.807-1.652,13.011,4,16
			C318.373,201.734,309.82,197.585,307,197z"/>
		<path fill-rule="evenodd" clip-rule="evenodd" fill="#4189C7" d="M228,220c2.772,2.195-3.168,4.099-3,7
			C223.004,225.581,226.512,221.245,228,220z"/>
		<path fill-rule="evenodd" clip-rule="evenodd" fill="#4189C7" d="M221,245c2.729-0.729,2.013,1.987,4,2
			c-1.029,2.885-3.816,6.14,1,7c-1.984,1.892-0.485,4.724,0,7C221.232,257.202,223.837,248.689,221,245z"/>
		<path fill-rule="evenodd" clip-rule="evenodd" fill="#4189C7" d="M252,289c0.241-2.578,1.721,1.373,4,0
			c-0.322-3.983-4.735-2.708-1-6c-5.064,3.183-9.591,2.317-14,2c5.12-4.163,11.702-10.099,20-8c-0.231,6.231,6.876,5.124,5,13
			c5,0,10,0,15,0c-4.151,4.231,0.971,5.724,1,11c-2.279,0.28-3.759-0.241-4-2c-3.006,1.66-2.617,6.717-5,9
			c-2.8,0.387-1.479-8.416-5-4c-2.359-0.849,2.755-2.463,1-6c-0.299-2.701-4.207-1.793-5-4c-4.742,2.925-8.357,6.977-7,16
			c-1.772,0.895-1.274,4.059-5,3c-4.775-5.634,5.173-14.296,1-16c0.827-2.507,3.503-3.163,5-5
			C256.667,290.333,253.553,290.446,252,289z M264,289c0.943-2.487-5.723-0.292-2,0C263.635,288.909,266.35,290.665,264,289z"/>
		<path fill-rule="evenodd" clip-rule="evenodd" fill="#2571AB" d="M262,289c-3.723-0.292,2.943-2.487,2,0
			C266.35,290.665,263.635,288.909,262,289z"/>
	</g>
</g>
</svg>
