<?xml version="1.0" encoding="utf-8"?>
<!-- Generator: Adobe Illustrator 15.0.0, SVG Export Plug-In . SVG Version: 6.00 Build 0)  -->
<!DOCTYPE svg PUBLIC "-//W3C//DTD SVG 1.1//EN" "http://www.w3.org/Graphics/SVG/1.1/DTD/svg11.dtd">
<svg version="1.1" id="Layer_1" xmlns="http://www.w3.org/2000/svg" xmlns:xlink="http://www.w3.org/1999/xlink" x="0px" y="0px"
	 width="873px" height="696.013px" viewBox="0 0 873 696.013" enable-background="new 0 0 873 696.013" xml:space="preserve">
<g>
	<path fill="#CCCCCC" d="M584.289,690.482c-0.906-0.406-31.729-5.718-33.729-6.468s-5.083-2.5-6.833-11.167
		s-5.417-17.919-8.917-70.918l-57.321-15.916H436h-41.5l-57.333,15.916c-3.5,52.999-7.167,62.209-8.917,70.876
		s-4.833,10.438-6.833,11.188s-32.823,6.071-33.729,6.478S287,691.924,287,692.924s1,1.089,1,1.089h148h147.977c0,0,1-0.084,1-1.084
		S585.195,690.888,584.289,690.482z"/>
	<path fill="#E6E6E6" d="M584.289,690.482c0.897,0,0.688,2.447,0.688,3.447s-1,2.084-1,2.084H436H288c0,0-1-1.089-1-2.089
		s-0.167-3.453,0.688-3.453L584.289,690.482z"/>
</g>
<g>
	<path fill="#E6E6E6" d="M853.376,602.013c10.616,0,19.226-8.373,19.361-18.957l0.002-564.171
		c-0.115-10.602-8.734-18.872-19.363-18.872h-834C8.675,0.013,0.001,8.48,0.001,19.181c0,0.013,0.002-0.08,0.002-0.067L0,19.013v564
		l0.003-0.164c0.024,10.681,8.687,19.164,19.373,19.164H853.376z"/>
	<path fill="#292929" d="M872.812,520.846l-0.035-502.045C872.662,8.2,864.005,0.013,853.376,0.013h-834
		C8.675,0.013,0.001,8.48,0.001,19.181c0,0.013,0.002-0.08,0.002-0.067L0,19.013v502L872.812,520.846z"/>
	<rect x="32" y="31.013" fill="#333333" width="809" height="458"/>
	<path opacity="0.06" fill="#FFFFFF" d="M873,499.814V45.797V18.885c0,0-0.244-7.711-5.338-12.805
		c-6.655-6.655-14.286-6.066-14.286-6.066H703.258L873,499.814z"/>
</g>
</svg>
