<?xml version="1.0" encoding="utf-8"?>
<!-- Generator: Adobe Illustrator 15.0.0, SVG Export Plug-In . SVG Version: 6.00 Build 0)  -->
<!DOCTYPE svg PUBLIC "-//W3C//DTD SVG 1.1//EN" "http://www.w3.org/Graphics/SVG/1.1/DTD/svg11.dtd">
<svg version="1.1" id="Layer_1" xmlns="http://www.w3.org/2000/svg" xmlns:xlink="http://www.w3.org/1999/xlink" x="0px" y="0px"
	 width="600px" height="600px" viewBox="0 0 600 600" enable-background="new 0 0 600 600" xml:space="preserve">
<path fill="#8D81CD" d="M419,521.699c-44,33.408-99.074,53.244-158.483,53.244c-144.208,0-260.374-116.904-260.374-261.115
	c0-144.215,115.798-261.118,261.798-261.118L419,233.5V521.699z"/>
<path fill="#FFCC66" d="M507.479,146.384C453.781,67.672,363.386,16,260.916,16l1.361,294.545L507.479,146.384z"/>
<path fill="#D66483" d="M465.085,583.503c79.782-61.77,133.747-160.767,133.742-269.476c0-70.127-21.375-135.257-57.962-189.239
	L262.277,310.545L465.085,583.503z"/>
<path fill="#F9B13D" d="M262.277,310.545l238.349-173.78c0,0,4.557,5.509,7.28,10L262.277,310.545z"/>
<path fill="#706AA5" d="M262.277,310.545l-10.47-257.649c0,0,5.363-0.266,9.278-0.198L262.277,310.545z"/>
<path fill="#7371AA" d="M262.277,310.545l135.944,225.407c0,0,16.154-10.622,20.779-14.475L262.277,310.545z"/>
</svg>
