<?xml version="1.0" encoding="utf-8"?>
<!-- Generator: Adobe Illustrator 15.0.0, SVG Export Plug-In . SVG Version: 6.00 Build 0)  -->
<!DOCTYPE svg PUBLIC "-//W3C//DTD SVG 1.1//EN" "http://www.w3.org/Graphics/SVG/1.1/DTD/svg11.dtd">
<svg version="1.1" id="Layer_1" xmlns="http://www.w3.org/2000/svg" xmlns:xlink="http://www.w3.org/1999/xlink" x="0px" y="0px"
	 width="430px" height="337px" viewBox="0 0 430 337" enable-background="new 0 0 430 337" xml:space="preserve">
<rect x="49" y="5" opacity="0.06" width="362" height="42"/>
<rect x="49" y="185" opacity="0.06" width="362" height="42"/>
<rect x="49" y="240" opacity="0.06" width="362" height="42"/>
<rect x="49" y="295" opacity="0.06" width="362" height="42"/>
<g>
	<rect x="46" y="2" fill="#FFFFFF" width="358" height="38"/>
	<path fill="#CCCCCC" d="M44,0v42h362V0H44z M404,40H46V2h358V40z"/>
</g>
<g>
	<rect x="46" y="182" fill="#FFFFFF" width="358" height="38"/>
	<path fill="#CCCCCC" d="M44,180v42h362v-42H44z M404,220H46v-38h358V220z"/>
</g>
<g>
	<rect x="46" y="237" fill="#FFFFFF" width="358" height="38"/>
	<path fill="#CCCCCC" d="M44,235v42h362v-42H44z M404,275H46v-38h358V275z"/>
</g>
<g>
	<rect x="46" y="292" fill="#FFFFFF" width="358" height="38"/>
	<path fill="#CCCCCC" d="M44,290v42h362v-42H44z M404,330H46v-38h358V330z"/>
</g>
<rect x="8" y="71" opacity="0.06" width="422" height="93"/>
<g>
	<rect x="2" y="65" fill="#FFFFFF" width="418" height="89"/>
	<path fill="#CCCCCC" d="M0,63v93h422V63H0z M420,154H2V65h418V154z"/>
</g>
<g>
	<path fill="#B3B3B3" d="M65.003,17.876c-0.797,0-1.415,0.3-1.853,0.899s-0.656,1.435-0.656,2.505c0,2.229,0.836,3.343,2.509,3.343
		c0.702,0,1.552-0.175,2.55-0.526v1.777c-0.82,0.342-1.736,0.513-2.748,0.513c-1.454,0-2.566-0.441-3.336-1.323
		s-1.155-2.147-1.155-3.797c0-1.039,0.189-1.949,0.567-2.731s0.922-1.381,1.63-1.798s1.539-0.625,2.492-0.625
		c0.971,0,1.946,0.235,2.926,0.704l-0.684,1.723c-0.374-0.178-0.75-0.333-1.128-0.465S65.368,17.876,65.003,17.876z"/>
	<path fill="#B3B3B3" d="M69.426,16.632c0-0.679,0.378-1.019,1.135-1.019s1.135,0.339,1.135,1.019c0,0.324-0.095,0.575-0.284,0.755
		s-0.473,0.27-0.851,0.27C69.804,17.657,69.426,17.315,69.426,16.632z M71.6,26.25h-2.085v-7.643H71.6V26.25z"/>
	<path fill="#B3B3B3" d="M80.842,26.25h-2.085v-4.464c0-0.551-0.098-0.965-0.294-1.241s-0.508-0.414-0.937-0.414
		c-0.583,0-1.005,0.195-1.265,0.584s-0.39,1.036-0.39,1.938v3.596h-2.085v-7.643h1.593l0.28,0.978h0.116
		c0.232-0.369,0.553-0.648,0.96-0.837s0.872-0.284,1.391-0.284c0.889,0,1.563,0.24,2.023,0.721s0.69,1.175,0.69,2.082V26.25z"/>
	<path fill="#B3B3B3" d="M86.092,26.387c-2.379,0-3.568-1.306-3.568-3.917c0-1.299,0.324-2.291,0.971-2.977s1.575-1.029,2.782-1.029
		c0.884,0,1.677,0.173,2.379,0.52l-0.615,1.613c-0.328-0.132-0.633-0.24-0.916-0.325s-0.565-0.126-0.848-0.126
		c-1.084,0-1.627,0.77-1.627,2.311c0,1.495,0.542,2.242,1.627,2.242c0.401,0,0.772-0.054,1.114-0.161s0.684-0.274,1.025-0.502v1.784
		c-0.337,0.214-0.678,0.362-1.022,0.444S86.616,26.387,86.092,26.387z"/>
	<path fill="#B3B3B3" d="M90.098,16.632c0-0.679,0.378-1.019,1.135-1.019s1.135,0.339,1.135,1.019c0,0.324-0.095,0.575-0.284,0.755
		s-0.473,0.27-0.851,0.27C90.476,17.657,90.098,17.315,90.098,16.632z M92.271,26.25h-2.085v-7.643h2.085V26.25z"/>
	<path fill="#B3B3B3" d="M101.514,26.25h-2.085v-4.464c0-0.551-0.098-0.965-0.294-1.241s-0.508-0.414-0.937-0.414
		c-0.583,0-1.005,0.195-1.265,0.584s-0.39,1.036-0.39,1.938v3.596h-2.085v-7.643h1.593l0.28,0.978h0.116
		c0.232-0.369,0.553-0.648,0.96-0.837s0.872-0.284,1.391-0.284c0.889,0,1.563,0.24,2.023,0.721s0.69,1.175,0.69,2.082V26.25z"/>
	<path fill="#B3B3B3" d="M110.715,26.25h-2.085v-4.464c0-0.551-0.098-0.965-0.294-1.241s-0.508-0.414-0.937-0.414
		c-0.583,0-1.005,0.195-1.265,0.584s-0.39,1.036-0.39,1.938v3.596h-2.085v-7.643h1.593l0.28,0.978h0.116
		c0.232-0.369,0.553-0.648,0.96-0.837s0.872-0.284,1.391-0.284c0.889,0,1.563,0.24,2.023,0.721s0.69,1.175,0.69,2.082V26.25z"/>
	<path fill="#B3B3B3" d="M117.715,26.25l-0.403-1.039h-0.055c-0.351,0.442-0.712,0.749-1.083,0.919s-0.855,0.256-1.453,0.256
		c-0.734,0-1.312-0.209-1.733-0.629s-0.632-1.016-0.632-1.791c0-0.811,0.284-1.409,0.851-1.794s1.423-0.598,2.567-0.639l1.326-0.041
		v-0.335c0-0.775-0.396-1.162-1.189-1.162c-0.611,0-1.329,0.185-2.153,0.554l-0.69-1.408c0.879-0.46,1.855-0.69,2.926-0.69
		c1.025,0,1.812,0.223,2.358,0.67s0.82,1.125,0.82,2.037v5.093H117.715z M117.1,22.709l-0.807,0.027
		c-0.606,0.018-1.057,0.127-1.354,0.328s-0.444,0.506-0.444,0.916c0,0.588,0.337,0.882,1.012,0.882c0.483,0,0.869-0.139,1.159-0.417
		s0.434-0.647,0.434-1.107V22.709z"/>
	<path fill="#B3B3B3" d="M124.537,24.726c0.365,0,0.802-0.08,1.312-0.239v1.552c-0.52,0.232-1.158,0.349-1.914,0.349
		c-0.834,0-1.441-0.211-1.822-0.632s-0.571-1.054-0.571-1.897v-3.685h-0.998v-0.882l1.148-0.697l0.602-1.613h1.333v1.627h2.14v1.565
		h-2.14v3.685c0,0.296,0.083,0.515,0.25,0.656S124.264,24.726,124.537,24.726z"/>
	<path fill="#B3B3B3" d="M127.306,16.632c0-0.679,0.378-1.019,1.135-1.019s1.135,0.339,1.135,1.019c0,0.324-0.095,0.575-0.284,0.755
		s-0.473,0.27-0.851,0.27C127.684,17.657,127.306,17.315,127.306,16.632z M129.479,26.25h-2.085v-7.643h2.085V26.25z"/>
	<path fill="#B3B3B3" d="M141.367,23.475c0,0.902-0.325,1.613-0.974,2.133s-1.553,0.779-2.71,0.779c-1.066,0-2.01-0.201-2.83-0.602
		v-1.969c0.674,0.301,1.245,0.513,1.712,0.636s0.895,0.185,1.282,0.185c0.465,0,0.821-0.089,1.07-0.267s0.373-0.442,0.373-0.793
		c0-0.196-0.055-0.37-0.164-0.523s-0.27-0.3-0.482-0.441s-0.644-0.367-1.295-0.677c-0.611-0.287-1.069-0.563-1.374-0.827
		s-0.549-0.572-0.731-0.923s-0.273-0.761-0.273-1.23c0-0.884,0.3-1.579,0.899-2.085s1.428-0.759,2.485-0.759
		c0.52,0,1.015,0.062,1.487,0.185s0.965,0.296,1.48,0.52l-0.684,1.647c-0.533-0.219-0.974-0.372-1.323-0.458s-0.691-0.13-1.029-0.13
		c-0.401,0-0.708,0.093-0.923,0.28s-0.321,0.431-0.321,0.731c0,0.187,0.043,0.35,0.13,0.489s0.225,0.273,0.414,0.403
		s0.637,0.363,1.343,0.701c0.934,0.447,1.575,0.895,1.921,1.343S141.367,22.823,141.367,23.475z"/>
	<path fill="#B3B3B3" d="M146.234,24.726c0.365,0,0.802-0.08,1.312-0.239v1.552c-0.52,0.232-1.158,0.349-1.914,0.349
		c-0.834,0-1.441-0.211-1.822-0.632s-0.571-1.054-0.571-1.897v-3.685h-0.998v-0.882l1.148-0.697l0.602-1.613h1.333v1.627h2.14v1.565
		h-2.14v3.685c0,0.296,0.083,0.515,0.25,0.656S145.961,24.726,146.234,24.726z"/>
	<path fill="#B3B3B3" d="M156.037,22.415c0,1.244-0.328,2.217-0.984,2.919s-1.57,1.053-2.741,1.053
		c-0.734,0-1.381-0.161-1.941-0.482s-0.991-0.783-1.292-1.384s-0.451-1.303-0.451-2.105c0-1.249,0.326-2.219,0.978-2.912
		s1.568-1.039,2.748-1.039c0.734,0,1.381,0.16,1.941,0.479s0.991,0.777,1.292,1.374S156.037,21.613,156.037,22.415z M150.753,22.415
		c0,0.756,0.124,1.329,0.373,1.716s0.653,0.581,1.213,0.581c0.556,0,0.956-0.192,1.2-0.578s0.366-0.958,0.366-1.719
		c0-0.756-0.123-1.324-0.369-1.702s-0.649-0.567-1.21-0.567c-0.556,0-0.957,0.188-1.203,0.564S150.753,21.654,150.753,22.415z"/>
	<path fill="#B3B3B3" d="M162.025,18.464c0.283,0,0.517,0.021,0.704,0.062l-0.157,1.955c-0.168-0.045-0.374-0.068-0.615-0.068
		c-0.666,0-1.184,0.171-1.555,0.513s-0.557,0.82-0.557,1.436v3.89h-2.085v-7.643h1.579l0.308,1.285h0.103
		c0.237-0.428,0.557-0.773,0.96-1.036S161.551,18.464,162.025,18.464z"/>
	<path fill="#B3B3B3" d="M167.576,26.387c-1.23,0-2.192-0.339-2.885-1.019s-1.039-1.641-1.039-2.885c0-1.281,0.32-2.271,0.96-2.97
		s1.525-1.049,2.656-1.049c1.08,0,1.921,0.308,2.522,0.923s0.902,1.465,0.902,2.55v1.012h-4.929
		c0.023,0.592,0.198,1.055,0.526,1.388s0.789,0.499,1.381,0.499c0.46,0,0.896-0.048,1.306-0.144s0.838-0.249,1.285-0.458v1.613
		c-0.365,0.182-0.754,0.318-1.169,0.407S168.173,26.387,167.576,26.387z M167.282,19.947c-0.442,0-0.789,0.14-1.039,0.42
		s-0.394,0.678-0.431,1.193h2.926c-0.009-0.515-0.144-0.913-0.403-1.193S167.724,19.947,167.282,19.947z"/>
</g>
<g>
	<path fill="#B3B3B3" d="M260.664,24.982h-0.869v-5.597c0-0.465,0.014-0.905,0.043-1.321c-0.076,0.075-0.16,0.154-0.253,0.236
		c-0.093,0.083-0.519,0.432-1.278,1.048l-0.473-0.612l2.078-1.606h0.752V24.982z"/>
	<path fill="#B3B3B3" d="M269.184,23.178h-1.166v1.805h-0.854v-1.805h-3.819v-0.778l3.728-5.312h0.945v5.28h1.166V23.178z
		 M267.164,22.367v-2.61c0-0.513,0.018-1.091,0.053-1.735h-0.043c-0.172,0.344-0.332,0.629-0.482,0.854l-2.455,3.491H267.164z"/>
	<path fill="#B3B3B3" d="M273.244,24.982h-0.871v-5.597c0-0.465,0.015-0.905,0.043-1.321c-0.074,0.075-0.158,0.154-0.252,0.236
		c-0.094,0.083-0.52,0.432-1.278,1.048l-0.473-0.612l2.079-1.606h0.752V24.982z"/>
	<path fill="#B3B3B3" d="M279.533,24.982h-0.87v-5.597c0-0.465,0.015-0.905,0.043-1.321c-0.075,0.075-0.159,0.154-0.253,0.236
		c-0.093,0.083-0.519,0.432-1.277,1.048l-0.473-0.612l2.078-1.606h0.752V24.982z"/>
	<path fill="#B3B3B3" d="M290.404,17.13h0.982l-2.83,7.853h-0.902l-2.814-7.853h0.967l1.805,5.081
		c0.207,0.584,0.373,1.151,0.494,1.703c0.129-0.58,0.297-1.158,0.505-1.735L290.404,17.13z"/>
	<path fill="#B3B3B3" d="M292.258,17.501c0-0.204,0.05-0.354,0.15-0.449c0.1-0.095,0.225-0.142,0.375-0.142
		c0.144,0,0.268,0.048,0.371,0.145s0.156,0.245,0.156,0.446c0,0.2-0.053,0.35-0.156,0.448s-0.228,0.147-0.371,0.147
		c-0.15,0-0.275-0.049-0.375-0.147C292.308,17.851,292.258,17.701,292.258,17.501z M293.225,24.982h-0.893v-5.887h0.893V24.982z"/>
	<path fill="#B3B3B3" d="M299.143,24.982v-3.808c0-0.48-0.109-0.838-0.327-1.074s-0.561-0.354-1.026-0.354
		c-0.615,0-1.066,0.166-1.354,0.499c-0.286,0.333-0.43,0.883-0.43,1.649v3.088h-0.891v-5.887h0.725l0.145,0.806h0.043
		c0.184-0.29,0.439-0.515,0.769-0.674s0.696-0.239,1.101-0.239c0.709,0,1.243,0.171,1.602,0.513c0.357,0.343,0.537,0.89,0.537,1.642
		v3.84H299.143z"/>
	<path fill="#B3B3B3" d="M304.354,25.09c-0.871,0-1.557-0.265-2.061-0.795c-0.503-0.529-0.754-1.266-0.754-2.207
		c0-0.949,0.233-1.703,0.7-2.262c0.468-0.559,1.095-0.838,1.883-0.838c0.737,0,1.321,0.243,1.751,0.728
		c0.43,0.485,0.645,1.126,0.645,1.921V22.2h-4.055c0.018,0.691,0.191,1.216,0.523,1.574c0.331,0.357,0.797,0.537,1.398,0.537
		c0.635,0,1.261-0.133,1.881-0.397v0.795c-0.315,0.136-0.613,0.233-0.895,0.292C305.09,25.061,304.75,25.09,304.354,25.09z
		 M304.111,19.735c-0.473,0-0.85,0.153-1.131,0.462c-0.281,0.308-0.446,0.733-0.496,1.278h3.077c0-0.562-0.126-0.993-0.376-1.292
		S304.576,19.735,304.111,19.735z"/>
	<path fill="#B3B3B3" d="M315.461,22.894c0,0.69-0.251,1.229-0.752,1.616c-0.502,0.387-1.182,0.58-2.041,0.58
		c-0.932,0-1.647-0.12-2.148-0.359V23.85c0.322,0.136,0.673,0.243,1.053,0.322c0.379,0.078,0.755,0.118,1.127,0.118
		c0.609,0,1.067-0.116,1.375-0.347c0.309-0.231,0.463-0.553,0.463-0.964c0-0.272-0.055-0.495-0.164-0.669s-0.292-0.334-0.549-0.48
		c-0.256-0.147-0.645-0.313-1.168-0.5c-0.73-0.261-1.252-0.571-1.564-0.929c-0.314-0.358-0.471-0.825-0.471-1.402
		c0-0.604,0.228-1.087,0.682-1.444c0.455-0.358,1.057-0.537,1.805-0.537c0.781,0,1.499,0.143,2.154,0.43l-0.285,0.795
		c-0.647-0.272-1.277-0.408-1.891-0.408c-0.482,0-0.861,0.104-1.133,0.312c-0.271,0.207-0.408,0.496-0.408,0.864
		c0,0.272,0.051,0.495,0.15,0.669s0.27,0.333,0.508,0.478c0.238,0.146,0.602,0.306,1.093,0.481c0.823,0.293,1.39,0.608,1.7,0.945
		C315.306,21.919,315.461,22.356,315.461,22.894z"/>
	<path fill="#B3B3B3" d="M318.834,24.354c0.157,0,0.309-0.012,0.456-0.035s0.263-0.048,0.349-0.072v0.682
		c-0.096,0.047-0.238,0.085-0.426,0.115c-0.189,0.031-0.357,0.046-0.508,0.046c-1.139,0-1.709-0.6-1.709-1.799v-3.502h-0.843v-0.43
		l0.843-0.371l0.377-1.257h0.516v1.364h1.707v0.693h-1.707v3.464c0,0.354,0.084,0.627,0.252,0.816
		C318.309,24.26,318.54,24.354,318.834,24.354z"/>
</g>
<g>
	<path fill="#666666" d="M24.575,84.288c-1.025,0-1.819,0.385-2.382,1.156s-0.844,1.844-0.844,3.221
		c0,2.865,1.075,4.298,3.226,4.298c0.902,0,1.995-0.226,3.278-0.677v2.285c-1.055,0.439-2.232,0.659-3.533,0.659
		c-1.869,0-3.299-0.567-4.289-1.701s-1.485-2.761-1.485-4.882c0-1.336,0.243-2.506,0.729-3.511s1.185-1.775,2.096-2.312
		s1.979-0.804,3.204-0.804c1.248,0,2.502,0.302,3.762,0.905l-0.879,2.215c-0.48-0.229-0.964-0.428-1.45-0.598
		S25.044,84.288,24.575,84.288z"/>
	<path fill="#666666" d="M39.446,95.055h-2.681v-5.739c0-1.418-0.527-2.127-1.582-2.127c-0.75,0-1.292,0.255-1.626,0.765
		s-0.501,1.336-0.501,2.479v4.623h-2.681V81.379h2.681v2.786c0,0.217-0.021,0.727-0.062,1.529l-0.062,0.791h0.141
		c0.598-0.961,1.547-1.441,2.848-1.441c1.154,0,2.03,0.311,2.628,0.932s0.896,1.512,0.896,2.672V95.055z"/>
	<path fill="#666666" d="M42.092,82.688c0-0.873,0.486-1.31,1.459-1.31s1.459,0.437,1.459,1.31c0,0.416-0.122,0.74-0.365,0.971
		s-0.608,0.347-1.094,0.347C42.578,84.007,42.092,83.567,42.092,82.688z M44.887,95.055h-2.681v-9.826h2.681V95.055z"/>
	<path fill="#666666" d="M51.689,95.23c-3.059,0-4.588-1.679-4.588-5.036c0-1.67,0.416-2.946,1.248-3.828s2.024-1.323,3.577-1.323
		c1.137,0,2.156,0.223,3.059,0.668l-0.791,2.074c-0.422-0.17-0.814-0.309-1.178-0.417s-0.727-0.163-1.09-0.163
		c-1.395,0-2.092,0.99-2.092,2.971c0,1.922,0.697,2.883,2.092,2.883c0.516,0,0.993-0.069,1.433-0.207s0.879-0.353,1.318-0.646v2.294
		c-0.434,0.275-0.872,0.466-1.314,0.571S52.363,95.23,51.689,95.23z"/>
	<path fill="#666666" d="M63.194,95.055l-0.519-1.336h-0.07c-0.451,0.568-0.916,0.962-1.393,1.182s-1.1,0.33-1.868,0.33
		c-0.943,0-1.686-0.27-2.228-0.809s-0.813-1.307-0.813-2.303c0-1.043,0.365-1.812,1.094-2.307s1.83-0.769,3.3-0.822l1.705-0.053
		v-0.431c0-0.996-0.51-1.494-1.529-1.494c-0.785,0-1.708,0.237-2.769,0.712l-0.888-1.811c1.131-0.592,2.385-0.888,3.762-0.888
		c1.318,0,2.329,0.287,3.032,0.861s1.055,1.447,1.055,2.619v6.548H63.194z M62.403,90.502l-1.037,0.035
		c-0.779,0.023-1.359,0.164-1.74,0.422s-0.571,0.65-0.571,1.178c0,0.756,0.434,1.134,1.301,1.134c0.621,0,1.118-0.179,1.49-0.536
		s0.558-0.832,0.558-1.424V90.502z"/>
	<path fill="#666666" d="M76.378,85.229v1.362l-1.538,0.396c0.281,0.439,0.422,0.932,0.422,1.477c0,1.055-0.368,1.876-1.103,2.465
		s-1.756,0.883-3.063,0.883l-0.483-0.026l-0.396-0.044c-0.275,0.211-0.413,0.445-0.413,0.703c0,0.387,0.492,0.58,1.477,0.58h1.67
		c1.078,0,1.9,0.231,2.465,0.694s0.848,1.143,0.848,2.039c0,1.148-0.479,2.039-1.437,2.672s-2.333,0.949-4.126,0.949
		c-1.371,0-2.418-0.239-3.142-0.716s-1.085-1.147-1.085-2.008c0-0.592,0.185-1.087,0.554-1.485s0.911-0.683,1.626-0.853
		c-0.275-0.117-0.516-0.309-0.721-0.576s-0.308-0.549-0.308-0.848c0-0.375,0.108-0.687,0.325-0.936s0.53-0.494,0.94-0.734
		c-0.516-0.223-0.924-0.58-1.226-1.072s-0.453-1.072-0.453-1.74c0-1.072,0.349-1.901,1.046-2.487s1.693-0.879,2.988-0.879
		c0.275,0,0.602,0.025,0.98,0.075s0.62,0.086,0.725,0.11H76.378z M68.793,96.443c0,0.369,0.177,0.659,0.532,0.87
		s0.851,0.316,1.49,0.316c0.961,0,1.714-0.132,2.259-0.396s0.817-0.624,0.817-1.081c0-0.369-0.161-0.624-0.483-0.765
		s-0.82-0.211-1.494-0.211h-1.389c-0.492,0-0.904,0.116-1.235,0.347S68.793,96.062,68.793,96.443z M69.769,88.445
		c0,0.533,0.122,0.955,0.365,1.266s0.614,0.466,1.112,0.466c0.504,0,0.873-0.155,1.107-0.466s0.352-0.732,0.352-1.266
		c0-1.184-0.486-1.775-1.459-1.775C70.261,86.67,69.769,87.262,69.769,88.445z"/>
	<path fill="#666666" d="M86.925,90.124c0,1.6-0.422,2.851-1.266,3.753s-2.019,1.354-3.524,1.354c-0.943,0-1.775-0.207-2.496-0.62
		s-1.274-1.006-1.661-1.78s-0.58-1.676-0.58-2.707c0-1.605,0.419-2.854,1.257-3.744s2.016-1.336,3.533-1.336
		c0.943,0,1.775,0.205,2.496,0.615s1.274,0.999,1.661,1.767S86.925,89.093,86.925,90.124z M80.131,90.124
		c0,0.973,0.16,1.708,0.479,2.206s0.839,0.747,1.56,0.747c0.715,0,1.229-0.248,1.542-0.743s0.47-1.232,0.47-2.21
		c0-0.973-0.158-1.702-0.475-2.188s-0.835-0.729-1.556-0.729c-0.715,0-1.23,0.242-1.547,0.725S80.131,89.146,80.131,90.124z"/>
	<path fill="#666666" d="M101.611,91.486c0,1.16-0.417,2.074-1.252,2.742s-1.997,1.002-3.485,1.002
		c-1.371,0-2.584-0.258-3.639-0.773v-2.531c0.867,0.387,1.601,0.659,2.202,0.817s1.15,0.237,1.648,0.237
		c0.598,0,1.056-0.114,1.375-0.343s0.479-0.568,0.479-1.02c0-0.252-0.07-0.476-0.211-0.672s-0.347-0.385-0.62-0.567
		s-0.828-0.472-1.666-0.87c-0.785-0.369-1.374-0.724-1.767-1.063s-0.706-0.735-0.94-1.187s-0.352-0.979-0.352-1.582
		c0-1.137,0.385-2.03,1.156-2.681s1.835-0.976,3.195-0.976c0.668,0,1.305,0.079,1.912,0.237s1.241,0.381,1.903,0.668l-0.879,2.118
		c-0.686-0.281-1.252-0.478-1.701-0.589s-0.889-0.167-1.323-0.167c-0.516,0-0.911,0.12-1.187,0.36s-0.413,0.554-0.413,0.94
		c0,0.24,0.056,0.45,0.167,0.628s0.289,0.352,0.532,0.519s0.819,0.467,1.727,0.901c1.201,0.574,2.024,1.15,2.47,1.727
		S101.611,90.648,101.611,91.486z"/>
	<path fill="#666666" d="M107.869,93.095c0.469,0,1.031-0.103,1.688-0.308v1.995c-0.668,0.299-1.488,0.448-2.461,0.448
		c-1.072,0-1.853-0.271-2.342-0.813s-0.734-1.355-0.734-2.439v-4.737h-1.283v-1.134l1.477-0.896l0.773-2.074h1.714v2.092h2.751
		v2.013H106.7v4.737c0,0.381,0.107,0.662,0.321,0.844S107.518,93.095,107.869,93.095z"/>
	<path fill="#666666" d="M120.473,90.124c0,1.6-0.422,2.851-1.266,3.753s-2.019,1.354-3.524,1.354c-0.943,0-1.775-0.207-2.496-0.62
		s-1.274-1.006-1.661-1.78s-0.58-1.676-0.58-2.707c0-1.605,0.419-2.854,1.257-3.744s2.016-1.336,3.533-1.336
		c0.943,0,1.775,0.205,2.496,0.615s1.274,0.999,1.661,1.767S120.473,89.093,120.473,90.124z M113.679,90.124
		c0,0.973,0.16,1.708,0.479,2.206s0.839,0.747,1.56,0.747c0.715,0,1.229-0.248,1.542-0.743s0.47-1.232,0.47-2.21
		c0-0.973-0.158-1.702-0.475-2.188s-0.835-0.729-1.556-0.729c-0.715,0-1.23,0.242-1.547,0.725S113.679,89.146,113.679,90.124z"/>
	<path fill="#666666" d="M128.172,85.044c0.363,0,0.665,0.026,0.905,0.079l-0.202,2.514c-0.217-0.059-0.48-0.088-0.791-0.088
		c-0.855,0-1.522,0.22-2,0.659s-0.716,1.055-0.716,1.846v5.001h-2.681v-9.826h2.03l0.396,1.652h0.132
		c0.305-0.551,0.716-0.995,1.235-1.332S127.562,85.044,128.172,85.044z"/>
	<path fill="#666666" d="M135.309,95.23c-1.582,0-2.818-0.437-3.709-1.31s-1.336-2.109-1.336-3.709c0-1.646,0.412-2.919,1.235-3.819
		s1.961-1.349,3.415-1.349c1.389,0,2.47,0.396,3.243,1.187s1.16,1.884,1.16,3.278v1.301h-6.337c0.029,0.762,0.255,1.356,0.677,1.784
		s1.014,0.642,1.775,0.642c0.592,0,1.151-0.062,1.679-0.185s1.078-0.319,1.652-0.589v2.074c-0.469,0.234-0.97,0.409-1.503,0.523
		S136.076,95.23,135.309,95.23z M134.931,86.951c-0.568,0-1.014,0.18-1.336,0.541s-0.507,0.872-0.554,1.534h3.762
		c-0.012-0.662-0.185-1.173-0.519-1.534S135.499,86.951,134.931,86.951z"/>
</g>
<g>
	<path fill="#4D4D4D" d="M271.255,94.879h-0.949v-6.105c0-0.508,0.016-0.988,0.047-1.441c-0.082,0.082-0.174,0.168-0.275,0.258
		s-0.566,0.471-1.395,1.143l-0.516-0.668l2.268-1.752h0.82V94.879z"/>
	<path fill="#4D4D4D" d="M278.116,94.879h-0.949v-6.105c0-0.508,0.016-0.988,0.047-1.441c-0.082,0.082-0.174,0.168-0.275,0.258
		s-0.566,0.471-1.395,1.143l-0.516-0.668l2.268-1.752h0.82V94.879z"/>
	<path fill="#4D4D4D" d="M281.474,91.217c0-1.684,0.327-2.942,0.981-3.776s1.622-1.251,2.903-1.251c0.441,0,0.789,0.037,1.043,0.111
		v0.838c-0.301-0.098-0.645-0.146-1.031-0.146c-0.918,0-1.619,0.286-2.104,0.858s-0.75,1.472-0.797,2.698h0.07
		c0.43-0.672,1.109-1.008,2.039-1.008c0.77,0,1.376,0.232,1.819,0.697s0.665,1.096,0.665,1.893c0,0.891-0.243,1.591-0.729,2.101
		s-1.144,0.765-1.972,0.765c-0.887,0-1.59-0.333-2.109-0.999S281.474,92.404,281.474,91.217z M284.351,94.17
		c0.555,0,0.985-0.175,1.292-0.524s0.46-0.854,0.46-1.515c0-0.566-0.143-1.012-0.428-1.336s-0.711-0.486-1.277-0.486
		c-0.352,0-0.674,0.072-0.967,0.217s-0.526,0.344-0.7,0.598s-0.261,0.518-0.261,0.791c0,0.402,0.078,0.777,0.234,1.125
		s0.378,0.623,0.665,0.826S283.983,94.17,284.351,94.17z"/>
	<path fill="#4D4D4D" d="M299.421,94.879h-0.984l-1.729-5.736c-0.082-0.254-0.174-0.574-0.275-0.961s-0.154-0.619-0.158-0.697
		c-0.086,0.516-0.223,1.08-0.41,1.693l-1.676,5.701h-0.984l-2.279-8.566h1.055l1.354,5.291c0.188,0.742,0.324,1.414,0.41,2.016
		c0.105-0.715,0.262-1.414,0.469-2.098l1.535-5.209h1.055l1.611,5.256c0.188,0.605,0.346,1.289,0.475,2.051
		c0.074-0.555,0.215-1.23,0.422-2.027l1.348-5.279h1.055L299.421,94.879z"/>
	<path fill="#4D4D4D" d="M306.171,94.879v-8.566h0.996v8.566H306.171z"/>
	<path fill="#4D4D4D" d="M310.343,94.879h-0.973v-9.117h0.973V94.879z"/>
	<path fill="#4D4D4D" d="M313.378,94.879h-0.973v-9.117h0.973V94.879z"/>
	<path fill="#4D4D4D" d="M315.358,86.717c0-0.223,0.055-0.386,0.164-0.489s0.246-0.155,0.41-0.155c0.156,0,0.291,0.053,0.404,0.158
		s0.17,0.268,0.17,0.486s-0.057,0.382-0.17,0.489s-0.248,0.161-0.404,0.161c-0.164,0-0.301-0.054-0.41-0.161
		S315.358,86.936,315.358,86.717z M316.413,94.879h-0.973v-6.422h0.973V94.879z"/>
	<path fill="#4D4D4D" d="M322.87,94.879v-4.154c0-0.523-0.119-0.914-0.357-1.172s-0.611-0.387-1.119-0.387
		c-0.672,0-1.164,0.182-1.477,0.545s-0.469,0.963-0.469,1.799v3.369h-0.973v-6.422h0.791l0.158,0.879h0.047
		c0.199-0.316,0.479-0.562,0.838-0.735s0.76-0.261,1.201-0.261c0.773,0,1.355,0.187,1.746,0.56s0.586,0.97,0.586,1.79v4.189H322.87z
		"/>
	<path fill="#4D4D4D" d="M331.384,91.662c0,1.047-0.264,1.864-0.791,2.452s-1.256,0.882-2.186,0.882
		c-0.574,0-1.084-0.135-1.529-0.404s-0.789-0.656-1.031-1.16s-0.363-1.094-0.363-1.77c0-1.047,0.262-1.862,0.785-2.446
		s1.25-0.876,2.18-0.876c0.898,0,1.612,0.299,2.142,0.896S331.384,90.643,331.384,91.662z M326.491,91.662
		c0,0.82,0.164,1.445,0.492,1.875s0.811,0.645,1.447,0.645s1.12-0.214,1.45-0.642s0.495-1.054,0.495-1.878
		c0-0.816-0.165-1.437-0.495-1.86s-0.817-0.636-1.462-0.636c-0.637,0-1.117,0.209-1.441,0.627S326.491,90.834,326.491,91.662z"/>
	<path fill="#4D4D4D" d="M333.007,86.717c0-0.223,0.055-0.386,0.164-0.489s0.246-0.155,0.41-0.155c0.156,0,0.291,0.053,0.404,0.158
		s0.17,0.268,0.17,0.486s-0.057,0.382-0.17,0.489s-0.248,0.161-0.404,0.161c-0.164,0-0.301-0.054-0.41-0.161
		S333.007,86.936,333.007,86.717z M334.062,94.879h-0.973v-6.422h0.973V94.879z"/>
	<path fill="#4D4D4D" d="M340.267,93.127c0,0.598-0.223,1.059-0.668,1.383s-1.07,0.486-1.875,0.486
		c-0.852,0-1.516-0.135-1.992-0.404v-0.902c0.309,0.156,0.64,0.279,0.993,0.369s0.694,0.135,1.022,0.135
		c0.508,0,0.898-0.081,1.172-0.243s0.41-0.409,0.41-0.741c0-0.25-0.108-0.464-0.325-0.642s-0.64-0.388-1.269-0.63
		c-0.598-0.223-1.022-0.417-1.274-0.583s-0.439-0.354-0.562-0.565s-0.185-0.463-0.185-0.756c0-0.523,0.213-0.937,0.639-1.239
		s1.01-0.454,1.752-0.454c0.691,0,1.367,0.141,2.027,0.422l-0.346,0.791c-0.645-0.266-1.229-0.398-1.752-0.398
		c-0.461,0-0.809,0.072-1.043,0.217s-0.352,0.344-0.352,0.598c0,0.172,0.044,0.318,0.132,0.439s0.229,0.236,0.425,0.346
		s0.57,0.268,1.125,0.475c0.762,0.277,1.276,0.557,1.544,0.838S340.267,92.701,340.267,93.127z"/>
	<path fill="#4D4D4D" d="M349.946,92.6c0,0.754-0.273,1.342-0.82,1.764s-1.289,0.633-2.227,0.633c-1.016,0-1.797-0.131-2.344-0.393
		v-0.961c0.352,0.148,0.734,0.266,1.148,0.352s0.824,0.129,1.23,0.129c0.664,0,1.164-0.126,1.5-0.378s0.504-0.603,0.504-1.052
		c0-0.297-0.06-0.54-0.179-0.729s-0.318-0.364-0.598-0.524s-0.704-0.342-1.274-0.545c-0.797-0.285-1.366-0.623-1.708-1.014
		s-0.513-0.9-0.513-1.529c0-0.66,0.248-1.186,0.744-1.576s1.152-0.586,1.969-0.586c0.852,0,1.635,0.156,2.35,0.469l-0.311,0.867
		c-0.707-0.297-1.395-0.445-2.062-0.445c-0.527,0-0.939,0.113-1.236,0.34s-0.445,0.541-0.445,0.943c0,0.297,0.055,0.54,0.164,0.729
		s0.294,0.363,0.554,0.521s0.657,0.333,1.192,0.524c0.898,0.32,1.517,0.664,1.854,1.031S349.946,92.014,349.946,92.6z"/>
	<path fill="#4D4D4D" d="M353.626,94.193c0.172,0,0.338-0.013,0.498-0.038s0.287-0.052,0.381-0.079v0.744
		c-0.105,0.051-0.261,0.093-0.466,0.126s-0.39,0.05-0.554,0.05c-1.242,0-1.863-0.654-1.863-1.963v-3.82h-0.92v-0.469l0.92-0.404
		l0.41-1.371h0.562v1.488h1.863v0.756h-1.863v3.779c0,0.387,0.092,0.684,0.275,0.891S353.306,94.193,353.626,94.193z"/>
</g>
<g>
	<path fill="#B3B3B3" d="M70.492,204.637h-2.413l-1.354-5.25c-0.05-0.188-0.136-0.573-0.256-1.158
		c-0.121-0.586-0.19-0.979-0.208-1.18c-0.027,0.246-0.096,0.642-0.205,1.186c-0.109,0.545-0.194,0.934-0.253,1.166l-1.347,5.236
		H62.05l-2.55-9.994h2.085l1.278,5.455c0.223,1.008,0.385,1.88,0.485,2.618c0.027-0.26,0.09-0.662,0.188-1.206
		c0.098-0.545,0.19-0.968,0.277-1.269l1.456-5.599h2.003l1.456,5.599c0.064,0.251,0.144,0.634,0.239,1.148s0.168,0.957,0.219,1.326
		c0.045-0.355,0.119-0.799,0.219-1.329c0.1-0.531,0.191-0.961,0.273-1.289l1.271-5.455h2.085L70.492,204.637z"/>
	<path fill="#B3B3B3" d="M78.982,204.637l-0.403-1.039h-0.055c-0.351,0.441-0.712,0.748-1.083,0.92
		c-0.372,0.17-0.855,0.256-1.453,0.256c-0.734,0-1.312-0.209-1.733-0.629s-0.632-1.016-0.632-1.791c0-0.811,0.284-1.409,0.851-1.795
		c0.567-0.385,1.423-0.598,2.567-0.639l1.326-0.041v-0.335c0-0.774-0.396-1.162-1.189-1.162c-0.611,0-1.329,0.185-2.153,0.554
		l-0.69-1.408c0.879-0.461,1.855-0.69,2.926-0.69c1.025,0,1.812,0.224,2.358,0.67s0.82,1.126,0.82,2.037v5.093H78.982z
		 M78.367,201.096l-0.807,0.027c-0.606,0.018-1.057,0.127-1.354,0.328s-0.444,0.506-0.444,0.916c0,0.588,0.337,0.882,1.012,0.882
		c0.483,0,0.869-0.14,1.159-0.417s0.434-0.646,0.434-1.107V201.096z"/>
	<path fill="#B3B3B3" d="M87.917,202.367c0,0.783-0.272,1.381-0.817,1.791s-1.359,0.615-2.444,0.615
		c-0.556,0-1.03-0.037-1.422-0.113c-0.392-0.074-0.759-0.186-1.101-0.331v-1.723c0.387,0.183,0.824,0.335,1.309,0.458
		s0.913,0.185,1.282,0.185c0.756,0,1.135-0.219,1.135-0.656c0-0.164-0.05-0.298-0.15-0.399c-0.1-0.104-0.273-0.219-0.52-0.35
		c-0.246-0.129-0.574-0.281-0.984-0.454c-0.588-0.246-1.02-0.474-1.295-0.684s-0.476-0.45-0.602-0.722
		c-0.125-0.271-0.188-0.604-0.188-1.001c0-0.679,0.263-1.204,0.79-1.575c0.526-0.372,1.272-0.558,2.239-0.558
		c0.92,0,1.816,0.2,2.687,0.602l-0.629,1.504c-0.383-0.164-0.741-0.298-1.073-0.403s-0.672-0.157-1.019-0.157
		c-0.615,0-0.923,0.167-0.923,0.499c0,0.188,0.099,0.349,0.297,0.485s0.632,0.339,1.302,0.608c0.597,0.242,1.035,0.467,1.312,0.677
		s0.483,0.451,0.615,0.725S87.917,201.988,87.917,202.367z"/>
	<path fill="#B3B3B3" d="M96.599,204.637h-2.085v-4.464c0-1.103-0.41-1.654-1.23-1.654c-0.583,0-1.005,0.198-1.265,0.595
		s-0.39,1.039-0.39,1.928v3.596h-2.085V194h2.085v2.167c0,0.169-0.016,0.565-0.048,1.189l-0.048,0.615h0.109
		c0.465-0.747,1.203-1.121,2.215-1.121c0.898,0,1.579,0.241,2.044,0.725s0.697,1.176,0.697,2.078V204.637z"/>
	<path fill="#B3B3B3" d="M98.656,195.019c0-0.679,0.378-1.019,1.135-1.019s1.135,0.34,1.135,1.019c0,0.323-0.095,0.575-0.284,0.755
		c-0.189,0.181-0.473,0.271-0.851,0.271C99.035,196.044,98.656,195.702,98.656,195.019z M100.83,204.637h-2.085v-7.643h2.085
		V204.637z"/>
	<path fill="#B3B3B3" d="M110.072,204.637h-2.085v-4.464c0-0.552-0.098-0.965-0.294-1.241c-0.196-0.275-0.508-0.413-0.937-0.413
		c-0.583,0-1.005,0.194-1.265,0.585c-0.26,0.389-0.39,1.035-0.39,1.938v3.596h-2.085v-7.643h1.593l0.28,0.978h0.116
		c0.232-0.369,0.553-0.648,0.96-0.837c0.408-0.189,0.872-0.284,1.391-0.284c0.889,0,1.563,0.24,2.023,0.722
		c0.46,0.48,0.69,1.174,0.69,2.081V204.637z"/>
	<path fill="#B3B3B3" d="M118.87,196.994v1.06l-1.196,0.308c0.219,0.342,0.328,0.725,0.328,1.148c0,0.82-0.286,1.459-0.858,1.918
		c-0.572,0.457-1.366,0.687-2.382,0.687l-0.376-0.021l-0.308-0.034c-0.214,0.164-0.321,0.347-0.321,0.547
		c0,0.301,0.383,0.451,1.148,0.451h1.299c0.838,0,1.478,0.181,1.917,0.54s0.66,0.889,0.66,1.586c0,0.893-0.373,1.586-1.118,2.078
		S115.849,208,114.454,208c-1.066,0-1.881-0.186-2.444-0.557c-0.563-0.372-0.844-0.893-0.844-1.562c0-0.461,0.144-0.846,0.431-1.155
		s0.708-0.53,1.265-0.663c-0.214-0.092-0.401-0.24-0.561-0.447c-0.16-0.208-0.239-0.428-0.239-0.66c0-0.291,0.084-0.534,0.253-0.729
		c0.168-0.193,0.413-0.383,0.731-0.57c-0.401-0.174-0.719-0.451-0.954-0.834s-0.352-0.834-0.352-1.354
		c0-0.834,0.271-1.479,0.813-1.935s1.317-0.684,2.324-0.684c0.214,0,0.468,0.02,0.762,0.058c0.294,0.039,0.482,0.068,0.564,0.086
		H118.87z M112.971,205.717c0,0.287,0.138,0.513,0.414,0.677s0.662,0.246,1.159,0.246c0.748,0,1.333-0.103,1.757-0.308
		s0.636-0.485,0.636-0.841c0-0.287-0.125-0.485-0.376-0.595s-0.638-0.164-1.162-0.164h-1.08c-0.383,0-0.703,0.09-0.96,0.27
		C113.1,205.183,112.971,205.42,112.971,205.717z M113.729,199.496c0,0.414,0.095,0.742,0.284,0.984s0.478,0.362,0.865,0.362
		c0.392,0,0.679-0.12,0.861-0.362s0.273-0.57,0.273-0.984c0-0.92-0.378-1.381-1.135-1.381
		C114.112,198.115,113.729,198.576,113.729,199.496z"/>
	<path fill="#B3B3B3" d="M123.348,203.112c0.365,0,0.802-0.079,1.312-0.239v1.552c-0.52,0.232-1.158,0.349-1.914,0.349
		c-0.834,0-1.441-0.211-1.822-0.633c-0.38-0.421-0.571-1.053-0.571-1.896v-3.685h-0.998v-0.882l1.148-0.697l0.602-1.613h1.333v1.627
		h2.14v1.565h-2.14v3.685c0,0.297,0.083,0.516,0.25,0.656S123.074,203.112,123.348,203.112z"/>
	<path fill="#B3B3B3" d="M133.15,200.802c0,1.244-0.328,2.218-0.984,2.919s-1.57,1.053-2.741,1.053c-0.734,0-1.381-0.16-1.941-0.482
		c-0.561-0.32-0.991-0.782-1.292-1.384s-0.451-1.304-0.451-2.105c0-1.249,0.326-2.22,0.978-2.912s1.568-1.039,2.748-1.039
		c0.734,0,1.381,0.159,1.941,0.479s0.991,0.776,1.292,1.374S133.15,200,133.15,200.802z M127.866,200.802
		c0,0.757,0.124,1.329,0.373,1.716s0.653,0.581,1.213,0.581c0.556,0,0.956-0.192,1.2-0.577c0.244-0.386,0.366-0.959,0.366-1.72
		c0-0.757-0.123-1.323-0.369-1.702s-0.649-0.567-1.21-0.567c-0.556,0-0.957,0.188-1.203,0.563
		C127.989,199.473,127.866,200.041,127.866,200.802z"/>
	<path fill="#B3B3B3" d="M141.928,204.637h-2.085v-4.464c0-0.552-0.098-0.965-0.294-1.241c-0.196-0.275-0.508-0.413-0.937-0.413
		c-0.583,0-1.005,0.194-1.265,0.585c-0.26,0.389-0.39,1.035-0.39,1.938v3.596h-2.085v-7.643h1.593l0.28,0.978h0.116
		c0.232-0.369,0.553-0.648,0.96-0.837c0.408-0.189,0.872-0.284,1.391-0.284c0.889,0,1.563,0.24,2.023,0.722
		c0.46,0.48,0.69,1.174,0.69,2.081V204.637z"/>
	<path fill="#B3B3B3" d="M156.167,199.544c0,1.646-0.468,2.905-1.405,3.78s-2.289,1.312-4.057,1.312h-2.83v-9.994h3.138
		c1.631,0,2.898,0.431,3.801,1.292S156.167,197.999,156.167,199.544z M153.966,199.599c0-2.146-0.948-3.22-2.844-3.22h-1.128v6.508
		h0.909C152.945,202.887,153.966,201.791,153.966,199.599z"/>
	<path fill="#B3B3B3" d="M157.78,203.659c0-0.383,0.103-0.673,0.308-0.868s0.503-0.294,0.896-0.294c0.378,0,0.671,0.101,0.878,0.301
		s0.311,0.487,0.311,0.861c0,0.36-0.105,0.644-0.314,0.851c-0.209,0.208-0.501,0.312-0.875,0.312c-0.383,0-0.679-0.102-0.889-0.304
		C157.885,204.314,157.78,204.028,157.78,203.659z"/>
	<path fill="#B3B3B3" d="M166.476,196.263c-0.797,0-1.415,0.3-1.853,0.899c-0.438,0.599-0.656,1.434-0.656,2.505
		c0,2.229,0.836,3.343,2.509,3.343c0.702,0,1.552-0.176,2.55-0.526v1.777c-0.82,0.342-1.736,0.513-2.748,0.513
		c-1.454,0-2.566-0.441-3.336-1.322c-0.77-0.883-1.155-2.148-1.155-3.798c0-1.039,0.189-1.949,0.567-2.731
		c0.378-0.781,0.922-1.381,1.63-1.797c0.708-0.418,1.539-0.626,2.492-0.626c0.971,0,1.946,0.235,2.926,0.704l-0.684,1.723
		c-0.374-0.178-0.75-0.332-1.128-0.465S166.84,196.263,166.476,196.263z"/>
	<path fill="#B3B3B3" d="M170.693,203.659c0-0.383,0.103-0.673,0.308-0.868s0.503-0.294,0.896-0.294
		c0.378,0,0.671,0.101,0.878,0.301s0.311,0.487,0.311,0.861c0,0.36-0.105,0.644-0.314,0.851c-0.209,0.208-0.501,0.312-0.875,0.312
		c-0.383,0-0.679-0.102-0.889-0.304C170.798,204.314,170.693,204.028,170.693,203.659z"/>
	<path fill="#B3B3B3" d="M184.68,201.861c0,0.902-0.325,1.613-0.974,2.133s-1.553,0.779-2.71,0.779c-1.066,0-2.01-0.201-2.83-0.602
		v-1.969c0.674,0.301,1.245,0.513,1.712,0.636s0.895,0.185,1.282,0.185c0.465,0,0.821-0.089,1.07-0.267s0.373-0.442,0.373-0.793
		c0-0.196-0.055-0.37-0.164-0.522c-0.109-0.153-0.27-0.301-0.482-0.441s-0.644-0.367-1.295-0.677
		c-0.611-0.287-1.069-0.563-1.374-0.827s-0.549-0.572-0.731-0.923s-0.273-0.761-0.273-1.23c0-0.884,0.3-1.579,0.899-2.085
		s1.428-0.759,2.485-0.759c0.52,0,1.015,0.062,1.487,0.185s0.965,0.297,1.48,0.52l-0.684,1.647
		c-0.533-0.219-0.974-0.372-1.323-0.458s-0.691-0.13-1.029-0.13c-0.401,0-0.708,0.093-0.923,0.28s-0.321,0.431-0.321,0.731
		c0,0.187,0.043,0.35,0.13,0.489c0.086,0.139,0.225,0.273,0.414,0.402c0.189,0.131,0.637,0.363,1.343,0.701
		c0.934,0.447,1.575,0.895,1.921,1.344C184.506,200.659,184.68,201.209,184.68,201.861z"/>
	<path fill="#B3B3B3" d="M189.547,203.112c0.365,0,0.802-0.079,1.312-0.239v1.552c-0.52,0.232-1.158,0.349-1.914,0.349
		c-0.834,0-1.441-0.211-1.822-0.633c-0.38-0.421-0.571-1.053-0.571-1.896v-3.685h-0.998v-0.882l1.148-0.697l0.602-1.613h1.333v1.627
		h2.14v1.565h-2.14v3.685c0,0.297,0.083,0.516,0.25,0.656S189.273,203.112,189.547,203.112z"/>
	<path fill="#B3B3B3" d="M199.35,200.802c0,1.244-0.328,2.218-0.984,2.919s-1.57,1.053-2.741,1.053c-0.734,0-1.381-0.16-1.941-0.482
		c-0.561-0.32-0.991-0.782-1.292-1.384s-0.451-1.304-0.451-2.105c0-1.249,0.326-2.22,0.978-2.912s1.568-1.039,2.748-1.039
		c0.734,0,1.381,0.159,1.941,0.479s0.991,0.776,1.292,1.374S199.35,200,199.35,200.802z M194.065,200.802
		c0,0.757,0.124,1.329,0.373,1.716s0.653,0.581,1.213,0.581c0.556,0,0.956-0.192,1.2-0.577c0.244-0.386,0.366-0.959,0.366-1.72
		c0-0.757-0.123-1.323-0.369-1.702s-0.649-0.567-1.21-0.567c-0.556,0-0.957,0.188-1.203,0.563
		C194.188,199.473,194.065,200.041,194.065,200.802z"/>
	<path fill="#B3B3B3" d="M205.338,196.851c0.283,0,0.517,0.021,0.704,0.062l-0.157,1.955c-0.168-0.045-0.374-0.068-0.615-0.068
		c-0.666,0-1.184,0.171-1.555,0.513s-0.557,0.82-0.557,1.436v3.89h-2.085v-7.643h1.579l0.308,1.285h0.103
		c0.237-0.428,0.557-0.773,0.96-1.035C204.425,196.981,204.864,196.851,205.338,196.851z"/>
	<path fill="#B3B3B3" d="M210.889,204.773c-1.23,0-2.192-0.34-2.885-1.019s-1.039-1.641-1.039-2.885c0-1.28,0.32-2.271,0.96-2.97
		c0.64-0.7,1.525-1.05,2.656-1.05c1.08,0,1.921,0.308,2.522,0.923s0.902,1.465,0.902,2.55v1.012h-4.929
		c0.023,0.593,0.198,1.056,0.526,1.388s0.789,0.499,1.381,0.499c0.46,0,0.896-0.048,1.306-0.144s0.838-0.248,1.285-0.458v1.613
		c-0.365,0.183-0.754,0.317-1.169,0.407C211.992,204.729,211.486,204.773,210.889,204.773z M210.595,198.334
		c-0.442,0-0.789,0.141-1.039,0.42c-0.25,0.281-0.394,0.678-0.431,1.193h2.926c-0.009-0.516-0.144-0.912-0.403-1.193
		C211.388,198.475,211.037,198.334,210.595,198.334z"/>
</g>
<g>
	<path fill="#B3B3B3" d="M260.664,203.857h-0.869v-5.597c0-0.466,0.014-0.905,0.043-1.321c-0.076,0.075-0.16,0.154-0.253,0.236
		s-0.519,0.432-1.278,1.047l-0.473-0.611l2.078-1.606h0.752V203.857z"/>
	<path fill="#B3B3B3" d="M263.742,200.5c0-1.543,0.3-2.697,0.9-3.461c0.6-0.765,1.486-1.146,2.66-1.146
		c0.405,0,0.724,0.033,0.957,0.102v0.768c-0.276-0.089-0.592-0.134-0.945-0.134c-0.842,0-1.484,0.263-1.929,0.787
		s-0.688,1.349-0.73,2.474h0.064c0.394-0.616,1.017-0.924,1.869-0.924c0.706,0,1.261,0.213,1.667,0.639
		c0.407,0.426,0.61,1.004,0.61,1.734c0,0.816-0.224,1.459-0.669,1.926c-0.445,0.468-1.048,0.701-1.807,0.701
		c-0.813,0-1.458-0.305-1.934-0.916C263.98,202.438,263.742,201.589,263.742,200.5z M266.379,203.207c0.509,0,0.904-0.16,1.186-0.48
		c0.28-0.32,0.421-0.783,0.421-1.389c0-0.519-0.131-0.927-0.392-1.225c-0.262-0.297-0.652-0.445-1.172-0.445
		c-0.322,0-0.617,0.066-0.886,0.199c-0.269,0.132-0.482,0.314-0.642,0.547c-0.16,0.233-0.239,0.475-0.239,0.726
		c0,0.368,0.071,0.712,0.215,1.031s0.347,0.571,0.61,0.757C265.742,203.114,266.043,203.207,266.379,203.207z"/>
	<path fill="#B3B3B3" d="M275.145,199.92c0,1.357-0.213,2.371-0.642,3.041c-0.428,0.669-1.082,1.004-1.963,1.004
		c-0.845,0-1.487-0.343-1.929-1.028c-0.439-0.687-0.66-1.691-0.66-3.017c0-1.367,0.213-2.383,0.639-3.045
		c0.427-0.662,1.076-0.994,1.95-0.994c0.853,0,1.499,0.346,1.941,1.037S275.145,198.609,275.145,199.92z M270.854,199.92
		c0,1.143,0.135,1.975,0.402,2.495c0.27,0.521,0.697,0.782,1.284,0.782c0.595,0,1.024-0.265,1.292-0.793
		c0.267-0.527,0.4-1.355,0.4-2.484c0-1.127-0.134-1.953-0.4-2.479c-0.268-0.524-0.697-0.787-1.292-0.787
		c-0.587,0-1.015,0.26-1.284,0.776C270.988,197.948,270.854,198.778,270.854,199.92z"/>
	<path fill="#B3B3B3" d="M281.435,199.92c0,1.357-0.214,2.371-0.642,3.041c-0.428,0.669-1.082,1.004-1.963,1.004
		c-0.846,0-1.488-0.343-1.929-1.028c-0.44-0.687-0.661-1.691-0.661-3.017c0-1.367,0.213-2.383,0.64-3.045s1.076-0.994,1.95-0.994
		c0.852,0,1.499,0.346,1.941,1.037C281.213,197.609,281.435,198.609,281.435,199.92z M277.143,199.92
		c0,1.143,0.135,1.975,0.403,2.495c0.269,0.521,0.696,0.782,1.284,0.782c0.594,0,1.024-0.265,1.291-0.793
		c0.268-0.527,0.4-1.355,0.4-2.484c0-1.127-0.133-1.953-0.4-2.479c-0.267-0.524-0.697-0.787-1.291-0.787
		c-0.588,0-1.016,0.26-1.284,0.776C277.277,197.948,277.143,198.778,277.143,199.92z"/>
	<path fill="#B3B3B3" d="M290.898,198.293c0,0.795-0.271,1.406-0.813,1.834c-0.543,0.428-1.319,0.643-2.329,0.643h-0.924v3.088
		h-0.912v-7.853h2.035C289.918,196.005,290.898,196.768,290.898,198.293z M286.832,199.984h0.822c0.809,0,1.395-0.131,1.756-0.392
		c0.362-0.261,0.543-0.681,0.543-1.257c0-0.52-0.17-0.906-0.51-1.16c-0.341-0.254-0.871-0.381-1.59-0.381h-1.021V199.984z"/>
	<path fill="#B3B3B3" d="M294.895,203.965c-0.87,0-1.557-0.266-2.061-0.795c-0.502-0.529-0.754-1.266-0.754-2.207
		c0-0.949,0.234-1.703,0.701-2.262s1.095-0.838,1.883-0.838c0.737,0,1.32,0.242,1.75,0.728s0.645,1.126,0.645,1.921v0.563h-4.055
		c0.018,0.69,0.192,1.216,0.523,1.573c0.332,0.358,0.798,0.537,1.399,0.537c0.634,0,1.261-0.132,1.88-0.396v0.795
		c-0.314,0.136-0.613,0.233-0.895,0.292C295.631,203.936,295.292,203.965,294.895,203.965z M294.652,198.609
		c-0.473,0-0.85,0.154-1.131,0.463c-0.28,0.308-0.445,0.733-0.496,1.277h3.078c0-0.562-0.126-0.992-0.377-1.291
		C295.477,198.76,295.118,198.609,294.652,198.609z"/>
	<path fill="#B3B3B3" d="M302.607,203.857v-3.809c0-0.479-0.109-0.838-0.328-1.074c-0.218-0.236-0.561-0.354-1.025-0.354
		c-0.615,0-1.066,0.166-1.354,0.499s-0.43,0.883-0.43,1.649v3.088h-0.892v-5.887h0.726l0.145,0.806h0.043
		c0.183-0.29,0.438-0.515,0.768-0.674c0.33-0.159,0.697-0.239,1.102-0.239c0.709,0,1.242,0.171,1.601,0.513
		c0.358,0.343,0.537,0.89,0.537,1.642v3.84H302.607z"/>
	<path fill="#B3B3B3" d="M309.359,203.857v-3.809c0-0.479-0.109-0.838-0.328-1.074s-0.561-0.354-1.025-0.354
		c-0.616,0-1.067,0.166-1.354,0.499c-0.287,0.333-0.43,0.883-0.43,1.649v3.088h-0.893v-5.887h0.726l0.146,0.806h0.043
		c0.182-0.29,0.438-0.515,0.768-0.674s0.696-0.239,1.102-0.239c0.709,0,1.242,0.171,1.6,0.513c0.358,0.343,0.537,0.89,0.537,1.642
		v3.84H309.359z"/>
	<path fill="#B3B3B3" d="M315.879,202.252c0,0.547-0.203,0.97-0.611,1.268c-0.408,0.297-0.981,0.445-1.719,0.445
		c-0.781,0-1.39-0.123-1.826-0.371v-0.826c0.282,0.143,0.586,0.256,0.91,0.338s0.637,0.123,0.938,0.123
		c0.465,0,0.823-0.074,1.074-0.223c0.25-0.148,0.375-0.375,0.375-0.68c0-0.229-0.099-0.425-0.298-0.588
		c-0.198-0.162-0.586-0.355-1.163-0.577c-0.547-0.204-0.937-0.382-1.168-0.534c-0.23-0.152-0.402-0.325-0.516-0.519
		c-0.112-0.193-0.169-0.425-0.169-0.692c0-0.48,0.195-0.859,0.585-1.137c0.391-0.277,0.926-0.416,1.606-0.416
		c0.634,0,1.253,0.129,1.858,0.387l-0.316,0.725c-0.592-0.243-1.127-0.365-1.606-0.365c-0.423,0-0.741,0.066-0.956,0.199
		s-0.322,0.314-0.322,0.548c0,0.157,0.04,0.292,0.121,0.403c0.08,0.11,0.21,0.217,0.389,0.316c0.18,0.1,0.523,0.245,1.031,0.436
		c0.699,0.254,1.17,0.51,1.416,0.768C315.757,201.537,315.879,201.861,315.879,202.252z"/>
	<path fill="#B3B3B3" d="M316.395,197.971h0.957l1.289,3.357c0.282,0.766,0.458,1.318,0.525,1.659h0.043
		c0.047-0.183,0.145-0.495,0.293-0.938s0.635-1.802,1.459-4.079h0.955l-2.529,6.703c-0.25,0.662-0.543,1.133-0.879,1.41
		c-0.334,0.277-0.745,0.416-1.232,0.416c-0.271,0-0.54-0.03-0.805-0.092v-0.714c0.196,0.043,0.416,0.064,0.66,0.064
		c0.612,0,1.049-0.344,1.311-1.031l0.328-0.838L316.395,197.971z"/>
	<path fill="#B3B3B3" d="M323.764,203.857h-0.891V195.5h0.891V203.857z"/>
	<path fill="#B3B3B3" d="M326.943,203.857l-2.234-5.887h0.957l1.268,3.491c0.286,0.816,0.454,1.347,0.504,1.59h0.043
		c0.04-0.19,0.164-0.583,0.373-1.179c0.211-0.597,0.68-1.896,1.41-3.902h0.957l-2.234,5.887H326.943z"/>
	<path fill="#B3B3B3" d="M334.785,203.857l-0.177-0.838h-0.043c-0.294,0.369-0.587,0.619-0.878,0.749
		c-0.292,0.131-0.656,0.196-1.094,0.196c-0.583,0-1.041-0.15-1.371-0.451c-0.332-0.301-0.498-0.729-0.498-1.283
		c0-1.189,0.951-1.812,2.853-1.869l0.999-0.033v-0.365c0-0.461-0.1-0.803-0.299-1.022c-0.197-0.221-0.516-0.331-0.953-0.331
		c-0.49,0-1.045,0.15-1.664,0.451l-0.274-0.682c0.29-0.158,0.608-0.281,0.954-0.371c0.345-0.089,0.691-0.134,1.039-0.134
		c0.701,0,1.221,0.155,1.561,0.468c0.338,0.311,0.507,0.811,0.507,1.498v4.018H334.785z M332.771,203.229
		c0.555,0,0.99-0.152,1.309-0.456c0.316-0.304,0.475-0.73,0.475-1.278v-0.531L333.663,201c-0.709,0.025-1.22,0.135-1.534,0.33
		c-0.312,0.195-0.469,0.499-0.469,0.91c0,0.322,0.098,0.568,0.293,0.736C332.147,203.145,332.42,203.229,332.771,203.229z"/>
	<path fill="#B3B3B3" d="M341.312,203.857v-3.809c0-0.479-0.109-0.838-0.327-1.074c-0.219-0.236-0.561-0.354-1.026-0.354
		c-0.616,0-1.067,0.166-1.354,0.499s-0.43,0.883-0.43,1.649v3.088h-0.892v-5.887h0.725l0.146,0.806h0.043
		c0.183-0.29,0.438-0.515,0.769-0.674c0.329-0.159,0.695-0.239,1.101-0.239c0.709,0,1.243,0.171,1.601,0.513
		c0.357,0.343,0.537,0.89,0.537,1.642v3.84H341.312z"/>
	<path fill="#B3B3B3" d="M348.062,203.857v-3.809c0-0.479-0.109-0.838-0.327-1.074s-0.561-0.354-1.026-0.354
		c-0.615,0-1.066,0.166-1.354,0.499c-0.286,0.333-0.43,0.883-0.43,1.649v3.088h-0.891v-5.887h0.725l0.145,0.806h0.043
		c0.184-0.29,0.439-0.515,0.769-0.674s0.696-0.239,1.101-0.239c0.709,0,1.243,0.171,1.602,0.513c0.357,0.343,0.537,0.89,0.537,1.642
		v3.84H348.062z"/>
	<path fill="#B3B3B3" d="M350.711,196.375c0-0.203,0.051-0.354,0.15-0.448s0.226-0.142,0.376-0.142c0.144,0,0.267,0.048,0.37,0.145
		c0.104,0.097,0.156,0.245,0.156,0.445c0,0.201-0.052,0.351-0.156,0.449c-0.104,0.098-0.227,0.147-0.37,0.147
		c-0.15,0-0.276-0.05-0.376-0.147C350.762,196.726,350.711,196.576,350.711,196.375z M351.678,203.857h-0.892v-5.887h0.892V203.857z
		"/>
	<path fill="#B3B3B3" d="M357.188,203.857l-0.177-0.838h-0.043c-0.294,0.369-0.587,0.619-0.879,0.749
		c-0.291,0.131-0.656,0.196-1.093,0.196c-0.583,0-1.041-0.15-1.372-0.451c-0.332-0.301-0.497-0.729-0.497-1.283
		c0-1.189,0.95-1.812,2.853-1.869l0.998-0.033v-0.365c0-0.461-0.099-0.803-0.298-1.022c-0.198-0.221-0.517-0.331-0.953-0.331
		c-0.491,0-1.046,0.15-1.665,0.451l-0.273-0.682c0.289-0.158,0.607-0.281,0.953-0.371c0.346-0.089,0.691-0.134,1.039-0.134
		c0.701,0,1.222,0.155,1.561,0.468c0.338,0.311,0.508,0.811,0.508,1.498v4.018H357.188z M355.174,203.229
		c0.556,0,0.991-0.152,1.309-0.456c0.316-0.304,0.475-0.73,0.475-1.278v-0.531L356.066,201c-0.709,0.025-1.221,0.135-1.534,0.33
		s-0.47,0.499-0.47,0.91c0,0.322,0.098,0.568,0.293,0.736S354.823,203.229,355.174,203.229z"/>
	<path fill="#B3B3B3" d="M367.613,203.857l-0.977-2.498h-3.148l-0.967,2.498h-0.924l3.105-7.885h0.768l3.088,7.885H367.613z
		 M366.352,200.538l-0.913-2.433c-0.118-0.309-0.239-0.686-0.365-1.134c-0.079,0.344-0.191,0.722-0.339,1.134l-0.924,2.433H366.352z
		"/>
	<path fill="#B3B3B3" d="M370.793,203.857l-2.234-5.887h0.957l1.268,3.491c0.286,0.816,0.454,1.347,0.504,1.59h0.043
		c0.04-0.19,0.164-0.583,0.373-1.179c0.211-0.597,0.68-1.896,1.41-3.902h0.957l-2.234,5.887H370.793z"/>
	<path fill="#B3B3B3" d="M377.502,203.965c-0.87,0-1.557-0.266-2.061-0.795c-0.502-0.529-0.754-1.266-0.754-2.207
		c0-0.949,0.234-1.703,0.701-2.262s1.095-0.838,1.883-0.838c0.737,0,1.32,0.242,1.75,0.728s0.645,1.126,0.645,1.921v0.563h-4.055
		c0.018,0.69,0.192,1.216,0.523,1.573c0.332,0.358,0.798,0.537,1.399,0.537c0.634,0,1.261-0.132,1.88-0.396v0.795
		c-0.314,0.136-0.613,0.233-0.895,0.292C378.238,203.936,377.899,203.965,377.502,203.965z M377.26,198.609
		c-0.473,0-0.85,0.154-1.131,0.463c-0.28,0.308-0.445,0.733-0.496,1.277h3.078c0-0.562-0.126-0.992-0.377-1.291
		C378.084,198.76,377.726,198.609,377.26,198.609z"/>
</g>
<g>
	<path fill="#B3B3B3" d="M69.624,261.25h-2.693l-4.348-7.561h-0.062c0.086,1.335,0.13,2.287,0.13,2.857v4.703h-1.894v-9.994h2.673
		l4.341,7.484h0.048c-0.068-1.299-0.103-2.217-0.103-2.754v-4.73h1.907V261.25z"/>
	<path fill="#B3B3B3" d="M75.435,261.387c-1.23,0-2.192-0.34-2.885-1.02c-0.693-0.679-1.039-1.641-1.039-2.885
		c0-1.28,0.32-2.27,0.96-2.97s1.525-1.05,2.656-1.05c1.08,0,1.921,0.309,2.522,0.924s0.902,1.465,0.902,2.549v1.012h-4.929
		c0.023,0.593,0.198,1.056,0.526,1.389c0.328,0.332,0.789,0.498,1.381,0.498c0.46,0,0.896-0.047,1.306-0.143
		s0.838-0.249,1.285-0.459v1.613c-0.365,0.183-0.754,0.318-1.169,0.407S76.032,261.387,75.435,261.387z M75.141,254.947
		c-0.442,0-0.789,0.14-1.039,0.42s-0.394,0.678-0.431,1.193h2.926c-0.009-0.516-0.144-0.913-0.403-1.193
		S75.583,254.947,75.141,254.947z"/>
	<path fill="#B3B3B3" d="M86.529,261.25l-0.588-2.674l-0.793-3.377h-0.048l-1.395,6.051h-2.242l-2.174-7.643h2.078l0.882,3.383
		c0.141,0.606,0.285,1.443,0.431,2.51h0.041c0.018-0.347,0.098-0.896,0.239-1.648l0.109-0.58l0.943-3.664h2.297l0.896,3.664
		c0.018,0.1,0.047,0.248,0.085,0.443c0.039,0.196,0.076,0.404,0.113,0.626s0.069,0.438,0.099,0.649s0.047,0.382,0.051,0.51h0.041
		c0.041-0.328,0.114-0.779,0.219-1.351s0.18-0.958,0.226-1.159l0.916-3.383H91l-2.201,7.643H86.529z"/>
	<path fill="#B3B3B3" d="M99.142,255.371l2.085-4.115h2.283l-3.315,6.104v3.891h-2.105v-3.822l-3.315-6.172h2.297L99.142,255.371z"
		/>
	<path fill="#B3B3B3" d="M111.549,257.414c0,1.244-0.328,2.218-0.984,2.92c-0.656,0.701-1.57,1.053-2.741,1.053
		c-0.734,0-1.381-0.161-1.941-0.482s-0.991-0.783-1.292-1.385s-0.451-1.303-0.451-2.105c0-1.248,0.326-2.219,0.978-2.912
		c0.652-0.692,1.568-1.039,2.748-1.039c0.734,0,1.381,0.16,1.941,0.479c0.561,0.319,0.991,0.777,1.292,1.375
		C111.398,255.913,111.549,256.612,111.549,257.414z M106.265,257.414c0,0.757,0.124,1.329,0.373,1.717
		c0.249,0.387,0.653,0.58,1.213,0.58c0.556,0,0.956-0.191,1.2-0.577s0.366-0.958,0.366-1.72c0-0.756-0.123-1.323-0.369-1.701
		c-0.246-0.379-0.649-0.568-1.21-0.568c-0.556,0-0.957,0.188-1.203,0.564S106.265,256.653,106.265,257.414z"/>
	<path fill="#B3B3B3" d="M117.537,253.463c0.283,0,0.517,0.021,0.704,0.062l-0.157,1.955c-0.168-0.046-0.374-0.068-0.615-0.068
		c-0.666,0-1.184,0.17-1.555,0.512s-0.557,0.82-0.557,1.436v3.891h-2.085v-7.643h1.579l0.308,1.285h0.103
		c0.237-0.429,0.557-0.773,0.96-1.036S117.063,253.463,117.537,253.463z"/>
	<path fill="#B3B3B3" d="M121.632,257.094l0.909-1.162l2.14-2.324h2.352l-3.035,3.314l3.22,4.328h-2.406l-2.201-3.098l-0.896,0.719
		v2.379h-2.085v-10.637h2.085v4.744l-0.109,1.736H121.632z"/>
	<path fill="#B3B3B3" d="M138.011,258.475c0,0.902-0.325,1.613-0.974,2.133s-1.553,0.779-2.71,0.779c-1.066,0-2.01-0.201-2.83-0.602
		v-1.969c0.674,0.301,1.245,0.512,1.712,0.635s0.895,0.186,1.282,0.186c0.465,0,0.821-0.09,1.07-0.268s0.373-0.441,0.373-0.793
		c0-0.195-0.055-0.369-0.164-0.522s-0.27-0.3-0.482-0.44c-0.212-0.142-0.644-0.367-1.295-0.678
		c-0.611-0.287-1.069-0.562-1.374-0.826c-0.305-0.265-0.549-0.572-0.731-0.924c-0.182-0.351-0.273-0.761-0.273-1.23
		c0-0.884,0.3-1.578,0.899-2.084s1.428-0.76,2.485-0.76c0.52,0,1.015,0.062,1.487,0.186s0.965,0.296,1.48,0.52l-0.684,1.646
		c-0.533-0.219-0.974-0.371-1.323-0.457c-0.349-0.087-0.691-0.131-1.029-0.131c-0.401,0-0.708,0.094-0.923,0.281
		c-0.214,0.187-0.321,0.43-0.321,0.73c0,0.188,0.043,0.35,0.13,0.489s0.225,0.273,0.414,0.403s0.637,0.363,1.343,0.701
		c0.934,0.446,1.575,0.895,1.921,1.343S138.011,257.822,138.011,258.475z"/>
	<path fill="#B3B3B3" d="M142.878,259.725c0.365,0,0.802-0.079,1.312-0.238v1.551c-0.52,0.232-1.158,0.35-1.914,0.35
		c-0.834,0-1.441-0.211-1.822-0.633s-0.571-1.054-0.571-1.896v-3.686h-0.998v-0.881l1.148-0.697l0.602-1.613h1.333v1.627h2.14v1.564
		h-2.14v3.686c0,0.296,0.083,0.515,0.25,0.656C142.385,259.654,142.604,259.725,142.878,259.725z"/>
	<path fill="#B3B3B3" d="M152.681,257.414c0,1.244-0.328,2.218-0.984,2.92c-0.656,0.701-1.57,1.053-2.741,1.053
		c-0.734,0-1.381-0.161-1.941-0.482s-0.991-0.783-1.292-1.385s-0.451-1.303-0.451-2.105c0-1.248,0.326-2.219,0.978-2.912
		c0.652-0.692,1.568-1.039,2.748-1.039c0.734,0,1.381,0.16,1.941,0.479c0.561,0.319,0.991,0.777,1.292,1.375
		C152.53,255.913,152.681,256.612,152.681,257.414z M147.396,257.414c0,0.757,0.124,1.329,0.373,1.717
		c0.249,0.387,0.653,0.58,1.213,0.58c0.556,0,0.956-0.191,1.2-0.577s0.366-0.958,0.366-1.72c0-0.756-0.123-1.323-0.369-1.701
		c-0.246-0.379-0.649-0.568-1.21-0.568c-0.556,0-0.957,0.188-1.203,0.564S147.396,256.653,147.396,257.414z"/>
	<path fill="#B3B3B3" d="M158.669,253.463c0.283,0,0.517,0.021,0.704,0.062l-0.157,1.955c-0.168-0.046-0.374-0.068-0.615-0.068
		c-0.666,0-1.184,0.17-1.555,0.512s-0.557,0.82-0.557,1.436v3.891h-2.085v-7.643h1.579l0.308,1.285h0.103
		c0.237-0.429,0.557-0.773,0.96-1.036S158.195,253.463,158.669,253.463z"/>
	<path fill="#B3B3B3" d="M164.22,261.387c-1.23,0-2.192-0.34-2.885-1.02c-0.693-0.679-1.039-1.641-1.039-2.885
		c0-1.28,0.32-2.27,0.96-2.97s1.525-1.05,2.656-1.05c1.08,0,1.921,0.309,2.522,0.924s0.902,1.465,0.902,2.549v1.012h-4.929
		c0.023,0.593,0.198,1.056,0.526,1.389c0.328,0.332,0.789,0.498,1.381,0.498c0.46,0,0.896-0.047,1.306-0.143
		s0.838-0.249,1.285-0.459v1.613c-0.365,0.183-0.754,0.318-1.169,0.407S164.817,261.387,164.22,261.387z M163.926,254.947
		c-0.442,0-0.789,0.14-1.039,0.42s-0.394,0.678-0.431,1.193h2.926c-0.009-0.516-0.144-0.913-0.403-1.193
		S164.368,254.947,163.926,254.947z"/>
</g>
<g>
	<path fill="#B3B3B3" d="M260.664,258.857h-0.869v-5.596c0-0.466,0.014-0.906,0.043-1.322c-0.076,0.076-0.16,0.154-0.253,0.236
		c-0.093,0.083-0.519,0.432-1.278,1.048l-0.473-0.612l2.078-1.605h0.752V258.857z"/>
	<path fill="#B3B3B3" d="M266.25,250.893c0.717,0,1.284,0.166,1.703,0.5c0.419,0.332,0.629,0.793,0.629,1.38
		c0,0.387-0.121,0.739-0.36,1.058c-0.239,0.319-0.623,0.609-1.149,0.871c0.637,0.304,1.09,0.623,1.359,0.959
		c0.268,0.334,0.402,0.722,0.402,1.162c0,0.652-0.228,1.172-0.682,1.561c-0.455,0.389-1.078,0.582-1.869,0.582
		c-0.838,0-1.482-0.184-1.934-0.551c-0.451-0.366-0.678-0.887-0.678-1.56c0-0.899,0.549-1.599,1.645-2.101
		c-0.494-0.279-0.85-0.58-1.064-0.904s-0.322-0.688-0.322-1.088c0-0.569,0.211-1.023,0.631-1.361
		C264.982,251.062,265.545,250.893,266.25,250.893z M264.553,256.876c0,0.43,0.15,0.765,0.449,1.005
		c0.299,0.239,0.719,0.359,1.26,0.359c0.533,0,0.948-0.125,1.246-0.376c0.297-0.251,0.445-0.595,0.445-1.031
		c0-0.347-0.14-0.656-0.419-0.927c-0.279-0.27-0.767-0.532-1.461-0.787c-0.534,0.229-0.921,0.482-1.16,0.76
		C264.674,256.157,264.553,256.489,264.553,256.876z M266.24,251.617c-0.448,0-0.799,0.107-1.053,0.322
		c-0.255,0.215-0.382,0.502-0.382,0.859c0,0.33,0.105,0.613,0.317,0.85c0.211,0.236,0.602,0.473,1.17,0.709
		c0.513-0.215,0.875-0.446,1.088-0.693s0.32-0.535,0.32-0.865c0-0.361-0.131-0.648-0.391-0.861
		C267.052,251.725,266.694,251.617,266.24,251.617z"/>
	<path fill="#B3B3B3" d="M279.475,258.857h-1.043l-4.291-6.59h-0.043c0.057,0.773,0.086,1.482,0.086,2.127v4.463h-0.844v-7.852
		h1.031l4.281,6.562h0.043c-0.008-0.096-0.023-0.406-0.049-0.932c-0.024-0.524-0.033-0.899-0.026-1.125v-4.506h0.854V258.857z"/>
	<path fill="#B3B3B3" d="M281.37,258.289c0-0.24,0.055-0.422,0.164-0.545c0.108-0.125,0.266-0.186,0.47-0.186
		c0.207,0,0.369,0.061,0.486,0.186c0.116,0.123,0.174,0.305,0.174,0.545c0,0.232-0.059,0.411-0.177,0.537
		c-0.118,0.125-0.279,0.188-0.483,0.188c-0.183,0-0.334-0.057-0.454-0.17C281.43,258.732,281.37,258.547,281.37,258.289z"/>
	<path fill="#B3B3B3" d="M287.418,251.006h2.219c1.041,0,1.795,0.155,2.261,0.467s0.698,0.804,0.698,1.477
		c0,0.466-0.13,0.85-0.389,1.152c-0.26,0.303-0.639,0.499-1.137,0.588v0.055c1.192,0.203,1.789,0.83,1.789,1.879
		c0,0.702-0.238,1.25-0.713,1.645c-0.474,0.394-1.137,0.59-1.989,0.59h-2.739V251.006z M288.331,254.367h1.504
		c0.645,0,1.108-0.101,1.392-0.303c0.282-0.203,0.424-0.543,0.424-1.023c0-0.44-0.158-0.758-0.473-0.953s-0.816-0.293-1.504-0.293
		h-1.343V254.367z M288.331,255.141v2.938h1.638c0.635,0,1.111-0.122,1.432-0.368c0.32-0.245,0.48-0.629,0.48-1.152
		c0-0.486-0.164-0.845-0.49-1.074c-0.328-0.229-0.827-0.344-1.496-0.344H288.331z"/>
	<path fill="#B3B3B3" d="M297.097,252.863c0.261,0,0.496,0.021,0.704,0.064l-0.124,0.828c-0.243-0.055-0.458-0.081-0.645-0.081
		c-0.476,0-0.884,0.193-1.222,0.58c-0.339,0.387-0.508,0.868-0.508,1.444v3.158h-0.892v-5.887h0.735l0.103,1.091h0.043
		c0.218-0.384,0.481-0.679,0.79-0.886C296.39,252.968,296.729,252.863,297.097,252.863z"/>
	<path fill="#B3B3B3" d="M303.982,255.909c0,0.96-0.242,1.709-0.725,2.247c-0.484,0.539-1.152,0.809-2.004,0.809
		c-0.526,0-0.994-0.123-1.402-0.37s-0.723-0.602-0.945-1.063c-0.222-0.462-0.332-1.002-0.332-1.622c0-0.96,0.239-1.707,0.719-2.243
		c0.48-0.535,1.146-0.803,1.998-0.803c0.824,0,1.479,0.274,1.964,0.822S303.982,254.975,303.982,255.909z M299.498,255.909
		c0,0.752,0.15,1.325,0.451,1.719s0.742,0.591,1.326,0.591s1.027-0.195,1.329-0.588c0.303-0.393,0.454-0.967,0.454-1.722
		c0-0.749-0.151-1.317-0.454-1.706c-0.302-0.388-0.749-0.582-1.34-0.582c-0.583,0-1.024,0.191-1.321,0.574
		C299.646,254.579,299.498,255.15,299.498,255.909z"/>
	<path fill="#B3B3B3" d="M309.166,258.857l-0.178-0.838h-0.043c-0.293,0.369-0.586,0.619-0.879,0.75
		c-0.291,0.131-0.655,0.195-1.092,0.195c-0.584,0-1.041-0.15-1.373-0.451c-0.331-0.301-0.496-0.729-0.496-1.283
		c0-1.189,0.95-1.812,2.852-1.869l0.999-0.032v-0.365c0-0.462-0.099-0.804-0.298-1.022c-0.199-0.221-0.517-0.331-0.953-0.331
		c-0.491,0-1.046,0.15-1.666,0.451l-0.273-0.683c0.29-0.157,0.607-0.281,0.953-0.37s0.692-0.134,1.039-0.134
		c0.702,0,1.223,0.155,1.561,0.467s0.508,0.811,0.508,1.498v4.018H309.166z M307.151,258.229c0.556,0,0.991-0.152,1.308-0.456
		c0.316-0.305,0.476-0.73,0.476-1.279v-0.531L308.043,256c-0.709,0.025-1.221,0.136-1.533,0.33c-0.313,0.195-0.471,0.5-0.471,0.911
		c0,0.322,0.098,0.567,0.293,0.735C306.527,258.146,306.801,258.229,307.151,258.229z"/>
	<path fill="#B3B3B3" d="M315.67,258.068h-0.049c-0.411,0.598-1.027,0.896-1.848,0.896c-0.77,0-1.368-0.263-1.796-0.789
		c-0.429-0.526-0.642-1.275-0.642-2.245s0.215-1.724,0.645-2.261s1.027-0.807,1.793-0.807c0.799,0,1.411,0.291,1.838,0.871h0.069
		l-0.038-0.425l-0.021-0.413V250.5h0.893v8.357h-0.726L315.67,258.068z M313.887,258.219c0.609,0,1.05-0.166,1.324-0.496
		c0.273-0.332,0.41-0.866,0.41-1.604v-0.188c0-0.835-0.139-1.43-0.416-1.786c-0.277-0.355-0.721-0.534-1.329-0.534
		c-0.522,0-0.923,0.203-1.2,0.61c-0.277,0.406-0.416,0.979-0.416,1.721c0,0.752,0.137,1.319,0.413,1.703
		C312.949,258.027,313.354,258.219,313.887,258.219z"/>
	<path fill="#B3B3B3" d="M323.211,258.857l-1.08-3.453c-0.067-0.211-0.195-0.691-0.381-1.439h-0.043
		c-0.143,0.627-0.269,1.109-0.376,1.45l-1.112,3.442h-1.031l-1.605-5.887h0.935c0.38,1.479,0.669,2.605,0.868,3.379
		c0.197,0.773,0.312,1.295,0.34,1.562h0.043c0.04-0.203,0.104-0.468,0.191-0.791c0.088-0.324,0.164-0.582,0.229-0.771l1.079-3.379
		h0.967l1.053,3.379c0.2,0.615,0.337,1.133,0.408,1.553h0.043c0.015-0.129,0.053-0.328,0.116-0.597
		c0.062-0.269,0.436-1.714,1.119-4.335h0.924l-1.627,5.887H323.211z"/>
	<path fill="#B3B3B3" d="M330.58,258.857l-0.178-0.838h-0.043c-0.293,0.369-0.586,0.619-0.878,0.75s-0.655,0.195-1.093,0.195
		c-0.584,0-1.041-0.15-1.372-0.451s-0.497-0.729-0.497-1.283c0-1.189,0.951-1.812,2.852-1.869l1-0.032v-0.365
		c0-0.462-0.1-0.804-0.299-1.022c-0.198-0.221-0.516-0.331-0.953-0.331c-0.49,0-1.045,0.15-1.665,0.451l-0.274-0.683
		c0.291-0.157,0.608-0.281,0.954-0.37c0.345-0.089,0.692-0.134,1.039-0.134c0.702,0,1.222,0.155,1.561,0.467
		c0.338,0.312,0.507,0.811,0.507,1.498v4.018H330.58z M328.566,258.229c0.555,0,0.99-0.152,1.308-0.456
		c0.316-0.305,0.476-0.73,0.476-1.279v-0.531L329.457,256c-0.709,0.025-1.22,0.136-1.533,0.33c-0.312,0.195-0.47,0.5-0.47,0.911
		c0,0.322,0.098,0.567,0.293,0.735C327.941,258.146,328.215,258.229,328.566,258.229z"/>
	<path fill="#B3B3B3" d="M332.143,252.971h0.957l1.289,3.357c0.282,0.766,0.458,1.319,0.525,1.66h0.043
		c0.047-0.184,0.145-0.496,0.293-0.938c0.148-0.442,0.635-1.803,1.459-4.08h0.955l-2.529,6.703c-0.25,0.663-0.543,1.133-0.879,1.41
		c-0.334,0.277-0.745,0.416-1.232,0.416c-0.271,0-0.54-0.029-0.805-0.091v-0.714c0.196,0.043,0.416,0.064,0.66,0.064
		c0.612,0,1.049-0.344,1.311-1.031l0.328-0.838L332.143,252.971z"/>
	<path fill="#B3B3B3" d="M346.549,258.857l-0.979-2.497h-3.146l-0.967,2.497h-0.924l3.104-7.885h0.769l3.089,7.885H346.549z
		 M345.286,255.539l-0.913-2.434c-0.118-0.309-0.24-0.686-0.365-1.133c-0.078,0.344-0.191,0.721-0.338,1.133l-0.924,2.434H345.286z"
		/>
	<path fill="#B3B3B3" d="M349.729,258.857l-2.234-5.887h0.955l1.268,3.492c0.287,0.816,0.455,1.346,0.506,1.59h0.043
		c0.039-0.19,0.164-0.584,0.373-1.18s0.68-1.896,1.41-3.902h0.955l-2.234,5.887H349.729z"/>
	<path fill="#B3B3B3" d="M356.437,258.965c-0.87,0-1.557-0.265-2.06-0.795c-0.504-0.529-0.755-1.266-0.755-2.207
		c0-0.949,0.233-1.703,0.7-2.262c0.469-0.559,1.096-0.838,1.883-0.838c0.738,0,1.322,0.243,1.752,0.729
		c0.43,0.484,0.645,1.125,0.645,1.92v0.564h-4.056c0.019,0.69,0.192,1.215,0.524,1.573c0.33,0.358,0.797,0.537,1.398,0.537
		c0.634,0,1.26-0.132,1.88-0.397v0.795c-0.315,0.137-0.613,0.234-0.894,0.293C357.174,258.936,356.834,258.965,356.437,258.965z
		 M356.195,253.61c-0.473,0-0.85,0.153-1.131,0.462s-0.447,0.734-0.497,1.278h3.077c0-0.562-0.125-0.993-0.375-1.292
		C357.019,253.76,356.66,253.61,356.195,253.61z"/>
</g>
<g>
	<path fill="#B3B3B3" d="M66.459,306.007h2.14l-3.397,9.994h-2.311l-3.391-9.994h2.14l1.88,5.947
		c0.105,0.351,0.213,0.76,0.325,1.227s0.181,0.792,0.208,0.975c0.05-0.42,0.221-1.153,0.513-2.201L66.459,306.007z"/>
	<path fill="#B3B3B3" d="M74.546,316.001l-0.403-1.039h-0.055c-0.351,0.441-0.712,0.748-1.083,0.919s-0.855,0.257-1.453,0.257
		c-0.734,0-1.312-0.21-1.733-0.629c-0.421-0.42-0.632-1.017-0.632-1.791c0-0.812,0.284-1.41,0.851-1.795s1.423-0.598,2.567-0.639
		l1.326-0.041v-0.336c0-0.774-0.396-1.162-1.189-1.162c-0.611,0-1.329,0.186-2.153,0.555l-0.69-1.408
		c0.879-0.461,1.855-0.691,2.926-0.691c1.025,0,1.812,0.224,2.358,0.67c0.547,0.447,0.82,1.126,0.82,2.037v5.094H74.546z
		 M73.931,312.46l-0.807,0.027c-0.606,0.018-1.057,0.127-1.354,0.328c-0.296,0.2-0.444,0.506-0.444,0.916
		c0,0.588,0.337,0.881,1.012,0.881c0.483,0,0.869-0.139,1.159-0.416c0.29-0.278,0.434-0.647,0.434-1.107V312.46z"/>
	<path fill="#B3B3B3" d="M85.203,316.001h-2.085v-4.465c0-0.551-0.098-0.965-0.294-1.24s-0.508-0.414-0.937-0.414
		c-0.583,0-1.005,0.195-1.265,0.585s-0.39,1.036-0.39,1.938v3.596h-2.085v-7.643h1.593l0.28,0.977h0.116
		c0.232-0.369,0.553-0.648,0.96-0.837s0.872-0.284,1.391-0.284c0.889,0,1.563,0.24,2.023,0.722s0.69,1.175,0.69,2.081V316.001z"/>
	<path fill="#B3B3B3" d="M90.453,316.138c-2.379,0-3.568-1.307-3.568-3.918c0-1.299,0.324-2.291,0.971-2.977
		s1.575-1.029,2.782-1.029c0.884,0,1.677,0.174,2.379,0.52l-0.615,1.613c-0.328-0.132-0.633-0.24-0.916-0.324
		s-0.565-0.127-0.848-0.127c-1.084,0-1.627,0.771-1.627,2.311c0,1.495,0.542,2.242,1.627,2.242c0.401,0,0.772-0.053,1.114-0.16
		s0.684-0.274,1.025-0.502v1.783c-0.337,0.215-0.678,0.363-1.022,0.445S90.977,316.138,90.453,316.138z"/>
	<path fill="#B3B3B3" d="M101.493,312.165c0,1.244-0.328,2.218-0.984,2.92c-0.656,0.701-1.57,1.053-2.741,1.053
		c-0.734,0-1.381-0.161-1.941-0.482s-0.991-0.783-1.292-1.385s-0.451-1.303-0.451-2.105c0-1.248,0.326-2.219,0.978-2.912
		c0.652-0.692,1.568-1.039,2.748-1.039c0.734,0,1.381,0.16,1.941,0.479c0.561,0.319,0.991,0.777,1.292,1.375
		C101.343,310.664,101.493,311.363,101.493,312.165z M96.209,312.165c0,0.757,0.124,1.329,0.373,1.717
		c0.249,0.387,0.653,0.58,1.213,0.58c0.556,0,0.956-0.191,1.2-0.577s0.366-0.958,0.366-1.72c0-0.756-0.123-1.323-0.369-1.701
		c-0.246-0.379-0.649-0.568-1.21-0.568c-0.556,0-0.957,0.188-1.203,0.564S96.209,311.404,96.209,312.165z"/>
	<path fill="#B3B3B3" d="M108.63,316.001l-0.28-0.979h-0.109c-0.223,0.355-0.54,0.631-0.95,0.824s-0.877,0.291-1.401,0.291
		c-0.898,0-1.575-0.24-2.03-0.722s-0.684-1.173-0.684-2.075v-4.982h2.085v4.463c0,0.552,0.098,0.965,0.294,1.241
		s0.508,0.413,0.937,0.413c0.583,0,1.005-0.194,1.265-0.584s0.39-1.035,0.39-1.938v-3.596h2.085v7.643H108.63z"/>
	<path fill="#B3B3B3" d="M114.235,316.001l-2.912-7.643h2.181l1.477,4.354c0.164,0.552,0.267,1.074,0.308,1.566h0.041
		c0.023-0.438,0.125-0.96,0.308-1.566l1.47-4.354h2.181l-2.912,7.643H114.235z"/>
	<path fill="#B3B3B3" d="M123.84,316.138c-1.23,0-2.192-0.34-2.885-1.02c-0.693-0.679-1.039-1.641-1.039-2.885
		c0-1.28,0.32-2.27,0.96-2.97s1.525-1.05,2.656-1.05c1.08,0,1.921,0.309,2.522,0.924s0.902,1.465,0.902,2.549v1.012h-4.929
		c0.023,0.593,0.198,1.056,0.526,1.389c0.328,0.332,0.789,0.498,1.381,0.498c0.46,0,0.896-0.047,1.306-0.143
		s0.838-0.249,1.285-0.459v1.613c-0.365,0.183-0.754,0.318-1.169,0.407S124.437,316.138,123.84,316.138z M123.546,309.698
		c-0.442,0-0.789,0.14-1.039,0.42s-0.394,0.678-0.431,1.193h2.926c-0.009-0.516-0.144-0.913-0.403-1.193
		S123.988,309.698,123.546,309.698z"/>
	<path fill="#B3B3B3" d="M132.918,308.214c0.283,0,0.517,0.021,0.704,0.062l-0.157,1.955c-0.168-0.046-0.374-0.068-0.615-0.068
		c-0.666,0-1.184,0.17-1.555,0.512s-0.557,0.82-0.557,1.436v3.891h-2.085v-7.643h1.579l0.308,1.285h0.103
		c0.237-0.429,0.557-0.773,0.96-1.036S132.444,308.214,132.918,308.214z"/>
	<path fill="#B3B3B3" d="M144.71,313.226c0,0.902-0.325,1.613-0.974,2.133s-1.553,0.779-2.71,0.779c-1.066,0-2.01-0.201-2.83-0.602
		v-1.969c0.674,0.301,1.245,0.512,1.712,0.635s0.895,0.186,1.282,0.186c0.465,0,0.821-0.09,1.07-0.268s0.373-0.441,0.373-0.793
		c0-0.195-0.055-0.369-0.164-0.522s-0.27-0.3-0.482-0.44c-0.212-0.142-0.644-0.367-1.295-0.678
		c-0.611-0.287-1.069-0.562-1.374-0.826c-0.305-0.265-0.549-0.572-0.731-0.924c-0.182-0.351-0.273-0.761-0.273-1.23
		c0-0.884,0.3-1.578,0.899-2.084s1.428-0.76,2.485-0.76c0.52,0,1.015,0.062,1.487,0.186s0.965,0.296,1.48,0.52l-0.684,1.646
		c-0.533-0.219-0.974-0.371-1.323-0.457c-0.349-0.087-0.691-0.131-1.029-0.131c-0.401,0-0.708,0.094-0.923,0.281
		c-0.214,0.187-0.321,0.43-0.321,0.73c0,0.188,0.043,0.35,0.13,0.489s0.225,0.273,0.414,0.403s0.637,0.363,1.343,0.701
		c0.934,0.446,1.575,0.895,1.921,1.343S144.71,312.573,144.71,313.226z"/>
	<path fill="#B3B3B3" d="M149.577,314.476c0.365,0,0.802-0.079,1.312-0.238v1.551c-0.52,0.232-1.158,0.35-1.914,0.35
		c-0.834,0-1.441-0.211-1.822-0.633s-0.571-1.054-0.571-1.896v-3.686h-0.998v-0.881l1.148-0.697l0.602-1.613h1.333v1.627h2.14v1.564
		h-2.14v3.686c0,0.296,0.083,0.515,0.25,0.656C149.084,314.405,149.304,314.476,149.577,314.476z"/>
	<path fill="#B3B3B3" d="M159.38,312.165c0,1.244-0.328,2.218-0.984,2.92c-0.656,0.701-1.57,1.053-2.741,1.053
		c-0.734,0-1.381-0.161-1.941-0.482s-0.991-0.783-1.292-1.385s-0.451-1.303-0.451-2.105c0-1.248,0.326-2.219,0.978-2.912
		c0.652-0.692,1.568-1.039,2.748-1.039c0.734,0,1.381,0.16,1.941,0.479c0.561,0.319,0.991,0.777,1.292,1.375
		C159.229,310.664,159.38,311.363,159.38,312.165z M154.096,312.165c0,0.757,0.124,1.329,0.373,1.717
		c0.249,0.387,0.653,0.58,1.213,0.58c0.556,0,0.956-0.191,1.2-0.577s0.366-0.958,0.366-1.72c0-0.756-0.123-1.323-0.369-1.701
		c-0.246-0.379-0.649-0.568-1.21-0.568c-0.556,0-0.957,0.188-1.203,0.564S154.096,311.404,154.096,312.165z"/>
	<path fill="#B3B3B3" d="M165.368,308.214c0.283,0,0.517,0.021,0.704,0.062l-0.157,1.955c-0.168-0.046-0.374-0.068-0.615-0.068
		c-0.666,0-1.184,0.17-1.555,0.512s-0.557,0.82-0.557,1.436v3.891h-2.085v-7.643h1.579l0.308,1.285h0.103
		c0.237-0.429,0.557-0.773,0.96-1.036S164.894,308.214,165.368,308.214z"/>
	<path fill="#B3B3B3" d="M170.919,316.138c-1.23,0-2.192-0.34-2.885-1.02c-0.693-0.679-1.039-1.641-1.039-2.885
		c0-1.28,0.32-2.27,0.96-2.97s1.525-1.05,2.656-1.05c1.08,0,1.921,0.309,2.522,0.924s0.902,1.465,0.902,2.549v1.012h-4.929
		c0.023,0.593,0.198,1.056,0.526,1.389c0.328,0.332,0.789,0.498,1.381,0.498c0.46,0,0.896-0.047,1.306-0.143
		s0.838-0.249,1.285-0.459v1.613c-0.365,0.183-0.754,0.318-1.169,0.407S171.516,316.138,170.919,316.138z M170.625,309.698
		c-0.442,0-0.789,0.14-1.039,0.42s-0.394,0.678-0.431,1.193h2.926c-0.009-0.516-0.144-0.913-0.403-1.193
		S171.067,309.698,170.625,309.698z"/>
</g>
<path fill="#EC1B52" d="M141,132c0,2.209-1.791,4-4,4h-34c-2.209,0-4-1.791-4-4v-16c0-2.209,1.791-4,4-4h34c2.209,0,4,1.791,4,4V132
	z"/>
<g>
	<path fill="#B3B3B3" d="M262.523,315.125h-5.162v-0.768l2.068-2.078c0.63-0.638,1.045-1.093,1.246-1.365
		c0.2-0.271,0.351-0.537,0.451-0.795c0.1-0.258,0.15-0.535,0.15-0.832c0-0.419-0.127-0.751-0.382-0.996
		c-0.255-0.246-0.606-0.368-1.058-0.368c-0.326,0-0.635,0.054-0.927,0.161s-0.617,0.303-0.976,0.586l-0.473-0.607
		c0.724-0.602,1.512-0.902,2.363-0.902c0.738,0,1.316,0.189,1.735,0.566c0.419,0.378,0.628,0.886,0.628,1.523
		c0,0.497-0.139,0.99-0.418,1.477s-0.803,1.104-1.568,1.848l-1.719,1.682v0.043h4.039V315.125z"/>
	<path fill="#B3B3B3" d="M266.954,315.125h-0.87v-5.596c0-0.466,0.014-0.906,0.043-1.322c-0.075,0.076-0.159,0.154-0.252,0.236
		c-0.094,0.083-0.52,0.432-1.279,1.048l-0.473-0.612l2.079-1.605h0.752V315.125z"/>
	<path fill="#B3B3B3" d="M272.54,307.16c0.716,0,1.284,0.166,1.702,0.5c0.42,0.332,0.629,0.793,0.629,1.38
		c0,0.387-0.12,0.739-0.359,1.058c-0.24,0.319-0.623,0.609-1.15,0.871c0.638,0.304,1.091,0.623,1.359,0.959
		c0.269,0.334,0.402,0.722,0.402,1.162c0,0.652-0.227,1.172-0.682,1.561s-1.078,0.582-1.869,0.582c-0.838,0-1.482-0.184-1.934-0.551
		c-0.451-0.366-0.677-0.887-0.677-1.56c0-0.899,0.548-1.599,1.644-2.101c-0.494-0.279-0.849-0.58-1.063-0.904
		s-0.322-0.688-0.322-1.088c0-0.569,0.21-1.023,0.631-1.361S271.834,307.16,272.54,307.16z M270.843,313.144
		c0,0.43,0.149,0.765,0.448,1.005c0.299,0.239,0.719,0.359,1.26,0.359c0.533,0,0.949-0.125,1.246-0.376s0.445-0.595,0.445-1.031
		c0-0.347-0.139-0.656-0.418-0.927c-0.279-0.27-0.767-0.532-1.461-0.787c-0.534,0.229-0.921,0.482-1.16,0.76
		C270.963,312.425,270.843,312.757,270.843,313.144z M272.529,307.885c-0.447,0-0.799,0.107-1.053,0.322s-0.381,0.502-0.381,0.859
		c0,0.33,0.105,0.613,0.316,0.85s0.602,0.473,1.171,0.709c0.513-0.215,0.874-0.446,1.088-0.693c0.213-0.247,0.319-0.535,0.319-0.865
		c0-0.361-0.13-0.648-0.39-0.861C273.342,307.992,272.984,307.885,272.529,307.885z"/>
	<path fill="#B3B3B3" d="M284.609,309.561c0,0.795-0.271,1.406-0.814,1.834c-0.543,0.429-1.318,0.643-2.328,0.643h-0.924v3.088
		h-0.913v-7.852h2.036C283.628,307.273,284.609,308.035,284.609,309.561z M280.543,311.253h0.822c0.809,0,1.395-0.131,1.756-0.392
		c0.361-0.262,0.543-0.681,0.543-1.258c0-0.519-0.17-0.905-0.511-1.16c-0.341-0.254-0.87-0.381-1.59-0.381h-1.021V311.253z"/>
	<path fill="#B3B3B3" d="M286.043,307.644c0-0.204,0.051-0.354,0.15-0.448c0.1-0.096,0.226-0.143,0.376-0.143
		c0.144,0,0.267,0.049,0.37,0.145c0.104,0.098,0.156,0.246,0.156,0.446s-0.052,0.351-0.156,0.448
		c-0.104,0.099-0.227,0.148-0.37,0.148c-0.15,0-0.276-0.05-0.376-0.148C286.094,307.994,286.043,307.844,286.043,307.644z
		 M287.01,315.125h-0.892v-5.887h0.892V315.125z"/>
	<path fill="#B3B3B3" d="M292.929,315.125v-3.808c0-0.479-0.109-0.838-0.327-1.074c-0.219-0.236-0.561-0.354-1.026-0.354
		c-0.616,0-1.067,0.166-1.354,0.5c-0.286,0.332-0.43,0.883-0.43,1.648v3.088H288.9v-5.887h0.725l0.146,0.807h0.043
		c0.183-0.291,0.438-0.516,0.769-0.674c0.329-0.16,0.695-0.24,1.101-0.24c0.709,0,1.243,0.172,1.601,0.514s0.537,0.889,0.537,1.641
		v3.84H292.929z"/>
	<path fill="#B3B3B3" d="M298.139,315.232c-0.87,0-1.557-0.265-2.061-0.795c-0.502-0.529-0.754-1.266-0.754-2.207
		c0-0.949,0.234-1.703,0.701-2.262s1.095-0.838,1.883-0.838c0.737,0,1.32,0.243,1.75,0.729c0.43,0.484,0.645,1.125,0.645,1.92v0.564
		h-4.055c0.018,0.69,0.192,1.215,0.523,1.573c0.332,0.358,0.798,0.537,1.399,0.537c0.634,0,1.261-0.132,1.88-0.397v0.795
		c-0.314,0.137-0.613,0.234-0.895,0.293S298.536,315.232,298.139,315.232z M297.896,309.878c-0.473,0-0.85,0.153-1.131,0.462
		c-0.28,0.309-0.445,0.734-0.496,1.278h3.078c0-0.562-0.126-0.993-0.377-1.292C298.721,310.027,298.362,309.878,297.896,309.878z"/>
	<path fill="#B3B3B3" d="M305.729,311.859v3.266h-0.914v-7.852h2.154c0.963,0,1.675,0.184,2.135,0.553
		c0.461,0.369,0.69,0.924,0.69,1.665c0,1.038-0.526,1.74-1.579,2.105l2.133,3.528h-1.08l-1.901-3.266H305.729z M305.729,311.076
		h1.251c0.645,0,1.117-0.129,1.418-0.385s0.451-0.64,0.451-1.152c0-0.519-0.153-0.893-0.459-1.122
		c-0.307-0.229-0.798-0.344-1.475-0.344h-1.187V311.076z"/>
	<path fill="#B3B3B3" d="M315.487,314.336h-0.048c-0.412,0.598-1.028,0.896-1.848,0.896c-0.771,0-1.369-0.263-1.797-0.789
		s-0.643-1.275-0.643-2.245s0.215-1.724,0.645-2.261s1.028-0.807,1.795-0.807c0.798,0,1.41,0.291,1.836,0.871h0.07l-0.037-0.425
		l-0.021-0.413v-2.396h0.891v8.357h-0.725L315.487,314.336z M313.704,314.486c0.608,0,1.05-0.166,1.324-0.496
		c0.273-0.332,0.411-0.866,0.411-1.604v-0.188c0-0.835-0.139-1.43-0.417-1.786c-0.277-0.355-0.72-0.534-1.329-0.534
		c-0.523,0-0.923,0.203-1.2,0.61c-0.278,0.406-0.417,0.979-0.417,1.721c0,0.752,0.139,1.319,0.414,1.703
		C312.766,314.295,313.17,314.486,313.704,314.486z"/>
</g>
<g>
	<path fill="#FFFFFF" d="M115.061,127.75h-4.111v-7.139h4.111v1.24h-2.598v1.567h2.417v1.24h-2.417v1.841h2.598V127.75z"/>
	<path fill="#FFFFFF" d="M118.162,127.848c-0.641,0-1.145-0.249-1.511-0.747s-0.549-1.188-0.549-2.07
		c0-0.895,0.187-1.593,0.559-2.092s0.886-0.75,1.541-0.75c0.687,0,1.211,0.267,1.572,0.801h0.049
		c-0.075-0.407-0.112-0.77-0.112-1.089v-1.748h1.494v7.598h-1.143l-0.288-0.708h-0.063
		C119.371,127.579,118.855,127.848,118.162,127.848z M118.684,126.661c0.381,0,0.66-0.111,0.837-0.332s0.274-0.597,0.291-1.128
		v-0.161c0-0.586-0.09-1.006-0.271-1.26s-0.475-0.381-0.881-0.381c-0.332,0-0.59,0.141-0.774,0.422s-0.276,0.691-0.276,1.228
		s0.093,0.94,0.278,1.208S118.339,126.661,118.684,126.661z"/>
	<path fill="#FFFFFF" d="M122.698,120.88c0-0.485,0.27-0.728,0.811-0.728s0.811,0.243,0.811,0.728c0,0.231-0.067,0.411-0.203,0.54
		s-0.338,0.193-0.608,0.193C122.968,121.612,122.698,121.368,122.698,120.88z M124.25,127.75h-1.489v-5.459h1.489V127.75z"/>
	<path fill="#FFFFFF" d="M128.113,126.661c0.26,0,0.573-0.057,0.938-0.171v1.108c-0.371,0.166-0.827,0.249-1.367,0.249
		c-0.596,0-1.029-0.15-1.301-0.452s-0.408-0.753-0.408-1.355v-2.632h-0.713v-0.63l0.82-0.498l0.43-1.152h0.952v1.162h1.528v1.118
		h-1.528v2.632c0,0.211,0.06,0.368,0.178,0.469S127.917,126.661,128.113,126.661z"/>
</g>
<path fill="#EDEDED" d="M91,132c0,2.209-1.791,4-4,4H23c-2.209,0-4-1.791-4-4v-16c0-2.209,1.791-4,4-4h64c2.209,0,4,1.791,4,4V132z"
	/>
<g>
	<path fill="#999999" d="M37.581,127.598l-0.518-1.699H34.46l-0.518,1.699h-1.631l2.52-7.168h1.851l2.529,7.168H37.581z
		 M36.702,124.629c-0.479-1.54-0.748-2.411-0.808-2.612s-0.104-0.361-0.129-0.479c-0.107,0.417-0.415,1.447-0.923,3.091H36.702z"/>
	<path fill="#999999" d="M45.032,127.598h-1.489v-3.188c0-0.394-0.07-0.689-0.21-0.886s-0.363-0.295-0.669-0.295
		c-0.417,0-0.718,0.139-0.903,0.417s-0.278,0.74-0.278,1.384v2.568h-1.489v-5.459h1.138l0.2,0.698h0.083
		c0.166-0.264,0.395-0.463,0.686-0.598s0.623-0.203,0.994-0.203c0.635,0,1.117,0.172,1.445,0.515s0.493,0.839,0.493,1.487V127.598z"
		/>
	<path fill="#999999" d="M50.032,127.598l-0.288-0.742h-0.039c-0.25,0.316-0.509,0.535-0.774,0.657s-0.611,0.183-1.038,0.183
		c-0.524,0-0.937-0.15-1.238-0.449s-0.452-0.726-0.452-1.279c0-0.58,0.203-1.007,0.608-1.282s1.017-0.427,1.833-0.457l0.947-0.029
		v-0.239c0-0.553-0.283-0.83-0.85-0.83c-0.436,0-0.949,0.132-1.538,0.396l-0.493-1.006c0.628-0.329,1.325-0.493,2.09-0.493
		c0.732,0,1.294,0.16,1.685,0.479s0.586,0.804,0.586,1.455v3.638H50.032z M49.592,125.068l-0.576,0.02
		c-0.433,0.013-0.755,0.091-0.967,0.234s-0.317,0.361-0.317,0.654c0,0.42,0.241,0.63,0.723,0.63c0.345,0,0.621-0.099,0.828-0.298
		s0.31-0.462,0.31-0.791V125.068z"/>
	<path fill="#999999" d="M54.094,127.598h-1.489V120h1.489V127.598z"/>
	<path fill="#999999" d="M54.875,122.139h1.631l1.03,3.071c0.088,0.267,0.148,0.583,0.181,0.947h0.029
		c0.036-0.335,0.106-0.651,0.21-0.947l1.011-3.071h1.597l-2.31,6.157c-0.211,0.57-0.514,0.996-0.906,1.279S56.498,130,55.974,130
		c-0.257,0-0.509-0.028-0.757-0.083v-1.182c0.179,0.042,0.375,0.063,0.586,0.063c0.264,0,0.494-0.081,0.691-0.242
		s0.351-0.404,0.461-0.73l0.088-0.269L54.875,122.139z"/>
	<path fill="#999999" d="M63.645,126.509c0.26,0,0.573-0.057,0.938-0.171v1.108c-0.371,0.166-0.827,0.249-1.367,0.249
		c-0.596,0-1.029-0.15-1.301-0.452s-0.408-0.753-0.408-1.355v-2.632h-0.713v-0.63l0.82-0.498l0.43-1.152h0.952v1.162h1.528v1.118
		h-1.528v2.632c0,0.211,0.06,0.368,0.178,0.469S63.45,126.509,63.645,126.509z"/>
	<path fill="#999999" d="M65.623,120.728c0-0.485,0.27-0.728,0.811-0.728s0.811,0.243,0.811,0.728c0,0.231-0.067,0.411-0.203,0.54
		s-0.338,0.193-0.608,0.193C65.893,121.46,65.623,121.216,65.623,120.728z M67.175,127.598h-1.489v-5.459h1.489V127.598z"/>
	<path fill="#999999" d="M70.955,127.695c-1.699,0-2.549-0.933-2.549-2.798c0-0.928,0.231-1.637,0.693-2.126
		s1.125-0.735,1.987-0.735c0.631,0,1.198,0.124,1.699,0.371l-0.439,1.152c-0.234-0.094-0.453-0.172-0.654-0.232
		s-0.404-0.09-0.605-0.09c-0.775,0-1.162,0.55-1.162,1.65c0,1.068,0.387,1.602,1.162,1.602c0.287,0,0.552-0.038,0.796-0.115
		s0.488-0.196,0.732-0.359v1.274c-0.241,0.153-0.484,0.259-0.73,0.317S71.329,127.695,70.955,127.695z"/>
	<path fill="#999999" d="M77.688,125.977c0,0.56-0.194,0.986-0.583,1.279s-0.971,0.439-1.746,0.439
		c-0.397,0-0.736-0.027-1.016-0.081s-0.542-0.133-0.786-0.237v-1.23c0.277,0.13,0.588,0.239,0.935,0.327s0.652,0.132,0.916,0.132
		c0.541,0,0.811-0.156,0.811-0.469c0-0.117-0.036-0.212-0.107-0.286s-0.195-0.156-0.371-0.249s-0.41-0.201-0.703-0.325
		c-0.42-0.176-0.729-0.338-0.925-0.488s-0.34-0.321-0.43-0.515s-0.134-0.432-0.134-0.715c0-0.485,0.188-0.86,0.564-1.125
		s0.909-0.398,1.599-0.398c0.658,0,1.297,0.143,1.919,0.43l-0.449,1.074c-0.273-0.117-0.529-0.213-0.767-0.288
		s-0.48-0.112-0.728-0.112c-0.439,0-0.659,0.119-0.659,0.356c0,0.133,0.071,0.249,0.212,0.347s0.452,0.243,0.93,0.435
		c0.426,0.172,0.739,0.333,0.938,0.483s0.345,0.322,0.439,0.518S77.688,125.707,77.688,125.977z"/>
</g>
</svg>
