<?xml version="1.0" encoding="utf-8"?>
<!-- Generator: Adobe Illustrator 15.0.0, SVG Export Plug-In . SVG Version: 6.00 Build 0)  -->
<!DOCTYPE svg PUBLIC "-//W3C//DTD SVG 1.1//EN" "http://www.w3.org/Graphics/SVG/1.1/DTD/svg11.dtd">
<svg version="1.1" id="Layer_1" xmlns="http://www.w3.org/2000/svg" xmlns:xlink="http://www.w3.org/1999/xlink" x="0px" y="0px"
	 width="500px" height="436.939px" viewBox="-59 0 500 436.939" enable-background="new -59 0 500 436.939" xml:space="preserve">
<rect x="-59" y="97.97" fill="#EDEDED" width="500" height="1"/>
<rect x="-59" y="157.97" fill="#EDEDED" width="500" height="1"/>
<rect x="-59" y="217.97" fill="#EDEDED" width="500" height="1"/>
<rect x="-59" y="277.97" fill="#EDEDED" width="500" height="1"/>
<rect x="-59" y="337.97" fill="#EDEDED" width="500" height="1"/>
<rect x="-59" y="397.97" fill="#EDEDED" width="500" height="1"/>
<polygon opacity="0.15" fill="#349CA5" points="-58.032,378.116 -59,436.939 441,436.939 440.423,59.585 404.423,74.585 
	321.65,123.434 236.922,128.509 154.789,181.007 70.579,378.97 -13.756,340.728 "/>
<circle fill="#349CA5" cx="-14" cy="338.97" r="8"/>
<circle fill="#349CA5" cx="69.8" cy="376.97" r="8"/>
<circle fill="#349CA5" cx="153.6" cy="179.97" r="8"/>
<circle fill="#349CA5" cx="237.4" cy="129.97" r="8"/>
<circle fill="#349CA5" cx="405" cy="75.97" r="8"/>
<circle fill="#349CA5" cx="321.2" cy="121.97" r="8"/>
<polygon fill="#349CA5" points="440.423,59.585 404.423,74.585 320.75,120.506 236.922,128.509 152.832,178.682 152.411,178.932 
	69.021,374.97 -14.244,337.212 -59.968,375.823 -58.032,378.116 -13.756,340.728 70.579,378.97 154.789,181.007 237.879,131.431 
	321.65,123.434 405.651,77.323 441.577,62.354 "/>
<g>
	<g>
		<path fill="#FFFFFF" d="M205.6,44.612h-104c-3.86,0-7,3.14-7,7v64c0,3.86,3.14,7,7,7h104c3.859,0,7-3.14,7-7v-64
			C212.6,47.752,209.459,44.612,205.6,44.612z"/>
		<path fill="#CCCCCC" d="M205.6,42.612h-104c-4.962,0-9,4.038-9,9v64c0,4.962,4.038,9,9,9h104c4.963,0,9-4.038,9-9v-64
			C214.6,46.65,210.563,42.612,205.6,42.612z M212.6,115.612c0,3.86-3.141,7-7,7h-104c-3.86,0-7-3.14-7-7v-64c0-3.86,3.14-7,7-7h104
			c3.859,0,7,3.14,7,7V115.612z"/>
	</g>
	<g>
		<g>
			<path fill="#999999" d="M121.294,105.606c-0.41,0-0.768-0.043-1.072-0.129v-1.512c0.312,0.078,0.598,0.117,0.855,0.117
				c0.398,0,0.684-0.124,0.855-0.372s0.258-0.636,0.258-1.163V94.52h1.816v8.016c0,1-0.229,1.762-0.686,2.285
				S122.189,105.606,121.294,105.606z"/>
			<path fill="#999999" d="M133.136,94.52v5.543c0,0.633-0.142,1.188-0.425,1.664s-0.692,0.842-1.228,1.096
				s-1.168,0.381-1.898,0.381c-1.102,0-1.957-0.282-2.566-0.847s-0.914-1.337-0.914-2.317v-5.52h1.811v5.244
				c0,0.66,0.133,1.145,0.398,1.453s0.705,0.463,1.318,0.463c0.594,0,1.024-0.155,1.292-0.466s0.401-0.798,0.401-1.462V94.52
				H133.136z"/>
			<path fill="#999999" d="M135.234,103.086V94.52h1.816v7.066h3.475v1.5H135.234z"/>
			<path fill="#999999" d="M144.679,98.047l1.787-3.527h1.957l-2.842,5.232v3.334h-1.805v-3.275l-2.842-5.291h1.969L144.679,98.047z
				"/>
			<path fill="#999999" d="M157.505,94.52h1.834l-2.912,8.566h-1.98l-2.906-8.566h1.834l1.611,5.098
				c0.09,0.301,0.183,0.651,0.278,1.052s0.155,0.679,0.179,0.835c0.043-0.359,0.189-0.988,0.439-1.887L157.505,94.52z"/>
			<path fill="#999999" d="M160.417,103.086V94.52h1.816v8.566H160.417z"/>
			<path fill="#999999" d="M169.447,100.708c0,0.773-0.278,1.383-0.835,1.828s-1.331,0.668-2.323,0.668
				c-0.914,0-1.723-0.172-2.426-0.516V101c0.578,0.258,1.067,0.439,1.468,0.545s0.767,0.158,1.099,0.158
				c0.398,0,0.704-0.076,0.917-0.229s0.319-0.379,0.319-0.68c0-0.168-0.047-0.317-0.141-0.448s-0.231-0.257-0.413-0.378
				s-0.552-0.314-1.11-0.58c-0.523-0.246-0.916-0.482-1.178-0.709s-0.471-0.49-0.627-0.791s-0.234-0.652-0.234-1.055
				c0-0.758,0.257-1.354,0.771-1.787s1.224-0.65,2.13-0.65c0.445,0,0.87,0.053,1.274,0.158s0.827,0.254,1.269,0.445l-0.586,1.412
				c-0.457-0.188-0.835-0.318-1.134-0.393s-0.593-0.111-0.882-0.111c-0.344,0-0.607,0.08-0.791,0.24s-0.275,0.369-0.275,0.627
				c0,0.16,0.037,0.3,0.111,0.419s0.192,0.234,0.354,0.346s0.546,0.312,1.151,0.601c0.801,0.383,1.35,0.767,1.646,1.151
				S169.447,100.149,169.447,100.708z"/>
			<path fill="#999999" d="M171,103.086V94.52h1.816v8.566H171z"/>
			<path fill="#999999" d="M178.277,103.086h-1.816v-7.055h-2.326V94.52h6.469v1.512h-2.326V103.086z"/>
			<path fill="#999999" d="M186.978,100.708c0,0.773-0.278,1.383-0.835,1.828s-1.331,0.668-2.323,0.668
				c-0.914,0-1.723-0.172-2.426-0.516V101c0.578,0.258,1.067,0.439,1.468,0.545s0.767,0.158,1.099,0.158
				c0.398,0,0.704-0.076,0.917-0.229s0.319-0.379,0.319-0.68c0-0.168-0.047-0.317-0.141-0.448s-0.231-0.257-0.413-0.378
				s-0.552-0.314-1.11-0.58c-0.523-0.246-0.916-0.482-1.178-0.709s-0.471-0.49-0.627-0.791s-0.234-0.652-0.234-1.055
				c0-0.758,0.257-1.354,0.771-1.787s1.224-0.65,2.13-0.65c0.445,0,0.87,0.053,1.274,0.158s0.827,0.254,1.269,0.445l-0.586,1.412
				c-0.457-0.188-0.835-0.318-1.134-0.393s-0.593-0.111-0.882-0.111c-0.344,0-0.607,0.08-0.791,0.24s-0.275,0.369-0.275,0.627
				c0,0.16,0.037,0.3,0.111,0.419s0.192,0.234,0.354,0.346s0.546,0.312,1.151,0.601c0.801,0.383,1.35,0.767,1.646,1.151
				S186.978,100.149,186.978,100.708z"/>
		</g>
		<g>
			<path fill="#666666" d="M132.484,82.892h-13.139v-1.955l5.264-5.291c1.604-1.622,2.661-2.78,3.172-3.473
				c0.511-0.692,0.894-1.367,1.148-2.023s0.383-1.362,0.383-2.119c0-1.066-0.323-1.912-0.971-2.536
				c-0.647-0.624-1.545-0.937-2.693-0.937c-0.829,0-1.616,0.137-2.358,0.41c-0.743,0.273-1.57,0.771-2.481,1.49l-1.203-1.545
				c1.841-1.531,3.847-2.297,6.016-2.297c1.878,0,3.35,0.481,4.416,1.442c1.066,0.962,1.6,2.254,1.6,3.876
				c0,1.267-0.355,2.521-1.066,3.76c-0.711,1.24-2.042,2.808-3.992,4.703l-4.375,4.279v0.109h10.281V82.892z"/>
			<path fill="#666666" d="M143.763,82.892h-2.215V68.646c0-1.185,0.036-2.306,0.109-3.363c-0.191,0.191-0.405,0.392-0.643,0.602
				c-0.237,0.21-1.321,1.099-3.254,2.666l-1.203-1.559l5.291-4.088h1.914V82.892z"/>
			<path fill="#666666" d="M152.076,81.443c0-0.61,0.139-1.073,0.417-1.388c0.277-0.314,0.677-0.472,1.196-0.472
				c0.528,0,0.94,0.157,1.237,0.472c0.296,0.314,0.444,0.777,0.444,1.388c0,0.593-0.15,1.048-0.451,1.367s-0.711,0.479-1.23,0.479
				c-0.465,0-0.851-0.144-1.155-0.431C152.228,82.571,152.076,82.099,152.076,81.443z"/>
			<path fill="#666666" d="M165.433,62.617c1.823,0,3.268,0.424,4.334,1.271s1.6,2.019,1.6,3.514c0,0.984-0.306,1.882-0.916,2.693
				c-0.61,0.812-1.586,1.55-2.926,2.215c1.622,0.775,2.775,1.588,3.459,2.44c0.684,0.853,1.025,1.839,1.025,2.96
				c0,1.659-0.579,2.983-1.736,3.972c-1.157,0.989-2.743,1.483-4.758,1.483c-2.133,0-3.773-0.467-4.922-1.401
				c-1.148-0.934-1.723-2.258-1.723-3.972c0-2.288,1.395-4.069,4.184-5.346c-1.258-0.711-2.16-1.479-2.707-2.304
				c-0.547-0.825-0.82-1.748-0.82-2.769c0-1.449,0.535-2.604,1.606-3.466C162.204,63.047,163.637,62.617,165.433,62.617z
				 M161.113,77.847c0,1.094,0.38,1.946,1.142,2.557c0.761,0.611,1.83,0.916,3.206,0.916c1.358,0,2.415-0.319,3.172-0.957
				c0.757-0.638,1.135-1.513,1.135-2.625c0-0.884-0.355-1.67-1.066-2.358c-0.711-0.688-1.95-1.355-3.719-2.003
				c-1.358,0.583-2.343,1.229-2.953,1.935C161.418,76.018,161.113,76.863,161.113,77.847z M165.406,64.462
				c-1.14,0-2.032,0.273-2.68,0.82s-0.971,1.276-0.971,2.188c0,0.839,0.269,1.559,0.807,2.16s1.531,1.203,2.98,1.805
				c1.304-0.547,2.226-1.135,2.769-1.764c0.542-0.629,0.813-1.362,0.813-2.201c0-0.92-0.331-1.652-0.991-2.194
				C167.472,64.734,166.563,64.462,165.406,64.462z"/>
			<path fill="#666666" d="M178.107,75.222c0.392-0.556,0.989-1.285,1.791-2.188l4.84-5.127h2.693l-6.07,6.385l6.494,8.6h-2.748
				l-5.291-7.082l-1.709,1.477v5.605h-2.242V61.619h2.242v11.279c0,0.501-0.036,1.276-0.109,2.324H178.107z"/>
		</g>
	</g>
</g>
<g>
	<path fill="#FFFFFF" d="M140.165,121.97l11.314,11.314c1.169,1.17,3.073,1.17,4.242,0l11.314-11.314"/>
	<path fill="#CCCCCC" d="M166.393,122.612l-10.671,10.671c-1.169,1.17-3.073,1.17-4.242,0l-10.671-10.671l-2.057,0.772
		l11.313,11.313c1.95,1.95,5.122,1.95,7.071,0l11.313-11.313L166.393,122.612z"/>
</g>
</svg>
