<?xml version="1.0" encoding="utf-8"?>
<!-- Generator: Adobe Illustrator 15.0.0, SVG Export Plug-In . SVG Version: 6.00 Build 0)  -->
<!DOCTYPE svg PUBLIC "-//W3C//DTD SVG 1.1//EN" "http://www.w3.org/Graphics/SVG/1.1/DTD/svg11.dtd">
<svg version="1.1" id="Layer_1" xmlns="http://www.w3.org/2000/svg" xmlns:xlink="http://www.w3.org/1999/xlink" x="0px" y="0px"
	 width="485.136px" height="385.979px" viewBox="0 0 485.136 385.979" enable-background="new 0 0 485.136 385.979"
	 xml:space="preserve">
<g opacity="0.06">
	<path d="M468.18,224.98H260.72c-9.35,0-17.584,7.354-17.584,16.705v10.48l-9.51,9.824c-1.944,1.945-2.102,5.107-0.157,7.053
		l9.667,9.824v90.482c0,9.35,8.234,16.629,17.584,16.629h207.46c9.351,0,16.956-7.279,16.956-16.629V241.685
		C485.136,232.336,477.53,224.98,468.18,224.98z"/>
</g>
<path opacity="0.06" d="M261.582,5H101.999c-26.95,0-48.873,21.922-48.873,48.871v301.205h1.995h253.34h1.994V53.871
	C310.455,26.922,288.531,5,261.582,5z"/>
<g>
	<g>
		<g>
			<defs>
				<rect id="SVGID_1_" x="67" y="78.816" width="219" height="277"/>
			</defs>
			<clipPath id="SVGID_2_">
				<use xlink:href="#SVGID_1_"  overflow="visible"/>
			</clipPath>
			<g clip-path="url(#SVGID_2_)">
				<rect x="-43.423" y="18.705" fill="#EDEFF0" width="493.714" height="451.488"/>
				<g>
					<path fill="#FFFFFF" d="M41.445,364.008c0.437-0.075,0.841-0.141,1.23-0.202l-0.026-0.142
						C42.27,363.773,41.865,363.889,41.445,364.008z"/>
					<path fill="#FFFFFF" d="M-6.335,430.896c-0.078,0.04-0.155,0.081-0.233,0.125c-0.112,0.51-0.225,1.021-0.339,1.532
						C-6.709,431.982-6.518,431.427-6.335,430.896z"/>
					<path fill="#FFFFFF" d="M27.451,372.189c1.548,3.533,2.868,6.854,4.015,9.922c-0.837-3.338-1.799-6.834-2.899-10.418
						C28.191,371.854,27.819,372.02,27.451,372.189z"/>
					<path fill="#FFFFFF" d="M25.853,368.646c0.505-0.234,1.016-0.459,1.529-0.674c-0.004-0.011-0.007-0.021-0.01-0.029
						c-0.541,0.146-1.086,0.297-1.638,0.447C25.774,368.477,25.812,368.561,25.853,368.646z"/>
					<polygon fill="#FFFFFF" points="-53.434,162.234 -0.354,151.59 -1.121,147.768 -15.478,150.646 -16.951,141.275 -1.546,138.42 
						-2.256,134.586 -32.63,140.217 -31.919,144.049 -20.785,141.986 -19.303,151.414 -54.201,158.412 					"/>
					<path fill="#DDDDDD" d="M396.267,422.912l0.584-0.33c1.596-0.48,16.757-4.295,94.691-4.295v-9.094
						c-76.066,0-93.899,3.657-97.563,4.77l-30.239,5.648l-0.341-1.898l17.56-3.463l32.102-5.512l47.975-10.765l-1.992-8.874
						l-2.577,0.579v-18.797l-6.129-32.606l10.07-1.938l-0.737-3.828l-10.053,1.937l-8.304-44.174l16.846-3.32l-1.005-5.102
						l-16.8,3.312l-8.593-45.719l26.39-5.111l-0.988-5.102l-26.361,5.104l-3.71-19.744l33.301-6.164l-0.709-3.834l-33.312,6.168
						l-3.746-19.93l35.873-7.26l13.497-28.394l-25.916,4.55c-0.109,0.018-11.037,1.803-18.978,0.039
						c-4.626-1.027-7.539-1.097-9.675-0.765l-3.211-15.637l36.538-6.461c4.729,3.61,7.87,6,8.438,6.432l4.717-6.205
						c-0.511-0.389-38.151-29.01-61.456-47.459c2.745-1.332,7.226-2.422,11.383-2.838l46.077,2.938l0.247-3.892l-46.388-2.957
						l-0.155,0.017c-2.041,0.194-9.903,1.123-14.429,4.139c-6.616-5.273-11.688-9.441-13.769-11.426
						c-5.206-4.971-7.501-10.564-8.488-14.039l15.495-11.531l74.264-36.059L459.879,0l-47.987,23.299l-2.782-14.065l-3.824,0.756
						l2.98,15.07l-17.366,8.434l-4.534-20.406l-3.807,0.847l1.001,4.506l-47.038,9.676l-2.983-14.984l-3.822,0.761l6.079,30.539
						l-30.184,5.331l-8.903-36.711l-3.788,0.921l8.848,36.469l-11.297,1.994L281.995,13.1l-3.812,0.819l2.768,12.838l-20.354,3.986
						l-2.844-15.846l-3.837,0.688l2.854,15.906l-6.629,1.297l-4.092-19.678l-3.816,0.793l4.082,19.635l-9.042,1.771l-4.649-22.199
						l-3.815,0.799l4.638,22.15l-20.749,4.062l-5.625-27.01l-3.815,0.795l5.616,26.965l-20.601,4.033l-6.742-33.994H126.66
						l8.595,44.377l-44.95,8.803L80.62,13.146l-3.83,0.729l9.689,50.965l-15.7,3.074l-4.958-11.971L62.798,45.55l-20.032,2.064
						l-7.989-35.805l-15.216,3.397l10.801,48.387l2.246,11.796l-36.771,7.198l-13.092-69.44l-3.831,0.723l5.268,27.938l-38.41,8.284
						l0.822,3.812l38.311-8.264l4.45,23.608l-43.494,7.301l0.645,3.845l43.572-7.314l4.035,21.404l-48.275,8.705l0.691,3.836
						l48.306-8.711l4.077,21.623l-53.154,11.85l0.849,3.805l53.027-11.819l7.412,39.311c-30.411,5.322-54.537-0.264-54.782-0.322
						l-0.905,3.791c0.696,0.168,11.878,2.771,28.664,2.771c8.118,0,17.559-0.625,27.744-2.414l5.438,28.846l-2.392,0.465
						l0.102,0.529l-51.114,18.146h-13.618v7.795h14.961l51.244-18.191l11.232,59.08l-72.263,12.855l0.012,0.065
						c-1.56-0.904-2.438-1.447-2.507-1.49l-2.76,4.402c0.248,0.156,2.788,1.738,7.116,4.115l-0.325,0.768
						c0.172,0.072,13.019,5.654,30.834,20.822l-21.261-0.326c-1.15-1.371-2.286-2.717-3.393-4.028
						c-5.881-6.972-10.96-12.994-13.213-16.748l-7.799,4.68c2.383,3.971,6.958,9.502,12.359,15.914l-4.177-0.064l-0.119,7.795
						l10.938,0.168c9.432,11.306,19.525,24.095,23.542,34.304c2.542,6.459,4.512,13.51,5.907,20.852
						c-1.883-0.672-3.362-1.486-4.516-2.338c-1.444-1.066-2.452-2.229-3.158-3.326l0.903-0.147
						c-6.288-38.175-23.119-48.179-23.832-48.586l-2.255,3.948l-2.309,3.918c0.121,0.072,10.589,6.722,16.922,30.474l-14.835-26.771
						l-7.954,4.408l18.27,32.969l0.497-0.274c0.739,2.18,2.136,6.299,3.898,11.514c-1.51-0.484-2.958-1.049-4.319-1.652
						c-0.832-2.719-1.46-4.914-1.787-6.186c-1.529-5.947-6.562-13.344-6.775-13.656l-3.216,2.201
						c0.048,0.07,4.856,7.135,6.217,12.426c0.188,0.732,0.447,1.676,0.765,2.783c-3.622-2.07-5.931-3.924-5.985-3.967l-2.463,3.021
						c0.298,0.242,4.236,3.41,10.028,6.207c2.635,8.461,6.733,20.354,10.153,26.959c2.767,5.342,5.563,15.051,7.606,22.139
						c0.657,2.279,1.168,4.037,1.59,5.412c-1.53,1.248-3.038,2.597-4.509,4.066c-16.825,16.826-19.697,38.442-19.811,39.354
						l9.023,1.138c0.024-0.193,2.665-19.509,17.218-34.062c0.088-0.088,0.179-0.17,0.268-0.258
						c-4.132,16.916-8.74,32.195-8.81,32.428l5.414,1.64l-8.526,1.936l2.588,11.402l51.303-11.646l0.385,1.939l3.823-0.762
						l-0.405-2.039l5.301-1.205c4.739,1.562,7.854,1.961,8.063,1.985l0.468-3.869c-0.011-0.002-0.06-0.008-0.141-0.02l22.671-5.146
						l2.169,10.186l7.625-1.623l-1.987-9.33c7.583,3.109,14.168,4.215,19.693,4.215c6.612,0,11.708-1.582,15.191-3.196
						c5.413-0.263,11.086-1.013,16.932-2.361c6.012-1.387,19.847-4.16,37.406-7.576l0.476,2.439l-77.791,15.409l1.767,8.923
						l77.768-15.406l0.435,2.227l-14.633,2.922l1.018,5.097l14.611-2.918l0.218,1.117l7.651-1.494l-0.224-1.148l42.019-8.393
						l2.718,14.03l5.101-0.987l-2.723-14.062l44.622-8.912l4.753,23.972l5.1-1.011l-4.756-23.979l43.548-8.697l6.769,33.566
						l3.82-0.771l-6.768-33.561l44.555-8.896l7.768,43.3l5.116-0.916l-7.785-43.4l11.356-2.271l77.726-1.618l-0.107-5.195
						l-77.954,1.623l-0.229,0.004l-11.709,2.338l-0.196-1.098l30.563-5.707L396.267,422.912z M451.266,371.367v14.76L408.66,393
						l-8.127-45.135l44.697-8.607L451.266,371.367z M-2.411,405.33c2.747-6.967,7.391-19.799,9.647-32.092
						c4.916-1.229,9.93-2.543,14.671-3.814c0.166,0.351,0.327,0.697,0.487,1.045c-2.431,1.455-4.617,3.191-6.276,5.271
						c-6.469,8.1-15.313,33.694-18.613,43.676c-0.625,0.209-1.25,0.43-1.877,0.666c0.312-1.734,0.597-3.428,0.848-5.068
						C-3.037,411.832-2.67,408.595-2.411,405.33z M-3.047,375.703c1.977-0.449,4.02-0.932,6.104-1.438
						c-1.279,6.315-3.163,12.758-5.022,18.352C-2.01,386.961-2.374,381.289-3.047,375.703z M3.938,339.732
						c6.978,9.242,12.21,18.082,16.231,26.11c-0.057,0.017-0.114,0.031-0.171,0.048c-4.455,1.178-8.439,2.008-12.006,2.553
						c0.354-2.728,0.555-5.383,0.555-7.896C8.547,352.842,6.5,345.682,3.938,339.732z M19.164,378.172
						c1.27-1.59,2.945-2.955,4.837-4.131c3.343,7.658,5.596,14.301,7.346,19.467c0.487,1.438,0.931,2.75,1.347,3.926
						c0.707,2.004,1.59,5.188,2.613,8.873c1.443,5.203,3.182,11.459,5.333,17.904c-3.635-2.375-7.308-4.311-10.905-5.451
						c-7.449-2.36-17.357-3.139-27.674-0.658C5.796,407.041,13.624,385.109,19.164,378.172z M55.585,172.227l-7.563,1.36
						l-2.434-13.899c2.389-0.459,4.86-0.937,7.405-1.426L55.585,172.227z M53.574,102.137l38.497-7.89l1.943,10.228
						c-14.45,2.678-26.622,4.912-31.35,5.723c-4.761,0.816-7.568-0.57-8.339-4.119L53.574,102.137z M56.296,176.059l2.026,10.916
						l-26.418,5.139l-2.407-11.229L56.296,176.059z M57.502,139.838c0.06-3.532-0.328-8.18-1.61-14.192
						c1.32,0.231,2.752,0.369,4.311,0.369c1.573,0,3.271-0.138,5.095-0.451c4.702-0.806,16.373-2.945,30.311-5.527l4.901,25.088
						c-2.526,0.488-5.032,0.971-7.513,1.451l-3.437-21.209l-3.846,0.623l3.454,21.324c-10.313,1.992-20.153,3.891-29.232,5.641
						L57.502,139.838z M101.259,148.947l2.62,13.412l-28.46,5.875l-1.177-6.115l-3.827,0.736l1.187,6.168l-8.363,1.725
						l-2.591-13.961C73.015,154.402,86.798,151.742,101.259,148.947z M384.275,163.494l-6.572-30.703l6.812-1.324l6.539,30.666
						L384.275,163.494z M397.882,164.738c1.405,4.506,2.734,11.1,1.336,13.635c-0.812,1.228-5.831,2.787-12.545,4.267l-1.751-15.298
						L397.882,164.738z M375.842,244.98l-20.717,4.012l-8.178-42.844l20.231-4.097L375.842,244.98z M371,201.279l20.944-4.238
						l3.706,19.406l-20.813,3.852L371,201.279z M130.211,395.707l-8.883-43.936l18.828-3.717l8.649,44.268L130.211,395.707z
						 M149.552,396.148l3.818,19.543l-18.405,3.53l-3.982-19.694L149.552,396.148z M49.507,357.998l-8.55-44.973l38.48-6.226
						l0.426-2.286l49.812-10.109l8.986,45.998L49.507,357.998z M97.184,375.408l-42.503,8.105l-3.01-14.132l-0.709-3.725
						l42.603-8.408L97.184,375.408z M43.406,367.646l0.614,3.231l6.94,32.588c-3.542-5.178-9.002-15.022-16.867-33.735
						C37.678,368.668,41.063,368.018,43.406,367.646z M41.445,364.008c0.42-0.118,0.825-0.233,1.204-0.344l0.026,0.142
						C42.286,363.867,41.881,363.932,41.445,364.008z M305.374,146.861l6.204,31.233l-20.746,4.169l-6.23-31.361L305.374,146.861z
						 M304.164,120.42l10.729-2.131l3.492,18.101l-10.692,2.079L304.164,120.42z M146.924,265.318l1.962,11.557l-14.123,2.918
						l-5.997-30.696l40.93-8.281l1.446-0.229l3.714,19.183L146.924,265.318z M150.753,287.873l-14.285,0.646l-0.958-4.898
						l14.028-2.9L150.753,287.873z M112.261,164.607l29.083-6.004l2.233,11.787l-29.083,5.655L112.261,164.607z M112.662,207.318
						l-9.814,1.735l-1.542-9.165l9.552-1.812L112.662,207.318z M145.029,178.049l2.326,12.275l-28.923,5.873l-2.443-12.498
						L145.029,178.049z M207.568,213.314l-1.864-9.978l8.36-1.68l2.021,10.186L207.568,213.314z M216.843,215.668l1.778,8.969
						l-8.588,1.869l-1.75-9.358L216.843,215.668z M181.562,221.76l2.083,8.957l-8.851,1.398l-1.722-8.891L181.562,221.76z
						 M172.332,219.396l-1.744-9.006l7.958-1.601l2.131,9.166L172.332,219.396z M182.368,208.023l19.514-3.918l1.845,9.871
						l-19.202,3.315L182.368,208.023z M204.442,217.809l1.746,9.344l-18.683,2.955l-2.097-9.015L204.442,217.809z M169.846,206.562
						l-1.012-5.226l43.634-7.721l0.836,4.217L169.846,206.562z M202.25,191.467l-4.9-23.594l9.641-1.875l4.719,23.795
						L202.25,191.467z M198.411,192.146l-30.318,5.362l-1.382-7.141l30.063-6.104L198.411,192.146z M165.968,186.543l-2.346-12.108
						l7.865-1.531l2.4,12.031L165.968,186.543z M163.715,202.244l1.035,5.342l-42.428,8.523l-1.235-6.322L163.715,202.244z
						 M153.185,200.148l-1.283-6.771l9.714-1.973l1.359,7.012L153.185,200.148z M151.176,189.547l-2.32-12.241l9.667-1.882
						l2.353,12.154L151.176,189.547z M147.404,169.646l-2.242-11.83l9.567-1.976l2.31,11.931L147.404,169.646z M148.081,194.152
						l1.265,6.674l-29.007,5.135l-1.159-5.938L148.081,194.152z M121.125,250.641l3.951,20.221l-41.612,8.861l-3.839-20.687
						L121.125,250.641z M83.748,283.648l42.075-8.961l2.856,14.614l-47.79,9.699L83.748,283.648z M127.271,241.443l-4.202-21.51
						l42.422-8.521l4.167,21.514l-1.346,0.214L127.271,241.443z M175.598,263.594l1.444,7.459l-24.337,5.031l-1.304-7.682
						L175.598,263.594z M177.783,274.879l1.579,8.156l-23.873,4.625l-0.812,0.037l-1.319-7.771L177.783,274.879z M176.278,239.775
						l9.139-1.447l4.561,19.604l9.323,8.518L182.132,270L176.278,239.775z M201.816,269.91l1.295,8.525l-18.647,3.61l-1.592-8.221
						L201.816,269.91z M193.5,255.869l-4.224-18.15l21.425-3.387l9.436-2.053l8.186,41.272l-21.382,4.142l-1.683-11.082
						L193.5,255.869z M268.943,213.982l-19.564,3.961l-25.679,5.588l-1.734-8.748l45.513-7.855L268.943,213.982z M268.111,190.802
						l19.66-3.948l4.455,22.418l-19.465,3.938L268.111,190.802z M221.207,210.959l-2.048-10.324l45.131-9.063l2.396,11.539
						L221.207,210.959z M225.216,231.176l20.045-4.358l3.474,19.264l-19.802,3.836L225.216,231.176z M249.428,249.916l3.406,18.89
						l-19.41,3.76l-3.733-18.826L249.428,249.916z M252.562,245.34l-3.489-19.354l1.907-0.414l19.429-3.932l3.444,19.575
						L252.562,245.34z M274.529,245.055l3.326,18.903l-21.195,4.105l-3.406-18.89L274.529,245.055z M274.23,220.867l44.046-8.916
						l3.798,19.855l-22.488,4.51l4.512,22.561l-22.414,4.342L274.23,220.867z M322.808,235.635l3.619,18.916l-18.504,3.584
						l-3.751-18.762L322.808,235.635z M327.356,259.666l3.904,22.543l-44.685,8.826l-3.994-22.699L327.356,259.666z
						 M331.927,286.051l3.949,22.806l-44.595,8.92l-4.029-22.9L331.927,286.051z M331.185,258.924l21.089-4.086l8.771,45.959
						l-9.348,1.843l-0.258,0.051l-11.817,4.947L331.185,258.924z M330.252,253.811l-8.155-42.634l21.029-4.256l8.172,42.812
						L330.252,253.811z M320.604,203.527l-4.443-22.375l45.048-9.049l4.44,22.307L320.604,203.527z M316.784,204.301l-20.738,4.197
						l-4.454-22.412l20.747-4.166L316.784,204.301z M287.012,183.031l-19.693,3.955l-6.527-31.453l19.984-3.889L287.012,183.031z
						 M263.497,187.754l-45.096,9.058l-6.308-31.806l44.871-8.729L263.497,187.754z M210.576,157.359l-2.48-12.51l45.018-8.869
						l2.348,12.647L210.576,157.359z M207.337,141.025l-2.405-12.125c17.452-3.377,33.074-6.402,45.242-8.76l2.229,12.008
						L207.337,141.025z M205.475,158.352l-9.709,1.889l-2.562-12.342l9.797-2.021L205.475,158.352z M193.524,168.617l2.457,11.83
						l-18.273,3.711l-2.394-12L193.524,168.617z M173.789,164.516l-2.416-12.109l18.012-3.719l2.554,12.297L173.789,164.516z
						 M170.61,148.584l-2.506-12.559c6.069-1.174,12.062-2.334,17.931-3.469l2.557,12.313L170.61,148.584z M169.962,165.258
						l-7.821,1.521l-2.322-11.988l7.735-1.598L169.962,165.258z M159.078,150.965l-2.462-12.717c2.562-0.496,5.117-0.99,7.663-1.481
						l2.514,12.604L159.078,150.965z M155.875,134.422l-2.752-14.207l7.552-1.508l2.841,14.236
						C160.977,133.434,158.43,133.926,155.875,134.422z M153.988,152.014l-9.551,1.973l-2.448-12.91
						c3.178-0.615,6.354-1.229,9.524-1.842L153.988,152.014z M141.263,137.246l-2.678-14.129l9.441-1.885l2.745,14.176
						C147.607,136.02,144.436,136.633,141.263,137.246z M140.618,154.775l-29.105,6.008l-2.601-13.314
						c9.588-1.852,19.407-3.75,29.249-5.651L140.618,154.775z M110.109,194.25l-9.451,1.793l-1.526-9.063l9.207-1.791
						L110.109,194.25z M78.279,183.092l-2.124-11.03l28.47-5.877l2.218,11.354L78.279,183.092z M97.475,200.615l1.534,9.117
						l-15.09,2.67l-1.71-8.889L97.475,200.615z M81.471,199.686l-1.72-8.938l15.553-3.024l1.522,9.049L81.471,199.686z
						 M77.643,200.412l-8.596,1.631l-1.65-8.893l8.528-1.658L77.643,200.412z M78.379,204.24l1.702,8.84l-8.7,1.539l-1.623-8.742
						L78.379,204.24z M113.409,211.145l6.222,31.846l-41.429,8.381l-6.109-32.92L113.409,211.145z M137.475,293.674l18.437-0.829
						l0.191-0.011l24.248-4.694l8.591,44.356l-42.372,7.73L137.475,293.674z M185.453,287.148l43.88-8.498l9.114,45.947
						l-2.805-0.623l-41.587,7.588L185.453,287.148z M234.436,277.662l44.321-8.584l8.702,49.461l-40.146,8.029l-3.323-0.738
						L234.436,277.662z M247.256,331.881l41.168-8.233l8.119,40.271l-43.346,8.347l-8.104-40.863L247.256,331.881z M292.244,322.883
						l44.617-8.924l8.608,40.539l-45.101,8.683L292.244,322.883z M340.61,312.855l12.349-5.17l34.176-6.736l8.842,43.824
						l-46.678,8.985L340.61,312.855z M364.868,300.043l-5.059-26.504l21.047-3.705l5.25,26.021L364.868,300.043z M359.079,269.711
						l-2.98-15.612l20.771-4.023l3.216,15.939L359.079,269.711z M365.029,171.336l16.058-3.225l1.754,15.324
						c-4.681,0.924-9.876,1.776-14.915,2.453L365.029,171.336z M380.462,164.261l-16.193,3.253l-6.152-30.912l15.763-3.066
						L380.462,164.261z M360.447,168.281l-45.047,9.047l-6.201-31.211l45.09-8.771L360.447,168.281z M320.214,125.281l-1.496-7.752
						l7.399-1.471l1.562,7.891L320.214,125.281z M328.438,127.773l1.271,6.412l-7.494,1.459l-1.261-6.535L328.438,127.773z
						 M333.533,133.441l-3.593-18.144l19.199-3.813l3.626,18.215L333.533,133.441z M303.417,116.594l-7.081-36.217l45.007-8.069
						l7.037,35.354L303.417,116.594z M303.866,139.213l-10.513,2.045l-5.345-27.442l10.443-2.291L303.866,139.213z M289.527,142.002
						l-6.502,1.265l-5.789-27.089l6.966-1.526L289.527,142.002z M279.199,144.01l-19.913,3.875L254,119.4
						c8.79-1.703,15.417-2.984,19.146-3.709L279.199,144.01z M253.289,115.568l-4.73-25.496l18.313-3.746l5.461,25.555
						C268.593,112.604,262.005,113.881,253.289,115.568z M249.463,116.309c-12.177,2.356-27.816,5.387-45.29,8.768l-4.94-24.912
						l45.505-9.311L249.463,116.309z M199.829,129.886l2.414,12.166l-9.833,2.031l-2.547-12.268
						C193.234,131.162,196.561,130.52,199.829,129.886z M189.069,128l-2.983-14.367l10.12-2.02l2.865,14.451
						C195.791,126.697,192.453,127.344,189.069,128z M185.293,109.816l-1.355-6.523l10.204-2.088l1.305,6.584L185.293,109.816z
						 M185.242,128.74c-5.858,1.133-11.842,2.291-17.9,3.463l-2.844-14.26l17.765-3.547L185.242,128.74z M152.381,116.387
						l-1.298-6.701c10.724-2.011,18.327-3.438,19.361-3.634l9.675-1.979l1.351,6.506L152.381,116.387z M167.503,90.742
						c-0.36,0.066-2.142,0.402-4.986,0.936l-7.62-36.266l14.287-2.797l7.723,36.203L167.503,90.742z M158.686,92.396
						c-2.962,0.557-6.542,1.229-10.566,1.981l-7.023-36.264l9.975-1.953L158.686,92.396z M147.284,117.404l-9.424,1.883
						l-1.304-6.881c3.272-0.613,6.432-1.203,9.419-1.764L147.284,117.404z M137.436,137.986c-5.229,1.012-10.452,2.021-15.637,3.022
						l-2.736-13.995l15.699-3.136L137.436,137.986z M118.316,123.189l-1.391-7.117c5.338-0.996,10.673-1.992,15.799-2.949
						l1.313,6.926L118.316,123.189z M117.972,141.748c-3.291,0.637-6.561,1.271-9.807,1.896l-2.718-13.912l9.793-1.955
						L117.972,141.748z M104.7,125.906l-1.425-7.293c3.22-0.598,6.508-1.211,9.817-1.826l1.401,7.164L104.7,125.906z M72.338,172.85
						l2.115,10.985l-8.479,1.65L63.95,174.58L72.338,172.85z M64.454,220.02l6.106,32.897l-39.512,7.992l-6.024-31.684
						L64.454,220.02z M71.983,260.584l4.058,21.867l-3.263,17.529l-30.647,4.957c-0.906-0.004-1.813-0.019-2.721-0.045
						l-6.906-36.322L71.983,260.584z M33.143,313.666l8.773,46.15c-2.842,0.812-7.031,2.002-11.952,3.36
						c-5.037-14.245-12.349-29.145-22.896-40.782c-3.016-3.328-5.972-6.402-8.856-9.265L33.143,313.666z M31.466,382.111
						c-1.146-3.068-2.466-6.389-4.015-9.922c0.368-0.17,0.74-0.336,1.115-0.496C29.667,375.277,30.628,378.773,31.466,382.111z
						 M27.382,367.973c-0.513,0.215-1.024,0.438-1.529,0.674c-0.04-0.086-0.079-0.17-0.119-0.256
						c0.552-0.15,1.098-0.302,1.638-0.447C27.375,367.953,27.378,367.963,27.382,367.973z M40.595,410.726
						c-0.164-1.819-1.243-12.737-4.635-27.04c5.675,12.34,11.799,23.646,16.697,27.754l5.778,27.127
						c-3.811-3.439-7.958-7.107-12.245-10.396C43.942,422.092,42.099,416,40.595,410.726z M55.492,387.328l42.454-8.096
						l4.297,21.563l-42.246,7.688L55.492,387.328z M97.388,356.494l20.115-3.969l8.872,43.879l-20.297,3.692L97.388,356.494z
						 M127.147,400.226l3.99,19.73l-20.324,3.9l-3.972-19.937L127.147,400.226z M154.117,419.517l4.015,20.552l-42.534,7.799
						l-4.023-20.189L154.117,419.517z M147.566,345.328l42.364-7.729l8.746,45.159l-42.209,8.13L147.566,345.328z M195.042,336.666
						l40.498-7.389l4.01,0.891l8.544,43.078l-44.313,8.531L195.042,336.666z M248.852,377.068l3.33,16.787l-44.154,9.854
						l-3.506-18.104L248.852,377.068z M252.938,397.679l4.883,24.615l-44.699,7.721l-4.354-22.479L252.938,397.679z
						 M253.956,376.086l43.358-8.348l9.188,45.574l-43.565,8.065L253.956,376.086z M301.141,367.002l21.661-4.172l8.713,45.85
						l-21.179,3.925L301.141,367.002z M326.629,362.094l19.652-3.782l9.732,45.831l-20.667,3.828L326.629,362.094z M355.415,382.561
						l-5.307-24.986l46.599-8.973l8.105,45.018l-20.279,3.271c-0.685-2.312-1.758-6.342-2.644-11.452
						c-0.514-2.961-1.848-5.01-3.966-6.09c-3.413-1.74-7.479-0.152-8.584,0.344L355.415,382.561z M444.512,335.428l-44.708,8.608
						l-8.847-43.842l45.256-8.92L444.512,335.428z M426.656,240.432l8.597,45.735l-45.323,8.935l-9.233-45.769L426.656,240.432z
						 M425.697,235.322l-46.029,8.918l-4.06-20.121l46.37-8.584L425.697,235.322z M425.41,167.375
						c9.402,2.09,21.439,0.125,21.981,0.035l11.079-1.943l-5.342,11.236l-30.791,6.232L419,166.674
						C420.235,166.549,422.143,166.65,425.41,167.375z M417.528,191.863l3.729,19.842l-21.775,4.031l-3.719-19.469L417.528,191.863z
						 M414.697,184.482l-45.229,9.153l-0.782-3.926c2.937-0.405,8.591-1.235,14.352-2.342c15.438-2.961,18.565-5.252,19.588-7.104
						c2.197-3.982,0.476-11.576-0.73-15.707l8.795,0.391L414.697,184.482z M446.546,133.691l-33.114,5.854l-3.074-14.983
						l18.651-4.328C435.461,125.201,441.545,129.865,446.546,133.691z M425.021,117.156l-15.384,3.57l-2.998-17.845
						C412.562,107.518,418.885,112.42,425.021,117.156z M403.074,127.855l6.806,33.158l-9.299-0.414l-0.126-0.354l-5.579,1.119
						l-6.535-30.643L403.074,127.855z M380.038,81.289c2.547,2.433,9.137,7.808,17.493,14.426l4.111,24.479l-45.051,8.762
						L345.18,71.617l11.265-2.02l13.48-4.236C371.398,69.793,374.311,75.822,380.038,81.289z M366.143,50.207l-13.427,4.221
						l-10.58,1.896l-1.742-8.75l38.4-6.783L366.143,50.207z M384.406,22.242l2.888,13L387,35.385l-47.367,8.365l-2.351-11.813
						L384.406,22.242z M336.555,48.252l1.744,8.761l-45.1,8.088l-1.908-8.854L336.555,48.252z M292.503,81.082l5.203,26.615
						l-21.284,4.67l-5.732-26.822L292.503,81.082z M289.365,65.812l-21.68,4.436l-4.107-22.889l20.922-4.127L289.365,65.812z
						 M281.771,30.566l1.908,8.854l-20.791,4.101l-1.604-8.943L281.771,30.566z M263.866,71.029l-18.328,3.75l-4.798-22.914
						l19.014-3.752L263.866,71.029z M257.459,35.328l1.605,8.947l-19.124,3.772l-1.869-8.924L257.459,35.328z M234.247,39.873
						l7.474,35.687l-20.757,4.246l-7.469-35.867L234.247,39.873z M209.669,44.688l7.478,35.897l-20.945,4.285l-7.169-36.145
						L209.669,44.688z M191.109,85.912l-10.382,2.125l-7.716-36.172l10.922-2.139L191.109,85.912z M177.264,16.105l5.91,29.799
						l-19.419,3.803l-6.354-33.602H177.264z M153.436,16.105l6.494,34.35l-5.833,1.144l-7.457-35.492L153.436,16.105L153.436,16.105
						z M132.96,16.105h9.694l7.615,36.242l-9.915,1.938L132.96,16.105z M104.501,65.281l1.745,8.312l3.815-0.803l-1.736-8.26
						l27.67-5.418l7.014,36.223c-13.376,2.504-30.203,5.648-45.164,8.426l-6.813-35.844L104.501,65.281z M87.208,68.668
						l1.913,10.066l-15.257,3.108L71.875,71.67L87.208,68.668z M89.849,82.564l1.494,7.854l-38.498,7.888l-1.504-7.896
						L89.849,82.564z M70.045,82.623l-19.433,3.959l-1.974-10.36L68.05,72.42L70.045,82.623z M63.579,60.689l3.3,7.987L47.91,72.39
						l-1.801-9.455L63.579,60.689z M59.964,49.76l2.093,7.195l-16.726,2.15l-1.709-7.662L59.964,49.76z M-3.44,86.42l36.778-7.203
						l4.232,22.222l-36.76,7.53L-3.44,86.42z M1.533,112.799l36.767-7.53l0.694,3.645c0.074,0.4,0.272,1.322,0.678,2.531
						c0.168,6.789,1.69,21.057,10.718,32.797l1.892,10.189c-18.993,3.659-33.847,6.514-41.402,7.946L1.533,112.799z M11.602,166.207
						c5.991-1.137,16.565-3.166,30.158-5.781l2.425,13.854l-30.041,5.41L11.602,166.207z M14.867,183.52l10.792-1.943l2.417,11.281
						l-11.044,2.147L14.867,183.52z M19.922,202.385l39.822-7.745l4,21.545l-39.447,9.211L19.922,202.385z M24.591,268.682
						l6.786,35.696C1.854,301.477-27,288.102-41.494,280.438L24.591,268.682z M-22.072,295.371c1.508,0.627,3.049,1.254,4.633,1.875
						c7.383,2.896,16.094,5.875,25.507,8.238l-18.261-0.277C-14.418,301.43-18.404,298.17-22.072,295.371z M-7.482,313.043
						c3.764,3.59,7.667,7.562,11.662,11.97c10.006,11.04,17.032,25.401,21.926,39.227c-0.69,0.188-1.386,0.379-2.094,0.57
						c-4.374-8.838-10.185-18.67-18.145-28.98c-9.069-11.744-19.008-18.785-27.285-22.998L-7.482,313.043z M-30.679,313.098
						c5.833,2.125,13.732,5.981,21.817,12.862c1.435,1.736,13.511,16.881,13.511,34.588c0,2.644-0.245,5.484-0.666,8.414
						c-2.975,0.308-5.609,0.396-7.947,0.314c-1.506-9.104-3.844-17.861-6.968-25.801C-14.642,334.047-22.509,323.227-30.679,313.098
						z M-6.335,430.896c-0.183,0.53-0.374,1.086-0.572,1.657c0.114-0.512,0.227-1.022,0.339-1.532
						C-6.49,430.978-6.413,430.937-6.335,430.896z M-12.036,410.097c-1.815-10.221-4.903-21.825-7.683-31.309
						c2.071-0.199,4.71-0.617,7.738-1.192C-10.745,388.377-10.729,399.488-12.036,410.097z M-20.438,368.365
						c2.144,1.609,4.713,2.818,7.699,3.629c0.09,0.576,0.177,1.154,0.261,1.734c-3.411,0.657-6.294,1.102-8.377,1.246
						c-1.263-4.185-2.407-7.775-3.263-10.408C-23.23,365.848-22.046,367.158-20.438,368.365z M-34.658,376.623
						c1.382,0.498,2.826,0.943,4.315,1.31c0.217,0.643,0.438,1.299,0.661,1.961c1.023,5.225,1.729,10.53,1.676,15.075
						C-30.328,389.49-32.752,382.523-34.658,376.623z M-30.983,359.285l0.914-0.506c0.293,1.467,0.577,2.969,0.836,4.543
						l0.569-0.094c0.771,2.33,2.124,6.492,3.699,11.68c-0.615-0.059-1.225-0.143-1.832-0.24
						C-28.166,368.623-29.79,363.078-30.983,359.285z M-25.938,378.725c0.718,0.082,1.44,0.145,2.168,0.176
						c2.418,8.199,5.122,18.133,7.01,27.311c-2.985-8.996-6.309-18.897-9.142-27.305C-25.913,378.846-25.925,378.785-25.938,378.725
						z M-17.887,422.64c-1.867-6.479-4.352-15.096-6.961-20.912c0.388-1.631,0.606-3.45,0.688-5.399
						c3.616,10.807,7.219,21.682,9.522,28.889c-0.701,0.447-1.397,0.916-2.091,1.402C-17.106,425.351-17.505,423.965-17.887,422.64z
						 M-17.399,472.564c0.332-1.123,0.795-2.703,1.355-4.65c1.488-3.301,3.233-7.668,5.015-12.367l5.266,14.377L-17.399,472.564z
						 M-1.931,469.052l-7.005-19.123c1.115-3.041,2.209-6.092,3.228-8.975c6.746,11.461,15.007,19.012,22.261,23.902L-1.931,469.052
						z M-3.988,436.045c0.999-2.871,1.865-5.402,2.529-7.354c5.386-2.072,10.769-2.976,15.743-3.039l7.527,37.887
						C13.184,458.404,3.396,449.929-3.988,436.045z M25.638,462.797l-7.355-37.016c3.179,0.248,6.122,0.83,8.703,1.647
						c6.312,2.002,13.543,7.554,20.226,13.338c2.741,5.685,5.93,10.89,9.664,14.939L25.638,462.797z M61.36,454.687
						c-1.665-1.565-3.231-3.409-4.704-5.469c1.733,1.562,3.402,3.041,4.977,4.367l0.21,0.992L61.36,454.687z M60.811,412.299
						l42.195-7.68l3.979,19.971l-41.847,8.029L60.811,412.299z M72.281,461.09l1.124-0.205c4.75,2.027,10.357,3.633,16.62,4.57
						C85.004,465.238,79.074,464.031,72.281,461.09z M81.181,454.176c-4.796-1.572-8.767-3.625-11.688-5.914
						c-0.398-0.312-0.813-0.649-1.236-0.998l-2.308-10.83l41.798-8.02l4.017,20.154L81.181,454.176z M121.858,455.045
						c-9.811,2.262-18.991,2.699-27.029,1.912l64.299-11.787l0.436,2.23C141.941,450.828,128.011,453.623,121.858,455.045z
						 M157.215,394.713l42.202-8.125l2.69,13.889l-42.208,7.978L157.215,394.713z M160.646,412.279l42.204-7.976l5.156,26.623
						l-42.205,7.736L160.646,412.279z M166.797,443.765l42.196-7.735l0.355,1.832c-14.641,2.774-29.146,5.545-42.13,8.055
						L166.797,443.765z M168.962,454.845c12.965-2.506,27.47-5.274,42.116-8.051l0.411,2.127l-42.058,8.33L168.962,454.845z
						 M171.609,468.392l-0.433-2.215l42.043-8.328l0.416,2.15L171.609,468.392z M214.453,436.892l-0.344-1.772l44.724-7.726
						l0.218,1.103C245.301,431.072,229.894,433.97,214.453,436.892z M216.587,447.912l-0.403-2.084
						c15.454-2.926,30.88-5.826,44.636-8.406l0.33,1.662L216.587,447.912z M218.731,458.98l-0.415-2.142l44.604-8.836l0.41,2.07
						L218.731,458.98z M264.16,427.539l-0.211-1.062l43.582-8.071l0.203,1.008C303.578,420.185,286.493,423.359,264.16,427.539z
						 M265.93,436.465c22.764-4.264,40.035-7.471,43.604-8.135l0.271,1.352l-20.854,3.896l-22.701,4.498L265.93,436.465z
						 M268.427,449.054l-0.409-2.061l22.651-4.488l20.934-3.908l0.355,1.767L268.427,449.054z M311.56,418.67l-0.194-0.973
						l45.247-8.381l0.081,0.45L311.56,418.67z M313.356,427.584l44.94-8.865l0.331,1.847l-44.992,8.401L313.356,427.584z
						 M315.78,439.599l-0.347-1.717l44.801-8.365l0.209,1.162L315.78,439.599z M359.802,403.213l-3.577-16.84l14.126-2.91
						l0.242-0.053l0.217-0.104c0.903-0.437,3.626-1.373,5.354-0.482c0.959,0.494,1.594,1.598,1.886,3.279
						c0.891,5.131,1.949,9.176,2.667,11.629L359.802,403.213z M361.671,408.088l22.247-5.834l58.71-9.469l-31.224,7.01l-32.042,5.5
						l-17.57,3.467L361.671,408.088z"/>
				</g>
			</g>
		</g>
	</g>
	<g id="XMLID_1_">
		<g id="XMLID_2_">
			<g>
				<path fill="#FFFFFF" d="M194.743,38.898c2.205,0,3.99,1.785,3.99,3.987c0,2.205-1.785,3.99-3.99,3.99h-35.906
					c-2.204,0-3.99-1.785-3.99-3.99c0-2.202,1.786-3.987,3.99-3.987H194.743z"/>
				<circle fill="#FFFFFF" cx="129.413" cy="42.888" r="3.989"/>
				<path fill="#FFFFFF" d="M123.429,42.887c0,3.303,2.683,5.983,5.984,5.983c3.301,0,5.984-2.682,5.984-5.983
					s-2.684-5.984-5.984-5.984C126.112,36.902,123.429,39.586,123.429,42.887z M152.852,42.887c0,3.303,2.683,5.983,5.984,5.983
					h35.906c3.301,0,5.984-2.682,5.984-5.983s-2.683-5.984-5.984-5.984h-35.906C155.535,36.902,152.852,39.586,152.852,42.887z
					 M303.46,48.871v305.205h-16.956V78.793H67.075v275.283H50.12V48.871c0-25.852,21.025-46.877,46.878-46.877h159.584
					C282.436,1.994,303.46,23.02,303.46,48.871z"/>
				<path fill="#CCCCCC" d="M198.732,42.887c0-2.203-1.785-3.988-3.99-3.988h-35.906c-2.204,0-3.99,1.785-3.99,3.988
					c0,2.204,1.786,3.989,3.99,3.989h35.906C196.947,46.877,198.732,45.092,198.732,42.887z M194.743,36.902
					c3.301,0,5.984,2.684,5.984,5.983c0,3.304-2.683,5.984-5.984,5.984h-35.906c-3.301,0-5.984-2.682-5.984-5.984
					c0-3.301,2.683-5.983,5.984-5.983H194.743z"/>
				<path fill="#CCCCCC" d="M133.402,42.887c0-2.203-1.785-3.988-3.989-3.988s-3.99,1.785-3.99,3.988
					c0,2.204,1.786,3.989,3.99,3.989S133.402,45.092,133.402,42.887z M129.413,36.902c3.301,0,5.984,2.684,5.984,5.983
					c0,3.304-2.684,5.984-5.984,5.984c-3.301,0-5.984-2.682-5.984-5.984C123.429,39.586,126.112,36.902,129.413,36.902z"/>
				<path fill="#CCCCCC" d="M284.509,354.076V80.789H69.07v273.287H284.509z M303.46,354.076V48.871
					c0-25.852-21.024-46.877-46.878-46.877H96.998c-25.853,0-46.878,21.025-46.878,46.877v305.205h16.956V78.793h219.429v275.283
					H303.46z M305.454,354.076h47.876v1.994H0v-1.994h48.125V48.871C48.125,21.922,70.048,0,96.998,0h159.584
					c26.949,0,48.872,21.922,48.872,48.871V354.076z"/>
			</g>
		</g>
	</g>
	<rect x="69" y="80.816" fill="#FAFAFA" width="215" height="40"/>
	<rect x="69" y="120.816" opacity="0.1" enable-background="new    " width="215" height="4"/>
	<g>
		<ellipse opacity="0.1" enable-background="new    " cx="173.455" cy="280.225" rx="21.215" ry="7.191"/>
		<g>
			<path fill="#BC1348" d="M197.833,227.959c0-13.346-10.818-23.993-24.163-23.993c-13.345,0-24.163,10.53-24.163,23.874
				c0,6.275,2.412,11.978,6.333,15.978h-0.038c0,0,16.573,17.164,16.573,36.725l-0.018,0.275h2.829c0-19,16.409-37,16.409-37h-0.038
				C195.446,239.816,197.833,234.203,197.833,227.959z M173.671,233.049c-3.177,0-5.754-2.575-5.754-5.752
				c0-3.178,2.577-5.754,5.754-5.754c3.177,0,5.753,2.576,5.753,5.754C179.424,230.473,176.848,233.049,173.671,233.049z"/>
			<path fill="none" d="M157.896,240.998c-0.011,0-0.017,0.002-0.017,0.002h0.019C157.896,241,157.896,240.998,157.896,240.998"/>
			<path fill="#EC1B52" d="M193.807,228.314c0-11.119-9.016-20.145-20.136-20.145c-11.121,0-20.136,9.116-20.136,20.237
				c0,4.723,1.637,9.15,4.361,12.578c0.023,0,0.075,0.018,0.153,0.108c0.068,0.082,0.137-0.188,0.208-0.106
				c2.39,2.875,15.415,18.828,15.415,25.828h0.365c0-7,13.062-23.422,15.141-25.974c0.021-0.026,0.045,0.106,0.067,0.079
				c0.138-0.17,0.219-0.105,0.219-0.105h-0.021C192.167,236.816,193.807,233.037,193.807,228.314z M173.671,233.049
				c-3.177,0-5.754-2.575-5.754-5.752c0-3.178,2.577-5.754,5.754-5.754c3.177,0,5.753,2.576,5.753,5.754
				C179.424,230.473,176.848,233.049,173.671,233.049z"/>
			<path fill="#BC1348" d="M173.456,218.092c-5.084,0-9.206,4.121-9.206,9.205s4.121,9.205,9.206,9.205
				c5.083,0,9.205-4.121,9.205-9.205S178.539,218.092,173.456,218.092z M173.456,233.049c-3.178,0-5.753-2.575-5.753-5.752
				c0-3.178,2.575-5.754,5.753-5.754c3.177,0,5.752,2.576,5.752,5.754C179.208,230.473,176.633,233.049,173.456,233.049z"/>
		</g>
	</g>
	<g>
		<rect x="248" y="90.816" fill="#CCCCCC" width="24" height="4"/>
		<rect x="248" y="98.816" fill="#CCCCCC" width="24" height="4"/>
		<rect x="248" y="106.816" fill="#CCCCCC" width="24" height="4"/>
	</g>
	<g>
		<path fill="#FFFFFF" d="M463.044,221.816h-207.46c-8.25,0-15.584,6.455-15.584,14.705v9.555l-0.002,2.068l-9.939,10.094
			c-1.167,1.168-1.089,3.063,0.078,4.231l9.841,10.113L240,274.63v89.558c0,8.25,7.334,14.629,15.584,14.629h207.46
			c8.25,0,14.956-6.379,14.956-14.629V236.521C478,228.271,471.294,221.816,463.044,221.816z"/>
		<path fill="#CCCCCC" d="M463.044,219.816h-207.46c-9.35,0-17.584,7.354-17.584,16.705v10.481l-9.51,9.824
			c-1.944,1.945-2.101,5.107-0.157,7.053l9.667,9.824v90.482c0,9.35,8.234,16.629,17.584,16.629h207.46
			c9.351,0,16.956-7.279,16.956-16.629V236.521C480,227.172,472.395,219.816,463.044,219.816z M478,364.188
			c0,8.25-6.706,14.629-14.956,14.629h-207.46c-8.25,0-15.584-6.379-15.584-14.629v-89.558l-0.003-2.065l-9.938-10.095
			c-1.167-1.168-1.089-3.063,0.078-4.231l9.841-10.113l0.022-2.049v-9.555c0-8.25,7.334-14.705,15.584-14.705h207.46
			c8.25,0,14.956,6.455,14.956,14.705V364.188z"/>
	</g>
	<g>
		<path fill="#B3B3B3" d="M271.729,295.596h-1.17v-7.541c0-0.627,0.018-1.22,0.057-1.779c-0.102,0.102-0.215,0.209-0.34,0.318
			c-0.125,0.11-0.699,0.581-1.723,1.411l-0.637-0.825l2.8-2.162h1.013V295.596L271.729,295.596z"/>
		<path fill="#B3B3B3" d="M282.311,287.508c0,0.675-0.188,1.228-0.566,1.656c-0.38,0.428-0.916,0.717-1.611,0.861v0.057
			c0.85,0.107,1.479,0.377,1.889,0.812c0.412,0.436,0.615,1.004,0.615,1.707c0,1.01-0.35,1.784-1.049,2.325
			c-0.699,0.546-1.693,0.816-2.982,0.816c-0.559,0-1.071-0.043-1.537-0.127c-0.467-0.084-0.918-0.232-1.355-0.445v-1.143
			c0.459,0.225,0.945,0.397,1.465,0.518c0.519,0.117,1.01,0.177,1.475,0.177c1.828,0,2.742-0.718,2.742-2.15
			c0-1.281-1.01-1.924-3.025-1.924h-1.042v-1.035h1.058c0.823,0,1.479-0.182,1.961-0.545c0.48-0.365,0.725-0.871,0.725-1.519
			c0-0.516-0.18-0.922-0.533-1.215c-0.354-0.295-0.836-0.44-1.443-0.44c-0.463,0-0.899,0.062-1.311,0.188
			c-0.409,0.125-0.877,0.357-1.402,0.695l-0.607-0.812c0.433-0.344,0.936-0.61,1.502-0.807c0.564-0.195,1.162-0.293,1.789-0.293
			c1.029,0,1.826,0.234,2.396,0.705S282.311,286.686,282.311,287.508z"/>
		<path fill="#B3B3B3" d="M291.184,295.596h-6.955v-1.033l2.787-2.801c0.849-0.859,1.406-1.472,1.678-1.839
			c0.271-0.366,0.474-0.725,0.608-1.071c0.134-0.349,0.202-0.722,0.202-1.121c0-0.564-0.172-1.012-0.516-1.342
			c-0.342-0.33-0.816-0.496-1.426-0.496c-0.438,0-0.854,0.071-1.246,0.217c-0.395,0.145-0.832,0.408-1.313,0.789l-0.638-0.818
			c0.975-0.811,2.035-1.215,3.185-1.215c0.994,0,1.772,0.254,2.337,0.764c0.565,0.509,0.848,1.193,0.848,2.052
			c0,0.67-0.188,1.334-0.564,1.989c-0.376,0.654-1.08,1.486-2.111,2.49l-2.316,2.266v0.058h5.443v1.112H291.184z"/>
		<path fill="#B3B3B3" d="M300.156,293.164h-1.57v2.433h-1.15v-2.433h-5.146v-1.047l5.021-7.158h1.275v7.113h1.57V293.164z
			 M297.436,292.072v-3.518c0-0.688,0.023-1.47,0.072-2.337h-0.059c-0.231,0.464-0.448,0.847-0.65,1.15l-3.309,4.703
			L297.436,292.072L297.436,292.072z"/>
		<path fill="#B3B3B3" d="M314.991,295.596h-1.216l-2.135-7.084c-0.104-0.312-0.216-0.71-0.341-1.188
			c-0.126-0.477-0.189-0.764-0.196-0.859c-0.104,0.638-0.272,1.332-0.506,2.091l-2.069,7.041h-1.217l-2.813-10.578h1.303
			l1.671,6.532c0.232,0.918,0.401,1.748,0.507,2.49c0.131-0.883,0.323-1.746,0.579-2.592l1.896-6.432h1.303l1.989,6.489
			c0.231,0.748,0.427,1.593,0.587,2.533c0.092-0.686,0.265-1.52,0.521-2.504l1.664-6.52h1.306L314.991,295.596z"/>
		<path fill="#B3B3B3" d="M319.124,294.83c0-0.324,0.073-0.567,0.22-0.736c0.147-0.165,0.358-0.247,0.634-0.247
			c0.28,0,0.498,0.082,0.655,0.247c0.157,0.169,0.234,0.412,0.234,0.736c0,0.314-0.079,0.555-0.238,0.723
			c-0.16,0.171-0.377,0.255-0.651,0.255c-0.245,0-0.449-0.076-0.611-0.229C319.204,295.428,319.124,295.178,319.124,294.83z"/>
		<path fill="#B3B3B3" d="M331.926,290.053h3.596v5.146c-0.559,0.178-1.128,0.312-1.707,0.404s-1.249,0.139-2.013,0.139
			c-1.603,0-2.849-0.477-3.741-1.43c-0.892-0.953-1.339-2.287-1.339-4.006c0-1.103,0.222-2.062,0.662-2.892
			c0.442-0.828,1.077-1.459,1.908-1.896c0.83-0.438,1.801-0.654,2.915-0.654c1.129,0,2.181,0.207,3.156,0.621l-0.479,1.086
			c-0.954-0.404-1.874-0.607-2.757-0.607c-1.288,0-2.294,0.384-3.019,1.15c-0.724,0.768-1.085,1.832-1.085,3.191
			c0,1.428,0.348,2.512,1.046,3.25c0.696,0.737,1.721,1.106,3.07,1.106c0.733,0,1.45-0.086,2.15-0.254v-3.258h-2.366v-1.098H331.926
			z"/>
		<path fill="#B3B3B3" d="M341.5,287.521c0.352,0,0.668,0.026,0.947,0.086l-0.167,1.115c-0.327-0.072-0.617-0.109-0.867-0.109
			c-0.642,0-1.191,0.26-1.646,0.781c-0.457,0.521-0.685,1.17-0.685,1.946v4.254h-1.201v-7.93h0.991l0.139,1.469h0.059
			c0.294-0.518,0.647-0.914,1.062-1.194C340.547,287.66,341.004,287.521,341.5,287.521z"/>
		<path fill="#B3B3B3" d="M348.809,295.596l-0.237-1.13h-0.06c-0.396,0.496-0.79,0.834-1.183,1.013
			c-0.395,0.174-0.885,0.264-1.474,0.264c-0.786,0-1.402-0.203-1.849-0.606c-0.447-0.406-0.671-0.984-0.671-1.73
			c0-1.602,1.281-2.441,3.844-2.518l1.347-0.043v-0.494c0-0.621-0.136-1.082-0.401-1.379c-0.269-0.296-0.695-0.445-1.285-0.445
			c-0.661,0-1.408,0.203-2.242,0.609l-0.369-0.919c0.391-0.213,0.817-0.379,1.284-0.502c0.465-0.118,0.933-0.18,1.4-0.18
			c0.944,0,1.646,0.211,2.102,0.629c0.456,0.42,0.685,1.094,0.685,2.021v5.412L348.809,295.596L348.809,295.596z M346.095,294.75
			c0.748,0,1.336-0.205,1.763-0.615c0.427-0.409,0.641-0.983,0.641-1.721v-0.717l-1.201,0.051c-0.955,0.033-1.644,0.18-2.065,0.443
			c-0.423,0.264-0.633,0.674-0.633,1.227c0,0.437,0.132,0.767,0.394,0.992C345.254,294.637,345.622,294.75,346.095,294.75z"/>
		<path fill="#B3B3B3" d="M357.602,295.596v-5.13c0-0.647-0.146-1.131-0.44-1.446c-0.295-0.32-0.755-0.479-1.383-0.479
			c-0.83,0-1.438,0.226-1.824,0.674c-0.386,0.447-0.578,1.188-0.578,2.222v4.16h-1.201v-7.931h0.978l0.194,1.086h0.06
			c0.245-0.393,0.591-0.694,1.035-0.907c0.442-0.216,0.938-0.322,1.481-0.322c0.955,0,1.674,0.229,2.157,0.688
			c0.481,0.461,0.724,1.199,0.724,2.211v5.175H357.602L357.602,295.596z"/>
		<path fill="#B3B3B3" d="M366.669,294.533h-0.065c-0.555,0.805-1.385,1.209-2.488,1.209c-1.037,0-1.846-0.354-2.421-1.063
			c-0.576-0.709-0.864-1.72-0.864-3.025s0.289-2.322,0.868-3.047c0.579-0.724,1.385-1.084,2.417-1.084
			c1.076,0,1.899,0.391,2.474,1.172h0.096l-0.052-0.572l-0.027-0.557v-3.229h1.2v11.261h-0.978L366.669,294.533z M364.268,294.736
			c0.818,0,1.413-0.223,1.782-0.67c0.369-0.445,0.554-1.166,0.554-2.16v-0.254c0-1.125-0.187-1.926-0.561-2.406
			c-0.374-0.479-0.971-0.721-1.791-0.721c-0.704,0-1.244,0.274-1.617,0.822c-0.375,0.549-0.562,1.321-0.562,2.319
			c0,1.015,0.187,1.777,0.558,2.293C363.001,294.477,363.548,294.736,364.268,294.736z"/>
		<path fill="#B3B3B3" d="M381.033,295.596l-1.317-3.365h-4.24l-1.303,3.365h-1.244l4.184-10.621h1.035l4.16,10.621H381.033z
			 M379.333,291.125l-1.229-3.276c-0.159-0.416-0.323-0.927-0.491-1.527c-0.107,0.463-0.259,0.971-0.457,1.527l-1.244,3.276H379.333
			z"/>
		<path fill="#B3B3B3" d="M385.318,295.596l-3.012-7.931h1.288l1.708,4.703c0.387,1.101,0.611,1.814,0.682,2.144h0.058
			c0.052-0.257,0.22-0.787,0.503-1.589c0.28-0.805,0.915-2.557,1.899-5.258h1.287l-3.011,7.931H385.318z"/>
		<path fill="#B3B3B3" d="M394.356,295.742c-1.173,0-2.1-0.357-2.774-1.072c-0.679-0.713-1.018-1.705-1.018-2.973
			c0-1.279,0.314-2.295,0.943-3.047c0.629-0.754,1.476-1.129,2.536-1.129c0.994,0,1.78,0.326,2.359,0.979
			c0.579,0.652,0.868,1.517,0.868,2.586v0.761h-5.464c0.023,0.932,0.26,1.639,0.705,2.121c0.446,0.481,1.074,0.725,1.885,0.725
			c0.854,0,1.699-0.18,2.533-0.537v1.07c-0.425,0.184-0.824,0.315-1.204,0.396C395.35,295.701,394.892,295.742,394.356,295.742z
			 M394.03,288.525c-0.638,0-1.145,0.209-1.523,0.625c-0.378,0.414-0.602,0.988-0.669,1.721h4.146c0-0.758-0.168-1.336-0.507-1.74
			C395.14,288.729,394.658,288.525,394.03,288.525z"/>
		<path fill="#B3B3B3" d="M272.541,310.666c-1.163,0-2.081,0.387-2.754,1.162c-0.674,0.773-1.01,1.834-1.01,3.18
			c0,1.386,0.324,2.455,0.975,3.209c0.648,0.757,1.572,1.134,2.773,1.134c0.738,0,1.58-0.134,2.525-0.398v1.08
			c-0.732,0.273-1.638,0.412-2.714,0.412c-1.56,0-2.761-0.476-3.606-1.418c-0.847-0.947-1.271-2.289-1.271-4.031
			c0-1.092,0.204-2.045,0.611-2.865c0.408-0.821,0.996-1.453,1.766-1.896c0.77-0.443,1.678-0.666,2.719-0.666
			c1.109,0,2.079,0.203,2.908,0.606l-0.52,1.06C274.143,310.854,273.342,310.666,272.541,310.666z"/>
		<path fill="#B3B3B3" d="M282.605,320.299v-5.133c0-0.645-0.146-1.127-0.439-1.446c-0.295-0.316-0.755-0.478-1.383-0.478
			c-0.836,0-1.444,0.228-1.827,0.68c-0.384,0.453-0.575,1.197-0.575,2.23v4.146h-1.201v-11.26h1.201v3.406
			c0,0.41-0.02,0.752-0.059,1.021h0.072c0.236-0.381,0.572-0.682,1.01-0.899c0.438-0.221,0.935-0.33,1.494-0.33
			c0.97,0,1.696,0.229,2.183,0.691c0.485,0.461,0.728,1.192,0.728,2.194v5.176h-1.203V320.299z"/>
		<path fill="#B3B3B3" d="M286.175,310.217c0-0.272,0.067-0.477,0.202-0.604c0.135-0.129,0.307-0.191,0.508-0.191
			c0.192,0,0.359,0.064,0.499,0.193c0.14,0.133,0.209,0.332,0.209,0.602c0,0.271-0.069,0.474-0.209,0.605s-0.307,0.197-0.499,0.197
			c-0.201,0-0.373-0.064-0.508-0.197S286.175,310.488,286.175,310.217z M287.479,320.299h-1.201v-7.932h1.201V320.299z"/>
		<path fill="#B3B3B3" d="M293.193,320.443c-1.148,0-2.036-0.354-2.666-1.062c-0.631-0.707-0.944-1.707-0.944-3
			c0-1.325,0.319-2.352,0.958-3.075c0.641-0.724,1.55-1.086,2.732-1.086c0.382,0,0.763,0.04,1.145,0.125
			c0.38,0.081,0.68,0.178,0.896,0.288l-0.369,1.021c-0.266-0.105-0.555-0.193-0.868-0.264s-0.591-0.105-0.833-0.105
			c-1.61,0-2.417,1.027-2.417,3.084c0,0.973,0.196,1.721,0.591,2.242c0.393,0.522,0.977,0.781,1.747,0.781
			c0.66,0,1.339-0.144,2.033-0.427v1.064C294.668,320.305,294,320.443,293.193,320.443z"/>
		<path fill="#B3B3B3" d="M301.958,320.299l-0.237-1.129h-0.06c-0.396,0.496-0.79,0.832-1.183,1.011
			c-0.395,0.174-0.886,0.264-1.474,0.264c-0.787,0-1.403-0.203-1.849-0.607c-0.447-0.405-0.67-0.981-0.67-1.729
			c0-1.603,1.279-2.441,3.843-2.521l1.346-0.043v-0.489c0-0.623-0.135-1.082-0.401-1.382c-0.269-0.295-0.695-0.442-1.283-0.442
			c-0.662,0-1.409,0.203-2.243,0.606l-0.371-0.92c0.392-0.211,0.819-0.379,1.286-0.498c0.465-0.121,0.932-0.182,1.4-0.182
			c0.943,0,1.645,0.209,2.102,0.629c0.456,0.42,0.684,1.094,0.684,2.021v5.413L301.958,320.299L301.958,320.299z M299.244,319.451
			c0.748,0,1.335-0.205,1.762-0.615c0.428-0.41,0.643-0.983,0.643-1.721v-0.717l-1.203,0.049c-0.954,0.035-1.644,0.184-2.066,0.447
			c-0.422,0.262-0.631,0.672-0.631,1.225c0,0.437,0.131,0.766,0.393,0.992S298.771,319.451,299.244,319.451z"/>
		<path fill="#B3B3B3" d="M311.814,312.367v0.76l-1.471,0.174c0.137,0.169,0.257,0.39,0.361,0.662c0.106,0.271,0.16,0.58,0.16,0.922
			c0,0.777-0.266,1.396-0.796,1.861c-0.53,0.463-1.26,0.693-2.187,0.693c-0.235,0-0.459-0.021-0.665-0.06
			c-0.513,0.271-0.767,0.611-0.767,1.021c0,0.217,0.088,0.377,0.267,0.479c0.179,0.105,0.484,0.156,0.919,0.156h1.404
			c0.858,0,1.518,0.18,1.979,0.541c0.461,0.363,0.69,0.891,0.69,1.58c0,0.877-0.353,1.547-1.056,2.008
			c-0.706,0.461-1.732,0.689-3.084,0.689c-1.037,0-1.838-0.191-2.399-0.578c-0.562-0.385-0.843-0.933-0.843-1.635
			c0-0.482,0.154-0.9,0.464-1.254c0.308-0.351,0.741-0.591,1.303-0.716c-0.202-0.092-0.372-0.233-0.51-0.428
			c-0.14-0.191-0.208-0.418-0.208-0.672c0-0.289,0.078-0.543,0.232-0.76c0.154-0.218,0.397-0.429,0.729-0.631
			c-0.409-0.168-0.743-0.455-1.002-0.861c-0.259-0.404-0.387-0.867-0.387-1.389c0-0.869,0.261-1.537,0.78-2.009
			c0.521-0.473,1.261-0.707,2.216-0.707c0.415,0,0.789,0.05,1.122,0.146h2.746V312.367z M305.489,321.629
			c0,0.431,0.182,0.756,0.543,0.978c0.36,0.223,0.881,0.334,1.557,0.334c1.008,0,1.754-0.15,2.239-0.453
			c0.484-0.301,0.728-0.709,0.728-1.228c0-0.428-0.134-0.727-0.396-0.893c-0.267-0.166-0.767-0.25-1.499-0.25h-1.439
			c-0.546,0-0.971,0.131-1.273,0.391C305.643,320.77,305.489,321.141,305.489,321.629z M306.141,314.906
			c0,0.555,0.156,0.975,0.471,1.26c0.313,0.285,0.75,0.426,1.311,0.426c1.173,0,1.759-0.567,1.759-1.707
			c0-1.19-0.594-1.786-1.779-1.786c-0.565,0-0.999,0.149-1.305,0.455C306.292,313.857,306.141,314.309,306.141,314.906z"/>
		<path fill="#B3B3B3" d="M320.289,316.324c0,1.295-0.326,2.305-0.979,3.029c-0.65,0.727-1.551,1.09-2.699,1.09
			c-0.708,0-1.339-0.168-1.888-0.5c-0.552-0.334-0.977-0.81-1.274-1.435c-0.299-0.622-0.448-1.35-0.448-2.186
			c0-1.291,0.323-2.299,0.97-3.021c0.646-0.721,1.545-1.081,2.692-1.081c1.109,0,1.991,0.368,2.646,1.108
			C319.962,314.066,320.289,315.064,320.289,316.324z M314.246,316.324c0,1.014,0.202,1.785,0.606,2.316
			c0.405,0.53,1.001,0.797,1.788,0.797c0.786,0,1.385-0.265,1.791-0.793c0.407-0.529,0.61-1.304,0.61-2.32
			c0-1.006-0.203-1.773-0.61-2.297c-0.406-0.524-1.009-0.785-1.806-0.785c-0.786,0-1.38,0.26-1.781,0.773
			C314.447,314.533,314.246,315.303,314.246,316.324z"/>
		<path fill="#B3B3B3" d="M323.653,318.576l0.108,0.166c-0.127,0.482-0.307,1.043-0.544,1.682c-0.235,0.64-0.48,1.234-0.737,1.785
			h-0.904c0.131-0.502,0.273-1.123,0.431-1.86c0.157-0.738,0.269-1.328,0.329-1.771L323.653,318.576L323.653,318.576z"/>
		<path fill="#B3B3B3" d="M330.059,320.299v-10.582h1.229v10.582H330.059z"/>
		<path fill="#B3B3B3" d="M334.19,320.299v-10.582h1.229v9.468h4.667v1.114H334.19z"/>
		<path fill="#B3B3B3" d="M345.125,315.775c0-2.08,0.403-3.635,1.212-4.664c0.808-1.029,2.004-1.545,3.586-1.545
			c0.544,0,0.976,0.045,1.288,0.137v1.035c-0.371-0.121-0.795-0.18-1.271-0.18c-1.136,0-2.002,0.354-2.6,1.061
			c-0.599,0.705-0.928,1.816-0.984,3.332h0.088c0.53-0.83,1.37-1.246,2.519-1.246c0.95,0,1.699,0.287,2.246,0.861
			c0.549,0.574,0.821,1.354,0.821,2.338c0,1.1-0.3,1.965-0.9,2.594c-0.601,0.631-1.412,0.945-2.436,0.945
			c-1.096,0-1.963-0.412-2.605-1.234C345.446,318.387,345.125,317.242,345.125,315.775z M348.678,319.422
			c0.686,0,1.219-0.215,1.597-0.646c0.379-0.433,0.567-1.058,0.567-1.871c0-0.699-0.176-1.25-0.526-1.65
			c-0.354-0.397-0.88-0.6-1.578-0.6c-0.436,0-0.833,0.09-1.194,0.268c-0.361,0.179-0.65,0.425-0.864,0.738
			c-0.215,0.312-0.322,0.639-0.322,0.978c0,0.495,0.098,0.961,0.29,1.389c0.191,0.43,0.467,0.77,0.82,1.021
			C347.82,319.297,348.225,319.422,348.678,319.422z"/>
		<path fill="#B3B3B3" d="M360.488,314.994c0,1.828-0.288,3.193-0.865,4.096c-0.575,0.902-1.457,1.354-2.645,1.354
			c-1.14,0-2.006-0.463-2.6-1.387c-0.593-0.925-0.89-2.279-0.89-4.062c0-1.842,0.287-3.211,0.86-4.104
			c0.575-0.894,1.45-1.341,2.627-1.341c1.148,0,2.021,0.468,2.616,1.396C360.191,311.879,360.488,313.229,360.488,314.994z
			 M354.707,314.994c0,1.539,0.18,2.658,0.543,3.361c0.361,0.701,0.938,1.053,1.729,1.053c0.802,0,1.382-0.355,1.74-1.066
			c0.359-0.713,0.539-1.827,0.539-3.348c0-1.52-0.18-2.633-0.539-3.34c-0.358-0.707-0.938-1.062-1.74-1.062
			c-0.789,0-1.366,0.349-1.729,1.048C354.887,312.336,354.707,313.455,354.707,314.994z"/>
		<path fill="#B3B3B3" d="M362.073,315.775c0-2.08,0.403-3.635,1.212-4.664s2.004-1.545,3.587-1.545
			c0.544,0,0.974,0.045,1.287,0.137v1.035c-0.37-0.121-0.796-0.18-1.272-0.18c-1.134,0-2.001,0.354-2.599,1.061
			c-0.599,0.705-0.928,1.816-0.984,3.332h0.087c0.531-0.83,1.369-1.246,2.52-1.246c0.95,0,1.699,0.287,2.247,0.861
			s0.819,1.354,0.819,2.338c0,1.1-0.3,1.965-0.899,2.594c-0.602,0.631-1.412,0.945-2.436,0.945c-1.096,0-1.964-0.412-2.604-1.234
			S362.073,317.242,362.073,315.775z M365.626,319.422c0.685,0,1.218-0.215,1.597-0.646c0.378-0.433,0.567-1.058,0.567-1.871
			c0-0.699-0.176-1.25-0.527-1.65c-0.354-0.397-0.879-0.6-1.578-0.6c-0.435,0-0.833,0.09-1.193,0.268
			c-0.361,0.179-0.65,0.425-0.865,0.738c-0.214,0.312-0.321,0.639-0.321,0.978c0,0.495,0.098,0.961,0.289,1.389
			c0.194,0.43,0.467,0.77,0.822,1.021C364.769,319.297,365.173,319.422,365.626,319.422z"/>
		<path fill="#B3B3B3" d="M377.38,320.299h-6.956v-1.034l2.787-2.802c0.85-0.858,1.408-1.471,1.679-1.838
			c0.271-0.367,0.474-0.725,0.608-1.071c0.134-0.349,0.202-0.722,0.202-1.121c0-0.564-0.171-1.013-0.515-1.345
			c-0.343-0.33-0.816-0.493-1.427-0.493c-0.438,0-0.854,0.071-1.247,0.217c-0.393,0.145-0.831,0.408-1.313,0.789l-0.638-0.818
			c0.976-0.811,2.036-1.215,3.186-1.215c0.993,0,1.772,0.254,2.337,0.764c0.565,0.51,0.848,1.191,0.848,2.051
			c0,0.673-0.188,1.334-0.564,1.99c-0.376,0.656-1.08,1.486-2.112,2.49l-2.314,2.266v0.058h5.441L377.38,320.299L377.38,320.299z"/>
		<path fill="#B3B3B3" d="M385.854,320.299h-6.954v-1.034l2.786-2.802c0.85-0.858,1.407-1.471,1.68-1.838
			c0.27-0.367,0.472-0.725,0.607-1.071c0.135-0.349,0.203-0.722,0.203-1.121c0-0.564-0.173-1.013-0.516-1.345
			c-0.342-0.33-0.817-0.493-1.426-0.493c-0.438,0-0.854,0.071-1.248,0.217c-0.394,0.145-0.831,0.408-1.313,0.789l-0.637-0.818
			c0.975-0.811,2.036-1.215,3.185-1.215c0.994,0,1.772,0.254,2.337,0.764c0.565,0.51,0.847,1.191,0.847,2.051
			c0,0.673-0.188,1.334-0.562,1.99c-0.377,0.656-1.081,1.486-2.113,2.49l-2.314,2.266v0.058h5.441v1.113H385.854z"/>
		<path fill="#999999" d="M273.923,339.359h2.265l-3.596,10.58h-2.445l-3.59-10.58h2.266l1.99,6.297
			c0.109,0.371,0.225,0.805,0.344,1.299c0.117,0.494,0.191,0.838,0.221,1.031c0.053-0.445,0.232-1.221,0.543-2.33L273.923,339.359z"
			/>
		<path fill="#999999" d="M277.252,339.758c0-0.719,0.4-1.079,1.2-1.079c0.801,0,1.202,0.36,1.202,1.079
			c0,0.343-0.1,0.609-0.301,0.8s-0.5,0.286-0.901,0.286C277.652,340.844,277.252,340.482,277.252,339.758z M279.555,349.939h-2.209
			v-8.09h2.209V349.939z"/>
		<path fill="#999999" d="M285.531,350.084c-1.303,0-2.321-0.358-3.055-1.078c-0.732-0.719-1.102-1.735-1.102-3.055
			c0-1.354,0.34-2.4,1.018-3.143c0.679-0.743,1.615-1.111,2.812-1.111c1.144,0,2.034,0.326,2.671,0.979
			c0.637,0.648,0.956,1.552,0.956,2.697v1.072h-5.218c0.023,0.625,0.21,1.117,0.556,1.469c0.349,0.353,0.836,0.527,1.463,0.527
			c0.487,0,0.949-0.049,1.384-0.15c0.434-0.101,0.887-0.264,1.358-0.485v1.709c-0.386,0.19-0.798,0.336-1.237,0.43
			C286.698,350.038,286.162,350.084,285.531,350.084z M285.219,343.268c-0.468,0-0.833,0.147-1.1,0.444
			c-0.266,0.297-0.417,0.718-0.456,1.265h3.097c-0.009-0.547-0.15-0.968-0.427-1.265
			C286.059,343.416,285.688,343.268,285.219,343.268z"/>
		<path fill="#999999" d="M297.273,349.939l-0.621-2.828l-0.838-3.574h-0.051l-1.479,6.402h-2.372l-2.302-8.09h2.199l0.934,3.582
			c0.15,0.641,0.303,1.524,0.456,2.655h0.043c0.021-0.366,0.104-0.946,0.254-1.744l0.117-0.614l0.997-3.879h2.432l0.948,3.879
			c0.019,0.104,0.05,0.262,0.091,0.469c0.041,0.209,0.08,0.43,0.119,0.662c0.039,0.233,0.074,0.465,0.104,0.688
			c0.031,0.226,0.051,0.404,0.055,0.539h0.043c0.045-0.348,0.121-0.823,0.232-1.432c0.109-0.604,0.19-1.012,0.238-1.225l0.969-3.582
			h2.165l-2.331,8.09L297.273,349.939L297.273,349.939z"/>
		<path fill="#999999" d="M307.334,349.939v-10.58h2.244v8.729h4.291v1.853L307.334,349.939L307.334,349.939z"/>
		<path fill="#999999" d="M322.887,345.879c0,1.318-0.348,2.349-1.042,3.093c-0.693,0.741-1.662,1.112-2.902,1.112
			c-0.775,0-1.461-0.168-2.055-0.51c-0.594-0.34-1.049-0.828-1.368-1.465c-0.317-0.637-0.478-1.381-0.478-2.23
			c0-1.319,0.346-2.348,1.035-3.082c0.688-0.733,1.66-1.1,2.908-1.1c0.775,0,1.462,0.168,2.056,0.508
			c0.593,0.336,1.05,0.822,1.367,1.453C322.728,344.291,322.887,345.031,322.887,345.879z M317.293,345.879
			c0,0.802,0.132,1.408,0.395,1.816c0.264,0.41,0.69,0.617,1.283,0.617c0.589,0,1.014-0.205,1.271-0.611
			c0.258-0.408,0.388-1.016,0.388-1.822c0-0.801-0.131-1.399-0.391-1.801c-0.262-0.399-0.688-0.6-1.281-0.6
			c-0.589,0-1.014,0.196-1.273,0.596C317.426,344.473,317.293,345.074,317.293,345.879z"/>
		<path fill="#999999" d="M327.995,350.084c-2.52,0-3.778-1.381-3.778-4.145c0-1.377,0.345-2.426,1.029-3.152
			c0.684-0.726,1.667-1.09,2.945-1.09c0.936,0,1.773,0.184,2.518,0.549l-0.65,1.707c-0.348-0.139-0.671-0.252-0.97-0.342
			c-0.3-0.088-0.599-0.133-0.896-0.133c-1.148,0-1.725,0.813-1.725,2.444c0,1.582,0.575,2.373,1.725,2.373
			c0.425,0,0.816-0.057,1.18-0.17c0.362-0.11,0.724-0.291,1.085-0.53v1.889c-0.357,0.227-0.717,0.383-1.081,0.469
			C329.01,350.041,328.551,350.084,327.995,350.084z"/>
		<path fill="#999999" d="M337.468,349.939l-0.427-1.101h-0.058c-0.371,0.47-0.755,0.791-1.147,0.976
			c-0.393,0.178-0.905,0.27-1.536,0.27c-0.776,0-1.39-0.221-1.836-0.666c-0.446-0.442-0.669-1.076-0.669-1.896
			c0-0.857,0.301-1.492,0.901-1.898c0.601-0.408,1.506-0.633,2.718-0.676l1.403-0.045v-0.354c0-0.819-0.421-1.229-1.261-1.229
			c-0.646,0-1.404,0.195-2.278,0.586l-0.731-1.49c0.932-0.485,1.965-0.731,3.099-0.731c1.085,0,1.919,0.237,2.495,0.711
			c0.579,0.471,0.87,1.188,0.87,2.155v5.392h-1.543V349.939z M336.817,346.191l-0.854,0.026c-0.641,0.021-1.118,0.138-1.432,0.351
			c-0.314,0.213-0.472,0.535-0.472,0.969c0,0.621,0.355,0.935,1.07,0.935c0.511,0,0.921-0.146,1.229-0.441
			c0.305-0.295,0.459-0.687,0.459-1.172V346.191z"/>
		<path fill="#999999" d="M344.69,348.326c0.388,0,0.851-0.086,1.39-0.254v1.643c-0.549,0.246-1.225,0.369-2.025,0.369
			c-0.883,0-1.525-0.223-1.93-0.668c-0.402-0.447-0.604-1.115-0.604-2.01v-3.898h-1.058v-0.934l1.216-0.738l0.638-1.709h1.411v1.724
			h2.265v1.657h-2.265v3.898c0,0.313,0.089,0.547,0.265,0.695C344.169,348.249,344.401,348.326,344.69,348.326z"/>
		<path fill="#999999" d="M347.622,339.758c0-0.719,0.4-1.079,1.201-1.079c0.802,0,1.201,0.36,1.201,1.079
			c0,0.343-0.102,0.609-0.302,0.8c-0.199,0.19-0.5,0.286-0.899,0.286C348.022,340.844,347.622,340.482,347.622,339.758z
			 M349.923,349.939h-2.207v-8.09h2.207V349.939z"/>
		<path fill="#999999" d="M359.591,345.879c0,1.318-0.347,2.349-1.041,3.093c-0.694,0.741-1.663,1.112-2.901,1.112
			c-0.776,0-1.463-0.168-2.057-0.51c-0.592-0.34-1.049-0.828-1.367-1.465c-0.317-0.637-0.478-1.381-0.478-2.23
			c0-1.319,0.345-2.348,1.034-3.082c0.688-0.733,1.659-1.1,2.91-1.1c0.774,0,1.461,0.168,2.055,0.508
			c0.593,0.336,1.048,0.822,1.367,1.453C359.433,344.291,359.591,345.031,359.591,345.879z M353.997,345.879
			c0,0.802,0.132,1.408,0.395,1.816c0.264,0.41,0.691,0.617,1.285,0.617c0.588,0,1.013-0.205,1.271-0.611
			c0.258-0.408,0.388-1.016,0.388-1.822c0-0.801-0.131-1.399-0.392-1.801c-0.262-0.4-0.688-0.6-1.281-0.6
			c-0.588,0-1.013,0.196-1.273,0.596C354.129,344.473,353.997,345.074,353.997,345.879z"/>
		<path fill="#999999" d="M368.883,349.939h-2.207v-4.726c0-0.584-0.104-1.021-0.311-1.312c-0.207-0.293-0.538-0.439-0.991-0.439
			c-0.618,0-1.064,0.205-1.339,0.619c-0.275,0.412-0.413,1.096-0.413,2.051v3.808h-2.208v-8.09h1.688l0.296,1.032h0.125
			c0.245-0.391,0.584-0.686,1.017-0.885c0.432-0.201,0.921-0.301,1.473-0.301c0.939,0,1.654,0.254,2.143,0.762
			c0.486,0.512,0.729,1.244,0.729,2.205L368.883,349.939L368.883,349.939z"/>
		<g>
			<path fill="#808080" d="M277.97,254.807l-0.019,0.257l0.019,0.513l-0.019,0.271l-0.017,0.137l-0.034,0.205l-0.05,0.119
				l-0.104,0.085l-0.205,0.034h-0.272l-0.511-0.053l-0.273-0.017l-0.784,0.052h-0.271l-0.428-0.035h-0.255l-0.12,0.019l-0.169,0.051
				l-0.069,0.104l-0.017,0.221l-0.068,1.006v0.272l0.068,1.022l-0.017,0.273l-0.069,1.021l-0.017,0.273l0.034,1.007v1.568
				l-0.034,1.005l0.017,0.255l0.086,0.768l0.017,0.273l-0.05,0.203l-0.086,0.086l-0.223,0.033l-0.323-0.017l-0.426-0.05
				l-0.289-0.019l-0.769,0.052h-0.272l-0.766-0.052l-0.206-0.017l-0.103-0.052l-0.033-0.187v-0.29l0.05-0.717l0.019-0.271v-1.278
				l0.018-1.023v-0.271l0.017-1.007v-0.273l-0.069-1.021l-0.017-0.273v-1.295l-0.033-1.006v-0.239l-0.053-0.136l-0.169-0.035h-0.256
				l-0.547,0.035h-0.306l-0.461-0.035l-0.288-0.017l-0.292,0.017l-0.391,0.017h-0.256l-0.136-0.017l-0.189-0.033l-0.103-0.069
				l-0.066-0.102l-0.034-0.17v-0.12l-0.018-0.271l0.035-0.513v-0.255l-0.053-0.648l0.018-0.271l0.052-0.223l0.066-0.119l0.103-0.05
				l0.173-0.036h0.392l0.63,0.053h0.271l0.99-0.069h0.273l1.005,0.086h0.271l1.264-0.086l0.988,0.017h0.271l1.28-0.017h1.26
				l0.563-0.033l0.289,0.017l0.136,0.017l0.205,0.034l0.12,0.068l0.084,0.119l0.035,0.205v0.12l0.017,0.255L277.97,254.807z"/>
			<path fill="#808080" d="M292.516,259.479l-0.017,0.272l-0.035,0.392l-0.034,0.257l-0.102,0.512l-0.035,0.392l-0.033,0.255
				l-0.051,0.272l-0.068,0.255l-0.171,0.358l-0.119,0.239l-0.46,0.769l-0.153,0.221l-0.171,0.221l-0.171,0.188l-0.273,0.289
				l-0.186,0.172l-0.223,0.17l-0.205,0.152l-0.306,0.205l-0.222,0.137l-0.256,0.136l-0.238,0.103l-0.342,0.136l-0.255,0.069
				l-0.546,0.17l-0.29,0.086l-0.271,0.067l-0.291,0.068l-0.29,0.052l-0.288,0.017h-0.922l-0.58-0.035l-0.562-0.066l-0.237-0.053
				l-0.257-0.066l-0.92-0.309l-0.271-0.084l-0.292-0.12l-0.544-0.238l-0.256-0.136l-0.257-0.154l-0.22-0.17l-0.223-0.188
				l-0.205-0.222l-0.187-0.221l-0.461-0.46l-0.17-0.205l-0.171-0.222l-0.137-0.221l-0.136-0.342l-0.255-0.768l-0.104-0.358
				l-0.051-0.255l-0.052-0.272l-0.051-0.255l-0.052-0.375l-0.017-0.256l-0.017-0.291v-0.289l0.017-0.29l0.017-0.307l0.035-0.29
				l0.051-0.29l0.068-0.289l0.085-0.291l0.086-0.256l0.103-0.271l0.119-0.392l0.119-0.273l0.067-0.154l0.136-0.255l0.238-0.375
				l0.173-0.238l0.084-0.137l0.204-0.205l0.29-0.238l0.221-0.17l0.223-0.152l0.512-0.342l0.221-0.136l0.239-0.138l0.238-0.119
				l0.358-0.154l0.238-0.083l0.256-0.086l0.255-0.069l0.649-0.119l0.256-0.051l0.853-0.103l0.544-0.033l0.512,0.033l0.409,0.017
				l0.289,0.035l0.291,0.051l0.289,0.068l0.29,0.052l0.273,0.067l0.256,0.068l0.255,0.086l0.358,0.136l0.238,0.103l0.562,0.324
				l0.221,0.153l0.222,0.17l0.29,0.271l0.188,0.173l0.188,0.186l0.154,0.205l0.238,0.325l0.137,0.221l0.119,0.221l0.136,0.222
				l0.188,0.342l0.137,0.222l0.119,0.256l0.085,0.238l0.084,0.392l0.104,0.511l0.033,0.292l0.053,0.288L292.516,259.479z
				 M288.357,261.695l0.152-0.239l0.169-0.375l0.103-0.255l0.087-0.392l0.033-0.255l0.034-0.411v-0.289l-0.018-0.29l-0.017-0.273
				l-0.103-0.511l-0.067-0.238l-0.188-0.375l-0.136-0.222l-0.239-0.307l-0.169-0.188l-0.257-0.272l-0.188-0.154l-0.442-0.255
				l-0.239-0.103l-0.273-0.085l-0.271-0.052l-0.546-0.034l-0.257,0.017l-0.375,0.018l-0.255,0.052l-0.442,0.119l-0.273,0.103
				l-0.392,0.203l-0.239,0.155l-0.271,0.237l-0.189,0.204l-0.186,0.257l-0.138,0.221l-0.051,0.103l-0.153,0.358l-0.086,0.255
				l-0.05,0.12l-0.053,0.238l-0.033,0.238l-0.017,0.239l-0.017,0.255v0.256l0.017,0.273l0.05,0.273l0.019,0.152l0.067,0.256
				l0.033,0.119l0.086,0.238l0.068,0.137l0.138,0.238l0.083,0.136l0.188,0.239l0.104,0.119l0.203,0.206l0.341,0.288l0.238,0.154
				l0.273,0.138l0.256,0.101l0.357,0.12l0.257,0.051l0.425,0.052l0.29,0.017l0.426-0.035l0.272-0.033l0.376-0.086l0.239-0.102
				l0.374-0.238l0.204-0.154l0.273-0.271l0.171-0.188L288.357,261.695z"/>
			<path fill="#808080" d="M305.801,256.137l-0.017,0.273v2.521l0.052,0.99v0.273l0.034,2.248v0.292l-0.017,0.136l-0.018,0.289
				l-0.052,0.818l0.017,0.988l-0.017,0.239l-0.068,0.205l-0.136,0.186l-0.171,0.12l-0.152,0.053l-0.238,0.017l-0.871,0.033
				l-0.273,0.017l-0.425,0.018h-0.273l-0.22-0.051l-0.206-0.086l-0.204-0.153l-0.153-0.222l-0.256-0.494l-0.152-0.223l-0.667-0.834
				l-0.169-0.204l-0.666-0.818l-0.152-0.223l-0.598-0.885l-0.152-0.206l-0.665-0.817l-0.171-0.204l-0.63-0.835l-0.154-0.137
				l-0.119,0.05l-0.051,0.206l-0.034,0.852v0.272l0.018,0.853v0.273l0.017,0.953v0.273l-0.051,0.955l0.017,0.273l0.104,0.68
				l0.017,0.273l-0.052,0.221l-0.119,0.12l-0.119,0.034l-0.204,0.035l-0.137,0.017l-0.291,0.017l-0.783-0.017h-0.273l-0.698,0.033
				h-0.273l-0.255-0.017l-0.188-0.033l-0.136-0.087l-0.069-0.119l-0.033-0.169l-0.017-0.119v-0.256l0.033-0.563l0.017-0.272
				l-0.05-0.904v-0.272l0.033-2.079l0.017-0.271l0.051-0.905l0.019-0.272v-1.177l-0.069-0.902v-0.273l0.069-0.903l-0.019-0.271
				l-0.067-0.922l-0.017-0.272v-0.392l0.017-0.255l0.033-0.257l0.034-0.188l0.052-0.119l0.103-0.05l0.188-0.036l0.512-0.033
				l0.511,0.033h1.278l0.204,0.018l0.086,0.068l0.104,0.152l0.715,0.77l0.17,0.202l0.631,0.819l0.17,0.205l0.632,0.836l0.17,0.202
				l0.613,0.854l0.154,0.204l0.647,0.819l0.17,0.204l0.613,0.852l0.138,0.119l0.136,0.019l0.119-0.086v-0.188l-0.119-0.716
				l-0.017-0.273l0.051-0.733v-0.271l-0.069-1.04v-0.273l0.069-1.039l-0.017-0.273l-0.053-0.631v-0.426l0.053-0.221l0.067-0.136
				l0.119-0.069l0.205-0.033h0.153l0.289-0.018l0.768,0.051h0.272l0.58-0.033l0.256,0.017l0.392,0.017l0.188,0.033l0.119,0.053
				l0.103,0.119l0.033,0.238l0.017,0.153l0.017,0.29l-0.033,0.528l-0.033,0.272L305.801,256.137z"/>
			<path fill="#808080" d="M320.537,253.65l-0.102,0.152l-1.229,1.808l-0.171,0.222l-0.578,0.783l-0.154,0.222l-0.478,0.836
				l-0.152,0.238l-0.529,0.784l-0.171,0.237l-0.544,0.786l-0.172,0.222l-0.562,0.783l-0.067,0.136v1.383l0.067,0.919l-0.017,0.273
				l-0.067,0.92v0.271l0.067,0.717l0.017,0.238l-0.051,0.137l-0.066,0.069l-0.156,0.033h-1.124l-1.993-0.068l-0.069-0.052
				l-0.033-0.169v-2.097l-0.017-0.273l-0.069-0.919l-0.017-0.273l0.068-0.921l-0.035-0.153l-0.119-0.12l-0.46-0.817l-0.153-0.238
				l-0.545-0.768l-0.153-0.239l-0.496-0.817l-0.136-0.238l-1.193-1.808l-0.137-0.238l-0.511-0.803l-0.136-0.238l-0.494-0.817
				l-0.051-0.154l0.017-0.083l0.101-0.069h2.285l0.273,0.017l0.989,0.053l0.187,0.017l0.069,0.05l0.494,0.853l0.136,0.222
				l0.511,0.768l0.136,0.221l0.444,0.785l0.152,0.239l0.461,0.732l0.119,0.153l0.104,0.033l0.119-0.12l0.425-0.817l0.154-0.221
				l0.528-0.751l0.152-0.221l0.428-0.802l0.136-0.238l0.478-0.783l0.137-0.172l0.136-0.033l0.188,0.017l0.854,0.051h0.271
				l0.988-0.051h0.272l0.972,0.069l0.205,0.033l0.086,0.033L320.537,253.65z"/>
			<path fill="#808080" d="M324.669,253.973l-0.119,0.409l-0.085,0.272l-0.188,0.375l-0.103,0.273l-0.152,0.393l-0.103,0.272
				l-0.137,0.407l-0.086,0.273l-0.119,0.41l-0.085,0.271l-0.154,0.375l-0.101,0.205l-0.12,0.103l-0.204,0.034l-0.238,0.017
				l-0.478-0.033l-0.494,0.033h-0.238l-0.239-0.017l-0.222-0.068l-0.136-0.171l-0.018-0.238l0.051-0.392l0.051-0.272l0.119-0.393
				l0.068-0.273l0.086-0.408l0.066-0.273l0.087-0.393l0.051-0.272l0.035-0.407l0.05-0.273l0.086-0.394l0.085-0.222l0.137-0.102
				l0.204-0.018l0.393-0.017h0.631l0.238-0.017l0.392-0.017h0.239l0.391,0.033l0.239,0.069l0.136,0.186L324.669,253.973z"/>
			<path fill="#808080" d="M337.03,261.95l-0.017,0.292l-0.033,0.288l-0.053,0.272l-0.085,0.375l-0.085,0.238l-0.154,0.342
				l-0.119,0.222l-0.204,0.307l-0.171,0.204l-0.203,0.205l-0.206,0.188l-0.341,0.221l-0.221,0.154l-0.256,0.138l-0.238,0.119
				l-0.394,0.136l-0.511,0.17l-0.271,0.051l-0.428,0.068l-0.255,0.034l-0.375,0.035l-0.239,0.017l-0.391,0.017l-0.819,0.052h-0.375
				l-0.238-0.019l-0.392-0.033l-0.256-0.033l-0.291-0.053l-0.256-0.085l-0.374-0.119l-0.239-0.118l-0.255-0.119l-0.239-0.119
				l-0.222-0.138l-0.544-0.375l-0.206-0.17l-0.307-0.239l-0.204-0.169l-0.188-0.189l-0.136-0.152l-0.017-0.119l0.086-0.154
				l0.066-0.085l0.172-0.188l0.477-0.441l0.154-0.188l0.288-0.443l0.154-0.187l0.171-0.188l0.188-0.104l0.188,0.035l0.187,0.136
				l0.546,0.375l0.255,0.136l0.239,0.12l0.392,0.188l0.257,0.085l0.273,0.084l0.271,0.052l0.392,0.018l0.273,0.017l1.073-0.069
				l0.273-0.033l0.137-0.033l0.256-0.103l0.221-0.136l0.171-0.173l0.086-0.119l0.102-0.255l-0.017-0.289l-0.035-0.136l-0.136-0.239
				l-0.086-0.103l-0.221-0.171l-0.138-0.051l-0.256-0.103l-0.288-0.067l-0.29-0.053l-1.62-0.152l-0.511-0.103l-0.272-0.068
				l-0.376-0.136l-0.255-0.085l-0.257-0.119l-0.579-0.292l-0.221-0.152l-0.257-0.152l-0.221-0.154l-0.29-0.238l-0.154-0.221
				l-0.152-0.256l-0.103-0.257l-0.119-0.358l-0.052-0.255l-0.051-0.375l-0.033-0.545l0.017-0.272l0.033-0.411l0.053-0.255
				l0.066-0.223l0.086-0.255l0.171-0.375l0.119-0.238l0.136-0.204l0.171-0.188l0.272-0.256l0.222-0.17l0.223-0.154l0.238-0.119
				l0.323-0.188l0.513-0.204l0.255-0.086l0.392-0.067l0.271-0.053l0.513-0.066l0.375-0.069l0.273-0.033l0.255-0.017h0.272
				l0.512,0.05l0.256,0.035l0.119,0.034l0.273,0.033l0.579,0.104l0.29,0.066l0.271,0.086l0.29,0.086l0.273,0.102l0.256,0.119
				l0.255,0.103l0.325,0.188l0.238,0.119l0.221,0.153l0.154,0.153v0.171l-0.103,0.188l-0.188,0.34l-0.138,0.206l-0.646,0.852
				l-0.188,0.239l-0.204,0.169l-0.138,0.053l-0.119-0.017l-0.171-0.086l-0.255-0.152l-0.256-0.104l-0.119-0.051l-0.255-0.085
				l-0.137-0.034l-0.291-0.068l-0.392-0.086l-0.271-0.017l-0.444-0.033h-0.443l-0.29,0.017l-0.288,0.05l-0.273,0.086l-0.102,0.052
				l-0.205,0.153l-0.087,0.102l-0.119,0.239l-0.033,0.273l0.052,0.221l0.136,0.222l0.188,0.171l0.205,0.103l0.119,0.05l0.256,0.052
				l0.426,0.051l0.579,0.033l0.29,0.053l0.579,0.137l0.547,0.169l0.391,0.086l0.256,0.068l0.478,0.171l0.342,0.152l0.238,0.119
				l0.238,0.137l0.223,0.136l0.494,0.41l0.186,0.204l0.172,0.204l0.204,0.307l0.137,0.223l0.119,0.255l0.068,0.257l0.069,0.375
				l0.033,0.256L337.03,261.95z"/>
			<path fill="#808080" d="M356.644,257.842l0.017,0.257l-0.017,0.256l-0.019,0.29l-0.084,0.426l-0.052,0.273l-0.136,0.34
				l-0.103,0.239l-0.17,0.323l-0.153,0.222l-0.239,0.325l-0.188,0.202l-0.222,0.206l-0.223,0.188l-0.221,0.153l-0.238,0.153
				l-0.375,0.17l-0.257,0.12l-0.288,0.119l-0.256,0.085l-0.375,0.103l-0.255,0.051l-0.257,0.035l-0.273,0.017l-0.441,0.033h-1.433
				l-0.29-0.017l-0.29,0.017l-0.289,0.035l-0.205,0.034l-0.052,0.119l-0.017,0.221l-0.067,1.143v0.272l0.017,0.512l-0.017,0.256
				l-0.017,0.376l-0.035,0.186l-0.051,0.103l-0.086,0.034l-0.187,0.034l-0.547,0.035l-0.663-0.035h-0.273l-0.546,0.035l-0.271-0.017
				l-0.394-0.019l-0.221-0.068l-0.103-0.103l-0.034-0.204l-0.035-0.255l-0.017-0.273v-1.824l0.069-0.902v-0.273l-0.069-0.903v-0.271
				l-0.033-2.081v-0.273l0.068-0.919v-0.273l-0.052-0.903v-0.272l0.068-0.904v-0.256l-0.035-0.511l0.019-0.255l0.017-0.137
				l0.034-0.188l0.05-0.103l0.087-0.083l0.187-0.019l0.494-0.034l0.394,0.017h0.255l1.141-0.017h1.144l1.142,0.069h1.125
				l0.648-0.035l0.239,0.019h0.136l0.255,0.05l0.392,0.103l0.273,0.085l0.273,0.103l0.256,0.119l0.255,0.154l0.223,0.169
				l0.305,0.272l0.206,0.172l0.086,0.102l0.306,0.307l0.172,0.222l0.084,0.104l0.118,0.203l0.069,0.102l0.104,0.223l0.084,0.255
				l0.068,0.239l0.017,0.119l0.069,0.238l0.033,0.137l0.068,0.238l0.103,0.478V257.842z M351.547,259.512l0.307-0.033l0.289-0.069
				l0.137-0.05l0.239-0.136l0.102-0.069l0.172-0.17l0.066-0.103l0.119-0.222l0.053-0.119l0.067-0.272l0.017-0.119v-0.428
				l-0.051-0.256l-0.051-0.136l-0.102-0.222l-0.069-0.102l-0.188-0.204l-0.136-0.086l-0.257-0.136l-0.441-0.12l-0.273-0.033h-0.393
				l-0.511,0.033l-0.75-0.051h-0.255l-0.138,0.018l-0.188,0.033l-0.068,0.052l-0.051,0.118l-0.033,0.205v0.392l0.05,0.632
				l0.017,0.273l0.018,0.988l0.017,0.204l0.052,0.119l0.188,0.067l0.887,0.069L351.547,259.512z"/>
			<path fill="#808080" d="M361.883,263.059v0.273l-0.068,0.919v0.273l-0.018,0.937v0.188l-0.05,0.085l-0.136,0.052l-0.239,0.017
				l-0.869-0.017h-1.058l-0.852-0.069l-0.103-0.034l-0.052-0.05v-0.172l-0.035-0.425v-0.273l-0.017-0.257v-0.255l-0.05-0.919
				l0.017-0.273l0.05-0.921l0.019-0.273l-0.052-0.937v-0.273l-0.017-0.92v-1.466l-0.017-0.938v-0.271l0.017-0.922v-1.466
				l-0.033-0.937l0.05-0.188l0.104-0.069l0.169-0.017h0.138l0.255-0.017l0.409,0.017h0.272l0.785-0.033h1.056l0.188,0.033
				l0.033,0.103l0.017,0.188l0.035,0.442l0.018,0.273v1.67l0.017,0.922v0.271l-0.017,0.938v0.272l0.017,0.921v0.272l-0.034,0.92
				v1.483L361.883,263.059z"/>
			<path fill="#808080" d="M373.988,264.405l-0.033,1.126l-0.034,0.204l-0.154,0.068l-0.136,0.017h-0.239l-0.646-0.05h-0.255
				l-0.99,0.05l-1.262-0.085h-0.271l-0.988,0.052l-0.273,0.017l-0.99,0.017l-0.271-0.017l-0.988-0.052l-0.272-0.017h-0.989
				l-0.29,0.017l-0.425,0.035l-0.291,0.017h-0.256l-0.152-0.068l-0.035-0.204l-0.034-0.683v-0.17l0.069-0.153l0.544-0.768
				l0.155-0.239l0.511-0.801l0.136-0.238l0.546-0.768l0.136-0.239l0.496-0.817l0.136-0.238l0.527-0.801l0.136-0.239l0.683-0.988
				l0.581-0.784l0.697-1.006v-0.188l-0.203-0.068l-0.955-0.067h-0.272l-0.955,0.017h-0.273l-0.953,0.051h-0.632l-0.562-0.033
				l-0.189-0.069l-0.066-0.204v-0.138l-0.018-0.288l-0.017-0.58v-0.272l-0.035-1.041l0.086-0.169l0.223-0.017l2.129-0.069h0.273
				l0.937,0.017h0.273l0.92-0.017h0.272l0.938,0.053l1.21-0.069h0.272l1.21,0.069l0.922-0.019l0.222,0.035l0.085,0.186v0.119
				l0.017,0.292l-0.017,0.152l-0.019,0.188l-0.101,0.154l-0.529,0.782l-0.682,0.99l-0.137,0.237l-0.545,0.769l-0.136,0.239
				l-0.461,0.817l-0.153,0.221l-0.546,0.768l-0.152,0.222l-0.631,1.023l-0.512,0.801l-0.138,0.221l-0.527,0.785l-0.069,0.17
				l0.053,0.119l0.187,0.051l0.291,0.019h0.289l1.738-0.119h0.273l1.039,0.033h0.273l0.664-0.052h0.256l0.136,0.019l0.172,0.066
				l0.05,0.205V264.405z"/>
			<path fill="#808080" d="M385.62,264.405l-0.033,1.126l-0.035,0.204l-0.154,0.068l-0.136,0.017h-0.238l-0.647-0.05h-0.255
				l-0.99,0.05l-1.262-0.085h-0.271l-0.988,0.052l-0.273,0.017l-0.989,0.017l-0.272-0.017l-0.988-0.052l-0.271-0.017h-0.99
				l-0.29,0.017l-0.425,0.035l-0.291,0.017h-0.256l-0.152-0.068l-0.035-0.204l-0.034-0.683v-0.17l0.069-0.153l0.544-0.768
				l0.155-0.239l0.511-0.801l0.137-0.238l0.545-0.768l0.136-0.239l0.496-0.817l0.136-0.238l0.527-0.801l0.136-0.239l0.684-0.988
				l0.58-0.784l0.698-1.006v-0.188l-0.204-0.068l-0.955-0.067h-0.272l-0.954,0.017h-0.273l-0.954,0.051h-0.632l-0.562-0.033
				l-0.188-0.069l-0.067-0.204v-0.138l-0.018-0.288l-0.017-0.58v-0.272l-0.035-1.041l0.086-0.169l0.223-0.017l2.129-0.069h0.273
				l0.937,0.017h0.273l0.921-0.017h0.271l0.938,0.053l1.21-0.069h0.272l1.21,0.069l0.922-0.019l0.222,0.035l0.085,0.186v0.119
				l0.017,0.292l-0.017,0.152l-0.018,0.188l-0.102,0.154l-0.529,0.782l-0.682,0.99l-0.137,0.237l-0.544,0.769l-0.137,0.239
				l-0.46,0.817l-0.154,0.221l-0.546,0.768l-0.152,0.222l-0.63,1.023l-0.513,0.801l-0.138,0.221l-0.527,0.785l-0.069,0.17
				l0.053,0.119l0.187,0.051l0.291,0.019h0.289l1.739-0.119h0.273l1.038,0.033h0.273l0.665-0.052h0.255l0.136,0.019l0.173,0.066
				l0.05,0.205V264.405z"/>
			<path fill="#808080" d="M397.405,264.167l-0.017,0.273l-0.068,0.919l-0.017,0.172l-0.069,0.119l-0.085,0.067l-2.233,0.069h-0.271
				l-0.905-0.069l-0.271,0.018l-0.886,0.068l-0.273,0.017h-1.176l-0.887-0.068h-0.273l-1.466,0.085l-0.579-0.033l-0.204-0.033
				l-0.119-0.087l-0.053-0.119l-0.033-0.188l-0.033-0.393l-0.017-0.271l0.017-0.256v-0.256l0.066-0.904v-0.272l0.019-0.902
				l-0.019-0.273l-0.05-0.903l-0.017-0.271l0.033-0.922v-1.449l0.068-0.902l-0.017-0.273l-0.052-0.903l-0.017-0.272v-0.41
				l0.033-0.511v-0.256l0.052-0.886l0.018-0.238l0.05-0.136l0.086-0.069l0.137-0.017l0.222-0.034l1.107,0.067l1.04-0.017h0.273
				l1.021,0.069h0.273l1.022-0.069h0.272l2.318,0.033l0.291-0.017l0.579-0.05h0.426l0.238,0.05l0.104,0.086l0.033,0.119l0.033,0.222
				v0.46l-0.033,0.426v0.29l0.017,0.427l0.017,0.255l-0.017,0.256l-0.033,0.205l-0.069,0.119l-0.084,0.068l-0.205,0.034h-0.136
				l-0.273,0.017l-1.602-0.034h-0.273l-0.869,0.034h-0.272l-0.887-0.034l-0.768-0.052h-0.255l-0.137,0.017l-0.17,0.035l-0.085,0.085
				l-0.019,0.103l-0.034,0.188l-0.033,0.408v0.271l0.017,0.292l0.017,0.186l0.034,0.12l0.068,0.086l0.188,0.05l0.544,0.034
				l0.547-0.034h1.619l1.909-0.102l0.527,0.035l0.189,0.033l0.101,0.086l0.052,0.102l0.017,0.188l0.035,0.29l0.017,0.29v0.562
				l0.034,0.393l-0.034,0.512l-0.035,0.205l-0.066,0.119l-0.119,0.083l-0.173,0.036h-0.34l-0.768-0.086l-0.271-0.017l-1.363,0.085
				l-1.091-0.035h-0.273l-0.682-0.05l-0.29,0.017l-0.204,0.017l-0.086,0.052l-0.052,0.119l-0.017,0.256l-0.051,0.426l-0.017,0.271
				v0.377l0.017,0.17l0.051,0.12l0.068,0.067l0.188,0.017l0.937,0.035h0.273l0.92-0.069l1.211,0.069h0.271l1.211-0.069h0.257
				l0.255,0.018l0.615,0.068l0.102,0.052l0.067,0.101l0.017,0.189L397.405,264.167z"/>
			<path fill="#808080" d="M410.792,265.7l-0.222,0.07h-1.192l-0.938-0.019h-0.273l-0.768,0.035h-0.221l-0.153-0.069l-0.137-0.137
				l-0.545-0.766l-0.154-0.206l-0.544-0.732l-0.154-0.204l-0.478-0.784l-0.154-0.205l-0.544-0.733l-0.119-0.136l-0.103-0.05
				l-0.205-0.019l-0.545-0.034l-0.222,0.018l-0.136,0.102l-0.053,0.222l-0.033,0.938l0.017,0.272l0.069,0.955l0.017,0.271
				l0.017,0.409v0.273l-0.017,0.272l-0.033,0.205l-0.086,0.085l-0.188,0.052h-0.273l-0.817-0.052l-0.784,0.052h-0.272l-0.785-0.052
				l-0.204-0.035l-0.102-0.066l-0.035-0.172l-0.018-0.238l-0.017-0.256l0.034-0.442l0.017-0.273l0.068-0.919v-0.273l-0.05-0.921
				l-0.019-0.273l-0.017-0.903v-0.271l0.052-0.922v-0.272l-0.052-0.92v-0.273l0.052-0.92v-0.273l0.033-0.902v-0.273l-0.017-0.92
				v-0.272l-0.033-0.563l0.017-0.255l0.017-0.104l0.052-0.222l0.101-0.136l0.206-0.05l0.136-0.018l0.255-0.018l0.768,0.035
				l2.028,0.066l1.16-0.066h0.272l1.124,0.066h0.649l0.289,0.018l0.255,0.052l0.358,0.103l0.255,0.085l0.256,0.101l0.273,0.104
				l0.257,0.119l0.221,0.136l0.323,0.223l0.188,0.152l0.17,0.172l0.17,0.204l0.239,0.34l0.154,0.223l0.204,0.324l0.119,0.239
				l0.119,0.255l0.085,0.272l0.051,0.271l0.019,0.273l0.033,0.376v0.272l-0.017,0.272l-0.035,0.29l-0.051,0.29l-0.068,0.271
				l-0.102,0.256l-0.119,0.257l-0.154,0.255l-0.153,0.221l-0.153,0.206l-0.152,0.187l-0.273,0.273l-0.188,0.153l-0.341,0.188
				l-0.204,0.119l-0.223,0.12l-0.221,0.05l-0.138,0.051l0.068,0.137l0.613,0.87l0.154,0.204l0.613,0.834l0.171,0.205l0.613,0.853
				l0.171,0.205l0.529,0.613l0.152,0.187l0.086,0.188L410.792,265.7z M405.627,259.138l0.377-0.068l0.221-0.085l0.204-0.119
				l0.17-0.205l0.12-0.256l0.067-0.271l0.017-0.273l-0.017-0.29l-0.033-0.289l-0.069-0.257l-0.119-0.255l-0.152-0.204l-0.188-0.154
				l-0.239-0.102l-0.375-0.086l-0.273-0.033l-0.852-0.019h-0.272l-0.869,0.052l-0.205,0.017l-0.119,0.052l-0.103,0.103l-0.017,0.188
				l0.017,0.391l0.034,0.273l0.035,0.291l0.017,0.288l-0.033,0.938l0.017,0.188l0.033,0.102l0.119,0.053l0.205,0.033l0.886,0.067
				h0.272L405.627,259.138z"/>
			<path fill="#808080" d="M415.896,263.059v0.273l-0.069,0.919v0.273l-0.017,0.937v0.188l-0.05,0.085l-0.138,0.052l-0.238,0.017
				l-0.87-0.017h-1.055l-0.853-0.069l-0.103-0.034l-0.053-0.05v-0.172l-0.033-0.425v-0.273l-0.017-0.257v-0.255l-0.052-0.919
				l0.019-0.273l0.05-0.921l0.017-0.273l-0.05-0.937v-0.273l-0.017-0.92v-1.466l-0.019-0.938v-0.271l0.019-0.922v-1.466
				l-0.036-0.937l0.053-0.188l0.103-0.069l0.169-0.017h0.136l0.256-0.017l0.411,0.017h0.271l0.783-0.033h1.058l0.188,0.033
				l0.033,0.103l0.017,0.188l0.033,0.442l0.019,0.273v1.67l0.018,0.922v0.271l-0.018,0.938v0.272l0.018,0.921v0.272l-0.036,0.92
				v1.483L415.896,263.059z"/>
			<path fill="#808080" d="M431.617,265.293l0.05,0.238l-0.119,0.187l-0.188,0.086l-0.221,0.033H430.9l-0.393-0.033l-0.255-0.017
				h-0.768l-1.058,0.067l-0.221-0.067l-0.102-0.137l-0.086-0.188l-0.527-1.431l-0.119-0.171l-0.156-0.033l-0.202-0.019l-1.024-0.067
				h-0.272l-1.278-0.033l-1.022-0.019h-0.256l-0.255,0.019h-0.785l-0.221,0.033l-0.138,0.086l-0.102,0.204l-0.393,1.158
				l-0.102,0.272l-0.188,0.222l-0.255,0.104l-0.273-0.017l-0.988-0.053h-0.273l-1.057,0.069l-0.222,0.017l-0.204-0.104l-0.136-0.186
				l0.017-0.222l0.033-0.137l0.103-0.273l0.238-0.528l0.103-0.256l0.425-0.954l0.104-0.239l0.443-0.955l0.104-0.255l0.391-0.921
				l0.104-0.255l0.459-0.955l0.103-0.238l0.613-1.398l0.478-1.021l0.12-0.274l0.374-0.767l0.12-0.271l0.323-0.786l0.103-0.255
				l0.307-0.698l0.085-0.188l0.172-0.103l0.255-0.05l0.783-0.036h1.33l0.785,0.018l0.289,0.052l0.188,0.136l0.084,0.223l0.239,0.663
				l0.103,0.257l0.428,0.801l0.101,0.238l0.375,0.836l0.103,0.238l0.307,0.869l0.104,0.239l0.374,0.818l0.103,0.239l0.375,0.835
				l0.103,0.239l0.341,0.852l0.101,0.239l0.53,1.055l0.408,0.802l0.119,0.239l0.461,1.074L431.617,265.293z M425.924,260.484
				l-0.069-0.222l-0.375-1.157l-0.086-0.256l-0.34-1.008l-0.085-0.221l-0.171-0.119l-0.222-0.052l-0.188,0.052l-0.17,0.171
				l-0.46,1.159l-0.104,0.257l-0.443,1.141l-0.051,0.255l0.051,0.206l0.188,0.084l0.238,0.035h1.074l0.8,0.05l0.222-0.066
				l0.137-0.138L425.924,260.484z"/>
		</g>
	</g>
</g>
<g>
	<path fill="#787878" d="M94.489,96.539l-0.016,0.223l0.016,0.444l-0.016,0.235l-0.015,0.119l-0.03,0.177l-0.043,0.103l-0.09,0.074
		l-0.178,0.029h-0.235l-0.442-0.045l-0.237-0.014l-0.68,0.045H92.29l-0.371-0.031h-0.221l-0.104,0.016l-0.146,0.044l-0.061,0.089
		l-0.014,0.191l-0.06,0.871v0.236l0.06,0.885l-0.015,0.237l-0.06,0.884l-0.015,0.237l0.029,0.872v1.358l-0.029,0.87l0.015,0.221
		l0.074,0.665l0.014,0.237l-0.043,0.176l-0.075,0.074l-0.192,0.029l-0.28-0.014l-0.369-0.043l-0.25-0.016l-0.666,0.045h-0.236
		l-0.663-0.045l-0.178-0.014l-0.089-0.045l-0.029-0.162v-0.251l0.043-0.621l0.017-0.235v-1.107l0.015-0.886v-0.235l0.015-0.872
		v-0.237l-0.06-0.884l-0.014-0.237v-1.121l-0.029-0.871v-0.207l-0.046-0.118l-0.146-0.03H87.89l-0.474,0.03h-0.265l-0.399-0.03
		l-0.25-0.015l-0.253,0.015l-0.338,0.014h-0.221l-0.118-0.014l-0.165-0.029l-0.088-0.06l-0.058-0.088l-0.03-0.147v-0.104
		l-0.015-0.235l0.03-0.444v-0.221l-0.046-0.562l0.016-0.235l0.044-0.192l0.058-0.104l0.088-0.042l0.15-0.031h0.339l0.545,0.045
		h0.235l0.858-0.06h0.236l0.871,0.075h0.235l1.094-0.075l0.855,0.015h0.235l1.109-0.015h1.09l0.488-0.028L94,95.359l0.118,0.015
		l0.178,0.03l0.104,0.059l0.073,0.104l0.03,0.177v0.104l0.014,0.221L94.489,96.539z"/>
	<path fill="#787878" d="M107.085,100.585l-0.015,0.236l-0.03,0.339l-0.03,0.222l-0.088,0.443l-0.03,0.339l-0.029,0.221
		l-0.044,0.235l-0.059,0.221l-0.148,0.311l-0.103,0.207l-0.399,0.666l-0.132,0.191l-0.148,0.191l-0.148,0.163l-0.237,0.251
		l-0.161,0.148l-0.193,0.147l-0.178,0.132l-0.265,0.177l-0.192,0.119l-0.222,0.118l-0.206,0.088l-0.296,0.118l-0.221,0.06
		l-0.473,0.147l-0.251,0.074l-0.235,0.058l-0.252,0.059l-0.251,0.045l-0.25,0.015h-0.798l-0.502-0.03l-0.487-0.058l-0.206-0.046
		l-0.222-0.058l-0.797-0.267l-0.235-0.073l-0.253-0.104l-0.471-0.206l-0.222-0.118l-0.223-0.134l-0.19-0.147l-0.193-0.163
		l-0.178-0.192l-0.161-0.191l-0.399-0.398l-0.147-0.177l-0.147-0.192l-0.119-0.191l-0.117-0.296l-0.221-0.665l-0.09-0.31
		l-0.043-0.221l-0.045-0.236l-0.044-0.221l-0.045-0.325l-0.014-0.222l-0.015-0.252v-0.25l0.015-0.251l0.014-0.265l0.03-0.251
		l0.044-0.251l0.06-0.25l0.074-0.252l0.074-0.222l0.089-0.235l0.103-0.339l0.103-0.236l0.059-0.134l0.118-0.221l0.206-0.325
		l0.15-0.206l0.073-0.119l0.176-0.178l0.251-0.207l0.191-0.147l0.193-0.132l0.443-0.296l0.191-0.118l0.207-0.119l0.207-0.104
		l0.31-0.133l0.207-0.072l0.221-0.074l0.221-0.06l0.562-0.104l0.222-0.044l0.738-0.089l0.472-0.028l0.443,0.028l0.354,0.015
		l0.25,0.03l0.252,0.044l0.25,0.06l0.251,0.045l0.237,0.058l0.222,0.059l0.221,0.075l0.311,0.118l0.206,0.089l0.487,0.281
		l0.191,0.133l0.192,0.147l0.251,0.234l0.162,0.15l0.163,0.161l0.133,0.178l0.207,0.281l0.119,0.191l0.103,0.191l0.118,0.192
		l0.163,0.296l0.119,0.192l0.103,0.222l0.074,0.206l0.073,0.339l0.09,0.442l0.028,0.253l0.046,0.249L107.085,100.585z
		 M103.484,102.504l0.131-0.208l0.146-0.324l0.089-0.221l0.076-0.339l0.028-0.221l0.03-0.356v-0.25l-0.015-0.251l-0.015-0.236
		l-0.089-0.442l-0.058-0.207l-0.164-0.325l-0.117-0.192l-0.208-0.266l-0.146-0.162l-0.223-0.236l-0.162-0.133l-0.383-0.221
		l-0.207-0.089l-0.237-0.074l-0.235-0.044l-0.473-0.03l-0.222,0.014l-0.325,0.016l-0.221,0.044l-0.383,0.104l-0.237,0.088
		l-0.339,0.176l-0.207,0.135l-0.235,0.205l-0.164,0.177l-0.161,0.222l-0.119,0.191l-0.044,0.089l-0.132,0.31l-0.075,0.221
		l-0.043,0.104l-0.046,0.206l-0.028,0.206l-0.015,0.208l-0.014,0.221v0.222l0.014,0.236l0.043,0.237l0.017,0.131l0.058,0.222
		l0.029,0.104l0.074,0.207l0.06,0.118l0.119,0.206l0.072,0.118l0.163,0.207l0.09,0.104l0.176,0.179l0.295,0.249l0.207,0.134
		l0.237,0.119l0.222,0.087l0.31,0.104l0.222,0.044l0.368,0.044l0.251,0.015l0.369-0.031l0.236-0.028l0.326-0.075l0.207-0.088
		l0.324-0.206l0.177-0.134l0.237-0.234l0.148-0.163L103.484,102.504z"/>
	<path fill="#787878" d="M118.589,97.691l-0.015,0.237v2.183l0.045,0.857v0.237l0.03,1.946v0.253l-0.015,0.118l-0.015,0.25
		l-0.045,0.709l0.015,0.856l-0.015,0.207l-0.059,0.177l-0.117,0.161l-0.148,0.104l-0.132,0.045l-0.206,0.014l-0.755,0.029
		l-0.236,0.014l-0.368,0.015h-0.237l-0.19-0.044l-0.178-0.074l-0.177-0.133l-0.132-0.192l-0.222-0.428l-0.132-0.192l-0.577-0.723
		l-0.146-0.177l-0.577-0.708l-0.131-0.193l-0.518-0.766l-0.132-0.179l-0.576-0.708l-0.148-0.177l-0.545-0.723l-0.134-0.118
		l-0.103,0.043l-0.044,0.179l-0.029,0.737v0.236l0.015,0.738v0.237l0.015,0.825v0.237l-0.044,0.827l0.015,0.236l0.089,0.589
		l0.015,0.237l-0.045,0.191l-0.103,0.104l-0.104,0.029l-0.177,0.03l-0.118,0.015l-0.252,0.015l-0.678-0.015h-0.237l-0.604,0.029
		h-0.237l-0.221-0.014l-0.163-0.029l-0.118-0.075l-0.06-0.103l-0.029-0.146l-0.015-0.103v-0.222l0.029-0.488l0.015-0.236
		l-0.043-0.783v-0.236l0.029-1.8l0.015-0.235l0.044-0.784l0.016-0.236V99.58l-0.06-0.782v-0.237l0.06-0.782l-0.016-0.235
		l-0.059-0.798l-0.014-0.236v-0.339l0.014-0.221l0.029-0.223l0.029-0.162l0.045-0.104l0.088-0.042l0.163-0.031l0.443-0.029
		l0.442,0.029h1.107l0.176,0.015l0.075,0.059l0.09,0.132l0.619,0.667l0.147,0.175l0.546,0.71l0.147,0.177l0.547,0.724l0.147,0.175
		l0.531,0.739l0.134,0.177l0.561,0.709l0.147,0.177l0.531,0.737l0.119,0.103l0.118,0.016l0.103-0.074v-0.163l-0.103-0.62
		l-0.014-0.237l0.043-0.635v-0.235l-0.06-0.901V97.78l0.06-0.9l-0.014-0.237l-0.046-0.546v-0.369l0.046-0.191l0.058-0.117
		l0.103-0.061l0.178-0.028h0.133l0.25-0.016l0.665,0.044h0.236l0.502-0.028l0.221,0.015l0.339,0.014l0.164,0.029l0.103,0.045
		l0.088,0.103l0.029,0.207l0.014,0.133l0.015,0.251l-0.028,0.458l-0.029,0.236L118.589,97.691z"/>
	<path fill="#787878" d="M131.35,95.537l-0.088,0.132l-1.064,1.565l-0.148,0.192l-0.5,0.679l-0.134,0.192l-0.413,0.724l-0.132,0.206
		l-0.458,0.679l-0.148,0.206l-0.472,0.681l-0.148,0.192l-0.487,0.678l-0.059,0.118v1.198l0.059,0.795l-0.015,0.237l-0.058,0.796
		v0.235l0.058,0.621l0.015,0.206l-0.044,0.119l-0.058,0.06l-0.135,0.029h-0.973l-1.726-0.06l-0.06-0.045l-0.028-0.146v-1.815
		l-0.015-0.237l-0.06-0.795l-0.015-0.237l0.059-0.797l-0.03-0.133l-0.103-0.104l-0.398-0.708l-0.132-0.206l-0.472-0.665
		l-0.133-0.207l-0.429-0.708l-0.118-0.207l-1.034-1.565l-0.118-0.207l-0.442-0.695l-0.118-0.206l-0.428-0.708l-0.044-0.133
		l0.015-0.072l0.086-0.061h1.979l0.236,0.015l0.857,0.046l0.162,0.014l0.06,0.043l0.428,0.738l0.117,0.192l0.442,0.665l0.118,0.191
		l0.385,0.679l0.132,0.208l0.399,0.634l0.103,0.133l0.09,0.029l0.103-0.104l0.368-0.708l0.134-0.191l0.457-0.65l0.132-0.191
		l0.37-0.694l0.118-0.207l0.414-0.678l0.119-0.149l0.118-0.028l0.162,0.014l0.739,0.044h0.235l0.856-0.044h0.236l0.841,0.061
		l0.178,0.029l0.074,0.028L131.35,95.537z"/>
	<path fill="#787878" d="M134.928,95.817l-0.103,0.354l-0.073,0.236l-0.162,0.325l-0.089,0.237l-0.132,0.339l-0.089,0.236
		l-0.119,0.353l-0.075,0.237l-0.103,0.355l-0.073,0.235l-0.134,0.325l-0.087,0.177l-0.104,0.089l-0.177,0.029l-0.207,0.015
		l-0.413-0.029l-0.428,0.029h-0.206l-0.208-0.015l-0.192-0.059l-0.117-0.148l-0.015-0.207l0.044-0.339l0.044-0.236l0.103-0.34
		l0.059-0.236l0.075-0.354l0.058-0.236l0.075-0.34l0.044-0.236l0.031-0.353l0.042-0.237l0.075-0.341l0.073-0.192l0.118-0.088
		l0.177-0.015l0.34-0.015h0.546l0.207-0.015l0.339-0.014h0.207l0.338,0.028l0.207,0.06l0.118,0.161L134.928,95.817z"/>
	<path fill="#787878" d="M145.632,102.724l-0.014,0.253l-0.029,0.25l-0.046,0.236l-0.073,0.325l-0.074,0.206l-0.133,0.296
		l-0.103,0.192l-0.177,0.266l-0.148,0.177l-0.176,0.177l-0.179,0.163l-0.295,0.191l-0.191,0.134l-0.221,0.119l-0.207,0.104
		l-0.341,0.117l-0.442,0.147l-0.234,0.043l-0.371,0.06l-0.221,0.029l-0.325,0.031l-0.208,0.014l-0.338,0.014l-0.709,0.045h-0.325
		l-0.206-0.016l-0.339-0.029l-0.222-0.028l-0.252-0.046l-0.221-0.074l-0.324-0.103l-0.208-0.102l-0.221-0.103l-0.207-0.104
		l-0.192-0.119l-0.471-0.325l-0.178-0.147l-0.266-0.208l-0.177-0.146l-0.164-0.164l-0.118-0.132l-0.014-0.103l0.075-0.133
		l0.057-0.074l0.149-0.164l0.413-0.382l0.134-0.163l0.25-0.384l0.134-0.161l0.148-0.163l0.162-0.089l0.163,0.03l0.162,0.117
		l0.473,0.325l0.221,0.117l0.207,0.104l0.339,0.163l0.223,0.074l0.237,0.073l0.235,0.045l0.339,0.015l0.237,0.014l0.93-0.06
		l0.236-0.028l0.119-0.029l0.222-0.088l0.191-0.118l0.148-0.15l0.075-0.103l0.087-0.221l-0.014-0.25l-0.03-0.118l-0.118-0.208
		l-0.074-0.088l-0.191-0.148l-0.119-0.044l-0.222-0.088l-0.25-0.059l-0.251-0.046l-1.403-0.132l-0.442-0.089l-0.236-0.059
		l-0.325-0.117l-0.221-0.074l-0.223-0.103l-0.501-0.253l-0.191-0.132l-0.223-0.131l-0.191-0.134l-0.251-0.206l-0.134-0.191
		l-0.132-0.222l-0.089-0.223l-0.103-0.31l-0.045-0.221l-0.043-0.325l-0.029-0.472l0.015-0.235l0.029-0.356l0.046-0.221l0.058-0.193
		l0.074-0.22l0.148-0.325l0.103-0.206l0.118-0.177l0.148-0.163l0.236-0.222l0.192-0.147l0.193-0.134l0.206-0.103l0.28-0.163
		l0.444-0.176l0.221-0.075l0.339-0.059l0.235-0.045l0.444-0.058l0.325-0.06l0.236-0.028l0.221-0.015h0.236l0.443,0.043l0.222,0.031
		l0.103,0.029l0.237,0.029l0.501,0.09l0.251,0.058l0.235,0.074l0.251,0.075l0.237,0.088l0.221,0.103l0.221,0.089l0.282,0.162
		l0.207,0.104l0.191,0.132l0.134,0.133v0.148l-0.089,0.163l-0.163,0.294l-0.119,0.179l-0.56,0.737l-0.163,0.208l-0.177,0.146
		l-0.12,0.045l-0.103-0.014l-0.148-0.075l-0.221-0.132l-0.222-0.089l-0.103-0.044l-0.221-0.074l-0.118-0.029l-0.252-0.06
		l-0.339-0.074l-0.235-0.014l-0.385-0.029h-0.384l-0.251,0.014l-0.25,0.043l-0.237,0.075l-0.088,0.045l-0.177,0.132l-0.075,0.088
		l-0.104,0.207l-0.029,0.237l0.045,0.191l0.118,0.192l0.163,0.148l0.177,0.089l0.103,0.043l0.222,0.044l0.369,0.044l0.501,0.029
		l0.251,0.045l0.502,0.118l0.473,0.146l0.338,0.074l0.222,0.059l0.414,0.148l0.296,0.132l0.207,0.103l0.206,0.119l0.193,0.118
		l0.428,0.355l0.16,0.177l0.149,0.177l0.177,0.265l0.119,0.193l0.103,0.22l0.059,0.223l0.06,0.325l0.029,0.222L145.632,102.724z"/>
</g>
</svg>
