<?xml version="1.0" encoding="utf-8"?>
<!-- Generator: Adobe Illustrator 15.0.0, SVG Export Plug-In . SVG Version: 6.00 Build 0)  -->
<!DOCTYPE svg PUBLIC "-//W3C//DTD SVG 1.1//EN" "http://www.w3.org/Graphics/SVG/1.1/DTD/svg11.dtd">
<svg version="1.1" id="Layer_1" xmlns="http://www.w3.org/2000/svg" xmlns:xlink="http://www.w3.org/1999/xlink" x="0px" y="0px"
	 width="537px" height="419px" viewBox="0 0 537 419" enable-background="new 0 0 537 419" xml:space="preserve">
<g>
	<rect x="165.396" y="60" fill="#EDEDED" width="4" height="20"/>
	<rect x="300.396" fill="#EDEDED" width="32" height="4"/>
	<rect x="166.396" y="99" fill="#EDEDED" width="3" height="15"/>
	<rect x="166.396" y="134" fill="#EDEDED" width="3" height="14"/>
	<path fill="#E6E6E6" d="M356.357,10.626c-7.96-7.96-17.79-8.327-18.49-8.33L337.75,2H195.553l-0.024,0.297
		c-0.496,0-10.788,0.187-18.838,8.237c-8.261,8.261-9.294,19.519-9.294,19.519v1.481v359.135v1.595c0,0,1.033,11.139,9.294,19.398
		c7.975,7.975,17.955,7.699,18.62,7.699l0.243-0.361H337.75l0.006,0.361c0.137,0.002,10.398,0.297,18.602-7.908
		c8.262-8.26,9.039-19.189,9.039-19.189v-1.595V31.534v-1.481C365.396,30.053,364.619,18.887,356.357,10.626z"/>
	<path fill="#F5F5F5" d="M361.396,387.934V33.357v-3.951c0,0-0.203-8.362-7.419-15.578S335.926,6,335.926,6h-138.55
		c0,0-10.59,0.613-17.807,7.829s-7.173,15.578-7.173,15.578v3.951v354.576v3.724c0,0-0.033,8.071,7.183,15.287
		c7.217,7.216,17.817,7.537,17.817,7.537V414h138v0.481c0,0,11.101-0.321,18.316-7.537s7.684-15.287,7.684-15.287V387.934z"/>
	<circle fill="#EDEDED" cx="266.651" cy="387.25" r="19.141"/>
	<rect x="182.396" y="62" fill="#373C46" width="168" height="298"/>
	<g>
		<circle fill="#1F1F1F" cx="266.765" cy="22.305" r="3.76"/>
		<g>
			<circle fill="#1F1F1F" cx="246.256" cy="38.712" r="3.76"/>
			<path fill="#1F1F1F" d="M287.275,36h-27.348c-2.076,0-3.97,1.16-3.97,3.237c0,2.036,2.438,3.162,3.438,3.224V43h27.879
				c2.076,0,3.758-1.424,3.758-3.5S289.352,36,287.275,36z"/>
		</g>
	</g>
	<path opacity="0.06" fill="#FFFFFF" d="M361.396,296.783V33.357v-3.951c0,0-0.203-8.362-7.419-15.578S335.926,6,335.926,6h-73.832
		L361.396,296.783z"/>
	<g>
		<path fill="#FFFFFF" d="M223.572,222.178v-2.024h-0.073c-0.544,0.877-1.312,1.534-2.307,1.971
			c-0.996,0.438-2.061,0.656-3.196,0.656c-2.652,0-4.848-0.952-6.587-2.857c-1.74-1.905-2.61-4.197-2.61-6.873
			c0-2.673,0.857-4.957,2.575-6.852c1.715-1.895,3.9-2.842,6.549-2.842c2.417,0,4.299,0.793,5.649,2.38v-13.033h6.461v29.474
			H223.572z M222.665,210.157c-0.744-0.793-1.758-1.189-3.035-1.189c-1.28,0-2.291,0.396-3.034,1.189
			c-0.748,0.794-1.121,1.771-1.121,2.93c0,1.185,0.373,2.162,1.121,2.93c0.744,0.77,1.754,1.155,3.034,1.155
			c1.277,0,2.291-0.386,3.035-1.155c0.745-0.768,1.12-1.745,1.12-2.93C223.785,211.929,223.41,210.951,222.665,210.157"/>
		<path fill="#FFFFFF" d="M235.911,205.983c2.119-1.75,4.716-2.627,7.793-2.627c3.078,0,5.676,0.877,7.795,2.627
			c2.12,1.754,3.177,4.12,3.177,7.104c0,2.981-1.057,5.345-3.177,7.085c-2.119,1.74-4.717,2.609-7.795,2.609
			c-3.053,0-5.646-0.869-7.775-2.609c-2.132-1.739-3.199-4.104-3.199-7.085C232.731,210.104,233.792,207.737,235.911,205.983
			 M246.741,210.157c-0.746-0.793-1.758-1.189-3.037-1.189c-1.277,0-2.29,0.396-3.034,1.189c-0.749,0.794-1.12,1.771-1.12,2.93
			c0,1.185,0.371,2.162,1.12,2.93c0.744,0.77,1.756,1.155,3.034,1.155c1.278,0,2.292-0.386,3.037-1.155
			c0.746-0.768,1.119-1.745,1.119-2.93C247.86,211.929,247.487,210.951,246.741,210.157"/>
		<path fill="#FFFFFF" d="M264.052,203.96v2.344h0.071c1.327-1.965,3.269-2.949,5.823-2.949c2.346,0,4.07,0.668,5.186,2.007
			c1.112,1.337,1.667,3.191,1.667,5.559v11.255h-6.461V213.3v-0.551v-0.639c0-0.106-0.005-0.308-0.018-0.604
			c-0.013-0.295-0.037-0.516-0.07-0.656c-0.036-0.142-0.09-0.343-0.161-0.604s-0.152-0.448-0.25-0.569
			c-0.093-0.117-0.219-0.265-0.37-0.443c-0.156-0.177-0.324-0.307-0.515-0.392c-0.191-0.08-0.417-0.159-0.677-0.23
			s-0.545-0.105-0.851-0.105c-2.25,0-3.375,1.408-3.375,4.225v9.445h-6.462V203.96H264.052z"/>
		<path fill="#FFFFFF" d="M294.767,222.178v-2.024h-0.068c-0.545,0.877-1.314,1.534-2.31,1.971c-0.992,0.438-2.06,0.656-3.195,0.656
			c-2.652,0-4.848-0.952-6.589-2.857c-1.737-1.905-2.609-4.197-2.609-6.873c0-2.673,0.857-4.957,2.574-6.852
			s3.901-2.842,6.551-2.842c2.415,0,4.298,0.793,5.646,2.38v-13.033h6.468v29.474H294.767z M293.863,210.157
			c-0.744-0.793-1.758-1.189-3.035-1.189c-1.278,0-2.292,0.396-3.037,1.189c-0.745,0.794-1.118,1.771-1.118,2.93
			c0,1.185,0.373,2.162,1.118,2.93c0.745,0.77,1.759,1.155,3.037,1.155c1.277,0,2.291-0.386,3.035-1.155
			c0.744-0.768,1.12-1.745,1.12-2.93C294.983,211.929,294.607,210.951,293.863,210.157"/>
		<path fill="#FFFFFF" d="M323.994,213.477v0.675h-13.6c0,2.699,1.348,4.049,4.047,4.049c1.397,0,2.426-0.556,3.089-1.669h6.215
			c-0.496,2.036-1.609,3.587-3.34,4.652c-1.727,1.064-3.703,1.599-5.927,1.599c-3.127,0-5.666-0.853-7.619-2.559
			c-1.952-1.703-2.928-4.084-2.928-7.137c0-3.007,0.928-5.381,2.787-7.119c1.855-1.741,4.289-2.612,7.297-2.612
			c3.147,0,5.598,0.907,7.35,2.717C323.121,207.885,323.994,210.354,323.994,213.477 M310.501,210.424h7.489
			c-0.164-0.853-0.591-1.545-1.276-2.078c-0.688-0.533-1.479-0.798-2.38-0.798c-0.97,0-1.805,0.247-2.503,0.744
			C311.13,208.789,310.688,209.499,310.501,210.424"/>
		<path fill="#FFFFFF" d="M249.467,191.935c-0.722-0.051-1.549-0.637-1.836-1.302l-2.131-4.94c-0.283-0.665-0.625-0.625-0.757,0.087
			l-2.478,13.481c-0.131,0.712,0.272,1,0.9,0.636l11.791-6.82c0.628-0.364,0.55-0.702-0.173-0.755L249.467,191.935z"/>
	</g>
</g>
<g>
	<circle fill="#349CA5" cx="505" cy="199.952" r="32"/>
	<path fill="#0D6D6D" d="M519.957,198.062c0.5-0.851,0.79-1.837,0.79-2.894c0-3.166-2.568-5.733-5.733-5.733
		c-1.493,0-2.851,0.576-3.872,1.513c-1.571-4.32-5.714-7.406-10.577-7.406c-6.215,0-11.253,5.038-11.253,11.253
		c0,0.412,0.023,0.817,0.066,1.217c-3.235,1.595-5.469,5.136-5.469,8.987c0,5.403,4.38,10,9.78,10h23.991
		c4.643,0,8.41-3.984,8.41-8.629C526.091,202.517,523.494,199.057,519.957,198.062z"/>
</g>
<g>
	<circle fill="#8D81CD" cx="441" cy="354.952" r="32"/>
	<g>
		<path fill-rule="evenodd" clip-rule="evenodd" fill="#5E56AF" d="M424.396,368.98c0,0.563-0.456,1.02-1.02,1.02h-3.961
			c-0.563,0-1.02-0.456-1.02-1.02v-3.961c0-0.563,0.456-1.02,1.02-1.02h3.961c0.563,0,1.02,0.456,1.02,1.02V368.98z"/>
		<path fill-rule="evenodd" clip-rule="evenodd" fill="#5E56AF" d="M433.396,368.98c0,0.563-0.456,1.02-1.02,1.02h-3.961
			c-0.563,0-1.02-0.456-1.02-1.02v-6.961c0-0.563,0.456-1.02,1.02-1.02h3.961c0.563,0,1.02,0.456,1.02,1.02V368.98z"/>
		<path fill-rule="evenodd" clip-rule="evenodd" fill="#5E56AF" d="M442.396,368.98c0,0.563-0.456,1.02-1.02,1.02h-3.961
			c-0.563,0-1.02-0.456-1.02-1.02V356.02c0-0.563,0.456-1.02,1.02-1.02h3.961c0.563,0,1.02,0.456,1.02,1.02V368.98z"/>
		<path fill-rule="evenodd" clip-rule="evenodd" fill="#5E56AF" d="M451.396,368.98c0,0.563-0.456,1.02-1.02,1.02h-3.961
			c-0.563,0-1.02-0.456-1.02-1.02V348.02c0-0.563,0.456-1.02,1.02-1.02h3.961c0.563,0,1.02,0.456,1.02,1.02V368.98z"/>
		<path fill-rule="evenodd" clip-rule="evenodd" fill="#5E56AF" d="M460.396,369.98c0,0.563-0.456,1.02-1.02,1.02h-3.961
			c-0.563,0-1.02-0.456-1.02-1.02V337.02c0-0.563,0.456-1.02,1.02-1.02h3.961c0.563,0,1.02,0.456,1.02,1.02V369.98z"/>
	</g>
</g>
<g>
	<circle fill="#4189C7" cx="64" cy="296.952" r="32"/>
	<g>
		<path fill="#1C69A3" d="M69.396,299.371v-5.135l-3.941-0.353c-0.205-0.634-0.679-1.239-0.999-1.811l2.188-2.802l-3.684-3.632
			l-2.921,2.369c-0.58-0.295-1.205-0.386-1.843-0.565L57.824,284h-5.135l-0.371,3.568c-0.488,0.16-0.957,0.284-1.409,0.514
			l-2.896-2.405l-3.631,3.613l2.293,2.793c-0.312,0.559-0.35,1.145-0.552,1.764l-3.726,0.39v5.135l3.617,0.384
			c0.177,0.617,0.301,1.209,0.586,1.771l-2.453,2.93l3.604,3.631l2.822-2.32c0.554,0.31,1.132,0.911,1.745,1.112L52.688,311h5.135
			l0.365-3.996c0.765-0.215,1.494-0.686,2.173-1.065l2.835,2.234l3.631-3.674l-2.396-2.95c0.292-0.575,0.948-1.192,1.126-1.825
			L69.396,299.371z M55.46,302.318c-2.949,0-5.339-2.391-5.339-5.34c0-2.948,2.391-5.34,5.339-5.34s5.34,2.392,5.34,5.34
			C60.8,299.928,58.409,302.318,55.46,302.318z"/>
		<path fill="#1C69A3" d="M82.396,287.664v-3.111l-2.071-0.213c-0.124-0.384-0.254-0.75-0.447-1.097l1.405-1.697l-2.192-2.199
			l-1.75,1.435c-0.351-0.179-0.719-0.41-1.106-0.518L76.02,278h-3.11l-0.226,2.338c-0.295,0.098-0.579,0.261-0.854,0.399
			l-1.754-1.413l-2.199,2.211l1.389,1.704c-0.189,0.338-0.351,0.698-0.474,1.073l-2.396,0.24v3.111l2.33,0.232
			c0.107,0.373,0.252,0.731,0.425,1.072l-1.451,1.774l2.2,2.199l1.718-1.405c0.335,0.188,0.691,0.197,1.061,0.32L72.91,294h3.11
			l0.221-2.066c0.463-0.131,0.904-0.239,1.316-0.47l1.717,1.441l2.2-2.181l-1.452-1.764c0.177-0.349,0.258-0.711,0.366-1.094
			L82.396,287.664z M74.588,289.448c-1.786,0-3.233-1.448-3.233-3.234c0-1.785,1.448-3.233,3.233-3.233
			c1.786,0,3.234,1.448,3.234,3.233C77.822,288,76.374,289.448,74.588,289.448z"/>
		<path fill="#1C69A3" d="M82.396,309.196v-3.11l-2.071-0.213c-0.124-0.384-0.254-0.75-0.447-1.097l1.405-1.698l-2.192-2.198
			l-1.75,1.435c-0.351-0.179-0.719-0.176-1.106-0.285L76.02,300h-3.11l-0.226,2.104c-0.295,0.098-0.579,0.146-0.854,0.284
			l-1.754-1.473l-2.199,2.183l1.389,1.688c-0.189,0.338-0.351,0.691-0.474,1.065l-2.396,0.234v3.11l2.33,0.232
			c0.107,0.374,0.252,0.732,0.425,1.073l-1.451,1.774l2.2,2.199l1.718-1.405c0.335,0.188,0.691,0.432,1.061,0.553L72.91,316h3.11
			l0.221-2.301c0.463-0.131,0.904-0.354,1.316-0.585l1.717,1.383l2.2-2.21l-1.452-1.779c0.177-0.349,0.258-0.718,0.366-1.101
			L82.396,309.196z M74.588,310.981c-1.786,0-3.233-1.448-3.233-3.234c0-1.785,1.448-3.233,3.233-3.233
			c1.786,0,3.234,1.448,3.234,3.233C77.822,309.533,76.374,310.981,74.588,310.981z"/>
	</g>
</g>
<g>
	<circle fill="#D66483" cx="462" cy="42.952" r="32"/>
	<g>
		<path fill="#BC3961" d="M480.904,34.559l-4.592,4.593L465.686,28.38l4.701-4.702c0,0,0.6-0.599,1.799-0.599
			c0.906,0,1.816,0.835,1.816,0.835l6.859,6.86c0,0,0.836,0.909,0.836,1.636C481.697,33.936,480.904,34.559,480.904,34.559z"/>
		<path fill="#BC3961" d="M463.99,30.123l-21.594,21.64v11.038l10.289,0.024l22.004-22.003L463.99,30.123z M464.486,34.152
			l1.102,1.102l-14.643,14.642l-1.1-1.102L464.486,34.152z M451.814,60h-3.418v-4.123l-3-0.047v-3.486l2.012-1.815l6.561,6.842
			L451.814,60z"/>
	</g>
</g>
<g>
	<circle fill="#FFCC66" cx="32" cy="69.952" r="32"/>
	<path fill="#E5A845" d="M32,46.804c-13.033,0-23.598,10.564-23.598,23.598c0,5.034,1.577,9.699,4.262,13.53l38.658,0.02
		c2.693-3.834,4.275-8.508,4.275-13.55C55.598,57.369,45.033,46.804,32,46.804z M32,50.049c1.874,0,3.393,1.519,3.393,3.392
		S33.874,56.833,32,56.833s-3.393-1.519-3.393-3.392S30.126,50.049,32,50.049z M15.481,73.941c-1.873,0-3.392-1.519-3.392-3.392
		c0-1.874,1.519-3.393,3.392-3.393c1.874,0,3.393,1.519,3.393,3.393C18.874,72.423,17.355,73.941,15.481,73.941z M20.201,62.143
		c-1.873,0-3.392-1.519-3.392-3.392s1.519-3.392,3.392-3.392c1.874,0,3.393,1.519,3.393,3.392S22.075,62.143,20.201,62.143z
		 M37.732,61.11l-2.799,9.9c1.356,0.931,2.263,2.489,2.263,4.258c0,2.851-2.277,5.162-5.128,5.162s-4.97-2.311-4.97-5.162
		c0-2.81,2.299-5.09,5.299-5.156v-0.005L34.648,60h0.002c0.165-1,0.795-1.119,1.552-1.119c0.882,0,1.598,0.701,1.598,1.584
		c0,0.179-0.036,0.415-0.091,0.576L37.732,61.11z M40.406,58.75c0-1.874,1.519-3.392,3.393-3.392c1.873,0,3.392,1.519,3.392,3.392
		s-1.519,3.392-3.392,3.392C41.925,62.143,40.406,60.624,40.406,58.75z M49.108,73.941c-1.874,0-3.393-1.519-3.393-3.392
		c0-1.874,1.519-3.393,3.393-3.393c1.873,0,3.392,1.519,3.392,3.393C52.5,72.423,50.981,73.941,49.108,73.941z"/>
</g>
</svg>
